<svg xmlns="http://www.w3.org/2000/svg" viewBox="0 0 529.90 148.80" width="529.90" height="148.80" role="img" aria-label="BTH Expert">

<g transform="translate(14.399999999999999,14.399999999999999)">
<g fill="#f5f0e8" transform="translate(0.000,93.000) scale(0.10000,-0.10000)">
<path transform="translate(0,0)" d="M40 0V660H306Q367 660 414.5 649.0Q462 638 495.5 616.5Q529 595 546.5 563.0Q564 531 564 488Q564 448 547.5 416.0Q531 384 494.5 364.5Q458 345 399 340V331Q500 326 545.5 284.0Q591 242 591 173Q591 115 561.0 77.0Q531 39 473.5 19.5Q416 0 331 0ZM202 130H324Q375 130 403.0 148.5Q431 167 431 201Q431 239 399.5 257.5Q368 276 305 276H202ZM202 386H289Q346 386 376.0 405.0Q406 424 406 461Q406 496 379.0 513.5Q352 531 298 531H202Z"/>
<path transform="translate(590.0,0)" d="M177 0V660H339V0ZM14 522V660H502V522Z"/>
<path transform="translate(1088.0,0)" d="M435 0V660H597V0ZM40 0V660H202V0ZM161 264V400H520V264Z"/>
</g>
<g fill="#f5f0e8" transform="translate(200.700,93.000) scale(0.10000,-0.10000)">
<path transform="translate(0,0)" d="M45.9996337890625 0V660H173.00177001953125V0ZM131.33514404296875 0V107.6683349609375H506.33367919921875V0ZM131.33514404296875 283.999267578125V382.333984375H460.0003662109375V283.999267578125ZM131.33514404296875 552.3316650390625V660H506.33367919921875V552.3316650390625Z"/>
<path transform="translate(516.0,0)" d="M6.99981689453125 0 178.99945068359375 261.6668701171875 7.333251953125 522.0003662109375H155.335693359375L256.334228515625 336.00128173828125H261.00091552734375L359.99945068359375 522.0003662109375H506.335205078125L339.00238037109375 261.6668701171875L509.33514404296875 0H359.3326416015625L260.00091552734375 184.33233642578125H256.334228515625L153.66888427734375 0Z"/>
<path transform="translate(1013.0,0)" d="M40.6663818359375 -143.66693115234375 41.3330078125 313.66827392578125 40.6663818359375 522.0003662109375H154.33477783203125L148.66845703125 355.667236328125H156.00177001953125Q168.001708984375 418.6669921875 192.0015869140625 458.50030517578125Q216.00146484375 498.3336181640625 251.33474731445312 517.1669921875Q286.66802978515625 536.0003662109375 333.00152587890625 536.0003662109375Q393.00164794921875 536.0003662109375 437.6682434082031 505.6669616699219Q482.3348388671875 475.33355712890625 506.834716796875 414.83349609375Q531.3345947265625 354.33343505859375 531.3345947265625 263.33349609375Q531.3345947265625 169 505.50128173828125 107.49996948242188Q479.66796875 45.99993896484375 435.33465576171875 16.1666259765625Q391.0013427734375 -13.66668701171875 334.66802978515625 -13.66668701171875Q286.0015869140625 -13.66668701171875 249.66836547851562 7.99981689453125Q213.33514404296875 29.66632080078125 190.33517456054688 72.33279418945312Q167.335205078125 114.999267578125 158.66851806640625 176.9991455078125L149.00189208984375 176.66583251953125Q154.66851806640625 139.9996337890625 158.83517456054688 105.99978637695312Q163.0018310546875 71.99993896484375 165.33517456054688 41.666595458984375Q167.66851806640625 11.333251953125 167.66851806640625 -16.0001220703125V-143.66693115234375ZM291.00030517578125 93.33489990234375Q327.3333740234375 93.33489990234375 352.3330993652344 114.66815185546875Q377.33282470703125 136.00140380859375 390.16595458984375 173.66775512695312Q402.99908447265625 211.3341064453125 402.99908447265625 259.66668701171875Q402.99908447265625 307.99951171875 390.3325500488281 345.3325500488281Q377.666015625 382.66558837890625 352.83294677734375 404.16546630859375Q327.9998779296875 425.66534423828125 291.3336181640625 425.66534423828125Q262.66754150390625 425.66534423828125 239.83450317382812 413.16558837890625Q217.00146484375 400.66583251953125 201.0015869140625 378.832763671875Q185.001708984375 356.99969482421875 176.33505249023438 328.3331298828125Q167.66839599609375 299.66656494140625 167.66839599609375 266.666259765625V258.33306884765625Q167.66839599609375 233.9993896484375 173.00177001953125 210.33282470703125Q178.33514404296875 186.666259765625 188.33514404296875 165.49990844726562Q198.33514404296875 144.33355712890625 213.33502197265625 128.0006103515625Q228.33489990234375 111.66766357421875 247.83456420898438 102.50128173828125Q267.334228515625 93.33489990234375 291.00030517578125 93.33489990234375Z"/>
<path transform="translate(1554.0,0)" d="M283.000244140625 -13.66668701171875Q214.99981689453125 -13.66668701171875 166.66635131835938 6.666717529296875Q118.3328857421875 27.0001220703125 87.3328857421875 63.333526611328125Q56.3328857421875 99.66693115234375 41.666290283203125 148.000244140625Q26.99969482421875 196.33355712890625 26.99969482421875 252.66668701171875Q26.99969482421875 309.66668701171875 41.666351318359375 360.8334045410156Q56.3330078125 412.0001220703125 86.49969482421875 451.3335266113281Q116.6663818359375 490.66693115234375 163.33316040039062 513.3336486816406Q209.99993896484375 536.0003662109375 274.00018310546875 536.0003662109375Q335.33392333984375 536.0003662109375 380.6674499511719 514.8335571289062Q426.0009765625 493.666748046875 454.5010070800781 455.1665344238281Q483.00103759765625 416.66632080078125 493.50091552734375 364.33282470703125Q504.00079345703125 311.99932861328125 496.0006103515625 249.33258056640625L105.667724609375 242.999267578125V318.00006103515625L400.66552734375 323.3333740234375L380.3321533203125 279.99957275390625Q384.332275390625 327.6661376953125 373.83245849609375 361.8326416015625Q363.3326416015625 395.9991455078125 338.8329162597656 414.4990234375Q314.33319091796875 432.9989013671875 274.00018310546875 432.9989013671875Q231.00054931640625 432.9989013671875 203.334228515625 411.1657409667969Q175.66790771484375 389.33258056640625 162.83480834960938 349.9995422363281Q150.001708984375 310.66650390625 150.001708984375 258.33349609375Q150.001708984375 171.00054931640625 184.16793823242188 127.50094604492188Q218.33416748046875 84.0013427734375 285.00018310546875 84.0013427734375Q316.6663818359375 84.0013427734375 337.66607666015625 93.16781616210938Q358.665771484375 102.33428955078125 371.1656188964844 118.00070190429688Q383.66546630859375 133.6671142578125 388.4987487792969 153.16693115234375Q393.33203125 172.666748046875 391.99871826171875 193.0001220703125L509.0006103515625 185.666748046875Q510.6673583984375 148.0003662109375 498.83416748046875 112.50039672851562Q487.0009765625 77.00042724609375 459.8343811035156 48.6669921875Q432.66778564453125 20.33355712890625 388.83428955078125 3.33343505859375Q345.00079345703125 -13.66668701171875 283.000244140625 -13.66668701171875Z"/>
<path transform="translate(2065.0,0)" d="M41.3330078125 0V266.00128173828125L40.6663818359375 522.0003662109375H153.00140380859375L145.66851806640625 297.00128173828125H154.33514404296875Q160.33514404296875 382.6678466796875 178.66842651367188 434.6676330566406Q197.001708984375 486.66741943359375 225.83489990234375 510.167236328125Q254.6680908203125 533.6670532226562 291.33453369140625 533.6670532226562Q307.66796875 533.6670532226562 325.3347473144531 529.5003356933594Q343.00152587890625 525.3336181640625 360.3349609375 516.33349609375L353.33489990234375 377.99761962890625Q334.334716796875 388.33111572265625 316.001220703125 392.9978942871094Q297.667724609375 397.6646728515625 281.334228515625 397.6646728515625Q245.33447265625 397.6646728515625 219.83468627929688 373.6650390625Q194.33489990234375 349.6654052734375 180.83502197265625 303.332763671875Q167.33514404296875 257.0001220703125 167.33514404296875 190.66778564453125V0Z"/>
<path transform="translate(2419.0,0)" d="M233.0008544921875 -10.666748046875Q151.66680908203125 -10.666748046875 110.4998779296875 32.666839599609375Q69.33294677734375 76.00042724609375 69.33294677734375 164.00115966796875V420.66552734375H7.99981689453125V505.66656494140625H22.665771484375Q70.6666259765625 511.00006103515625 91.16696166992188 536.5005493164062Q111.66729736328125 562.0010375976562 116.000732421875 613.0020751953125L118.33392333984375 638.0006713867188H194.66839599609375V522.0003662109375H323.3345947265625V417.998779296875H194.66839599609375V174.00146484375Q194.66839599609375 135.3348388671875 213.00173950195312 118.0015869140625Q231.3350830078125 100.6683349609375 260.66827392578125 100.6683349609375Q276.3348388671875 100.6683349609375 293.1680603027344 105.3349609375Q310.00128173828125 110.0015869140625 323.3345947265625 119.00146484375V4.33319091796875Q297.0009765625 -4.00018310546875 274.8341979980469 -7.333465576171875Q252.66741943359375 -10.666748046875 233.0008544921875 -10.666748046875Z"/>
</g>
<circle cx="493.35" cy="85.25" r="7.75" fill="#c9a96e"/>
</g>
</svg>
