<svg xmlns="http://www.w3.org/2000/svg" viewBox="0 0 1600 900" preserveAspectRatio="xMidYMid slice">
<defs>
<linearGradient id="bg" x1="0" y1="0" x2="0" y2="1"><stop offset="0" stop-color="#0b160f"/><stop offset="1" stop-color="#15271b"/></linearGradient>
<radialGradient id="glow" cx="0.336" cy="0.386" r="0.75"><stop offset="0" stop-color="#C9A96E" stop-opacity="0.15"/><stop offset="1" stop-color="#C9A96E" stop-opacity="0"/></radialGradient>
<radialGradient id="vig" cx="0.5" cy="0.5" r="0.75"><stop offset="0.5" stop-color="#000" stop-opacity="0"/><stop offset="1" stop-color="#000" stop-opacity="0.5"/></radialGradient>
<filter id="grain"><feTurbulence type="fractalNoise" baseFrequency="0.9" numOctaves="2" stitchTiles="stitch"/><feColorMatrix type="matrix" values="0 0 0 0 0 0 0 0 0 0 0 0 0 0 0 0 0 0 0.55 0"/></filter>
</defs>
<rect width="1600" height="900" fill="url(#bg)"/>
<rect width="1600" height="900" fill="url(#glow)"/>
<path d="M -60.0 622.6 C -52.3 622.1 -29.3 620.8 -14.0 619.7 C 1.3 618.6 16.7 617.3 32.0 615.9 C 47.3 614.6 62.7 613.1 78.0 611.7 C 93.3 610.3 108.7 608.8 124.0 607.5 C 139.3 606.1 154.7 604.7 170.0 603.5 C 185.3 602.3 200.7 601.1 216.0 600.2 C 231.3 599.3 246.7 598.5 262.0 598.0 C 277.3 597.4 292.7 597.1 308.0 597.0 C 323.3 596.8 338.7 596.9 354.0 597.3 C 369.3 597.6 384.7 598.2 400.0 598.9 C 415.3 599.7 430.7 600.6 446.0 601.7 C 461.3 602.8 476.7 604.1 492.0 605.4 C 507.3 606.8 522.7 608.2 538.0 609.7 C 553.3 611.1 568.7 612.6 584.0 614.0 C 599.3 615.3 614.7 616.7 630.0 617.9 C 645.3 619.1 660.7 620.2 676.0 621.1 C 691.3 622.0 706.7 622.7 722.0 623.1 C 737.3 623.6 752.7 623.8 768.0 623.8 C 783.3 623.8 798.7 623.5 814.0 622.9 C 829.3 622.4 844.7 621.6 860.0 620.6 C 875.3 619.6 890.7 618.3 906.0 616.9 C 921.3 615.5 936.7 613.9 952.0 612.3 C 967.3 610.6 982.7 608.8 998.0 607.1 C 1013.3 605.4 1028.7 603.5 1044.0 601.9 C 1059.3 600.2 1074.7 598.5 1090.0 597.1 C 1105.3 595.7 1120.7 594.3 1136.0 593.3 C 1151.3 592.3 1166.7 591.4 1182.0 590.9 C 1197.3 590.4 1212.7 590.2 1228.0 590.3 C 1243.3 590.4 1258.7 590.9 1274.0 591.6 C 1289.3 592.3 1304.7 593.4 1320.0 594.8 C 1335.3 596.1 1350.7 597.8 1366.0 599.7 C 1381.3 601.6 1396.7 603.8 1412.0 606.1 C 1427.3 608.3 1442.7 610.8 1458.0 613.3 C 1473.3 615.8 1488.7 618.5 1504.0 621.0 C 1519.3 623.5 1534.7 626.0 1550.0 628.3 C 1565.3 630.6 1580.7 632.9 1596.0 634.8 C 1611.3 636.8 1631.3 585.7 1642.0 639.9 C 1652.7 694.1 1943.7 906.6 1660.0 960.0 C 1376.3 1013.4 226.7 960.0 -60.0 960.0 Z" fill="#C9A96E" fill-opacity="0.028"/>
<g><path d="M -60.0 -65.3 C -52.3 -65.3 -29.3 -65.5 -14.0 -65.7 C 1.3 -65.8 16.7 -66.1 32.0 -66.3 C 47.3 -66.6 62.7 -66.9 78.0 -67.2 C 93.3 -67.4 108.7 -67.8 124.0 -68.0 C 139.3 -68.3 154.7 -68.6 170.0 -68.9 C 185.3 -69.1 200.7 -69.4 216.0 -69.6 C 231.3 -69.7 246.7 -69.9 262.0 -69.9 C 277.3 -70.0 292.7 -70.0 308.0 -69.9 C 323.3 -69.9 338.7 -69.7 354.0 -69.5 C 369.3 -69.2 384.7 -68.9 400.0 -68.5 C 415.3 -68.1 430.7 -67.7 446.0 -67.1 C 461.3 -66.6 476.7 -65.9 492.0 -65.3 C 507.3 -64.6 522.7 -63.8 538.0 -63.1 C 553.3 -62.3 568.7 -61.4 584.0 -60.6 C 599.3 -59.8 614.7 -58.9 630.0 -58.0 C 645.3 -57.2 660.7 -56.3 676.0 -55.5 C 691.3 -54.7 706.7 -53.9 722.0 -53.2 C 737.3 -52.4 752.7 -51.7 768.0 -51.1 C 783.3 -50.5 798.7 -50.0 814.0 -49.5 C 829.3 -49.1 844.7 -48.7 860.0 -48.5 C 875.3 -48.2 890.7 -48.0 906.0 -48.0 C 921.3 -47.9 936.7 -47.9 952.0 -48.0 C 967.3 -48.1 982.7 -48.3 998.0 -48.6 C 1013.3 -48.9 1028.7 -49.2 1044.0 -49.6 C 1059.3 -50.1 1074.7 -50.5 1090.0 -51.1 C 1105.3 -51.6 1120.7 -52.1 1136.0 -52.7 C 1151.3 -53.3 1166.7 -53.9 1182.0 -54.4 C 1197.3 -55.0 1212.7 -55.6 1228.0 -56.1 C 1243.3 -56.6 1258.7 -57.2 1274.0 -57.6 C 1289.3 -58.1 1304.7 -58.5 1320.0 -58.8 C 1335.3 -59.1 1350.7 -59.4 1366.0 -59.6 C 1381.3 -59.8 1396.7 -60.0 1412.0 -60.0 C 1427.3 -60.1 1442.7 -60.1 1458.0 -60.0 C 1473.3 -60.0 1488.7 -59.8 1504.0 -59.6 C 1519.3 -59.4 1534.7 -59.1 1550.0 -58.8 C 1565.3 -58.6 1580.7 -58.2 1596.0 -57.9 C 1611.3 -57.5 1634.3 -56.9 1642.0 -56.7" stroke="#F5F0E8" stroke-width="1" stroke-opacity="0.056" fill="none" stroke-linecap="round"/><path d="M -60.0 -21.2 C -52.3 -21.4 -29.3 -22.1 -14.0 -22.6 C 1.3 -23.0 16.7 -23.5 32.0 -24.1 C 47.3 -24.6 62.7 -25.2 78.0 -25.8 C 93.3 -26.4 108.7 -27.0 124.0 -27.7 C 139.3 -28.4 154.7 -29.1 170.0 -29.9 C 185.3 -30.6 200.7 -31.5 216.0 -32.3 C 231.3 -33.2 246.7 -34.1 262.0 -35.0 C 277.3 -35.9 292.7 -36.9 308.0 -37.9 C 323.3 -38.9 338.7 -40.0 354.0 -41.1 C 369.3 -42.2 384.7 -43.3 400.0 -44.4 C 415.3 -45.5 430.7 -46.7 446.0 -47.8 C 461.3 -49.0 476.7 -50.2 492.0 -51.4 C 507.3 -52.5 522.7 -53.7 538.0 -54.9 C 553.3 -56.0 568.7 -57.2 584.0 -58.3 C 599.3 -59.5 614.7 -60.6 630.0 -61.7 C 645.3 -62.8 660.7 -63.8 676.0 -64.8 C 691.3 -65.8 706.7 -66.8 722.0 -67.7 C 737.3 -68.7 752.7 -69.5 768.0 -70.4 C 783.3 -71.2 798.7 -72.0 814.0 -72.7 C 829.3 -73.4 844.7 -74.1 860.0 -74.7 C 875.3 -75.3 890.7 -75.9 906.0 -76.4 C 921.3 -76.9 936.7 -77.3 952.0 -77.7 C 967.3 -78.1 982.7 -78.5 998.0 -78.8 C 1013.3 -79.1 1028.7 -79.4 1044.0 -79.6 C 1059.3 -79.9 1074.7 -80.1 1090.0 -80.3 C 1105.3 -80.5 1120.7 -80.6 1136.0 -80.8 C 1151.3 -81.0 1166.7 -81.1 1182.0 -81.3 C 1197.3 -81.4 1212.7 -81.6 1228.0 -81.7 C 1243.3 -81.9 1258.7 -82.1 1274.0 -82.3 C 1289.3 -82.5 1304.7 -82.8 1320.0 -83.0 C 1335.3 -83.3 1350.7 -83.6 1366.0 -84.0 C 1381.3 -84.4 1396.7 -84.8 1412.0 -85.2 C 1427.3 -85.7 1442.7 -86.2 1458.0 -86.8 C 1473.3 -87.3 1488.7 -88.0 1504.0 -88.6 C 1519.3 -89.3 1534.7 -90.1 1550.0 -90.9 C 1565.3 -91.7 1580.7 -92.5 1596.0 -93.4 C 1611.3 -94.3 1634.3 -95.8 1642.0 -96.3" stroke="#C9A96E" stroke-width="1.5" stroke-opacity="0.182" fill="none" stroke-linecap="round"/><path d="M -60.0 -4.7 C -52.3 -4.5 -29.3 -3.8 -14.0 -3.2 C 1.3 -2.6 16.7 -1.8 32.0 -1.1 C 47.3 -0.4 62.7 0.4 78.0 1.1 C 93.3 1.9 108.7 2.6 124.0 3.2 C 139.3 3.8 154.7 4.4 170.0 4.8 C 185.3 5.3 200.7 5.6 216.0 5.7 C 231.3 5.9 246.7 5.9 262.0 5.7 C 277.3 5.5 292.7 5.1 308.0 4.6 C 323.3 4.0 338.7 3.3 354.0 2.4 C 369.3 1.5 384.7 0.4 400.0 -0.8 C 415.3 -2.1 430.7 -3.5 446.0 -4.9 C 461.3 -6.4 476.7 -8.0 492.0 -9.7 C 507.3 -11.3 522.7 -13.1 538.0 -14.8 C 553.3 -16.6 568.7 -18.4 584.0 -20.1 C 599.3 -21.8 614.7 -23.5 630.0 -25.2 C 645.3 -26.8 660.7 -28.4 676.0 -29.8 C 691.3 -31.3 706.7 -32.7 722.0 -33.9 C 737.3 -35.1 752.7 -36.2 768.0 -37.1 C 783.3 -38.1 798.7 -38.9 814.0 -39.5 C 829.3 -40.2 844.7 -40.7 860.0 -41.1 C 875.3 -41.5 890.7 -41.7 906.0 -41.9 C 921.3 -42.0 936.7 -42.0 952.0 -42.0 C 967.3 -42.0 982.7 -41.8 998.0 -41.7 C 1013.3 -41.5 1028.7 -41.3 1044.0 -41.2 C 1059.3 -41.0 1074.7 -40.8 1090.0 -40.6 C 1105.3 -40.5 1120.7 -40.3 1136.0 -40.3 C 1151.3 -40.3 1166.7 -40.3 1182.0 -40.4 C 1197.3 -40.5 1212.7 -40.7 1228.0 -41.0 C 1243.3 -41.3 1258.7 -41.7 1274.0 -42.2 C 1289.3 -42.7 1304.7 -43.3 1320.0 -44.1 C 1335.3 -44.8 1350.7 -45.6 1366.0 -46.5 C 1381.3 -47.4 1396.7 -48.4 1412.0 -49.4 C 1427.3 -50.4 1442.7 -51.5 1458.0 -52.7 C 1473.3 -53.8 1488.7 -54.9 1504.0 -56.1 C 1519.3 -57.2 1534.7 -58.4 1550.0 -59.5 C 1565.3 -60.6 1580.7 -61.7 1596.0 -62.8 C 1611.3 -63.8 1634.3 -65.3 1642.0 -65.7" stroke="#F5F0E8" stroke-width="1" stroke-opacity="0.083" fill="none" stroke-linecap="round"/><path d="M -60.0 43.5 C -52.3 43.5 -29.3 43.4 -14.0 43.2 C 1.3 43.1 16.7 42.8 32.0 42.6 C 47.3 42.3 62.7 42.0 78.0 41.7 C 93.3 41.4 108.7 41.0 124.0 40.7 C 139.3 40.4 154.7 40.1 170.0 39.8 C 185.3 39.6 200.7 39.4 216.0 39.2 C 231.3 39.1 246.7 39.0 262.0 38.9 C 277.3 38.9 292.7 39.0 308.0 39.1 C 323.3 39.3 338.7 39.5 354.0 39.9 C 369.3 40.2 384.7 40.6 400.0 41.1 C 415.3 41.6 430.7 42.2 446.0 42.9 C 461.3 43.5 476.7 44.2 492.0 45.0 C 507.3 45.8 522.7 46.7 538.0 47.5 C 553.3 48.4 568.7 49.3 584.0 50.3 C 599.3 51.2 614.7 52.1 630.0 53.0 C 645.3 53.9 660.7 54.9 676.0 55.7 C 691.3 56.6 706.7 57.4 722.0 58.2 C 737.3 59.0 752.7 59.7 768.0 60.4 C 783.3 61.0 798.7 61.6 814.0 62.1 C 829.3 62.6 844.7 63.0 860.0 63.3 C 875.3 63.6 890.7 63.9 906.0 64.0 C 921.3 64.2 936.7 64.3 952.0 64.3 C 967.3 64.3 982.7 64.3 998.0 64.2 C 1013.3 64.1 1028.7 63.9 1044.0 63.7 C 1059.3 63.5 1074.7 63.3 1090.0 63.1 C 1105.3 62.8 1120.7 62.6 1136.0 62.4 C 1151.3 62.1 1166.7 61.9 1182.0 61.8 C 1197.3 61.6 1212.7 61.5 1228.0 61.4 C 1243.3 61.4 1258.7 61.4 1274.0 61.5 C 1289.3 61.6 1304.7 61.8 1320.0 62.0 C 1335.3 62.3 1350.7 62.7 1366.0 63.2 C 1381.3 63.6 1396.7 64.2 1412.0 64.9 C 1427.3 65.5 1442.7 66.3 1458.0 67.2 C 1473.3 68.0 1488.7 69.0 1504.0 70.0 C 1519.3 71.0 1534.7 72.1 1550.0 73.2 C 1565.3 74.4 1580.7 75.6 1596.0 76.8 C 1611.3 78.0 1634.3 79.8 1642.0 80.4" stroke="#F5F0E8" stroke-width="1" stroke-opacity="0.049" fill="none" stroke-linecap="round"/><path d="M -60.0 82.4 C -52.3 83.6 -29.3 87.2 -14.0 89.3 C 1.3 91.4 16.7 93.3 32.0 95.0 C 47.3 96.8 62.7 98.3 78.0 99.5 C 93.3 100.8 108.7 101.8 124.0 102.6 C 139.3 103.3 154.7 103.9 170.0 104.2 C 185.3 104.4 200.7 104.5 216.0 104.3 C 231.3 104.1 246.7 103.7 262.0 103.1 C 277.3 102.5 292.7 101.6 308.0 100.6 C 323.3 99.7 338.7 98.5 354.0 97.2 C 369.3 96.0 384.7 94.5 400.0 93.1 C 415.3 91.6 430.7 90.1 446.0 88.5 C 461.3 87.0 476.7 85.4 492.0 83.9 C 507.3 82.4 522.7 80.9 538.0 79.5 C 553.3 78.1 568.7 76.7 584.0 75.6 C 599.3 74.4 614.7 73.4 630.0 72.5 C 645.3 71.7 660.7 71.0 676.0 70.5 C 691.3 70.1 706.7 69.8 722.0 69.8 C 737.3 69.8 752.7 70.0 768.0 70.5 C 783.3 71.0 798.7 71.7 814.0 72.6 C 829.3 73.6 844.7 74.8 860.0 76.2 C 875.3 77.7 890.7 79.3 906.0 81.2 C 921.3 83.0 936.7 85.1 952.0 87.4 C 967.3 89.6 982.7 92.0 998.0 94.5 C 1013.3 97.0 1028.7 99.7 1044.0 102.5 C 1059.3 105.2 1074.7 108.0 1090.0 110.8 C 1105.3 113.7 1120.7 116.5 1136.0 119.4 C 1151.3 122.2 1166.7 125.0 1182.0 127.7 C 1197.3 130.4 1212.7 133.0 1228.0 135.5 C 1243.3 138.0 1258.7 140.4 1274.0 142.6 C 1289.3 144.8 1304.7 146.8 1320.0 148.6 C 1335.3 150.4 1350.7 152.0 1366.0 153.4 C 1381.3 154.8 1396.7 155.9 1412.0 156.8 C 1427.3 157.7 1442.7 158.4 1458.0 158.8 C 1473.3 159.2 1488.7 159.4 1504.0 159.3 C 1519.3 159.3 1534.7 159.0 1550.0 158.5 C 1565.3 158.1 1580.7 157.4 1596.0 156.5 C 1611.3 155.7 1634.3 154.0 1642.0 153.5" stroke="#F5F0E8" stroke-width="1" stroke-opacity="0.072" fill="none" stroke-linecap="round"/><path d="M -60.0 86.8 C -52.3 87.1 -29.3 88.0 -14.0 88.9 C 1.3 89.7 16.7 90.8 32.0 92.1 C 47.3 93.3 62.7 94.8 78.0 96.3 C 93.3 97.9 108.7 99.6 124.0 101.3 C 139.3 103.0 154.7 104.9 170.0 106.6 C 185.3 108.4 200.7 110.3 216.0 112.0 C 231.3 113.7 246.7 115.4 262.0 117.0 C 277.3 118.5 292.7 119.9 308.0 121.2 C 323.3 122.4 338.7 123.5 354.0 124.3 C 369.3 125.2 384.7 125.8 400.0 126.2 C 415.3 126.6 430.7 126.8 446.0 126.8 C 461.3 126.7 476.7 126.4 492.0 125.9 C 507.3 125.4 522.7 124.6 538.0 123.7 C 553.3 122.8 568.7 121.6 584.0 120.4 C 599.3 119.2 614.7 117.8 630.0 116.4 C 645.3 115.0 660.7 113.4 676.0 112.0 C 691.3 110.5 706.7 108.9 722.0 107.5 C 737.3 106.1 752.7 104.7 768.0 103.5 C 783.3 102.3 798.7 101.2 814.0 100.3 C 829.3 99.4 844.7 98.6 860.0 98.2 C 875.3 97.7 890.7 97.4 906.0 97.3 C 921.3 97.3 936.7 97.5 952.0 98.0 C 967.3 98.5 982.7 99.2 998.0 100.1 C 1013.3 101.0 1028.7 102.2 1044.0 103.6 C 1059.3 104.9 1074.7 106.5 1090.0 108.2 C 1105.3 109.8 1120.7 111.7 1136.0 113.6 C 1151.3 115.5 1166.7 117.6 1182.0 119.6 C 1197.3 121.6 1212.7 123.6 1228.0 125.6 C 1243.3 127.6 1258.7 129.6 1274.0 131.4 C 1289.3 133.2 1304.7 135.0 1320.0 136.6 C 1335.3 138.1 1350.7 139.6 1366.0 140.8 C 1381.3 142.0 1396.7 143.1 1412.0 143.9 C 1427.3 144.8 1442.7 145.4 1458.0 145.8 C 1473.3 146.3 1488.7 146.5 1504.0 146.6 C 1519.3 146.7 1534.7 146.5 1550.0 146.3 C 1565.3 146.0 1580.7 145.6 1596.0 145.1 C 1611.3 144.6 1634.3 143.7 1642.0 143.4" stroke="#C9A96E" stroke-width="1.5" stroke-opacity="0.168" fill="none" stroke-linecap="round"/><path d="M -60.0 156.4 C -52.3 156.5 -29.3 156.9 -14.0 156.9 C 1.3 156.8 16.7 156.6 32.0 156.2 C 47.3 155.8 62.7 155.2 78.0 154.4 C 93.3 153.6 108.7 152.6 124.0 151.4 C 139.3 150.2 154.7 148.9 170.0 147.4 C 185.3 145.9 200.7 144.2 216.0 142.5 C 231.3 140.8 246.7 138.9 262.0 137.0 C 277.3 135.1 292.7 133.1 308.0 131.1 C 323.3 129.2 338.7 127.2 354.0 125.2 C 369.3 123.3 384.7 121.3 400.0 119.5 C 415.3 117.7 430.7 115.9 446.0 114.3 C 461.3 112.6 476.7 111.1 492.0 109.7 C 507.3 108.3 522.7 107.1 538.0 106.0 C 553.3 104.9 568.7 104.0 584.0 103.2 C 599.3 102.4 614.7 101.8 630.0 101.3 C 645.3 100.8 660.7 100.5 676.0 100.3 C 691.3 100.0 706.7 99.9 722.0 99.9 C 737.3 99.9 752.7 100.0 768.0 100.1 C 783.3 100.1 798.7 100.3 814.0 100.4 C 829.3 100.6 844.7 100.8 860.0 100.8 C 875.3 100.9 890.7 101.0 906.0 101.0 C 921.3 101.0 936.7 100.9 952.0 100.7 C 967.3 100.5 982.7 100.2 998.0 99.7 C 1013.3 99.3 1028.7 98.7 1044.0 98.0 C 1059.3 97.3 1074.7 96.4 1090.0 95.4 C 1105.3 94.4 1120.7 93.3 1136.0 92.0 C 1151.3 90.8 1166.7 89.4 1182.0 88.0 C 1197.3 86.6 1212.7 85.0 1228.0 83.4 C 1243.3 81.8 1258.7 80.2 1274.0 78.5 C 1289.3 76.9 1304.7 75.2 1320.0 73.6 C 1335.3 72.0 1350.7 70.3 1366.0 68.8 C 1381.3 67.3 1396.7 65.9 1412.0 64.6 C 1427.3 63.3 1442.7 62.1 1458.0 61.1 C 1473.3 60.0 1488.7 59.1 1504.0 58.4 C 1519.3 57.7 1534.7 57.2 1550.0 56.8 C 1565.3 56.5 1580.7 56.3 1596.0 56.3 C 1611.3 56.3 1634.3 56.7 1642.0 56.8" stroke="#F5F0E8" stroke-width="1" stroke-opacity="0.049" fill="none" stroke-linecap="round"/><path d="M -60.0 186.9 C -52.3 186.9 -29.3 186.8 -14.0 186.6 C 1.3 186.5 16.7 186.3 32.0 186.0 C 47.3 185.7 62.7 185.4 78.0 185.0 C 93.3 184.6 108.7 184.2 124.0 183.7 C 139.3 183.2 154.7 182.7 170.0 182.1 C 185.3 181.5 200.7 180.9 216.0 180.2 C 231.3 179.5 246.7 178.8 262.0 178.1 C 277.3 177.3 292.7 176.5 308.0 175.7 C 323.3 174.9 338.7 174.0 354.0 173.1 C 369.3 172.2 384.7 171.3 400.0 170.4 C 415.3 169.5 430.7 168.5 446.0 167.6 C 461.3 166.6 476.7 165.6 492.0 164.7 C 507.3 163.7 522.7 162.7 538.0 161.7 C 553.3 160.8 568.7 159.8 584.0 158.8 C 599.3 157.9 614.7 156.9 630.0 156.0 C 645.3 155.0 660.7 154.1 676.0 153.2 C 691.3 152.3 706.7 151.4 722.0 150.5 C 737.3 149.7 752.7 148.9 768.0 148.1 C 783.3 147.3 798.7 146.5 814.0 145.7 C 829.3 145.0 844.7 144.3 860.0 143.6 C 875.3 143.0 890.7 142.4 906.0 141.8 C 921.3 141.2 936.7 140.6 952.0 140.1 C 967.3 139.6 982.7 139.2 998.0 138.7 C 1013.3 138.3 1028.7 137.9 1044.0 137.6 C 1059.3 137.2 1074.7 136.9 1090.0 136.7 C 1105.3 136.4 1120.7 136.2 1136.0 136.0 C 1151.3 135.8 1166.7 135.7 1182.0 135.6 C 1197.3 135.5 1212.7 135.4 1228.0 135.3 C 1243.3 135.3 1258.7 135.3 1274.0 135.3 C 1289.3 135.3 1304.7 135.3 1320.0 135.4 C 1335.3 135.5 1350.7 135.6 1366.0 135.7 C 1381.3 135.8 1396.7 135.9 1412.0 136.1 C 1427.3 136.2 1442.7 136.4 1458.0 136.5 C 1473.3 136.7 1488.7 136.9 1504.0 137.1 C 1519.3 137.3 1534.7 137.5 1550.0 137.7 C 1565.3 137.9 1580.7 138.1 1596.0 138.3 C 1611.3 138.5 1634.3 138.8 1642.0 138.9" stroke="#F5F0E8" stroke-width="1" stroke-opacity="0.076" fill="none" stroke-linecap="round"/><path d="M -60.0 187.1 C -52.3 187.7 -29.3 189.4 -14.0 190.7 C 1.3 192.0 16.7 193.6 32.0 195.1 C 47.3 196.7 62.7 198.4 78.0 200.1 C 93.3 201.8 108.7 203.7 124.0 205.4 C 139.3 207.2 154.7 209.0 170.0 210.8 C 185.3 212.5 200.7 214.3 216.0 215.9 C 231.3 217.5 246.7 219.0 262.0 220.4 C 277.3 221.8 292.7 223.1 308.0 224.2 C 323.3 225.3 338.7 226.2 354.0 227.0 C 369.3 227.7 384.7 228.3 400.0 228.7 C 415.3 229.1 430.7 229.3 446.0 229.3 C 461.3 229.4 476.7 229.2 492.0 228.9 C 507.3 228.6 522.7 228.1 538.0 227.5 C 553.3 227.0 568.7 226.2 584.0 225.5 C 599.3 224.7 614.7 223.8 630.0 222.9 C 645.3 222.0 660.7 221.0 676.0 220.1 C 691.3 219.2 706.7 218.3 722.0 217.5 C 737.3 216.7 752.7 215.8 768.0 215.2 C 783.3 214.5 798.7 214.0 814.0 213.5 C 829.3 213.1 844.7 212.8 860.0 212.7 C 875.3 212.6 890.7 212.7 906.0 212.9 C 921.3 213.1 936.7 213.5 952.0 214.1 C 967.3 214.6 982.7 215.4 998.0 216.3 C 1013.3 217.1 1028.7 218.2 1044.0 219.4 C 1059.3 220.5 1074.7 221.8 1090.0 223.2 C 1105.3 224.6 1120.7 226.1 1136.0 227.5 C 1151.3 229.0 1166.7 230.6 1182.0 232.1 C 1197.3 233.6 1212.7 235.2 1228.0 236.7 C 1243.3 238.1 1258.7 239.6 1274.0 240.9 C 1289.3 242.2 1304.7 243.4 1320.0 244.5 C 1335.3 245.5 1350.7 246.5 1366.0 247.3 C 1381.3 248.0 1396.7 248.7 1412.0 249.1 C 1427.3 249.6 1442.7 249.8 1458.0 249.9 C 1473.3 250.1 1488.7 250.0 1504.0 249.7 C 1519.3 249.5 1534.7 249.1 1550.0 248.6 C 1565.3 248.1 1580.7 247.4 1596.0 246.7 C 1611.3 245.9 1634.3 244.6 1642.0 244.2" stroke="#F5F0E8" stroke-width="1" stroke-opacity="0.059" fill="none" stroke-linecap="round"/><path d="M -60.0 204.6 C -52.3 203.8 -29.3 201.3 -14.0 200.0 C 1.3 198.7 16.7 197.5 32.0 196.6 C 47.3 195.7 62.7 195.1 78.0 194.7 C 93.3 194.3 108.7 194.2 124.0 194.4 C 139.3 194.5 154.7 195.0 170.0 195.7 C 185.3 196.5 200.7 197.5 216.0 198.8 C 231.3 200.1 246.7 201.7 262.0 203.5 C 277.3 205.2 292.7 207.3 308.0 209.5 C 323.3 211.7 338.7 214.1 354.0 216.6 C 369.3 219.1 384.7 221.8 400.0 224.5 C 415.3 227.1 430.7 229.9 446.0 232.7 C 461.3 235.4 476.7 238.2 492.0 240.8 C 507.3 243.4 522.7 246.0 538.0 248.4 C 553.3 250.8 568.7 253.0 584.0 255.1 C 599.3 257.1 614.7 258.9 630.0 260.5 C 645.3 262.1 660.7 263.4 676.0 264.4 C 691.3 265.4 706.7 266.1 722.0 266.6 C 737.3 267.0 752.7 267.1 768.0 266.9 C 783.3 266.7 798.7 266.2 814.0 265.4 C 829.3 264.6 844.7 263.5 860.0 262.2 C 875.3 260.9 890.7 259.3 906.0 257.5 C 921.3 255.8 936.7 253.7 952.0 251.6 C 967.3 249.6 982.7 247.3 998.0 245.0 C 1013.3 242.7 1028.7 240.2 1044.0 237.9 C 1059.3 235.5 1074.7 233.1 1090.0 230.8 C 1105.3 228.5 1120.7 226.2 1136.0 224.1 C 1151.3 222.1 1166.7 220.1 1182.0 218.3 C 1197.3 216.6 1212.7 215.0 1228.0 213.7 C 1243.3 212.4 1258.7 211.3 1274.0 210.5 C 1289.3 209.7 1304.7 209.2 1320.0 208.9 C 1335.3 208.7 1350.7 208.7 1366.0 209.0 C 1381.3 209.3 1396.7 209.9 1412.0 210.7 C 1427.3 211.6 1442.7 212.7 1458.0 213.9 C 1473.3 215.2 1488.7 216.7 1504.0 218.4 C 1519.3 220.0 1534.7 221.9 1550.0 223.8 C 1565.3 225.7 1580.7 227.8 1596.0 229.8 C 1611.3 231.9 1634.3 235.0 1642.0 236.0" stroke="#C9A96E" stroke-width="1.5" stroke-opacity="0.261" fill="none" stroke-linecap="round"/><path d="M -60.0 237.1 C -52.3 236.7 -29.3 235.4 -14.0 234.7 C 1.3 234.0 16.7 233.4 32.0 233.0 C 47.3 232.6 62.7 232.3 78.0 232.1 C 93.3 232.0 108.7 232.0 124.0 232.2 C 139.3 232.4 154.7 232.7 170.0 233.2 C 185.3 233.8 200.7 234.5 216.0 235.3 C 231.3 236.2 246.7 237.2 262.0 238.3 C 277.3 239.5 292.7 240.8 308.0 242.2 C 323.3 243.7 338.7 245.2 354.0 246.8 C 369.3 248.4 384.7 250.2 400.0 251.9 C 415.3 253.6 430.7 255.4 446.0 257.2 C 461.3 259.0 476.7 260.8 492.0 262.5 C 507.3 264.1 522.7 265.8 538.0 267.4 C 553.3 268.9 568.7 270.4 584.0 271.7 C 599.3 273.0 614.7 274.2 630.0 275.2 C 645.3 276.2 660.7 277.0 676.0 277.6 C 691.3 278.2 706.7 278.6 722.0 278.8 C 737.3 279.0 752.7 278.9 768.0 278.7 C 783.3 278.4 798.7 277.9 814.0 277.2 C 829.3 276.6 844.7 275.6 860.0 274.6 C 875.3 273.5 890.7 272.2 906.0 270.8 C 921.3 269.3 936.7 267.7 952.0 266.0 C 967.3 264.3 982.7 262.5 998.0 260.6 C 1013.3 258.7 1028.7 256.7 1044.0 254.8 C 1059.3 252.8 1074.7 250.8 1090.0 248.8 C 1105.3 246.9 1120.7 244.9 1136.0 243.1 C 1151.3 241.3 1166.7 239.5 1182.0 237.9 C 1197.3 236.2 1212.7 234.7 1228.0 233.3 C 1243.3 232.0 1258.7 230.7 1274.0 229.7 C 1289.3 228.6 1304.7 227.8 1320.0 227.1 C 1335.3 226.4 1350.7 225.9 1366.0 225.6 C 1381.3 225.3 1396.7 225.1 1412.0 225.2 C 1427.3 225.2 1442.7 225.4 1458.0 225.7 C 1473.3 226.0 1488.7 226.5 1504.0 227.1 C 1519.3 227.6 1534.7 228.3 1550.0 229.0 C 1565.3 229.8 1580.7 230.6 1596.0 231.4 C 1611.3 232.2 1634.3 233.4 1642.0 233.8" stroke="#F5F0E8" stroke-width="1" stroke-opacity="0.086" fill="none" stroke-linecap="round"/><path d="M -60.0 279.9 C -52.3 279.7 -29.3 278.8 -14.0 278.4 C 1.3 278.0 16.7 277.6 32.0 277.3 C 47.3 277.0 62.7 276.8 78.0 276.7 C 93.3 276.7 108.7 276.7 124.0 277.0 C 139.3 277.2 154.7 277.5 170.0 278.0 C 185.3 278.6 200.7 279.2 216.0 280.1 C 231.3 280.9 246.7 281.9 262.0 283.0 C 277.3 284.1 292.7 285.4 308.0 286.8 C 323.3 288.2 338.7 289.8 354.0 291.4 C 369.3 293.0 384.7 294.8 400.0 296.6 C 415.3 298.4 430.7 300.3 446.0 302.2 C 461.3 304.1 476.7 306.0 492.0 307.9 C 507.3 309.9 522.7 311.8 538.0 313.7 C 553.3 315.5 568.7 317.4 584.0 319.1 C 599.3 320.9 614.7 322.6 630.0 324.1 C 645.3 325.7 660.7 327.2 676.0 328.5 C 691.3 329.8 706.7 331.0 722.0 332.0 C 737.3 333.0 752.7 333.9 768.0 334.6 C 783.3 335.4 798.7 335.9 814.0 336.4 C 829.3 336.8 844.7 337.1 860.0 337.2 C 875.3 337.3 890.7 337.3 906.0 337.2 C 921.3 337.1 936.7 336.9 952.0 336.6 C 967.3 336.3 982.7 335.8 998.0 335.4 C 1013.3 334.9 1028.7 334.4 1044.0 333.9 C 1059.3 333.4 1074.7 332.8 1090.0 332.3 C 1105.3 331.8 1120.7 331.2 1136.0 330.8 C 1151.3 330.3 1166.7 329.9 1182.0 329.6 C 1197.3 329.3 1212.7 329.0 1228.0 328.9 C 1243.3 328.8 1258.7 328.7 1274.0 328.8 C 1289.3 328.9 1304.7 329.1 1320.0 329.5 C 1335.3 329.8 1350.7 330.3 1366.0 330.9 C 1381.3 331.5 1396.7 332.2 1412.0 333.0 C 1427.3 333.8 1442.7 334.8 1458.0 335.8 C 1473.3 336.9 1488.7 338.0 1504.0 339.2 C 1519.3 340.5 1534.7 341.8 1550.0 343.1 C 1565.3 344.4 1580.7 345.8 1596.0 347.1 C 1611.3 348.5 1634.3 350.6 1642.0 351.2" stroke="#F5F0E8" stroke-width="1" stroke-opacity="0.079" fill="none" stroke-linecap="round"/><path d="M -60.0 309.2 C -52.3 309.0 -29.3 308.5 -14.0 308.3 C 1.3 308.1 16.7 307.9 32.0 307.9 C 47.3 307.9 62.7 308.0 78.0 308.2 C 93.3 308.5 108.7 308.9 124.0 309.5 C 139.3 310.1 154.7 310.8 170.0 311.8 C 185.3 312.7 200.7 313.8 216.0 315.1 C 231.3 316.3 246.7 317.7 262.0 319.3 C 277.3 320.8 292.7 322.6 308.0 324.3 C 323.3 326.1 338.7 328.0 354.0 330.0 C 369.3 331.9 384.7 333.9 400.0 335.9 C 415.3 337.8 430.7 339.8 446.0 341.7 C 461.3 343.6 476.7 345.5 492.0 347.2 C 507.3 348.9 522.7 350.5 538.0 351.9 C 553.3 353.4 568.7 354.7 584.0 355.7 C 599.3 356.8 614.7 357.7 630.0 358.4 C 645.3 359.0 660.7 359.5 676.0 359.8 C 691.3 360.0 706.7 360.0 722.0 359.9 C 737.3 359.8 752.7 359.4 768.0 358.9 C 783.3 358.5 798.7 357.8 814.0 357.1 C 829.3 356.4 844.7 355.5 860.0 354.6 C 875.3 353.8 890.7 352.9 906.0 352.0 C 921.3 351.2 936.7 350.3 952.0 349.6 C 967.3 348.9 982.7 348.2 998.0 347.7 C 1013.3 347.3 1028.7 346.9 1044.0 346.8 C 1059.3 346.7 1074.7 346.8 1090.0 347.2 C 1105.3 347.5 1120.7 348.1 1136.0 348.9 C 1151.3 349.7 1166.7 350.7 1182.0 352.0 C 1197.3 353.2 1212.7 354.7 1228.0 356.4 C 1243.3 358.1 1258.7 360.0 1274.0 362.0 C 1289.3 363.9 1304.7 366.1 1320.0 368.3 C 1335.3 370.5 1350.7 372.8 1366.0 375.0 C 1381.3 377.2 1396.7 379.5 1412.0 381.6 C 1427.3 383.7 1442.7 385.8 1458.0 387.6 C 1473.3 389.4 1488.7 391.2 1504.0 392.6 C 1519.3 394.0 1534.7 395.3 1550.0 396.2 C 1565.3 397.1 1580.7 397.8 1596.0 398.2 C 1611.3 398.5 1634.3 398.3 1642.0 398.4" stroke="#F5F0E8" stroke-width="1" stroke-opacity="0.090" fill="none" stroke-linecap="round"/><path d="M -60.0 349.0 C -52.3 348.9 -29.3 348.7 -14.0 348.6 C 1.3 348.6 16.7 348.6 32.0 348.7 C 47.3 348.9 62.7 349.1 78.0 349.5 C 93.3 349.8 108.7 350.3 124.0 350.9 C 139.3 351.5 154.7 352.2 170.0 353.0 C 185.3 353.8 200.7 354.8 216.0 355.7 C 231.3 356.7 246.7 357.8 262.0 358.8 C 277.3 359.9 292.7 361.0 308.0 362.0 C 323.3 363.0 338.7 364.0 354.0 364.8 C 369.3 365.6 384.7 366.4 400.0 366.9 C 415.3 367.4 430.7 367.7 446.0 367.8 C 461.3 367.9 476.7 367.8 492.0 367.3 C 507.3 366.9 522.7 366.2 538.0 365.2 C 553.3 364.2 568.7 362.9 584.0 361.4 C 599.3 359.8 614.7 357.9 630.0 355.9 C 645.3 353.9 660.7 351.5 676.0 349.1 C 691.3 346.7 706.7 344.0 722.0 341.4 C 737.3 338.8 752.7 336.0 768.0 333.3 C 783.3 330.7 798.7 328.0 814.0 325.5 C 829.3 323.1 844.7 320.7 860.0 318.6 C 875.3 316.6 890.7 314.7 906.0 313.2 C 921.3 311.7 936.7 310.6 952.0 309.8 C 967.3 309.1 982.7 308.7 998.0 308.8 C 1013.3 308.8 1028.7 309.3 1044.0 310.2 C 1059.3 311.1 1074.7 312.4 1090.0 314.1 C 1105.3 315.7 1120.7 317.8 1136.0 320.0 C 1151.3 322.3 1166.7 324.9 1182.0 327.6 C 1197.3 330.3 1212.7 333.3 1228.0 336.2 C 1243.3 339.0 1258.7 342.1 1274.0 344.9 C 1289.3 347.7 1304.7 350.5 1320.0 353.0 C 1335.3 355.5 1350.7 357.8 1366.0 359.7 C 1381.3 361.6 1396.7 363.3 1412.0 364.4 C 1427.3 365.6 1442.7 366.3 1458.0 366.6 C 1473.3 366.8 1488.7 366.6 1504.0 366.0 C 1519.3 365.3 1534.7 364.1 1550.0 362.5 C 1565.3 361.0 1580.7 358.9 1596.0 356.5 C 1611.3 354.1 1634.3 349.7 1642.0 348.4" stroke="#C9A96E" stroke-width="1.5" stroke-opacity="0.185" fill="none" stroke-linecap="round"/><path d="M -60.0 348.6 C -52.3 348.7 -29.3 348.7 -14.0 349.4 C 1.3 350.2 16.7 351.3 32.0 352.9 C 47.3 354.5 62.7 356.6 78.0 359.0 C 93.3 361.5 108.7 364.4 124.0 367.6 C 139.3 370.8 154.7 374.5 170.0 378.3 C 185.3 382.1 200.7 386.2 216.0 390.4 C 231.3 394.6 246.7 399.1 262.0 403.4 C 277.3 407.7 292.7 412.1 308.0 416.2 C 323.3 420.4 338.7 424.5 354.0 428.1 C 369.3 431.8 384.7 435.3 400.0 438.3 C 415.3 441.2 430.7 443.9 446.0 445.9 C 461.3 448.0 476.7 449.6 492.0 450.6 C 507.3 451.6 522.7 452.0 538.0 451.9 C 553.3 451.8 568.7 451.2 584.0 450.0 C 599.3 448.8 614.7 447.1 630.0 445.0 C 645.3 442.9 660.7 440.3 676.0 437.4 C 691.3 434.6 706.7 431.4 722.0 428.1 C 737.3 424.8 752.7 421.3 768.0 417.9 C 783.3 414.5 798.7 410.9 814.0 407.7 C 829.3 404.5 844.7 401.4 860.0 398.7 C 875.3 396.0 890.7 393.5 906.0 391.6 C 921.3 389.7 936.7 388.2 952.0 387.3 C 967.3 386.4 982.7 386.0 998.0 386.2 C 1013.3 386.4 1028.7 387.2 1044.0 388.5 C 1059.3 389.9 1074.7 391.9 1090.0 394.3 C 1105.3 396.7 1120.7 399.7 1136.0 403.0 C 1151.3 406.3 1166.7 410.1 1182.0 414.1 C 1197.3 418.1 1212.7 422.4 1228.0 426.8 C 1243.3 431.1 1258.7 435.7 1274.0 440.0 C 1289.3 444.4 1304.7 448.9 1320.0 452.9 C 1335.3 457.0 1350.7 461.0 1366.0 464.5 C 1381.3 468.0 1396.7 471.3 1412.0 474.0 C 1427.3 476.7 1442.7 479.0 1458.0 480.7 C 1473.3 482.5 1488.7 483.7 1504.0 484.4 C 1519.3 485.2 1534.7 485.4 1550.0 485.1 C 1565.3 484.9 1580.7 484.1 1596.0 483.0 C 1611.3 481.9 1634.3 479.3 1642.0 478.5" stroke="#F5F0E8" stroke-width="1" stroke-opacity="0.091" fill="none" stroke-linecap="round"/><path d="M -60.0 427.7 C -52.3 427.7 -29.3 427.6 -14.0 427.5 C 1.3 427.4 16.7 427.3 32.0 427.2 C 47.3 427.1 62.7 426.9 78.0 426.8 C 93.3 426.7 108.7 426.6 124.0 426.5 C 139.3 426.4 154.7 426.3 170.0 426.3 C 185.3 426.2 200.7 426.2 216.0 426.2 C 231.3 426.2 246.7 426.2 262.0 426.2 C 277.3 426.3 292.7 426.3 308.0 426.4 C 323.3 426.5 338.7 426.6 354.0 426.8 C 369.3 426.9 384.7 427.1 400.0 427.2 C 415.3 427.4 430.7 427.6 446.0 427.8 C 461.3 428.0 476.7 428.3 492.0 428.5 C 507.3 428.8 522.7 429.0 538.0 429.3 C 553.3 429.5 568.7 429.8 584.0 430.1 C 599.3 430.3 614.7 430.6 630.0 430.9 C 645.3 431.2 660.7 431.5 676.0 431.8 C 691.3 432.1 706.7 432.4 722.0 432.7 C 737.3 433.0 752.7 433.3 768.0 433.6 C 783.3 434.0 798.7 434.3 814.0 434.7 C 829.3 435.0 844.7 435.4 860.0 435.8 C 875.3 436.2 890.7 436.7 906.0 437.1 C 921.3 437.6 936.7 438.1 952.0 438.6 C 967.3 439.1 982.7 439.7 998.0 440.3 C 1013.3 440.9 1028.7 441.5 1044.0 442.2 C 1059.3 442.9 1074.7 443.7 1090.0 444.5 C 1105.3 445.3 1120.7 446.1 1136.0 447.0 C 1151.3 447.9 1166.7 448.9 1182.0 449.9 C 1197.3 450.9 1212.7 451.9 1228.0 453.0 C 1243.3 454.1 1258.7 455.2 1274.0 456.4 C 1289.3 457.5 1304.7 458.7 1320.0 459.9 C 1335.3 461.2 1350.7 462.4 1366.0 463.6 C 1381.3 464.9 1396.7 466.2 1412.0 467.4 C 1427.3 468.6 1442.7 469.9 1458.0 471.1 C 1473.3 472.3 1488.7 473.5 1504.0 474.7 C 1519.3 475.9 1534.7 477.0 1550.0 478.0 C 1565.3 479.1 1580.7 480.1 1596.0 481.1 C 1611.3 482.0 1634.3 483.3 1642.0 483.7" stroke="#F5F0E8" stroke-width="1" stroke-opacity="0.087" fill="none" stroke-linecap="round"/><path d="M -60.0 465.4 C -52.3 463.8 -29.3 458.8 -14.0 455.5 C 1.3 452.2 16.7 448.7 32.0 445.4 C 47.3 442.0 62.7 438.6 78.0 435.4 C 93.3 432.3 108.7 429.1 124.0 426.2 C 139.3 423.3 154.7 420.5 170.0 418.0 C 185.3 415.4 200.7 413.1 216.0 411.1 C 231.3 409.1 246.7 407.3 262.0 405.8 C 277.3 404.3 292.7 403.1 308.0 402.2 C 323.3 401.2 338.7 400.6 354.0 400.2 C 369.3 399.8 384.7 399.7 400.0 399.7 C 415.3 399.8 430.7 400.1 446.0 400.5 C 461.3 401.0 476.7 401.6 492.0 402.3 C 507.3 403.0 522.7 403.9 538.0 404.8 C 553.3 405.6 568.7 406.6 584.0 407.4 C 599.3 408.3 614.7 409.2 630.0 409.9 C 645.3 410.7 660.7 411.4 676.0 412.0 C 691.3 412.6 706.7 413.1 722.0 413.4 C 737.3 413.7 752.7 413.9 768.0 413.9 C 783.3 413.9 798.7 413.8 814.0 413.5 C 829.3 413.2 844.7 412.8 860.0 412.2 C 875.3 411.7 890.7 411.0 906.0 410.2 C 921.3 409.4 936.7 408.5 952.0 407.6 C 967.3 406.7 982.7 405.7 998.0 404.7 C 1013.3 403.7 1028.7 402.7 1044.0 401.8 C 1059.3 400.8 1074.7 399.9 1090.0 399.0 C 1105.3 398.2 1120.7 397.4 1136.0 396.7 C 1151.3 396.0 1166.7 395.4 1182.0 394.9 C 1197.3 394.4 1212.7 394.0 1228.0 393.7 C 1243.3 393.4 1258.7 393.2 1274.0 393.1 C 1289.3 393.0 1304.7 393.0 1320.0 393.0 C 1335.3 393.1 1350.7 393.2 1366.0 393.2 C 1381.3 393.3 1396.7 393.4 1412.0 393.5 C 1427.3 393.5 1442.7 393.6 1458.0 393.5 C 1473.3 393.4 1488.7 393.3 1504.0 393.0 C 1519.3 392.7 1534.7 392.4 1550.0 391.8 C 1565.3 391.2 1580.7 390.5 1596.0 389.5 C 1611.3 388.6 1634.3 386.8 1642.0 386.2" stroke="#F5F0E8" stroke-width="1" stroke-opacity="0.057" fill="none" stroke-linecap="round"/><path d="M -60.0 467.5 C -52.3 468.8 -29.3 472.4 -14.0 475.3 C 1.3 478.1 16.7 481.3 32.0 484.4 C 47.3 487.6 62.7 491.0 78.0 494.2 C 93.3 497.4 108.7 500.7 124.0 503.7 C 139.3 506.7 154.7 509.6 170.0 512.2 C 185.3 514.7 200.7 517.0 216.0 518.8 C 231.3 520.6 246.7 522.1 262.0 523.0 C 277.3 524.0 292.7 524.5 308.0 524.5 C 323.3 524.5 338.7 524.0 354.0 523.1 C 369.3 522.1 384.7 520.7 400.0 518.9 C 415.3 517.1 430.7 514.9 446.0 512.5 C 461.3 510.0 476.7 507.2 492.0 504.3 C 507.3 501.4 522.7 498.3 538.0 495.2 C 553.3 492.2 568.7 489.0 584.0 486.1 C 599.3 483.2 614.7 480.3 630.0 477.8 C 645.3 475.3 660.7 472.9 676.0 471.0 C 691.3 469.1 706.7 467.5 722.0 466.3 C 737.3 465.2 752.7 464.5 768.0 464.2 C 783.3 463.9 798.7 464.1 814.0 464.7 C 829.3 465.2 844.7 466.3 860.0 467.6 C 875.3 468.9 890.7 470.7 906.0 472.5 C 921.3 474.4 936.7 476.7 952.0 478.9 C 967.3 481.1 982.7 483.6 998.0 485.8 C 1013.3 488.1 1028.7 490.5 1044.0 492.6 C 1059.3 494.7 1074.7 496.7 1090.0 498.3 C 1105.3 499.9 1120.7 501.4 1136.0 502.3 C 1151.3 503.3 1166.7 503.9 1182.0 504.0 C 1197.3 504.2 1212.7 503.9 1228.0 503.2 C 1243.3 502.5 1258.7 501.3 1274.0 499.8 C 1289.3 498.2 1304.7 496.2 1320.0 494.0 C 1335.3 491.8 1350.7 489.1 1366.0 486.4 C 1381.3 483.7 1396.7 480.7 1412.0 477.8 C 1427.3 474.8 1442.7 471.7 1458.0 468.8 C 1473.3 466.0 1488.7 463.1 1504.0 460.5 C 1519.3 458.0 1534.7 455.7 1550.0 453.8 C 1565.3 451.9 1580.7 450.3 1596.0 449.2 C 1611.3 448.2 1634.3 447.8 1642.0 447.5" stroke="#C9A96E" stroke-width="1.5" stroke-opacity="0.191" fill="none" stroke-linecap="round"/><path d="M -60.0 532.6 C -52.3 532.1 -29.3 530.8 -14.0 529.7 C 1.3 528.7 16.7 527.5 32.0 526.3 C 47.3 525.1 62.7 523.8 78.0 522.5 C 93.3 521.1 108.7 519.7 124.0 518.2 C 139.3 516.7 154.7 515.1 170.0 513.6 C 185.3 512.0 200.7 510.4 216.0 508.7 C 231.3 507.1 246.7 505.4 262.0 503.8 C 277.3 502.1 292.7 500.4 308.0 498.8 C 323.3 497.2 338.7 495.5 354.0 493.9 C 369.3 492.3 384.7 490.7 400.0 489.2 C 415.3 487.7 430.7 486.2 446.0 484.8 C 461.3 483.3 476.7 482.0 492.0 480.6 C 507.3 479.3 522.7 478.1 538.0 476.9 C 553.3 475.8 568.7 474.7 584.0 473.7 C 599.3 472.7 614.7 471.8 630.0 470.9 C 645.3 470.1 660.7 469.3 676.0 468.6 C 691.3 467.9 706.7 467.3 722.0 466.8 C 737.3 466.2 752.7 465.8 768.0 465.4 C 783.3 465.0 798.7 464.7 814.0 464.4 C 829.3 464.2 844.7 464.0 860.0 463.9 C 875.3 463.7 890.7 463.6 906.0 463.6 C 921.3 463.5 936.7 463.5 952.0 463.5 C 967.3 463.5 982.7 463.5 998.0 463.5 C 1013.3 463.6 1028.7 463.6 1044.0 463.7 C 1059.3 463.7 1074.7 463.8 1090.0 463.8 C 1105.3 463.9 1120.7 463.9 1136.0 463.9 C 1151.3 463.9 1166.7 463.8 1182.0 463.8 C 1197.3 463.7 1212.7 463.6 1228.0 463.4 C 1243.3 463.3 1258.7 463.1 1274.0 462.8 C 1289.3 462.6 1304.7 462.3 1320.0 461.9 C 1335.3 461.5 1350.7 461.1 1366.0 460.6 C 1381.3 460.1 1396.7 459.6 1412.0 459.0 C 1427.3 458.4 1442.7 457.7 1458.0 456.9 C 1473.3 456.2 1488.7 455.4 1504.0 454.6 C 1519.3 453.7 1534.7 452.8 1550.0 451.8 C 1565.3 450.9 1580.7 449.8 1596.0 448.8 C 1611.3 447.7 1634.3 446.0 1642.0 445.4" stroke="#F5F0E8" stroke-width="1" stroke-opacity="0.073" fill="none" stroke-linecap="round"/><path d="M -60.0 545.1 C -52.3 545.1 -29.3 545.5 -14.0 545.5 C 1.3 545.6 16.7 545.5 32.0 545.3 C 47.3 545.1 62.7 544.8 78.0 544.4 C 93.3 544.0 108.7 543.5 124.0 542.9 C 139.3 542.4 154.7 541.7 170.0 541.1 C 185.3 540.4 200.7 539.7 216.0 539.0 C 231.3 538.3 246.7 537.5 262.0 536.9 C 277.3 536.2 292.7 535.5 308.0 535.0 C 323.3 534.4 338.7 533.8 354.0 533.4 C 369.3 533.0 384.7 532.6 400.0 532.4 C 415.3 532.2 430.7 532.0 446.0 532.1 C 461.3 532.1 476.7 532.2 492.0 532.5 C 507.3 532.8 522.7 533.2 538.0 533.8 C 553.3 534.4 568.7 535.1 584.0 536.0 C 599.3 536.8 614.7 537.8 630.0 538.9 C 645.3 540.0 660.7 541.2 676.0 542.5 C 691.3 543.9 706.7 545.3 722.0 546.8 C 737.3 548.2 752.7 549.8 768.0 551.4 C 783.3 553.0 798.7 554.6 814.0 556.3 C 829.3 557.9 844.7 559.6 860.0 561.2 C 875.3 562.8 890.7 564.4 906.0 565.9 C 921.3 567.4 936.7 568.9 952.0 570.3 C 967.3 571.7 982.7 573.0 998.0 574.2 C 1013.3 575.4 1028.7 576.5 1044.0 577.4 C 1059.3 578.4 1074.7 579.2 1090.0 580.0 C 1105.3 580.7 1120.7 581.3 1136.0 581.8 C 1151.3 582.3 1166.7 582.6 1182.0 582.9 C 1197.3 583.1 1212.7 583.3 1228.0 583.3 C 1243.3 583.4 1258.7 583.3 1274.0 583.2 C 1289.3 583.1 1304.7 582.9 1320.0 582.7 C 1335.3 582.5 1350.7 582.3 1366.0 582.0 C 1381.3 581.8 1396.7 581.5 1412.0 581.3 C 1427.3 581.1 1442.7 580.9 1458.0 580.8 C 1473.3 580.7 1488.7 580.6 1504.0 580.7 C 1519.3 580.7 1534.7 580.8 1550.0 581.0 C 1565.3 581.3 1580.7 581.6 1596.0 582.1 C 1611.3 582.6 1634.3 583.7 1642.0 584.0" stroke="#F5F0E8" stroke-width="1" stroke-opacity="0.073" fill="none" stroke-linecap="round"/><path d="M -60.0 579.1 C -52.3 578.2 -29.3 575.2 -14.0 573.4 C 1.3 571.6 16.7 569.9 32.0 568.4 C 47.3 566.8 62.7 565.3 78.0 564.1 C 93.3 562.9 108.7 561.8 124.0 561.0 C 139.3 560.1 154.7 559.4 170.0 559.0 C 185.3 558.6 200.7 558.4 216.0 558.4 C 231.3 558.4 246.7 558.6 262.0 559.1 C 277.3 559.5 292.7 560.1 308.0 561.0 C 323.3 561.8 338.7 562.8 354.0 564.0 C 369.3 565.1 384.7 566.5 400.0 567.9 C 415.3 569.3 430.7 570.8 446.0 572.4 C 461.3 574.0 476.7 575.6 492.0 577.3 C 507.3 578.9 522.7 580.6 538.0 582.1 C 553.3 583.7 568.7 585.3 584.0 586.7 C 599.3 588.1 614.7 589.5 630.0 590.7 C 645.3 591.9 660.7 592.9 676.0 593.8 C 691.3 594.6 706.7 595.3 722.0 595.8 C 737.3 596.2 752.7 596.5 768.0 596.5 C 783.3 596.5 798.7 596.3 814.0 595.9 C 829.3 595.5 844.7 594.8 860.0 593.9 C 875.3 593.0 890.7 591.9 906.0 590.6 C 921.3 589.3 936.7 587.8 952.0 586.1 C 967.3 584.5 982.7 582.6 998.0 580.7 C 1013.3 578.7 1028.7 576.6 1044.0 574.5 C 1059.3 572.4 1074.7 570.1 1090.0 567.9 C 1105.3 565.7 1120.7 563.4 1136.0 561.2 C 1151.3 559.0 1166.7 556.8 1182.0 554.7 C 1197.3 552.7 1212.7 550.7 1228.0 548.8 C 1243.3 547.0 1258.7 545.3 1274.0 543.7 C 1289.3 542.2 1304.7 540.9 1320.0 539.7 C 1335.3 538.6 1350.7 537.7 1366.0 537.0 C 1381.3 536.3 1396.7 535.8 1412.0 535.6 C 1427.3 535.4 1442.7 535.4 1458.0 535.6 C 1473.3 535.9 1488.7 536.4 1504.0 537.1 C 1519.3 537.7 1534.7 538.7 1550.0 539.7 C 1565.3 540.8 1580.7 542.1 1596.0 543.5 C 1611.3 544.9 1634.3 547.3 1642.0 548.1" stroke="#F5F0E8" stroke-width="1" stroke-opacity="0.088" fill="none" stroke-linecap="round"/><path d="M -60.0 622.6 C -52.3 622.1 -29.3 620.8 -14.0 619.7 C 1.3 618.6 16.7 617.3 32.0 615.9 C 47.3 614.6 62.7 613.1 78.0 611.7 C 93.3 610.3 108.7 608.8 124.0 607.5 C 139.3 606.1 154.7 604.7 170.0 603.5 C 185.3 602.3 200.7 601.1 216.0 600.2 C 231.3 599.3 246.7 598.5 262.0 598.0 C 277.3 597.4 292.7 597.1 308.0 597.0 C 323.3 596.8 338.7 596.9 354.0 597.3 C 369.3 597.6 384.7 598.2 400.0 598.9 C 415.3 599.7 430.7 600.6 446.0 601.7 C 461.3 602.8 476.7 604.1 492.0 605.4 C 507.3 606.8 522.7 608.2 538.0 609.7 C 553.3 611.1 568.7 612.6 584.0 614.0 C 599.3 615.3 614.7 616.7 630.0 617.9 C 645.3 619.1 660.7 620.2 676.0 621.1 C 691.3 622.0 706.7 622.7 722.0 623.1 C 737.3 623.6 752.7 623.8 768.0 623.8 C 783.3 623.8 798.7 623.5 814.0 622.9 C 829.3 622.4 844.7 621.6 860.0 620.6 C 875.3 619.6 890.7 618.3 906.0 616.9 C 921.3 615.5 936.7 613.9 952.0 612.3 C 967.3 610.6 982.7 608.8 998.0 607.1 C 1013.3 605.4 1028.7 603.5 1044.0 601.9 C 1059.3 600.2 1074.7 598.5 1090.0 597.1 C 1105.3 595.7 1120.7 594.3 1136.0 593.3 C 1151.3 592.3 1166.7 591.4 1182.0 590.9 C 1197.3 590.4 1212.7 590.2 1228.0 590.3 C 1243.3 590.4 1258.7 590.9 1274.0 591.6 C 1289.3 592.3 1304.7 593.4 1320.0 594.8 C 1335.3 596.1 1350.7 597.8 1366.0 599.7 C 1381.3 601.6 1396.7 603.8 1412.0 606.1 C 1427.3 608.3 1442.7 610.8 1458.0 613.3 C 1473.3 615.8 1488.7 618.5 1504.0 621.0 C 1519.3 623.5 1534.7 626.0 1550.0 628.3 C 1565.3 630.6 1580.7 632.9 1596.0 634.8 C 1611.3 636.8 1634.3 639.1 1642.0 639.9" stroke="#C9A96E" stroke-width="1.5" stroke-opacity="0.220" fill="none" stroke-linecap="round"/><path d="M -60.0 603.6 C -52.3 603.6 -29.3 603.2 -14.0 603.4 C 1.3 603.6 16.7 604.1 32.0 604.8 C 47.3 605.6 62.7 606.6 78.0 607.8 C 93.3 609.1 108.7 610.6 124.0 612.3 C 139.3 614.0 154.7 616.0 170.0 618.1 C 185.3 620.3 200.7 622.6 216.0 625.0 C 231.3 627.5 246.7 630.1 262.0 632.7 C 277.3 635.3 292.7 638.1 308.0 640.8 C 323.3 643.5 338.7 646.2 354.0 648.8 C 369.3 651.5 384.7 654.1 400.0 656.6 C 415.3 659.0 430.7 661.4 446.0 663.6 C 461.3 665.7 476.7 667.8 492.0 669.5 C 507.3 671.3 522.7 672.9 538.0 674.3 C 553.3 675.6 568.7 676.7 584.0 677.6 C 599.3 678.4 614.7 679.0 630.0 679.4 C 645.3 679.7 660.7 679.8 676.0 679.7 C 691.3 679.6 706.7 679.2 722.0 678.7 C 737.3 678.2 752.7 677.4 768.0 676.5 C 783.3 675.7 798.7 674.6 814.0 673.5 C 829.3 672.4 844.7 671.2 860.0 670.0 C 875.3 668.8 890.7 667.5 906.0 666.2 C 921.3 665.0 936.7 663.8 952.0 662.7 C 967.3 661.6 982.7 660.6 998.0 659.7 C 1013.3 658.9 1028.7 658.1 1044.0 657.6 C 1059.3 657.0 1074.7 656.7 1090.0 656.5 C 1105.3 656.4 1120.7 656.5 1136.0 656.8 C 1151.3 657.1 1166.7 657.7 1182.0 658.5 C 1197.3 659.3 1212.7 660.3 1228.0 661.5 C 1243.3 662.8 1258.7 664.3 1274.0 665.9 C 1289.3 667.5 1304.7 669.4 1320.0 671.4 C 1335.3 673.4 1350.7 675.6 1366.0 677.8 C 1381.3 680.0 1396.7 682.4 1412.0 684.8 C 1427.3 687.1 1442.7 689.6 1458.0 692.0 C 1473.3 694.4 1488.7 696.8 1504.0 699.1 C 1519.3 701.4 1534.7 703.7 1550.0 705.7 C 1565.3 707.8 1580.7 709.8 1596.0 711.6 C 1611.3 713.3 1634.3 715.5 1642.0 716.3" stroke="#F5F0E8" stroke-width="1" stroke-opacity="0.053" fill="none" stroke-linecap="round"/><path d="M -60.0 701.4 C -52.3 701.1 -29.3 700.6 -14.0 699.8 C 1.3 699.0 16.7 697.9 32.0 696.5 C 47.3 695.1 62.7 693.4 78.0 691.5 C 93.3 689.7 108.7 687.5 124.0 685.3 C 139.3 683.0 154.7 680.6 170.0 678.1 C 185.3 675.6 200.7 673.0 216.0 670.5 C 231.3 667.9 246.7 665.3 262.0 662.9 C 277.3 660.5 292.7 658.1 308.0 655.9 C 323.3 653.7 338.7 651.6 354.0 649.8 C 369.3 648.0 384.7 646.4 400.0 645.1 C 415.3 643.8 430.7 642.7 446.0 641.9 C 461.3 641.1 476.7 640.6 492.0 640.3 C 507.3 640.0 522.7 640.0 538.0 640.2 C 553.3 640.4 568.7 640.9 584.0 641.5 C 599.3 642.1 614.7 642.9 630.0 643.8 C 645.3 644.6 660.7 645.7 676.0 646.7 C 691.3 647.7 706.7 648.8 722.0 649.8 C 737.3 650.8 752.7 651.8 768.0 652.7 C 783.3 653.5 798.7 654.3 814.0 655.0 C 829.3 655.6 844.7 656.1 860.0 656.4 C 875.3 656.6 890.7 656.8 906.0 656.7 C 921.3 656.6 936.7 656.3 952.0 655.9 C 967.3 655.4 982.7 654.7 998.0 653.9 C 1013.3 653.2 1028.7 652.2 1044.0 651.1 C 1059.3 650.1 1074.7 648.9 1090.0 647.7 C 1105.3 646.5 1120.7 645.1 1136.0 643.9 C 1151.3 642.6 1166.7 641.4 1182.0 640.2 C 1197.3 639.0 1212.7 637.9 1228.0 636.9 C 1243.3 635.9 1258.7 635.0 1274.0 634.3 C 1289.3 633.6 1304.7 633.0 1320.0 632.6 C 1335.3 632.2 1350.7 632.0 1366.0 632.0 C 1381.3 632.0 1396.7 632.1 1412.0 632.4 C 1427.3 632.8 1442.7 633.3 1458.0 633.9 C 1473.3 634.5 1488.7 635.3 1504.0 636.1 C 1519.3 636.9 1534.7 637.8 1550.0 638.8 C 1565.3 639.7 1580.7 640.7 1596.0 641.6 C 1611.3 642.6 1634.3 643.9 1642.0 644.3" stroke="#F5F0E8" stroke-width="1" stroke-opacity="0.065" fill="none" stroke-linecap="round"/><path d="M -60.0 684.7 C -52.3 684.5 -29.3 684.1 -14.0 683.9 C 1.3 683.7 16.7 683.5 32.0 683.5 C 47.3 683.5 62.7 683.5 78.0 683.7 C 93.3 683.9 108.7 684.1 124.0 684.5 C 139.3 684.9 154.7 685.4 170.0 686.1 C 185.3 686.8 200.7 687.6 216.0 688.6 C 231.3 689.6 246.7 690.7 262.0 692.0 C 277.3 693.3 292.7 694.8 308.0 696.5 C 323.3 698.1 338.7 699.9 354.0 701.9 C 369.3 703.9 384.7 706.0 400.0 708.3 C 415.3 710.6 430.7 713.0 446.0 715.5 C 461.3 718.1 476.7 720.7 492.0 723.5 C 507.3 726.2 522.7 729.0 538.0 731.9 C 553.3 734.7 568.7 737.6 584.0 740.4 C 599.3 743.3 614.7 746.2 630.0 748.9 C 645.3 751.7 660.7 754.4 676.0 757.0 C 691.3 759.6 706.7 762.1 722.0 764.3 C 737.3 766.6 752.7 768.7 768.0 770.6 C 783.3 772.4 798.7 774.1 814.0 775.5 C 829.3 776.9 844.7 778.0 860.0 778.9 C 875.3 779.7 890.7 780.3 906.0 780.5 C 921.3 780.8 936.7 780.8 952.0 780.4 C 967.3 780.1 982.7 779.5 998.0 778.6 C 1013.3 777.7 1028.7 776.5 1044.0 775.2 C 1059.3 773.8 1074.7 772.1 1090.0 770.3 C 1105.3 768.5 1120.7 766.5 1136.0 764.4 C 1151.3 762.3 1166.7 760.0 1182.0 757.7 C 1197.3 755.5 1212.7 753.1 1228.0 750.8 C 1243.3 748.5 1258.7 746.2 1274.0 744.0 C 1289.3 741.8 1304.7 739.7 1320.0 737.8 C 1335.3 735.9 1350.7 734.1 1366.0 732.6 C 1381.3 731.2 1396.7 729.9 1412.0 728.9 C 1427.3 728.0 1442.7 727.2 1458.0 726.9 C 1473.3 726.6 1488.7 726.5 1504.0 726.8 C 1519.3 727.1 1534.7 727.8 1550.0 728.8 C 1565.3 729.8 1580.7 731.2 1596.0 732.9 C 1611.3 734.5 1634.3 737.8 1642.0 738.8" stroke="#F5F0E8" stroke-width="1" stroke-opacity="0.054" fill="none" stroke-linecap="round"/><path d="M -60.0 734.2 C -52.3 734.3 -29.3 734.7 -14.0 735.1 C 1.3 735.5 16.7 735.9 32.0 736.4 C 47.3 736.9 62.7 737.4 78.0 738.0 C 93.3 738.7 108.7 739.4 124.0 740.2 C 139.3 741.0 154.7 741.9 170.0 742.9 C 185.3 743.9 200.7 744.9 216.0 746.0 C 231.3 747.1 246.7 748.3 262.0 749.6 C 277.3 750.8 292.7 752.1 308.0 753.3 C 323.3 754.6 338.7 755.9 354.0 757.2 C 369.3 758.4 384.7 759.7 400.0 760.9 C 415.3 762.1 430.7 763.2 446.0 764.3 C 461.3 765.3 476.7 766.3 492.0 767.1 C 507.3 768.0 522.7 768.7 538.0 769.3 C 553.3 769.9 568.7 770.3 584.0 770.6 C 599.3 770.9 614.7 771.1 630.0 771.1 C 645.3 771.1 660.7 770.9 676.0 770.6 C 691.3 770.3 706.7 769.8 722.0 769.3 C 737.3 768.7 752.7 768.0 768.0 767.3 C 783.3 766.5 798.7 765.6 814.0 764.7 C 829.3 763.8 844.7 762.8 860.0 761.8 C 875.3 760.8 890.7 759.8 906.0 758.9 C 921.3 757.9 936.7 757.0 952.0 756.2 C 967.3 755.4 982.7 754.6 998.0 754.0 C 1013.3 753.4 1028.7 752.8 1044.0 752.5 C 1059.3 752.1 1074.7 751.9 1090.0 751.9 C 1105.3 751.9 1120.7 752.0 1136.0 752.4 C 1151.3 752.7 1166.7 753.3 1182.0 754.0 C 1197.3 754.7 1212.7 755.6 1228.0 756.7 C 1243.3 757.7 1258.7 759.0 1274.0 760.4 C 1289.3 761.7 1304.7 763.3 1320.0 764.9 C 1335.3 766.6 1350.7 768.3 1366.0 770.1 C 1381.3 772.0 1396.7 773.9 1412.0 775.8 C 1427.3 777.7 1442.7 779.6 1458.0 781.5 C 1473.3 783.4 1488.7 785.3 1504.0 787.2 C 1519.3 789.0 1534.7 790.8 1550.0 792.4 C 1565.3 794.1 1580.7 795.6 1596.0 797.1 C 1611.3 798.5 1634.3 800.3 1642.0 800.9" stroke="#C9A96E" stroke-width="1.5" stroke-opacity="0.219" fill="none" stroke-linecap="round"/><path d="M -60.0 780.1 C -52.3 779.9 -29.3 779.5 -14.0 779.0 C 1.3 778.6 16.7 778.0 32.0 777.4 C 47.3 776.7 62.7 776.0 78.0 775.3 C 93.3 774.7 108.7 773.9 124.0 773.3 C 139.3 772.6 154.7 772.0 170.0 771.4 C 185.3 770.9 200.7 770.4 216.0 770.1 C 231.3 769.7 246.7 769.5 262.0 769.4 C 277.3 769.3 292.7 769.3 308.0 769.5 C 323.3 769.6 338.7 770.0 354.0 770.4 C 369.3 770.9 384.7 771.5 400.0 772.3 C 415.3 773.0 430.7 773.9 446.0 774.9 C 461.3 775.9 476.7 777.0 492.0 778.2 C 507.3 779.4 522.7 780.7 538.0 782.0 C 553.3 783.3 568.7 784.8 584.0 786.2 C 599.3 787.6 614.7 789.1 630.0 790.5 C 645.3 792.0 660.7 793.4 676.0 794.9 C 691.3 796.3 706.7 797.7 722.0 799.1 C 737.3 800.4 752.7 801.7 768.0 803.0 C 783.3 804.3 798.7 805.5 814.0 806.6 C 829.3 807.8 844.7 808.9 860.0 809.9 C 875.3 810.9 890.7 811.9 906.0 812.8 C 921.3 813.7 936.7 814.6 952.0 815.4 C 967.3 816.2 982.7 816.9 998.0 817.6 C 1013.3 818.3 1028.7 819.0 1044.0 819.6 C 1059.3 820.2 1074.7 820.7 1090.0 821.3 C 1105.3 821.8 1120.7 822.3 1136.0 822.8 C 1151.3 823.2 1166.7 823.7 1182.0 824.1 C 1197.3 824.5 1212.7 824.9 1228.0 825.2 C 1243.3 825.5 1258.7 825.9 1274.0 826.1 C 1289.3 826.4 1304.7 826.6 1320.0 826.8 C 1335.3 827.0 1350.7 827.2 1366.0 827.3 C 1381.3 827.5 1396.7 827.6 1412.0 827.6 C 1427.3 827.7 1442.7 827.7 1458.0 827.8 C 1473.3 827.8 1488.7 827.8 1504.0 827.7 C 1519.3 827.7 1534.7 827.7 1550.0 827.7 C 1565.3 827.6 1580.7 827.6 1596.0 827.6 C 1611.3 827.6 1634.3 827.7 1642.0 827.7" stroke="#F5F0E8" stroke-width="1" stroke-opacity="0.082" fill="none" stroke-linecap="round"/><path d="M -60.0 794.8 C -52.3 794.9 -29.3 795.3 -14.0 795.4 C 1.3 795.6 16.7 795.7 32.0 795.7 C 47.3 795.7 62.7 795.6 78.0 795.4 C 93.3 795.3 108.7 795.0 124.0 794.6 C 139.3 794.2 154.7 793.8 170.0 793.2 C 185.3 792.7 200.7 792.1 216.0 791.4 C 231.3 790.7 246.7 790.0 262.0 789.2 C 277.3 788.5 292.7 787.7 308.0 787.0 C 323.3 786.2 338.7 785.5 354.0 784.8 C 369.3 784.1 384.7 783.4 400.0 782.8 C 415.3 782.2 430.7 781.6 446.0 781.1 C 461.3 780.7 476.7 780.2 492.0 779.9 C 507.3 779.6 522.7 779.3 538.0 779.1 C 553.3 779.0 568.7 778.8 584.0 778.8 C 599.3 778.7 614.7 778.7 630.0 778.6 C 645.3 778.6 660.7 778.6 676.0 778.6 C 691.3 778.6 706.7 778.6 722.0 778.5 C 737.3 778.5 752.7 778.4 768.0 778.2 C 783.3 778.0 798.7 777.8 814.0 777.4 C 829.3 777.1 844.7 776.7 860.0 776.1 C 875.3 775.6 890.7 775.0 906.0 774.2 C 921.3 773.5 936.7 772.7 952.0 771.8 C 967.3 770.9 982.7 769.9 998.0 768.8 C 1013.3 767.8 1028.7 766.7 1044.0 765.6 C 1059.3 764.5 1074.7 763.3 1090.0 762.2 C 1105.3 761.1 1120.7 760.0 1136.0 758.9 C 1151.3 757.9 1166.7 756.9 1182.0 756.0 C 1197.3 755.1 1212.7 754.3 1228.0 753.6 C 1243.3 752.9 1258.7 752.3 1274.0 751.9 C 1289.3 751.4 1304.7 751.1 1320.0 750.9 C 1335.3 750.7 1350.7 750.7 1366.0 750.7 C 1381.3 750.7 1396.7 750.9 1412.0 751.1 C 1427.3 751.3 1442.7 751.6 1458.0 751.9 C 1473.3 752.2 1488.7 752.6 1504.0 752.9 C 1519.3 753.2 1534.7 753.5 1550.0 753.7 C 1565.3 753.9 1580.7 754.1 1596.0 754.1 C 1611.3 754.0 1634.3 753.7 1642.0 753.6" stroke="#F5F0E8" stroke-width="1" stroke-opacity="0.072" fill="none" stroke-linecap="round"/><path d="M -60.0 825.8 C -52.3 826.4 -29.3 828.2 -14.0 829.3 C 1.3 830.5 16.7 831.7 32.0 832.9 C 47.3 834.0 62.7 835.2 78.0 836.3 C 93.3 837.4 108.7 838.4 124.0 839.5 C 139.3 840.5 154.7 841.4 170.0 842.3 C 185.3 843.2 200.7 844.1 216.0 844.8 C 231.3 845.6 246.7 846.3 262.0 846.9 C 277.3 847.5 292.7 848.0 308.0 848.4 C 323.3 848.9 338.7 849.2 354.0 849.5 C 369.3 849.8 384.7 850.0 400.0 850.2 C 415.3 850.3 430.7 850.4 446.0 850.5 C 461.3 850.5 476.7 850.5 492.0 850.4 C 507.3 850.4 522.7 850.3 538.0 850.2 C 553.3 850.1 568.7 849.9 584.0 849.8 C 599.3 849.7 614.7 849.6 630.0 849.5 C 645.3 849.4 660.7 849.3 676.0 849.3 C 691.3 849.3 706.7 849.2 722.0 849.3 C 737.3 849.4 752.7 849.5 768.0 849.7 C 783.3 849.9 798.7 850.1 814.0 850.4 C 829.3 850.8 844.7 851.2 860.0 851.7 C 875.3 852.1 890.7 852.7 906.0 853.4 C 921.3 854.0 936.7 854.8 952.0 855.6 C 967.3 856.4 982.7 857.3 998.0 858.2 C 1013.3 859.2 1028.7 860.2 1044.0 861.3 C 1059.3 862.3 1074.7 863.5 1090.0 864.6 C 1105.3 865.8 1120.7 867.0 1136.0 868.2 C 1151.3 869.4 1166.7 870.7 1182.0 871.9 C 1197.3 873.1 1212.7 874.3 1228.0 875.5 C 1243.3 876.7 1258.7 877.9 1274.0 879.0 C 1289.3 880.1 1304.7 881.2 1320.0 882.2 C 1335.3 883.2 1350.7 884.1 1366.0 885.0 C 1381.3 885.8 1396.7 886.6 1412.0 887.2 C 1427.3 887.9 1442.7 888.5 1458.0 889.0 C 1473.3 889.4 1488.7 889.8 1504.0 890.1 C 1519.3 890.3 1534.7 890.5 1550.0 890.6 C 1565.3 890.6 1580.7 890.6 1596.0 890.4 C 1611.3 890.3 1634.3 889.9 1642.0 889.8" stroke="#F5F0E8" stroke-width="1" stroke-opacity="0.061" fill="none" stroke-linecap="round"/><path d="M -60.0 856.8 C -52.3 856.7 -29.3 856.5 -14.0 856.4 C 1.3 856.2 16.7 856.1 32.0 856.0 C 47.3 855.8 62.7 855.7 78.0 855.6 C 93.3 855.5 108.7 855.4 124.0 855.4 C 139.3 855.4 154.7 855.4 170.0 855.5 C 185.3 855.6 200.7 855.7 216.0 855.9 C 231.3 856.1 246.7 856.3 262.0 856.6 C 277.3 856.9 292.7 857.3 308.0 857.8 C 323.3 858.2 338.7 858.7 354.0 859.2 C 369.3 859.7 384.7 860.3 400.0 860.8 C 415.3 861.4 430.7 862.0 446.0 862.6 C 461.3 863.2 476.7 863.8 492.0 864.3 C 507.3 864.8 522.7 865.3 538.0 865.7 C 553.3 866.2 568.7 866.6 584.0 866.9 C 599.3 867.2 614.7 867.4 630.0 867.5 C 645.3 867.7 660.7 867.7 676.0 867.7 C 691.3 867.6 706.7 867.5 722.0 867.3 C 737.3 867.1 752.7 866.8 768.0 866.5 C 783.3 866.2 798.7 865.7 814.0 865.3 C 829.3 864.9 844.7 864.5 860.0 864.0 C 875.3 863.6 890.7 863.1 906.0 862.8 C 921.3 862.4 936.7 862.0 952.0 861.8 C 967.3 861.6 982.7 861.4 998.0 861.3 C 1013.3 861.3 1028.7 861.3 1044.0 861.6 C 1059.3 861.8 1074.7 862.1 1090.0 862.6 C 1105.3 863.1 1120.7 863.7 1136.0 864.5 C 1151.3 865.2 1166.7 866.2 1182.0 867.2 C 1197.3 868.2 1212.7 869.4 1228.0 870.7 C 1243.3 871.9 1258.7 873.3 1274.0 874.7 C 1289.3 876.0 1304.7 877.5 1320.0 878.9 C 1335.3 880.4 1350.7 881.8 1366.0 883.2 C 1381.3 884.6 1396.7 885.9 1412.0 887.1 C 1427.3 888.3 1442.7 889.5 1458.0 890.4 C 1473.3 891.3 1488.7 892.1 1504.0 892.7 C 1519.3 893.3 1534.7 893.8 1550.0 894.0 C 1565.3 894.2 1580.7 894.2 1596.0 893.9 C 1611.3 893.7 1634.3 892.9 1642.0 892.7" stroke="#C9A96E" stroke-width="1.5" stroke-opacity="0.165" fill="none" stroke-linecap="round"/><path d="M -60.0 883.1 C -52.3 883.4 -29.3 884.4 -14.0 885.2 C 1.3 885.9 16.7 886.8 32.0 887.6 C 47.3 888.5 62.7 889.5 78.0 890.4 C 93.3 891.4 108.7 892.4 124.0 893.5 C 139.3 894.5 154.7 895.5 170.0 896.6 C 185.3 897.7 200.7 898.7 216.0 899.8 C 231.3 900.8 246.7 901.9 262.0 902.9 C 277.3 903.9 292.7 904.9 308.0 905.9 C 323.3 906.8 338.7 907.8 354.0 908.7 C 369.3 909.6 384.7 910.4 400.0 911.2 C 415.3 912.0 430.7 912.8 446.0 913.5 C 461.3 914.2 476.7 914.8 492.0 915.4 C 507.3 916.1 522.7 916.6 538.0 917.1 C 553.3 917.6 568.7 918.1 584.0 918.5 C 599.3 919.0 614.7 919.4 630.0 919.7 C 645.3 920.1 660.7 920.4 676.0 920.7 C 691.3 921.0 706.7 921.2 722.0 921.5 C 737.3 921.7 752.7 921.9 768.0 922.1 C 783.3 922.3 798.7 922.5 814.0 922.7 C 829.3 922.9 844.7 923.1 860.0 923.3 C 875.3 923.5 890.7 923.6 906.0 923.8 C 921.3 924.0 936.7 924.2 952.0 924.3 C 967.3 924.5 982.7 924.7 998.0 924.9 C 1013.3 925.1 1028.7 925.3 1044.0 925.5 C 1059.3 925.7 1074.7 925.9 1090.0 926.1 C 1105.3 926.3 1120.7 926.5 1136.0 926.7 C 1151.3 926.9 1166.7 927.1 1182.0 927.3 C 1197.3 927.5 1212.7 927.7 1228.0 927.9 C 1243.3 928.1 1258.7 928.3 1274.0 928.5 C 1289.3 928.7 1304.7 928.9 1320.0 929.0 C 1335.3 929.2 1350.7 929.4 1366.0 929.5 C 1381.3 929.7 1396.7 929.9 1412.0 930.0 C 1427.3 930.2 1442.7 930.4 1458.0 930.5 C 1473.3 930.7 1488.7 930.8 1504.0 931.0 C 1519.3 931.2 1534.7 931.4 1550.0 931.5 C 1565.3 931.7 1580.7 931.9 1596.0 932.2 C 1611.3 932.4 1634.3 932.8 1642.0 932.9" stroke="#F5F0E8" stroke-width="1" stroke-opacity="0.086" fill="none" stroke-linecap="round"/><path d="M -60.0 933.3 C -52.3 933.7 -29.3 935.0 -14.0 935.7 C 1.3 936.4 16.7 937.0 32.0 937.5 C 47.3 937.9 62.7 938.2 78.0 938.4 C 93.3 938.6 108.7 938.6 124.0 938.6 C 139.3 938.5 154.7 938.3 170.0 937.9 C 185.3 937.6 200.7 937.2 216.0 936.6 C 231.3 936.1 246.7 935.5 262.0 934.8 C 277.3 934.2 292.7 933.4 308.0 932.7 C 323.3 932.0 338.7 931.2 354.0 930.4 C 369.3 929.7 384.7 929.0 400.0 928.3 C 415.3 927.7 430.7 927.0 446.0 926.5 C 461.3 926.0 476.7 925.5 492.0 925.2 C 507.3 924.9 522.7 924.6 538.0 924.5 C 553.3 924.4 568.7 924.3 584.0 924.4 C 599.3 924.5 614.7 924.7 630.0 925.0 C 645.3 925.3 660.7 925.7 676.0 926.2 C 691.3 926.7 706.7 927.3 722.0 927.9 C 737.3 928.5 752.7 929.1 768.0 929.8 C 783.3 930.5 798.7 931.2 814.0 931.9 C 829.3 932.6 844.7 933.3 860.0 933.9 C 875.3 934.5 890.7 935.2 906.0 935.7 C 921.3 936.3 936.7 936.7 952.0 937.2 C 967.3 937.6 982.7 937.9 998.0 938.1 C 1013.3 938.4 1028.7 938.6 1044.0 938.7 C 1059.3 938.8 1074.7 938.8 1090.0 938.7 C 1105.3 938.6 1120.7 938.5 1136.0 938.3 C 1151.3 938.1 1166.7 937.9 1182.0 937.6 C 1197.3 937.4 1212.7 937.1 1228.0 936.8 C 1243.3 936.4 1258.7 936.1 1274.0 935.8 C 1289.3 935.5 1304.7 935.2 1320.0 934.9 C 1335.3 934.6 1350.7 934.4 1366.0 934.2 C 1381.3 934.0 1396.7 933.8 1412.0 933.6 C 1427.3 933.5 1442.7 933.4 1458.0 933.4 C 1473.3 933.3 1488.7 933.3 1504.0 933.3 C 1519.3 933.3 1534.7 933.3 1550.0 933.3 C 1565.3 933.3 1580.7 933.4 1596.0 933.4 C 1611.3 933.4 1634.3 933.4 1642.0 933.4" stroke="#F5F0E8" stroke-width="1" stroke-opacity="0.091" fill="none" stroke-linecap="round"/><path d="M -60.0 970.3 C -52.3 970.0 -29.3 969.0 -14.0 968.3 C 1.3 967.6 16.7 966.9 32.0 966.1 C 47.3 965.3 62.7 964.6 78.0 963.7 C 93.3 962.9 108.7 962.1 124.0 961.2 C 139.3 960.3 154.7 959.5 170.0 958.6 C 185.3 957.7 200.7 956.7 216.0 955.8 C 231.3 954.9 246.7 954.0 262.0 953.0 C 277.3 952.1 292.7 951.2 308.0 950.2 C 323.3 949.3 338.7 948.4 354.0 947.5 C 369.3 946.5 384.7 945.6 400.0 944.7 C 415.3 943.8 430.7 943.0 446.0 942.1 C 461.3 941.2 476.7 940.4 492.0 939.6 C 507.3 938.8 522.7 938.0 538.0 937.2 C 553.3 936.4 568.7 935.7 584.0 935.0 C 599.3 934.2 614.7 933.6 630.0 932.9 C 645.3 932.2 660.7 931.6 676.0 930.9 C 691.3 930.3 706.7 929.7 722.0 929.1 C 737.3 928.6 752.7 928.0 768.0 927.5 C 783.3 926.9 798.7 926.4 814.0 925.9 C 829.3 925.3 844.7 924.8 860.0 924.3 C 875.3 923.8 890.7 923.3 906.0 922.8 C 921.3 922.3 936.7 921.8 952.0 921.3 C 967.3 920.8 982.7 920.3 998.0 919.8 C 1013.3 919.2 1028.7 918.7 1044.0 918.1 C 1059.3 917.6 1074.7 917.0 1090.0 916.4 C 1105.3 915.8 1120.7 915.1 1136.0 914.5 C 1151.3 913.8 1166.7 913.2 1182.0 912.4 C 1197.3 911.7 1212.7 911.0 1228.0 910.2 C 1243.3 909.4 1258.7 908.6 1274.0 907.8 C 1289.3 907.0 1304.7 906.1 1320.0 905.2 C 1335.3 904.3 1350.7 903.4 1366.0 902.5 C 1381.3 901.5 1396.7 900.5 1412.0 899.5 C 1427.3 898.5 1442.7 897.5 1458.0 896.5 C 1473.3 895.5 1488.7 894.4 1504.0 893.4 C 1519.3 892.3 1534.7 891.3 1550.0 890.2 C 1565.3 889.1 1580.7 888.1 1596.0 887.0 C 1611.3 886.0 1634.3 884.4 1642.0 883.9" stroke="#F5F0E8" stroke-width="1" stroke-opacity="0.089" fill="none" stroke-linecap="round"/></g>
<path d="M -60.0 530.2 C -52.3 530.0 -29.3 529.1 -14.0 528.6 C 1.3 528.1 16.7 527.7 32.0 527.3 C 47.3 526.9 62.7 526.5 78.0 526.1 C 93.3 525.8 108.7 525.5 124.0 525.2 C 139.3 524.9 154.7 524.7 170.0 524.5 C 185.3 524.3 200.7 524.1 216.0 523.9 C 231.3 523.8 246.7 523.7 262.0 523.5 C 277.3 523.4 292.7 523.3 308.0 523.2 C 323.3 523.1 338.7 523.0 354.0 522.9 C 369.3 522.8 384.7 522.7 400.0 522.6 C 415.3 522.5 430.7 522.4 446.0 522.3 C 461.3 522.2 476.7 522.1 492.0 521.9 C 507.3 521.8 522.7 521.6 538.0 521.4 C 553.3 521.3 568.7 521.1 584.0 520.8 C 599.3 520.6 614.7 520.3 630.0 520.0 C 645.3 519.7 660.7 519.4 676.0 519.1 C 691.3 518.7 706.7 518.4 722.0 518.0 C 737.3 517.6 752.7 517.2 768.0 516.7 C 783.3 516.3 798.7 515.8 814.0 515.3 C 829.3 514.8 844.7 514.3 860.0 513.8 C 875.3 513.3 890.7 512.8 906.0 512.3 C 921.3 511.7 936.7 511.2 952.0 510.7 C 967.3 510.1 982.7 509.6 998.0 509.1 C 1013.3 508.6 1028.7 508.1 1044.0 507.6 C 1059.3 507.1 1074.7 506.6 1090.0 506.2 C 1105.3 505.8 1120.7 505.3 1136.0 505.0 C 1151.3 504.6 1166.7 504.2 1182.0 503.9 C 1197.3 503.6 1212.7 503.4 1228.0 503.2 C 1243.3 503.0 1258.7 502.8 1274.0 502.7 C 1289.3 502.5 1304.7 502.5 1320.0 502.5 C 1335.3 502.4 1350.7 502.5 1366.0 502.6 C 1381.3 502.6 1396.7 502.8 1412.0 503.0 C 1427.3 503.2 1442.7 503.4 1458.0 503.7 C 1473.3 504.0 1488.7 504.3 1504.0 504.7 C 1519.3 505.0 1534.7 505.5 1550.0 505.9 C 1565.3 506.3 1580.7 506.8 1596.0 507.3 C 1611.3 507.8 1634.3 508.6 1642.0 508.9" stroke="#C9A96E" stroke-width="2" stroke-opacity="0.5" fill="none" stroke-linecap="round"/>
<rect width="1600" height="900" fill="url(#vig)"/>
<rect width="1600" height="900" filter="url(#grain)" opacity="0.05"/>
</svg>