<svg xmlns="http://www.w3.org/2000/svg" viewBox="0 0 1600 900" preserveAspectRatio="xMidYMid slice">
<defs>
<linearGradient id="bg" x1="0" y1="0" x2="0" y2="1"><stop offset="0" stop-color="#0b160f"/><stop offset="1" stop-color="#15271b"/></linearGradient>
<radialGradient id="glow" cx="0.530" cy="0.369" r="0.75"><stop offset="0" stop-color="#C9A96E" stop-opacity="0.15"/><stop offset="1" stop-color="#C9A96E" stop-opacity="0"/></radialGradient>
<radialGradient id="vig" cx="0.5" cy="0.5" r="0.75"><stop offset="0.5" stop-color="#000" stop-opacity="0"/><stop offset="1" stop-color="#000" stop-opacity="0.5"/></radialGradient>
<filter id="grain"><feTurbulence type="fractalNoise" baseFrequency="0.9" numOctaves="2" stitchTiles="stitch"/><feColorMatrix type="matrix" values="0 0 0 0 0 0 0 0 0 0 0 0 0 0 0 0 0 0 0.55 0"/></filter>
</defs>
<rect width="1600" height="900" fill="url(#bg)"/>
<rect width="1600" height="900" fill="url(#glow)"/>
<path d="M -60.0 470.0 C -52.3 469.8 -29.3 469.1 -14.0 468.6 C 1.3 468.1 16.7 467.6 32.0 467.0 C 47.3 466.5 62.7 465.9 78.0 465.4 C 93.3 464.8 108.7 464.2 124.0 463.6 C 139.3 463.0 154.7 462.4 170.0 461.8 C 185.3 461.1 200.7 460.5 216.0 459.8 C 231.3 459.1 246.7 458.5 262.0 457.8 C 277.3 457.1 292.7 456.4 308.0 455.7 C 323.3 455.0 338.7 454.2 354.0 453.5 C 369.3 452.8 384.7 452.1 400.0 451.3 C 415.3 450.6 430.7 449.9 446.0 449.1 C 461.3 448.4 476.7 447.6 492.0 446.9 C 507.3 446.2 522.7 445.5 538.0 444.8 C 553.3 444.0 568.7 443.3 584.0 442.6 C 599.3 441.9 614.7 441.3 630.0 440.6 C 645.3 439.9 660.7 439.3 676.0 438.7 C 691.3 438.1 706.7 437.5 722.0 436.9 C 737.3 436.3 752.7 435.8 768.0 435.3 C 783.3 434.8 798.7 434.3 814.0 433.8 C 829.3 433.4 844.7 433.0 860.0 432.6 C 875.3 432.2 890.7 431.8 906.0 431.5 C 921.3 431.2 936.7 431.0 952.0 430.7 C 967.3 430.5 982.7 430.3 998.0 430.2 C 1013.3 430.0 1028.7 429.9 1044.0 429.9 C 1059.3 429.8 1074.7 429.8 1090.0 429.8 C 1105.3 429.8 1120.7 429.8 1136.0 429.9 C 1151.3 430.0 1166.7 430.2 1182.0 430.3 C 1197.3 430.5 1212.7 430.7 1228.0 430.9 C 1243.3 431.2 1258.7 431.4 1274.0 431.7 C 1289.3 432.0 1304.7 432.3 1320.0 432.7 C 1335.3 433.0 1350.7 433.4 1366.0 433.8 C 1381.3 434.2 1396.7 434.6 1412.0 435.0 C 1427.3 435.5 1442.7 435.9 1458.0 436.3 C 1473.3 436.8 1488.7 437.2 1504.0 437.7 C 1519.3 438.2 1534.7 438.6 1550.0 439.1 C 1565.3 439.5 1580.7 440.0 1596.0 440.4 C 1611.3 440.8 1631.3 355.1 1642.0 441.7 C 1652.7 528.3 1943.7 873.6 1660.0 960.0 C 1376.3 1046.4 226.7 960.0 -60.0 960.0 Z" fill="#C9A96E" fill-opacity="0.028"/>
<g><path d="M -60.0 -55.1 C -52.3 -54.9 -29.3 -54.4 -14.0 -54.0 C 1.3 -53.7 16.7 -53.5 32.0 -53.2 C 47.3 -52.9 62.7 -52.7 78.0 -52.5 C 93.3 -52.3 108.7 -52.1 124.0 -52.0 C 139.3 -51.8 154.7 -51.7 170.0 -51.5 C 185.3 -51.4 200.7 -51.3 216.0 -51.1 C 231.3 -51.0 246.7 -50.9 262.0 -50.8 C 277.3 -50.6 292.7 -50.5 308.0 -50.4 C 323.3 -50.2 338.7 -50.1 354.0 -49.9 C 369.3 -49.7 384.7 -49.5 400.0 -49.3 C 415.3 -49.1 430.7 -48.8 446.0 -48.6 C 461.3 -48.3 476.7 -48.0 492.0 -47.6 C 507.3 -47.3 522.7 -46.9 538.0 -46.5 C 553.3 -46.0 568.7 -45.6 584.0 -45.1 C 599.3 -44.6 614.7 -44.0 630.0 -43.4 C 645.3 -42.8 660.7 -42.2 676.0 -41.5 C 691.3 -40.9 706.7 -40.2 722.0 -39.4 C 737.3 -38.7 752.7 -37.9 768.0 -37.1 C 783.3 -36.3 798.7 -35.4 814.0 -34.6 C 829.3 -33.7 844.7 -32.8 860.0 -31.9 C 875.3 -31.0 890.7 -30.1 906.0 -29.2 C 921.3 -28.2 936.7 -27.3 952.0 -26.4 C 967.3 -25.5 982.7 -24.5 998.0 -23.6 C 1013.3 -22.7 1028.7 -21.8 1044.0 -20.9 C 1059.3 -20.0 1074.7 -19.1 1090.0 -18.2 C 1105.3 -17.4 1120.7 -16.6 1136.0 -15.8 C 1151.3 -15.0 1166.7 -14.2 1182.0 -13.5 C 1197.3 -12.8 1212.7 -12.1 1228.0 -11.5 C 1243.3 -10.8 1258.7 -10.2 1274.0 -9.6 C 1289.3 -9.1 1304.7 -8.5 1320.0 -8.0 C 1335.3 -7.6 1350.7 -7.1 1366.0 -6.7 C 1381.3 -6.3 1396.7 -5.9 1412.0 -5.6 C 1427.3 -5.2 1442.7 -4.9 1458.0 -4.6 C 1473.3 -4.3 1488.7 -4.0 1504.0 -3.8 C 1519.3 -3.5 1534.7 -3.3 1550.0 -3.1 C 1565.3 -2.8 1580.7 -2.6 1596.0 -2.4 C 1611.3 -2.2 1634.3 -1.8 1642.0 -1.7" stroke="#F5F0E8" stroke-width="1" stroke-opacity="0.048" fill="none" stroke-linecap="round"/><path d="M -60.0 -42.5 C -52.3 -42.6 -29.3 -43.1 -14.0 -43.3 C 1.3 -43.5 16.7 -43.7 32.0 -43.7 C 47.3 -43.8 62.7 -43.7 78.0 -43.6 C 93.3 -43.5 108.7 -43.3 124.0 -43.1 C 139.3 -42.8 154.7 -42.5 170.0 -42.1 C 185.3 -41.7 200.7 -41.3 216.0 -40.7 C 231.3 -40.2 246.7 -39.6 262.0 -39.0 C 277.3 -38.4 292.7 -37.7 308.0 -37.1 C 323.3 -36.4 338.7 -35.6 354.0 -34.9 C 369.3 -34.2 384.7 -33.4 400.0 -32.6 C 415.3 -31.9 430.7 -31.1 446.0 -30.3 C 461.3 -29.6 476.7 -28.8 492.0 -28.1 C 507.3 -27.4 522.7 -26.7 538.0 -26.1 C 553.3 -25.4 568.7 -24.8 584.0 -24.3 C 599.3 -23.7 614.7 -23.2 630.0 -22.8 C 645.3 -22.4 660.7 -22.0 676.0 -21.7 C 691.3 -21.4 706.7 -21.2 722.0 -21.1 C 737.3 -20.9 752.7 -20.9 768.0 -20.9 C 783.3 -20.9 798.7 -21.1 814.0 -21.3 C 829.3 -21.5 844.7 -21.8 860.0 -22.2 C 875.3 -22.5 890.7 -23.0 906.0 -23.6 C 921.3 -24.1 936.7 -24.8 952.0 -25.5 C 967.3 -26.2 982.7 -27.0 998.0 -27.9 C 1013.3 -28.7 1028.7 -29.7 1044.0 -30.6 C 1059.3 -31.6 1074.7 -32.7 1090.0 -33.8 C 1105.3 -34.9 1120.7 -36.0 1136.0 -37.2 C 1151.3 -38.4 1166.7 -39.6 1182.0 -40.8 C 1197.3 -42.1 1212.7 -43.3 1228.0 -44.6 C 1243.3 -45.8 1258.7 -47.1 1274.0 -48.4 C 1289.3 -49.6 1304.7 -50.9 1320.0 -52.1 C 1335.3 -53.4 1350.7 -54.6 1366.0 -55.8 C 1381.3 -57.0 1396.7 -58.1 1412.0 -59.3 C 1427.3 -60.4 1442.7 -61.5 1458.0 -62.5 C 1473.3 -63.5 1488.7 -64.5 1504.0 -65.4 C 1519.3 -66.3 1534.7 -67.2 1550.0 -68.0 C 1565.3 -68.8 1580.7 -69.6 1596.0 -70.3 C 1611.3 -71.0 1634.3 -71.9 1642.0 -72.2" stroke="#F5F0E8" stroke-width="1.5" stroke-opacity="0.161" fill="none" stroke-linecap="round"/><path d="M -60.0 22.6 C -52.3 22.1 -29.3 20.7 -14.0 19.5 C 1.3 18.2 16.7 16.7 32.0 15.1 C 47.3 13.5 62.7 11.7 78.0 9.9 C 93.3 8.0 108.7 6.0 124.0 4.0 C 139.3 1.9 154.7 -0.2 170.0 -2.2 C 185.3 -4.2 200.7 -6.3 216.0 -8.3 C 231.3 -10.2 246.7 -12.1 262.0 -13.8 C 277.3 -15.6 292.7 -17.2 308.0 -18.6 C 323.3 -20.1 338.7 -21.3 354.0 -22.4 C 369.3 -23.5 384.7 -24.3 400.0 -25.0 C 415.3 -25.7 430.7 -26.2 446.0 -26.4 C 461.3 -26.7 476.7 -26.8 492.0 -26.8 C 507.3 -26.7 522.7 -26.5 538.0 -26.2 C 553.3 -25.9 568.7 -25.4 584.0 -25.0 C 599.3 -24.5 614.7 -23.9 630.0 -23.4 C 645.3 -22.9 660.7 -22.3 676.0 -21.8 C 691.3 -21.3 706.7 -20.9 722.0 -20.6 C 737.3 -20.2 752.7 -20.0 768.0 -19.9 C 783.3 -19.8 798.7 -19.8 814.0 -20.0 C 829.3 -20.2 844.7 -20.6 860.0 -21.1 C 875.3 -21.6 890.7 -22.3 906.0 -23.1 C 921.3 -23.9 936.7 -24.9 952.0 -26.1 C 967.3 -27.2 982.7 -28.5 998.0 -29.8 C 1013.3 -31.1 1028.7 -32.6 1044.0 -34.1 C 1059.3 -35.6 1074.7 -37.2 1090.0 -38.8 C 1105.3 -40.3 1120.7 -41.9 1136.0 -43.5 C 1151.3 -45.0 1166.7 -46.6 1182.0 -48.1 C 1197.3 -49.5 1212.7 -50.9 1228.0 -52.2 C 1243.3 -53.5 1258.7 -54.8 1274.0 -55.9 C 1289.3 -57.0 1304.7 -58.0 1320.0 -58.9 C 1335.3 -59.8 1350.7 -60.6 1366.0 -61.2 C 1381.3 -61.9 1396.7 -62.5 1412.0 -63.0 C 1427.3 -63.4 1442.7 -63.8 1458.0 -64.2 C 1473.3 -64.5 1488.7 -64.7 1504.0 -65.0 C 1519.3 -65.2 1534.7 -65.3 1550.0 -65.5 C 1565.3 -65.7 1580.7 -65.9 1596.0 -66.0 C 1611.3 -66.2 1634.3 -66.5 1642.0 -66.6" stroke="#F5F0E8" stroke-width="1" stroke-opacity="0.049" fill="none" stroke-linecap="round"/><path d="M -60.0 34.0 C -52.3 33.8 -29.3 33.1 -14.0 32.8 C 1.3 32.4 16.7 32.1 32.0 31.9 C 47.3 31.6 62.7 31.4 78.0 31.3 C 93.3 31.1 108.7 31.0 124.0 30.9 C 139.3 30.8 154.7 30.8 170.0 30.8 C 185.3 30.8 200.7 30.8 216.0 30.9 C 231.3 30.9 246.7 31.0 262.0 31.0 C 277.3 31.1 292.7 31.2 308.0 31.3 C 323.3 31.4 338.7 31.5 354.0 31.6 C 369.3 31.7 384.7 31.8 400.0 31.9 C 415.3 32.0 430.7 32.0 446.0 32.1 C 461.3 32.2 476.7 32.2 492.0 32.2 C 507.3 32.3 522.7 32.3 538.0 32.3 C 553.3 32.3 568.7 32.2 584.0 32.2 C 599.3 32.1 614.7 32.1 630.0 32.0 C 645.3 31.9 660.7 31.8 676.0 31.7 C 691.3 31.6 706.7 31.4 722.0 31.3 C 737.3 31.2 752.7 31.0 768.0 30.9 C 783.3 30.7 798.7 30.5 814.0 30.4 C 829.3 30.2 844.7 30.1 860.0 29.9 C 875.3 29.8 890.7 29.6 906.0 29.5 C 921.3 29.4 936.7 29.2 952.0 29.1 C 967.3 29.0 982.7 29.0 998.0 28.9 C 1013.3 28.8 1028.7 28.8 1044.0 28.8 C 1059.3 28.8 1074.7 28.8 1090.0 28.9 C 1105.3 28.9 1120.7 29.0 1136.0 29.1 C 1151.3 29.3 1166.7 29.4 1182.0 29.6 C 1197.3 29.8 1212.7 30.0 1228.0 30.2 C 1243.3 30.5 1258.7 30.7 1274.0 31.0 C 1289.3 31.3 1304.7 31.7 1320.0 32.0 C 1335.3 32.3 1350.7 32.7 1366.0 33.1 C 1381.3 33.5 1396.7 33.9 1412.0 34.3 C 1427.3 34.7 1442.7 35.2 1458.0 35.6 C 1473.3 36.0 1488.7 36.5 1504.0 36.9 C 1519.3 37.4 1534.7 37.8 1550.0 38.2 C 1565.3 38.7 1580.7 39.1 1596.0 39.5 C 1611.3 39.9 1634.3 40.5 1642.0 40.7" stroke="#F5F0E8" stroke-width="1" stroke-opacity="0.069" fill="none" stroke-linecap="round"/><path d="M -60.0 73.2 C -52.3 72.6 -29.3 70.6 -14.0 69.4 C 1.3 68.1 16.7 67.0 32.0 66.0 C 47.3 64.9 62.7 64.0 78.0 63.3 C 93.3 62.5 108.7 61.9 124.0 61.5 C 139.3 61.0 154.7 60.7 170.0 60.6 C 185.3 60.5 200.7 60.5 216.0 60.7 C 231.3 60.8 246.7 61.1 262.0 61.4 C 277.3 61.8 292.7 62.3 308.0 62.7 C 323.3 63.2 338.7 63.8 354.0 64.2 C 369.3 64.7 384.7 65.2 400.0 65.6 C 415.3 66.0 430.7 66.3 446.0 66.5 C 461.3 66.7 476.7 66.8 492.0 66.6 C 507.3 66.5 522.7 66.2 538.0 65.8 C 553.3 65.3 568.7 64.6 584.0 63.8 C 599.3 62.9 614.7 61.9 630.0 60.7 C 645.3 59.5 660.7 58.0 676.0 56.5 C 691.3 55.0 706.7 53.3 722.0 51.5 C 737.3 49.7 752.7 47.8 768.0 46.0 C 783.3 44.1 798.7 42.1 814.0 40.2 C 829.3 38.3 844.7 36.4 860.0 34.6 C 875.3 32.9 890.7 31.1 906.0 29.6 C 921.3 28.1 936.7 26.6 952.0 25.4 C 967.3 24.2 982.7 23.1 998.0 22.3 C 1013.3 21.5 1028.7 20.8 1044.0 20.4 C 1059.3 19.9 1074.7 19.7 1090.0 19.7 C 1105.3 19.6 1120.7 19.8 1136.0 20.1 C 1151.3 20.3 1166.7 20.8 1182.0 21.4 C 1197.3 21.9 1212.7 22.6 1228.0 23.3 C 1243.3 23.9 1258.7 24.7 1274.0 25.4 C 1289.3 26.1 1304.7 26.9 1320.0 27.5 C 1335.3 28.2 1350.7 28.8 1366.0 29.2 C 1381.3 29.7 1396.7 30.1 1412.0 30.2 C 1427.3 30.4 1442.7 30.5 1458.0 30.4 C 1473.3 30.3 1488.7 30.0 1504.0 29.6 C 1519.3 29.2 1534.7 28.6 1550.0 27.8 C 1565.3 27.1 1580.7 26.2 1596.0 25.3 C 1611.3 24.3 1634.3 22.6 1642.0 22.1" stroke="#F5F0E8" stroke-width="1" stroke-opacity="0.085" fill="none" stroke-linecap="round"/><path d="M -60.0 87.7 C -52.3 87.5 -29.3 86.8 -14.0 86.5 C 1.3 86.1 16.7 85.9 32.0 85.7 C 47.3 85.5 62.7 85.4 78.0 85.3 C 93.3 85.2 108.7 85.2 124.0 85.1 C 139.3 85.0 154.7 84.9 170.0 84.8 C 185.3 84.7 200.7 84.6 216.0 84.5 C 231.3 84.3 246.7 84.1 262.0 83.9 C 277.3 83.6 292.7 83.3 308.0 83.0 C 323.3 82.7 338.7 82.3 354.0 81.9 C 369.3 81.5 384.7 81.1 400.0 80.7 C 415.3 80.2 430.7 79.7 446.0 79.3 C 461.3 78.8 476.7 78.3 492.0 77.8 C 507.3 77.4 522.7 76.9 538.0 76.5 C 553.3 76.1 568.7 75.7 584.0 75.3 C 599.3 75.0 614.7 74.7 630.0 74.4 C 645.3 74.2 660.7 74.0 676.0 73.9 C 691.3 73.7 706.7 73.6 722.0 73.6 C 737.3 73.6 752.7 73.6 768.0 73.6 C 783.3 73.7 798.7 73.8 814.0 73.9 C 829.3 74.0 844.7 74.2 860.0 74.3 C 875.3 74.4 890.7 74.6 906.0 74.7 C 921.3 74.8 936.7 74.8 952.0 74.9 C 967.3 74.9 982.7 74.9 998.0 74.7 C 1013.3 74.6 1028.7 74.4 1044.0 74.1 C 1059.3 73.8 1074.7 73.5 1090.0 73.0 C 1105.3 72.4 1120.7 71.8 1136.0 71.1 C 1151.3 70.4 1166.7 69.5 1182.0 68.6 C 1197.3 67.6 1212.7 66.6 1228.0 65.4 C 1243.3 64.3 1258.7 63.0 1274.0 61.7 C 1289.3 60.4 1304.7 58.9 1320.0 57.5 C 1335.3 56.1 1350.7 54.6 1366.0 53.1 C 1381.3 51.6 1396.7 50.1 1412.0 48.6 C 1427.3 47.2 1442.7 45.7 1458.0 44.4 C 1473.3 43.0 1488.7 41.7 1504.0 40.6 C 1519.3 39.4 1534.7 38.3 1550.0 37.4 C 1565.3 36.4 1580.7 35.6 1596.0 35.0 C 1611.3 34.3 1634.3 33.7 1642.0 33.5" stroke="#F5F0E8" stroke-width="1.5" stroke-opacity="0.210" fill="none" stroke-linecap="round"/><path d="M -60.0 111.1 C -52.3 111.7 -29.3 113.1 -14.0 114.4 C 1.3 115.7 16.7 117.2 32.0 118.8 C 47.3 120.5 62.7 122.4 78.0 124.4 C 93.3 126.4 108.7 128.6 124.0 131.0 C 139.3 133.3 154.7 135.8 170.0 138.4 C 185.3 140.9 200.7 143.6 216.0 146.4 C 231.3 149.1 246.7 151.9 262.0 154.7 C 277.3 157.4 292.7 160.2 308.0 162.9 C 323.3 165.6 338.7 168.3 354.0 170.8 C 369.3 173.3 384.7 175.7 400.0 177.9 C 415.3 180.2 430.7 182.3 446.0 184.1 C 461.3 185.9 476.7 187.6 492.0 189.0 C 507.3 190.4 522.7 191.6 538.0 192.5 C 553.3 193.4 568.7 194.0 584.0 194.4 C 599.3 194.8 614.7 194.9 630.0 194.8 C 645.3 194.7 660.7 194.3 676.0 193.8 C 691.3 193.2 706.7 192.4 722.0 191.4 C 737.3 190.4 752.7 189.2 768.0 187.9 C 783.3 186.7 798.7 185.2 814.0 183.7 C 829.3 182.2 844.7 180.5 860.0 178.9 C 875.3 177.3 890.7 175.6 906.0 173.9 C 921.3 172.3 936.7 170.7 952.0 169.1 C 967.3 167.6 982.7 166.1 998.0 164.7 C 1013.3 163.3 1028.7 162.0 1044.0 160.9 C 1059.3 159.8 1074.7 158.8 1090.0 158.0 C 1105.3 157.1 1120.7 156.5 1136.0 156.0 C 1151.3 155.5 1166.7 155.1 1182.0 155.0 C 1197.3 154.8 1212.7 154.8 1228.0 154.9 C 1243.3 155.1 1258.7 155.4 1274.0 155.8 C 1289.3 156.3 1304.7 156.9 1320.0 157.5 C 1335.3 158.2 1350.7 159.0 1366.0 159.9 C 1381.3 160.8 1396.7 161.8 1412.0 162.9 C 1427.3 163.9 1442.7 165.0 1458.0 166.2 C 1473.3 167.3 1488.7 168.5 1504.0 169.7 C 1519.3 171.0 1534.7 172.2 1550.0 173.5 C 1565.3 174.7 1580.7 176.0 1596.0 177.3 C 1611.3 178.6 1634.3 180.6 1642.0 181.2" stroke="#F5F0E8" stroke-width="1" stroke-opacity="0.087" fill="none" stroke-linecap="round"/><path d="M -60.0 181.2 C -52.3 181.6 -29.3 183.1 -14.0 183.8 C 1.3 184.6 16.7 185.1 32.0 185.6 C 47.3 186.0 62.7 186.3 78.0 186.4 C 93.3 186.6 108.7 186.5 124.0 186.4 C 139.3 186.3 154.7 186.0 170.0 185.7 C 185.3 185.3 200.7 184.9 216.0 184.4 C 231.3 183.9 246.7 183.3 262.0 182.7 C 277.3 182.1 292.7 181.5 308.0 180.9 C 323.3 180.4 338.7 179.8 354.0 179.3 C 369.3 178.8 384.7 178.4 400.0 178.1 C 415.3 177.8 430.7 177.5 446.0 177.4 C 461.3 177.3 476.7 177.3 492.0 177.5 C 507.3 177.7 522.7 178.0 538.0 178.4 C 553.3 178.9 568.7 179.5 584.0 180.2 C 599.3 180.9 614.7 181.8 630.0 182.7 C 645.3 183.7 660.7 184.8 676.0 186.0 C 691.3 187.1 706.7 188.4 722.0 189.7 C 737.3 191.0 752.7 192.3 768.0 193.7 C 783.3 195.0 798.7 196.4 814.0 197.7 C 829.3 199.0 844.7 200.3 860.0 201.5 C 875.3 202.8 890.7 203.9 906.0 205.0 C 921.3 206.1 936.7 207.0 952.0 207.9 C 967.3 208.7 982.7 209.5 998.0 210.1 C 1013.3 210.7 1028.7 211.2 1044.0 211.6 C 1059.3 212.0 1074.7 212.3 1090.0 212.5 C 1105.3 212.6 1120.7 212.7 1136.0 212.7 C 1151.3 212.7 1166.7 212.6 1182.0 212.5 C 1197.3 212.4 1212.7 212.2 1228.0 212.0 C 1243.3 211.9 1258.7 211.6 1274.0 211.5 C 1289.3 211.4 1304.7 211.3 1320.0 211.2 C 1335.3 211.2 1350.7 211.2 1366.0 211.4 C 1381.3 211.5 1396.7 211.7 1412.0 212.1 C 1427.3 212.5 1442.7 213.0 1458.0 213.6 C 1473.3 214.2 1488.7 215.0 1504.0 215.9 C 1519.3 216.7 1534.7 217.8 1550.0 218.9 C 1565.3 220.1 1580.7 221.4 1596.0 222.7 C 1611.3 224.1 1634.3 226.4 1642.0 227.2" stroke="#F5F0E8" stroke-width="1" stroke-opacity="0.082" fill="none" stroke-linecap="round"/><path d="M -60.0 205.7 C -52.3 205.0 -29.3 202.6 -14.0 201.2 C 1.3 199.8 16.7 198.5 32.0 197.4 C 47.3 196.2 62.7 195.2 78.0 194.3 C 93.3 193.5 108.7 192.8 124.0 192.3 C 139.3 191.8 154.7 191.5 170.0 191.4 C 185.3 191.3 200.7 191.3 216.0 191.6 C 231.3 191.8 246.7 192.2 262.0 192.7 C 277.3 193.3 292.7 194.0 308.0 194.7 C 323.3 195.5 338.7 196.4 354.0 197.3 C 369.3 198.3 384.7 199.3 400.0 200.3 C 415.3 201.2 430.7 202.3 446.0 203.2 C 461.3 204.2 476.7 205.1 492.0 205.9 C 507.3 206.7 522.7 207.5 538.0 208.1 C 553.3 208.7 568.7 209.2 584.0 209.5 C 599.3 209.8 614.7 210.0 630.0 210.0 C 645.3 210.1 660.7 209.9 676.0 209.6 C 691.3 209.3 706.7 208.9 722.0 208.3 C 737.3 207.7 752.7 207.0 768.0 206.1 C 783.3 205.3 798.7 204.3 814.0 203.3 C 829.3 202.2 844.7 201.1 860.0 199.9 C 875.3 198.8 890.7 197.5 906.0 196.4 C 921.3 195.2 936.7 194.0 952.0 192.9 C 967.3 191.7 982.7 190.6 998.0 189.6 C 1013.3 188.7 1028.7 187.7 1044.0 187.0 C 1059.3 186.2 1074.7 185.5 1090.0 185.0 C 1105.3 184.5 1120.7 184.1 1136.0 183.8 C 1151.3 183.6 1166.7 183.5 1182.0 183.6 C 1197.3 183.6 1212.7 183.8 1228.0 184.1 C 1243.3 184.4 1258.7 184.9 1274.0 185.4 C 1289.3 185.9 1304.7 186.6 1320.0 187.3 C 1335.3 188.0 1350.7 188.7 1366.0 189.5 C 1381.3 190.3 1396.7 191.1 1412.0 191.8 C 1427.3 192.6 1442.7 193.4 1458.0 194.0 C 1473.3 194.7 1488.7 195.4 1504.0 195.9 C 1519.3 196.4 1534.7 196.8 1550.0 197.1 C 1565.3 197.4 1580.7 197.6 1596.0 197.7 C 1611.3 197.7 1634.3 197.4 1642.0 197.4" stroke="#F5F0E8" stroke-width="1" stroke-opacity="0.061" fill="none" stroke-linecap="round"/><path d="M -60.0 218.8 C -52.3 218.1 -29.3 215.7 -14.0 214.3 C 1.3 213.0 16.7 211.8 32.0 210.7 C 47.3 209.6 62.7 208.7 78.0 208.0 C 93.3 207.3 108.7 206.7 124.0 206.3 C 139.3 205.9 154.7 205.7 170.0 205.6 C 185.3 205.5 200.7 205.6 216.0 205.8 C 231.3 205.9 246.7 206.3 262.0 206.7 C 277.3 207.2 292.7 207.8 308.0 208.4 C 323.3 209.1 338.7 209.9 354.0 210.7 C 369.3 211.5 384.7 212.4 400.0 213.3 C 415.3 214.2 430.7 215.2 446.0 216.2 C 461.3 217.1 476.7 218.1 492.0 219.1 C 507.3 220.0 522.7 221.0 538.0 221.9 C 553.3 222.8 568.7 223.6 584.0 224.4 C 599.3 225.2 614.7 225.9 630.0 226.6 C 645.3 227.2 660.7 227.8 676.0 228.3 C 691.3 228.8 706.7 229.2 722.0 229.5 C 737.3 229.8 752.7 230.0 768.0 230.1 C 783.3 230.2 798.7 230.2 814.0 230.2 C 829.3 230.1 844.7 229.9 860.0 229.7 C 875.3 229.5 890.7 229.2 906.0 228.8 C 921.3 228.4 936.7 228.0 952.0 227.5 C 967.3 227.0 982.7 226.5 998.0 225.9 C 1013.3 225.3 1028.7 224.7 1044.0 224.1 C 1059.3 223.5 1074.7 222.8 1090.0 222.2 C 1105.3 221.6 1120.7 220.9 1136.0 220.3 C 1151.3 219.7 1166.7 219.0 1182.0 218.4 C 1197.3 217.8 1212.7 217.3 1228.0 216.7 C 1243.3 216.2 1258.7 215.7 1274.0 215.2 C 1289.3 214.7 1304.7 214.3 1320.0 213.8 C 1335.3 213.4 1350.7 213.0 1366.0 212.7 C 1381.3 212.3 1396.7 212.0 1412.0 211.7 C 1427.3 211.3 1442.7 211.0 1458.0 210.7 C 1473.3 210.5 1488.7 210.2 1504.0 209.9 C 1519.3 209.6 1534.7 209.3 1550.0 209.0 C 1565.3 208.7 1580.7 208.3 1596.0 208.0 C 1611.3 207.6 1634.3 206.9 1642.0 206.7" stroke="#F5F0E8" stroke-width="1.5" stroke-opacity="0.179" fill="none" stroke-linecap="round"/><path d="M -60.0 259.0 C -52.3 257.9 -29.3 254.3 -14.0 252.2 C 1.3 250.0 16.7 247.8 32.0 245.9 C 47.3 244.0 62.7 242.1 78.0 240.5 C 93.3 239.0 108.7 237.5 124.0 236.4 C 139.3 235.2 154.7 234.2 170.0 233.6 C 185.3 232.9 200.7 232.5 216.0 232.3 C 231.3 232.2 246.7 232.3 262.0 232.7 C 277.3 233.1 292.7 233.8 308.0 234.8 C 323.3 235.7 338.7 236.9 354.0 238.3 C 369.3 239.7 384.7 241.4 400.0 243.2 C 415.3 245.1 430.7 247.2 446.0 249.3 C 461.3 251.5 476.7 253.8 492.0 256.2 C 507.3 258.6 522.7 261.1 538.0 263.6 C 553.3 266.0 568.7 268.6 584.0 271.0 C 599.3 273.4 614.7 275.8 630.0 278.1 C 645.3 280.3 660.7 282.5 676.0 284.5 C 691.3 286.4 706.7 288.2 722.0 289.8 C 737.3 291.3 752.7 292.6 768.0 293.6 C 783.3 294.7 798.7 295.4 814.0 295.9 C 829.3 296.3 844.7 296.4 860.0 296.2 C 875.3 296.0 890.7 295.5 906.0 294.7 C 921.3 293.9 936.7 292.7 952.0 291.2 C 967.3 289.8 982.7 288.0 998.0 286.0 C 1013.3 284.0 1028.7 281.6 1044.0 279.2 C 1059.3 276.7 1074.7 273.9 1090.0 271.0 C 1105.3 268.1 1120.7 265.0 1136.0 261.9 C 1151.3 258.8 1166.7 255.5 1182.0 252.3 C 1197.3 249.1 1212.7 245.8 1228.0 242.6 C 1243.3 239.4 1258.7 236.2 1274.0 233.2 C 1289.3 230.2 1304.7 227.3 1320.0 224.6 C 1335.3 222.0 1350.7 219.5 1366.0 217.3 C 1381.3 215.0 1396.7 213.1 1412.0 211.4 C 1427.3 209.8 1442.7 208.4 1458.0 207.4 C 1473.3 206.3 1488.7 205.6 1504.0 205.3 C 1519.3 205.0 1534.7 205.0 1550.0 205.3 C 1565.3 205.6 1580.7 206.3 1596.0 207.3 C 1611.3 208.3 1634.3 210.6 1642.0 211.3" stroke="#F5F0E8" stroke-width="1" stroke-opacity="0.061" fill="none" stroke-linecap="round"/><path d="M -60.0 289.0 C -52.3 288.9 -29.3 288.5 -14.0 288.3 C 1.3 288.2 16.7 288.1 32.0 288.0 C 47.3 288.0 62.7 288.0 78.0 288.1 C 93.3 288.2 108.7 288.3 124.0 288.4 C 139.3 288.6 154.7 288.8 170.0 289.0 C 185.3 289.3 200.7 289.5 216.0 289.8 C 231.3 290.1 246.7 290.4 262.0 290.7 C 277.3 291.0 292.7 291.3 308.0 291.7 C 323.3 292.0 338.7 292.3 354.0 292.6 C 369.3 292.9 384.7 293.3 400.0 293.5 C 415.3 293.8 430.7 294.1 446.0 294.4 C 461.3 294.7 476.7 294.9 492.0 295.1 C 507.3 295.4 522.7 295.6 538.0 295.8 C 553.3 296.0 568.7 296.1 584.0 296.3 C 599.3 296.4 614.7 296.6 630.0 296.7 C 645.3 296.8 660.7 296.9 676.0 297.0 C 691.3 297.1 706.7 297.1 722.0 297.2 C 737.3 297.3 752.7 297.3 768.0 297.4 C 783.3 297.5 798.7 297.5 814.0 297.6 C 829.3 297.7 844.7 297.7 860.0 297.8 C 875.3 297.9 890.7 298.0 906.0 298.1 C 921.3 298.2 936.7 298.3 952.0 298.5 C 967.3 298.6 982.7 298.8 998.0 298.9 C 1013.3 299.1 1028.7 299.3 1044.0 299.6 C 1059.3 299.8 1074.7 300.0 1090.0 300.3 C 1105.3 300.6 1120.7 300.9 1136.0 301.2 C 1151.3 301.5 1166.7 301.8 1182.0 302.2 C 1197.3 302.5 1212.7 302.9 1228.0 303.2 C 1243.3 303.6 1258.7 304.0 1274.0 304.3 C 1289.3 304.7 1304.7 305.1 1320.0 305.4 C 1335.3 305.8 1350.7 306.1 1366.0 306.4 C 1381.3 306.8 1396.7 307.1 1412.0 307.3 C 1427.3 307.6 1442.7 307.9 1458.0 308.1 C 1473.3 308.3 1488.7 308.4 1504.0 308.6 C 1519.3 308.7 1534.7 308.7 1550.0 308.8 C 1565.3 308.8 1580.7 308.7 1596.0 308.6 C 1611.3 308.5 1634.3 308.2 1642.0 308.1" stroke="#F5F0E8" stroke-width="1" stroke-opacity="0.068" fill="none" stroke-linecap="round"/><path d="M -60.0 355.4 C -52.3 355.1 -29.3 354.1 -14.0 353.2 C 1.3 352.2 16.7 351.1 32.0 350.0 C 47.3 348.8 62.7 347.5 78.0 346.1 C 93.3 344.8 108.7 343.3 124.0 341.9 C 139.3 340.5 154.7 339.0 170.0 337.5 C 185.3 336.1 200.7 334.7 216.0 333.3 C 231.3 332.0 246.7 330.7 262.0 329.5 C 277.3 328.3 292.7 327.2 308.0 326.2 C 323.3 325.3 338.7 324.4 354.0 323.7 C 369.3 323.0 384.7 322.4 400.0 322.0 C 415.3 321.6 430.7 321.3 446.0 321.1 C 461.3 320.9 476.7 320.9 492.0 321.0 C 507.3 321.1 522.7 321.3 538.0 321.6 C 553.3 321.9 568.7 322.3 584.0 322.7 C 599.3 323.1 614.7 323.7 630.0 324.2 C 645.3 324.7 660.7 325.3 676.0 325.8 C 691.3 326.3 706.7 326.9 722.0 327.4 C 737.3 327.8 752.7 328.3 768.0 328.7 C 783.3 329.1 798.7 329.4 814.0 329.6 C 829.3 329.8 844.7 330.0 860.0 330.0 C 875.3 330.1 890.7 330.0 906.0 329.9 C 921.3 329.8 936.7 329.5 952.0 329.2 C 967.3 328.9 982.7 328.4 998.0 327.9 C 1013.3 327.4 1028.7 326.9 1044.0 326.3 C 1059.3 325.7 1074.7 325.0 1090.0 324.3 C 1105.3 323.6 1120.7 322.9 1136.0 322.2 C 1151.3 321.5 1166.7 320.8 1182.0 320.2 C 1197.3 319.6 1212.7 319.0 1228.0 318.5 C 1243.3 317.9 1258.7 317.5 1274.0 317.1 C 1289.3 316.8 1304.7 316.5 1320.0 316.4 C 1335.3 316.3 1350.7 316.2 1366.0 316.3 C 1381.3 316.4 1396.7 316.6 1412.0 317.0 C 1427.3 317.3 1442.7 317.8 1458.0 318.3 C 1473.3 318.9 1488.7 319.6 1504.0 320.3 C 1519.3 321.1 1534.7 322.0 1550.0 322.9 C 1565.3 323.8 1580.7 324.7 1596.0 325.7 C 1611.3 326.7 1634.3 328.2 1642.0 328.7" stroke="#F5F0E8" stroke-width="1" stroke-opacity="0.062" fill="none" stroke-linecap="round"/><path d="M -60.0 385.5 C -52.3 384.2 -29.3 380.3 -14.0 377.3 C 1.3 374.4 16.7 371.2 32.0 368.0 C 47.3 364.8 62.7 361.4 78.0 358.1 C 93.3 354.9 108.7 351.5 124.0 348.4 C 139.3 345.3 154.7 342.3 170.0 339.5 C 185.3 336.8 200.7 334.2 216.0 332.0 C 231.3 329.8 246.7 327.9 262.0 326.4 C 277.3 324.8 292.7 323.7 308.0 322.9 C 323.3 322.1 338.7 321.7 354.0 321.6 C 369.3 321.6 384.7 321.9 400.0 322.5 C 415.3 323.1 430.7 324.1 446.0 325.3 C 461.3 326.4 476.7 327.9 492.0 329.4 C 507.3 330.9 522.7 332.7 538.0 334.4 C 553.3 336.1 568.7 337.9 584.0 339.6 C 599.3 341.3 614.7 342.9 630.0 344.4 C 645.3 345.8 660.7 347.2 676.0 348.2 C 691.3 349.3 706.7 350.2 722.0 350.7 C 737.3 351.3 752.7 351.6 768.0 351.6 C 783.3 351.5 798.7 351.2 814.0 350.6 C 829.3 350.0 844.7 349.1 860.0 348.0 C 875.3 346.8 890.7 345.4 906.0 343.8 C 921.3 342.3 936.7 340.5 952.0 338.6 C 967.3 336.7 982.7 334.7 998.0 332.6 C 1013.3 330.6 1028.7 328.5 1044.0 326.4 C 1059.3 324.4 1074.7 322.3 1090.0 320.4 C 1105.3 318.5 1120.7 316.7 1136.0 315.0 C 1151.3 313.4 1166.7 311.8 1182.0 310.4 C 1197.3 309.1 1212.7 307.9 1228.0 306.8 C 1243.3 305.8 1258.7 305.0 1274.0 304.2 C 1289.3 303.5 1304.7 303.0 1320.0 302.5 C 1335.3 302.0 1350.7 301.7 1366.0 301.3 C 1381.3 301.0 1396.7 300.8 1412.0 300.5 C 1427.3 300.2 1442.7 299.9 1458.0 299.6 C 1473.3 299.2 1488.7 298.9 1504.0 298.3 C 1519.3 297.8 1534.7 297.2 1550.0 296.4 C 1565.3 295.6 1580.7 294.7 1596.0 293.7 C 1611.3 292.6 1634.3 290.7 1642.0 290.1" stroke="#F5F0E8" stroke-width="1.5" stroke-opacity="0.251" fill="none" stroke-linecap="round"/><path d="M -60.0 377.7 C -52.3 378.5 -29.3 380.9 -14.0 382.6 C 1.3 384.3 16.7 386.0 32.0 387.7 C 47.3 389.4 62.7 391.1 78.0 392.8 C 93.3 394.4 108.7 396.1 124.0 397.6 C 139.3 399.2 154.7 400.7 170.0 402.1 C 185.3 403.5 200.7 404.8 216.0 406.0 C 231.3 407.2 246.7 408.3 262.0 409.3 C 277.3 410.3 292.7 411.1 308.0 411.9 C 323.3 412.6 338.7 413.2 354.0 413.6 C 369.3 414.1 384.7 414.4 400.0 414.7 C 415.3 414.9 430.7 415.0 446.0 414.9 C 461.3 414.9 476.7 414.8 492.0 414.6 C 507.3 414.4 522.7 414.1 538.0 413.7 C 553.3 413.4 568.7 412.9 584.0 412.5 C 599.3 412.0 614.7 411.5 630.0 411.0 C 645.3 410.5 660.7 410.0 676.0 409.5 C 691.3 409.1 706.7 408.6 722.0 408.2 C 737.3 407.8 752.7 407.4 768.0 407.2 C 783.3 406.9 798.7 406.7 814.0 406.6 C 829.3 406.5 844.7 406.5 860.0 406.6 C 875.3 406.8 890.7 407.0 906.0 407.4 C 921.3 407.8 936.7 408.3 952.0 408.9 C 967.3 409.6 982.7 410.4 998.0 411.3 C 1013.3 412.2 1028.7 413.2 1044.0 414.4 C 1059.3 415.6 1074.7 416.9 1090.0 418.3 C 1105.3 419.7 1120.7 421.2 1136.0 422.8 C 1151.3 424.4 1166.7 426.1 1182.0 427.8 C 1197.3 429.5 1212.7 431.3 1228.0 433.1 C 1243.3 434.9 1258.7 436.8 1274.0 438.6 C 1289.3 440.4 1304.7 442.3 1320.0 444.1 C 1335.3 445.8 1350.7 447.6 1366.0 449.2 C 1381.3 450.9 1396.7 452.5 1412.0 454.0 C 1427.3 455.4 1442.7 456.8 1458.0 458.0 C 1473.3 459.2 1488.7 460.3 1504.0 461.3 C 1519.3 462.2 1534.7 463.0 1550.0 463.5 C 1565.3 464.1 1580.7 464.5 1596.0 464.7 C 1611.3 465.0 1634.3 464.8 1642.0 464.8" stroke="#F5F0E8" stroke-width="1" stroke-opacity="0.047" fill="none" stroke-linecap="round"/><path d="M -60.0 436.2 C -52.3 436.4 -29.3 437.0 -14.0 437.3 C 1.3 437.7 16.7 437.9 32.0 438.0 C 47.3 438.2 62.7 438.3 78.0 438.3 C 93.3 438.3 108.7 438.3 124.0 438.2 C 139.3 438.1 154.7 438.0 170.0 437.8 C 185.3 437.7 200.7 437.5 216.0 437.3 C 231.3 437.1 246.7 436.8 262.0 436.6 C 277.3 436.5 292.7 436.2 308.0 436.1 C 323.3 435.9 338.7 435.8 354.0 435.7 C 369.3 435.6 384.7 435.6 400.0 435.6 C 415.3 435.6 430.7 435.7 446.0 435.9 C 461.3 436.0 476.7 436.3 492.0 436.6 C 507.3 436.9 522.7 437.3 538.0 437.8 C 553.3 438.3 568.7 438.8 584.0 439.4 C 599.3 440.1 614.7 440.8 630.0 441.6 C 645.3 442.3 660.7 443.2 676.0 444.1 C 691.3 445.0 706.7 445.9 722.0 446.9 C 737.3 447.9 752.7 448.9 768.0 449.9 C 783.3 450.9 798.7 451.9 814.0 452.9 C 829.3 453.9 844.7 455.0 860.0 455.9 C 875.3 456.8 890.7 457.8 906.0 458.6 C 921.3 459.5 936.7 460.3 952.0 460.9 C 967.3 461.6 982.7 462.2 998.0 462.7 C 1013.3 463.2 1028.7 463.6 1044.0 463.9 C 1059.3 464.2 1074.7 464.3 1090.0 464.4 C 1105.3 464.4 1120.7 464.3 1136.0 464.1 C 1151.3 463.8 1166.7 463.5 1182.0 463.0 C 1197.3 462.5 1212.7 461.9 1228.0 461.1 C 1243.3 460.4 1258.7 459.5 1274.0 458.6 C 1289.3 457.7 1304.7 456.6 1320.0 455.5 C 1335.3 454.4 1350.7 453.2 1366.0 452.0 C 1381.3 450.8 1396.7 449.5 1412.0 448.2 C 1427.3 447.0 1442.7 445.7 1458.0 444.4 C 1473.3 443.2 1488.7 441.9 1504.0 440.7 C 1519.3 439.5 1534.7 438.4 1550.0 437.4 C 1565.3 436.3 1580.7 435.4 1596.0 434.5 C 1611.3 433.7 1634.3 432.8 1642.0 432.4" stroke="#F5F0E8" stroke-width="1" stroke-opacity="0.083" fill="none" stroke-linecap="round"/><path d="M -60.0 470.0 C -52.3 469.8 -29.3 469.1 -14.0 468.6 C 1.3 468.1 16.7 467.6 32.0 467.0 C 47.3 466.5 62.7 465.9 78.0 465.4 C 93.3 464.8 108.7 464.2 124.0 463.6 C 139.3 463.0 154.7 462.4 170.0 461.8 C 185.3 461.1 200.7 460.5 216.0 459.8 C 231.3 459.1 246.7 458.5 262.0 457.8 C 277.3 457.1 292.7 456.4 308.0 455.7 C 323.3 455.0 338.7 454.2 354.0 453.5 C 369.3 452.8 384.7 452.1 400.0 451.3 C 415.3 450.6 430.7 449.9 446.0 449.1 C 461.3 448.4 476.7 447.6 492.0 446.9 C 507.3 446.2 522.7 445.5 538.0 444.8 C 553.3 444.0 568.7 443.3 584.0 442.6 C 599.3 441.9 614.7 441.3 630.0 440.6 C 645.3 439.9 660.7 439.3 676.0 438.7 C 691.3 438.1 706.7 437.5 722.0 436.9 C 737.3 436.3 752.7 435.8 768.0 435.3 C 783.3 434.8 798.7 434.3 814.0 433.8 C 829.3 433.4 844.7 433.0 860.0 432.6 C 875.3 432.2 890.7 431.8 906.0 431.5 C 921.3 431.2 936.7 431.0 952.0 430.7 C 967.3 430.5 982.7 430.3 998.0 430.2 C 1013.3 430.0 1028.7 429.9 1044.0 429.9 C 1059.3 429.8 1074.7 429.8 1090.0 429.8 C 1105.3 429.8 1120.7 429.8 1136.0 429.9 C 1151.3 430.0 1166.7 430.2 1182.0 430.3 C 1197.3 430.5 1212.7 430.7 1228.0 430.9 C 1243.3 431.2 1258.7 431.4 1274.0 431.7 C 1289.3 432.0 1304.7 432.3 1320.0 432.7 C 1335.3 433.0 1350.7 433.4 1366.0 433.8 C 1381.3 434.2 1396.7 434.6 1412.0 435.0 C 1427.3 435.5 1442.7 435.9 1458.0 436.3 C 1473.3 436.8 1488.7 437.2 1504.0 437.7 C 1519.3 438.2 1534.7 438.6 1550.0 439.1 C 1565.3 439.5 1580.7 440.0 1596.0 440.4 C 1611.3 440.8 1634.3 441.5 1642.0 441.7" stroke="#F5F0E8" stroke-width="1" stroke-opacity="0.070" fill="none" stroke-linecap="round"/><path d="M -60.0 538.8 C -52.3 539.6 -29.3 542.5 -14.0 543.5 C 1.3 544.5 16.7 544.9 32.0 544.7 C 47.3 544.5 62.7 543.6 78.0 542.3 C 93.3 541.0 108.7 539.0 124.0 536.7 C 139.3 534.4 154.7 531.5 170.0 528.4 C 185.3 525.4 200.7 521.9 216.0 518.4 C 231.3 514.9 246.7 511.1 262.0 507.6 C 277.3 504.0 292.7 500.3 308.0 496.9 C 323.3 493.6 338.7 490.3 354.0 487.5 C 369.3 484.8 384.7 482.2 400.0 480.3 C 415.3 478.3 430.7 476.8 446.0 475.8 C 461.3 474.9 476.7 474.5 492.0 474.7 C 507.3 474.9 522.7 475.6 538.0 476.9 C 553.3 478.3 568.7 480.2 584.0 482.5 C 599.3 484.8 614.7 487.8 630.0 490.9 C 645.3 494.1 660.7 497.7 676.0 501.4 C 691.3 505.2 706.7 509.3 722.0 513.2 C 737.3 517.2 752.7 521.4 768.0 525.2 C 783.3 529.1 798.7 533.0 814.0 536.5 C 829.3 539.9 844.7 543.2 860.0 545.9 C 875.3 548.6 890.7 551.0 906.0 552.7 C 921.3 554.5 936.7 555.7 952.0 556.4 C 967.3 557.0 982.7 557.1 998.0 556.5 C 1013.3 556.0 1028.7 554.8 1044.0 553.1 C 1059.3 551.4 1074.7 549.1 1090.0 546.4 C 1105.3 543.7 1120.7 540.5 1136.0 537.0 C 1151.3 533.6 1166.7 529.7 1182.0 525.8 C 1197.3 521.8 1212.7 517.6 1228.0 513.5 C 1243.3 509.5 1258.7 505.3 1274.0 501.4 C 1289.3 497.6 1304.7 493.8 1320.0 490.4 C 1335.3 487.1 1350.7 484.0 1366.0 481.5 C 1381.3 479.0 1396.7 476.9 1412.0 475.5 C 1427.3 474.0 1442.7 473.0 1458.0 472.7 C 1473.3 472.4 1488.7 472.8 1504.0 473.7 C 1519.3 474.5 1534.7 476.1 1550.0 478.1 C 1565.3 480.2 1580.7 482.8 1596.0 485.8 C 1611.3 488.8 1634.3 494.4 1642.0 496.2" stroke="#F5F0E8" stroke-width="1.5" stroke-opacity="0.187" fill="none" stroke-linecap="round"/><path d="M -60.0 572.1 C -52.3 571.7 -29.3 570.4 -14.0 569.3 C 1.3 568.3 16.7 567.1 32.0 565.9 C 47.3 564.6 62.7 563.2 78.0 561.8 C 93.3 560.3 108.7 558.8 124.0 557.1 C 139.3 555.5 154.7 553.8 170.0 552.0 C 185.3 550.3 200.7 548.4 216.0 546.5 C 231.3 544.6 246.7 542.7 262.0 540.7 C 277.3 538.8 292.7 536.8 308.0 534.8 C 323.3 532.7 338.7 530.7 354.0 528.7 C 369.3 526.7 384.7 524.7 400.0 522.7 C 415.3 520.7 430.7 518.7 446.0 516.8 C 461.3 514.8 476.7 512.9 492.0 511.1 C 507.3 509.3 522.7 507.5 538.0 505.8 C 553.3 504.1 568.7 502.5 584.0 501.0 C 599.3 499.4 614.7 498.0 630.0 496.6 C 645.3 495.3 660.7 494.0 676.0 492.9 C 691.3 491.8 706.7 490.8 722.0 489.9 C 737.3 489.0 752.7 488.3 768.0 487.6 C 783.3 487.0 798.7 486.5 814.0 486.2 C 829.3 485.8 844.7 485.6 860.0 485.5 C 875.3 485.5 890.7 485.5 906.0 485.7 C 921.3 485.9 936.7 486.3 952.0 486.8 C 967.3 487.3 982.7 487.9 998.0 488.7 C 1013.3 489.5 1028.7 490.4 1044.0 491.5 C 1059.3 492.5 1074.7 493.7 1090.0 495.0 C 1105.3 496.3 1120.7 497.7 1136.0 499.2 C 1151.3 500.8 1166.7 502.4 1182.0 504.1 C 1197.3 505.9 1212.7 507.7 1228.0 509.6 C 1243.3 511.6 1258.7 513.6 1274.0 515.7 C 1289.3 517.7 1304.7 519.9 1320.0 522.1 C 1335.3 524.2 1350.7 526.5 1366.0 528.8 C 1381.3 531.0 1396.7 533.4 1412.0 535.7 C 1427.3 538.0 1442.7 540.3 1458.0 542.7 C 1473.3 545.0 1488.7 547.3 1504.0 549.6 C 1519.3 551.9 1534.7 554.2 1550.0 556.4 C 1565.3 558.6 1580.7 560.8 1596.0 562.9 C 1611.3 565.0 1634.3 568.0 1642.0 569.0" stroke="#F5F0E8" stroke-width="1" stroke-opacity="0.088" fill="none" stroke-linecap="round"/><path d="M -60.0 576.8 C -52.3 575.3 -29.3 570.8 -14.0 567.7 C 1.3 564.5 16.7 561.2 32.0 558.0 C 47.3 554.8 62.7 551.5 78.0 548.5 C 93.3 545.4 108.7 542.4 124.0 539.8 C 139.3 537.1 154.7 534.6 170.0 532.6 C 185.3 530.5 200.7 528.7 216.0 527.4 C 231.3 526.1 246.7 525.1 262.0 524.6 C 277.3 524.1 292.7 524.0 308.0 524.4 C 323.3 524.8 338.7 525.7 354.0 526.9 C 369.3 528.2 384.7 529.9 400.0 532.0 C 415.3 534.0 430.7 536.5 446.0 539.2 C 461.3 541.9 476.7 545.0 492.0 548.2 C 507.3 551.3 522.7 554.8 538.0 558.2 C 553.3 561.6 568.7 565.3 584.0 568.7 C 599.3 572.1 614.7 575.6 630.0 578.8 C 645.3 582.1 660.7 585.2 676.0 588.0 C 691.3 590.8 706.7 593.3 722.0 595.5 C 737.3 597.6 752.7 599.5 768.0 600.9 C 783.3 602.2 798.7 603.2 814.0 603.7 C 829.3 604.3 844.7 604.3 860.0 603.9 C 875.3 603.6 890.7 602.7 906.0 601.5 C 921.3 600.2 936.7 598.5 952.0 596.5 C 967.3 594.5 982.7 592.1 998.0 589.5 C 1013.3 586.9 1028.7 583.9 1044.0 580.8 C 1059.3 577.8 1074.7 574.4 1090.0 571.1 C 1105.3 567.9 1120.7 564.4 1136.0 561.1 C 1151.3 557.8 1166.7 554.5 1182.0 551.4 C 1197.3 548.3 1212.7 545.3 1228.0 542.6 C 1243.3 539.9 1258.7 537.4 1274.0 535.3 C 1289.3 533.1 1304.7 531.3 1320.0 529.8 C 1335.3 528.3 1350.7 527.2 1366.0 526.5 C 1381.3 525.8 1396.7 525.4 1412.0 525.4 C 1427.3 525.5 1442.7 525.9 1458.0 526.6 C 1473.3 527.3 1488.7 528.4 1504.0 529.7 C 1519.3 531.1 1534.7 532.7 1550.0 534.5 C 1565.3 536.3 1580.7 538.4 1596.0 540.6 C 1611.3 542.7 1634.3 546.2 1642.0 547.3" stroke="#F5F0E8" stroke-width="1" stroke-opacity="0.081" fill="none" stroke-linecap="round"/><path d="M -60.0 590.4 C -52.3 589.7 -29.3 587.8 -14.0 586.4 C 1.3 585.1 16.7 583.7 32.0 582.3 C 47.3 580.9 62.7 579.5 78.0 578.2 C 93.3 576.8 108.7 575.5 124.0 574.2 C 139.3 573.0 154.7 571.7 170.0 570.6 C 185.3 569.5 200.7 568.5 216.0 567.6 C 231.3 566.6 246.7 565.8 262.0 565.2 C 277.3 564.6 292.7 564.0 308.0 563.7 C 323.3 563.4 338.7 563.2 354.0 563.3 C 369.3 563.3 384.7 563.5 400.0 563.9 C 415.3 564.3 430.7 564.9 446.0 565.7 C 461.3 566.5 476.7 567.5 492.0 568.7 C 507.3 569.8 522.7 571.2 538.0 572.7 C 553.3 574.3 568.7 576.0 584.0 577.9 C 599.3 579.7 614.7 581.8 630.0 583.9 C 645.3 586.0 660.7 588.3 676.0 590.7 C 691.3 593.0 706.7 595.5 722.0 597.9 C 737.3 600.4 752.7 603.0 768.0 605.5 C 783.3 608.0 798.7 610.6 814.0 613.1 C 829.3 615.6 844.7 618.1 860.0 620.4 C 875.3 622.8 890.7 625.2 906.0 627.4 C 921.3 629.5 936.7 631.7 952.0 633.6 C 967.3 635.5 982.7 637.3 998.0 638.9 C 1013.3 640.6 1028.7 642.0 1044.0 643.3 C 1059.3 644.5 1074.7 645.6 1090.0 646.4 C 1105.3 647.3 1120.7 648.0 1136.0 648.4 C 1151.3 648.9 1166.7 649.1 1182.0 649.2 C 1197.3 649.2 1212.7 649.1 1228.0 648.8 C 1243.3 648.5 1258.7 648.0 1274.0 647.3 C 1289.3 646.7 1304.7 645.9 1320.0 644.9 C 1335.3 644.0 1350.7 642.9 1366.0 641.8 C 1381.3 640.7 1396.7 639.4 1412.0 638.1 C 1427.3 636.9 1442.7 635.5 1458.0 634.1 C 1473.3 632.8 1488.7 631.4 1504.0 630.1 C 1519.3 628.7 1534.7 627.4 1550.0 626.1 C 1565.3 624.9 1580.7 623.7 1596.0 622.6 C 1611.3 621.5 1634.3 620.0 1642.0 619.5" stroke="#F5F0E8" stroke-width="1" stroke-opacity="0.070" fill="none" stroke-linecap="round"/><path d="M -60.0 624.0 C -52.3 624.0 -29.3 623.9 -14.0 623.9 C 1.3 624.0 16.7 624.0 32.0 624.2 C 47.3 624.4 62.7 624.7 78.0 625.1 C 93.3 625.4 108.7 625.9 124.0 626.5 C 139.3 627.1 154.7 627.8 170.0 628.6 C 185.3 629.4 200.7 630.4 216.0 631.4 C 231.3 632.4 246.7 633.5 262.0 634.7 C 277.3 635.8 292.7 637.1 308.0 638.4 C 323.3 639.6 338.7 641.0 354.0 642.3 C 369.3 643.6 384.7 644.9 400.0 646.2 C 415.3 647.5 430.7 648.8 446.0 649.9 C 461.3 651.1 476.7 652.2 492.0 653.2 C 507.3 654.2 522.7 655.1 538.0 655.8 C 553.3 656.5 568.7 657.2 584.0 657.6 C 599.3 658.1 614.7 658.4 630.0 658.5 C 645.3 658.7 660.7 658.7 676.0 658.5 C 691.3 658.4 706.7 658.0 722.0 657.6 C 737.3 657.2 752.7 656.6 768.0 655.9 C 783.3 655.2 798.7 654.4 814.0 653.6 C 829.3 652.7 844.7 651.8 860.0 650.9 C 875.3 649.9 890.7 648.9 906.0 648.0 C 921.3 647.1 936.7 646.2 952.0 645.4 C 967.3 644.6 982.7 643.8 998.0 643.2 C 1013.3 642.6 1028.7 642.1 1044.0 641.8 C 1059.3 641.5 1074.7 641.3 1090.0 641.3 C 1105.3 641.4 1120.7 641.6 1136.0 642.0 C 1151.3 642.4 1166.7 643.1 1182.0 643.9 C 1197.3 644.7 1212.7 645.8 1228.0 647.0 C 1243.3 648.3 1258.7 649.8 1274.0 651.4 C 1289.3 653.0 1304.7 654.8 1320.0 656.8 C 1335.3 658.7 1350.7 660.8 1366.0 663.0 C 1381.3 665.2 1396.7 667.5 1412.0 669.8 C 1427.3 672.1 1442.7 674.5 1458.0 676.9 C 1473.3 679.2 1488.7 681.6 1504.0 683.9 C 1519.3 686.2 1534.7 688.5 1550.0 690.6 C 1565.3 692.8 1580.7 694.9 1596.0 696.8 C 1611.3 698.7 1634.3 701.2 1642.0 702.1" stroke="#F5F0E8" stroke-width="1.5" stroke-opacity="0.269" fill="none" stroke-linecap="round"/><path d="M -60.0 665.3 C -52.3 665.3 -29.3 665.4 -14.0 665.5 C 1.3 665.5 16.7 665.5 32.0 665.5 C 47.3 665.5 62.7 665.5 78.0 665.5 C 93.3 665.5 108.7 665.5 124.0 665.6 C 139.3 665.7 154.7 665.7 170.0 665.9 C 185.3 666.0 200.7 666.2 216.0 666.4 C 231.3 666.6 246.7 666.9 262.0 667.3 C 277.3 667.6 292.7 668.0 308.0 668.5 C 323.3 668.9 338.7 669.5 354.0 670.1 C 369.3 670.7 384.7 671.3 400.0 672.0 C 415.3 672.7 430.7 673.5 446.0 674.3 C 461.3 675.1 476.7 676.0 492.0 676.9 C 507.3 677.8 522.7 678.8 538.0 679.7 C 553.3 680.7 568.7 681.7 584.0 682.7 C 599.3 683.7 614.7 684.7 630.0 685.7 C 645.3 686.7 660.7 687.7 676.0 688.7 C 691.3 689.7 706.7 690.6 722.0 691.6 C 737.3 692.5 752.7 693.4 768.0 694.2 C 783.3 695.0 798.7 695.8 814.0 696.5 C 829.3 697.3 844.7 698.0 860.0 698.6 C 875.3 699.2 890.7 699.7 906.0 700.2 C 921.3 700.7 936.7 701.1 952.0 701.4 C 967.3 701.7 982.7 702.0 998.0 702.2 C 1013.3 702.5 1028.7 702.6 1044.0 702.7 C 1059.3 702.8 1074.7 702.9 1090.0 702.9 C 1105.3 702.9 1120.7 702.9 1136.0 702.9 C 1151.3 702.9 1166.7 702.8 1182.0 702.8 C 1197.3 702.8 1212.7 702.7 1228.0 702.7 C 1243.3 702.7 1258.7 702.7 1274.0 702.7 C 1289.3 702.7 1304.7 702.8 1320.0 702.9 C 1335.3 703.1 1350.7 703.3 1366.0 703.5 C 1381.3 703.8 1396.7 704.1 1412.0 704.5 C 1427.3 704.9 1442.7 705.4 1458.0 705.9 C 1473.3 706.5 1488.7 707.2 1504.0 707.9 C 1519.3 708.6 1534.7 709.4 1550.0 710.3 C 1565.3 711.2 1580.7 712.1 1596.0 713.1 C 1611.3 714.1 1634.3 715.8 1642.0 716.3" stroke="#F5F0E8" stroke-width="1" stroke-opacity="0.079" fill="none" stroke-linecap="round"/><path d="M -60.0 676.4 C -52.3 676.9 -29.3 678.4 -14.0 679.5 C 1.3 680.7 16.7 682.0 32.0 683.4 C 47.3 684.8 62.7 686.3 78.0 687.9 C 93.3 689.5 108.7 691.1 124.0 692.8 C 139.3 694.5 154.7 696.3 170.0 698.1 C 185.3 699.8 200.7 701.7 216.0 703.4 C 231.3 705.2 246.7 707.0 262.0 708.7 C 277.3 710.4 292.7 712.1 308.0 713.7 C 323.3 715.2 338.7 716.8 354.0 718.2 C 369.3 719.6 384.7 720.9 400.0 722.1 C 415.3 723.2 430.7 724.3 446.0 725.2 C 461.3 726.1 476.7 726.8 492.0 727.4 C 507.3 727.9 522.7 728.3 538.0 728.6 C 553.3 728.8 568.7 728.8 584.0 728.7 C 599.3 728.6 614.7 728.3 630.0 727.8 C 645.3 727.3 660.7 726.6 676.0 725.8 C 691.3 725.0 706.7 724.0 722.0 722.8 C 737.3 721.7 752.7 720.4 768.0 719.0 C 783.3 717.6 798.7 716.0 814.0 714.4 C 829.3 712.8 844.7 711.1 860.0 709.3 C 875.3 707.5 890.7 705.6 906.0 703.7 C 921.3 701.9 936.7 699.9 952.0 698.0 C 967.3 696.1 982.7 694.2 998.0 692.4 C 1013.3 690.5 1028.7 688.7 1044.0 687.0 C 1059.3 685.2 1074.7 683.6 1090.0 682.0 C 1105.3 680.5 1120.7 679.1 1136.0 677.8 C 1151.3 676.5 1166.7 675.4 1182.0 674.4 C 1197.3 673.5 1212.7 672.7 1228.0 672.0 C 1243.3 671.4 1258.7 671.0 1274.0 670.8 C 1289.3 670.5 1304.7 670.5 1320.0 670.7 C 1335.3 670.9 1350.7 671.2 1366.0 671.8 C 1381.3 672.4 1396.7 673.2 1412.0 674.1 C 1427.3 675.1 1442.7 676.2 1458.0 677.6 C 1473.3 678.9 1488.7 680.4 1504.0 682.0 C 1519.3 683.7 1534.7 685.5 1550.0 687.4 C 1565.3 689.3 1580.7 691.3 1596.0 693.4 C 1611.3 695.5 1634.3 698.9 1642.0 700.0" stroke="#F5F0E8" stroke-width="1" stroke-opacity="0.084" fill="none" stroke-linecap="round"/><path d="M -60.0 746.2 C -52.3 746.4 -29.3 747.3 -14.0 747.7 C 1.3 748.2 16.7 748.7 32.0 749.1 C 47.3 749.5 62.7 749.8 78.0 750.1 C 93.3 750.5 108.7 750.7 124.0 751.0 C 139.3 751.2 154.7 751.4 170.0 751.6 C 185.3 751.7 200.7 751.8 216.0 751.9 C 231.3 752.0 246.7 752.0 262.0 752.0 C 277.3 751.9 292.7 751.8 308.0 751.7 C 323.3 751.5 338.7 751.3 354.0 751.1 C 369.3 750.8 384.7 750.4 400.0 750.0 C 415.3 749.5 430.7 749.0 446.0 748.4 C 461.3 747.8 476.7 747.1 492.0 746.3 C 507.3 745.5 522.7 744.6 538.0 743.6 C 553.3 742.6 568.7 741.5 584.0 740.2 C 599.3 739.0 614.7 737.7 630.0 736.3 C 645.3 734.9 660.7 733.4 676.0 731.9 C 691.3 730.4 706.7 728.7 722.0 727.1 C 737.3 725.4 752.7 723.7 768.0 722.0 C 783.3 720.2 798.7 718.5 814.0 716.8 C 829.3 715.1 844.7 713.4 860.0 711.8 C 875.3 710.2 890.7 708.7 906.0 707.3 C 921.3 705.9 936.7 704.6 952.0 703.4 C 967.3 702.3 982.7 701.3 998.0 700.6 C 1013.3 699.8 1028.7 699.2 1044.0 698.9 C 1059.3 698.6 1074.7 698.5 1090.0 698.7 C 1105.3 698.8 1120.7 699.2 1136.0 699.9 C 1151.3 700.6 1166.7 701.5 1182.0 702.7 C 1197.3 703.9 1212.7 705.4 1228.0 707.1 C 1243.3 708.8 1258.7 710.8 1274.0 712.9 C 1289.3 715.0 1304.7 717.4 1320.0 719.9 C 1335.3 722.4 1350.7 725.1 1366.0 727.9 C 1381.3 730.7 1396.7 733.6 1412.0 736.5 C 1427.3 739.3 1442.7 742.3 1458.0 745.2 C 1473.3 748.1 1488.7 751.0 1504.0 753.8 C 1519.3 756.6 1534.7 759.3 1550.0 761.8 C 1565.3 764.3 1580.7 766.6 1596.0 768.7 C 1611.3 770.8 1634.3 773.5 1642.0 774.4" stroke="#F5F0E8" stroke-width="1" stroke-opacity="0.083" fill="none" stroke-linecap="round"/><path d="M -60.0 776.5 C -52.3 776.1 -29.3 775.0 -14.0 774.3 C 1.3 773.5 16.7 772.6 32.0 771.9 C 47.3 771.1 62.7 770.3 78.0 769.6 C 93.3 768.9 108.7 768.2 124.0 767.7 C 139.3 767.1 154.7 766.6 170.0 766.2 C 185.3 765.8 200.7 765.5 216.0 765.3 C 231.3 765.1 246.7 765.0 262.0 764.9 C 277.3 764.9 292.7 764.9 308.0 765.0 C 323.3 765.1 338.7 765.3 354.0 765.5 C 369.3 765.7 384.7 765.9 400.0 766.2 C 415.3 766.4 430.7 766.7 446.0 767.0 C 461.3 767.3 476.7 767.6 492.0 767.9 C 507.3 768.2 522.7 768.4 538.0 768.7 C 553.3 769.0 568.7 769.3 584.0 769.7 C 599.3 770.0 614.7 770.3 630.0 770.7 C 645.3 771.1 660.7 771.4 676.0 771.9 C 691.3 772.4 706.7 773.0 722.0 773.6 C 737.3 774.3 752.7 775.0 768.0 775.9 C 783.3 776.8 798.7 777.8 814.0 779.0 C 829.3 780.1 844.7 781.4 860.0 782.9 C 875.3 784.4 890.7 786.1 906.0 787.9 C 921.3 789.7 936.7 791.7 952.0 793.9 C 967.3 796.0 982.7 798.3 998.0 800.7 C 1013.3 803.1 1028.7 805.7 1044.0 808.3 C 1059.3 810.9 1074.7 813.6 1090.0 816.3 C 1105.3 819.0 1120.7 821.7 1136.0 824.3 C 1151.3 827.0 1166.7 829.6 1182.0 832.1 C 1197.3 834.5 1212.7 836.9 1228.0 839.1 C 1243.3 841.2 1258.7 843.3 1274.0 845.0 C 1289.3 846.7 1304.7 848.3 1320.0 849.5 C 1335.3 850.7 1350.7 851.7 1366.0 852.3 C 1381.3 853.0 1396.7 853.4 1412.0 853.4 C 1427.3 853.5 1442.7 853.2 1458.0 852.8 C 1473.3 852.3 1488.7 851.5 1504.0 850.5 C 1519.3 849.5 1534.7 848.2 1550.0 846.8 C 1565.3 845.5 1580.7 843.9 1596.0 842.2 C 1611.3 840.6 1634.3 837.9 1642.0 837.1" stroke="#F5F0E8" stroke-width="1.5" stroke-opacity="0.261" fill="none" stroke-linecap="round"/><path d="M -60.0 785.6 C -52.3 786.7 -29.3 790.2 -14.0 792.4 C 1.3 794.6 16.7 797.0 32.0 799.1 C 47.3 801.2 62.7 803.2 78.0 805.0 C 93.3 806.7 108.7 808.3 124.0 809.6 C 139.3 810.8 154.7 811.8 170.0 812.4 C 185.3 813.0 200.7 813.3 216.0 813.1 C 231.3 813.0 246.7 812.6 262.0 811.8 C 277.3 811.0 292.7 809.8 308.0 808.3 C 323.3 806.9 338.7 805.1 354.0 803.2 C 369.3 801.2 384.7 798.9 400.0 796.7 C 415.3 794.4 430.7 791.8 446.0 789.4 C 461.3 787.0 476.7 784.4 492.0 782.0 C 507.3 779.7 522.7 777.3 538.0 775.2 C 553.3 773.1 568.7 771.1 584.0 769.5 C 599.3 767.9 614.7 766.5 630.0 765.5 C 645.3 764.4 660.7 763.7 676.0 763.4 C 691.3 763.1 706.7 763.2 722.0 763.7 C 737.3 764.1 752.7 764.9 768.0 766.1 C 783.3 767.3 798.7 768.8 814.0 770.6 C 829.3 772.4 844.7 774.5 860.0 776.8 C 875.3 779.0 890.7 781.6 906.0 784.1 C 921.3 786.6 936.7 789.4 952.0 792.0 C 967.3 794.5 982.7 797.2 998.0 799.6 C 1013.3 802.0 1028.7 804.4 1044.0 806.4 C 1059.3 808.4 1074.7 810.2 1090.0 811.6 C 1105.3 813.0 1120.7 814.1 1136.0 814.8 C 1151.3 815.4 1166.7 815.7 1182.0 815.5 C 1197.3 815.3 1212.7 814.6 1228.0 813.5 C 1243.3 812.5 1258.7 810.9 1274.0 809.0 C 1289.3 807.0 1304.7 804.6 1320.0 802.0 C 1335.3 799.3 1350.7 796.2 1366.0 793.0 C 1381.3 789.8 1396.7 786.2 1412.0 782.7 C 1427.3 779.1 1442.7 775.3 1458.0 771.6 C 1473.3 767.9 1488.7 764.2 1504.0 760.7 C 1519.3 757.2 1534.7 753.7 1550.0 750.6 C 1565.3 747.5 1580.7 744.6 1596.0 742.1 C 1611.3 739.7 1634.3 736.9 1642.0 735.9" stroke="#F5F0E8" stroke-width="1" stroke-opacity="0.068" fill="none" stroke-linecap="round"/><path d="M -60.0 813.2 C -52.3 814.4 -29.3 818.1 -14.0 820.6 C 1.3 823.2 16.7 825.8 32.0 828.4 C 47.3 831.0 62.7 833.7 78.0 836.3 C 93.3 838.9 108.7 841.5 124.0 843.9 C 139.3 846.4 154.7 848.9 170.0 851.1 C 185.3 853.4 200.7 855.6 216.0 857.6 C 231.3 859.6 246.7 861.5 262.0 863.1 C 277.3 864.8 292.7 866.3 308.0 867.5 C 323.3 868.8 338.7 869.8 354.0 870.6 C 369.3 871.4 384.7 872.0 400.0 872.4 C 415.3 872.8 430.7 872.9 446.0 872.8 C 461.3 872.8 476.7 872.4 492.0 871.9 C 507.3 871.4 522.7 870.7 538.0 869.8 C 553.3 868.9 568.7 867.8 584.0 866.6 C 599.3 865.4 614.7 864.0 630.0 862.6 C 645.3 861.1 660.7 859.5 676.0 857.9 C 691.3 856.3 706.7 854.6 722.0 852.9 C 737.3 851.2 752.7 849.5 768.0 847.8 C 783.3 846.2 798.7 844.5 814.0 843.0 C 829.3 841.5 844.7 840.0 860.0 838.6 C 875.3 837.3 890.7 836.1 906.0 835.1 C 921.3 834.0 936.7 833.1 952.0 832.5 C 967.3 831.8 982.7 831.3 998.0 831.1 C 1013.3 830.8 1028.7 830.8 1044.0 831.0 C 1059.3 831.2 1074.7 831.6 1090.0 832.3 C 1105.3 832.9 1120.7 833.8 1136.0 834.9 C 1151.3 836.1 1166.7 837.4 1182.0 839.0 C 1197.3 840.6 1212.7 842.3 1228.0 844.3 C 1243.3 846.2 1258.7 848.4 1274.0 850.7 C 1289.3 852.9 1304.7 855.4 1320.0 857.9 C 1335.3 860.5 1350.7 863.1 1366.0 865.8 C 1381.3 868.5 1396.7 871.3 1412.0 874.1 C 1427.3 876.8 1442.7 879.6 1458.0 882.3 C 1473.3 885.1 1488.7 887.8 1504.0 890.4 C 1519.3 893.0 1534.7 895.5 1550.0 897.9 C 1565.3 900.3 1580.7 902.5 1596.0 904.6 C 1611.3 906.7 1634.3 909.4 1642.0 910.3" stroke="#F5F0E8" stroke-width="1" stroke-opacity="0.052" fill="none" stroke-linecap="round"/><path d="M -60.0 839.1 C -52.3 839.3 -29.3 839.8 -14.0 840.2 C 1.3 840.6 16.7 841.1 32.0 841.6 C 47.3 842.1 62.7 842.7 78.0 843.3 C 93.3 843.9 108.7 844.6 124.0 845.4 C 139.3 846.1 154.7 846.9 170.0 847.7 C 185.3 848.6 200.7 849.5 216.0 850.4 C 231.3 851.4 246.7 852.4 262.0 853.4 C 277.3 854.5 292.7 855.6 308.0 856.8 C 323.3 857.9 338.7 859.1 354.0 860.4 C 369.3 861.7 384.7 863.0 400.0 864.3 C 415.3 865.7 430.7 867.1 446.0 868.5 C 461.3 869.9 476.7 871.4 492.0 872.9 C 507.3 874.3 522.7 875.9 538.0 877.4 C 553.3 879.0 568.7 880.5 584.0 882.1 C 599.3 883.7 614.7 885.3 630.0 886.9 C 645.3 888.5 660.7 890.2 676.0 891.8 C 691.3 893.4 706.7 895.1 722.0 896.7 C 737.3 898.3 752.7 899.9 768.0 901.5 C 783.3 903.1 798.7 904.7 814.0 906.3 C 829.3 907.9 844.7 909.5 860.0 911.0 C 875.3 912.5 890.7 914.0 906.0 915.5 C 921.3 917.0 936.7 918.5 952.0 919.9 C 967.3 921.3 982.7 922.7 998.0 924.0 C 1013.3 925.3 1028.7 926.6 1044.0 927.9 C 1059.3 929.1 1074.7 930.3 1090.0 931.5 C 1105.3 932.6 1120.7 933.7 1136.0 934.8 C 1151.3 935.9 1166.7 936.9 1182.0 937.8 C 1197.3 938.8 1212.7 939.7 1228.0 940.6 C 1243.3 941.4 1258.7 942.2 1274.0 943.0 C 1289.3 943.7 1304.7 944.4 1320.0 945.1 C 1335.3 945.8 1350.7 946.4 1366.0 946.9 C 1381.3 947.5 1396.7 948.0 1412.0 948.5 C 1427.3 949.0 1442.7 949.4 1458.0 949.8 C 1473.3 950.2 1488.7 950.6 1504.0 950.9 C 1519.3 951.3 1534.7 951.5 1550.0 951.8 C 1565.3 952.1 1580.7 952.3 1596.0 952.5 C 1611.3 952.8 1634.3 953.0 1642.0 953.1" stroke="#F5F0E8" stroke-width="1" stroke-opacity="0.062" fill="none" stroke-linecap="round"/><path d="M -60.0 899.1 C -52.3 899.4 -29.3 900.2 -14.0 900.6 C 1.3 901.1 16.7 901.5 32.0 901.8 C 47.3 902.2 62.7 902.5 78.0 902.7 C 93.3 902.9 108.7 903.1 124.0 903.2 C 139.3 903.3 154.7 903.4 170.0 903.4 C 185.3 903.5 200.7 903.5 216.0 903.4 C 231.3 903.4 246.7 903.3 262.0 903.2 C 277.3 903.1 292.7 902.9 308.0 902.8 C 323.3 902.6 338.7 902.4 354.0 902.3 C 369.3 902.1 384.7 901.9 400.0 901.7 C 415.3 901.6 430.7 901.4 446.0 901.2 C 461.3 901.1 476.7 900.9 492.0 900.8 C 507.3 900.7 522.7 900.6 538.0 900.5 C 553.3 900.5 568.7 900.4 584.0 900.4 C 599.3 900.4 614.7 900.5 630.0 900.6 C 645.3 900.6 660.7 900.7 676.0 900.9 C 691.3 901.0 706.7 901.2 722.0 901.5 C 737.3 901.7 752.7 901.9 768.0 902.2 C 783.3 902.5 798.7 902.9 814.0 903.2 C 829.3 903.6 844.7 903.9 860.0 904.3 C 875.3 904.7 890.7 905.2 906.0 905.6 C 921.3 906.0 936.7 906.5 952.0 906.9 C 967.3 907.4 982.7 907.8 998.0 908.2 C 1013.3 908.7 1028.7 909.1 1044.0 909.6 C 1059.3 910.0 1074.7 910.4 1090.0 910.8 C 1105.3 911.1 1120.7 911.5 1136.0 911.8 C 1151.3 912.2 1166.7 912.5 1182.0 912.7 C 1197.3 913.0 1212.7 913.2 1228.0 913.4 C 1243.3 913.6 1258.7 913.7 1274.0 913.8 C 1289.3 913.9 1304.7 914.0 1320.0 914.0 C 1335.3 914.0 1350.7 914.0 1366.0 913.9 C 1381.3 913.9 1396.7 913.8 1412.0 913.6 C 1427.3 913.5 1442.7 913.3 1458.0 913.1 C 1473.3 912.9 1488.7 912.7 1504.0 912.4 C 1519.3 912.2 1534.7 911.9 1550.0 911.6 C 1565.3 911.3 1580.7 911.0 1596.0 910.7 C 1611.3 910.4 1634.3 909.9 1642.0 909.8" stroke="#F5F0E8" stroke-width="1.5" stroke-opacity="0.162" fill="none" stroke-linecap="round"/><path d="M -60.0 930.5 C -52.3 931.0 -29.3 932.7 -14.0 933.7 C 1.3 934.7 16.7 935.6 32.0 936.4 C 47.3 937.1 62.7 937.8 78.0 938.3 C 93.3 938.8 108.7 939.2 124.0 939.5 C 139.3 939.7 154.7 939.8 170.0 939.8 C 185.3 939.8 200.7 939.6 216.0 939.3 C 231.3 939.1 246.7 938.6 262.0 938.2 C 277.3 937.7 292.7 937.1 308.0 936.5 C 323.3 935.9 338.7 935.2 354.0 934.5 C 369.3 933.8 384.7 933.1 400.0 932.5 C 415.3 931.9 430.7 931.3 446.0 930.8 C 461.3 930.3 476.7 929.9 492.0 929.6 C 507.3 929.3 522.7 929.1 538.0 929.1 C 553.3 929.1 568.7 929.3 584.0 929.6 C 599.3 929.9 614.7 930.4 630.0 931.1 C 645.3 931.7 660.7 932.6 676.0 933.6 C 691.3 934.5 706.7 935.7 722.0 937.0 C 737.3 938.3 752.7 939.7 768.0 941.2 C 783.3 942.7 798.7 944.4 814.0 946.0 C 829.3 947.6 844.7 949.4 860.0 951.0 C 875.3 952.7 890.7 954.4 906.0 956.0 C 921.3 957.6 936.7 959.2 952.0 960.6 C 967.3 962.0 982.7 963.4 998.0 964.5 C 1013.3 965.7 1028.7 966.7 1044.0 967.5 C 1059.3 968.3 1074.7 969.0 1090.0 969.4 C 1105.3 969.9 1120.7 970.1 1136.0 970.2 C 1151.3 970.2 1166.7 970.0 1182.0 969.7 C 1197.3 969.4 1212.7 968.8 1228.0 968.2 C 1243.3 967.5 1258.7 966.7 1274.0 965.8 C 1289.3 964.9 1304.7 963.8 1320.0 962.8 C 1335.3 961.8 1350.7 960.6 1366.0 959.5 C 1381.3 958.5 1396.7 957.4 1412.0 956.4 C 1427.3 955.4 1442.7 954.4 1458.0 953.6 C 1473.3 952.8 1488.7 952.1 1504.0 951.7 C 1519.3 951.2 1534.7 950.8 1550.0 950.7 C 1565.3 950.6 1580.7 950.7 1596.0 951.0 C 1611.3 951.3 1634.3 952.3 1642.0 952.5" stroke="#F5F0E8" stroke-width="1" stroke-opacity="0.088" fill="none" stroke-linecap="round"/><path d="M -60.0 959.9 C -52.3 959.9 -29.3 960.0 -14.0 960.2 C 1.3 960.3 16.7 960.5 32.0 960.7 C 47.3 961.0 62.7 961.2 78.0 961.5 C 93.3 961.8 108.7 962.2 124.0 962.6 C 139.3 963.0 154.7 963.5 170.0 963.9 C 185.3 964.4 200.7 964.9 216.0 965.5 C 231.3 966.0 246.7 966.6 262.0 967.1 C 277.3 967.7 292.7 968.3 308.0 968.8 C 323.3 969.4 338.7 969.9 354.0 970.5 C 369.3 971.0 384.7 971.5 400.0 972.0 C 415.3 972.4 430.7 972.9 446.0 973.2 C 461.3 973.6 476.7 973.9 492.0 974.2 C 507.3 974.5 522.7 974.7 538.0 974.8 C 553.3 975.0 568.7 975.1 584.0 975.1 C 599.3 975.2 614.7 975.2 630.0 975.1 C 645.3 975.0 660.7 974.9 676.0 974.8 C 691.3 974.7 706.7 974.5 722.0 974.3 C 737.3 974.1 752.7 973.9 768.0 973.7 C 783.3 973.6 798.7 973.4 814.0 973.2 C 829.3 973.1 844.7 972.9 860.0 972.9 C 875.3 972.8 890.7 972.7 906.0 972.8 C 921.3 972.8 936.7 972.9 952.0 973.1 C 967.3 973.3 982.7 973.5 998.0 973.9 C 1013.3 974.2 1028.7 974.6 1044.0 975.2 C 1059.3 975.7 1074.7 976.3 1090.0 977.0 C 1105.3 977.7 1120.7 978.5 1136.0 979.3 C 1151.3 980.1 1166.7 981.1 1182.0 982.0 C 1197.3 983.0 1212.7 984.0 1228.0 985.1 C 1243.3 986.1 1258.7 987.2 1274.0 988.3 C 1289.3 989.4 1304.7 990.5 1320.0 991.6 C 1335.3 992.7 1350.7 993.7 1366.0 994.7 C 1381.3 995.7 1396.7 996.7 1412.0 997.6 C 1427.3 998.4 1442.7 999.3 1458.0 1000.0 C 1473.3 1000.7 1488.7 1001.3 1504.0 1001.8 C 1519.3 1002.3 1534.7 1002.7 1550.0 1002.9 C 1565.3 1003.2 1580.7 1003.4 1596.0 1003.4 C 1611.3 1003.4 1634.3 1003.2 1642.0 1003.1" stroke="#F5F0E8" stroke-width="1" stroke-opacity="0.086" fill="none" stroke-linecap="round"/></g>
<path d="M -60.0 406.9 C -52.3 407.0 -29.3 407.2 -14.0 407.4 C 1.3 407.6 16.7 407.7 32.0 407.9 C 47.3 408.0 62.7 408.2 78.0 408.3 C 93.3 408.5 108.7 408.7 124.0 408.9 C 139.3 409.1 154.7 409.2 170.0 409.5 C 185.3 409.7 200.7 409.9 216.0 410.1 C 231.3 410.4 246.7 410.6 262.0 410.9 C 277.3 411.2 292.7 411.5 308.0 411.8 C 323.3 412.1 338.7 412.4 354.0 412.8 C 369.3 413.1 384.7 413.5 400.0 413.8 C 415.3 414.2 430.7 414.6 446.0 415.0 C 461.3 415.4 476.7 415.8 492.0 416.2 C 507.3 416.6 522.7 417.0 538.0 417.4 C 553.3 417.9 568.7 418.3 584.0 418.7 C 599.3 419.1 614.7 419.5 630.0 419.9 C 645.3 420.3 660.7 420.7 676.0 421.1 C 691.3 421.5 706.7 421.8 722.0 422.2 C 737.3 422.5 752.7 422.8 768.0 423.1 C 783.3 423.4 798.7 423.6 814.0 423.8 C 829.3 424.1 844.7 424.3 860.0 424.4 C 875.3 424.6 890.7 424.7 906.0 424.7 C 921.3 424.8 936.7 424.9 952.0 424.8 C 967.3 424.8 982.7 424.8 998.0 424.7 C 1013.3 424.6 1028.7 424.4 1044.0 424.3 C 1059.3 424.1 1074.7 423.9 1090.0 423.6 C 1105.3 423.3 1120.7 423.0 1136.0 422.7 C 1151.3 422.3 1166.7 421.9 1182.0 421.5 C 1197.3 421.1 1212.7 420.7 1228.0 420.2 C 1243.3 419.7 1258.7 419.2 1274.0 418.7 C 1289.3 418.2 1304.7 417.6 1320.0 417.0 C 1335.3 416.5 1350.7 415.9 1366.0 415.3 C 1381.3 414.8 1396.7 414.2 1412.0 413.6 C 1427.3 413.0 1442.7 412.4 1458.0 411.9 C 1473.3 411.3 1488.7 410.8 1504.0 410.2 C 1519.3 409.7 1534.7 409.2 1550.0 408.7 C 1565.3 408.2 1580.7 407.8 1596.0 407.4 C 1611.3 406.9 1634.3 406.4 1642.0 406.2" stroke="#C9A96E" stroke-width="2" stroke-opacity="0.5" fill="none" stroke-linecap="round"/>
<rect width="1600" height="900" fill="url(#vig)"/>
<rect width="1600" height="900" filter="url(#grain)" opacity="0.05"/>
</svg>