<svg xmlns="http://www.w3.org/2000/svg" viewBox="0 0 1600 900" preserveAspectRatio="xMidYMid slice">
<defs>
<linearGradient id="bg" x1="0" y1="0" x2="0" y2="1"><stop offset="0" stop-color="#0b160f"/><stop offset="1" stop-color="#15271b"/></linearGradient>
<radialGradient id="glow" cx="0.814" cy="0.128" r="0.75"><stop offset="0" stop-color="#C9A96E" stop-opacity="0.15"/><stop offset="1" stop-color="#C9A96E" stop-opacity="0"/></radialGradient>
<radialGradient id="vig" cx="0.5" cy="0.5" r="0.75"><stop offset="0.5" stop-color="#000" stop-opacity="0"/><stop offset="1" stop-color="#000" stop-opacity="0.5"/></radialGradient>
<filter id="grain"><feTurbulence type="fractalNoise" baseFrequency="0.9" numOctaves="2" stitchTiles="stitch"/><feColorMatrix type="matrix" values="0 0 0 0 0 0 0 0 0 0 0 0 0 0 0 0 0 0 0.55 0"/></filter>
</defs>
<rect width="1600" height="900" fill="url(#bg)"/>
<rect width="1600" height="900" fill="url(#glow)"/>
<path d="M -60.0 524.9 C -52.3 526.0 -29.3 529.5 -14.0 531.6 C 1.3 533.7 16.7 535.7 32.0 537.4 C 47.3 539.1 62.7 540.7 78.0 542.0 C 93.3 543.2 108.7 544.3 124.0 544.9 C 139.3 545.6 154.7 545.9 170.0 545.9 C 185.3 545.9 200.7 545.5 216.0 544.8 C 231.3 544.1 246.7 543.1 262.0 541.7 C 277.3 540.4 292.7 538.6 308.0 536.7 C 323.3 534.8 338.7 532.5 354.0 530.1 C 369.3 527.7 384.7 525.0 400.0 522.4 C 415.3 519.7 430.7 516.8 446.0 514.0 C 461.3 511.2 476.7 508.3 492.0 505.5 C 507.3 502.8 522.7 500.1 538.0 497.7 C 553.3 495.2 568.7 492.9 584.0 491.0 C 599.3 489.0 614.7 487.2 630.0 485.9 C 645.3 484.6 660.7 483.5 676.0 482.9 C 691.3 482.4 706.7 482.1 722.0 482.3 C 737.3 482.6 752.7 483.2 768.0 484.2 C 783.3 485.3 798.7 486.8 814.0 488.6 C 829.3 490.4 844.7 492.7 860.0 495.2 C 875.3 497.7 890.7 500.6 906.0 503.7 C 921.3 506.7 936.7 510.1 952.0 513.6 C 967.3 517.0 982.7 520.7 998.0 524.3 C 1013.3 527.9 1028.7 531.7 1044.0 535.2 C 1059.3 538.8 1074.7 542.4 1090.0 545.8 C 1105.3 549.1 1120.7 552.4 1136.0 555.3 C 1151.3 558.2 1166.7 560.9 1182.0 563.2 C 1197.3 565.5 1212.7 567.5 1228.0 569.1 C 1243.3 570.7 1258.7 572.0 1274.0 572.8 C 1289.3 573.6 1304.7 574.0 1320.0 574.1 C 1335.3 574.1 1350.7 573.8 1366.0 573.1 C 1381.3 572.4 1396.7 571.3 1412.0 569.9 C 1427.3 568.6 1442.7 566.9 1458.0 565.0 C 1473.3 563.2 1488.7 561.0 1504.0 558.8 C 1519.3 556.6 1534.7 554.2 1550.0 551.9 C 1565.3 549.6 1580.7 547.1 1596.0 544.8 C 1611.3 542.5 1631.3 469.0 1642.0 538.2 C 1652.7 607.4 1943.7 889.7 1660.0 960.0 C 1376.3 1030.3 226.7 960.0 -60.0 960.0 Z" fill="#C9A96E" fill-opacity="0.028"/>
<g><path d="M -60.0 -62.2 C -52.3 -62.2 -29.3 -62.3 -14.0 -62.3 C 1.3 -62.3 16.7 -62.3 32.0 -62.3 C 47.3 -62.3 62.7 -62.3 78.0 -62.3 C 93.3 -62.3 108.7 -62.3 124.0 -62.2 C 139.3 -62.2 154.7 -62.1 170.0 -62.0 C 185.3 -61.9 200.7 -61.8 216.0 -61.7 C 231.3 -61.6 246.7 -61.4 262.0 -61.3 C 277.3 -61.1 292.7 -60.9 308.0 -60.7 C 323.3 -60.5 338.7 -60.3 354.0 -60.0 C 369.3 -59.8 384.7 -59.5 400.0 -59.2 C 415.3 -58.9 430.7 -58.6 446.0 -58.3 C 461.3 -58.0 476.7 -57.6 492.0 -57.3 C 507.3 -56.9 522.7 -56.5 538.0 -56.1 C 553.3 -55.7 568.7 -55.3 584.0 -54.9 C 599.3 -54.5 614.7 -54.0 630.0 -53.6 C 645.3 -53.1 660.7 -52.7 676.0 -52.2 C 691.3 -51.8 706.7 -51.3 722.0 -50.8 C 737.3 -50.4 752.7 -49.9 768.0 -49.4 C 783.3 -49.0 798.7 -48.5 814.0 -48.0 C 829.3 -47.6 844.7 -47.1 860.0 -46.7 C 875.3 -46.2 890.7 -45.8 906.0 -45.3 C 921.3 -44.9 936.7 -44.5 952.0 -44.1 C 967.3 -43.7 982.7 -43.3 998.0 -42.9 C 1013.3 -42.6 1028.7 -42.2 1044.0 -41.9 C 1059.3 -41.5 1074.7 -41.2 1090.0 -40.9 C 1105.3 -40.6 1120.7 -40.4 1136.0 -40.1 C 1151.3 -39.9 1166.7 -39.7 1182.0 -39.5 C 1197.3 -39.3 1212.7 -39.1 1228.0 -38.9 C 1243.3 -38.8 1258.7 -38.6 1274.0 -38.5 C 1289.3 -38.4 1304.7 -38.4 1320.0 -38.3 C 1335.3 -38.2 1350.7 -38.2 1366.0 -38.2 C 1381.3 -38.2 1396.7 -38.2 1412.0 -38.2 C 1427.3 -38.3 1442.7 -38.3 1458.0 -38.4 C 1473.3 -38.4 1488.7 -38.5 1504.0 -38.6 C 1519.3 -38.7 1534.7 -38.9 1550.0 -39.0 C 1565.3 -39.1 1580.7 -39.2 1596.0 -39.4 C 1611.3 -39.5 1634.3 -39.8 1642.0 -39.8" stroke="#F5F0E8" stroke-width="1" stroke-opacity="0.087" fill="none" stroke-linecap="round"/><path d="M -60.0 -30.2 C -52.3 -30.6 -29.3 -31.7 -14.0 -32.5 C 1.3 -33.2 16.7 -34.0 32.0 -34.7 C 47.3 -35.4 62.7 -36.1 78.0 -36.6 C 93.3 -37.1 108.7 -37.5 124.0 -37.7 C 139.3 -37.9 154.7 -37.9 170.0 -37.7 C 185.3 -37.5 200.7 -37.1 216.0 -36.5 C 231.3 -35.9 246.7 -35.0 262.0 -33.9 C 277.3 -32.8 292.7 -31.5 308.0 -29.9 C 323.3 -28.4 338.7 -26.6 354.0 -24.7 C 369.3 -22.8 384.7 -20.6 400.0 -18.4 C 415.3 -16.2 430.7 -13.9 446.0 -11.5 C 461.3 -9.2 476.7 -6.7 492.0 -4.3 C 507.3 -1.9 522.7 0.5 538.0 2.8 C 553.3 5.0 568.7 7.3 584.0 9.3 C 599.3 11.3 614.7 13.3 630.0 15.0 C 645.3 16.7 660.7 18.2 676.0 19.5 C 691.3 20.8 706.7 21.9 722.0 22.7 C 737.3 23.6 752.7 24.2 768.0 24.6 C 783.3 25.1 798.7 25.3 814.0 25.3 C 829.3 25.4 844.7 25.2 860.0 25.0 C 875.3 24.7 890.7 24.3 906.0 23.9 C 921.3 23.5 936.7 22.9 952.0 22.5 C 967.3 22.0 982.7 21.4 998.0 21.0 C 1013.3 20.6 1028.7 20.2 1044.0 19.9 C 1059.3 19.7 1074.7 19.5 1090.0 19.5 C 1105.3 19.5 1120.7 19.6 1136.0 20.0 C 1151.3 20.3 1166.7 20.8 1182.0 21.4 C 1197.3 22.0 1212.7 22.9 1228.0 23.8 C 1243.3 24.8 1258.7 25.9 1274.0 27.2 C 1289.3 28.4 1304.7 29.7 1320.0 31.1 C 1335.3 32.5 1350.7 34.1 1366.0 35.5 C 1381.3 37.0 1396.7 38.6 1412.0 40.0 C 1427.3 41.5 1442.7 43.0 1458.0 44.3 C 1473.3 45.6 1488.7 46.9 1504.0 48.0 C 1519.3 49.1 1534.7 50.2 1550.0 51.0 C 1565.3 51.8 1580.7 52.5 1596.0 53.1 C 1611.3 53.6 1634.3 54.0 1642.0 54.2" stroke="#F5F0E8" stroke-width="1.5" stroke-opacity="0.270" fill="none" stroke-linecap="round"/><path d="M -60.0 -8.8 C -52.3 -8.5 -29.3 -7.8 -14.0 -7.1 C 1.3 -6.4 16.7 -5.5 32.0 -4.5 C 47.3 -3.5 62.7 -2.3 78.0 -1.1 C 93.3 0.1 108.7 1.5 124.0 3.0 C 139.3 4.4 154.7 5.9 170.0 7.5 C 185.3 9.1 200.7 10.7 216.0 12.3 C 231.3 13.9 246.7 15.6 262.0 17.2 C 277.3 18.8 292.7 20.4 308.0 21.9 C 323.3 23.4 338.7 24.9 354.0 26.2 C 369.3 27.6 384.7 28.9 400.0 30.1 C 415.3 31.2 430.7 32.3 446.0 33.2 C 461.3 34.2 476.7 35.0 492.0 35.7 C 507.3 36.3 522.7 36.9 538.0 37.3 C 553.3 37.7 568.7 38.0 584.0 38.2 C 599.3 38.4 614.7 38.4 630.0 38.4 C 645.3 38.3 660.7 38.2 676.0 38.0 C 691.3 37.8 706.7 37.5 722.0 37.2 C 737.3 36.8 752.7 36.5 768.0 36.1 C 783.3 35.7 798.7 35.3 814.0 35.0 C 829.3 34.7 844.7 34.3 860.0 34.0 C 875.3 33.8 890.7 33.5 906.0 33.4 C 921.3 33.2 936.7 33.1 952.0 33.2 C 967.3 33.2 982.7 33.3 998.0 33.5 C 1013.3 33.8 1028.7 34.1 1044.0 34.6 C 1059.3 35.0 1074.7 35.6 1090.0 36.3 C 1105.3 36.9 1120.7 37.7 1136.0 38.6 C 1151.3 39.4 1166.7 40.4 1182.0 41.4 C 1197.3 42.5 1212.7 43.6 1228.0 44.8 C 1243.3 45.9 1258.7 47.1 1274.0 48.3 C 1289.3 49.6 1304.7 50.8 1320.0 52.0 C 1335.3 53.2 1350.7 54.5 1366.0 55.6 C 1381.3 56.8 1396.7 57.9 1412.0 59.0 C 1427.3 60.0 1442.7 61.0 1458.0 61.9 C 1473.3 62.8 1488.7 63.6 1504.0 64.2 C 1519.3 64.9 1534.7 65.5 1550.0 65.9 C 1565.3 66.3 1580.7 66.7 1596.0 66.8 C 1611.3 67.0 1634.3 67.0 1642.0 67.0" stroke="#F5F0E8" stroke-width="1" stroke-opacity="0.064" fill="none" stroke-linecap="round"/><path d="M -60.0 58.0 C -52.3 58.2 -29.3 59.0 -14.0 59.5 C 1.3 59.9 16.7 60.3 32.0 60.6 C 47.3 61.0 62.7 61.2 78.0 61.4 C 93.3 61.6 108.7 61.7 124.0 61.7 C 139.3 61.7 154.7 61.6 170.0 61.4 C 185.3 61.2 200.7 60.9 216.0 60.5 C 231.3 60.1 246.7 59.6 262.0 59.0 C 277.3 58.4 292.7 57.7 308.0 56.9 C 323.3 56.1 338.7 55.2 354.0 54.2 C 369.3 53.3 384.7 52.2 400.0 51.0 C 415.3 49.9 430.7 48.6 446.0 47.3 C 461.3 46.0 476.7 44.6 492.0 43.2 C 507.3 41.7 522.7 40.2 538.0 38.7 C 553.3 37.2 568.7 35.7 584.0 34.1 C 599.3 32.5 614.7 31.0 630.0 29.4 C 645.3 27.8 660.7 26.2 676.0 24.7 C 691.3 23.2 706.7 21.6 722.0 20.2 C 737.3 18.7 752.7 17.3 768.0 15.9 C 783.3 14.6 798.7 13.2 814.0 12.0 C 829.3 10.8 844.7 9.6 860.0 8.6 C 875.3 7.5 890.7 6.5 906.0 5.6 C 921.3 4.8 936.7 4.0 952.0 3.3 C 967.3 2.6 982.7 2.0 998.0 1.6 C 1013.3 1.1 1028.7 0.7 1044.0 0.4 C 1059.3 0.1 1074.7 -0.0 1090.0 -0.1 C 1105.3 -0.2 1120.7 -0.2 1136.0 -0.1 C 1151.3 -0.0 1166.7 0.1 1182.0 0.4 C 1197.3 0.6 1212.7 0.9 1228.0 1.3 C 1243.3 1.6 1258.7 2.1 1274.0 2.5 C 1289.3 3.0 1304.7 3.5 1320.0 4.0 C 1335.3 4.5 1350.7 5.0 1366.0 5.5 C 1381.3 6.0 1396.7 6.5 1412.0 7.0 C 1427.3 7.5 1442.7 8.0 1458.0 8.4 C 1473.3 8.9 1488.7 9.3 1504.0 9.6 C 1519.3 10.0 1534.7 10.3 1550.0 10.5 C 1565.3 10.7 1580.7 10.9 1596.0 11.0 C 1611.3 11.1 1634.3 11.0 1642.0 11.0" stroke="#F5F0E8" stroke-width="1" stroke-opacity="0.048" fill="none" stroke-linecap="round"/><path d="M -60.0 82.5 C -52.3 82.9 -29.3 84.1 -14.0 84.8 C 1.3 85.5 16.7 86.1 32.0 86.6 C 47.3 87.1 62.7 87.6 78.0 88.0 C 93.3 88.4 108.7 88.8 124.0 89.1 C 139.3 89.5 154.7 89.7 170.0 90.0 C 185.3 90.3 200.7 90.6 216.0 90.8 C 231.3 91.1 246.7 91.4 262.0 91.7 C 277.3 92.0 292.7 92.3 308.0 92.7 C 323.3 93.0 338.7 93.4 354.0 93.9 C 369.3 94.4 384.7 94.9 400.0 95.4 C 415.3 96.0 430.7 96.6 446.0 97.3 C 461.3 98.0 476.7 98.7 492.0 99.5 C 507.3 100.2 522.7 101.1 538.0 101.9 C 553.3 102.7 568.7 103.6 584.0 104.5 C 599.3 105.4 614.7 106.4 630.0 107.3 C 645.3 108.2 660.7 109.1 676.0 110.0 C 691.3 110.9 706.7 111.8 722.0 112.6 C 737.3 113.4 752.7 114.2 768.0 115.0 C 783.3 115.7 798.7 116.4 814.0 117.0 C 829.3 117.6 844.7 118.1 860.0 118.6 C 875.3 119.1 890.7 119.5 906.0 119.8 C 921.3 120.1 936.7 120.4 952.0 120.6 C 967.3 120.8 982.7 120.9 998.0 121.0 C 1013.3 121.1 1028.7 121.1 1044.0 121.1 C 1059.3 121.2 1074.7 121.1 1090.0 121.1 C 1105.3 121.1 1120.7 121.0 1136.0 121.0 C 1151.3 121.0 1166.7 121.0 1182.0 121.1 C 1197.3 121.2 1212.7 121.3 1228.0 121.4 C 1243.3 121.6 1258.7 121.8 1274.0 122.2 C 1289.3 122.5 1304.7 122.9 1320.0 123.4 C 1335.3 124.0 1350.7 124.6 1366.0 125.3 C 1381.3 126.0 1396.7 126.8 1412.0 127.8 C 1427.3 128.7 1442.7 129.7 1458.0 130.9 C 1473.3 132.0 1488.7 133.2 1504.0 134.5 C 1519.3 135.8 1534.7 137.2 1550.0 138.6 C 1565.3 140.0 1580.7 141.5 1596.0 143.0 C 1611.3 144.5 1634.3 146.8 1642.0 147.5" stroke="#F5F0E8" stroke-width="1" stroke-opacity="0.051" fill="none" stroke-linecap="round"/><path d="M -60.0 141.2 C -52.3 141.8 -29.3 143.8 -14.0 144.7 C 1.3 145.6 16.7 146.3 32.0 146.6 C 47.3 147.0 62.7 147.0 78.0 146.8 C 93.3 146.5 108.7 146.0 124.0 145.2 C 139.3 144.4 154.7 143.3 170.0 142.1 C 185.3 140.8 200.7 139.3 216.0 137.8 C 231.3 136.2 246.7 134.5 262.0 132.8 C 277.3 131.1 292.7 129.2 308.0 127.6 C 323.3 125.9 338.7 124.2 354.0 122.7 C 369.3 121.3 384.7 119.9 400.0 118.8 C 415.3 117.7 430.7 116.8 446.0 116.2 C 461.3 115.6 476.7 115.2 492.0 115.2 C 507.3 115.2 522.7 115.5 538.0 116.0 C 553.3 116.6 568.7 117.5 584.0 118.7 C 599.3 119.8 614.7 121.3 630.0 122.9 C 645.3 124.6 660.7 126.5 676.0 128.4 C 691.3 130.4 706.7 132.6 722.0 134.7 C 737.3 136.9 752.7 139.1 768.0 141.2 C 783.3 143.3 798.7 145.5 814.0 147.3 C 829.3 149.2 844.7 151.0 860.0 152.5 C 875.3 153.9 890.7 155.2 906.0 156.1 C 921.3 157.0 936.7 157.7 952.0 157.9 C 967.3 158.2 982.7 158.1 998.0 157.6 C 1013.3 157.2 1028.7 156.4 1044.0 155.3 C 1059.3 154.2 1074.7 152.7 1090.0 151.0 C 1105.3 149.3 1120.7 147.2 1136.0 145.0 C 1151.3 142.8 1166.7 140.4 1182.0 137.9 C 1197.3 135.5 1212.7 132.8 1228.0 130.2 C 1243.3 127.7 1258.7 125.0 1274.0 122.6 C 1289.3 120.1 1304.7 117.7 1320.0 115.5 C 1335.3 113.4 1350.7 111.4 1366.0 109.7 C 1381.3 108.1 1396.7 106.6 1412.0 105.5 C 1427.3 104.5 1442.7 103.7 1458.0 103.3 C 1473.3 102.9 1488.7 102.9 1504.0 103.1 C 1519.3 103.4 1534.7 104.1 1550.0 105.0 C 1565.3 105.9 1580.7 107.2 1596.0 108.7 C 1611.3 110.1 1634.3 113.0 1642.0 113.8" stroke="#F5F0E8" stroke-width="1.5" stroke-opacity="0.185" fill="none" stroke-linecap="round"/><path d="M -60.0 188.4 C -52.3 187.2 -29.3 183.5 -14.0 180.9 C 1.3 178.3 16.7 175.6 32.0 172.9 C 47.3 170.1 62.7 167.3 78.0 164.6 C 93.3 161.8 108.7 159.0 124.0 156.3 C 139.3 153.6 154.7 150.9 170.0 148.3 C 185.3 145.8 200.7 143.3 216.0 141.0 C 231.3 138.7 246.7 136.5 262.0 134.4 C 277.3 132.4 292.7 130.5 308.0 128.8 C 323.3 127.1 338.7 125.6 354.0 124.2 C 369.3 122.9 384.7 121.7 400.0 120.7 C 415.3 119.7 430.7 118.9 446.0 118.2 C 461.3 117.5 476.7 117.0 492.0 116.6 C 507.3 116.2 522.7 116.0 538.0 115.8 C 553.3 115.6 568.7 115.6 584.0 115.6 C 599.3 115.5 614.7 115.6 630.0 115.7 C 645.3 115.7 660.7 115.8 676.0 115.9 C 691.3 116.0 706.7 116.1 722.0 116.1 C 737.3 116.1 752.7 116.1 768.0 116.0 C 783.3 115.9 798.7 115.8 814.0 115.5 C 829.3 115.3 844.7 114.9 860.0 114.5 C 875.3 114.1 890.7 113.6 906.0 113.0 C 921.3 112.4 936.7 111.7 952.0 110.9 C 967.3 110.1 982.7 109.3 998.0 108.4 C 1013.3 107.5 1028.7 106.5 1044.0 105.5 C 1059.3 104.5 1074.7 103.4 1090.0 102.4 C 1105.3 101.3 1120.7 100.3 1136.0 99.2 C 1151.3 98.2 1166.7 97.2 1182.0 96.3 C 1197.3 95.3 1212.7 94.4 1228.0 93.6 C 1243.3 92.8 1258.7 92.1 1274.0 91.5 C 1289.3 90.9 1304.7 90.4 1320.0 90.0 C 1335.3 89.6 1350.7 89.3 1366.0 89.2 C 1381.3 89.0 1396.7 89.0 1412.0 89.1 C 1427.3 89.2 1442.7 89.5 1458.0 89.8 C 1473.3 90.1 1488.7 90.6 1504.0 91.1 C 1519.3 91.6 1534.7 92.3 1550.0 92.9 C 1565.3 93.6 1580.7 94.3 1596.0 95.0 C 1611.3 95.7 1634.3 96.8 1642.0 97.2" stroke="#F5F0E8" stroke-width="1" stroke-opacity="0.058" fill="none" stroke-linecap="round"/><path d="M -60.0 185.1 C -52.3 186.4 -29.3 190.4 -14.0 192.9 C 1.3 195.4 16.7 197.8 32.0 200.0 C 47.3 202.2 62.7 204.4 78.0 206.3 C 93.3 208.2 108.7 210.0 124.0 211.6 C 139.3 213.2 154.7 214.6 170.0 215.9 C 185.3 217.1 200.7 218.1 216.0 219.0 C 231.3 219.9 246.7 220.6 262.0 221.1 C 277.3 221.7 292.7 222.0 308.0 222.3 C 323.3 222.5 338.7 222.6 354.0 222.5 C 369.3 222.5 384.7 222.3 400.0 222.1 C 415.3 221.9 430.7 221.5 446.0 221.1 C 461.3 220.8 476.7 220.3 492.0 219.8 C 507.3 219.4 522.7 218.9 538.0 218.5 C 553.3 218.0 568.7 217.5 584.0 217.2 C 599.3 216.8 614.7 216.4 630.0 216.2 C 645.3 215.9 660.7 215.7 676.0 215.6 C 691.3 215.6 706.7 215.6 722.0 215.7 C 737.3 215.8 752.7 216.1 768.0 216.5 C 783.3 216.8 798.7 217.3 814.0 218.0 C 829.3 218.6 844.7 219.3 860.0 220.2 C 875.3 221.1 890.7 222.1 906.0 223.1 C 921.3 224.2 936.7 225.4 952.0 226.7 C 967.3 228.0 982.7 229.3 998.0 230.7 C 1013.3 232.1 1028.7 233.6 1044.0 235.1 C 1059.3 236.5 1074.7 238.1 1090.0 239.5 C 1105.3 241.0 1120.7 242.5 1136.0 244.0 C 1151.3 245.4 1166.7 246.8 1182.0 248.1 C 1197.3 249.4 1212.7 250.7 1228.0 251.8 C 1243.3 252.9 1258.7 254.0 1274.0 254.9 C 1289.3 255.8 1304.7 256.6 1320.0 257.2 C 1335.3 257.8 1350.7 258.3 1366.0 258.7 C 1381.3 259.0 1396.7 259.2 1412.0 259.2 C 1427.3 259.2 1442.7 259.1 1458.0 258.8 C 1473.3 258.5 1488.7 258.1 1504.0 257.5 C 1519.3 256.9 1534.7 256.2 1550.0 255.4 C 1565.3 254.6 1580.7 253.7 1596.0 252.7 C 1611.3 251.7 1634.3 250.0 1642.0 249.5" stroke="#F5F0E8" stroke-width="1" stroke-opacity="0.066" fill="none" stroke-linecap="round"/><path d="M -60.0 228.9 C -52.3 229.4 -29.3 230.8 -14.0 231.7 C 1.3 232.6 16.7 233.5 32.0 234.4 C 47.3 235.2 62.7 236.0 78.0 236.6 C 93.3 237.2 108.7 237.8 124.0 238.1 C 139.3 238.4 154.7 238.6 170.0 238.5 C 185.3 238.4 200.7 238.2 216.0 237.7 C 231.3 237.2 246.7 236.5 262.0 235.5 C 277.3 234.6 292.7 233.5 308.0 232.2 C 323.3 230.8 338.7 229.3 354.0 227.7 C 369.3 226.1 384.7 224.2 400.0 222.4 C 415.3 220.6 430.7 218.6 446.0 216.7 C 461.3 214.8 476.7 212.8 492.0 210.9 C 507.3 209.1 522.7 207.2 538.0 205.5 C 553.3 203.8 568.7 202.2 584.0 200.8 C 599.3 199.5 614.7 198.2 630.0 197.2 C 645.3 196.2 660.7 195.4 676.0 194.8 C 691.3 194.2 706.7 193.8 722.0 193.7 C 737.3 193.5 752.7 193.6 768.0 193.9 C 783.3 194.1 798.7 194.6 814.0 195.2 C 829.3 195.8 844.7 196.5 860.0 197.3 C 875.3 198.1 890.7 199.1 906.0 200.0 C 921.3 200.9 936.7 201.8 952.0 202.7 C 967.3 203.5 982.7 204.4 998.0 205.1 C 1013.3 205.7 1028.7 206.3 1044.0 206.7 C 1059.3 207.1 1074.7 207.4 1090.0 207.4 C 1105.3 207.4 1120.7 207.2 1136.0 206.8 C 1151.3 206.4 1166.7 205.8 1182.0 205.0 C 1197.3 204.1 1212.7 203.0 1228.0 201.8 C 1243.3 200.5 1258.7 199.0 1274.0 197.4 C 1289.3 195.9 1304.7 194.1 1320.0 192.2 C 1335.3 190.4 1350.7 188.4 1366.0 186.5 C 1381.3 184.5 1396.7 182.5 1412.0 180.5 C 1427.3 178.6 1442.7 176.6 1458.0 174.8 C 1473.3 173.0 1488.7 171.3 1504.0 169.7 C 1519.3 168.2 1534.7 166.7 1550.0 165.5 C 1565.3 164.3 1580.7 163.2 1596.0 162.3 C 1611.3 161.5 1634.3 160.7 1642.0 160.4" stroke="#F5F0E8" stroke-width="1" stroke-opacity="0.072" fill="none" stroke-linecap="round"/><path d="M -60.0 247.2 C -52.3 248.7 -29.3 253.1 -14.0 256.0 C 1.3 258.9 16.7 261.8 32.0 264.5 C 47.3 267.2 62.7 269.8 78.0 272.2 C 93.3 274.5 108.7 276.7 124.0 278.6 C 139.3 280.5 154.7 282.1 170.0 283.4 C 185.3 284.7 200.7 285.7 216.0 286.3 C 231.3 286.9 246.7 287.3 262.0 287.2 C 277.3 287.2 292.7 286.9 308.0 286.2 C 323.3 285.6 338.7 284.6 354.0 283.4 C 369.3 282.3 384.7 280.8 400.0 279.2 C 415.3 277.6 430.7 275.7 446.0 273.8 C 461.3 271.9 476.7 269.8 492.0 267.8 C 507.3 265.8 522.7 263.7 538.0 261.7 C 553.3 259.7 568.7 257.7 584.0 255.9 C 599.3 254.1 614.7 252.4 630.0 250.9 C 645.3 249.5 660.7 248.2 676.0 247.1 C 691.3 246.1 706.7 245.3 722.0 244.8 C 737.3 244.3 752.7 244.0 768.0 244.0 C 783.3 244.1 798.7 244.4 814.0 244.9 C 829.3 245.5 844.7 246.3 860.0 247.4 C 875.3 248.4 890.7 249.7 906.0 251.1 C 921.3 252.6 936.7 254.2 952.0 255.9 C 967.3 257.6 982.7 259.5 998.0 261.4 C 1013.3 263.2 1028.7 265.2 1044.0 267.0 C 1059.3 268.9 1074.7 270.8 1090.0 272.5 C 1105.3 274.2 1120.7 275.9 1136.0 277.4 C 1151.3 278.8 1166.7 280.2 1182.0 281.3 C 1197.3 282.4 1212.7 283.3 1228.0 284.0 C 1243.3 284.6 1258.7 285.0 1274.0 285.2 C 1289.3 285.4 1304.7 285.3 1320.0 285.0 C 1335.3 284.7 1350.7 284.1 1366.0 283.4 C 1381.3 282.6 1396.7 281.6 1412.0 280.5 C 1427.3 279.4 1442.7 278.0 1458.0 276.6 C 1473.3 275.2 1488.7 273.6 1504.0 272.0 C 1519.3 270.4 1534.7 268.7 1550.0 267.1 C 1565.3 265.5 1580.7 263.8 1596.0 262.3 C 1611.3 260.8 1634.3 258.7 1642.0 257.9" stroke="#F5F0E8" stroke-width="1.5" stroke-opacity="0.252" fill="none" stroke-linecap="round"/><path d="M -60.0 260.0 C -52.3 260.7 -29.3 262.5 -14.0 264.0 C 1.3 265.4 16.7 267.0 32.0 268.6 C 47.3 270.2 62.7 272.0 78.0 273.7 C 93.3 275.5 108.7 277.3 124.0 279.2 C 139.3 281.0 154.7 282.8 170.0 284.7 C 185.3 286.5 200.7 288.3 216.0 290.1 C 231.3 291.9 246.7 293.6 262.0 295.2 C 277.3 296.9 292.7 298.5 308.0 300.0 C 323.3 301.5 338.7 302.9 354.0 304.2 C 369.3 305.5 384.7 306.8 400.0 307.9 C 415.3 309.0 430.7 310.0 446.0 310.9 C 461.3 311.9 476.7 312.7 492.0 313.4 C 507.3 314.1 522.7 314.8 538.0 315.4 C 553.3 315.9 568.7 316.4 584.0 316.8 C 599.3 317.3 614.7 317.6 630.0 318.0 C 645.3 318.3 660.7 318.6 676.0 318.9 C 691.3 319.2 706.7 319.4 722.0 319.7 C 737.3 320.0 752.7 320.2 768.0 320.5 C 783.3 320.8 798.7 321.1 814.0 321.5 C 829.3 321.9 844.7 322.2 860.0 322.7 C 875.3 323.1 890.7 323.6 906.0 324.2 C 921.3 324.7 936.7 325.3 952.0 326.0 C 967.3 326.7 982.7 327.4 998.0 328.2 C 1013.3 329.0 1028.7 329.8 1044.0 330.7 C 1059.3 331.6 1074.7 332.6 1090.0 333.5 C 1105.3 334.5 1120.7 335.5 1136.0 336.6 C 1151.3 337.6 1166.7 338.7 1182.0 339.8 C 1197.3 340.9 1212.7 342.0 1228.0 343.1 C 1243.3 344.1 1258.7 345.2 1274.0 346.3 C 1289.3 347.3 1304.7 348.4 1320.0 349.4 C 1335.3 350.4 1350.7 351.3 1366.0 352.2 C 1381.3 353.1 1396.7 354.0 1412.0 354.8 C 1427.3 355.6 1442.7 356.4 1458.0 357.0 C 1473.3 357.7 1488.7 358.4 1504.0 359.0 C 1519.3 359.5 1534.7 360.0 1550.0 360.5 C 1565.3 361.0 1580.7 361.4 1596.0 361.8 C 1611.3 362.2 1634.3 362.6 1642.0 362.8" stroke="#F5F0E8" stroke-width="1" stroke-opacity="0.072" fill="none" stroke-linecap="round"/><path d="M -60.0 332.2 C -52.3 332.7 -29.3 334.3 -14.0 335.3 C 1.3 336.3 16.7 337.3 32.0 338.2 C 47.3 339.1 62.7 339.9 78.0 340.7 C 93.3 341.4 108.7 342.0 124.0 342.4 C 139.3 342.9 154.7 343.2 170.0 343.3 C 185.3 343.5 200.7 343.4 216.0 343.2 C 231.3 343.0 246.7 342.5 262.0 341.9 C 277.3 341.4 292.7 340.6 308.0 339.6 C 323.3 338.7 338.7 337.6 354.0 336.3 C 369.3 335.1 384.7 333.7 400.0 332.3 C 415.3 330.8 430.7 329.2 446.0 327.7 C 461.3 326.1 476.7 324.5 492.0 322.9 C 507.3 321.4 522.7 319.8 538.0 318.3 C 553.3 316.9 568.7 315.5 584.0 314.2 C 599.3 313.0 614.7 311.9 630.0 311.0 C 645.3 310.1 660.7 309.4 676.0 308.9 C 691.3 308.4 706.7 308.1 722.0 308.1 C 737.3 308.1 752.7 308.3 768.0 308.7 C 783.3 309.1 798.7 309.8 814.0 310.7 C 829.3 311.6 844.7 312.7 860.0 314.0 C 875.3 315.2 890.7 316.7 906.0 318.2 C 921.3 319.8 936.7 321.5 952.0 323.2 C 967.3 324.9 982.7 326.7 998.0 328.4 C 1013.3 330.1 1028.7 331.9 1044.0 333.5 C 1059.3 335.1 1074.7 336.6 1090.0 337.9 C 1105.3 339.2 1120.7 340.4 1136.0 341.3 C 1151.3 342.2 1166.7 342.9 1182.0 343.3 C 1197.3 343.6 1212.7 343.7 1228.0 343.5 C 1243.3 343.3 1258.7 342.7 1274.0 341.8 C 1289.3 341.0 1304.7 339.8 1320.0 338.2 C 1335.3 336.7 1350.7 334.9 1366.0 332.8 C 1381.3 330.7 1396.7 328.3 1412.0 325.7 C 1427.3 323.2 1442.7 320.3 1458.0 317.4 C 1473.3 314.4 1488.7 311.2 1504.0 308.1 C 1519.3 304.9 1534.7 301.6 1550.0 298.4 C 1565.3 295.2 1580.7 291.9 1596.0 288.9 C 1611.3 285.8 1634.3 281.4 1642.0 279.9" stroke="#F5F0E8" stroke-width="1" stroke-opacity="0.091" fill="none" stroke-linecap="round"/><path d="M -60.0 350.7 C -52.3 352.2 -29.3 356.9 -14.0 359.7 C 1.3 362.6 16.7 365.3 32.0 367.9 C 47.3 370.4 62.7 372.8 78.0 375.0 C 93.3 377.2 108.7 379.2 124.0 381.1 C 139.3 382.9 154.7 384.6 170.0 386.2 C 185.3 387.7 200.7 389.1 216.0 390.5 C 231.3 391.8 246.7 393.0 262.0 394.2 C 277.3 395.3 292.7 396.4 308.0 397.4 C 323.3 398.4 338.7 399.4 354.0 400.4 C 369.3 401.4 384.7 402.3 400.0 403.2 C 415.3 404.2 430.7 405.1 446.0 405.9 C 461.3 406.8 476.7 407.7 492.0 408.4 C 507.3 409.2 522.7 409.9 538.0 410.5 C 553.3 411.2 568.7 411.7 584.0 412.1 C 599.3 412.5 614.7 412.7 630.0 412.8 C 645.3 412.9 660.7 412.8 676.0 412.4 C 691.3 412.1 706.7 411.6 722.0 410.8 C 737.3 410.0 752.7 409.0 768.0 407.7 C 783.3 406.5 798.7 405.0 814.0 403.3 C 829.3 401.5 844.7 399.6 860.0 397.5 C 875.3 395.4 890.7 393.1 906.0 390.8 C 921.3 388.4 936.7 385.9 952.0 383.4 C 967.3 381.0 982.7 378.4 998.0 376.0 C 1013.3 373.7 1028.7 371.3 1044.0 369.2 C 1059.3 367.1 1074.7 365.1 1090.0 363.5 C 1105.3 362.0 1120.7 360.6 1136.0 359.7 C 1151.3 358.9 1166.7 358.3 1182.0 358.3 C 1197.3 358.3 1212.7 358.7 1228.0 359.6 C 1243.3 360.6 1258.7 362.0 1274.0 364.0 C 1289.3 365.9 1304.7 368.4 1320.0 371.4 C 1335.3 374.3 1350.7 377.8 1366.0 381.6 C 1381.3 385.4 1396.7 389.7 1412.0 394.3 C 1427.3 398.8 1442.7 403.8 1458.0 408.8 C 1473.3 413.8 1488.7 419.1 1504.0 424.3 C 1519.3 429.5 1534.7 434.9 1550.0 440.0 C 1565.3 445.1 1580.7 450.3 1596.0 455.0 C 1611.3 459.7 1634.3 466.2 1642.0 468.4" stroke="#F5F0E8" stroke-width="1" stroke-opacity="0.072" fill="none" stroke-linecap="round"/><path d="M -60.0 412.1 C -52.3 412.3 -29.3 413.0 -14.0 413.5 C 1.3 414.0 16.7 414.4 32.0 414.9 C 47.3 415.4 62.7 415.8 78.0 416.3 C 93.3 416.7 108.7 417.2 124.0 417.6 C 139.3 418.0 154.7 418.5 170.0 418.9 C 185.3 419.3 200.7 419.7 216.0 420.0 C 231.3 420.4 246.7 420.8 262.0 421.1 C 277.3 421.4 292.7 421.7 308.0 422.0 C 323.3 422.3 338.7 422.5 354.0 422.8 C 369.3 423.0 384.7 423.2 400.0 423.3 C 415.3 423.5 430.7 423.6 446.0 423.7 C 461.3 423.8 476.7 423.8 492.0 423.9 C 507.3 423.9 522.7 423.9 538.0 423.8 C 553.3 423.7 568.7 423.6 584.0 423.5 C 599.3 423.4 614.7 423.2 630.0 423.0 C 645.3 422.7 660.7 422.5 676.0 422.2 C 691.3 421.9 706.7 421.6 722.0 421.2 C 737.3 420.9 752.7 420.5 768.0 420.0 C 783.3 419.6 798.7 419.1 814.0 418.6 C 829.3 418.2 844.7 417.6 860.0 417.1 C 875.3 416.6 890.7 416.0 906.0 415.4 C 921.3 414.8 936.7 414.2 952.0 413.6 C 967.3 413.0 982.7 412.4 998.0 411.8 C 1013.3 411.2 1028.7 410.5 1044.0 409.9 C 1059.3 409.3 1074.7 408.7 1090.0 408.1 C 1105.3 407.5 1120.7 406.9 1136.0 406.3 C 1151.3 405.7 1166.7 405.1 1182.0 404.6 C 1197.3 404.1 1212.7 403.6 1228.0 403.1 C 1243.3 402.6 1258.7 402.2 1274.0 401.8 C 1289.3 401.4 1304.7 401.0 1320.0 400.7 C 1335.3 400.4 1350.7 400.1 1366.0 399.9 C 1381.3 399.7 1396.7 399.5 1412.0 399.4 C 1427.3 399.3 1442.7 399.3 1458.0 399.3 C 1473.3 399.3 1488.7 399.4 1504.0 399.5 C 1519.3 399.6 1534.7 399.8 1550.0 400.1 C 1565.3 400.4 1580.7 400.7 1596.0 401.1 C 1611.3 401.5 1634.3 402.3 1642.0 402.6" stroke="#F5F0E8" stroke-width="1.5" stroke-opacity="0.226" fill="none" stroke-linecap="round"/><path d="M -60.0 445.1 C -52.3 445.2 -29.3 445.4 -14.0 445.5 C 1.3 445.6 16.7 445.7 32.0 445.7 C 47.3 445.6 62.7 445.6 78.0 445.4 C 93.3 445.3 108.7 445.1 124.0 444.9 C 139.3 444.7 154.7 444.4 170.0 444.1 C 185.3 443.8 200.7 443.4 216.0 443.0 C 231.3 442.6 246.7 442.2 262.0 441.7 C 277.3 441.3 292.7 440.8 308.0 440.2 C 323.3 439.7 338.7 439.2 354.0 438.6 C 369.3 438.0 384.7 437.5 400.0 436.9 C 415.3 436.3 430.7 435.7 446.0 435.1 C 461.3 434.5 476.7 433.9 492.0 433.3 C 507.3 432.7 522.7 432.2 538.0 431.6 C 553.3 431.0 568.7 430.5 584.0 429.9 C 599.3 429.4 614.7 428.9 630.0 428.4 C 645.3 427.9 660.7 427.5 676.0 427.0 C 691.3 426.6 706.7 426.2 722.0 425.8 C 737.3 425.5 752.7 425.1 768.0 424.8 C 783.3 424.5 798.7 424.3 814.0 424.0 C 829.3 423.8 844.7 423.6 860.0 423.5 C 875.3 423.3 890.7 423.2 906.0 423.1 C 921.3 423.1 936.7 423.0 952.0 423.0 C 967.3 423.0 982.7 423.0 998.0 423.1 C 1013.3 423.1 1028.7 423.2 1044.0 423.3 C 1059.3 423.4 1074.7 423.5 1090.0 423.7 C 1105.3 423.8 1120.7 424.0 1136.0 424.2 C 1151.3 424.4 1166.7 424.6 1182.0 424.8 C 1197.3 425.0 1212.7 425.2 1228.0 425.4 C 1243.3 425.6 1258.7 425.8 1274.0 426.0 C 1289.3 426.2 1304.7 426.4 1320.0 426.6 C 1335.3 426.8 1350.7 427.0 1366.0 427.2 C 1381.3 427.3 1396.7 427.5 1412.0 427.6 C 1427.3 427.7 1442.7 427.8 1458.0 427.9 C 1473.3 427.9 1488.7 428.0 1504.0 428.0 C 1519.3 428.0 1534.7 427.9 1550.0 427.9 C 1565.3 427.8 1580.7 427.7 1596.0 427.6 C 1611.3 427.4 1634.3 427.1 1642.0 427.1" stroke="#F5F0E8" stroke-width="1" stroke-opacity="0.045" fill="none" stroke-linecap="round"/><path d="M -60.0 457.9 C -52.3 457.7 -29.3 457.0 -14.0 456.7 C 1.3 456.3 16.7 456.0 32.0 455.7 C 47.3 455.4 62.7 455.2 78.0 455.0 C 93.3 454.8 108.7 454.6 124.0 454.5 C 139.3 454.3 154.7 454.2 170.0 454.1 C 185.3 454.0 200.7 453.9 216.0 453.8 C 231.3 453.6 246.7 453.6 262.0 453.4 C 277.3 453.3 292.7 453.2 308.0 453.0 C 323.3 452.9 338.7 452.7 354.0 452.5 C 369.3 452.3 384.7 452.1 400.0 451.8 C 415.3 451.5 430.7 451.2 446.0 450.9 C 461.3 450.5 476.7 450.1 492.0 449.7 C 507.3 449.3 522.7 448.8 538.0 448.2 C 553.3 447.7 568.7 447.1 584.0 446.5 C 599.3 445.9 614.7 445.2 630.0 444.5 C 645.3 443.7 660.7 443.0 676.0 442.2 C 691.3 441.4 706.7 440.5 722.0 439.6 C 737.3 438.8 752.7 437.9 768.0 436.9 C 783.3 436.0 798.7 435.0 814.0 434.1 C 829.3 433.1 844.7 432.1 860.0 431.1 C 875.3 430.1 890.7 429.2 906.0 428.2 C 921.3 427.2 936.7 426.2 952.0 425.3 C 967.3 424.3 982.7 423.4 998.0 422.5 C 1013.3 421.6 1028.7 420.8 1044.0 419.9 C 1059.3 419.1 1074.7 418.3 1090.0 417.6 C 1105.3 416.9 1120.7 416.2 1136.0 415.6 C 1151.3 415.0 1166.7 414.4 1182.0 413.9 C 1197.3 413.5 1212.7 413.0 1228.0 412.7 C 1243.3 412.3 1258.7 412.0 1274.0 411.8 C 1289.3 411.6 1304.7 411.5 1320.0 411.4 C 1335.3 411.3 1350.7 411.3 1366.0 411.4 C 1381.3 411.4 1396.7 411.5 1412.0 411.7 C 1427.3 411.9 1442.7 412.1 1458.0 412.4 C 1473.3 412.7 1488.7 413.0 1504.0 413.4 C 1519.3 413.7 1534.7 414.1 1550.0 414.6 C 1565.3 415.0 1580.7 415.4 1596.0 415.9 C 1611.3 416.4 1634.3 417.1 1642.0 417.3" stroke="#F5F0E8" stroke-width="1" stroke-opacity="0.091" fill="none" stroke-linecap="round"/><path d="M -60.0 524.9 C -52.3 526.0 -29.3 529.5 -14.0 531.6 C 1.3 533.7 16.7 535.7 32.0 537.4 C 47.3 539.1 62.7 540.7 78.0 542.0 C 93.3 543.2 108.7 544.3 124.0 544.9 C 139.3 545.6 154.7 545.9 170.0 545.9 C 185.3 545.9 200.7 545.5 216.0 544.8 C 231.3 544.1 246.7 543.1 262.0 541.7 C 277.3 540.4 292.7 538.6 308.0 536.7 C 323.3 534.8 338.7 532.5 354.0 530.1 C 369.3 527.7 384.7 525.0 400.0 522.4 C 415.3 519.7 430.7 516.8 446.0 514.0 C 461.3 511.2 476.7 508.3 492.0 505.5 C 507.3 502.8 522.7 500.1 538.0 497.7 C 553.3 495.2 568.7 492.9 584.0 491.0 C 599.3 489.0 614.7 487.2 630.0 485.9 C 645.3 484.6 660.7 483.5 676.0 482.9 C 691.3 482.4 706.7 482.1 722.0 482.3 C 737.3 482.6 752.7 483.2 768.0 484.2 C 783.3 485.3 798.7 486.8 814.0 488.6 C 829.3 490.4 844.7 492.7 860.0 495.2 C 875.3 497.7 890.7 500.6 906.0 503.7 C 921.3 506.7 936.7 510.1 952.0 513.6 C 967.3 517.0 982.7 520.7 998.0 524.3 C 1013.3 527.9 1028.7 531.7 1044.0 535.2 C 1059.3 538.8 1074.7 542.4 1090.0 545.8 C 1105.3 549.1 1120.7 552.4 1136.0 555.3 C 1151.3 558.2 1166.7 560.9 1182.0 563.2 C 1197.3 565.5 1212.7 567.5 1228.0 569.1 C 1243.3 570.7 1258.7 572.0 1274.0 572.8 C 1289.3 573.6 1304.7 574.0 1320.0 574.1 C 1335.3 574.1 1350.7 573.8 1366.0 573.1 C 1381.3 572.4 1396.7 571.3 1412.0 569.9 C 1427.3 568.6 1442.7 566.9 1458.0 565.0 C 1473.3 563.2 1488.7 561.0 1504.0 558.8 C 1519.3 556.6 1534.7 554.2 1550.0 551.9 C 1565.3 549.6 1580.7 547.1 1596.0 544.8 C 1611.3 542.5 1634.3 539.3 1642.0 538.2" stroke="#F5F0E8" stroke-width="1" stroke-opacity="0.073" fill="none" stroke-linecap="round"/><path d="M -60.0 546.2 C -52.3 545.2 -29.3 542.3 -14.0 540.4 C 1.3 538.4 16.7 536.4 32.0 534.4 C 47.3 532.5 62.7 530.5 78.0 528.6 C 93.3 526.7 108.7 524.9 124.0 523.1 C 139.3 521.3 154.7 519.7 170.0 518.1 C 185.3 516.6 200.7 515.1 216.0 513.8 C 231.3 512.5 246.7 511.3 262.0 510.3 C 277.3 509.3 292.7 508.5 308.0 507.8 C 323.3 507.2 338.7 506.7 354.0 506.4 C 369.3 506.0 384.7 505.9 400.0 506.0 C 415.3 506.0 430.7 506.2 446.0 506.6 C 461.3 507.0 476.7 507.6 492.0 508.4 C 507.3 509.1 522.7 510.0 538.0 511.0 C 553.3 512.0 568.7 513.2 584.0 514.5 C 599.3 515.8 614.7 517.2 630.0 518.6 C 645.3 520.1 660.7 521.7 676.0 523.3 C 691.3 524.9 706.7 526.5 722.0 528.2 C 737.3 529.8 752.7 531.5 768.0 533.2 C 783.3 534.8 798.7 536.5 814.0 538.0 C 829.3 539.6 844.7 541.1 860.0 542.5 C 875.3 543.9 890.7 545.2 906.0 546.4 C 921.3 547.6 936.7 548.7 952.0 549.6 C 967.3 550.6 982.7 551.4 998.0 552.0 C 1013.3 552.6 1028.7 553.1 1044.0 553.3 C 1059.3 553.6 1074.7 553.7 1090.0 553.6 C 1105.3 553.5 1120.7 553.2 1136.0 552.8 C 1151.3 552.3 1166.7 551.7 1182.0 550.9 C 1197.3 550.0 1212.7 549.0 1228.0 547.9 C 1243.3 546.8 1258.7 545.4 1274.0 544.0 C 1289.3 542.6 1304.7 541.0 1320.0 539.3 C 1335.3 537.6 1350.7 535.8 1366.0 533.9 C 1381.3 532.1 1396.7 530.1 1412.0 528.1 C 1427.3 526.1 1442.7 524.0 1458.0 522.0 C 1473.3 520.0 1488.7 517.9 1504.0 515.9 C 1519.3 513.9 1534.7 511.8 1550.0 509.9 C 1565.3 508.0 1580.7 506.1 1596.0 504.4 C 1611.3 502.6 1634.3 500.2 1642.0 499.4" stroke="#F5F0E8" stroke-width="1.5" stroke-opacity="0.193" fill="none" stroke-linecap="round"/><path d="M -60.0 562.3 C -52.3 563.4 -29.3 566.8 -14.0 569.0 C 1.3 571.2 16.7 573.4 32.0 575.4 C 47.3 577.5 62.7 579.4 78.0 581.2 C 93.3 583.0 108.7 584.7 124.0 586.2 C 139.3 587.7 154.7 589.0 170.0 590.3 C 185.3 591.5 200.7 592.5 216.0 593.5 C 231.3 594.4 246.7 595.2 262.0 596.0 C 277.3 596.7 292.7 597.3 308.0 597.8 C 323.3 598.3 338.7 598.8 354.0 599.2 C 369.3 599.7 384.7 600.1 400.0 600.5 C 415.3 600.9 430.7 601.3 446.0 601.7 C 461.3 602.2 476.7 602.7 492.0 603.2 C 507.3 603.7 522.7 604.3 538.0 605.0 C 553.3 605.6 568.7 606.4 584.0 607.1 C 599.3 607.9 614.7 608.8 630.0 609.7 C 645.3 610.6 660.7 611.5 676.0 612.5 C 691.3 613.5 706.7 614.5 722.0 615.5 C 737.3 616.4 752.7 617.5 768.0 618.4 C 783.3 619.3 798.7 620.2 814.0 621.1 C 829.3 621.9 844.7 622.6 860.0 623.3 C 875.3 623.9 890.7 624.5 906.0 624.9 C 921.3 625.3 936.7 625.6 952.0 625.8 C 967.3 625.9 982.7 625.9 998.0 625.9 C 1013.3 625.8 1028.7 625.5 1044.0 625.2 C 1059.3 624.9 1074.7 624.4 1090.0 623.9 C 1105.3 623.4 1120.7 622.8 1136.0 622.2 C 1151.3 621.7 1166.7 621.0 1182.0 620.4 C 1197.3 619.8 1212.7 619.3 1228.0 618.8 C 1243.3 618.4 1258.7 617.9 1274.0 617.7 C 1289.3 617.5 1304.7 617.4 1320.0 617.6 C 1335.3 617.7 1350.7 618.0 1366.0 618.6 C 1381.3 619.1 1396.7 619.9 1412.0 621.0 C 1427.3 622.0 1442.7 623.4 1458.0 624.9 C 1473.3 626.5 1488.7 628.4 1504.0 630.4 C 1519.3 632.5 1534.7 634.9 1550.0 637.4 C 1565.3 639.9 1580.7 642.7 1596.0 645.6 C 1611.3 648.5 1634.3 653.1 1642.0 654.6" stroke="#F5F0E8" stroke-width="1" stroke-opacity="0.047" fill="none" stroke-linecap="round"/><path d="M -60.0 586.5 C -52.3 586.7 -29.3 587.3 -14.0 587.8 C 1.3 588.2 16.7 588.8 32.0 589.4 C 47.3 590.0 62.7 590.7 78.0 591.4 C 93.3 592.1 108.7 592.8 124.0 593.6 C 139.3 594.4 154.7 595.3 170.0 596.1 C 185.3 597.0 200.7 597.9 216.0 598.8 C 231.3 599.7 246.7 600.6 262.0 601.5 C 277.3 602.5 292.7 603.4 308.0 604.4 C 323.3 605.3 338.7 606.3 354.0 607.2 C 369.3 608.1 384.7 609.1 400.0 610.0 C 415.3 610.9 430.7 611.8 446.0 612.6 C 461.3 613.5 476.7 614.3 492.0 615.1 C 507.3 615.9 522.7 616.7 538.0 617.4 C 553.3 618.1 568.7 618.8 584.0 619.5 C 599.3 620.1 614.7 620.7 630.0 621.3 C 645.3 621.9 660.7 622.4 676.0 622.9 C 691.3 623.4 706.7 623.8 722.0 624.2 C 737.3 624.6 752.7 624.9 768.0 625.2 C 783.3 625.5 798.7 625.8 814.0 626.0 C 829.3 626.3 844.7 626.4 860.0 626.6 C 875.3 626.7 890.7 626.9 906.0 626.9 C 921.3 627.0 936.7 627.1 952.0 627.1 C 967.3 627.2 982.7 627.2 998.0 627.2 C 1013.3 627.2 1028.7 627.1 1044.0 627.1 C 1059.3 627.1 1074.7 627.0 1090.0 626.9 C 1105.3 626.9 1120.7 626.8 1136.0 626.8 C 1151.3 626.7 1166.7 626.6 1182.0 626.5 C 1197.3 626.5 1212.7 626.4 1228.0 626.4 C 1243.3 626.3 1258.7 626.3 1274.0 626.2 C 1289.3 626.2 1304.7 626.1 1320.0 626.1 C 1335.3 626.1 1350.7 626.1 1366.0 626.1 C 1381.3 626.1 1396.7 626.1 1412.0 626.1 C 1427.3 626.2 1442.7 626.2 1458.0 626.3 C 1473.3 626.3 1488.7 626.4 1504.0 626.4 C 1519.3 626.5 1534.7 626.6 1550.0 626.6 C 1565.3 626.7 1580.7 626.8 1596.0 626.9 C 1611.3 627.0 1634.3 627.1 1642.0 627.1" stroke="#F5F0E8" stroke-width="1" stroke-opacity="0.083" fill="none" stroke-linecap="round"/><path d="M -60.0 639.3 C -52.3 639.1 -29.3 638.5 -14.0 638.2 C 1.3 637.8 16.7 637.4 32.0 637.0 C 47.3 636.7 62.7 636.4 78.0 636.2 C 93.3 635.9 108.7 635.8 124.0 635.7 C 139.3 635.6 154.7 635.6 170.0 635.7 C 185.3 635.8 200.7 636.1 216.0 636.4 C 231.3 636.7 246.7 637.2 262.0 637.7 C 277.3 638.3 292.7 639.0 308.0 639.7 C 323.3 640.5 338.7 641.4 354.0 642.4 C 369.3 643.4 384.7 644.4 400.0 645.6 C 415.3 646.7 430.7 647.9 446.0 649.2 C 461.3 650.4 476.7 651.7 492.0 653.0 C 507.3 654.3 522.7 655.6 538.0 656.9 C 553.3 658.1 568.7 659.4 584.0 660.6 C 599.3 661.8 614.7 663.0 630.0 664.1 C 645.3 665.1 660.7 666.1 676.0 667.0 C 691.3 667.9 706.7 668.7 722.0 669.4 C 737.3 670.1 752.7 670.7 768.0 671.2 C 783.3 671.6 798.7 672.0 814.0 672.2 C 829.3 672.5 844.7 672.6 860.0 672.6 C 875.3 672.7 890.7 672.6 906.0 672.4 C 921.3 672.3 936.7 672.1 952.0 671.8 C 967.3 671.5 982.7 671.2 998.0 670.8 C 1013.3 670.5 1028.7 670.1 1044.0 669.7 C 1059.3 669.4 1074.7 669.0 1090.0 668.7 C 1105.3 668.4 1120.7 668.1 1136.0 667.9 C 1151.3 667.7 1166.7 667.5 1182.0 667.5 C 1197.3 667.4 1212.7 667.4 1228.0 667.6 C 1243.3 667.7 1258.7 668.0 1274.0 668.3 C 1289.3 668.7 1304.7 669.1 1320.0 669.7 C 1335.3 670.3 1350.7 671.0 1366.0 671.7 C 1381.3 672.5 1396.7 673.4 1412.0 674.3 C 1427.3 675.2 1442.7 676.3 1458.0 677.3 C 1473.3 678.3 1488.7 679.5 1504.0 680.6 C 1519.3 681.7 1534.7 682.8 1550.0 683.9 C 1565.3 685.0 1580.7 686.1 1596.0 687.1 C 1611.3 688.0 1634.3 689.4 1642.0 689.8" stroke="#F5F0E8" stroke-width="1" stroke-opacity="0.058" fill="none" stroke-linecap="round"/><path d="M -60.0 672.8 C -52.3 673.7 -29.3 676.2 -14.0 678.0 C 1.3 679.7 16.7 681.6 32.0 683.4 C 47.3 685.2 62.7 687.1 78.0 688.9 C 93.3 690.7 108.7 692.5 124.0 694.2 C 139.3 696.0 154.7 697.7 170.0 699.3 C 185.3 700.9 200.7 702.4 216.0 703.8 C 231.3 705.2 246.7 706.5 262.0 707.6 C 277.3 708.7 292.7 709.7 308.0 710.6 C 323.3 711.4 338.7 712.1 354.0 712.7 C 369.3 713.2 384.7 713.6 400.0 713.8 C 415.3 714.0 430.7 714.1 446.0 714.0 C 461.3 713.9 476.7 713.6 492.0 713.3 C 507.3 712.9 522.7 712.4 538.0 711.8 C 553.3 711.2 568.7 710.4 584.0 709.6 C 599.3 708.8 614.7 707.9 630.0 707.0 C 645.3 706.1 660.7 705.1 676.0 704.2 C 691.3 703.2 706.7 702.2 722.0 701.3 C 737.3 700.4 752.7 699.4 768.0 698.6 C 783.3 697.8 798.7 697.0 814.0 696.3 C 829.3 695.7 844.7 695.1 860.0 694.7 C 875.3 694.3 890.7 694.0 906.0 693.8 C 921.3 693.7 936.7 693.7 952.0 693.9 C 967.3 694.1 982.7 694.5 998.0 695.0 C 1013.3 695.6 1028.7 696.3 1044.0 697.2 C 1059.3 698.1 1074.7 699.2 1090.0 700.5 C 1105.3 701.7 1120.7 703.1 1136.0 704.7 C 1151.3 706.2 1166.7 708.0 1182.0 709.8 C 1197.3 711.6 1212.7 713.6 1228.0 715.6 C 1243.3 717.7 1258.7 719.8 1274.0 722.0 C 1289.3 724.2 1304.7 726.5 1320.0 728.7 C 1335.3 731.0 1350.7 733.3 1366.0 735.6 C 1381.3 737.9 1396.7 740.1 1412.0 742.3 C 1427.3 744.5 1442.7 746.7 1458.0 748.8 C 1473.3 750.8 1488.7 752.8 1504.0 754.6 C 1519.3 756.5 1534.7 758.3 1550.0 759.9 C 1565.3 761.5 1580.7 762.9 1596.0 764.2 C 1611.3 765.6 1634.3 767.1 1642.0 767.7" stroke="#F5F0E8" stroke-width="1.5" stroke-opacity="0.253" fill="none" stroke-linecap="round"/><path d="M -60.0 691.4 C -52.3 691.4 -29.3 691.5 -14.0 691.7 C 1.3 692.0 16.7 692.4 32.0 693.0 C 47.3 693.5 62.7 694.3 78.0 695.1 C 93.3 695.9 108.7 696.9 124.0 698.0 C 139.3 699.1 154.7 700.3 170.0 701.6 C 185.3 702.9 200.7 704.3 216.0 705.7 C 231.3 707.1 246.7 708.7 262.0 710.2 C 277.3 711.7 292.7 713.3 308.0 714.8 C 323.3 716.4 338.7 717.9 354.0 719.5 C 369.3 721.0 384.7 722.5 400.0 723.9 C 415.3 725.3 430.7 726.7 446.0 727.9 C 461.3 729.2 476.7 730.4 492.0 731.4 C 507.3 732.5 522.7 733.4 538.0 734.2 C 553.3 735.0 568.7 735.7 584.0 736.2 C 599.3 736.8 614.7 737.2 630.0 737.4 C 645.3 737.6 660.7 737.7 676.0 737.6 C 691.3 737.5 706.7 737.3 722.0 736.9 C 737.3 736.6 752.7 736.0 768.0 735.4 C 783.3 734.7 798.7 733.9 814.0 733.0 C 829.3 732.1 844.7 731.1 860.0 730.0 C 875.3 728.9 890.7 727.7 906.0 726.4 C 921.3 725.2 936.7 723.8 952.0 722.4 C 967.3 721.1 982.7 719.7 998.0 718.3 C 1013.3 716.9 1028.7 715.4 1044.0 714.1 C 1059.3 712.7 1074.7 711.3 1090.0 710.0 C 1105.3 708.7 1120.7 707.4 1136.0 706.3 C 1151.3 705.1 1166.7 704.0 1182.0 703.1 C 1197.3 702.1 1212.7 701.2 1228.0 700.5 C 1243.3 699.8 1258.7 699.1 1274.0 698.6 C 1289.3 698.2 1304.7 697.8 1320.0 697.6 C 1335.3 697.4 1350.7 697.4 1366.0 697.5 C 1381.3 697.6 1396.7 697.8 1412.0 698.2 C 1427.3 698.6 1442.7 699.1 1458.0 699.7 C 1473.3 700.4 1488.7 701.2 1504.0 702.1 C 1519.3 703.0 1534.7 704.0 1550.0 705.1 C 1565.3 706.1 1580.7 707.3 1596.0 708.6 C 1611.3 709.8 1634.3 711.8 1642.0 712.5" stroke="#F5F0E8" stroke-width="1" stroke-opacity="0.056" fill="none" stroke-linecap="round"/><path d="M -60.0 731.1 C -52.3 730.8 -29.3 729.4 -14.0 728.8 C 1.3 728.2 16.7 727.7 32.0 727.4 C 47.3 727.1 62.7 727.0 78.0 727.0 C 93.3 727.0 108.7 727.2 124.0 727.5 C 139.3 727.9 154.7 728.4 170.0 729.0 C 185.3 729.6 200.7 730.3 216.0 731.2 C 231.3 732.0 246.7 733.0 262.0 734.0 C 277.3 735.1 292.7 736.2 308.0 737.3 C 323.3 738.4 338.7 739.6 354.0 740.7 C 369.3 741.9 384.7 743.1 400.0 744.2 C 415.3 745.3 430.7 746.4 446.0 747.4 C 461.3 748.4 476.7 749.3 492.0 750.2 C 507.3 751.0 522.7 751.8 538.0 752.5 C 553.3 753.2 568.7 753.7 584.0 754.2 C 599.3 754.7 614.7 755.1 630.0 755.4 C 645.3 755.7 660.7 755.9 676.0 756.0 C 691.3 756.1 706.7 756.2 722.0 756.2 C 737.3 756.2 752.7 756.2 768.0 756.2 C 783.3 756.1 798.7 756.1 814.0 756.0 C 829.3 756.0 844.7 756.0 860.0 756.1 C 875.3 756.1 890.7 756.2 906.0 756.4 C 921.3 756.6 936.7 756.9 952.0 757.3 C 967.3 757.7 982.7 758.3 998.0 758.9 C 1013.3 759.6 1028.7 760.4 1044.0 761.3 C 1059.3 762.3 1074.7 763.3 1090.0 764.6 C 1105.3 765.8 1120.7 767.2 1136.0 768.7 C 1151.3 770.2 1166.7 771.8 1182.0 773.5 C 1197.3 775.3 1212.7 777.1 1228.0 779.0 C 1243.3 780.9 1258.7 783.0 1274.0 785.0 C 1289.3 787.0 1304.7 789.1 1320.0 791.2 C 1335.3 793.2 1350.7 795.3 1366.0 797.3 C 1381.3 799.3 1396.7 801.3 1412.0 803.2 C 1427.3 805.1 1442.7 806.9 1458.0 808.5 C 1473.3 810.2 1488.7 811.8 1504.0 813.2 C 1519.3 814.6 1534.7 815.8 1550.0 816.9 C 1565.3 818.0 1580.7 818.9 1596.0 819.6 C 1611.3 820.4 1634.3 821.0 1642.0 821.3" stroke="#F5F0E8" stroke-width="1" stroke-opacity="0.079" fill="none" stroke-linecap="round"/><path d="M -60.0 784.9 C -52.3 784.4 -29.3 783.1 -14.0 782.2 C 1.3 781.3 16.7 780.4 32.0 779.5 C 47.3 778.7 62.7 777.8 78.0 777.1 C 93.3 776.3 108.7 775.6 124.0 774.9 C 139.3 774.3 154.7 773.7 170.0 773.3 C 185.3 772.8 200.7 772.4 216.0 772.2 C 231.3 771.9 246.7 771.7 262.0 771.6 C 277.3 771.5 292.7 771.6 308.0 771.6 C 323.3 771.7 338.7 771.9 354.0 772.1 C 369.3 772.4 384.7 772.7 400.0 773.0 C 415.3 773.3 430.7 773.7 446.0 774.0 C 461.3 774.3 476.7 774.7 492.0 775.0 C 507.3 775.3 522.7 775.7 538.0 775.9 C 553.3 776.1 568.7 776.3 584.0 776.3 C 599.3 776.4 614.7 776.4 630.0 776.3 C 645.3 776.2 660.7 776.0 676.0 775.7 C 691.3 775.3 706.7 774.9 722.0 774.3 C 737.3 773.8 752.7 773.1 768.0 772.3 C 783.3 771.5 798.7 770.6 814.0 769.7 C 829.3 768.7 844.7 767.6 860.0 766.5 C 875.3 765.4 890.7 764.2 906.0 763.0 C 921.3 761.8 936.7 760.5 952.0 759.2 C 967.3 758.0 982.7 756.7 998.0 755.5 C 1013.3 754.2 1028.7 753.0 1044.0 751.8 C 1059.3 750.7 1074.7 749.6 1090.0 748.5 C 1105.3 747.5 1120.7 746.5 1136.0 745.6 C 1151.3 744.8 1166.7 743.9 1182.0 743.2 C 1197.3 742.5 1212.7 741.9 1228.0 741.3 C 1243.3 740.8 1258.7 740.3 1274.0 739.9 C 1289.3 739.4 1304.7 739.1 1320.0 738.8 C 1335.3 738.5 1350.7 738.2 1366.0 737.9 C 1381.3 737.7 1396.7 737.4 1412.0 737.2 C 1427.3 736.9 1442.7 736.6 1458.0 736.3 C 1473.3 736.0 1488.7 735.6 1504.0 735.2 C 1519.3 734.7 1534.7 734.2 1550.0 733.6 C 1565.3 733.0 1580.7 732.3 1596.0 731.5 C 1611.3 730.6 1634.3 729.2 1642.0 728.7" stroke="#F5F0E8" stroke-width="1" stroke-opacity="0.089" fill="none" stroke-linecap="round"/><path d="M -60.0 813.4 C -52.3 814.2 -29.3 816.6 -14.0 818.1 C 1.3 819.6 16.7 821.0 32.0 822.3 C 47.3 823.6 62.7 824.8 78.0 825.8 C 93.3 826.9 108.7 827.7 124.0 828.4 C 139.3 829.1 154.7 829.7 170.0 830.0 C 185.3 830.4 200.7 830.6 216.0 830.7 C 231.3 830.8 246.7 830.8 262.0 830.7 C 277.3 830.6 292.7 830.3 308.0 830.1 C 323.3 830.0 338.7 829.7 354.0 829.5 C 369.3 829.4 384.7 829.2 400.0 829.2 C 415.3 829.2 430.7 829.2 446.0 829.5 C 461.3 829.7 476.7 830.1 492.0 830.7 C 507.3 831.3 522.7 832.1 538.0 833.1 C 553.3 834.1 568.7 835.3 584.0 836.8 C 599.3 838.2 614.7 839.8 630.0 841.6 C 645.3 843.4 660.7 845.3 676.0 847.4 C 691.3 849.4 706.7 851.7 722.0 853.9 C 737.3 856.1 752.7 858.4 768.0 860.6 C 783.3 862.8 798.7 865.0 814.0 867.1 C 829.3 869.2 844.7 871.2 860.0 873.0 C 875.3 874.7 890.7 876.4 906.0 877.7 C 921.3 879.1 936.7 880.2 952.0 881.0 C 967.3 881.9 982.7 882.4 998.0 882.7 C 1013.3 883.0 1028.7 883.0 1044.0 882.8 C 1059.3 882.5 1074.7 881.9 1090.0 881.2 C 1105.3 880.5 1120.7 879.4 1136.0 878.3 C 1151.3 877.2 1166.7 875.9 1182.0 874.6 C 1197.3 873.2 1212.7 871.7 1228.0 870.4 C 1243.3 869.0 1258.7 867.5 1274.0 866.2 C 1289.3 865.0 1304.7 863.7 1320.0 862.7 C 1335.3 861.8 1350.7 860.9 1366.0 860.3 C 1381.3 859.8 1396.7 859.4 1412.0 859.4 C 1427.3 859.4 1442.7 859.6 1458.0 860.1 C 1473.3 860.6 1488.7 861.5 1504.0 862.6 C 1519.3 863.7 1534.7 865.1 1550.0 866.7 C 1565.3 868.3 1580.7 870.1 1596.0 872.1 C 1611.3 874.1 1634.3 877.5 1642.0 878.6" stroke="#F5F0E8" stroke-width="1.5" stroke-opacity="0.225" fill="none" stroke-linecap="round"/><path d="M -60.0 872.0 C -52.3 872.3 -29.3 873.3 -14.0 873.7 C 1.3 874.1 16.7 874.2 32.0 874.2 C 47.3 874.2 62.7 873.9 78.0 873.6 C 93.3 873.3 108.7 872.7 124.0 872.1 C 139.3 871.6 154.7 870.8 170.0 870.1 C 185.3 869.4 200.7 868.5 216.0 867.7 C 231.3 866.9 246.7 866.1 262.0 865.4 C 277.3 864.6 292.7 863.9 308.0 863.3 C 323.3 862.7 338.7 862.1 354.0 861.7 C 369.3 861.3 384.7 861.0 400.0 860.9 C 415.3 860.7 430.7 860.7 446.0 860.9 C 461.3 861.0 476.7 861.3 492.0 861.7 C 507.3 862.2 522.7 862.8 538.0 863.5 C 553.3 864.2 568.7 865.0 584.0 865.9 C 599.3 866.9 614.7 867.9 630.0 869.0 C 645.3 870.1 660.7 871.3 676.0 872.4 C 691.3 873.6 706.7 874.8 722.0 876.0 C 737.3 877.2 752.7 878.4 768.0 879.6 C 783.3 880.7 798.7 881.8 814.0 882.9 C 829.3 883.9 844.7 884.9 860.0 885.7 C 875.3 886.6 890.7 887.4 906.0 888.1 C 921.3 888.8 936.7 889.4 952.0 889.9 C 967.3 890.4 982.7 890.8 998.0 891.2 C 1013.3 891.5 1028.7 891.8 1044.0 892.0 C 1059.3 892.2 1074.7 892.3 1090.0 892.4 C 1105.3 892.6 1120.7 892.6 1136.0 892.7 C 1151.3 892.8 1166.7 892.9 1182.0 893.1 C 1197.3 893.2 1212.7 893.4 1228.0 893.6 C 1243.3 893.9 1258.7 894.2 1274.0 894.6 C 1289.3 895.0 1304.7 895.4 1320.0 896.0 C 1335.3 896.6 1350.7 897.3 1366.0 898.1 C 1381.3 898.9 1396.7 899.9 1412.0 900.9 C 1427.3 901.9 1442.7 903.0 1458.0 904.3 C 1473.3 905.5 1488.7 906.8 1504.0 908.2 C 1519.3 909.6 1534.7 911.0 1550.0 912.5 C 1565.3 914.0 1580.7 915.5 1596.0 917.0 C 1611.3 918.5 1634.3 920.8 1642.0 921.6" stroke="#F5F0E8" stroke-width="1" stroke-opacity="0.091" fill="none" stroke-linecap="round"/><path d="M -60.0 897.4 C -52.3 897.3 -29.3 897.3 -14.0 897.1 C 1.3 896.9 16.7 896.5 32.0 896.0 C 47.3 895.6 62.7 895.0 78.0 894.3 C 93.3 893.6 108.7 892.8 124.0 892.0 C 139.3 891.1 154.7 890.1 170.0 889.1 C 185.3 888.2 200.7 887.1 216.0 886.0 C 231.3 885.0 246.7 883.9 262.0 882.8 C 277.3 881.8 292.7 880.7 308.0 879.8 C 323.3 878.8 338.7 877.9 354.0 877.1 C 369.3 876.2 384.7 875.5 400.0 874.9 C 415.3 874.2 430.7 873.7 446.0 873.3 C 461.3 873.0 476.7 872.7 492.0 872.6 C 507.3 872.5 522.7 872.5 538.0 872.7 C 553.3 872.9 568.7 873.2 584.0 873.7 C 599.3 874.1 614.7 874.7 630.0 875.3 C 645.3 876.0 660.7 876.8 676.0 877.6 C 691.3 878.5 706.7 879.4 722.0 880.4 C 737.3 881.4 752.7 882.4 768.0 883.4 C 783.3 884.5 798.7 885.5 814.0 886.5 C 829.3 887.5 844.7 888.6 860.0 889.5 C 875.3 890.4 890.7 891.3 906.0 892.1 C 921.3 892.9 936.7 893.6 952.0 894.2 C 967.3 894.8 982.7 895.3 998.0 895.7 C 1013.3 896.1 1028.7 896.4 1044.0 896.5 C 1059.3 896.7 1074.7 896.8 1090.0 896.7 C 1105.3 896.6 1120.7 896.5 1136.0 896.2 C 1151.3 896.0 1166.7 895.6 1182.0 895.2 C 1197.3 894.8 1212.7 894.3 1228.0 893.8 C 1243.3 893.3 1258.7 892.7 1274.0 892.1 C 1289.3 891.5 1304.7 890.9 1320.0 890.3 C 1335.3 889.7 1350.7 889.1 1366.0 888.6 C 1381.3 888.0 1396.7 887.5 1412.0 887.1 C 1427.3 886.6 1442.7 886.2 1458.0 885.9 C 1473.3 885.5 1488.7 885.2 1504.0 885.0 C 1519.3 884.8 1534.7 884.7 1550.0 884.6 C 1565.3 884.5 1580.7 884.5 1596.0 884.5 C 1611.3 884.6 1634.3 884.7 1642.0 884.8" stroke="#F5F0E8" stroke-width="1" stroke-opacity="0.088" fill="none" stroke-linecap="round"/><path d="M -60.0 917.5 C -52.3 917.9 -29.3 918.8 -14.0 919.6 C 1.3 920.3 16.7 921.0 32.0 921.8 C 47.3 922.6 62.7 923.4 78.0 924.2 C 93.3 925.0 108.7 925.8 124.0 926.7 C 139.3 927.5 154.7 928.4 170.0 929.2 C 185.3 930.1 200.7 930.9 216.0 931.7 C 231.3 932.5 246.7 933.3 262.0 934.1 C 277.3 934.9 292.7 935.6 308.0 936.4 C 323.3 937.1 338.7 937.7 354.0 938.4 C 369.3 939.0 384.7 939.6 400.0 940.2 C 415.3 940.7 430.7 941.3 446.0 941.7 C 461.3 942.2 476.7 942.7 492.0 943.1 C 507.3 943.5 522.7 943.9 538.0 944.3 C 553.3 944.7 568.7 945.1 584.0 945.5 C 599.3 945.8 614.7 946.2 630.0 946.6 C 645.3 947.0 660.7 947.4 676.0 947.8 C 691.3 948.3 706.7 948.7 722.0 949.2 C 737.3 949.7 752.7 950.3 768.0 950.9 C 783.3 951.5 798.7 952.1 814.0 952.8 C 829.3 953.5 844.7 954.3 860.0 955.1 C 875.3 956.0 890.7 956.8 906.0 957.8 C 921.3 958.7 936.7 959.7 952.0 960.7 C 967.3 961.7 982.7 962.8 998.0 963.8 C 1013.3 964.9 1028.7 966.0 1044.0 967.1 C 1059.3 968.2 1074.7 969.4 1090.0 970.5 C 1105.3 971.6 1120.7 972.7 1136.0 973.7 C 1151.3 974.7 1166.7 975.7 1182.0 976.7 C 1197.3 977.6 1212.7 978.5 1228.0 979.3 C 1243.3 980.0 1258.7 980.7 1274.0 981.3 C 1289.3 981.9 1304.7 982.5 1320.0 982.9 C 1335.3 983.3 1350.7 983.5 1366.0 983.7 C 1381.3 983.9 1396.7 984.0 1412.0 983.9 C 1427.3 983.9 1442.7 983.8 1458.0 983.5 C 1473.3 983.3 1488.7 983.0 1504.0 982.6 C 1519.3 982.2 1534.7 981.7 1550.0 981.2 C 1565.3 980.7 1580.7 980.2 1596.0 979.6 C 1611.3 979.0 1634.3 978.2 1642.0 977.9" stroke="#F5F0E8" stroke-width="1" stroke-opacity="0.051" fill="none" stroke-linecap="round"/><path d="M -60.0 949.8 C -52.3 949.5 -29.3 948.4 -14.0 947.7 C 1.3 947.0 16.7 946.4 32.0 945.8 C 47.3 945.2 62.7 944.6 78.0 944.1 C 93.3 943.6 108.7 943.1 124.0 942.7 C 139.3 942.2 154.7 941.8 170.0 941.4 C 185.3 941.0 200.7 940.7 216.0 940.4 C 231.3 940.1 246.7 939.8 262.0 939.5 C 277.3 939.3 292.7 939.1 308.0 938.8 C 323.3 938.6 338.7 938.5 354.0 938.3 C 369.3 938.2 384.7 938.0 400.0 937.9 C 415.3 937.8 430.7 937.7 446.0 937.6 C 461.3 937.5 476.7 937.4 492.0 937.3 C 507.3 937.3 522.7 937.2 538.0 937.1 C 553.3 937.1 568.7 937.0 584.0 936.9 C 599.3 936.9 614.7 936.8 630.0 936.7 C 645.3 936.6 660.7 936.6 676.0 936.5 C 691.3 936.4 706.7 936.3 722.0 936.2 C 737.3 936.0 752.7 935.9 768.0 935.8 C 783.3 935.6 798.7 935.4 814.0 935.2 C 829.3 935.0 844.7 934.8 860.0 934.6 C 875.3 934.4 890.7 934.1 906.0 933.8 C 921.3 933.5 936.7 933.2 952.0 932.8 C 967.3 932.5 982.7 932.1 998.0 931.7 C 1013.3 931.3 1028.7 930.9 1044.0 930.4 C 1059.3 930.0 1074.7 929.5 1090.0 928.9 C 1105.3 928.4 1120.7 927.9 1136.0 927.3 C 1151.3 926.7 1166.7 926.1 1182.0 925.5 C 1197.3 924.8 1212.7 924.1 1228.0 923.5 C 1243.3 922.8 1258.7 922.0 1274.0 921.3 C 1289.3 920.6 1304.7 919.8 1320.0 919.0 C 1335.3 918.2 1350.7 917.4 1366.0 916.6 C 1381.3 915.8 1396.7 914.9 1412.0 914.1 C 1427.3 913.2 1442.7 912.3 1458.0 911.4 C 1473.3 910.6 1488.7 909.7 1504.0 908.8 C 1519.3 907.9 1534.7 907.0 1550.0 906.1 C 1565.3 905.2 1580.7 904.2 1596.0 903.3 C 1611.3 902.4 1634.3 901.1 1642.0 900.6" stroke="#F5F0E8" stroke-width="1.5" stroke-opacity="0.246" fill="none" stroke-linecap="round"/></g>
<path d="M -60.0 433.8 C -52.3 433.8 -29.3 433.9 -14.0 433.8 C 1.3 433.7 16.7 433.4 32.0 433.2 C 47.3 433.0 62.7 432.6 78.0 432.3 C 93.3 431.9 108.7 431.5 124.0 431.1 C 139.3 430.7 154.7 430.2 170.0 429.8 C 185.3 429.4 200.7 429.0 216.0 428.6 C 231.3 428.2 246.7 427.9 262.0 427.6 C 277.3 427.3 292.7 427.0 308.0 426.8 C 323.3 426.6 338.7 426.5 354.0 426.4 C 369.3 426.4 384.7 426.4 400.0 426.4 C 415.3 426.5 430.7 426.7 446.0 426.9 C 461.3 427.1 476.7 427.3 492.0 427.6 C 507.3 428.0 522.7 428.3 538.0 428.7 C 553.3 429.1 568.7 429.5 584.0 430.0 C 599.3 430.4 614.7 430.8 630.0 431.3 C 645.3 431.7 660.7 432.1 676.0 432.5 C 691.3 432.9 706.7 433.2 722.0 433.5 C 737.3 433.8 752.7 434.1 768.0 434.2 C 783.3 434.4 798.7 434.5 814.0 434.5 C 829.3 434.5 844.7 434.5 860.0 434.4 C 875.3 434.2 890.7 434.0 906.0 433.7 C 921.3 433.4 936.7 433.0 952.0 432.6 C 967.3 432.1 982.7 431.6 998.0 431.1 C 1013.3 430.5 1028.7 429.9 1044.0 429.2 C 1059.3 428.6 1074.7 427.9 1090.0 427.2 C 1105.3 426.6 1120.7 425.9 1136.0 425.2 C 1151.3 424.6 1166.7 423.9 1182.0 423.4 C 1197.3 422.8 1212.7 422.2 1228.0 421.8 C 1243.3 421.3 1258.7 420.9 1274.0 420.6 C 1289.3 420.3 1304.7 420.0 1320.0 419.9 C 1335.3 419.8 1350.7 419.8 1366.0 419.8 C 1381.3 419.9 1396.7 420.1 1412.0 420.4 C 1427.3 420.7 1442.7 421.1 1458.0 421.6 C 1473.3 422.1 1488.7 422.7 1504.0 423.3 C 1519.3 424.0 1534.7 424.8 1550.0 425.6 C 1565.3 426.4 1580.7 427.3 1596.0 428.2 C 1611.3 429.1 1634.3 430.5 1642.0 431.0" stroke="#C9A96E" stroke-width="2" stroke-opacity="0.5" fill="none" stroke-linecap="round"/>
<rect width="1600" height="900" fill="url(#vig)"/>
<rect width="1600" height="900" filter="url(#grain)" opacity="0.05"/>
</svg>