<svg xmlns="http://www.w3.org/2000/svg" viewBox="0 0 1600 900" preserveAspectRatio="xMidYMid slice">
<defs>
<linearGradient id="bg" x1="0" y1="0" x2="0" y2="1"><stop offset="0" stop-color="#0b160f"/><stop offset="1" stop-color="#15271b"/></linearGradient>
<radialGradient id="glow" cx="0.379" cy="0.082" r="0.75"><stop offset="0" stop-color="#C9A96E" stop-opacity="0.15"/><stop offset="1" stop-color="#C9A96E" stop-opacity="0"/></radialGradient>
<radialGradient id="vig" cx="0.5" cy="0.5" r="0.75"><stop offset="0.5" stop-color="#000" stop-opacity="0"/><stop offset="1" stop-color="#000" stop-opacity="0.5"/></radialGradient>
<filter id="grain"><feTurbulence type="fractalNoise" baseFrequency="0.9" numOctaves="2" stitchTiles="stitch"/><feColorMatrix type="matrix" values="0 0 0 0 0 0 0 0 0 0 0 0 0 0 0 0 0 0 0.55 0"/></filter>
</defs>
<rect width="1600" height="900" fill="url(#bg)"/>
<rect width="1600" height="900" fill="url(#glow)"/>
<path d="M -60.0 493.2 C -52.3 493.3 -29.3 493.3 -14.0 493.5 C 1.3 493.7 16.7 494.1 32.0 494.6 C 47.3 495.1 62.7 495.7 78.0 496.5 C 93.3 497.2 108.7 498.1 124.0 499.0 C 139.3 500.0 154.7 501.1 170.0 502.2 C 185.3 503.3 200.7 504.6 216.0 505.8 C 231.3 507.1 246.7 508.4 262.0 509.8 C 277.3 511.1 292.7 512.5 308.0 513.9 C 323.3 515.2 338.7 516.6 354.0 518.0 C 369.3 519.3 384.7 520.7 400.0 522.0 C 415.3 523.2 430.7 524.5 446.0 525.7 C 461.3 526.8 476.7 527.9 492.0 529.0 C 507.3 530.0 522.7 531.0 538.0 531.8 C 553.3 532.7 568.7 533.5 584.0 534.2 C 599.3 534.9 614.7 535.5 630.0 536.1 C 645.3 536.6 660.7 537.1 676.0 537.5 C 691.3 537.9 706.7 538.2 722.0 538.5 C 737.3 538.7 752.7 538.9 768.0 539.1 C 783.3 539.3 798.7 539.4 814.0 539.6 C 829.3 539.7 844.7 539.8 860.0 539.9 C 875.3 540.0 890.7 540.1 906.0 540.3 C 921.3 540.4 936.7 540.5 952.0 540.7 C 967.3 540.9 982.7 541.1 998.0 541.4 C 1013.3 541.7 1028.7 542.0 1044.0 542.4 C 1059.3 542.8 1074.7 543.2 1090.0 543.7 C 1105.3 544.2 1120.7 544.8 1136.0 545.4 C 1151.3 546.0 1166.7 546.7 1182.0 547.5 C 1197.3 548.2 1212.7 549.0 1228.0 549.8 C 1243.3 550.7 1258.7 551.5 1274.0 552.5 C 1289.3 553.4 1304.7 554.3 1320.0 555.3 C 1335.3 556.2 1350.7 557.2 1366.0 558.2 C 1381.3 559.2 1396.7 560.2 1412.0 561.1 C 1427.3 562.1 1442.7 563.1 1458.0 564.0 C 1473.3 564.9 1488.7 565.8 1504.0 566.6 C 1519.3 567.5 1534.7 568.3 1550.0 569.1 C 1565.3 569.8 1580.7 570.6 1596.0 571.2 C 1611.3 571.9 1631.3 508.2 1642.0 573.0 C 1652.7 637.8 1943.7 895.5 1660.0 960.0 C 1376.3 1024.5 226.7 960.0 -60.0 960.0 Z" fill="#C9A96E" fill-opacity="0.028"/>
<g><path d="M -60.0 -58.4 C -52.3 -58.1 -29.3 -57.1 -14.0 -56.5 C 1.3 -56.0 16.7 -55.6 32.0 -55.2 C 47.3 -54.9 62.7 -54.6 78.0 -54.5 C 93.3 -54.4 108.7 -54.4 124.0 -54.5 C 139.3 -54.7 154.7 -54.9 170.0 -55.3 C 185.3 -55.6 200.7 -56.1 216.0 -56.6 C 231.3 -57.1 246.7 -57.8 262.0 -58.4 C 277.3 -59.1 292.7 -59.9 308.0 -60.6 C 323.3 -61.4 338.7 -62.2 354.0 -63.0 C 369.3 -63.7 384.7 -64.5 400.0 -65.2 C 415.3 -66.0 430.7 -66.7 446.0 -67.3 C 461.3 -67.9 476.7 -68.4 492.0 -68.9 C 507.3 -69.3 522.7 -69.7 538.0 -69.9 C 553.3 -70.2 568.7 -70.3 584.0 -70.4 C 599.3 -70.5 614.7 -70.4 630.0 -70.3 C 645.3 -70.2 660.7 -70.0 676.0 -69.7 C 691.3 -69.5 706.7 -69.1 722.0 -68.7 C 737.3 -68.3 752.7 -67.9 768.0 -67.5 C 783.3 -67.0 798.7 -66.6 814.0 -66.1 C 829.3 -65.7 844.7 -65.3 860.0 -64.9 C 875.3 -64.5 890.7 -64.2 906.0 -63.9 C 921.3 -63.6 936.7 -63.4 952.0 -63.2 C 967.3 -63.0 982.7 -62.9 998.0 -62.9 C 1013.3 -62.9 1028.7 -62.9 1044.0 -63.0 C 1059.3 -63.1 1074.7 -63.3 1090.0 -63.5 C 1105.3 -63.7 1120.7 -64.0 1136.0 -64.2 C 1151.3 -64.5 1166.7 -64.8 1182.0 -65.1 C 1197.3 -65.4 1212.7 -65.7 1228.0 -65.9 C 1243.3 -66.1 1258.7 -66.3 1274.0 -66.5 C 1289.3 -66.6 1304.7 -66.7 1320.0 -66.7 C 1335.3 -66.8 1350.7 -66.7 1366.0 -66.6 C 1381.3 -66.4 1396.7 -66.2 1412.0 -65.8 C 1427.3 -65.5 1442.7 -65.1 1458.0 -64.6 C 1473.3 -64.2 1488.7 -63.6 1504.0 -63.0 C 1519.3 -62.4 1534.7 -61.7 1550.0 -61.0 C 1565.3 -60.3 1580.7 -59.5 1596.0 -58.8 C 1611.3 -58.1 1634.3 -57.0 1642.0 -56.7" stroke="#F5F0E8" stroke-width="1" stroke-opacity="0.084" fill="none" stroke-linecap="round"/><path d="M -60.0 -34.1 C -52.3 -33.6 -29.3 -32.0 -14.0 -30.7 C 1.3 -29.5 16.7 -28.0 32.0 -26.6 C 47.3 -25.1 62.7 -23.5 78.0 -22.0 C 93.3 -20.5 108.7 -18.9 124.0 -17.5 C 139.3 -16.0 154.7 -14.6 170.0 -13.4 C 185.3 -12.1 200.7 -11.0 216.0 -10.1 C 231.3 -9.3 246.7 -8.6 262.0 -8.1 C 277.3 -7.7 292.7 -7.5 308.0 -7.5 C 323.3 -7.6 338.7 -7.9 354.0 -8.4 C 369.3 -9.0 384.7 -9.8 400.0 -10.8 C 415.3 -11.8 430.7 -13.1 446.0 -14.4 C 461.3 -15.7 476.7 -17.3 492.0 -18.9 C 507.3 -20.4 522.7 -22.1 538.0 -23.7 C 553.3 -25.3 568.7 -27.0 584.0 -28.5 C 599.3 -30.0 614.7 -31.5 630.0 -32.7 C 645.3 -34.0 660.7 -35.1 676.0 -35.9 C 691.3 -36.7 706.7 -37.3 722.0 -37.6 C 737.3 -37.9 752.7 -37.9 768.0 -37.6 C 783.3 -37.4 798.7 -36.8 814.0 -36.0 C 829.3 -35.1 844.7 -34.0 860.0 -32.6 C 875.3 -31.3 890.7 -29.7 906.0 -27.9 C 921.3 -26.2 936.7 -24.2 952.0 -22.3 C 967.3 -20.3 982.7 -18.2 998.0 -16.1 C 1013.3 -14.1 1028.7 -11.9 1044.0 -10.0 C 1059.3 -8.1 1074.7 -6.1 1090.0 -4.5 C 1105.3 -2.8 1120.7 -1.2 1136.0 0.0 C 1151.3 1.3 1166.7 2.3 1182.0 3.1 C 1197.3 3.8 1212.7 4.3 1228.0 4.5 C 1243.3 4.8 1258.7 4.7 1274.0 4.4 C 1289.3 4.0 1304.7 3.4 1320.0 2.7 C 1335.3 1.9 1350.7 0.8 1366.0 -0.3 C 1381.3 -1.4 1396.7 -2.7 1412.0 -4.0 C 1427.3 -5.3 1442.7 -6.7 1458.0 -8.0 C 1473.3 -9.3 1488.7 -10.6 1504.0 -11.7 C 1519.3 -12.8 1534.7 -13.9 1550.0 -14.7 C 1565.3 -15.4 1580.7 -16.1 1596.0 -16.4 C 1611.3 -16.7 1634.3 -16.6 1642.0 -16.7" stroke="#C9A96E" stroke-width="1.5" stroke-opacity="0.242" fill="none" stroke-linecap="round"/><path d="M -60.0 -6.7 C -52.3 -7.2 -29.3 -8.6 -14.0 -9.4 C 1.3 -10.1 16.7 -10.8 32.0 -11.3 C 47.3 -11.7 62.7 -12.1 78.0 -12.2 C 93.3 -12.4 108.7 -12.4 124.0 -12.3 C 139.3 -12.2 154.7 -12.0 170.0 -11.6 C 185.3 -11.3 200.7 -10.8 216.0 -10.2 C 231.3 -9.7 246.7 -9.0 262.0 -8.4 C 277.3 -7.8 292.7 -7.0 308.0 -6.4 C 323.3 -5.7 338.7 -5.1 354.0 -4.5 C 369.3 -3.9 384.7 -3.4 400.0 -3.0 C 415.3 -2.6 430.7 -2.4 446.0 -2.3 C 461.3 -2.2 476.7 -2.2 492.0 -2.4 C 507.3 -2.7 522.7 -3.1 538.0 -3.7 C 553.3 -4.3 568.7 -5.1 584.0 -6.1 C 599.3 -7.1 614.7 -8.3 630.0 -9.7 C 645.3 -11.0 660.7 -12.6 676.0 -14.3 C 691.3 -15.9 706.7 -17.8 722.0 -19.7 C 737.3 -21.6 752.7 -23.6 768.0 -25.6 C 783.3 -27.6 798.7 -29.7 814.0 -31.8 C 829.3 -33.8 844.7 -35.8 860.0 -37.7 C 875.3 -39.6 890.7 -41.5 906.0 -43.2 C 921.3 -44.8 936.7 -46.4 952.0 -47.7 C 967.3 -49.1 982.7 -50.3 998.0 -51.2 C 1013.3 -52.2 1028.7 -52.9 1044.0 -53.5 C 1059.3 -54.0 1074.7 -54.3 1090.0 -54.3 C 1105.3 -54.4 1120.7 -54.3 1136.0 -53.9 C 1151.3 -53.6 1166.7 -53.0 1182.0 -52.3 C 1197.3 -51.7 1212.7 -50.8 1228.0 -49.9 C 1243.3 -48.9 1258.7 -47.9 1274.0 -46.8 C 1289.3 -45.7 1304.7 -44.6 1320.0 -43.5 C 1335.3 -42.4 1350.7 -41.3 1366.0 -40.4 C 1381.3 -39.4 1396.7 -38.5 1412.0 -37.8 C 1427.3 -37.1 1442.7 -36.5 1458.0 -36.1 C 1473.3 -35.7 1488.7 -35.5 1504.0 -35.5 C 1519.3 -35.6 1534.7 -35.8 1550.0 -36.3 C 1565.3 -36.8 1580.7 -37.5 1596.0 -38.5 C 1611.3 -39.4 1634.3 -41.4 1642.0 -42.0" stroke="#F5F0E8" stroke-width="1" stroke-opacity="0.080" fill="none" stroke-linecap="round"/><path d="M -60.0 51.0 C -52.3 50.9 -29.3 50.6 -14.0 50.3 C 1.3 50.0 16.7 49.6 32.0 49.2 C 47.3 48.8 62.7 48.3 78.0 47.8 C 93.3 47.3 108.7 46.7 124.0 46.1 C 139.3 45.6 154.7 45.0 170.0 44.4 C 185.3 43.8 200.7 43.2 216.0 42.7 C 231.3 42.2 246.7 41.7 262.0 41.2 C 277.3 40.8 292.7 40.3 308.0 40.0 C 323.3 39.6 338.7 39.4 354.0 39.2 C 369.3 39.0 384.7 38.8 400.0 38.8 C 415.3 38.7 430.7 38.7 446.0 38.8 C 461.3 38.9 476.7 39.1 492.0 39.4 C 507.3 39.6 522.7 39.9 538.0 40.3 C 553.3 40.7 568.7 41.1 584.0 41.6 C 599.3 42.1 614.7 42.7 630.0 43.3 C 645.3 43.8 660.7 44.5 676.0 45.1 C 691.3 45.7 706.7 46.4 722.0 47.0 C 737.3 47.7 752.7 48.3 768.0 49.0 C 783.3 49.6 798.7 50.3 814.0 50.9 C 829.3 51.5 844.7 52.1 860.0 52.6 C 875.3 53.2 890.7 53.7 906.0 54.2 C 921.3 54.7 936.7 55.1 952.0 55.5 C 967.3 56.0 982.7 56.3 998.0 56.7 C 1013.3 57.1 1028.7 57.4 1044.0 57.7 C 1059.3 58.1 1074.7 58.4 1090.0 58.7 C 1105.3 59.0 1120.7 59.3 1136.0 59.6 C 1151.3 59.9 1166.7 60.2 1182.0 60.6 C 1197.3 61.0 1212.7 61.3 1228.0 61.8 C 1243.3 62.2 1258.7 62.7 1274.0 63.2 C 1289.3 63.7 1304.7 64.3 1320.0 64.9 C 1335.3 65.6 1350.7 66.3 1366.0 67.1 C 1381.3 67.9 1396.7 68.7 1412.0 69.6 C 1427.3 70.5 1442.7 71.5 1458.0 72.6 C 1473.3 73.6 1488.7 74.8 1504.0 76.0 C 1519.3 77.1 1534.7 78.4 1550.0 79.7 C 1565.3 80.9 1580.7 82.3 1596.0 83.6 C 1611.3 85.0 1634.3 87.0 1642.0 87.7" stroke="#F5F0E8" stroke-width="1" stroke-opacity="0.056" fill="none" stroke-linecap="round"/><path d="M -60.0 66.5 C -52.3 66.1 -29.3 65.0 -14.0 64.3 C 1.3 63.6 16.7 63.0 32.0 62.4 C 47.3 61.8 62.7 61.3 78.0 60.9 C 93.3 60.5 108.7 60.1 124.0 59.9 C 139.3 59.6 154.7 59.5 170.0 59.4 C 185.3 59.3 200.7 59.3 216.0 59.4 C 231.3 59.5 246.7 59.7 262.0 59.9 C 277.3 60.2 292.7 60.5 308.0 60.9 C 323.3 61.3 338.7 61.7 354.0 62.2 C 369.3 62.7 384.7 63.2 400.0 63.7 C 415.3 64.3 430.7 64.8 446.0 65.4 C 461.3 65.9 476.7 66.4 492.0 66.9 C 507.3 67.4 522.7 67.9 538.0 68.2 C 553.3 68.6 568.7 69.0 584.0 69.2 C 599.3 69.4 614.7 69.6 630.0 69.6 C 645.3 69.7 660.7 69.6 676.0 69.4 C 691.3 69.2 706.7 68.9 722.0 68.5 C 737.3 68.1 752.7 67.6 768.0 66.9 C 783.3 66.2 798.7 65.4 814.0 64.5 C 829.3 63.6 844.7 62.5 860.0 61.4 C 875.3 60.2 890.7 59.0 906.0 57.6 C 921.3 56.3 936.7 54.9 952.0 53.4 C 967.3 51.9 982.7 50.4 998.0 48.8 C 1013.3 47.2 1028.7 45.6 1044.0 44.0 C 1059.3 42.4 1074.7 40.8 1090.0 39.3 C 1105.3 37.7 1120.7 36.2 1136.0 34.7 C 1151.3 33.3 1166.7 31.8 1182.0 30.6 C 1197.3 29.3 1212.7 28.0 1228.0 27.0 C 1243.3 25.9 1258.7 24.9 1274.0 24.1 C 1289.3 23.3 1304.7 22.6 1320.0 22.1 C 1335.3 21.6 1350.7 21.2 1366.0 21.0 C 1381.3 20.7 1396.7 20.7 1412.0 20.8 C 1427.3 20.9 1442.7 21.1 1458.0 21.5 C 1473.3 21.9 1488.7 22.4 1504.0 23.1 C 1519.3 23.7 1534.7 24.5 1550.0 25.4 C 1565.3 26.3 1580.7 27.3 1596.0 28.4 C 1611.3 29.4 1634.3 31.1 1642.0 31.7" stroke="#F5F0E8" stroke-width="1" stroke-opacity="0.047" fill="none" stroke-linecap="round"/><path d="M -60.0 103.8 C -52.3 104.2 -29.3 105.5 -14.0 106.4 C 1.3 107.2 16.7 108.1 32.0 108.9 C 47.3 109.7 62.7 110.5 78.0 111.1 C 93.3 111.7 108.7 112.2 124.0 112.5 C 139.3 112.8 154.7 113.0 170.0 112.9 C 185.3 112.7 200.7 112.4 216.0 111.8 C 231.3 111.3 246.7 110.4 262.0 109.3 C 277.3 108.3 292.7 106.9 308.0 105.3 C 323.3 103.7 338.7 101.9 354.0 99.9 C 369.3 97.9 384.7 95.6 400.0 93.2 C 415.3 90.8 430.7 88.2 446.0 85.6 C 461.3 83.0 476.7 80.2 492.0 77.5 C 507.3 74.8 522.7 71.9 538.0 69.2 C 553.3 66.5 568.7 63.8 584.0 61.3 C 599.3 58.7 614.7 56.2 630.0 54.0 C 645.3 51.8 660.7 49.7 676.0 47.8 C 691.3 46.0 706.7 44.3 722.0 43.0 C 737.3 41.6 752.7 40.5 768.0 39.7 C 783.3 38.8 798.7 38.3 814.0 37.9 C 829.3 37.6 844.7 37.6 860.0 37.7 C 875.3 37.9 890.7 38.3 906.0 38.9 C 921.3 39.4 936.7 40.2 952.0 41.1 C 967.3 41.9 982.7 43.0 998.0 44.0 C 1013.3 45.0 1028.7 46.2 1044.0 47.3 C 1059.3 48.3 1074.7 49.5 1090.0 50.5 C 1105.3 51.5 1120.7 52.4 1136.0 53.2 C 1151.3 54.0 1166.7 54.7 1182.0 55.2 C 1197.3 55.6 1212.7 56.0 1228.0 56.1 C 1243.3 56.2 1258.7 56.1 1274.0 55.7 C 1289.3 55.4 1304.7 54.9 1320.0 54.1 C 1335.3 53.4 1350.7 52.4 1366.0 51.3 C 1381.3 50.2 1396.7 48.8 1412.0 47.4 C 1427.3 45.9 1442.7 44.3 1458.0 42.6 C 1473.3 40.9 1488.7 39.1 1504.0 37.3 C 1519.3 35.5 1534.7 33.7 1550.0 31.9 C 1565.3 30.1 1580.7 28.3 1596.0 26.6 C 1611.3 24.9 1634.3 22.6 1642.0 21.8" stroke="#C9A96E" stroke-width="1.5" stroke-opacity="0.208" fill="none" stroke-linecap="round"/><path d="M -60.0 140.2 C -52.3 140.4 -29.3 141.0 -14.0 141.2 C 1.3 141.5 16.7 141.7 32.0 141.9 C 47.3 142.0 62.7 142.1 78.0 142.2 C 93.3 142.2 108.7 142.1 124.0 142.0 C 139.3 141.9 154.7 141.7 170.0 141.4 C 185.3 141.1 200.7 140.8 216.0 140.4 C 231.3 140.0 246.7 139.6 262.0 139.1 C 277.3 138.6 292.7 138.0 308.0 137.5 C 323.3 136.9 338.7 136.3 354.0 135.7 C 369.3 135.1 384.7 134.4 400.0 133.8 C 415.3 133.2 430.7 132.5 446.0 131.9 C 461.3 131.3 476.7 130.7 492.0 130.2 C 507.3 129.7 522.7 129.2 538.0 128.8 C 553.3 128.4 568.7 128.0 584.0 127.7 C 599.3 127.4 614.7 127.2 630.0 127.1 C 645.3 127.0 660.7 127.0 676.0 127.0 C 691.3 127.1 706.7 127.2 722.0 127.5 C 737.3 127.7 752.7 128.0 768.0 128.4 C 783.3 128.8 798.7 129.3 814.0 129.8 C 829.3 130.3 844.7 130.9 860.0 131.5 C 875.3 132.1 890.7 132.8 906.0 133.5 C 921.3 134.1 936.7 134.8 952.0 135.4 C 967.3 136.1 982.7 136.7 998.0 137.3 C 1013.3 137.8 1028.7 138.3 1044.0 138.8 C 1059.3 139.2 1074.7 139.6 1090.0 139.8 C 1105.3 140.1 1120.7 140.2 1136.0 140.2 C 1151.3 140.3 1166.7 140.2 1182.0 140.0 C 1197.3 139.7 1212.7 139.4 1228.0 138.9 C 1243.3 138.5 1258.7 137.9 1274.0 137.2 C 1289.3 136.5 1304.7 135.6 1320.0 134.7 C 1335.3 133.8 1350.7 132.8 1366.0 131.7 C 1381.3 130.7 1396.7 129.5 1412.0 128.4 C 1427.3 127.2 1442.7 126.0 1458.0 124.9 C 1473.3 123.7 1488.7 122.5 1504.0 121.4 C 1519.3 120.4 1534.7 119.3 1550.0 118.3 C 1565.3 117.4 1580.7 116.5 1596.0 115.8 C 1611.3 115.0 1634.3 114.3 1642.0 114.0" stroke="#F5F0E8" stroke-width="1" stroke-opacity="0.072" fill="none" stroke-linecap="round"/><path d="M -60.0 189.7 C -52.3 189.4 -29.3 188.6 -14.0 187.8 C 1.3 187.0 16.7 186.0 32.0 184.9 C 47.3 183.7 62.7 182.4 78.0 181.0 C 93.3 179.6 108.7 178.1 124.0 176.5 C 139.3 175.0 154.7 173.3 170.0 171.7 C 185.3 170.0 200.7 168.3 216.0 166.7 C 231.3 165.0 246.7 163.4 262.0 161.8 C 277.3 160.2 292.7 158.7 308.0 157.3 C 323.3 155.9 338.7 154.5 354.0 153.3 C 369.3 152.1 384.7 151.0 400.0 150.0 C 415.3 149.0 430.7 148.1 446.0 147.4 C 461.3 146.6 476.7 146.0 492.0 145.4 C 507.3 144.9 522.7 144.5 538.0 144.1 C 553.3 143.8 568.7 143.6 584.0 143.4 C 599.3 143.2 614.7 143.1 630.0 143.0 C 645.3 142.9 660.7 142.9 676.0 142.8 C 691.3 142.8 706.7 142.8 722.0 142.8 C 737.3 142.8 752.7 142.8 768.0 142.8 C 783.3 142.8 798.7 142.7 814.0 142.7 C 829.3 142.7 844.7 142.6 860.0 142.5 C 875.3 142.4 890.7 142.3 906.0 142.2 C 921.3 142.1 936.7 142.0 952.0 141.9 C 967.3 141.8 982.7 141.7 998.0 141.6 C 1013.3 141.5 1028.7 141.4 1044.0 141.4 C 1059.3 141.4 1074.7 141.4 1090.0 141.5 C 1105.3 141.5 1120.7 141.7 1136.0 141.8 C 1151.3 142.0 1166.7 142.3 1182.0 142.6 C 1197.3 142.9 1212.7 143.3 1228.0 143.7 C 1243.3 144.1 1258.7 144.6 1274.0 145.2 C 1289.3 145.7 1304.7 146.3 1320.0 146.9 C 1335.3 147.5 1350.7 148.2 1366.0 148.8 C 1381.3 149.5 1396.7 150.1 1412.0 150.7 C 1427.3 151.3 1442.7 151.9 1458.0 152.4 C 1473.3 153.0 1488.7 153.4 1504.0 153.8 C 1519.3 154.1 1534.7 154.4 1550.0 154.6 C 1565.3 154.7 1580.7 154.8 1596.0 154.7 C 1611.3 154.6 1634.3 154.1 1642.0 154.0" stroke="#F5F0E8" stroke-width="1" stroke-opacity="0.090" fill="none" stroke-linecap="round"/><path d="M -60.0 191.3 C -52.3 190.0 -29.3 185.9 -14.0 183.5 C 1.3 181.1 16.7 178.8 32.0 176.8 C 47.3 174.8 62.7 173.0 78.0 171.4 C 93.3 169.9 108.7 168.7 124.0 167.7 C 139.3 166.8 154.7 166.1 170.0 165.8 C 185.3 165.4 200.7 165.4 216.0 165.6 C 231.3 165.9 246.7 166.4 262.0 167.1 C 277.3 167.9 292.7 168.9 308.0 170.0 C 323.3 171.2 338.7 172.6 354.0 174.0 C 369.3 175.4 384.7 177.1 400.0 178.7 C 415.3 180.3 430.7 182.0 446.0 183.6 C 461.3 185.2 476.7 186.9 492.0 188.4 C 507.3 189.9 522.7 191.4 538.0 192.8 C 553.3 194.1 568.7 195.3 584.0 196.3 C 599.3 197.3 614.7 198.2 630.0 198.9 C 645.3 199.5 660.7 200.0 676.0 200.3 C 691.3 200.6 706.7 200.7 722.0 200.7 C 737.3 200.6 752.7 200.4 768.0 200.0 C 783.3 199.6 798.7 199.1 814.0 198.5 C 829.3 197.8 844.7 197.1 860.0 196.3 C 875.3 195.5 890.7 194.6 906.0 193.7 C 921.3 192.8 936.7 191.8 952.0 190.9 C 967.3 190.0 982.7 189.1 998.0 188.3 C 1013.3 187.4 1028.7 186.6 1044.0 185.9 C 1059.3 185.1 1074.7 184.5 1090.0 183.9 C 1105.3 183.3 1120.7 182.8 1136.0 182.4 C 1151.3 182.0 1166.7 181.7 1182.0 181.4 C 1197.3 181.1 1212.7 181.0 1228.0 180.8 C 1243.3 180.7 1258.7 180.6 1274.0 180.6 C 1289.3 180.6 1304.7 180.6 1320.0 180.6 C 1335.3 180.5 1350.7 180.6 1366.0 180.5 C 1381.3 180.5 1396.7 180.5 1412.0 180.4 C 1427.3 180.3 1442.7 180.2 1458.0 180.1 C 1473.3 179.9 1488.7 179.7 1504.0 179.4 C 1519.3 179.1 1534.7 178.7 1550.0 178.3 C 1565.3 177.9 1580.7 177.4 1596.0 176.8 C 1611.3 176.3 1634.3 175.4 1642.0 175.1" stroke="#F5F0E8" stroke-width="1" stroke-opacity="0.089" fill="none" stroke-linecap="round"/><path d="M -60.0 224.8 C -52.3 225.1 -29.3 225.7 -14.0 226.1 C 1.3 226.5 16.7 226.8 32.0 227.2 C 47.3 227.5 62.7 227.8 78.0 228.0 C 93.3 228.3 108.7 228.5 124.0 228.7 C 139.3 229.0 154.7 229.2 170.0 229.4 C 185.3 229.6 200.7 229.8 216.0 230.0 C 231.3 230.2 246.7 230.5 262.0 230.7 C 277.3 231.0 292.7 231.3 308.0 231.6 C 323.3 232.0 338.7 232.3 354.0 232.7 C 369.3 233.1 384.7 233.6 400.0 234.1 C 415.3 234.6 430.7 235.1 446.0 235.7 C 461.3 236.3 476.7 237.0 492.0 237.7 C 507.3 238.4 522.7 239.2 538.0 239.9 C 553.3 240.7 568.7 241.6 584.0 242.4 C 599.3 243.3 614.7 244.2 630.0 245.1 C 645.3 246.0 660.7 247.0 676.0 247.9 C 691.3 248.9 706.7 249.8 722.0 250.8 C 737.3 251.7 752.7 252.6 768.0 253.5 C 783.3 254.4 798.7 255.3 814.0 256.2 C 829.3 257.0 844.7 257.8 860.0 258.6 C 875.3 259.3 890.7 260.0 906.0 260.6 C 921.3 261.2 936.7 261.8 952.0 262.3 C 967.3 262.8 982.7 263.2 998.0 263.6 C 1013.3 263.9 1028.7 264.2 1044.0 264.4 C 1059.3 264.7 1074.7 264.8 1090.0 264.9 C 1105.3 265.0 1120.7 265.0 1136.0 265.0 C 1151.3 264.9 1166.7 264.9 1182.0 264.7 C 1197.3 264.6 1212.7 264.5 1228.0 264.3 C 1243.3 264.1 1258.7 263.9 1274.0 263.7 C 1289.3 263.5 1304.7 263.3 1320.0 263.1 C 1335.3 262.9 1350.7 262.8 1366.0 262.6 C 1381.3 262.5 1396.7 262.4 1412.0 262.4 C 1427.3 262.3 1442.7 262.3 1458.0 262.4 C 1473.3 262.5 1488.7 262.6 1504.0 262.8 C 1519.3 263.0 1534.7 263.3 1550.0 263.7 C 1565.3 264.0 1580.7 264.5 1596.0 265.0 C 1611.3 265.6 1634.3 266.6 1642.0 266.9" stroke="#C9A96E" stroke-width="1.5" stroke-opacity="0.170" fill="none" stroke-linecap="round"/><path d="M -60.0 270.0 C -52.3 268.3 -29.3 263.1 -14.0 259.7 C 1.3 256.4 16.7 252.9 32.0 249.8 C 47.3 246.7 62.7 243.7 78.0 241.1 C 93.3 238.6 108.7 236.2 124.0 234.5 C 139.3 232.7 154.7 231.4 170.0 230.6 C 185.3 229.8 200.7 229.5 216.0 229.8 C 231.3 230.0 246.7 230.8 262.0 232.2 C 277.3 233.5 292.7 235.4 308.0 237.6 C 323.3 239.8 338.7 242.6 354.0 245.6 C 369.3 248.6 384.7 252.0 400.0 255.5 C 415.3 259.0 430.7 262.8 446.0 266.4 C 461.3 270.0 476.7 273.8 492.0 277.3 C 507.3 280.7 522.7 284.1 538.0 287.1 C 553.3 290.0 568.7 292.8 584.0 294.9 C 599.3 297.0 614.7 298.7 630.0 299.8 C 645.3 300.9 660.7 301.5 676.0 301.3 C 691.3 301.2 706.7 300.4 722.0 299.1 C 737.3 297.7 752.7 295.6 768.0 293.0 C 783.3 290.4 798.7 287.2 814.0 283.5 C 829.3 279.9 844.7 275.6 860.0 271.1 C 875.3 266.6 890.7 261.7 906.0 256.7 C 921.3 251.7 936.7 246.4 952.0 241.2 C 967.3 236.1 982.7 230.8 998.0 225.8 C 1013.3 220.9 1028.7 215.9 1044.0 211.6 C 1059.3 207.2 1074.7 203.0 1090.0 199.4 C 1105.3 195.9 1120.7 192.7 1136.0 190.2 C 1151.3 187.8 1166.7 185.8 1182.0 184.5 C 1197.3 183.2 1212.7 182.6 1228.0 182.5 C 1243.3 182.5 1258.7 183.1 1274.0 184.1 C 1289.3 185.2 1304.7 186.9 1320.0 189.0 C 1335.3 191.0 1350.7 193.6 1366.0 196.3 C 1381.3 199.0 1396.7 202.2 1412.0 205.3 C 1427.3 208.3 1442.7 211.7 1458.0 214.8 C 1473.3 217.8 1488.7 221.0 1504.0 223.7 C 1519.3 226.4 1534.7 229.0 1550.0 231.0 C 1565.3 233.1 1580.7 234.8 1596.0 235.8 C 1611.3 236.9 1634.3 237.2 1642.0 237.5" stroke="#F5F0E8" stroke-width="1" stroke-opacity="0.063" fill="none" stroke-linecap="round"/><path d="M -60.0 283.9 C -52.3 283.4 -29.3 281.9 -14.0 281.0 C 1.3 280.2 16.7 279.4 32.0 278.6 C 47.3 277.8 62.7 277.1 78.0 276.5 C 93.3 275.8 108.7 275.2 124.0 274.6 C 139.3 274.0 154.7 273.4 170.0 272.9 C 185.3 272.3 200.7 271.8 216.0 271.2 C 231.3 270.7 246.7 270.1 262.0 269.6 C 277.3 269.0 292.7 268.5 308.0 267.9 C 323.3 267.3 338.7 266.7 354.0 266.1 C 369.3 265.5 384.7 264.9 400.0 264.3 C 415.3 263.7 430.7 263.0 446.0 262.4 C 461.3 261.8 476.7 261.1 492.0 260.5 C 507.3 259.8 522.7 259.2 538.0 258.6 C 553.3 258.0 568.7 257.4 584.0 256.9 C 599.3 256.4 614.7 255.9 630.0 255.4 C 645.3 255.0 660.7 254.6 676.0 254.2 C 691.3 253.9 706.7 253.7 722.0 253.5 C 737.3 253.3 752.7 253.2 768.0 253.2 C 783.3 253.2 798.7 253.2 814.0 253.4 C 829.3 253.6 844.7 253.8 860.0 254.1 C 875.3 254.5 890.7 254.9 906.0 255.4 C 921.3 255.8 936.7 256.4 952.0 257.0 C 967.3 257.6 982.7 258.3 998.0 259.0 C 1013.3 259.7 1028.7 260.5 1044.0 261.2 C 1059.3 262.0 1074.7 262.8 1090.0 263.5 C 1105.3 264.3 1120.7 265.0 1136.0 265.7 C 1151.3 266.4 1166.7 267.0 1182.0 267.6 C 1197.3 268.2 1212.7 268.7 1228.0 269.1 C 1243.3 269.4 1258.7 269.7 1274.0 269.9 C 1289.3 270.1 1304.7 270.1 1320.0 270.0 C 1335.3 269.9 1350.7 269.7 1366.0 269.2 C 1381.3 268.8 1396.7 268.3 1412.0 267.6 C 1427.3 266.9 1442.7 266.0 1458.0 265.0 C 1473.3 264.0 1488.7 262.8 1504.0 261.5 C 1519.3 260.2 1534.7 258.7 1550.0 257.2 C 1565.3 255.6 1580.7 253.9 1596.0 252.1 C 1611.3 250.3 1634.3 247.5 1642.0 246.5" stroke="#F5F0E8" stroke-width="1" stroke-opacity="0.079" fill="none" stroke-linecap="round"/><path d="M -60.0 327.6 C -52.3 328.5 -29.3 331.2 -14.0 332.8 C 1.3 334.3 16.7 335.7 32.0 336.8 C 47.3 337.9 62.7 338.8 78.0 339.4 C 93.3 340.0 108.7 340.4 124.0 340.6 C 139.3 340.8 154.7 340.7 170.0 340.5 C 185.3 340.3 200.7 339.8 216.0 339.3 C 231.3 338.7 246.7 338.0 262.0 337.2 C 277.3 336.5 292.7 335.6 308.0 334.7 C 323.3 333.9 338.7 333.0 354.0 332.2 C 369.3 331.4 384.7 330.7 400.0 330.1 C 415.3 329.5 430.7 329.0 446.0 328.8 C 461.3 328.5 476.7 328.4 492.0 328.6 C 507.3 328.7 522.7 329.1 538.0 329.7 C 553.3 330.3 568.7 331.1 584.0 332.2 C 599.3 333.2 614.7 334.5 630.0 336.0 C 645.3 337.5 660.7 339.2 676.0 341.1 C 691.3 342.9 706.7 345.0 722.0 347.0 C 737.3 349.1 752.7 351.4 768.0 353.6 C 783.3 355.8 798.7 358.0 814.0 360.2 C 829.3 362.4 844.7 364.5 860.0 366.5 C 875.3 368.5 890.7 370.4 906.0 372.1 C 921.3 373.8 936.7 375.3 952.0 376.6 C 967.3 377.9 982.7 378.9 998.0 379.7 C 1013.3 380.5 1028.7 381.0 1044.0 381.3 C 1059.3 381.6 1074.7 381.6 1090.0 381.4 C 1105.3 381.2 1120.7 380.7 1136.0 380.0 C 1151.3 379.4 1166.7 378.5 1182.0 377.5 C 1197.3 376.6 1212.7 375.4 1228.0 374.2 C 1243.3 373.1 1258.7 371.8 1274.0 370.6 C 1289.3 369.4 1304.7 368.1 1320.0 367.0 C 1335.3 365.9 1350.7 364.9 1366.0 364.1 C 1381.3 363.2 1396.7 362.5 1412.0 362.1 C 1427.3 361.7 1442.7 361.5 1458.0 361.6 C 1473.3 361.7 1488.7 362.0 1504.0 362.7 C 1519.3 363.3 1534.7 364.3 1550.0 365.5 C 1565.3 366.7 1580.7 368.3 1596.0 370.0 C 1611.3 371.8 1634.3 375.0 1642.0 376.0" stroke="#F5F0E8" stroke-width="1" stroke-opacity="0.079" fill="none" stroke-linecap="round"/><path d="M -60.0 338.0 C -52.3 337.1 -29.3 334.5 -14.0 332.9 C 1.3 331.4 16.7 329.9 32.0 328.7 C 47.3 327.5 62.7 326.5 78.0 325.8 C 93.3 325.1 108.7 324.7 124.0 324.6 C 139.3 324.6 154.7 324.8 170.0 325.5 C 185.3 326.1 200.7 327.1 216.0 328.5 C 231.3 329.8 246.7 331.6 262.0 333.7 C 277.3 335.7 292.7 338.2 308.0 340.8 C 323.3 343.5 338.7 346.6 354.0 349.7 C 369.3 352.9 384.7 356.4 400.0 359.9 C 415.3 363.5 430.7 367.2 446.0 370.9 C 461.3 374.6 476.7 378.4 492.0 382.0 C 507.3 385.7 522.7 389.4 538.0 392.8 C 553.3 396.2 568.7 399.5 584.0 402.4 C 599.3 405.4 614.7 408.2 630.0 410.6 C 645.3 412.9 660.7 415.0 676.0 416.7 C 691.3 418.4 706.7 419.7 722.0 420.5 C 737.3 421.4 752.7 421.9 768.0 421.9 C 783.3 422.0 798.7 421.6 814.0 420.9 C 829.3 420.2 844.7 419.1 860.0 417.7 C 875.3 416.3 890.7 414.5 906.0 412.5 C 921.3 410.6 936.7 408.3 952.0 405.9 C 967.3 403.6 982.7 401.0 998.0 398.5 C 1013.3 395.9 1028.7 393.2 1044.0 390.7 C 1059.3 388.2 1074.7 385.6 1090.0 383.3 C 1105.3 381.0 1120.7 378.7 1136.0 376.8 C 1151.3 374.8 1166.7 373.1 1182.0 371.7 C 1197.3 370.3 1212.7 369.1 1228.0 368.4 C 1243.3 367.6 1258.7 367.2 1274.0 367.1 C 1289.3 367.1 1304.7 367.4 1320.0 368.1 C 1335.3 368.7 1350.7 369.8 1366.0 371.1 C 1381.3 372.5 1396.7 374.2 1412.0 376.1 C 1427.3 378.0 1442.7 380.3 1458.0 382.7 C 1473.3 385.1 1488.7 387.7 1504.0 390.4 C 1519.3 393.1 1534.7 396.0 1550.0 398.8 C 1565.3 401.6 1580.7 404.5 1596.0 407.3 C 1611.3 410.1 1634.3 414.1 1642.0 415.4" stroke="#C9A96E" stroke-width="1.5" stroke-opacity="0.170" fill="none" stroke-linecap="round"/><path d="M -60.0 374.4 C -52.3 373.8 -29.3 371.9 -14.0 370.9 C 1.3 369.9 16.7 369.1 32.0 368.5 C 47.3 368.0 62.7 367.6 78.0 367.4 C 93.3 367.2 108.7 367.3 124.0 367.5 C 139.3 367.8 154.7 368.3 170.0 368.9 C 185.3 369.5 200.7 370.3 216.0 371.3 C 231.3 372.2 246.7 373.3 262.0 374.5 C 277.3 375.7 292.7 377.0 308.0 378.2 C 323.3 379.5 338.7 380.8 354.0 382.1 C 369.3 383.4 384.7 384.7 400.0 385.8 C 415.3 386.9 430.7 388.0 446.0 388.9 C 461.3 389.8 476.7 390.6 492.0 391.1 C 507.3 391.7 522.7 392.1 538.0 392.2 C 553.3 392.3 568.7 392.3 584.0 392.0 C 599.3 391.6 614.7 391.1 630.0 390.3 C 645.3 389.5 660.7 388.5 676.0 387.3 C 691.3 386.1 706.7 384.7 722.0 383.1 C 737.3 381.5 752.7 379.7 768.0 377.8 C 783.3 375.9 798.7 373.9 814.0 371.9 C 829.3 369.8 844.7 367.6 860.0 365.5 C 875.3 363.4 890.7 361.3 906.0 359.3 C 921.3 357.3 936.7 355.3 952.0 353.4 C 967.3 351.6 982.7 349.9 998.0 348.4 C 1013.3 346.9 1028.7 345.6 1044.0 344.5 C 1059.3 343.4 1074.7 342.5 1090.0 341.9 C 1105.3 341.3 1120.7 340.9 1136.0 340.8 C 1151.3 340.6 1166.7 340.8 1182.0 341.1 C 1197.3 341.5 1212.7 342.1 1228.0 342.9 C 1243.3 343.7 1258.7 344.7 1274.0 345.9 C 1289.3 347.1 1304.7 348.4 1320.0 349.9 C 1335.3 351.3 1350.7 352.9 1366.0 354.5 C 1381.3 356.0 1396.7 357.7 1412.0 359.3 C 1427.3 360.9 1442.7 362.5 1458.0 364.0 C 1473.3 365.5 1488.7 366.9 1504.0 368.2 C 1519.3 369.5 1534.7 370.6 1550.0 371.5 C 1565.3 372.4 1580.7 373.2 1596.0 373.7 C 1611.3 374.2 1634.3 374.4 1642.0 374.6" stroke="#F5F0E8" stroke-width="1" stroke-opacity="0.067" fill="none" stroke-linecap="round"/><path d="M -60.0 419.0 C -52.3 418.4 -29.3 416.7 -14.0 415.6 C 1.3 414.5 16.7 413.4 32.0 412.3 C 47.3 411.2 62.7 410.1 78.0 409.1 C 93.3 408.1 108.7 407.1 124.0 406.3 C 139.3 405.4 154.7 404.6 170.0 403.9 C 185.3 403.2 200.7 402.6 216.0 402.1 C 231.3 401.7 246.7 401.3 262.0 401.0 C 277.3 400.8 292.7 400.7 308.0 400.7 C 323.3 400.7 338.7 400.9 354.0 401.1 C 369.3 401.4 384.7 401.8 400.0 402.3 C 415.3 402.8 430.7 403.4 446.0 404.1 C 461.3 404.8 476.7 405.6 492.0 406.5 C 507.3 407.4 522.7 408.4 538.0 409.4 C 553.3 410.4 568.7 411.5 584.0 412.6 C 599.3 413.7 614.7 414.8 630.0 415.9 C 645.3 417.0 660.7 418.2 676.0 419.2 C 691.3 420.3 706.7 421.3 722.0 422.3 C 737.3 423.2 752.7 424.1 768.0 424.9 C 783.3 425.7 798.7 426.4 814.0 427.0 C 829.3 427.6 844.7 428.1 860.0 428.4 C 875.3 428.7 890.7 428.9 906.0 428.9 C 921.3 429.0 936.7 428.8 952.0 428.6 C 967.3 428.3 982.7 427.9 998.0 427.3 C 1013.3 426.7 1028.7 426.0 1044.0 425.1 C 1059.3 424.2 1074.7 423.2 1090.0 422.0 C 1105.3 420.9 1120.7 419.6 1136.0 418.2 C 1151.3 416.8 1166.7 415.2 1182.0 413.6 C 1197.3 412.0 1212.7 410.3 1228.0 408.6 C 1243.3 406.8 1258.7 405.0 1274.0 403.2 C 1289.3 401.3 1304.7 399.4 1320.0 397.6 C 1335.3 395.7 1350.7 393.9 1366.0 392.0 C 1381.3 390.2 1396.7 388.4 1412.0 386.7 C 1427.3 385.0 1442.7 383.3 1458.0 381.8 C 1473.3 380.2 1488.7 378.7 1504.0 377.4 C 1519.3 376.0 1534.7 374.8 1550.0 373.7 C 1565.3 372.6 1580.7 371.6 1596.0 370.7 C 1611.3 369.9 1634.3 368.9 1642.0 368.6" stroke="#F5F0E8" stroke-width="1" stroke-opacity="0.087" fill="none" stroke-linecap="round"/><path d="M -60.0 503.6 C -52.3 503.4 -29.3 503.3 -14.0 502.3 C 1.3 501.3 16.7 499.7 32.0 497.7 C 47.3 495.7 62.7 493.0 78.0 490.1 C 93.3 487.3 108.7 483.9 124.0 480.3 C 139.3 476.8 154.7 472.9 170.0 469.1 C 185.3 465.3 200.7 461.2 216.0 457.3 C 231.3 453.5 246.7 449.5 262.0 446.0 C 277.3 442.4 292.7 439.0 308.0 436.0 C 323.3 433.0 338.7 430.2 354.0 428.0 C 369.3 425.8 384.7 424.0 400.0 422.8 C 415.3 421.5 430.7 420.8 446.0 420.6 C 461.3 420.3 476.7 420.7 492.0 421.5 C 507.3 422.3 522.7 423.7 538.0 425.4 C 553.3 427.2 568.7 429.4 584.0 432.0 C 599.3 434.5 614.7 437.5 630.0 440.6 C 645.3 443.7 660.7 447.2 676.0 450.6 C 691.3 454.1 706.7 457.7 722.0 461.3 C 737.3 464.8 752.7 468.4 768.0 471.8 C 783.3 475.1 798.7 478.4 814.0 481.4 C 829.3 484.4 844.7 487.3 860.0 489.8 C 875.3 492.2 890.7 494.5 906.0 496.3 C 921.3 498.2 936.7 499.7 952.0 500.9 C 967.3 502.2 982.7 503.0 998.0 503.6 C 1013.3 504.2 1028.7 504.5 1044.0 504.6 C 1059.3 504.7 1074.7 504.4 1090.0 504.1 C 1105.3 503.8 1120.7 503.3 1136.0 502.7 C 1151.3 502.2 1166.7 501.5 1182.0 500.8 C 1197.3 500.2 1212.7 499.5 1228.0 499.0 C 1243.3 498.4 1258.7 497.9 1274.0 497.6 C 1289.3 497.2 1304.7 497.0 1320.0 496.9 C 1335.3 496.8 1350.7 496.9 1366.0 497.2 C 1381.3 497.4 1396.7 497.8 1412.0 498.4 C 1427.3 498.9 1442.7 499.7 1458.0 500.4 C 1473.3 501.2 1488.7 502.1 1504.0 503.0 C 1519.3 504.0 1534.7 505.0 1550.0 505.9 C 1565.3 506.8 1580.7 507.8 1596.0 508.6 C 1611.3 509.4 1634.3 510.3 1642.0 510.7" stroke="#F5F0E8" stroke-width="1" stroke-opacity="0.086" fill="none" stroke-linecap="round"/><path d="M -60.0 475.3 C -52.3 476.4 -29.3 479.7 -14.0 481.7 C 1.3 483.8 16.7 485.9 32.0 487.8 C 47.3 489.7 62.7 491.4 78.0 492.9 C 93.3 494.4 108.7 495.6 124.0 496.6 C 139.3 497.5 154.7 498.1 170.0 498.5 C 185.3 498.8 200.7 498.8 216.0 498.5 C 231.3 498.2 246.7 497.6 262.0 496.7 C 277.3 495.8 292.7 494.7 308.0 493.4 C 323.3 492.1 338.7 490.5 354.0 488.9 C 369.3 487.3 384.7 485.5 400.0 483.8 C 415.3 482.1 430.7 480.3 446.0 478.6 C 461.3 477.0 476.7 475.4 492.0 474.0 C 507.3 472.7 522.7 471.4 538.0 470.5 C 553.3 469.5 568.7 468.7 584.0 468.3 C 599.3 467.9 614.7 467.7 630.0 467.8 C 645.3 467.9 660.7 468.4 676.0 469.1 C 691.3 469.7 706.7 470.7 722.0 471.9 C 737.3 473.0 752.7 474.5 768.0 476.0 C 783.3 477.5 798.7 479.3 814.0 481.0 C 829.3 482.7 844.7 484.6 860.0 486.3 C 875.3 488.1 890.7 489.8 906.0 491.4 C 921.3 493.0 936.7 494.5 952.0 495.7 C 967.3 496.9 982.7 498.0 998.0 498.7 C 1013.3 499.5 1028.7 500.0 1044.0 500.1 C 1059.3 500.3 1074.7 500.2 1090.0 499.8 C 1105.3 499.4 1120.7 498.6 1136.0 497.7 C 1151.3 496.7 1166.7 495.4 1182.0 494.0 C 1197.3 492.6 1212.7 490.9 1228.0 489.3 C 1243.3 487.6 1258.7 485.7 1274.0 484.0 C 1289.3 482.2 1304.7 480.4 1320.0 478.8 C 1335.3 477.2 1350.7 475.7 1366.0 474.5 C 1381.3 473.3 1396.7 472.3 1412.0 471.7 C 1427.3 471.2 1442.7 470.9 1458.0 471.1 C 1473.3 471.4 1488.7 472.0 1504.0 473.1 C 1519.3 474.3 1534.7 475.9 1550.0 478.0 C 1565.3 480.2 1580.7 482.8 1596.0 485.9 C 1611.3 488.9 1634.3 494.6 1642.0 496.3" stroke="#C9A96E" stroke-width="1.5" stroke-opacity="0.232" fill="none" stroke-linecap="round"/><path d="M -60.0 493.2 C -52.3 493.3 -29.3 493.3 -14.0 493.5 C 1.3 493.7 16.7 494.1 32.0 494.6 C 47.3 495.1 62.7 495.7 78.0 496.5 C 93.3 497.2 108.7 498.1 124.0 499.0 C 139.3 500.0 154.7 501.1 170.0 502.2 C 185.3 503.3 200.7 504.6 216.0 505.8 C 231.3 507.1 246.7 508.4 262.0 509.8 C 277.3 511.1 292.7 512.5 308.0 513.9 C 323.3 515.2 338.7 516.6 354.0 518.0 C 369.3 519.3 384.7 520.7 400.0 522.0 C 415.3 523.2 430.7 524.5 446.0 525.7 C 461.3 526.8 476.7 527.9 492.0 529.0 C 507.3 530.0 522.7 531.0 538.0 531.8 C 553.3 532.7 568.7 533.5 584.0 534.2 C 599.3 534.9 614.7 535.5 630.0 536.1 C 645.3 536.6 660.7 537.1 676.0 537.5 C 691.3 537.9 706.7 538.2 722.0 538.5 C 737.3 538.7 752.7 538.9 768.0 539.1 C 783.3 539.3 798.7 539.4 814.0 539.6 C 829.3 539.7 844.7 539.8 860.0 539.9 C 875.3 540.0 890.7 540.1 906.0 540.3 C 921.3 540.4 936.7 540.5 952.0 540.7 C 967.3 540.9 982.7 541.1 998.0 541.4 C 1013.3 541.7 1028.7 542.0 1044.0 542.4 C 1059.3 542.8 1074.7 543.2 1090.0 543.7 C 1105.3 544.2 1120.7 544.8 1136.0 545.4 C 1151.3 546.0 1166.7 546.7 1182.0 547.5 C 1197.3 548.2 1212.7 549.0 1228.0 549.8 C 1243.3 550.7 1258.7 551.5 1274.0 552.5 C 1289.3 553.4 1304.7 554.3 1320.0 555.3 C 1335.3 556.2 1350.7 557.2 1366.0 558.2 C 1381.3 559.2 1396.7 560.2 1412.0 561.1 C 1427.3 562.1 1442.7 563.1 1458.0 564.0 C 1473.3 564.9 1488.7 565.8 1504.0 566.6 C 1519.3 567.5 1534.7 568.3 1550.0 569.1 C 1565.3 569.8 1580.7 570.6 1596.0 571.2 C 1611.3 571.9 1634.3 572.7 1642.0 573.0" stroke="#F5F0E8" stroke-width="1" stroke-opacity="0.052" fill="none" stroke-linecap="round"/><path d="M -60.0 561.0 C -52.3 561.0 -29.3 561.3 -14.0 561.2 C 1.3 561.0 16.7 560.5 32.0 559.9 C 47.3 559.2 62.7 558.3 78.0 557.2 C 93.3 556.1 108.7 554.8 124.0 553.4 C 139.3 552.0 154.7 550.4 170.0 548.9 C 185.3 547.3 200.7 545.6 216.0 544.0 C 231.3 542.4 246.7 540.8 262.0 539.3 C 277.3 537.9 292.7 536.5 308.0 535.3 C 323.3 534.1 338.7 533.0 354.0 532.2 C 369.3 531.5 384.7 530.9 400.0 530.6 C 415.3 530.3 430.7 530.2 446.0 530.5 C 461.3 530.7 476.7 531.2 492.0 532.0 C 507.3 532.7 522.7 533.8 538.0 535.0 C 553.3 536.3 568.7 537.8 584.0 539.4 C 599.3 541.0 614.7 542.9 630.0 544.7 C 645.3 546.6 660.7 548.6 676.0 550.6 C 691.3 552.5 706.7 554.5 722.0 556.4 C 737.3 558.2 752.7 560.1 768.0 561.7 C 783.3 563.3 798.7 564.7 814.0 565.9 C 829.3 567.1 844.7 568.0 860.0 568.7 C 875.3 569.3 890.7 569.6 906.0 569.6 C 921.3 569.7 936.7 569.3 952.0 568.7 C 967.3 568.1 982.7 567.1 998.0 565.9 C 1013.3 564.6 1028.7 563.0 1044.0 561.3 C 1059.3 559.5 1074.7 557.4 1090.0 555.3 C 1105.3 553.1 1120.7 550.7 1136.0 548.4 C 1151.3 546.0 1166.7 543.5 1182.0 541.1 C 1197.3 538.8 1212.7 536.3 1228.0 534.2 C 1243.3 532.0 1258.7 529.9 1274.0 528.1 C 1289.3 526.3 1304.7 524.7 1320.0 523.4 C 1335.3 522.2 1350.7 521.3 1366.0 520.7 C 1381.3 520.2 1396.7 520.0 1412.0 520.2 C 1427.3 520.5 1442.7 521.1 1458.0 522.1 C 1473.3 523.1 1488.7 524.5 1504.0 526.2 C 1519.3 528.0 1534.7 530.1 1550.0 532.4 C 1565.3 534.8 1580.7 537.4 1596.0 540.2 C 1611.3 543.0 1634.3 547.6 1642.0 549.0" stroke="#F5F0E8" stroke-width="1" stroke-opacity="0.056" fill="none" stroke-linecap="round"/><path d="M -60.0 591.8 C -52.3 592.1 -29.3 593.1 -14.0 593.7 C 1.3 594.4 16.7 595.0 32.0 595.5 C 47.3 596.0 62.7 596.5 78.0 596.9 C 93.3 597.2 108.7 597.5 124.0 597.7 C 139.3 597.8 154.7 597.9 170.0 597.7 C 185.3 597.6 200.7 597.4 216.0 597.0 C 231.3 596.6 246.7 596.0 262.0 595.3 C 277.3 594.7 292.7 593.8 308.0 592.9 C 323.3 592.0 338.7 590.9 354.0 589.7 C 369.3 588.6 384.7 587.4 400.0 586.1 C 415.3 584.8 430.7 583.5 446.0 582.2 C 461.3 580.9 476.7 579.6 492.0 578.4 C 507.3 577.2 522.7 576.0 538.0 575.0 C 553.3 574.0 568.7 573.0 584.0 572.3 C 599.3 571.6 614.7 571.0 630.0 570.6 C 645.3 570.3 660.7 570.1 676.0 570.2 C 691.3 570.3 706.7 570.6 722.0 571.2 C 737.3 571.8 752.7 572.6 768.0 573.7 C 783.3 574.8 798.7 576.1 814.0 577.7 C 829.3 579.2 844.7 581.0 860.0 583.0 C 875.3 585.0 890.7 587.3 906.0 589.6 C 921.3 591.9 936.7 594.5 952.0 597.1 C 967.3 599.7 982.7 602.4 998.0 605.2 C 1013.3 607.9 1028.7 610.8 1044.0 613.5 C 1059.3 616.3 1074.7 619.1 1090.0 621.8 C 1105.3 624.5 1120.7 627.2 1136.0 629.7 C 1151.3 632.2 1166.7 634.7 1182.0 637.0 C 1197.3 639.3 1212.7 641.4 1228.0 643.4 C 1243.3 645.4 1258.7 647.2 1274.0 648.8 C 1289.3 650.5 1304.7 651.9 1320.0 653.3 C 1335.3 654.6 1350.7 655.7 1366.0 656.7 C 1381.3 657.7 1396.7 658.6 1412.0 659.4 C 1427.3 660.1 1442.7 660.7 1458.0 661.3 C 1473.3 661.9 1488.7 662.3 1504.0 662.8 C 1519.3 663.2 1534.7 663.6 1550.0 664.0 C 1565.3 664.4 1580.7 664.7 1596.0 665.1 C 1611.3 665.5 1634.3 666.2 1642.0 666.4" stroke="#F5F0E8" stroke-width="1" stroke-opacity="0.050" fill="none" stroke-linecap="round"/><path d="M -60.0 638.8 C -52.3 638.0 -29.3 636.0 -14.0 634.0 C 1.3 632.1 16.7 629.7 32.0 627.1 C 47.3 624.6 62.7 621.6 78.0 618.6 C 93.3 615.6 108.7 612.3 124.0 609.0 C 139.3 605.7 154.7 602.3 170.0 598.9 C 185.3 595.6 200.7 592.2 216.0 589.1 C 231.3 586.0 246.7 582.9 262.0 580.2 C 277.3 577.5 292.7 575.0 308.0 572.8 C 323.3 570.7 338.7 568.8 354.0 567.4 C 369.3 566.0 384.7 565.0 400.0 564.4 C 415.3 563.8 430.7 563.7 446.0 563.9 C 461.3 564.1 476.7 564.8 492.0 565.9 C 507.3 566.9 522.7 568.4 538.0 570.1 C 553.3 571.9 568.7 574.0 584.0 576.3 C 599.3 578.5 614.7 581.1 630.0 583.7 C 645.3 586.3 660.7 589.1 676.0 591.8 C 691.3 594.5 706.7 597.4 722.0 599.9 C 737.3 602.5 752.7 605.1 768.0 607.3 C 783.3 609.5 798.7 611.5 814.0 613.2 C 829.3 614.8 844.7 616.2 860.0 617.1 C 875.3 618.0 890.7 618.5 906.0 618.5 C 921.3 618.6 936.7 618.2 952.0 617.3 C 967.3 616.4 982.7 615.1 998.0 613.3 C 1013.3 611.6 1028.7 609.3 1044.0 606.7 C 1059.3 604.1 1074.7 601.1 1090.0 597.8 C 1105.3 594.5 1120.7 590.9 1136.0 587.1 C 1151.3 583.4 1166.7 579.3 1182.0 575.3 C 1197.3 571.3 1212.7 567.1 1228.0 563.1 C 1243.3 559.0 1258.7 555.0 1274.0 551.2 C 1289.3 547.4 1304.7 543.7 1320.0 540.4 C 1335.3 537.1 1350.7 534.0 1366.0 531.3 C 1381.3 528.7 1396.7 526.4 1412.0 524.6 C 1427.3 522.8 1442.7 521.4 1458.0 520.5 C 1473.3 519.6 1488.7 519.2 1504.0 519.3 C 1519.3 519.4 1534.7 520.0 1550.0 521.0 C 1565.3 522.0 1580.7 523.5 1596.0 525.3 C 1611.3 527.1 1634.3 530.7 1642.0 531.8" stroke="#C9A96E" stroke-width="1.5" stroke-opacity="0.231" fill="none" stroke-linecap="round"/><path d="M -60.0 690.7 C -52.3 690.8 -29.3 691.2 -14.0 690.9 C 1.3 690.7 16.7 690.0 32.0 689.0 C 47.3 688.0 62.7 686.6 78.0 684.8 C 93.3 683.0 108.7 680.8 124.0 678.2 C 139.3 675.7 154.7 672.7 170.0 669.5 C 185.3 666.3 200.7 662.7 216.0 659.0 C 231.3 655.2 246.7 651.2 262.0 647.0 C 277.3 642.9 292.7 638.5 308.0 634.2 C 323.3 629.8 338.7 625.3 354.0 621.0 C 369.3 616.7 384.7 612.3 400.0 608.2 C 415.3 604.0 430.7 600.0 446.0 596.3 C 461.3 592.5 476.7 589.0 492.0 585.8 C 507.3 582.6 522.7 579.7 538.0 577.2 C 553.3 574.8 568.7 572.6 584.0 570.9 C 599.3 569.2 614.7 567.9 630.0 566.9 C 645.3 566.0 660.7 565.5 676.0 565.4 C 691.3 565.2 706.7 565.5 722.0 566.1 C 737.3 566.7 752.7 567.6 768.0 568.8 C 783.3 569.9 798.7 571.4 814.0 573.0 C 829.3 574.6 844.7 576.5 860.0 578.4 C 875.3 580.3 890.7 582.3 906.0 584.3 C 921.3 586.3 936.7 588.4 952.0 590.3 C 967.3 592.2 982.7 594.1 998.0 595.8 C 1013.3 597.5 1028.7 599.1 1044.0 600.4 C 1059.3 601.8 1074.7 602.9 1090.0 603.8 C 1105.3 604.7 1120.7 605.4 1136.0 605.8 C 1151.3 606.2 1166.7 606.3 1182.0 606.2 C 1197.3 606.1 1212.7 605.8 1228.0 605.3 C 1243.3 604.7 1258.7 603.9 1274.0 603.0 C 1289.3 602.1 1304.7 601.0 1320.0 599.9 C 1335.3 598.7 1350.7 597.4 1366.0 596.1 C 1381.3 594.8 1396.7 593.4 1412.0 592.1 C 1427.3 590.8 1442.7 589.5 1458.0 588.4 C 1473.3 587.3 1488.7 586.2 1504.0 585.3 C 1519.3 584.4 1534.7 583.6 1550.0 583.1 C 1565.3 582.5 1580.7 582.2 1596.0 582.0 C 1611.3 581.9 1634.3 582.1 1642.0 582.2" stroke="#F5F0E8" stroke-width="1" stroke-opacity="0.067" fill="none" stroke-linecap="round"/><path d="M -60.0 670.7 C -52.3 670.3 -29.3 669.3 -14.0 668.7 C 1.3 668.0 16.7 667.4 32.0 666.9 C 47.3 666.3 62.7 665.7 78.0 665.2 C 93.3 664.7 108.7 664.2 124.0 663.7 C 139.3 663.2 154.7 662.8 170.0 662.3 C 185.3 661.9 200.7 661.4 216.0 661.0 C 231.3 660.6 246.7 660.2 262.0 659.9 C 277.3 659.5 292.7 659.1 308.0 658.8 C 323.3 658.4 338.7 658.1 354.0 657.7 C 369.3 657.4 384.7 657.0 400.0 656.7 C 415.3 656.4 430.7 656.0 446.0 655.7 C 461.3 655.4 476.7 655.0 492.0 654.7 C 507.3 654.4 522.7 654.1 538.0 653.7 C 553.3 653.4 568.7 653.1 584.0 652.7 C 599.3 652.4 614.7 652.1 630.0 651.7 C 645.3 651.4 660.7 651.1 676.0 650.7 C 691.3 650.4 706.7 650.0 722.0 649.7 C 737.3 649.4 752.7 649.0 768.0 648.7 C 783.3 648.4 798.7 648.0 814.0 647.7 C 829.3 647.4 844.7 647.0 860.0 646.7 C 875.3 646.4 890.7 646.1 906.0 645.8 C 921.3 645.5 936.7 645.2 952.0 644.9 C 967.3 644.6 982.7 644.3 998.0 644.1 C 1013.3 643.8 1028.7 643.5 1044.0 643.3 C 1059.3 643.1 1074.7 642.8 1090.0 642.6 C 1105.3 642.4 1120.7 642.2 1136.0 642.0 C 1151.3 641.8 1166.7 641.6 1182.0 641.4 C 1197.3 641.3 1212.7 641.1 1228.0 640.9 C 1243.3 640.8 1258.7 640.7 1274.0 640.5 C 1289.3 640.4 1304.7 640.3 1320.0 640.2 C 1335.3 640.0 1350.7 639.9 1366.0 639.8 C 1381.3 639.7 1396.7 639.6 1412.0 639.5 C 1427.3 639.4 1442.7 639.3 1458.0 639.1 C 1473.3 639.0 1488.7 638.9 1504.0 638.8 C 1519.3 638.6 1534.7 638.5 1550.0 638.3 C 1565.3 638.1 1580.7 638.0 1596.0 637.8 C 1611.3 637.6 1634.3 637.2 1642.0 637.1" stroke="#F5F0E8" stroke-width="1" stroke-opacity="0.053" fill="none" stroke-linecap="round"/><path d="M -60.0 723.0 C -52.3 721.7 -29.3 717.7 -14.0 715.0 C 1.3 712.2 16.7 709.3 32.0 706.4 C 47.3 703.6 62.7 700.7 78.0 697.9 C 93.3 695.2 108.7 692.5 124.0 690.0 C 139.3 687.5 154.7 685.2 170.0 683.1 C 185.3 681.1 200.7 679.2 216.0 677.7 C 231.3 676.1 246.7 674.9 262.0 673.9 C 277.3 673.0 292.7 672.4 308.0 672.0 C 323.3 671.7 338.7 671.7 354.0 672.0 C 369.3 672.3 384.7 672.9 400.0 673.7 C 415.3 674.5 430.7 675.7 446.0 676.9 C 461.3 678.2 476.7 679.8 492.0 681.4 C 507.3 683.0 522.7 684.8 538.0 686.7 C 553.3 688.5 568.7 690.5 584.0 692.4 C 599.3 694.3 614.7 696.3 630.0 698.1 C 645.3 700.0 660.7 701.9 676.0 703.6 C 691.3 705.3 706.7 706.9 722.0 708.3 C 737.3 709.7 752.7 711.1 768.0 712.1 C 783.3 713.2 798.7 714.2 814.0 714.9 C 829.3 715.6 844.7 716.1 860.0 716.5 C 875.3 716.8 890.7 716.9 906.0 716.9 C 921.3 716.8 936.7 716.6 952.0 716.2 C 967.3 715.8 982.7 715.2 998.0 714.5 C 1013.3 713.8 1028.7 712.9 1044.0 711.9 C 1059.3 711.0 1074.7 709.9 1090.0 708.8 C 1105.3 707.7 1120.7 706.5 1136.0 705.2 C 1151.3 704.0 1166.7 702.7 1182.0 701.4 C 1197.3 700.1 1212.7 698.8 1228.0 697.5 C 1243.3 696.3 1258.7 695.0 1274.0 693.7 C 1289.3 692.5 1304.7 691.3 1320.0 690.2 C 1335.3 689.0 1350.7 687.9 1366.0 686.9 C 1381.3 685.8 1396.7 684.9 1412.0 684.0 C 1427.3 683.1 1442.7 682.2 1458.0 681.4 C 1473.3 680.7 1488.7 680.0 1504.0 679.3 C 1519.3 678.7 1534.7 678.2 1550.0 677.7 C 1565.3 677.2 1580.7 676.8 1596.0 676.5 C 1611.3 676.2 1634.3 675.9 1642.0 675.8" stroke="#F5F0E8" stroke-width="1" stroke-opacity="0.091" fill="none" stroke-linecap="round"/><path d="M -60.0 732.4 C -52.3 732.5 -29.3 732.8 -14.0 733.0 C 1.3 733.2 16.7 733.5 32.0 733.8 C 47.3 734.1 62.7 734.4 78.0 734.6 C 93.3 734.9 108.7 735.2 124.0 735.4 C 139.3 735.7 154.7 735.9 170.0 736.1 C 185.3 736.2 200.7 736.4 216.0 736.4 C 231.3 736.5 246.7 736.5 262.0 736.4 C 277.3 736.4 292.7 736.2 308.0 736.0 C 323.3 735.8 338.7 735.5 354.0 735.2 C 369.3 734.8 384.7 734.4 400.0 733.9 C 415.3 733.4 430.7 732.8 446.0 732.2 C 461.3 731.5 476.7 730.8 492.0 730.1 C 507.3 729.4 522.7 728.6 538.0 727.7 C 553.3 726.9 568.7 726.0 584.0 725.2 C 599.3 724.3 614.7 723.4 630.0 722.5 C 645.3 721.6 660.7 720.7 676.0 719.8 C 691.3 718.9 706.7 718.0 722.0 717.2 C 737.3 716.3 752.7 715.5 768.0 714.7 C 783.3 714.0 798.7 713.2 814.0 712.5 C 829.3 711.8 844.7 711.1 860.0 710.5 C 875.3 709.9 890.7 709.3 906.0 708.8 C 921.3 708.2 936.7 707.7 952.0 707.3 C 967.3 706.8 982.7 706.4 998.0 705.9 C 1013.3 705.5 1028.7 705.1 1044.0 704.7 C 1059.3 704.3 1074.7 703.9 1090.0 703.4 C 1105.3 703.0 1120.7 702.6 1136.0 702.1 C 1151.3 701.6 1166.7 701.1 1182.0 700.5 C 1197.3 699.9 1212.7 699.3 1228.0 698.6 C 1243.3 697.8 1258.7 697.1 1274.0 696.2 C 1289.3 695.3 1304.7 694.3 1320.0 693.3 C 1335.3 692.2 1350.7 691.1 1366.0 689.8 C 1381.3 688.5 1396.7 687.2 1412.0 685.7 C 1427.3 684.2 1442.7 682.7 1458.0 681.0 C 1473.3 679.3 1488.7 677.6 1504.0 675.7 C 1519.3 673.9 1534.7 672.0 1550.0 670.0 C 1565.3 668.0 1580.7 666.0 1596.0 663.9 C 1611.3 661.9 1634.3 658.7 1642.0 657.6" stroke="#C9A96E" stroke-width="1.5" stroke-opacity="0.227" fill="none" stroke-linecap="round"/><path d="M -60.0 771.9 C -52.3 772.8 -29.3 775.3 -14.0 777.1 C 1.3 778.8 16.7 780.6 32.0 782.3 C 47.3 784.0 62.7 785.7 78.0 787.3 C 93.3 788.8 108.7 790.4 124.0 791.7 C 139.3 793.0 154.7 794.2 170.0 795.2 C 185.3 796.1 200.7 797.0 216.0 797.5 C 231.3 798.1 246.7 798.4 262.0 798.5 C 277.3 798.6 292.7 798.4 308.0 798.0 C 323.3 797.6 338.7 796.9 354.0 796.0 C 369.3 795.1 384.7 794.0 400.0 792.7 C 415.3 791.4 430.7 789.8 446.0 788.2 C 461.3 786.6 476.7 784.7 492.0 782.9 C 507.3 781.0 522.7 779.0 538.0 777.1 C 553.3 775.1 568.7 773.1 584.0 771.2 C 599.3 769.3 614.7 767.4 630.0 765.8 C 645.3 764.1 660.7 762.5 676.0 761.2 C 691.3 759.8 706.7 758.6 722.0 757.7 C 737.3 756.8 752.7 756.2 768.0 755.8 C 783.3 755.5 798.7 755.4 814.0 755.6 C 829.3 755.8 844.7 756.3 860.0 757.1 C 875.3 757.9 890.7 759.0 906.0 760.3 C 921.3 761.7 936.7 763.3 952.0 765.1 C 967.3 766.9 982.7 768.9 998.0 771.1 C 1013.3 773.2 1028.7 775.6 1044.0 778.0 C 1059.3 780.3 1074.7 782.9 1090.0 785.3 C 1105.3 787.7 1120.7 790.3 1136.0 792.6 C 1151.3 795.0 1166.7 797.4 1182.0 799.5 C 1197.3 801.7 1212.7 803.8 1228.0 805.6 C 1243.3 807.4 1258.7 809.1 1274.0 810.5 C 1289.3 812.0 1304.7 813.2 1320.0 814.1 C 1335.3 815.1 1350.7 815.8 1366.0 816.2 C 1381.3 816.7 1396.7 816.9 1412.0 816.9 C 1427.3 816.9 1442.7 816.7 1458.0 816.3 C 1473.3 815.9 1488.7 815.3 1504.0 814.6 C 1519.3 813.9 1534.7 813.0 1550.0 812.2 C 1565.3 811.3 1580.7 810.3 1596.0 809.3 C 1611.3 808.4 1634.3 806.9 1642.0 806.5" stroke="#F5F0E8" stroke-width="1" stroke-opacity="0.047" fill="none" stroke-linecap="round"/><path d="M -60.0 818.6 C -52.3 816.3 -29.3 809.6 -14.0 805.2 C 1.3 800.8 16.7 796.3 32.0 792.1 C 47.3 787.9 62.7 783.8 78.0 780.2 C 93.3 776.5 108.7 773.1 124.0 770.1 C 139.3 767.2 154.7 764.6 170.0 762.6 C 185.3 760.6 200.7 759.0 216.0 757.9 C 231.3 756.9 246.7 756.3 262.0 756.2 C 277.3 756.1 292.7 756.5 308.0 757.3 C 323.3 758.0 338.7 759.2 354.0 760.7 C 369.3 762.1 384.7 763.9 400.0 765.8 C 415.3 767.6 430.7 769.8 446.0 771.8 C 461.3 773.9 476.7 776.1 492.0 778.0 C 507.3 780.0 522.7 781.9 538.0 783.5 C 553.3 785.1 568.7 786.6 584.0 787.6 C 599.3 788.7 614.7 789.4 630.0 789.7 C 645.3 790.0 660.7 790.0 676.0 789.5 C 691.3 789.0 706.7 788.1 722.0 786.9 C 737.3 785.6 752.7 783.9 768.0 781.9 C 783.3 779.9 798.7 777.6 814.0 775.0 C 829.3 772.5 844.7 769.6 860.0 766.7 C 875.3 763.9 890.7 760.7 906.0 757.7 C 921.3 754.7 936.7 751.5 952.0 748.6 C 967.3 745.7 982.7 742.8 998.0 740.1 C 1013.3 737.5 1028.7 735.0 1044.0 732.9 C 1059.3 730.7 1074.7 728.8 1090.0 727.3 C 1105.3 725.7 1120.7 724.5 1136.0 723.5 C 1151.3 722.6 1166.7 722.0 1182.0 721.7 C 1197.3 721.4 1212.7 721.4 1228.0 721.7 C 1243.3 721.9 1258.7 722.4 1274.0 723.0 C 1289.3 723.6 1304.7 724.5 1320.0 725.3 C 1335.3 726.2 1350.7 727.2 1366.0 728.0 C 1381.3 728.9 1396.7 729.9 1412.0 730.6 C 1427.3 731.4 1442.7 732.1 1458.0 732.6 C 1473.3 733.1 1488.7 733.5 1504.0 733.7 C 1519.3 733.8 1534.7 733.8 1550.0 733.5 C 1565.3 733.2 1580.7 732.8 1596.0 732.1 C 1611.3 731.5 1634.3 730.1 1642.0 729.7" stroke="#F5F0E8" stroke-width="1" stroke-opacity="0.081" fill="none" stroke-linecap="round"/><path d="M -60.0 847.6 C -52.3 848.2 -29.3 850.2 -14.0 851.3 C 1.3 852.4 16.7 853.4 32.0 854.3 C 47.3 855.3 62.7 856.1 78.0 856.8 C 93.3 857.5 108.7 858.1 124.0 858.7 C 139.3 859.2 154.7 859.6 170.0 859.9 C 185.3 860.2 200.7 860.5 216.0 860.6 C 231.3 860.8 246.7 860.8 262.0 860.8 C 277.3 860.8 292.7 860.7 308.0 860.5 C 323.3 860.4 338.7 860.1 354.0 859.9 C 369.3 859.6 384.7 859.3 400.0 859.0 C 415.3 858.6 430.7 858.2 446.0 857.8 C 461.3 857.5 476.7 857.0 492.0 856.6 C 507.3 856.2 522.7 855.8 538.0 855.4 C 553.3 855.0 568.7 854.7 584.0 854.3 C 599.3 854.0 614.7 853.7 630.0 853.4 C 645.3 853.2 660.7 852.9 676.0 852.8 C 691.3 852.6 706.7 852.5 722.0 852.5 C 737.3 852.5 752.7 852.5 768.0 852.6 C 783.3 852.8 798.7 853.0 814.0 853.2 C 829.3 853.5 844.7 853.8 860.0 854.3 C 875.3 854.7 890.7 855.2 906.0 855.8 C 921.3 856.4 936.7 857.1 952.0 857.8 C 967.3 858.6 982.7 859.4 998.0 860.3 C 1013.3 861.2 1028.7 862.2 1044.0 863.2 C 1059.3 864.2 1074.7 865.3 1090.0 866.5 C 1105.3 867.6 1120.7 868.8 1136.0 870.0 C 1151.3 871.2 1166.7 872.5 1182.0 873.8 C 1197.3 875.1 1212.7 876.4 1228.0 877.7 C 1243.3 879.1 1258.7 880.4 1274.0 881.7 C 1289.3 883.1 1304.7 884.4 1320.0 885.7 C 1335.3 887.0 1350.7 888.3 1366.0 889.6 C 1381.3 890.8 1396.7 892.1 1412.0 893.3 C 1427.3 894.5 1442.7 895.6 1458.0 896.7 C 1473.3 897.8 1488.7 898.9 1504.0 899.9 C 1519.3 900.9 1534.7 901.8 1550.0 902.7 C 1565.3 903.5 1580.7 904.4 1596.0 905.1 C 1611.3 905.8 1634.3 906.8 1642.0 907.1" stroke="#F5F0E8" stroke-width="1" stroke-opacity="0.054" fill="none" stroke-linecap="round"/><path d="M -60.0 853.3 C -52.3 853.4 -29.3 853.4 -14.0 853.6 C 1.3 853.9 16.7 854.3 32.0 854.8 C 47.3 855.4 62.7 856.1 78.0 857.0 C 93.3 857.8 108.7 858.8 124.0 859.9 C 139.3 861.0 154.7 862.2 170.0 863.5 C 185.3 864.7 200.7 866.1 216.0 867.5 C 231.3 868.8 246.7 870.2 262.0 871.5 C 277.3 872.9 292.7 874.2 308.0 875.4 C 323.3 876.7 338.7 877.8 354.0 878.9 C 369.3 879.9 384.7 880.8 400.0 881.6 C 415.3 882.3 430.7 882.9 446.0 883.4 C 461.3 883.8 476.7 884.1 492.0 884.2 C 507.3 884.2 522.7 884.2 538.0 883.9 C 553.3 883.7 568.7 883.3 584.0 882.8 C 599.3 882.3 614.7 881.7 630.0 880.9 C 645.3 880.2 660.7 879.4 676.0 878.6 C 691.3 877.7 706.7 876.8 722.0 876.0 C 737.3 875.1 752.7 874.2 768.0 873.5 C 783.3 872.7 798.7 871.9 814.0 871.3 C 829.3 870.7 844.7 870.2 860.0 869.8 C 875.3 869.5 890.7 869.2 906.0 869.1 C 921.3 869.1 936.7 869.2 952.0 869.4 C 967.3 869.7 982.7 870.1 998.0 870.7 C 1013.3 871.2 1028.7 872.0 1044.0 872.8 C 1059.3 873.7 1074.7 874.7 1090.0 875.8 C 1105.3 876.9 1120.7 878.1 1136.0 879.3 C 1151.3 880.6 1166.7 881.9 1182.0 883.2 C 1197.3 884.6 1212.7 885.9 1228.0 887.3 C 1243.3 888.6 1258.7 889.9 1274.0 891.2 C 1289.3 892.4 1304.7 893.7 1320.0 894.8 C 1335.3 895.9 1350.7 897.0 1366.0 897.9 C 1381.3 898.9 1396.7 899.8 1412.0 900.5 C 1427.3 901.3 1442.7 902.0 1458.0 902.6 C 1473.3 903.2 1488.7 903.7 1504.0 904.1 C 1519.3 904.6 1534.7 904.9 1550.0 905.3 C 1565.3 905.6 1580.7 905.9 1596.0 906.2 C 1611.3 906.4 1634.3 906.8 1642.0 906.9" stroke="#C9A96E" stroke-width="1.5" stroke-opacity="0.211" fill="none" stroke-linecap="round"/><path d="M -60.0 897.8 C -52.3 898.4 -29.3 900.0 -14.0 901.1 C 1.3 902.1 16.7 903.2 32.0 904.3 C 47.3 905.3 62.7 906.3 78.0 907.4 C 93.3 908.4 108.7 909.4 124.0 910.3 C 139.3 911.3 154.7 912.2 170.0 913.1 C 185.3 914.0 200.7 914.8 216.0 915.6 C 231.3 916.4 246.7 917.2 262.0 917.9 C 277.3 918.7 292.7 919.4 308.0 920.0 C 323.3 920.6 338.7 921.2 354.0 921.7 C 369.3 922.3 384.7 922.8 400.0 923.2 C 415.3 923.6 430.7 924.0 446.0 924.4 C 461.3 924.7 476.7 925.0 492.0 925.3 C 507.3 925.5 522.7 925.7 538.0 925.9 C 553.3 926.1 568.7 926.2 584.0 926.3 C 599.3 926.4 614.7 926.5 630.0 926.5 C 645.3 926.6 660.7 926.6 676.0 926.6 C 691.3 926.6 706.7 926.5 722.0 926.5 C 737.3 926.5 752.7 926.5 768.0 926.4 C 783.3 926.4 798.7 926.4 814.0 926.3 C 829.3 926.3 844.7 926.3 860.0 926.3 C 875.3 926.3 890.7 926.3 906.0 926.3 C 921.3 926.4 936.7 926.4 952.0 926.5 C 967.3 926.6 982.7 926.8 998.0 926.9 C 1013.3 927.1 1028.7 927.3 1044.0 927.6 C 1059.3 927.8 1074.7 928.1 1090.0 928.4 C 1105.3 928.8 1120.7 929.2 1136.0 929.6 C 1151.3 930.1 1166.7 930.5 1182.0 931.1 C 1197.3 931.6 1212.7 932.2 1228.0 932.8 C 1243.3 933.5 1258.7 934.1 1274.0 934.9 C 1289.3 935.6 1304.7 936.4 1320.0 937.2 C 1335.3 938.0 1350.7 938.8 1366.0 939.7 C 1381.3 940.6 1396.7 941.6 1412.0 942.5 C 1427.3 943.5 1442.7 944.4 1458.0 945.4 C 1473.3 946.4 1488.7 947.5 1504.0 948.5 C 1519.3 949.5 1534.7 950.6 1550.0 951.6 C 1565.3 952.7 1580.7 953.7 1596.0 954.8 C 1611.3 955.8 1634.3 957.3 1642.0 957.9" stroke="#F5F0E8" stroke-width="1" stroke-opacity="0.078" fill="none" stroke-linecap="round"/><path d="M -60.0 928.9 C -52.3 928.6 -29.3 927.7 -14.0 927.0 C 1.3 926.4 16.7 925.8 32.0 925.1 C 47.3 924.5 62.7 923.9 78.0 923.3 C 93.3 922.8 108.7 922.2 124.0 921.7 C 139.3 921.1 154.7 920.6 170.0 920.1 C 185.3 919.7 200.7 919.2 216.0 918.8 C 231.3 918.4 246.7 918.0 262.0 917.7 C 277.3 917.3 292.7 917.0 308.0 916.8 C 323.3 916.5 338.7 916.2 354.0 916.0 C 369.3 915.8 384.7 915.6 400.0 915.4 C 415.3 915.3 430.7 915.1 446.0 915.0 C 461.3 914.8 476.7 914.7 492.0 914.5 C 507.3 914.4 522.7 914.3 538.0 914.1 C 553.3 914.0 568.7 913.8 584.0 913.6 C 599.3 913.5 614.7 913.3 630.0 913.0 C 645.3 912.8 660.7 912.5 676.0 912.3 C 691.3 912.0 706.7 911.6 722.0 911.3 C 737.3 910.9 752.7 910.5 768.0 910.0 C 783.3 909.6 798.7 909.1 814.0 908.5 C 829.3 908.0 844.7 907.4 860.0 906.8 C 875.3 906.2 890.7 905.5 906.0 904.8 C 921.3 904.1 936.7 903.4 952.0 902.7 C 967.3 901.9 982.7 901.1 998.0 900.3 C 1013.3 899.5 1028.7 898.7 1044.0 897.9 C 1059.3 897.1 1074.7 896.3 1090.0 895.4 C 1105.3 894.6 1120.7 893.8 1136.0 893.0 C 1151.3 892.2 1166.7 891.4 1182.0 890.7 C 1197.3 889.9 1212.7 889.2 1228.0 888.5 C 1243.3 887.8 1258.7 887.1 1274.0 886.5 C 1289.3 885.8 1304.7 885.2 1320.0 884.7 C 1335.3 884.1 1350.7 883.6 1366.0 883.1 C 1381.3 882.6 1396.7 882.2 1412.0 881.8 C 1427.3 881.4 1442.7 881.0 1458.0 880.7 C 1473.3 880.4 1488.7 880.1 1504.0 879.8 C 1519.3 879.5 1534.7 879.3 1550.0 879.1 C 1565.3 878.8 1580.7 878.6 1596.0 878.4 C 1611.3 878.2 1634.3 877.9 1642.0 877.8" stroke="#F5F0E8" stroke-width="1" stroke-opacity="0.049" fill="none" stroke-linecap="round"/><path d="M -60.0 955.9 C -52.3 955.7 -29.3 955.0 -14.0 954.6 C 1.3 954.2 16.7 953.8 32.0 953.5 C 47.3 953.2 62.7 953.0 78.0 952.8 C 93.3 952.6 108.7 952.5 124.0 952.4 C 139.3 952.2 154.7 952.2 170.0 952.1 C 185.3 952.1 200.7 952.1 216.0 952.1 C 231.3 952.1 246.7 952.2 262.0 952.2 C 277.3 952.3 292.7 952.4 308.0 952.5 C 323.3 952.6 338.7 952.7 354.0 952.8 C 369.3 952.9 384.7 953.0 400.0 953.0 C 415.3 953.1 430.7 953.2 446.0 953.3 C 461.3 953.3 476.7 953.4 492.0 953.4 C 507.3 953.4 522.7 953.4 538.0 953.4 C 553.3 953.3 568.7 953.3 584.0 953.2 C 599.3 953.1 614.7 953.0 630.0 952.8 C 645.3 952.7 660.7 952.5 676.0 952.2 C 691.3 952.0 706.7 951.8 722.0 951.5 C 737.3 951.2 752.7 950.9 768.0 950.5 C 783.3 950.2 798.7 949.8 814.0 949.4 C 829.3 949.0 844.7 948.6 860.0 948.1 C 875.3 947.7 890.7 947.2 906.0 946.7 C 921.3 946.3 936.7 945.8 952.0 945.3 C 967.3 944.8 982.7 944.3 998.0 943.8 C 1013.3 943.3 1028.7 942.8 1044.0 942.3 C 1059.3 941.8 1074.7 941.3 1090.0 940.8 C 1105.3 940.3 1120.7 939.8 1136.0 939.4 C 1151.3 938.9 1166.7 938.5 1182.0 938.1 C 1197.3 937.7 1212.7 937.3 1228.0 936.9 C 1243.3 936.6 1258.7 936.2 1274.0 935.9 C 1289.3 935.6 1304.7 935.3 1320.0 935.0 C 1335.3 934.8 1350.7 934.6 1366.0 934.3 C 1381.3 934.1 1396.7 934.0 1412.0 933.8 C 1427.3 933.6 1442.7 933.5 1458.0 933.4 C 1473.3 933.3 1488.7 933.2 1504.0 933.1 C 1519.3 933.1 1534.7 933.0 1550.0 933.0 C 1565.3 932.9 1580.7 932.9 1596.0 932.9 C 1611.3 932.9 1634.3 932.9 1642.0 932.8" stroke="#F5F0E8" stroke-width="1" stroke-opacity="0.075" fill="none" stroke-linecap="round"/></g>
<path d="M -60.0 436.3 C -52.3 436.8 -29.3 438.3 -14.0 439.3 C 1.3 440.3 16.7 441.3 32.0 442.2 C 47.3 443.2 62.7 444.1 78.0 445.0 C 93.3 445.9 108.7 446.8 124.0 447.6 C 139.3 448.4 154.7 449.1 170.0 449.8 C 185.3 450.4 200.7 451.0 216.0 451.5 C 231.3 452.0 246.7 452.4 262.0 452.7 C 277.3 453.0 292.7 453.2 308.0 453.4 C 323.3 453.5 338.7 453.5 354.0 453.5 C 369.3 453.4 384.7 453.3 400.0 453.1 C 415.3 452.9 430.7 452.6 446.0 452.3 C 461.3 451.9 476.7 451.5 492.0 451.0 C 507.3 450.6 522.7 450.1 538.0 449.6 C 553.3 449.1 568.7 448.5 584.0 448.0 C 599.3 447.4 614.7 446.9 630.0 446.3 C 645.3 445.8 660.7 445.3 676.0 444.8 C 691.3 444.4 706.7 443.9 722.0 443.6 C 737.3 443.2 752.7 442.9 768.0 442.6 C 783.3 442.4 798.7 442.2 814.0 442.1 C 829.3 442.0 844.7 442.0 860.0 442.0 C 875.3 442.1 890.7 442.2 906.0 442.4 C 921.3 442.6 936.7 442.9 952.0 443.2 C 967.3 443.6 982.7 444.0 998.0 444.5 C 1013.3 444.9 1028.7 445.5 1044.0 446.0 C 1059.3 446.6 1074.7 447.2 1090.0 447.8 C 1105.3 448.5 1120.7 449.1 1136.0 449.8 C 1151.3 450.4 1166.7 451.1 1182.0 451.8 C 1197.3 452.4 1212.7 453.1 1228.0 453.7 C 1243.3 454.3 1258.7 454.9 1274.0 455.4 C 1289.3 455.9 1304.7 456.4 1320.0 456.8 C 1335.3 457.3 1350.7 457.7 1366.0 458.0 C 1381.3 458.3 1396.7 458.5 1412.0 458.7 C 1427.3 458.9 1442.7 459.1 1458.0 459.1 C 1473.3 459.2 1488.7 459.2 1504.0 459.2 C 1519.3 459.2 1534.7 459.1 1550.0 459.0 C 1565.3 458.9 1580.7 458.7 1596.0 458.6 C 1611.3 458.4 1634.3 458.1 1642.0 458.0" stroke="#C9A96E" stroke-width="2" stroke-opacity="0.5" fill="none" stroke-linecap="round"/>
<rect width="1600" height="900" fill="url(#vig)"/>
<rect width="1600" height="900" filter="url(#grain)" opacity="0.05"/>
</svg>