<svg xmlns="http://www.w3.org/2000/svg" viewBox="0 0 1600 900" preserveAspectRatio="xMidYMid slice">
<defs>
<linearGradient id="bg" x1="0" y1="0" x2="0" y2="1"><stop offset="0" stop-color="#0b160f"/><stop offset="1" stop-color="#15271b"/></linearGradient>
<radialGradient id="glow" cx="0.572" cy="0.097" r="0.75"><stop offset="0" stop-color="#C9A96E" stop-opacity="0.15"/><stop offset="1" stop-color="#C9A96E" stop-opacity="0"/></radialGradient>
<radialGradient id="vig" cx="0.5" cy="0.5" r="0.75"><stop offset="0.5" stop-color="#000" stop-opacity="0"/><stop offset="1" stop-color="#000" stop-opacity="0.5"/></radialGradient>
<filter id="grain"><feTurbulence type="fractalNoise" baseFrequency="0.9" numOctaves="2" stitchTiles="stitch"/><feColorMatrix type="matrix" values="0 0 0 0 0 0 0 0 0 0 0 0 0 0 0 0 0 0 0.55 0"/></filter>
</defs>
<rect width="1600" height="900" fill="url(#bg)"/>
<rect width="1600" height="900" fill="url(#glow)"/>
<path d="M -60.0 519.8 C -52.3 518.8 -29.3 516.0 -14.0 514.1 C 1.3 512.2 16.7 510.4 32.0 508.5 C 47.3 506.7 62.7 504.9 78.0 503.1 C 93.3 501.4 108.7 499.6 124.0 497.9 C 139.3 496.2 154.7 494.6 170.0 493.0 C 185.3 491.4 200.7 489.8 216.0 488.3 C 231.3 486.8 246.7 485.4 262.0 484.0 C 277.3 482.7 292.7 481.4 308.0 480.1 C 323.3 478.9 338.7 477.7 354.0 476.6 C 369.3 475.5 384.7 474.5 400.0 473.5 C 415.3 472.6 430.7 471.7 446.0 470.9 C 461.3 470.1 476.7 469.4 492.0 468.7 C 507.3 468.1 522.7 467.5 538.0 467.0 C 553.3 466.5 568.7 466.1 584.0 465.8 C 599.3 465.4 614.7 465.1 630.0 464.9 C 645.3 464.7 660.7 464.6 676.0 464.5 C 691.3 464.4 706.7 464.4 722.0 464.5 C 737.3 464.5 752.7 464.6 768.0 464.7 C 783.3 464.9 798.7 465.1 814.0 465.3 C 829.3 465.6 844.7 465.8 860.0 466.2 C 875.3 466.5 890.7 466.8 906.0 467.2 C 921.3 467.5 936.7 467.9 952.0 468.3 C 967.3 468.7 982.7 469.2 998.0 469.6 C 1013.3 470.0 1028.7 470.4 1044.0 470.9 C 1059.3 471.3 1074.7 471.7 1090.0 472.1 C 1105.3 472.5 1120.7 472.9 1136.0 473.2 C 1151.3 473.6 1166.7 473.9 1182.0 474.2 C 1197.3 474.5 1212.7 474.8 1228.0 475.0 C 1243.3 475.2 1258.7 475.4 1274.0 475.5 C 1289.3 475.6 1304.7 475.7 1320.0 475.7 C 1335.3 475.7 1350.7 475.6 1366.0 475.5 C 1381.3 475.4 1396.7 475.2 1412.0 475.0 C 1427.3 474.7 1442.7 474.4 1458.0 474.0 C 1473.3 473.6 1488.7 473.2 1504.0 472.6 C 1519.3 472.1 1534.7 471.5 1550.0 470.8 C 1565.3 470.1 1580.7 469.3 1596.0 468.5 C 1611.3 467.7 1631.3 383.8 1642.0 465.8 C 1652.7 547.7 1943.7 877.6 1660.0 960.0 C 1376.3 1042.4 226.7 960.0 -60.0 960.0 Z" fill="#C9A96E" fill-opacity="0.028"/>
<g><path d="M -60.0 -58.5 C -52.3 -58.8 -29.3 -59.8 -14.0 -60.6 C 1.3 -61.4 16.7 -62.2 32.0 -63.0 C 47.3 -63.9 62.7 -64.8 78.0 -65.7 C 93.3 -66.6 108.7 -67.6 124.0 -68.6 C 139.3 -69.5 154.7 -70.5 170.0 -71.5 C 185.3 -72.5 200.7 -73.5 216.0 -74.4 C 231.3 -75.4 246.7 -76.3 262.0 -77.1 C 277.3 -78.0 292.7 -78.8 308.0 -79.6 C 323.3 -80.3 338.7 -81.0 354.0 -81.6 C 369.3 -82.2 384.7 -82.7 400.0 -83.1 C 415.3 -83.5 430.7 -83.8 446.0 -84.1 C 461.3 -84.3 476.7 -84.5 492.0 -84.5 C 507.3 -84.6 522.7 -84.6 538.0 -84.6 C 553.3 -84.5 568.7 -84.4 584.0 -84.2 C 599.3 -84.1 614.7 -83.8 630.0 -83.6 C 645.3 -83.4 660.7 -83.2 676.0 -83.0 C 691.3 -82.8 706.7 -82.6 722.0 -82.5 C 737.3 -82.4 752.7 -82.3 768.0 -82.3 C 783.3 -82.3 798.7 -82.4 814.0 -82.6 C 829.3 -82.8 844.7 -83.1 860.0 -83.5 C 875.3 -83.9 890.7 -84.4 906.0 -85.1 C 921.3 -85.8 936.7 -86.6 952.0 -87.5 C 967.3 -88.4 982.7 -89.4 998.0 -90.6 C 1013.3 -91.7 1028.7 -93.0 1044.0 -94.3 C 1059.3 -95.7 1074.7 -97.2 1090.0 -98.7 C 1105.3 -100.2 1120.7 -101.8 1136.0 -103.4 C 1151.3 -105.0 1166.7 -106.7 1182.0 -108.4 C 1197.3 -110.0 1212.7 -111.7 1228.0 -113.3 C 1243.3 -115.0 1258.7 -116.6 1274.0 -118.1 C 1289.3 -119.7 1304.7 -121.2 1320.0 -122.6 C 1335.3 -124.0 1350.7 -125.3 1366.0 -126.5 C 1381.3 -127.8 1396.7 -128.9 1412.0 -129.9 C 1427.3 -130.9 1442.7 -131.8 1458.0 -132.6 C 1473.3 -133.4 1488.7 -134.0 1504.0 -134.6 C 1519.3 -135.2 1534.7 -135.7 1550.0 -136.1 C 1565.3 -136.4 1580.7 -136.7 1596.0 -137.0 C 1611.3 -137.2 1634.3 -137.5 1642.0 -137.6" stroke="#F5F0E8" stroke-width="1" stroke-opacity="0.049" fill="none" stroke-linecap="round"/><path d="M -60.0 -51.5 C -52.3 -50.8 -29.3 -49.0 -14.0 -47.4 C 1.3 -45.8 16.7 -43.9 32.0 -41.9 C 47.3 -39.9 62.7 -37.6 78.0 -35.3 C 93.3 -33.0 108.7 -30.5 124.0 -28.1 C 139.3 -25.7 154.7 -23.2 170.0 -20.8 C 185.3 -18.4 200.7 -15.9 216.0 -13.7 C 231.3 -11.5 246.7 -9.3 262.0 -7.4 C 277.3 -5.5 292.7 -3.7 308.0 -2.2 C 323.3 -0.7 338.7 0.6 354.0 1.6 C 369.3 2.6 384.7 3.4 400.0 3.9 C 415.3 4.3 430.7 4.5 446.0 4.5 C 461.3 4.4 476.7 4.1 492.0 3.6 C 507.3 3.0 522.7 2.2 538.0 1.3 C 553.3 0.4 568.7 -0.7 584.0 -1.9 C 599.3 -3.1 614.7 -4.5 630.0 -5.8 C 645.3 -7.2 660.7 -8.6 676.0 -9.9 C 691.3 -11.3 706.7 -12.6 722.0 -13.8 C 737.3 -15.0 752.7 -16.1 768.0 -17.0 C 783.3 -18.0 798.7 -18.7 814.0 -19.3 C 829.3 -19.8 844.7 -20.1 860.0 -20.2 C 875.3 -20.3 890.7 -20.1 906.0 -19.7 C 921.3 -19.3 936.7 -18.7 952.0 -17.8 C 967.3 -16.9 982.7 -15.8 998.0 -14.5 C 1013.3 -13.2 1028.7 -11.6 1044.0 -10.0 C 1059.3 -8.4 1074.7 -6.5 1090.0 -4.7 C 1105.3 -2.8 1120.7 -0.8 1136.0 1.2 C 1151.3 3.1 1166.7 5.1 1182.0 7.0 C 1197.3 8.9 1212.7 10.8 1228.0 12.5 C 1243.3 14.2 1258.7 15.9 1274.0 17.3 C 1289.3 18.6 1304.7 19.9 1320.0 20.9 C 1335.3 21.8 1350.7 22.6 1366.0 23.1 C 1381.3 23.6 1396.7 23.8 1412.0 23.8 C 1427.3 23.7 1442.7 23.4 1458.0 22.9 C 1473.3 22.4 1488.7 21.6 1504.0 20.6 C 1519.3 19.7 1534.7 18.5 1550.0 17.1 C 1565.3 15.8 1580.7 14.3 1596.0 12.8 C 1611.3 11.3 1634.3 8.8 1642.0 8.0" stroke="#F5F0E8" stroke-width="1.5" stroke-opacity="0.240" fill="none" stroke-linecap="round"/><path d="M -60.0 15.2 C -52.3 14.7 -29.3 13.4 -14.0 12.4 C 1.3 11.4 16.7 10.4 32.0 9.2 C 47.3 8.1 62.7 6.9 78.0 5.7 C 93.3 4.4 108.7 3.1 124.0 1.8 C 139.3 0.5 154.7 -0.8 170.0 -2.2 C 185.3 -3.5 200.7 -4.9 216.0 -6.3 C 231.3 -7.6 246.7 -9.0 262.0 -10.3 C 277.3 -11.6 292.7 -13.0 308.0 -14.2 C 323.3 -15.5 338.7 -16.7 354.0 -17.9 C 369.3 -19.0 384.7 -20.2 400.0 -21.2 C 415.3 -22.2 430.7 -23.2 446.0 -24.1 C 461.3 -24.9 476.7 -25.7 492.0 -26.4 C 507.3 -27.2 522.7 -27.8 538.0 -28.3 C 553.3 -28.8 568.7 -29.2 584.0 -29.5 C 599.3 -29.9 614.7 -30.1 630.0 -30.2 C 645.3 -30.4 660.7 -30.4 676.0 -30.4 C 691.3 -30.3 706.7 -30.2 722.0 -30.0 C 737.3 -29.7 752.7 -29.4 768.0 -29.1 C 783.3 -28.7 798.7 -28.3 814.0 -27.8 C 829.3 -27.4 844.7 -26.8 860.0 -26.3 C 875.3 -25.7 890.7 -25.1 906.0 -24.5 C 921.3 -23.9 936.7 -23.2 952.0 -22.6 C 967.3 -22.0 982.7 -21.3 998.0 -20.7 C 1013.3 -20.1 1028.7 -19.5 1044.0 -18.9 C 1059.3 -18.3 1074.7 -17.8 1090.0 -17.3 C 1105.3 -16.8 1120.7 -16.3 1136.0 -15.9 C 1151.3 -15.5 1166.7 -15.2 1182.0 -14.9 C 1197.3 -14.6 1212.7 -14.4 1228.0 -14.3 C 1243.3 -14.1 1258.7 -14.1 1274.0 -14.1 C 1289.3 -14.1 1304.7 -14.1 1320.0 -14.3 C 1335.3 -14.4 1350.7 -14.7 1366.0 -15.0 C 1381.3 -15.2 1396.7 -15.6 1412.0 -16.0 C 1427.3 -16.4 1442.7 -16.9 1458.0 -17.5 C 1473.3 -18.0 1488.7 -18.6 1504.0 -19.2 C 1519.3 -19.9 1534.7 -20.5 1550.0 -21.3 C 1565.3 -22.0 1580.7 -22.7 1596.0 -23.5 C 1611.3 -24.2 1634.3 -25.4 1642.0 -25.8" stroke="#F5F0E8" stroke-width="1" stroke-opacity="0.077" fill="none" stroke-linecap="round"/><path d="M -60.0 32.1 C -52.3 32.0 -29.3 31.3 -14.0 31.1 C 1.3 30.8 16.7 30.6 32.0 30.7 C 47.3 30.7 62.7 30.9 78.0 31.3 C 93.3 31.8 108.7 32.4 124.0 33.2 C 139.3 34.1 154.7 35.2 170.0 36.6 C 185.3 37.9 200.7 39.5 216.0 41.3 C 231.3 43.1 246.7 45.2 262.0 47.4 C 277.3 49.5 292.7 52.0 308.0 54.4 C 323.3 56.9 338.7 59.6 354.0 62.2 C 369.3 64.9 384.7 67.6 400.0 70.3 C 415.3 72.9 430.7 75.6 446.0 78.1 C 461.3 80.7 476.7 83.2 492.0 85.4 C 507.3 87.7 522.7 89.8 538.0 91.7 C 553.3 93.5 568.7 95.2 584.0 96.6 C 599.3 98.0 614.7 99.1 630.0 100.0 C 645.3 100.8 660.7 101.4 676.0 101.7 C 691.3 102.1 706.7 102.1 722.0 101.9 C 737.3 101.7 752.7 101.3 768.0 100.7 C 783.3 100.1 798.7 99.3 814.0 98.4 C 829.3 97.5 844.7 96.4 860.0 95.3 C 875.3 94.3 890.7 93.1 906.0 92.0 C 921.3 90.9 936.7 89.8 952.0 88.9 C 967.3 87.9 982.7 87.0 998.0 86.3 C 1013.3 85.6 1028.7 85.0 1044.0 84.7 C 1059.3 84.3 1074.7 84.2 1090.0 84.2 C 1105.3 84.3 1120.7 84.7 1136.0 85.2 C 1151.3 85.8 1166.7 86.6 1182.0 87.6 C 1197.3 88.6 1212.7 89.8 1228.0 91.2 C 1243.3 92.6 1258.7 94.2 1274.0 95.9 C 1289.3 97.6 1304.7 99.5 1320.0 101.4 C 1335.3 103.2 1350.7 105.2 1366.0 107.1 C 1381.3 109.1 1396.7 111.0 1412.0 112.9 C 1427.3 114.7 1442.7 116.5 1458.0 118.1 C 1473.3 119.7 1488.7 121.2 1504.0 122.4 C 1519.3 123.7 1534.7 124.8 1550.0 125.6 C 1565.3 126.5 1580.7 127.1 1596.0 127.5 C 1611.3 127.9 1634.3 127.9 1642.0 127.9" stroke="#F5F0E8" stroke-width="1" stroke-opacity="0.088" fill="none" stroke-linecap="round"/><path d="M -60.0 87.5 C -52.3 87.3 -29.3 86.6 -14.0 86.1 C 1.3 85.5 16.7 84.8 32.0 84.2 C 47.3 83.5 62.7 82.7 78.0 81.9 C 93.3 81.2 108.7 80.4 124.0 79.6 C 139.3 78.9 154.7 78.1 170.0 77.4 C 185.3 76.7 200.7 76.0 216.0 75.4 C 231.3 74.9 246.7 74.3 262.0 73.9 C 277.3 73.5 292.7 73.1 308.0 72.9 C 323.3 72.6 338.7 72.5 354.0 72.4 C 369.3 72.4 384.7 72.5 400.0 72.7 C 415.3 72.8 430.7 73.1 446.0 73.5 C 461.3 73.9 476.7 74.3 492.0 74.9 C 507.3 75.5 522.7 76.1 538.0 76.8 C 553.3 77.5 568.7 78.3 584.0 79.1 C 599.3 79.9 614.7 80.8 630.0 81.7 C 645.3 82.6 660.7 83.5 676.0 84.4 C 691.3 85.3 706.7 86.2 722.0 87.1 C 737.3 88.0 752.7 88.8 768.0 89.7 C 783.3 90.5 798.7 91.3 814.0 92.1 C 829.3 92.8 844.7 93.5 860.0 94.1 C 875.3 94.8 890.7 95.4 906.0 95.9 C 921.3 96.4 936.7 96.8 952.0 97.2 C 967.3 97.6 982.7 98.0 998.0 98.2 C 1013.3 98.5 1028.7 98.7 1044.0 98.9 C 1059.3 99.1 1074.7 99.2 1090.0 99.3 C 1105.3 99.4 1120.7 99.4 1136.0 99.5 C 1151.3 99.5 1166.7 99.5 1182.0 99.5 C 1197.3 99.5 1212.7 99.5 1228.0 99.5 C 1243.3 99.5 1258.7 99.5 1274.0 99.5 C 1289.3 99.6 1304.7 99.6 1320.0 99.7 C 1335.3 99.7 1350.7 99.8 1366.0 99.9 C 1381.3 100.0 1396.7 100.2 1412.0 100.4 C 1427.3 100.5 1442.7 100.7 1458.0 101.0 C 1473.3 101.2 1488.7 101.5 1504.0 101.8 C 1519.3 102.1 1534.7 102.4 1550.0 102.8 C 1565.3 103.1 1580.7 103.5 1596.0 103.8 C 1611.3 104.2 1634.3 104.8 1642.0 104.9" stroke="#F5F0E8" stroke-width="1" stroke-opacity="0.047" fill="none" stroke-linecap="round"/><path d="M -60.0 102.2 C -52.3 102.1 -29.3 101.9 -14.0 101.8 C 1.3 101.8 16.7 101.9 32.0 102.0 C 47.3 102.2 62.7 102.4 78.0 102.8 C 93.3 103.2 108.7 103.6 124.0 104.2 C 139.3 104.7 154.7 105.4 170.0 106.1 C 185.3 106.8 200.7 107.7 216.0 108.5 C 231.3 109.3 246.7 110.3 262.0 111.1 C 277.3 112.0 292.7 113.0 308.0 113.9 C 323.3 114.7 338.7 115.6 354.0 116.4 C 369.3 117.2 384.7 117.9 400.0 118.5 C 415.3 119.1 430.7 119.7 446.0 120.0 C 461.3 120.3 476.7 120.6 492.0 120.6 C 507.3 120.6 522.7 120.5 538.0 120.2 C 553.3 119.9 568.7 119.4 584.0 118.7 C 599.3 118.0 614.7 117.1 630.0 116.1 C 645.3 115.0 660.7 113.8 676.0 112.4 C 691.3 111.0 706.7 109.5 722.0 107.8 C 737.3 106.2 752.7 104.4 768.0 102.6 C 783.3 100.7 798.7 98.8 814.0 96.9 C 829.3 94.9 844.7 92.9 860.0 91.0 C 875.3 89.1 890.7 87.1 906.0 85.3 C 921.3 83.4 936.7 81.6 952.0 79.9 C 967.3 78.3 982.7 76.7 998.0 75.2 C 1013.3 73.8 1028.7 72.5 1044.0 71.4 C 1059.3 70.2 1074.7 69.2 1090.0 68.4 C 1105.3 67.6 1120.7 67.0 1136.0 66.5 C 1151.3 66.0 1166.7 65.7 1182.0 65.5 C 1197.3 65.3 1212.7 65.3 1228.0 65.4 C 1243.3 65.5 1258.7 65.7 1274.0 66.0 C 1289.3 66.3 1304.7 66.8 1320.0 67.2 C 1335.3 67.6 1350.7 68.2 1366.0 68.7 C 1381.3 69.2 1396.7 69.8 1412.0 70.3 C 1427.3 70.8 1442.7 71.3 1458.0 71.8 C 1473.3 72.3 1488.7 72.7 1504.0 73.1 C 1519.3 73.5 1534.7 73.8 1550.0 74.1 C 1565.3 74.4 1580.7 74.5 1596.0 74.7 C 1611.3 74.8 1634.3 74.8 1642.0 74.9" stroke="#F5F0E8" stroke-width="1.5" stroke-opacity="0.163" fill="none" stroke-linecap="round"/><path d="M -60.0 153.6 C -52.3 153.9 -29.3 154.6 -14.0 155.0 C 1.3 155.5 16.7 156.0 32.0 156.4 C 47.3 156.8 62.7 157.3 78.0 157.6 C 93.3 157.9 108.7 158.2 124.0 158.4 C 139.3 158.5 154.7 158.6 170.0 158.6 C 185.3 158.5 200.7 158.3 216.0 158.0 C 231.3 157.6 246.7 157.2 262.0 156.5 C 277.3 155.9 292.7 155.1 308.0 154.1 C 323.3 153.2 338.7 152.1 354.0 150.8 C 369.3 149.6 384.7 148.1 400.0 146.6 C 415.3 145.1 430.7 143.4 446.0 141.7 C 461.3 140.0 476.7 138.1 492.0 136.2 C 507.3 134.3 522.7 132.3 538.0 130.3 C 553.3 128.3 568.7 126.3 584.0 124.3 C 599.3 122.3 614.7 120.3 630.0 118.4 C 645.3 116.4 660.7 114.5 676.0 112.8 C 691.3 111.0 706.7 109.3 722.0 107.8 C 737.3 106.2 752.7 104.8 768.0 103.5 C 783.3 102.3 798.7 101.1 814.0 100.2 C 829.3 99.2 844.7 98.5 860.0 97.8 C 875.3 97.2 890.7 96.8 906.0 96.5 C 921.3 96.2 936.7 96.1 952.0 96.2 C 967.3 96.2 982.7 96.4 998.0 96.8 C 1013.3 97.1 1028.7 97.5 1044.0 98.1 C 1059.3 98.6 1074.7 99.3 1090.0 100.0 C 1105.3 100.7 1120.7 101.4 1136.0 102.2 C 1151.3 103.0 1166.7 103.8 1182.0 104.5 C 1197.3 105.3 1212.7 106.1 1228.0 106.7 C 1243.3 107.4 1258.7 108.1 1274.0 108.6 C 1289.3 109.1 1304.7 109.6 1320.0 109.9 C 1335.3 110.2 1350.7 110.4 1366.0 110.4 C 1381.3 110.5 1396.7 110.4 1412.0 110.2 C 1427.3 109.9 1442.7 109.6 1458.0 109.0 C 1473.3 108.5 1488.7 107.8 1504.0 107.0 C 1519.3 106.2 1534.7 105.3 1550.0 104.3 C 1565.3 103.2 1580.7 102.0 1596.0 100.8 C 1611.3 99.6 1634.3 97.5 1642.0 96.9" stroke="#F5F0E8" stroke-width="1" stroke-opacity="0.072" fill="none" stroke-linecap="round"/><path d="M -60.0 171.7 C -52.3 172.6 -29.3 175.0 -14.0 176.7 C 1.3 178.3 16.7 180.1 32.0 181.6 C 47.3 183.2 62.7 184.7 78.0 186.0 C 93.3 187.4 108.7 188.6 124.0 189.5 C 139.3 190.4 154.7 191.2 170.0 191.6 C 185.3 192.1 200.7 192.3 216.0 192.2 C 231.3 192.1 246.7 191.7 262.0 191.0 C 277.3 190.3 292.7 189.3 308.0 188.1 C 323.3 186.9 338.7 185.3 354.0 183.6 C 369.3 181.9 384.7 179.9 400.0 177.7 C 415.3 175.6 430.7 173.2 446.0 170.8 C 461.3 168.4 476.7 165.9 492.0 163.3 C 507.3 160.8 522.7 158.2 538.0 155.7 C 553.3 153.2 568.7 150.6 584.0 148.3 C 599.3 146.0 614.7 143.7 630.0 141.6 C 645.3 139.6 660.7 137.7 676.0 136.0 C 691.3 134.4 706.7 132.9 722.0 131.7 C 737.3 130.6 752.7 129.6 768.0 128.9 C 783.3 128.2 798.7 127.8 814.0 127.6 C 829.3 127.4 844.7 127.5 860.0 127.7 C 875.3 127.9 890.7 128.4 906.0 129.0 C 921.3 129.6 936.7 130.4 952.0 131.2 C 967.3 132.0 982.7 133.0 998.0 133.9 C 1013.3 134.9 1028.7 135.9 1044.0 136.8 C 1059.3 137.7 1074.7 138.7 1090.0 139.4 C 1105.3 140.2 1120.7 140.9 1136.0 141.4 C 1151.3 141.9 1166.7 142.3 1182.0 142.5 C 1197.3 142.6 1212.7 142.6 1228.0 142.4 C 1243.3 142.1 1258.7 141.7 1274.0 141.0 C 1289.3 140.3 1304.7 139.4 1320.0 138.3 C 1335.3 137.2 1350.7 135.9 1366.0 134.4 C 1381.3 133.0 1396.7 131.3 1412.0 129.6 C 1427.3 127.8 1442.7 125.9 1458.0 124.0 C 1473.3 122.1 1488.7 120.1 1504.0 118.1 C 1519.3 116.2 1534.7 114.1 1550.0 112.3 C 1565.3 110.4 1580.7 108.5 1596.0 106.8 C 1611.3 105.1 1634.3 102.9 1642.0 102.1" stroke="#F5F0E8" stroke-width="1" stroke-opacity="0.055" fill="none" stroke-linecap="round"/><path d="M -60.0 203.7 C -52.3 204.1 -29.3 205.5 -14.0 206.4 C 1.3 207.3 16.7 208.2 32.0 209.2 C 47.3 210.1 62.7 211.0 78.0 211.9 C 93.3 212.9 108.7 213.8 124.0 214.7 C 139.3 215.7 154.7 216.6 170.0 217.6 C 185.3 218.6 200.7 219.5 216.0 220.5 C 231.3 221.5 246.7 222.4 262.0 223.4 C 277.3 224.4 292.7 225.4 308.0 226.4 C 323.3 227.4 338.7 228.4 354.0 229.5 C 369.3 230.5 384.7 231.5 400.0 232.5 C 415.3 233.6 430.7 234.6 446.0 235.6 C 461.3 236.7 476.7 237.7 492.0 238.8 C 507.3 239.8 522.7 240.9 538.0 241.9 C 553.3 243.0 568.7 244.0 584.0 245.1 C 599.3 246.1 614.7 247.2 630.0 248.2 C 645.3 249.3 660.7 250.3 676.0 251.3 C 691.3 252.3 706.7 253.4 722.0 254.4 C 737.3 255.4 752.7 256.3 768.0 257.3 C 783.3 258.3 798.7 259.2 814.0 260.2 C 829.3 261.1 844.7 262.0 860.0 262.9 C 875.3 263.8 890.7 264.6 906.0 265.4 C 921.3 266.3 936.7 267.1 952.0 267.8 C 967.3 268.6 982.7 269.3 998.0 270.1 C 1013.3 270.8 1028.7 271.4 1044.0 272.1 C 1059.3 272.7 1074.7 273.3 1090.0 273.8 C 1105.3 274.4 1120.7 274.9 1136.0 275.4 C 1151.3 275.9 1166.7 276.4 1182.0 276.8 C 1197.3 277.2 1212.7 277.6 1228.0 277.9 C 1243.3 278.2 1258.7 278.5 1274.0 278.8 C 1289.3 279.1 1304.7 279.3 1320.0 279.5 C 1335.3 279.8 1350.7 279.9 1366.0 280.1 C 1381.3 280.3 1396.7 280.4 1412.0 280.5 C 1427.3 280.6 1442.7 280.7 1458.0 280.8 C 1473.3 280.9 1488.7 280.9 1504.0 281.0 C 1519.3 281.0 1534.7 281.1 1550.0 281.1 C 1565.3 281.2 1580.7 281.2 1596.0 281.3 C 1611.3 281.3 1634.3 281.4 1642.0 281.5" stroke="#F5F0E8" stroke-width="1" stroke-opacity="0.056" fill="none" stroke-linecap="round"/><path d="M -60.0 238.8 C -52.3 237.6 -29.3 234.1 -14.0 231.8 C 1.3 229.6 16.7 227.3 32.0 225.2 C 47.3 223.1 62.7 221.0 78.0 219.1 C 93.3 217.2 108.7 215.4 124.0 213.9 C 139.3 212.3 154.7 210.9 170.0 209.7 C 185.3 208.6 200.7 207.6 216.0 206.9 C 231.3 206.2 246.7 205.7 262.0 205.4 C 277.3 205.2 292.7 205.1 308.0 205.3 C 323.3 205.6 338.7 206.0 354.0 206.7 C 369.3 207.3 384.7 208.2 400.0 209.2 C 415.3 210.2 430.7 211.5 446.0 212.8 C 461.3 214.2 476.7 215.7 492.0 217.2 C 507.3 218.8 522.7 220.5 538.0 222.2 C 553.3 223.9 568.7 225.6 584.0 227.3 C 599.3 229.0 614.7 230.7 630.0 232.3 C 645.3 233.8 660.7 235.4 676.0 236.7 C 691.3 238.1 706.7 239.4 722.0 240.4 C 737.3 241.5 752.7 242.4 768.0 243.1 C 783.3 243.7 798.7 244.2 814.0 244.4 C 829.3 244.6 844.7 244.6 860.0 244.4 C 875.3 244.1 890.7 243.6 906.0 242.9 C 921.3 242.1 936.7 241.1 952.0 239.9 C 967.3 238.7 982.7 237.2 998.0 235.6 C 1013.3 234.0 1028.7 232.1 1044.0 230.1 C 1059.3 228.1 1074.7 225.9 1090.0 223.6 C 1105.3 221.4 1120.7 218.9 1136.0 216.5 C 1151.3 214.1 1166.7 211.5 1182.0 209.0 C 1197.3 206.5 1212.7 204.0 1228.0 201.5 C 1243.3 199.1 1258.7 196.6 1274.0 194.3 C 1289.3 192.0 1304.7 189.7 1320.0 187.7 C 1335.3 185.6 1350.7 183.6 1366.0 181.9 C 1381.3 180.1 1396.7 178.5 1412.0 177.2 C 1427.3 175.8 1442.7 174.6 1458.0 173.7 C 1473.3 172.7 1488.7 172.0 1504.0 171.5 C 1519.3 171.0 1534.7 170.7 1550.0 170.6 C 1565.3 170.5 1580.7 170.6 1596.0 170.9 C 1611.3 171.1 1634.3 172.0 1642.0 172.2" stroke="#F5F0E8" stroke-width="1.5" stroke-opacity="0.262" fill="none" stroke-linecap="round"/><path d="M -60.0 259.1 C -52.3 259.8 -29.3 261.5 -14.0 262.9 C 1.3 264.4 16.7 266.0 32.0 267.6 C 47.3 269.3 62.7 271.1 78.0 272.8 C 93.3 274.5 108.7 276.4 124.0 278.1 C 139.3 279.8 154.7 281.5 170.0 283.1 C 185.3 284.7 200.7 286.2 216.0 287.5 C 231.3 288.9 246.7 290.1 262.0 291.1 C 277.3 292.2 292.7 293.1 308.0 293.8 C 323.3 294.5 338.7 295.0 354.0 295.3 C 369.3 295.7 384.7 295.9 400.0 295.9 C 415.3 295.9 430.7 295.8 446.0 295.5 C 461.3 295.3 476.7 294.9 492.0 294.4 C 507.3 294.0 522.7 293.4 538.0 292.9 C 553.3 292.3 568.7 291.7 584.0 291.1 C 599.3 290.5 614.7 289.8 630.0 289.3 C 645.3 288.7 660.7 288.2 676.0 287.8 C 691.3 287.3 706.7 286.9 722.0 286.7 C 737.3 286.4 752.7 286.3 768.0 286.2 C 783.3 286.2 798.7 286.2 814.0 286.4 C 829.3 286.5 844.7 286.8 860.0 287.2 C 875.3 287.5 890.7 288.0 906.0 288.5 C 921.3 289.1 936.7 289.7 952.0 290.3 C 967.3 291.0 982.7 291.7 998.0 292.3 C 1013.3 293.0 1028.7 293.7 1044.0 294.4 C 1059.3 295.0 1074.7 295.7 1090.0 296.2 C 1105.3 296.8 1120.7 297.3 1136.0 297.7 C 1151.3 298.1 1166.7 298.4 1182.0 298.6 C 1197.3 298.8 1212.7 299.0 1228.0 299.0 C 1243.3 299.0 1258.7 298.8 1274.0 298.6 C 1289.3 298.4 1304.7 298.1 1320.0 297.7 C 1335.3 297.3 1350.7 296.8 1366.0 296.2 C 1381.3 295.7 1396.7 295.1 1412.0 294.4 C 1427.3 293.8 1442.7 293.2 1458.0 292.6 C 1473.3 291.9 1488.7 291.3 1504.0 290.8 C 1519.3 290.3 1534.7 289.8 1550.0 289.4 C 1565.3 289.0 1580.7 288.7 1596.0 288.6 C 1611.3 288.4 1634.3 288.5 1642.0 288.5" stroke="#F5F0E8" stroke-width="1" stroke-opacity="0.074" fill="none" stroke-linecap="round"/><path d="M -60.0 307.6 C -52.3 307.7 -29.3 307.5 -14.0 307.8 C 1.3 308.1 16.7 308.8 32.0 309.6 C 47.3 310.4 62.7 311.5 78.0 312.8 C 93.3 314.0 108.7 315.5 124.0 317.0 C 139.3 318.6 154.7 320.3 170.0 322.0 C 185.3 323.6 200.7 325.4 216.0 326.9 C 231.3 328.5 246.7 330.0 262.0 331.3 C 277.3 332.5 292.7 333.7 308.0 334.4 C 323.3 335.2 338.7 335.7 354.0 335.8 C 369.3 335.9 384.7 335.7 400.0 335.0 C 415.3 334.4 430.7 333.3 446.0 331.9 C 461.3 330.4 476.7 328.5 492.0 326.3 C 507.3 324.1 522.7 321.5 538.0 318.6 C 553.3 315.7 568.7 312.4 584.0 309.1 C 599.3 305.7 614.7 302.0 630.0 298.4 C 645.3 294.7 660.7 290.9 676.0 287.2 C 691.3 283.5 706.7 279.8 722.0 276.4 C 737.3 272.9 752.7 269.6 768.0 266.6 C 783.3 263.7 798.7 260.9 814.0 258.7 C 829.3 256.4 844.7 254.5 860.0 253.0 C 875.3 251.6 890.7 250.6 906.0 250.0 C 921.3 249.5 936.7 249.5 952.0 249.8 C 967.3 250.2 982.7 251.1 998.0 252.3 C 1013.3 253.5 1028.7 255.1 1044.0 257.0 C 1059.3 258.9 1074.7 261.1 1090.0 263.5 C 1105.3 265.8 1120.7 268.4 1136.0 271.0 C 1151.3 273.5 1166.7 276.3 1182.0 278.8 C 1197.3 281.3 1212.7 283.9 1228.0 286.2 C 1243.3 288.4 1258.7 290.6 1274.0 292.4 C 1289.3 294.1 1304.7 295.7 1320.0 296.8 C 1335.3 298.0 1350.7 298.8 1366.0 299.2 C 1381.3 299.6 1396.7 299.6 1412.0 299.3 C 1427.3 299.0 1442.7 298.3 1458.0 297.2 C 1473.3 296.2 1488.7 294.8 1504.0 293.3 C 1519.3 291.7 1534.7 289.8 1550.0 287.9 C 1565.3 286.0 1580.7 283.8 1596.0 281.7 C 1611.3 279.6 1634.3 276.3 1642.0 275.3" stroke="#F5F0E8" stroke-width="1" stroke-opacity="0.047" fill="none" stroke-linecap="round"/><path d="M -60.0 339.4 C -52.3 340.4 -29.3 343.5 -14.0 345.5 C 1.3 347.6 16.7 349.7 32.0 351.7 C 47.3 353.7 62.7 355.7 78.0 357.6 C 93.3 359.4 108.7 361.2 124.0 362.9 C 139.3 364.5 154.7 366.0 170.0 367.4 C 185.3 368.7 200.7 369.9 216.0 371.0 C 231.3 372.0 246.7 372.8 262.0 373.4 C 277.3 374.0 292.7 374.5 308.0 374.7 C 323.3 375.0 338.7 375.0 354.0 374.9 C 369.3 374.8 384.7 374.5 400.0 374.1 C 415.3 373.7 430.7 373.0 446.0 372.4 C 461.3 371.7 476.7 370.8 492.0 369.9 C 507.3 369.1 522.7 368.1 538.0 367.1 C 553.3 366.1 568.7 365.1 584.0 364.1 C 599.3 363.1 614.7 362.1 630.0 361.2 C 645.3 360.3 660.7 359.4 676.0 358.6 C 691.3 357.9 706.7 357.2 722.0 356.7 C 737.3 356.2 752.7 355.8 768.0 355.5 C 783.3 355.3 798.7 355.2 814.0 355.3 C 829.3 355.3 844.7 355.6 860.0 356.0 C 875.3 356.4 890.7 357.0 906.0 357.7 C 921.3 358.4 936.7 359.3 952.0 360.2 C 967.3 361.2 982.7 362.4 998.0 363.6 C 1013.3 364.8 1028.7 366.1 1044.0 367.4 C 1059.3 368.8 1074.7 370.2 1090.0 371.7 C 1105.3 373.1 1120.7 374.5 1136.0 375.9 C 1151.3 377.3 1166.7 378.7 1182.0 380.0 C 1197.3 381.3 1212.7 382.5 1228.0 383.6 C 1243.3 384.7 1258.7 385.7 1274.0 386.5 C 1289.3 387.3 1304.7 388.0 1320.0 388.5 C 1335.3 389.0 1350.7 389.3 1366.0 389.5 C 1381.3 389.6 1396.7 389.6 1412.0 389.4 C 1427.3 389.1 1442.7 388.7 1458.0 388.1 C 1473.3 387.5 1488.7 386.8 1504.0 385.9 C 1519.3 385.0 1534.7 383.9 1550.0 382.7 C 1565.3 381.6 1580.7 380.2 1596.0 378.9 C 1611.3 377.5 1634.3 375.3 1642.0 374.6" stroke="#F5F0E8" stroke-width="1" stroke-opacity="0.059" fill="none" stroke-linecap="round"/><path d="M -60.0 386.6 C -52.3 386.9 -29.3 387.6 -14.0 388.1 C 1.3 388.6 16.7 389.1 32.0 389.6 C 47.3 390.1 62.7 390.6 78.0 391.0 C 93.3 391.5 108.7 391.9 124.0 392.3 C 139.3 392.7 154.7 393.1 170.0 393.4 C 185.3 393.8 200.7 394.1 216.0 394.4 C 231.3 394.6 246.7 394.9 262.0 395.1 C 277.3 395.2 292.7 395.4 308.0 395.5 C 323.3 395.5 338.7 395.6 354.0 395.5 C 369.3 395.5 384.7 395.4 400.0 395.3 C 415.3 395.1 430.7 394.9 446.0 394.6 C 461.3 394.3 476.7 394.0 492.0 393.6 C 507.3 393.2 522.7 392.7 538.0 392.1 C 553.3 391.6 568.7 391.0 584.0 390.3 C 599.3 389.6 614.7 388.8 630.0 388.0 C 645.3 387.1 660.7 386.2 676.0 385.3 C 691.3 384.3 706.7 383.2 722.0 382.1 C 737.3 381.0 752.7 379.8 768.0 378.6 C 783.3 377.3 798.7 376.0 814.0 374.7 C 829.3 373.3 844.7 371.9 860.0 370.4 C 875.3 368.9 890.7 367.3 906.0 365.7 C 921.3 364.1 936.7 362.5 952.0 360.8 C 967.3 359.1 982.7 357.3 998.0 355.6 C 1013.3 353.8 1028.7 352.0 1044.0 350.1 C 1059.3 348.3 1074.7 346.4 1090.0 344.5 C 1105.3 342.6 1120.7 340.6 1136.0 338.7 C 1151.3 336.7 1166.7 334.7 1182.0 332.8 C 1197.3 330.8 1212.7 328.8 1228.0 326.8 C 1243.3 324.8 1258.7 322.8 1274.0 320.8 C 1289.3 318.9 1304.7 316.9 1320.0 314.9 C 1335.3 312.9 1350.7 311.0 1366.0 309.1 C 1381.3 307.1 1396.7 305.2 1412.0 303.3 C 1427.3 301.5 1442.7 299.6 1458.0 297.8 C 1473.3 296.0 1488.7 294.2 1504.0 292.4 C 1519.3 290.7 1534.7 289.0 1550.0 287.3 C 1565.3 285.7 1580.7 284.0 1596.0 282.5 C 1611.3 280.9 1634.3 278.7 1642.0 278.0" stroke="#F5F0E8" stroke-width="1.5" stroke-opacity="0.180" fill="none" stroke-linecap="round"/><path d="M -60.0 430.3 C -52.3 430.3 -29.3 430.3 -14.0 429.9 C 1.3 429.5 16.7 428.9 32.0 428.1 C 47.3 427.2 62.7 426.1 78.0 424.8 C 93.3 423.6 108.7 422.0 124.0 420.4 C 139.3 418.7 154.7 416.8 170.0 414.8 C 185.3 412.9 200.7 410.8 216.0 408.7 C 231.3 406.6 246.7 404.4 262.0 402.3 C 277.3 400.2 292.7 398.1 308.0 396.1 C 323.3 394.2 338.7 392.3 354.0 390.6 C 369.3 388.9 384.7 387.4 400.0 386.1 C 415.3 384.8 430.7 383.8 446.0 382.9 C 461.3 382.1 476.7 381.5 492.0 381.2 C 507.3 380.8 522.7 380.7 538.0 380.8 C 553.3 380.9 568.7 381.3 584.0 381.8 C 599.3 382.3 614.7 383.0 630.0 383.7 C 645.3 384.5 660.7 385.5 676.0 386.4 C 691.3 387.3 706.7 388.3 722.0 389.3 C 737.3 390.2 752.7 391.2 768.0 391.9 C 783.3 392.7 798.7 393.5 814.0 394.0 C 829.3 394.6 844.7 395.0 860.0 395.2 C 875.3 395.4 890.7 395.4 906.0 395.1 C 921.3 394.9 936.7 394.4 952.0 393.8 C 967.3 393.1 982.7 392.2 998.0 391.1 C 1013.3 390.1 1028.7 388.8 1044.0 387.3 C 1059.3 385.9 1074.7 384.3 1090.0 382.6 C 1105.3 381.0 1120.7 379.1 1136.0 377.3 C 1151.3 375.5 1166.7 373.6 1182.0 371.8 C 1197.3 370.0 1212.7 368.2 1228.0 366.5 C 1243.3 364.8 1258.7 363.1 1274.0 361.6 C 1289.3 360.1 1304.7 358.8 1320.0 357.6 C 1335.3 356.4 1350.7 355.3 1366.0 354.4 C 1381.3 353.6 1396.7 352.9 1412.0 352.3 C 1427.3 351.8 1442.7 351.4 1458.0 351.1 C 1473.3 350.9 1488.7 350.8 1504.0 350.8 C 1519.3 350.7 1534.7 350.8 1550.0 350.9 C 1565.3 351.0 1580.7 351.2 1596.0 351.3 C 1611.3 351.5 1634.3 351.6 1642.0 351.7" stroke="#F5F0E8" stroke-width="1" stroke-opacity="0.089" fill="none" stroke-linecap="round"/><path d="M -60.0 452.1 C -52.3 452.3 -29.3 452.8 -14.0 453.1 C 1.3 453.5 16.7 453.9 32.0 454.2 C 47.3 454.5 62.7 454.8 78.0 455.0 C 93.3 455.1 108.7 455.2 124.0 455.1 C 139.3 454.9 154.7 454.7 170.0 454.2 C 185.3 453.7 200.7 453.0 216.0 452.1 C 231.3 451.3 246.7 450.2 262.0 448.9 C 277.3 447.6 292.7 446.1 308.0 444.4 C 323.3 442.7 338.7 440.8 354.0 438.8 C 369.3 436.8 384.7 434.6 400.0 432.4 C 415.3 430.2 430.7 427.8 446.0 425.5 C 461.3 423.2 476.7 420.8 492.0 418.5 C 507.3 416.2 522.7 413.9 538.0 411.7 C 553.3 409.5 568.7 407.4 584.0 405.6 C 599.3 403.7 614.7 401.9 630.0 400.4 C 645.3 398.9 660.7 397.6 676.0 396.5 C 691.3 395.4 706.7 394.5 722.0 393.9 C 737.3 393.3 752.7 392.9 768.0 392.7 C 783.3 392.6 798.7 392.7 814.0 392.9 C 829.3 393.1 844.7 393.6 860.0 394.2 C 875.3 394.7 890.7 395.5 906.0 396.3 C 921.3 397.0 936.7 398.0 952.0 398.8 C 967.3 399.7 982.7 400.6 998.0 401.5 C 1013.3 402.3 1028.7 403.1 1044.0 403.8 C 1059.3 404.5 1074.7 405.1 1090.0 405.5 C 1105.3 405.9 1120.7 406.1 1136.0 406.2 C 1151.3 406.2 1166.7 406.1 1182.0 405.7 C 1197.3 405.4 1212.7 404.8 1228.0 404.0 C 1243.3 403.3 1258.7 402.3 1274.0 401.1 C 1289.3 400.0 1304.7 398.6 1320.0 397.1 C 1335.3 395.7 1350.7 394.0 1366.0 392.3 C 1381.3 390.6 1396.7 388.8 1412.0 386.9 C 1427.3 385.1 1442.7 383.2 1458.0 381.4 C 1473.3 379.6 1488.7 377.8 1504.0 376.1 C 1519.3 374.4 1534.7 372.8 1550.0 371.3 C 1565.3 369.9 1580.7 368.5 1596.0 367.3 C 1611.3 366.2 1634.3 364.9 1642.0 364.4" stroke="#F5F0E8" stroke-width="1" stroke-opacity="0.054" fill="none" stroke-linecap="round"/><path d="M -60.0 506.0 C -52.3 507.2 -29.3 511.1 -14.0 513.3 C 1.3 515.5 16.7 517.5 32.0 519.1 C 47.3 520.8 62.7 522.1 78.0 523.1 C 93.3 524.1 108.7 524.8 124.0 525.1 C 139.3 525.4 154.7 525.3 170.0 524.9 C 185.3 524.5 200.7 523.7 216.0 522.5 C 231.3 521.4 246.7 519.9 262.0 518.2 C 277.3 516.5 292.7 514.4 308.0 512.2 C 323.3 509.9 338.7 507.4 354.0 504.9 C 369.3 502.3 384.7 499.5 400.0 496.8 C 415.3 494.0 430.7 491.1 446.0 488.4 C 461.3 485.7 476.7 482.9 492.0 480.4 C 507.3 477.9 522.7 475.4 538.0 473.3 C 553.3 471.1 568.7 469.1 584.0 467.5 C 599.3 465.9 614.7 464.6 630.0 463.6 C 645.3 462.7 660.7 462.1 676.0 461.9 C 691.3 461.7 706.7 461.9 722.0 462.5 C 737.3 463.1 752.7 464.1 768.0 465.4 C 783.3 466.8 798.7 468.6 814.0 470.7 C 829.3 472.8 844.7 475.3 860.0 478.1 C 875.3 480.8 890.7 483.9 906.0 487.1 C 921.3 490.4 936.7 493.9 952.0 497.5 C 967.3 501.0 982.7 504.8 998.0 508.5 C 1013.3 512.3 1028.7 516.1 1044.0 519.8 C 1059.3 523.5 1074.7 527.2 1090.0 530.7 C 1105.3 534.2 1120.7 537.6 1136.0 540.7 C 1151.3 543.8 1166.7 546.7 1182.0 549.3 C 1197.3 551.9 1212.7 554.2 1228.0 556.2 C 1243.3 558.1 1258.7 559.8 1274.0 561.0 C 1289.3 562.3 1304.7 563.2 1320.0 563.8 C 1335.3 564.4 1350.7 564.6 1366.0 564.5 C 1381.3 564.3 1396.7 563.9 1412.0 563.1 C 1427.3 562.4 1442.7 561.4 1458.0 560.2 C 1473.3 558.9 1488.7 557.4 1504.0 555.8 C 1519.3 554.3 1534.7 552.5 1550.0 550.7 C 1565.3 548.9 1580.7 546.9 1596.0 545.1 C 1611.3 543.3 1634.3 540.6 1642.0 539.7" stroke="#F5F0E8" stroke-width="1" stroke-opacity="0.078" fill="none" stroke-linecap="round"/><path d="M -60.0 519.8 C -52.3 518.8 -29.3 516.0 -14.0 514.1 C 1.3 512.2 16.7 510.4 32.0 508.5 C 47.3 506.7 62.7 504.9 78.0 503.1 C 93.3 501.4 108.7 499.6 124.0 497.9 C 139.3 496.2 154.7 494.6 170.0 493.0 C 185.3 491.4 200.7 489.8 216.0 488.3 C 231.3 486.8 246.7 485.4 262.0 484.0 C 277.3 482.7 292.7 481.4 308.0 480.1 C 323.3 478.9 338.7 477.7 354.0 476.6 C 369.3 475.5 384.7 474.5 400.0 473.5 C 415.3 472.6 430.7 471.7 446.0 470.9 C 461.3 470.1 476.7 469.4 492.0 468.7 C 507.3 468.1 522.7 467.5 538.0 467.0 C 553.3 466.5 568.7 466.1 584.0 465.8 C 599.3 465.4 614.7 465.1 630.0 464.9 C 645.3 464.7 660.7 464.6 676.0 464.5 C 691.3 464.4 706.7 464.4 722.0 464.5 C 737.3 464.5 752.7 464.6 768.0 464.7 C 783.3 464.9 798.7 465.1 814.0 465.3 C 829.3 465.6 844.7 465.8 860.0 466.2 C 875.3 466.5 890.7 466.8 906.0 467.2 C 921.3 467.5 936.7 467.9 952.0 468.3 C 967.3 468.7 982.7 469.2 998.0 469.6 C 1013.3 470.0 1028.7 470.4 1044.0 470.9 C 1059.3 471.3 1074.7 471.7 1090.0 472.1 C 1105.3 472.5 1120.7 472.9 1136.0 473.2 C 1151.3 473.6 1166.7 473.9 1182.0 474.2 C 1197.3 474.5 1212.7 474.8 1228.0 475.0 C 1243.3 475.2 1258.7 475.4 1274.0 475.5 C 1289.3 475.6 1304.7 475.7 1320.0 475.7 C 1335.3 475.7 1350.7 475.6 1366.0 475.5 C 1381.3 475.4 1396.7 475.2 1412.0 475.0 C 1427.3 474.7 1442.7 474.4 1458.0 474.0 C 1473.3 473.6 1488.7 473.2 1504.0 472.6 C 1519.3 472.1 1534.7 471.5 1550.0 470.8 C 1565.3 470.1 1580.7 469.3 1596.0 468.5 C 1611.3 467.7 1634.3 466.2 1642.0 465.8" stroke="#F5F0E8" stroke-width="1.5" stroke-opacity="0.234" fill="none" stroke-linecap="round"/><path d="M -60.0 549.6 C -52.3 549.3 -29.3 548.4 -14.0 547.7 C 1.3 547.1 16.7 546.5 32.0 546.0 C 47.3 545.4 62.7 544.9 78.0 544.4 C 93.3 543.9 108.7 543.5 124.0 543.1 C 139.3 542.7 154.7 542.4 170.0 542.1 C 185.3 541.9 200.7 541.7 216.0 541.5 C 231.3 541.4 246.7 541.3 262.0 541.2 C 277.3 541.1 292.7 541.1 308.0 541.1 C 323.3 541.1 338.7 541.1 354.0 541.1 C 369.3 541.0 384.7 541.0 400.0 540.9 C 415.3 540.8 430.7 540.7 446.0 540.4 C 461.3 540.1 476.7 539.7 492.0 539.2 C 507.3 538.7 522.7 538.0 538.0 537.2 C 553.3 536.3 568.7 535.3 584.0 534.1 C 599.3 532.9 614.7 531.5 630.0 529.9 C 645.3 528.3 660.7 526.4 676.0 524.5 C 691.3 522.5 706.7 520.3 722.0 518.0 C 737.3 515.7 752.7 513.3 768.0 510.8 C 783.3 508.3 798.7 505.7 814.0 503.1 C 829.3 500.5 844.7 497.9 860.0 495.4 C 875.3 492.9 890.7 490.4 906.0 488.2 C 921.3 485.9 936.7 483.8 952.0 482.0 C 967.3 480.1 982.7 478.5 998.0 477.2 C 1013.3 476.0 1028.7 475.0 1044.0 474.4 C 1059.3 473.8 1074.7 473.5 1090.0 473.6 C 1105.3 473.7 1120.7 474.2 1136.0 475.1 C 1151.3 476.0 1166.7 477.2 1182.0 478.7 C 1197.3 480.3 1212.7 482.2 1228.0 484.3 C 1243.3 486.3 1258.7 488.8 1274.0 491.2 C 1289.3 493.7 1304.7 496.4 1320.0 499.0 C 1335.3 501.6 1350.7 504.4 1366.0 506.9 C 1381.3 509.4 1396.7 512.0 1412.0 514.2 C 1427.3 516.4 1442.7 518.4 1458.0 520.1 C 1473.3 521.7 1488.7 523.1 1504.0 524.0 C 1519.3 524.8 1534.7 525.3 1550.0 525.3 C 1565.3 525.3 1580.7 524.8 1596.0 523.8 C 1611.3 522.8 1634.3 520.1 1642.0 519.4" stroke="#F5F0E8" stroke-width="1" stroke-opacity="0.051" fill="none" stroke-linecap="round"/><path d="M -60.0 585.4 C -52.3 585.4 -29.3 585.1 -14.0 584.9 C 1.3 584.7 16.7 584.4 32.0 584.2 C 47.3 584.0 62.7 583.7 78.0 583.5 C 93.3 583.4 108.7 583.2 124.0 583.1 C 139.3 583.1 154.7 583.1 170.0 583.2 C 185.3 583.3 200.7 583.6 216.0 583.9 C 231.3 584.3 246.7 584.8 262.0 585.4 C 277.3 586.1 292.7 586.9 308.0 587.8 C 323.3 588.7 338.7 589.7 354.0 590.9 C 369.3 592.1 384.7 593.4 400.0 594.8 C 415.3 596.2 430.7 597.7 446.0 599.3 C 461.3 600.9 476.7 602.5 492.0 604.2 C 507.3 605.9 522.7 607.6 538.0 609.3 C 553.3 610.9 568.7 612.6 584.0 614.2 C 599.3 615.8 614.7 617.4 630.0 618.9 C 645.3 620.3 660.7 621.7 676.0 622.9 C 691.3 624.2 706.7 625.3 722.0 626.3 C 737.3 627.3 752.7 628.1 768.0 628.8 C 783.3 629.5 798.7 630.0 814.0 630.4 C 829.3 630.8 844.7 631.0 860.0 631.1 C 875.3 631.3 890.7 631.2 906.0 631.1 C 921.3 631.0 936.7 630.8 952.0 630.5 C 967.3 630.2 982.7 629.9 998.0 629.5 C 1013.3 629.2 1028.7 628.8 1044.0 628.5 C 1059.3 628.1 1074.7 627.8 1090.0 627.6 C 1105.3 627.4 1120.7 627.2 1136.0 627.2 C 1151.3 627.2 1166.7 627.3 1182.0 627.5 C 1197.3 627.8 1212.7 628.2 1228.0 628.8 C 1243.3 629.4 1258.7 630.1 1274.0 631.1 C 1289.3 632.0 1304.7 633.1 1320.0 634.4 C 1335.3 635.8 1350.7 637.3 1366.0 638.9 C 1381.3 640.5 1396.7 642.3 1412.0 644.3 C 1427.3 646.2 1442.7 648.3 1458.0 650.4 C 1473.3 652.5 1488.7 654.7 1504.0 657.0 C 1519.3 659.2 1534.7 661.5 1550.0 663.7 C 1565.3 666.0 1580.7 668.2 1596.0 670.4 C 1611.3 672.5 1634.3 675.5 1642.0 676.5" stroke="#F5F0E8" stroke-width="1" stroke-opacity="0.076" fill="none" stroke-linecap="round"/><path d="M -60.0 629.8 C -52.3 630.5 -29.3 632.6 -14.0 633.7 C 1.3 634.8 16.7 635.8 32.0 636.5 C 47.3 637.3 62.7 637.8 78.0 638.3 C 93.3 638.7 108.7 638.9 124.0 639.1 C 139.3 639.3 154.7 639.3 170.0 639.3 C 185.3 639.3 200.7 639.1 216.0 639.0 C 231.3 638.9 246.7 638.7 262.0 638.6 C 277.3 638.5 292.7 638.4 308.0 638.3 C 323.3 638.3 338.7 638.3 354.0 638.5 C 369.3 638.6 384.7 638.8 400.0 639.1 C 415.3 639.5 430.7 639.9 446.0 640.5 C 461.3 641.1 476.7 641.8 492.0 642.6 C 507.3 643.4 522.7 644.3 538.0 645.4 C 553.3 646.4 568.7 647.5 584.0 648.7 C 599.3 649.9 614.7 651.2 630.0 652.5 C 645.3 653.8 660.7 655.2 676.0 656.5 C 691.3 657.8 706.7 659.2 722.0 660.5 C 737.3 661.8 752.7 663.1 768.0 664.2 C 783.3 665.4 798.7 666.6 814.0 667.6 C 829.3 668.6 844.7 669.6 860.0 670.4 C 875.3 671.2 890.7 671.9 906.0 672.6 C 921.3 673.2 936.7 673.7 952.0 674.1 C 967.3 674.5 982.7 674.8 998.0 675.1 C 1013.3 675.3 1028.7 675.5 1044.0 675.6 C 1059.3 675.8 1074.7 675.8 1090.0 675.9 C 1105.3 675.9 1120.7 676.0 1136.0 676.0 C 1151.3 676.1 1166.7 676.2 1182.0 676.3 C 1197.3 676.4 1212.7 676.6 1228.0 676.8 C 1243.3 677.1 1258.7 677.4 1274.0 677.8 C 1289.3 678.2 1304.7 678.6 1320.0 679.2 C 1335.3 679.7 1350.7 680.4 1366.0 681.1 C 1381.3 681.8 1396.7 682.6 1412.0 683.4 C 1427.3 684.3 1442.7 685.2 1458.0 686.1 C 1473.3 687.0 1488.7 687.9 1504.0 688.8 C 1519.3 689.8 1534.7 690.7 1550.0 691.5 C 1565.3 692.4 1580.7 693.2 1596.0 693.9 C 1611.3 694.6 1634.3 695.4 1642.0 695.7" stroke="#F5F0E8" stroke-width="1" stroke-opacity="0.075" fill="none" stroke-linecap="round"/><path d="M -60.0 643.5 C -52.3 643.4 -29.3 643.3 -14.0 643.1 C 1.3 642.9 16.7 642.7 32.0 642.5 C 47.3 642.3 62.7 642.0 78.0 641.8 C 93.3 641.6 108.7 641.3 124.0 641.1 C 139.3 641.0 154.7 640.8 170.0 640.7 C 185.3 640.6 200.7 640.6 216.0 640.6 C 231.3 640.7 246.7 640.8 262.0 641.0 C 277.3 641.2 292.7 641.5 308.0 641.9 C 323.3 642.3 338.7 642.8 354.0 643.5 C 369.3 644.1 384.7 644.8 400.0 645.7 C 415.3 646.6 430.7 647.6 446.0 648.7 C 461.3 649.8 476.7 651.1 492.0 652.4 C 507.3 653.8 522.7 655.3 538.0 656.9 C 553.3 658.4 568.7 660.1 584.0 661.9 C 599.3 663.7 614.7 665.6 630.0 667.5 C 645.3 669.4 660.7 671.4 676.0 673.5 C 691.3 675.5 706.7 677.6 722.0 679.7 C 737.3 681.8 752.7 684.0 768.0 686.1 C 783.3 688.2 798.7 690.4 814.0 692.4 C 829.3 694.5 844.7 696.6 860.0 698.6 C 875.3 700.5 890.7 702.5 906.0 704.3 C 921.3 706.2 936.7 707.9 952.0 709.6 C 967.3 711.2 982.7 712.8 998.0 714.2 C 1013.3 715.6 1028.7 716.9 1044.0 718.0 C 1059.3 719.2 1074.7 720.2 1090.0 721.1 C 1105.3 721.9 1120.7 722.7 1136.0 723.2 C 1151.3 723.8 1166.7 724.2 1182.0 724.5 C 1197.3 724.8 1212.7 725.0 1228.0 725.0 C 1243.3 725.0 1258.7 724.9 1274.0 724.6 C 1289.3 724.4 1304.7 724.0 1320.0 723.6 C 1335.3 723.1 1350.7 722.5 1366.0 721.9 C 1381.3 721.3 1396.7 720.6 1412.0 719.8 C 1427.3 719.1 1442.7 718.3 1458.0 717.5 C 1473.3 716.7 1488.7 715.8 1504.0 715.0 C 1519.3 714.2 1534.7 713.3 1550.0 712.5 C 1565.3 711.8 1580.7 711.0 1596.0 710.3 C 1611.3 709.6 1634.3 708.8 1642.0 708.5" stroke="#F5F0E8" stroke-width="1.5" stroke-opacity="0.252" fill="none" stroke-linecap="round"/><path d="M -60.0 669.4 C -52.3 668.0 -29.3 663.6 -14.0 660.9 C 1.3 658.3 16.7 655.7 32.0 653.4 C 47.3 651.2 62.7 649.1 78.0 647.3 C 93.3 645.5 108.7 644.0 124.0 642.8 C 139.3 641.6 154.7 640.7 170.0 640.1 C 185.3 639.5 200.7 639.3 216.0 639.2 C 231.3 639.2 246.7 639.5 262.0 640.0 C 277.3 640.4 292.7 641.2 308.0 642.0 C 323.3 642.9 338.7 644.0 354.0 645.1 C 369.3 646.2 384.7 647.4 400.0 648.6 C 415.3 649.8 430.7 651.0 446.0 652.1 C 461.3 653.2 476.7 654.3 492.0 655.2 C 507.3 656.1 522.7 656.8 538.0 657.4 C 553.3 657.9 568.7 658.2 584.0 658.3 C 599.3 658.4 614.7 658.2 630.0 657.8 C 645.3 657.4 660.7 656.7 676.0 655.8 C 691.3 654.9 706.7 653.7 722.0 652.4 C 737.3 651.0 752.7 649.4 768.0 647.8 C 783.3 646.1 798.7 644.2 814.0 642.3 C 829.3 640.4 844.7 638.3 860.0 636.3 C 875.3 634.4 890.7 632.3 906.0 630.4 C 921.3 628.5 936.7 626.7 952.0 625.0 C 967.3 623.4 982.7 621.8 998.0 620.5 C 1013.3 619.3 1028.7 618.2 1044.0 617.4 C 1059.3 616.6 1074.7 616.0 1090.0 615.8 C 1105.3 615.5 1120.7 615.5 1136.0 615.8 C 1151.3 616.1 1166.7 616.7 1182.0 617.4 C 1197.3 618.2 1212.7 619.3 1228.0 620.5 C 1243.3 621.7 1258.7 623.2 1274.0 624.7 C 1289.3 626.2 1304.7 628.0 1320.0 629.6 C 1335.3 631.3 1350.7 633.1 1366.0 634.8 C 1381.3 636.4 1396.7 638.1 1412.0 639.6 C 1427.3 641.1 1442.7 642.5 1458.0 643.6 C 1473.3 644.8 1488.7 645.8 1504.0 646.5 C 1519.3 647.2 1534.7 647.6 1550.0 647.8 C 1565.3 647.9 1580.7 647.8 1596.0 647.3 C 1611.3 646.9 1634.3 645.5 1642.0 645.1" stroke="#F5F0E8" stroke-width="1" stroke-opacity="0.063" fill="none" stroke-linecap="round"/><path d="M -60.0 716.2 C -52.3 716.6 -29.3 717.5 -14.0 718.2 C 1.3 718.9 16.7 719.6 32.0 720.4 C 47.3 721.2 62.7 722.0 78.0 722.9 C 93.3 723.8 108.7 724.7 124.0 725.6 C 139.3 726.5 154.7 727.4 170.0 728.4 C 185.3 729.4 200.7 730.3 216.0 731.3 C 231.3 732.3 246.7 733.3 262.0 734.3 C 277.3 735.3 292.7 736.2 308.0 737.2 C 323.3 738.2 338.7 739.1 354.0 740.0 C 369.3 740.9 384.7 741.8 400.0 742.7 C 415.3 743.6 430.7 744.4 446.0 745.1 C 461.3 745.9 476.7 746.6 492.0 747.3 C 507.3 748.0 522.7 748.6 538.0 749.1 C 553.3 749.7 568.7 750.2 584.0 750.6 C 599.3 751.0 614.7 751.4 630.0 751.7 C 645.3 752.0 660.7 752.2 676.0 752.4 C 691.3 752.5 706.7 752.6 722.0 752.6 C 737.3 752.6 752.7 752.6 768.0 752.5 C 783.3 752.3 798.7 752.1 814.0 751.9 C 829.3 751.7 844.7 751.4 860.0 751.0 C 875.3 750.6 890.7 750.2 906.0 749.8 C 921.3 749.3 936.7 748.8 952.0 748.3 C 967.3 747.8 982.7 747.2 998.0 746.6 C 1013.3 746.0 1028.7 745.4 1044.0 744.8 C 1059.3 744.2 1074.7 743.5 1090.0 742.9 C 1105.3 742.3 1120.7 741.7 1136.0 741.1 C 1151.3 740.4 1166.7 739.8 1182.0 739.3 C 1197.3 738.7 1212.7 738.2 1228.0 737.7 C 1243.3 737.2 1258.7 736.7 1274.0 736.3 C 1289.3 735.9 1304.7 735.6 1320.0 735.3 C 1335.3 735.0 1350.7 734.7 1366.0 734.6 C 1381.3 734.4 1396.7 734.3 1412.0 734.3 C 1427.3 734.2 1442.7 734.3 1458.0 734.4 C 1473.3 734.5 1488.7 734.7 1504.0 735.0 C 1519.3 735.3 1534.7 735.6 1550.0 736.1 C 1565.3 736.5 1580.7 737.0 1596.0 737.6 C 1611.3 738.2 1634.3 739.3 1642.0 739.6" stroke="#F5F0E8" stroke-width="1" stroke-opacity="0.067" fill="none" stroke-linecap="round"/><path d="M -60.0 784.8 C -52.3 783.7 -29.3 780.7 -14.0 778.5 C 1.3 776.2 16.7 773.7 32.0 771.1 C 47.3 768.6 62.7 765.9 78.0 763.3 C 93.3 760.7 108.7 758.0 124.0 755.5 C 139.3 753.0 154.7 750.5 170.0 748.3 C 185.3 746.0 200.7 744.0 216.0 742.2 C 231.3 740.4 246.7 738.8 262.0 737.6 C 277.3 736.4 292.7 735.4 308.0 734.8 C 323.3 734.2 338.7 733.9 354.0 733.9 C 369.3 733.9 384.7 734.2 400.0 734.7 C 415.3 735.2 430.7 736.0 446.0 737.0 C 461.3 737.9 476.7 739.1 492.0 740.3 C 507.3 741.5 522.7 742.9 538.0 744.2 C 553.3 745.5 568.7 746.9 584.0 748.2 C 599.3 749.4 614.7 750.6 630.0 751.6 C 645.3 752.6 660.7 753.5 676.0 754.2 C 691.3 754.8 706.7 755.2 722.0 755.4 C 737.3 755.6 752.7 755.5 768.0 755.1 C 783.3 754.8 798.7 754.2 814.0 753.4 C 829.3 752.6 844.7 751.5 860.0 750.3 C 875.3 749.1 890.7 747.6 906.0 746.1 C 921.3 744.6 936.7 742.9 952.0 741.3 C 967.3 739.7 982.7 737.9 998.0 736.3 C 1013.3 734.7 1028.7 733.1 1044.0 731.6 C 1059.3 730.2 1074.7 728.8 1090.0 727.7 C 1105.3 726.5 1120.7 725.6 1136.0 724.8 C 1151.3 724.1 1166.7 723.6 1182.0 723.4 C 1197.3 723.1 1212.7 723.1 1228.0 723.3 C 1243.3 723.5 1258.7 723.9 1274.0 724.6 C 1289.3 725.2 1304.7 726.0 1320.0 726.9 C 1335.3 727.8 1350.7 728.9 1366.0 730.0 C 1381.3 731.1 1396.7 732.3 1412.0 733.4 C 1427.3 734.5 1442.7 735.7 1458.0 736.7 C 1473.3 737.6 1488.7 738.6 1504.0 739.3 C 1519.3 740.0 1534.7 740.6 1550.0 740.9 C 1565.3 741.2 1580.7 741.4 1596.0 741.3 C 1611.3 741.2 1634.3 740.5 1642.0 740.3" stroke="#F5F0E8" stroke-width="1" stroke-opacity="0.092" fill="none" stroke-linecap="round"/><path d="M -60.0 810.9 C -52.3 810.9 -29.3 811.0 -14.0 811.0 C 1.3 811.0 16.7 811.0 32.0 811.0 C 47.3 811.0 62.7 810.9 78.0 810.8 C 93.3 810.7 108.7 810.6 124.0 810.4 C 139.3 810.2 154.7 809.9 170.0 809.5 C 185.3 809.1 200.7 808.6 216.0 808.0 C 231.3 807.3 246.7 806.6 262.0 805.7 C 277.3 804.8 292.7 803.8 308.0 802.6 C 323.3 801.4 338.7 800.1 354.0 798.6 C 369.3 797.2 384.7 795.5 400.0 793.8 C 415.3 792.0 430.7 790.1 446.0 788.1 C 461.3 786.1 476.7 784.0 492.0 781.8 C 507.3 779.6 522.7 777.3 538.0 775.1 C 553.3 772.9 568.7 770.5 584.0 768.3 C 599.3 766.1 614.7 763.8 630.0 761.7 C 645.3 759.6 660.7 757.6 676.0 755.7 C 691.3 753.8 706.7 752.0 722.0 750.5 C 737.3 749.0 752.7 747.6 768.0 746.4 C 783.3 745.3 798.7 744.4 814.0 743.7 C 829.3 743.0 844.7 742.6 860.0 742.4 C 875.3 742.2 890.7 742.2 906.0 742.5 C 921.3 742.8 936.7 743.4 952.0 744.1 C 967.3 744.8 982.7 745.8 998.0 746.9 C 1013.3 748.0 1028.7 749.3 1044.0 750.6 C 1059.3 752.0 1074.7 753.6 1090.0 755.1 C 1105.3 756.7 1120.7 758.4 1136.0 760.0 C 1151.3 761.7 1166.7 763.4 1182.0 765.0 C 1197.3 766.6 1212.7 768.3 1228.0 769.8 C 1243.3 771.3 1258.7 772.8 1274.0 774.1 C 1289.3 775.4 1304.7 776.7 1320.0 777.7 C 1335.3 778.8 1350.7 779.8 1366.0 780.6 C 1381.3 781.4 1396.7 782.1 1412.0 782.7 C 1427.3 783.3 1442.7 783.7 1458.0 784.0 C 1473.3 784.3 1488.7 784.5 1504.0 784.6 C 1519.3 784.7 1534.7 784.7 1550.0 784.6 C 1565.3 784.5 1580.7 784.4 1596.0 784.2 C 1611.3 784.0 1634.3 783.7 1642.0 783.6" stroke="#F5F0E8" stroke-width="1.5" stroke-opacity="0.191" fill="none" stroke-linecap="round"/><path d="M -60.0 814.2 C -52.3 814.6 -29.3 815.7 -14.0 816.4 C 1.3 817.2 16.7 818.1 32.0 818.9 C 47.3 819.8 62.7 820.7 78.0 821.5 C 93.3 822.4 108.7 823.3 124.0 824.1 C 139.3 825.0 154.7 825.8 170.0 826.6 C 185.3 827.4 200.7 828.1 216.0 828.8 C 231.3 829.5 246.7 830.1 262.0 830.7 C 277.3 831.2 292.7 831.7 308.0 832.2 C 323.3 832.6 338.7 833.0 354.0 833.3 C 369.3 833.6 384.7 833.9 400.0 834.1 C 415.3 834.3 430.7 834.4 446.0 834.6 C 461.3 834.7 476.7 834.8 492.0 834.9 C 507.3 835.0 522.7 835.1 538.0 835.2 C 553.3 835.4 568.7 835.5 584.0 835.6 C 599.3 835.8 614.7 836.0 630.0 836.3 C 645.3 836.5 660.7 836.8 676.0 837.2 C 691.3 837.6 706.7 838.1 722.0 838.6 C 737.3 839.1 752.7 839.7 768.0 840.4 C 783.3 841.1 798.7 841.8 814.0 842.6 C 829.3 843.5 844.7 844.4 860.0 845.3 C 875.3 846.2 890.7 847.2 906.0 848.2 C 921.3 849.2 936.7 850.3 952.0 851.3 C 967.3 852.4 982.7 853.4 998.0 854.5 C 1013.3 855.5 1028.7 856.5 1044.0 857.5 C 1059.3 858.5 1074.7 859.4 1090.0 860.3 C 1105.3 861.1 1120.7 861.9 1136.0 862.6 C 1151.3 863.3 1166.7 864.0 1182.0 864.5 C 1197.3 865.0 1212.7 865.4 1228.0 865.7 C 1243.3 866.1 1258.7 866.3 1274.0 866.4 C 1289.3 866.5 1304.7 866.6 1320.0 866.5 C 1335.3 866.5 1350.7 866.3 1366.0 866.1 C 1381.3 865.9 1396.7 865.6 1412.0 865.3 C 1427.3 864.9 1442.7 864.6 1458.0 864.2 C 1473.3 863.8 1488.7 863.4 1504.0 863.0 C 1519.3 862.6 1534.7 862.2 1550.0 861.9 C 1565.3 861.5 1580.7 861.2 1596.0 860.9 C 1611.3 860.7 1634.3 860.5 1642.0 860.4" stroke="#F5F0E8" stroke-width="1" stroke-opacity="0.077" fill="none" stroke-linecap="round"/><path d="M -60.0 870.2 C -52.3 870.1 -29.3 869.8 -14.0 869.5 C 1.3 869.1 16.7 868.6 32.0 868.0 C 47.3 867.4 62.7 866.7 78.0 865.9 C 93.3 865.2 108.7 864.3 124.0 863.5 C 139.3 862.6 154.7 861.7 170.0 860.9 C 185.3 860.0 200.7 859.2 216.0 858.4 C 231.3 857.6 246.7 856.8 262.0 856.1 C 277.3 855.4 292.7 854.8 308.0 854.3 C 323.3 853.7 338.7 853.2 354.0 852.8 C 369.3 852.5 384.7 852.1 400.0 851.9 C 415.3 851.6 430.7 851.4 446.0 851.3 C 461.3 851.1 476.7 851.0 492.0 850.9 C 507.3 850.8 522.7 850.7 538.0 850.6 C 553.3 850.4 568.7 850.3 584.0 850.1 C 599.3 849.8 614.7 849.6 630.0 849.2 C 645.3 848.8 660.7 848.4 676.0 847.8 C 691.3 847.3 706.7 846.6 722.0 845.8 C 737.3 845.0 752.7 844.1 768.0 843.1 C 783.3 842.0 798.7 840.9 814.0 839.6 C 829.3 838.4 844.7 837.1 860.0 835.7 C 875.3 834.3 890.7 832.8 906.0 831.3 C 921.3 829.8 936.7 828.2 952.0 826.8 C 967.3 825.3 982.7 823.8 998.0 822.4 C 1013.3 821.0 1028.7 819.6 1044.0 818.4 C 1059.3 817.2 1074.7 816.1 1090.0 815.2 C 1105.3 814.3 1120.7 813.6 1136.0 813.0 C 1151.3 812.5 1166.7 812.1 1182.0 812.0 C 1197.3 811.8 1212.7 811.9 1228.0 812.2 C 1243.3 812.5 1258.7 813.0 1274.0 813.7 C 1289.3 814.4 1304.7 815.4 1320.0 816.4 C 1335.3 817.5 1350.7 818.8 1366.0 820.1 C 1381.3 821.4 1396.7 823.0 1412.0 824.5 C 1427.3 826.0 1442.7 827.6 1458.0 829.2 C 1473.3 830.7 1488.7 832.3 1504.0 833.8 C 1519.3 835.3 1534.7 836.7 1550.0 838.0 C 1565.3 839.2 1580.7 840.4 1596.0 841.3 C 1611.3 842.2 1634.3 843.1 1642.0 843.5" stroke="#F5F0E8" stroke-width="1" stroke-opacity="0.053" fill="none" stroke-linecap="round"/><path d="M -60.0 894.9 C -52.3 895.4 -29.3 896.8 -14.0 897.6 C 1.3 898.4 16.7 899.1 32.0 899.7 C 47.3 900.3 62.7 900.8 78.0 901.2 C 93.3 901.6 108.7 901.9 124.0 902.0 C 139.3 902.2 154.7 902.3 170.0 902.3 C 185.3 902.3 200.7 902.2 216.0 902.1 C 231.3 901.9 246.7 901.7 262.0 901.4 C 277.3 901.2 292.7 900.8 308.0 900.5 C 323.3 900.2 338.7 899.9 354.0 899.6 C 369.3 899.3 384.7 899.0 400.0 898.8 C 415.3 898.6 430.7 898.4 446.0 898.2 C 461.3 898.1 476.7 898.1 492.0 898.1 C 507.3 898.2 522.7 898.3 538.0 898.5 C 553.3 898.7 568.7 899.0 584.0 899.4 C 599.3 899.9 614.7 900.4 630.0 901.0 C 645.3 901.6 660.7 902.3 676.0 903.0 C 691.3 903.8 706.7 904.6 722.0 905.5 C 737.3 906.4 752.7 907.3 768.0 908.3 C 783.3 909.2 798.7 910.3 814.0 911.2 C 829.3 912.2 844.7 913.2 860.0 914.2 C 875.3 915.1 890.7 916.1 906.0 917.0 C 921.3 917.8 936.7 918.7 952.0 919.4 C 967.3 920.1 982.7 920.8 998.0 921.4 C 1013.3 922.0 1028.7 922.5 1044.0 922.9 C 1059.3 923.3 1074.7 923.6 1090.0 923.8 C 1105.3 924.0 1120.7 924.1 1136.0 924.2 C 1151.3 924.2 1166.7 924.2 1182.0 924.1 C 1197.3 924.0 1212.7 923.8 1228.0 923.6 C 1243.3 923.4 1258.7 923.1 1274.0 922.8 C 1289.3 922.6 1304.7 922.3 1320.0 922.0 C 1335.3 921.8 1350.7 921.5 1366.0 921.3 C 1381.3 921.1 1396.7 920.9 1412.0 920.8 C 1427.3 920.7 1442.7 920.7 1458.0 920.8 C 1473.3 920.8 1488.7 921.0 1504.0 921.2 C 1519.3 921.4 1534.7 921.8 1550.0 922.2 C 1565.3 922.6 1580.7 923.2 1596.0 923.8 C 1611.3 924.4 1634.3 925.6 1642.0 925.9" stroke="#F5F0E8" stroke-width="1" stroke-opacity="0.048" fill="none" stroke-linecap="round"/><path d="M -60.0 924.6 C -52.3 924.7 -29.3 925.1 -14.0 925.3 C 1.3 925.5 16.7 925.7 32.0 925.8 C 47.3 926.0 62.7 926.1 78.0 926.2 C 93.3 926.2 108.7 926.3 124.0 926.3 C 139.3 926.4 154.7 926.4 170.0 926.4 C 185.3 926.5 200.7 926.5 216.0 926.6 C 231.3 926.6 246.7 926.7 262.0 926.8 C 277.3 926.9 292.7 927.0 308.0 927.2 C 323.3 927.4 338.7 927.7 354.0 928.0 C 369.3 928.3 384.7 928.6 400.0 929.1 C 415.3 929.5 430.7 930.0 446.0 930.6 C 461.3 931.2 476.7 931.9 492.0 932.6 C 507.3 933.4 522.7 934.2 538.0 935.1 C 553.3 936.0 568.7 937.0 584.0 938.0 C 599.3 939.1 614.7 940.2 630.0 941.3 C 645.3 942.5 660.7 943.7 676.0 944.9 C 691.3 946.2 706.7 947.5 722.0 948.7 C 737.3 950.0 752.7 951.3 768.0 952.6 C 783.3 953.9 798.7 955.2 814.0 956.4 C 829.3 957.6 844.7 958.8 860.0 959.9 C 875.3 961.0 890.7 962.1 906.0 963.1 C 921.3 964.1 936.7 965.0 952.0 965.8 C 967.3 966.6 982.7 967.3 998.0 967.8 C 1013.3 968.4 1028.7 968.9 1044.0 969.3 C 1059.3 969.6 1074.7 969.9 1090.0 970.0 C 1105.3 970.2 1120.7 970.2 1136.0 970.1 C 1151.3 970.0 1166.7 969.8 1182.0 969.5 C 1197.3 969.2 1212.7 968.8 1228.0 968.4 C 1243.3 968.0 1258.7 967.4 1274.0 966.9 C 1289.3 966.3 1304.7 965.7 1320.0 965.1 C 1335.3 964.5 1350.7 963.8 1366.0 963.2 C 1381.3 962.6 1396.7 961.9 1412.0 961.3 C 1427.3 960.8 1442.7 960.2 1458.0 959.8 C 1473.3 959.3 1488.7 958.9 1504.0 958.6 C 1519.3 958.3 1534.7 958.0 1550.0 957.9 C 1565.3 957.8 1580.7 957.8 1596.0 957.9 C 1611.3 958.0 1634.3 958.5 1642.0 958.6" stroke="#F5F0E8" stroke-width="1.5" stroke-opacity="0.170" fill="none" stroke-linecap="round"/><path d="M -60.0 966.6 C -52.3 966.1 -29.3 964.8 -14.0 964.0 C 1.3 963.1 16.7 962.2 32.0 961.4 C 47.3 960.6 62.7 959.8 78.0 959.2 C 93.3 958.5 108.7 957.8 124.0 957.4 C 139.3 956.9 154.7 956.4 170.0 956.2 C 185.3 955.9 200.7 955.8 216.0 955.8 C 231.3 955.8 246.7 955.9 262.0 956.1 C 277.3 956.4 292.7 956.8 308.0 957.4 C 323.3 957.9 338.7 958.6 354.0 959.4 C 369.3 960.2 384.7 961.1 400.0 962.1 C 415.3 963.0 430.7 964.1 446.0 965.3 C 461.3 966.4 476.7 967.6 492.0 968.9 C 507.3 970.1 522.7 971.4 538.0 972.6 C 553.3 973.9 568.7 975.1 584.0 976.3 C 599.3 977.5 614.7 978.7 630.0 979.8 C 645.3 980.9 660.7 981.9 676.0 982.9 C 691.3 983.8 706.7 984.6 722.0 985.4 C 737.3 986.1 752.7 986.7 768.0 987.2 C 783.3 987.7 798.7 988.0 814.0 988.3 C 829.3 988.5 844.7 988.6 860.0 988.6 C 875.3 988.6 890.7 988.5 906.0 988.3 C 921.3 988.1 936.7 987.8 952.0 987.4 C 967.3 987.0 982.7 986.5 998.0 986.0 C 1013.3 985.5 1028.7 984.9 1044.0 984.3 C 1059.3 983.7 1074.7 983.0 1090.0 982.4 C 1105.3 981.7 1120.7 981.1 1136.0 980.5 C 1151.3 979.9 1166.7 979.3 1182.0 978.7 C 1197.3 978.2 1212.7 977.7 1228.0 977.3 C 1243.3 976.9 1258.7 976.5 1274.0 976.2 C 1289.3 975.9 1304.7 975.7 1320.0 975.6 C 1335.3 975.4 1350.7 975.4 1366.0 975.4 C 1381.3 975.5 1396.7 975.6 1412.0 975.8 C 1427.3 975.9 1442.7 976.2 1458.0 976.5 C 1473.3 976.8 1488.7 977.2 1504.0 977.6 C 1519.3 978.0 1534.7 978.5 1550.0 979.0 C 1565.3 979.5 1580.7 980.0 1596.0 980.6 C 1611.3 981.1 1634.3 982.0 1642.0 982.2" stroke="#F5F0E8" stroke-width="1" stroke-opacity="0.060" fill="none" stroke-linecap="round"/></g>
<path d="M -60.0 429.6 C -52.3 429.6 -29.3 429.6 -14.0 429.7 C 1.3 429.7 16.7 429.8 32.0 429.8 C 47.3 429.9 62.7 430.0 78.0 430.1 C 93.3 430.2 108.7 430.3 124.0 430.4 C 139.3 430.6 154.7 430.7 170.0 430.9 C 185.3 431.0 200.7 431.2 216.0 431.3 C 231.3 431.5 246.7 431.7 262.0 431.9 C 277.3 432.0 292.7 432.2 308.0 432.3 C 323.3 432.5 338.7 432.6 354.0 432.7 C 369.3 432.8 384.7 432.9 400.0 433.0 C 415.3 433.0 430.7 433.0 446.0 433.0 C 461.3 432.9 476.7 432.9 492.0 432.7 C 507.3 432.6 522.7 432.4 538.0 432.1 C 553.3 431.9 568.7 431.6 584.0 431.2 C 599.3 430.8 614.7 430.3 630.0 429.8 C 645.3 429.3 660.7 428.7 676.0 428.0 C 691.3 427.4 706.7 426.7 722.0 425.9 C 737.3 425.1 752.7 424.2 768.0 423.3 C 783.3 422.4 798.7 421.5 814.0 420.5 C 829.3 419.5 844.7 418.4 860.0 417.3 C 875.3 416.3 890.7 415.1 906.0 414.0 C 921.3 412.9 936.7 411.7 952.0 410.6 C 967.3 409.5 982.7 408.3 998.0 407.2 C 1013.3 406.0 1028.7 404.9 1044.0 403.8 C 1059.3 402.7 1074.7 401.6 1090.0 400.6 C 1105.3 399.6 1120.7 398.6 1136.0 397.6 C 1151.3 396.7 1166.7 395.8 1182.0 394.9 C 1197.3 394.1 1212.7 393.3 1228.0 392.6 C 1243.3 391.8 1258.7 391.2 1274.0 390.6 C 1289.3 389.9 1304.7 389.4 1320.0 388.9 C 1335.3 388.4 1350.7 388.0 1366.0 387.6 C 1381.3 387.3 1396.7 387.0 1412.0 386.7 C 1427.3 386.4 1442.7 386.2 1458.0 386.0 C 1473.3 385.9 1488.7 385.7 1504.0 385.6 C 1519.3 385.5 1534.7 385.5 1550.0 385.4 C 1565.3 385.4 1580.7 385.3 1596.0 385.3 C 1611.3 385.3 1634.3 385.3 1642.0 385.3" stroke="#C9A96E" stroke-width="2" stroke-opacity="0.5" fill="none" stroke-linecap="round"/>
<rect width="1600" height="900" fill="url(#vig)"/>
<rect width="1600" height="900" filter="url(#grain)" opacity="0.05"/>
</svg>