<svg xmlns="http://www.w3.org/2000/svg" viewBox="0 0 1600 900" preserveAspectRatio="xMidYMid slice">
<defs>
<linearGradient id="bg" x1="0" y1="0" x2="0" y2="1"><stop offset="0" stop-color="#0b160f"/><stop offset="1" stop-color="#15271b"/></linearGradient>
<radialGradient id="glow" cx="0.258" cy="0.363" r="0.75"><stop offset="0" stop-color="#C9A96E" stop-opacity="0.15"/><stop offset="1" stop-color="#C9A96E" stop-opacity="0"/></radialGradient>
<radialGradient id="vig" cx="0.5" cy="0.5" r="0.75"><stop offset="0.5" stop-color="#000" stop-opacity="0"/><stop offset="1" stop-color="#000" stop-opacity="0.5"/></radialGradient>
<filter id="grain"><feTurbulence type="fractalNoise" baseFrequency="0.9" numOctaves="2" stitchTiles="stitch"/><feColorMatrix type="matrix" values="0 0 0 0 0 0 0 0 0 0 0 0 0 0 0 0 0 0 0.55 0"/></filter>
</defs>
<rect width="1600" height="900" fill="url(#bg)"/>
<rect width="1600" height="900" fill="url(#glow)"/>
<path d="M -60.0 576.5 C -52.3 575.7 -29.3 573.3 -14.0 571.7 C 1.3 570.1 16.7 568.5 32.0 567.0 C 47.3 565.5 62.7 564.0 78.0 562.6 C 93.3 561.2 108.7 559.9 124.0 558.6 C 139.3 557.4 154.7 556.3 170.0 555.3 C 185.3 554.3 200.7 553.4 216.0 552.6 C 231.3 551.8 246.7 551.1 262.0 550.5 C 277.3 549.9 292.7 549.4 308.0 549.0 C 323.3 548.6 338.7 548.3 354.0 548.0 C 369.3 547.7 384.7 547.5 400.0 547.3 C 415.3 547.1 430.7 546.9 446.0 546.8 C 461.3 546.6 476.7 546.4 492.0 546.2 C 507.3 545.9 522.7 545.7 538.0 545.3 C 553.3 545.0 568.7 544.6 584.0 544.1 C 599.3 543.6 614.7 543.0 630.0 542.4 C 645.3 541.7 660.7 540.9 676.0 540.1 C 691.3 539.2 706.7 538.2 722.0 537.2 C 737.3 536.2 752.7 535.0 768.0 533.8 C 783.3 532.6 798.7 531.4 814.0 530.1 C 829.3 528.8 844.7 527.5 860.0 526.1 C 875.3 524.8 890.7 523.5 906.0 522.2 C 921.3 521.0 936.7 519.7 952.0 518.5 C 967.3 517.4 982.7 516.3 998.0 515.4 C 1013.3 514.4 1028.7 513.6 1044.0 512.9 C 1059.3 512.2 1074.7 511.7 1090.0 511.4 C 1105.3 511.0 1120.7 510.8 1136.0 510.8 C 1151.3 510.8 1166.7 511.0 1182.0 511.4 C 1197.3 511.7 1212.7 512.3 1228.0 513.0 C 1243.3 513.7 1258.7 514.6 1274.0 515.6 C 1289.3 516.6 1304.7 517.7 1320.0 518.9 C 1335.3 520.2 1350.7 521.5 1366.0 522.9 C 1381.3 524.3 1396.7 525.7 1412.0 527.2 C 1427.3 528.6 1442.7 530.0 1458.0 531.4 C 1473.3 532.7 1488.7 534.1 1504.0 535.3 C 1519.3 536.5 1534.7 537.6 1550.0 538.6 C 1565.3 539.5 1580.7 540.4 1596.0 541.0 C 1611.3 541.6 1631.3 472.5 1642.0 542.4 C 1652.7 612.2 1943.7 890.4 1660.0 960.0 C 1376.3 1029.6 226.7 960.0 -60.0 960.0 Z" fill="#C9A96E" fill-opacity="0.028"/>
<g><path d="M -60.0 -58.1 C -52.3 -57.7 -29.3 -56.7 -14.0 -56.0 C 1.3 -55.3 16.7 -54.7 32.0 -54.1 C 47.3 -53.4 62.7 -52.8 78.0 -52.3 C 93.3 -51.7 108.7 -51.2 124.0 -50.6 C 139.3 -50.1 154.7 -49.6 170.0 -49.1 C 185.3 -48.7 200.7 -48.2 216.0 -47.8 C 231.3 -47.3 246.7 -46.9 262.0 -46.5 C 277.3 -46.1 292.7 -45.7 308.0 -45.3 C 323.3 -45.0 338.7 -44.6 354.0 -44.2 C 369.3 -43.9 384.7 -43.5 400.0 -43.1 C 415.3 -42.8 430.7 -42.4 446.0 -42.1 C 461.3 -41.7 476.7 -41.3 492.0 -41.0 C 507.3 -40.6 522.7 -40.2 538.0 -39.8 C 553.3 -39.4 568.7 -39.0 584.0 -38.5 C 599.3 -38.1 614.7 -37.6 630.0 -37.2 C 645.3 -36.7 660.7 -36.2 676.0 -35.6 C 691.3 -35.1 706.7 -34.5 722.0 -33.9 C 737.3 -33.3 752.7 -32.7 768.0 -32.0 C 783.3 -31.3 798.7 -30.6 814.0 -29.9 C 829.3 -29.2 844.7 -28.4 860.0 -27.6 C 875.3 -26.8 890.7 -25.9 906.0 -25.1 C 921.3 -24.2 936.7 -23.3 952.0 -22.3 C 967.3 -21.4 982.7 -20.4 998.0 -19.4 C 1013.3 -18.4 1028.7 -17.4 1044.0 -16.3 C 1059.3 -15.2 1074.7 -14.2 1090.0 -13.0 C 1105.3 -11.9 1120.7 -10.8 1136.0 -9.7 C 1151.3 -8.5 1166.7 -7.4 1182.0 -6.2 C 1197.3 -5.0 1212.7 -3.9 1228.0 -2.7 C 1243.3 -1.5 1258.7 -0.3 1274.0 0.9 C 1289.3 2.0 1304.7 3.2 1320.0 4.4 C 1335.3 5.5 1350.7 6.7 1366.0 7.8 C 1381.3 9.0 1396.7 10.1 1412.0 11.2 C 1427.3 12.3 1442.7 13.3 1458.0 14.4 C 1473.3 15.4 1488.7 16.5 1504.0 17.4 C 1519.3 18.4 1534.7 19.4 1550.0 20.3 C 1565.3 21.2 1580.7 22.1 1596.0 23.0 C 1611.3 23.8 1634.3 25.0 1642.0 25.4" stroke="#F5F0E8" stroke-width="1" stroke-opacity="0.074" fill="none" stroke-linecap="round"/><path d="M -60.0 -22.1 C -52.3 -22.5 -29.3 -23.8 -14.0 -24.6 C 1.3 -25.5 16.7 -26.5 32.0 -27.4 C 47.3 -28.3 62.7 -29.3 78.0 -30.2 C 93.3 -31.0 108.7 -31.9 124.0 -32.6 C 139.3 -33.3 154.7 -34.0 170.0 -34.4 C 185.3 -34.9 200.7 -35.3 216.0 -35.6 C 231.3 -35.8 246.7 -35.9 262.0 -35.8 C 277.3 -35.7 292.7 -35.5 308.0 -35.1 C 323.3 -34.7 338.7 -34.2 354.0 -33.5 C 369.3 -32.8 384.7 -32.0 400.0 -31.0 C 415.3 -30.1 430.7 -29.0 446.0 -27.9 C 461.3 -26.8 476.7 -25.6 492.0 -24.3 C 507.3 -23.1 522.7 -21.8 538.0 -20.5 C 553.3 -19.3 568.7 -18.0 584.0 -16.7 C 599.3 -15.5 614.7 -14.3 630.0 -13.2 C 645.3 -12.1 660.7 -11.0 676.0 -10.1 C 691.3 -9.2 706.7 -8.3 722.0 -7.6 C 737.3 -6.8 752.7 -6.2 768.0 -5.7 C 783.3 -5.2 798.7 -4.8 814.0 -4.5 C 829.3 -4.2 844.7 -4.0 860.0 -3.8 C 875.3 -3.7 890.7 -3.7 906.0 -3.6 C 921.3 -3.6 936.7 -3.7 952.0 -3.7 C 967.3 -3.7 982.7 -3.8 998.0 -3.8 C 1013.3 -3.8 1028.7 -3.8 1044.0 -3.7 C 1059.3 -3.6 1074.7 -3.4 1090.0 -3.1 C 1105.3 -2.9 1120.7 -2.5 1136.0 -2.0 C 1151.3 -1.5 1166.7 -0.9 1182.0 -0.1 C 1197.3 0.6 1212.7 1.5 1228.0 2.5 C 1243.3 3.6 1258.7 4.7 1274.0 6.0 C 1289.3 7.3 1304.7 8.7 1320.0 10.2 C 1335.3 11.7 1350.7 13.3 1366.0 15.0 C 1381.3 16.6 1396.7 18.4 1412.0 20.1 C 1427.3 21.9 1442.7 23.7 1458.0 25.4 C 1473.3 27.1 1488.7 28.8 1504.0 30.5 C 1519.3 32.1 1534.7 33.6 1550.0 35.1 C 1565.3 36.5 1580.7 37.8 1596.0 39.0 C 1611.3 40.1 1634.3 41.5 1642.0 42.0" stroke="#C9A96E" stroke-width="1.5" stroke-opacity="0.232" fill="none" stroke-linecap="round"/><path d="M -60.0 9.3 C -52.3 9.2 -29.3 8.7 -14.0 8.5 C 1.3 8.3 16.7 8.2 32.0 8.1 C 47.3 8.0 62.7 7.9 78.0 7.9 C 93.3 7.9 108.7 7.9 124.0 7.8 C 139.3 7.8 154.7 7.8 170.0 7.7 C 185.3 7.6 200.7 7.5 216.0 7.2 C 231.3 7.0 246.7 6.8 262.0 6.4 C 277.3 6.0 292.7 5.5 308.0 4.9 C 323.3 4.3 338.7 3.6 354.0 2.7 C 369.3 1.9 384.7 0.9 400.0 -0.2 C 415.3 -1.2 430.7 -2.5 446.0 -3.8 C 461.3 -5.1 476.7 -6.5 492.0 -8.0 C 507.3 -9.4 522.7 -11.0 538.0 -12.6 C 553.3 -14.2 568.7 -15.9 584.0 -17.6 C 599.3 -19.2 614.7 -20.9 630.0 -22.6 C 645.3 -24.2 660.7 -25.8 676.0 -27.4 C 691.3 -28.9 706.7 -30.5 722.0 -31.9 C 737.3 -33.3 752.7 -34.6 768.0 -35.8 C 783.3 -37.0 798.7 -38.1 814.0 -39.1 C 829.3 -40.0 844.7 -40.9 860.0 -41.6 C 875.3 -42.4 890.7 -43.0 906.0 -43.5 C 921.3 -44.0 936.7 -44.4 952.0 -44.7 C 967.3 -45.0 982.7 -45.3 998.0 -45.4 C 1013.3 -45.6 1028.7 -45.7 1044.0 -45.8 C 1059.3 -45.8 1074.7 -45.8 1090.0 -45.9 C 1105.3 -45.9 1120.7 -45.9 1136.0 -46.0 C 1151.3 -46.0 1166.7 -46.1 1182.0 -46.2 C 1197.3 -46.3 1212.7 -46.5 1228.0 -46.7 C 1243.3 -46.9 1258.7 -47.1 1274.0 -47.4 C 1289.3 -47.8 1304.7 -48.1 1320.0 -48.6 C 1335.3 -49.0 1350.7 -49.5 1366.0 -50.0 C 1381.3 -50.5 1396.7 -51.0 1412.0 -51.6 C 1427.3 -52.1 1442.7 -52.7 1458.0 -53.3 C 1473.3 -53.9 1488.7 -54.5 1504.0 -55.0 C 1519.3 -55.5 1534.7 -56.1 1550.0 -56.5 C 1565.3 -57.0 1580.7 -57.4 1596.0 -57.7 C 1611.3 -58.1 1634.3 -58.4 1642.0 -58.6" stroke="#F5F0E8" stroke-width="1" stroke-opacity="0.051" fill="none" stroke-linecap="round"/><path d="M -60.0 44.2 C -52.3 43.2 -29.3 40.1 -14.0 38.2 C 1.3 36.3 16.7 34.4 32.0 32.8 C 47.3 31.1 62.7 29.5 78.0 28.2 C 93.3 26.8 108.7 25.6 124.0 24.6 C 139.3 23.6 154.7 22.8 170.0 22.2 C 185.3 21.5 200.7 21.1 216.0 20.8 C 231.3 20.5 246.7 20.4 262.0 20.3 C 277.3 20.3 292.7 20.5 308.0 20.6 C 323.3 20.8 338.7 21.1 354.0 21.4 C 369.3 21.6 384.7 22.0 400.0 22.2 C 415.3 22.5 430.7 22.8 446.0 23.0 C 461.3 23.1 476.7 23.2 492.0 23.2 C 507.3 23.2 522.7 23.1 538.0 22.8 C 553.3 22.5 568.7 22.0 584.0 21.4 C 599.3 20.8 614.7 20.0 630.0 19.1 C 645.3 18.2 660.7 17.0 676.0 15.8 C 691.3 14.5 706.7 13.1 722.0 11.5 C 737.3 10.0 752.7 8.3 768.0 6.5 C 783.3 4.8 798.7 2.9 814.0 1.0 C 829.3 -0.9 844.7 -2.9 860.0 -4.8 C 875.3 -6.8 890.7 -8.7 906.0 -10.6 C 921.3 -12.5 936.7 -14.4 952.0 -16.1 C 967.3 -17.8 982.7 -19.5 998.0 -21.0 C 1013.3 -22.5 1028.7 -23.9 1044.0 -25.1 C 1059.3 -26.3 1074.7 -27.4 1090.0 -28.3 C 1105.3 -29.2 1120.7 -30.0 1136.0 -30.5 C 1151.3 -31.1 1166.7 -31.5 1182.0 -31.8 C 1197.3 -32.1 1212.7 -32.2 1228.0 -32.2 C 1243.3 -32.2 1258.7 -32.0 1274.0 -31.8 C 1289.3 -31.6 1304.7 -31.3 1320.0 -30.9 C 1335.3 -30.6 1350.7 -30.2 1366.0 -29.8 C 1381.3 -29.4 1396.7 -29.0 1412.0 -28.6 C 1427.3 -28.3 1442.7 -27.9 1458.0 -27.7 C 1473.3 -27.5 1488.7 -27.3 1504.0 -27.2 C 1519.3 -27.1 1534.7 -27.1 1550.0 -27.3 C 1565.3 -27.4 1580.7 -27.7 1596.0 -28.0 C 1611.3 -28.4 1634.3 -29.3 1642.0 -29.5" stroke="#F5F0E8" stroke-width="1" stroke-opacity="0.070" fill="none" stroke-linecap="round"/><path d="M -60.0 95.8 C -52.3 95.0 -29.3 92.8 -14.0 90.8 C 1.3 88.8 16.7 86.5 32.0 84.0 C 47.3 81.5 62.7 78.7 78.0 75.8 C 93.3 73.0 108.7 69.9 124.0 66.9 C 139.3 63.9 154.7 60.8 170.0 57.9 C 185.3 54.9 200.7 52.0 216.0 49.4 C 231.3 46.8 246.7 44.3 262.0 42.2 C 277.3 40.1 292.7 38.3 308.0 36.8 C 323.3 35.4 338.7 34.2 354.0 33.6 C 369.3 32.9 384.7 32.6 400.0 32.7 C 415.3 32.7 430.7 33.3 446.0 34.1 C 461.3 35.0 476.7 36.2 492.0 37.7 C 507.3 39.2 522.7 41.1 538.0 43.0 C 553.3 45.0 568.7 47.2 584.0 49.5 C 599.3 51.7 614.7 54.1 630.0 56.4 C 645.3 58.7 660.7 61.0 676.0 63.1 C 691.3 65.2 706.7 67.2 722.0 68.8 C 737.3 70.4 752.7 71.9 768.0 72.9 C 783.3 73.9 798.7 74.7 814.0 74.9 C 829.3 75.2 844.7 75.1 860.0 74.5 C 875.3 74.0 890.7 73.0 906.0 71.6 C 921.3 70.2 936.7 68.4 952.0 66.3 C 967.3 64.1 982.7 61.6 998.0 58.8 C 1013.3 56.1 1028.7 53.0 1044.0 49.8 C 1059.3 46.7 1074.7 43.2 1090.0 39.9 C 1105.3 36.5 1120.7 33.0 1136.0 29.7 C 1151.3 26.4 1166.7 23.1 1182.0 20.1 C 1197.3 17.1 1212.7 14.3 1228.0 11.8 C 1243.3 9.3 1258.7 7.1 1274.0 5.3 C 1289.3 3.5 1304.7 2.0 1320.0 1.0 C 1335.3 0.1 1350.7 -0.5 1366.0 -0.7 C 1381.3 -0.8 1396.7 -0.5 1412.0 0.2 C 1427.3 0.8 1442.7 1.9 1458.0 3.3 C 1473.3 4.7 1488.7 6.5 1504.0 8.4 C 1519.3 10.3 1534.7 12.6 1550.0 14.9 C 1565.3 17.1 1580.7 19.6 1596.0 22.0 C 1611.3 24.4 1634.3 27.9 1642.0 29.1" stroke="#F5F0E8" stroke-width="1" stroke-opacity="0.092" fill="none" stroke-linecap="round"/><path d="M -60.0 89.7 C -52.3 88.5 -29.3 84.5 -14.0 82.3 C 1.3 80.0 16.7 78.0 32.0 76.2 C 47.3 74.4 62.7 72.8 78.0 71.5 C 93.3 70.3 108.7 69.3 124.0 68.5 C 139.3 67.8 154.7 67.4 170.0 67.2 C 185.3 67.0 200.7 67.1 216.0 67.5 C 231.3 67.8 246.7 68.4 262.0 69.2 C 277.3 69.9 292.7 70.9 308.0 72.0 C 323.3 73.1 338.7 74.5 354.0 75.8 C 369.3 77.1 384.7 78.6 400.0 80.1 C 415.3 81.5 430.7 83.1 446.0 84.5 C 461.3 85.9 476.7 87.4 492.0 88.7 C 507.3 90.0 522.7 91.2 538.0 92.3 C 553.3 93.4 568.7 94.3 584.0 95.1 C 599.3 95.8 614.7 96.4 630.0 96.7 C 645.3 97.1 660.7 97.3 676.0 97.2 C 691.3 97.1 706.7 96.8 722.0 96.3 C 737.3 95.8 752.7 95.1 768.0 94.2 C 783.3 93.3 798.7 92.2 814.0 90.9 C 829.3 89.6 844.7 88.2 860.0 86.6 C 875.3 85.1 890.7 83.4 906.0 81.6 C 921.3 79.9 936.7 78.0 952.0 76.1 C 967.3 74.3 982.7 72.4 998.0 70.5 C 1013.3 68.7 1028.7 66.8 1044.0 65.0 C 1059.3 63.2 1074.7 61.5 1090.0 59.9 C 1105.3 58.3 1120.7 56.8 1136.0 55.4 C 1151.3 54.0 1166.7 52.8 1182.0 51.7 C 1197.3 50.6 1212.7 49.7 1228.0 48.9 C 1243.3 48.1 1258.7 47.5 1274.0 47.0 C 1289.3 46.5 1304.7 46.2 1320.0 45.9 C 1335.3 45.7 1350.7 45.6 1366.0 45.6 C 1381.3 45.6 1396.7 45.8 1412.0 45.9 C 1427.3 46.1 1442.7 46.3 1458.0 46.5 C 1473.3 46.8 1488.7 47.1 1504.0 47.3 C 1519.3 47.5 1534.7 47.8 1550.0 47.9 C 1565.3 48.1 1580.7 48.2 1596.0 48.2 C 1611.3 48.1 1634.3 47.9 1642.0 47.8" stroke="#C9A96E" stroke-width="1.5" stroke-opacity="0.207" fill="none" stroke-linecap="round"/><path d="M -60.0 139.7 C -52.3 140.3 -29.3 141.7 -14.0 143.0 C 1.3 144.2 16.7 145.6 32.0 147.0 C 47.3 148.5 62.7 150.2 78.0 151.8 C 93.3 153.5 108.7 155.3 124.0 157.1 C 139.3 158.9 154.7 160.8 170.0 162.6 C 185.3 164.4 200.7 166.2 216.0 167.9 C 231.3 169.6 246.7 171.2 262.0 172.7 C 277.3 174.2 292.7 175.5 308.0 176.7 C 323.3 177.8 338.7 178.8 354.0 179.5 C 369.3 180.2 384.7 180.7 400.0 181.0 C 415.3 181.2 430.7 181.2 446.0 180.9 C 461.3 180.7 476.7 180.2 492.0 179.5 C 507.3 178.7 522.7 177.7 538.0 176.6 C 553.3 175.4 568.7 174.0 584.0 172.5 C 599.3 171.0 614.7 169.3 630.0 167.5 C 645.3 165.8 660.7 163.9 676.0 162.0 C 691.3 160.2 706.7 158.2 722.0 156.3 C 737.3 154.5 752.7 152.6 768.0 150.8 C 783.3 149.1 798.7 147.4 814.0 145.9 C 829.3 144.4 844.7 143.0 860.0 141.8 C 875.3 140.7 890.7 139.6 906.0 138.8 C 921.3 138.0 936.7 137.4 952.0 137.0 C 967.3 136.6 982.7 136.4 998.0 136.3 C 1013.3 136.3 1028.7 136.5 1044.0 136.7 C 1059.3 137.0 1074.7 137.5 1090.0 138.1 C 1105.3 138.7 1120.7 139.4 1136.0 140.1 C 1151.3 140.9 1166.7 141.7 1182.0 142.5 C 1197.3 143.4 1212.7 144.2 1228.0 145.1 C 1243.3 145.9 1258.7 146.7 1274.0 147.4 C 1289.3 148.1 1304.7 148.8 1320.0 149.4 C 1335.3 149.9 1350.7 150.4 1366.0 150.8 C 1381.3 151.1 1396.7 151.4 1412.0 151.5 C 1427.3 151.7 1442.7 151.7 1458.0 151.7 C 1473.3 151.7 1488.7 151.5 1504.0 151.4 C 1519.3 151.2 1534.7 150.9 1550.0 150.7 C 1565.3 150.4 1580.7 150.1 1596.0 149.9 C 1611.3 149.6 1634.3 149.3 1642.0 149.2" stroke="#F5F0E8" stroke-width="1" stroke-opacity="0.062" fill="none" stroke-linecap="round"/><path d="M -60.0 168.2 C -52.3 168.3 -29.3 168.5 -14.0 168.9 C 1.3 169.2 16.7 169.7 32.0 170.1 C 47.3 170.6 62.7 171.1 78.0 171.5 C 93.3 171.9 108.7 172.3 124.0 172.6 C 139.3 172.8 154.7 173.0 170.0 173.0 C 185.3 172.9 200.7 172.7 216.0 172.3 C 231.3 171.9 246.7 171.3 262.0 170.5 C 277.3 169.6 292.7 168.5 308.0 167.3 C 323.3 166.0 338.7 164.5 354.0 162.8 C 369.3 161.2 384.7 159.3 400.0 157.3 C 415.3 155.3 430.7 153.2 446.0 151.0 C 461.3 148.9 476.7 146.6 492.0 144.4 C 507.3 142.2 522.7 140.0 538.0 137.9 C 553.3 135.8 568.7 133.7 584.0 131.9 C 599.3 130.0 614.7 128.3 630.0 126.8 C 645.3 125.3 660.7 124.0 676.0 122.9 C 691.3 121.9 706.7 121.1 722.0 120.5 C 737.3 120.0 752.7 119.7 768.0 119.6 C 783.3 119.6 798.7 119.8 814.0 120.2 C 829.3 120.6 844.7 121.3 860.0 122.1 C 875.3 122.9 890.7 123.9 906.0 125.0 C 921.3 126.0 936.7 127.3 952.0 128.5 C 967.3 129.8 982.7 131.1 998.0 132.4 C 1013.3 133.6 1028.7 134.9 1044.0 136.1 C 1059.3 137.3 1074.7 138.4 1090.0 139.4 C 1105.3 140.4 1120.7 141.4 1136.0 142.1 C 1151.3 142.8 1166.7 143.5 1182.0 143.9 C 1197.3 144.4 1212.7 144.7 1228.0 144.9 C 1243.3 145.1 1258.7 145.1 1274.0 145.0 C 1289.3 145.0 1304.7 144.8 1320.0 144.5 C 1335.3 144.3 1350.7 143.9 1366.0 143.6 C 1381.3 143.2 1396.7 142.8 1412.0 142.4 C 1427.3 142.1 1442.7 141.7 1458.0 141.4 C 1473.3 141.1 1488.7 140.8 1504.0 140.6 C 1519.3 140.4 1534.7 140.3 1550.0 140.3 C 1565.3 140.3 1580.7 140.3 1596.0 140.5 C 1611.3 140.6 1634.3 141.0 1642.0 141.1" stroke="#F5F0E8" stroke-width="1" stroke-opacity="0.047" fill="none" stroke-linecap="round"/><path d="M -60.0 222.6 C -52.3 222.8 -29.3 223.7 -14.0 224.1 C 1.3 224.4 16.7 224.6 32.0 224.6 C 47.3 224.5 62.7 224.3 78.0 223.9 C 93.3 223.5 108.7 222.8 124.0 222.0 C 139.3 221.2 154.7 220.2 170.0 219.0 C 185.3 217.8 200.7 216.4 216.0 215.0 C 231.3 213.5 246.7 211.8 262.0 210.1 C 277.3 208.3 292.7 206.4 308.0 204.6 C 323.3 202.7 338.7 200.7 354.0 198.7 C 369.3 196.8 384.7 194.8 400.0 192.9 C 415.3 191.0 430.7 189.1 446.0 187.3 C 461.3 185.5 476.7 183.8 492.0 182.2 C 507.3 180.7 522.7 179.2 538.0 177.9 C 553.3 176.5 568.7 175.3 584.0 174.3 C 599.3 173.3 614.7 172.4 630.0 171.6 C 645.3 170.9 660.7 170.3 676.0 169.9 C 691.3 169.4 706.7 169.1 722.0 168.9 C 737.3 168.7 752.7 168.6 768.0 168.6 C 783.3 168.6 798.7 168.7 814.0 168.9 C 829.3 169.0 844.7 169.3 860.0 169.5 C 875.3 169.7 890.7 170.0 906.0 170.3 C 921.3 170.6 936.7 170.9 952.0 171.1 C 967.3 171.4 982.7 171.6 998.0 171.8 C 1013.3 172.0 1028.7 172.2 1044.0 172.4 C 1059.3 172.5 1074.7 172.6 1090.0 172.7 C 1105.3 172.7 1120.7 172.7 1136.0 172.7 C 1151.3 172.7 1166.7 172.6 1182.0 172.5 C 1197.3 172.4 1212.7 172.3 1228.0 172.2 C 1243.3 172.0 1258.7 171.9 1274.0 171.7 C 1289.3 171.5 1304.7 171.4 1320.0 171.2 C 1335.3 171.0 1350.7 170.8 1366.0 170.6 C 1381.3 170.4 1396.7 170.3 1412.0 170.1 C 1427.3 169.9 1442.7 169.7 1458.0 169.5 C 1473.3 169.3 1488.7 169.1 1504.0 168.8 C 1519.3 168.6 1534.7 168.3 1550.0 168.0 C 1565.3 167.7 1580.7 167.4 1596.0 167.0 C 1611.3 166.6 1634.3 165.9 1642.0 165.7" stroke="#F5F0E8" stroke-width="1" stroke-opacity="0.079" fill="none" stroke-linecap="round"/><path d="M -60.0 239.8 C -52.3 240.0 -29.3 240.6 -14.0 241.0 C 1.3 241.3 16.7 241.8 32.0 242.2 C 47.3 242.5 62.7 242.9 78.0 243.2 C 93.3 243.5 108.7 243.8 124.0 244.0 C 139.3 244.1 154.7 244.3 170.0 244.2 C 185.3 244.2 200.7 244.1 216.0 243.9 C 231.3 243.7 246.7 243.3 262.0 242.9 C 277.3 242.4 292.7 241.8 308.0 241.1 C 323.3 240.4 338.7 239.6 354.0 238.6 C 369.3 237.7 384.7 236.6 400.0 235.5 C 415.3 234.3 430.7 233.1 446.0 231.8 C 461.3 230.5 476.7 229.1 492.0 227.8 C 507.3 226.4 522.7 225.0 538.0 223.6 C 553.3 222.1 568.7 220.7 584.0 219.4 C 599.3 218.0 614.7 216.6 630.0 215.4 C 645.3 214.1 660.7 212.9 676.0 211.9 C 691.3 210.8 706.7 209.8 722.0 208.9 C 737.3 208.0 752.7 207.3 768.0 206.7 C 783.3 206.0 798.7 205.6 814.0 205.2 C 829.3 204.9 844.7 204.7 860.0 204.6 C 875.3 204.5 890.7 204.6 906.0 204.7 C 921.3 204.9 936.7 205.2 952.0 205.6 C 967.3 206.0 982.7 206.5 998.0 207.0 C 1013.3 207.5 1028.7 208.2 1044.0 208.8 C 1059.3 209.5 1074.7 210.2 1090.0 210.9 C 1105.3 211.6 1120.7 212.4 1136.0 213.1 C 1151.3 213.8 1166.7 214.5 1182.0 215.1 C 1197.3 215.7 1212.7 216.3 1228.0 216.8 C 1243.3 217.3 1258.7 217.8 1274.0 218.1 C 1289.3 218.5 1304.7 218.8 1320.0 219.0 C 1335.3 219.2 1350.7 219.3 1366.0 219.3 C 1381.3 219.3 1396.7 219.2 1412.0 219.1 C 1427.3 219.0 1442.7 218.8 1458.0 218.5 C 1473.3 218.2 1488.7 217.9 1504.0 217.5 C 1519.3 217.2 1534.7 216.8 1550.0 216.4 C 1565.3 216.0 1580.7 215.6 1596.0 215.2 C 1611.3 214.8 1634.3 214.3 1642.0 214.1" stroke="#C9A96E" stroke-width="1.5" stroke-opacity="0.219" fill="none" stroke-linecap="round"/><path d="M -60.0 266.7 C -52.3 266.2 -29.3 264.5 -14.0 263.4 C 1.3 262.4 16.7 261.3 32.0 260.3 C 47.3 259.3 62.7 258.4 78.0 257.5 C 93.3 256.6 108.7 255.7 124.0 255.0 C 139.3 254.2 154.7 253.5 170.0 252.8 C 185.3 252.2 200.7 251.6 216.0 251.1 C 231.3 250.6 246.7 250.1 262.0 249.7 C 277.3 249.4 292.7 249.1 308.0 248.8 C 323.3 248.6 338.7 248.4 354.0 248.3 C 369.3 248.2 384.7 248.1 400.0 248.1 C 415.3 248.1 430.7 248.1 446.0 248.2 C 461.3 248.2 476.7 248.3 492.0 248.5 C 507.3 248.6 522.7 248.7 538.0 248.9 C 553.3 249.0 568.7 249.2 584.0 249.3 C 599.3 249.5 614.7 249.6 630.0 249.8 C 645.3 249.9 660.7 250.0 676.0 250.0 C 691.3 250.1 706.7 250.1 722.0 250.1 C 737.3 250.0 752.7 250.0 768.0 249.8 C 783.3 249.7 798.7 249.4 814.0 249.2 C 829.3 248.9 844.7 248.5 860.0 248.1 C 875.3 247.6 890.7 247.1 906.0 246.5 C 921.3 245.9 936.7 245.2 952.0 244.5 C 967.3 243.7 982.7 242.9 998.0 241.9 C 1013.3 241.0 1028.7 240.0 1044.0 238.9 C 1059.3 237.8 1074.7 236.6 1090.0 235.4 C 1105.3 234.1 1120.7 232.8 1136.0 231.4 C 1151.3 230.1 1166.7 228.7 1182.0 227.2 C 1197.3 225.7 1212.7 224.2 1228.0 222.6 C 1243.3 221.1 1258.7 219.5 1274.0 217.9 C 1289.3 216.3 1304.7 214.7 1320.0 213.0 C 1335.3 211.4 1350.7 209.8 1366.0 208.1 C 1381.3 206.5 1396.7 204.9 1412.0 203.3 C 1427.3 201.7 1442.7 200.2 1458.0 198.7 C 1473.3 197.1 1488.7 195.6 1504.0 194.2 C 1519.3 192.8 1534.7 191.3 1550.0 190.0 C 1565.3 188.7 1580.7 187.4 1596.0 186.1 C 1611.3 184.9 1634.3 183.2 1642.0 182.6" stroke="#F5F0E8" stroke-width="1" stroke-opacity="0.054" fill="none" stroke-linecap="round"/><path d="M -60.0 301.9 C -52.3 300.6 -29.3 296.4 -14.0 293.9 C 1.3 291.3 16.7 288.8 32.0 286.6 C 47.3 284.5 62.7 282.5 78.0 281.0 C 93.3 279.4 108.7 278.2 124.0 277.4 C 139.3 276.7 154.7 276.3 170.0 276.5 C 185.3 276.6 200.7 277.2 216.0 278.2 C 231.3 279.3 246.7 280.8 262.0 282.8 C 277.3 284.7 292.7 287.1 308.0 289.7 C 323.3 292.3 338.7 295.4 354.0 298.6 C 369.3 301.8 384.7 305.4 400.0 308.9 C 415.3 312.4 430.7 316.1 446.0 319.7 C 461.3 323.2 476.7 326.9 492.0 330.2 C 507.3 333.5 522.7 336.8 538.0 339.6 C 553.3 342.4 568.7 345.1 584.0 347.2 C 599.3 349.3 614.7 351.0 630.0 352.3 C 645.3 353.5 660.7 354.2 676.0 354.4 C 691.3 354.6 706.7 354.3 722.0 353.5 C 737.3 352.6 752.7 351.2 768.0 349.4 C 783.3 347.6 798.7 345.2 814.0 342.5 C 829.3 339.8 844.7 336.6 860.0 333.2 C 875.3 329.8 890.7 326.1 906.0 322.2 C 921.3 318.4 936.7 314.3 952.0 310.4 C 967.3 306.4 982.7 302.3 998.0 298.5 C 1013.3 294.7 1028.7 290.8 1044.0 287.4 C 1059.3 284.0 1074.7 280.8 1090.0 278.0 C 1105.3 275.2 1120.7 272.8 1136.0 270.9 C 1151.3 269.0 1166.7 267.5 1182.0 266.5 C 1197.3 265.6 1212.7 265.2 1228.0 265.2 C 1243.3 265.3 1258.7 266.0 1274.0 267.0 C 1289.3 268.1 1304.7 269.8 1320.0 271.7 C 1335.3 273.7 1350.7 276.2 1366.0 278.8 C 1381.3 281.5 1396.7 284.6 1412.0 287.8 C 1427.3 291.0 1442.7 294.4 1458.0 297.8 C 1473.3 301.2 1488.7 304.7 1504.0 308.1 C 1519.3 311.4 1534.7 314.7 1550.0 317.7 C 1565.3 320.7 1580.7 323.6 1596.0 326.0 C 1611.3 328.4 1634.3 331.2 1642.0 332.3" stroke="#F5F0E8" stroke-width="1" stroke-opacity="0.079" fill="none" stroke-linecap="round"/><path d="M -60.0 328.0 C -52.3 328.7 -29.3 330.7 -14.0 332.2 C 1.3 333.8 16.7 335.4 32.0 337.1 C 47.3 338.8 62.7 340.6 78.0 342.4 C 93.3 344.2 108.7 346.1 124.0 348.0 C 139.3 349.9 154.7 351.9 170.0 353.8 C 185.3 355.7 200.7 357.6 216.0 359.5 C 231.3 361.3 246.7 363.2 262.0 364.9 C 277.3 366.7 292.7 368.4 308.0 370.0 C 323.3 371.6 338.7 373.1 354.0 374.4 C 369.3 375.8 384.7 377.1 400.0 378.2 C 415.3 379.3 430.7 380.3 446.0 381.1 C 461.3 381.9 476.7 382.6 492.0 383.1 C 507.3 383.6 522.7 383.9 538.0 384.1 C 553.3 384.2 568.7 384.2 584.0 384.1 C 599.3 383.9 614.7 383.5 630.0 383.0 C 645.3 382.5 660.7 381.9 676.0 381.1 C 691.3 380.3 706.7 379.3 722.0 378.2 C 737.3 377.2 752.7 375.9 768.0 374.6 C 783.3 373.3 798.7 371.9 814.0 370.5 C 829.3 369.0 844.7 367.4 860.0 365.8 C 875.3 364.3 890.7 362.6 906.0 361.0 C 921.3 359.4 936.7 357.7 952.0 356.1 C 967.3 354.5 982.7 352.9 998.0 351.4 C 1013.3 349.8 1028.7 348.3 1044.0 347.0 C 1059.3 345.6 1074.7 344.3 1090.0 343.1 C 1105.3 342.0 1120.7 340.9 1136.0 340.0 C 1151.3 339.2 1166.7 338.4 1182.0 337.8 C 1197.3 337.2 1212.7 336.8 1228.0 336.6 C 1243.3 336.3 1258.7 336.3 1274.0 336.4 C 1289.3 336.6 1304.7 336.9 1320.0 337.4 C 1335.3 337.9 1350.7 338.6 1366.0 339.6 C 1381.3 340.5 1396.7 341.6 1412.0 342.8 C 1427.3 344.1 1442.7 345.6 1458.0 347.2 C 1473.3 348.8 1488.7 350.7 1504.0 352.6 C 1519.3 354.5 1534.7 356.6 1550.0 358.8 C 1565.3 361.0 1580.7 363.4 1596.0 365.8 C 1611.3 368.2 1634.3 372.1 1642.0 373.4" stroke="#F5F0E8" stroke-width="1" stroke-opacity="0.053" fill="none" stroke-linecap="round"/><path d="M -60.0 368.3 C -52.3 368.3 -29.3 368.3 -14.0 368.2 C 1.3 368.1 16.7 368.0 32.0 368.0 C 47.3 367.9 62.7 367.8 78.0 367.7 C 93.3 367.6 108.7 367.5 124.0 367.4 C 139.3 367.3 154.7 367.3 170.0 367.2 C 185.3 367.2 200.7 367.2 216.0 367.3 C 231.3 367.3 246.7 367.4 262.0 367.6 C 277.3 367.7 292.7 367.9 308.0 368.1 C 323.3 368.4 338.7 368.7 354.0 369.0 C 369.3 369.4 384.7 369.8 400.0 370.2 C 415.3 370.7 430.7 371.2 446.0 371.7 C 461.3 372.2 476.7 372.8 492.0 373.4 C 507.3 374.0 522.7 374.7 538.0 375.3 C 553.3 376.0 568.7 376.7 584.0 377.4 C 599.3 378.1 614.7 378.8 630.0 379.5 C 645.3 380.2 660.7 380.9 676.0 381.6 C 691.3 382.4 706.7 383.1 722.0 383.8 C 737.3 384.5 752.7 385.2 768.0 385.9 C 783.3 386.6 798.7 387.3 814.0 388.0 C 829.3 388.7 844.7 389.4 860.0 390.0 C 875.3 390.7 890.7 391.4 906.0 392.1 C 921.3 392.7 936.7 393.4 952.0 394.1 C 967.3 394.8 982.7 395.4 998.0 396.1 C 1013.3 396.8 1028.7 397.5 1044.0 398.3 C 1059.3 399.0 1074.7 399.7 1090.0 400.5 C 1105.3 401.2 1120.7 402.0 1136.0 402.8 C 1151.3 403.6 1166.7 404.4 1182.0 405.2 C 1197.3 406.0 1212.7 406.9 1228.0 407.7 C 1243.3 408.6 1258.7 409.4 1274.0 410.3 C 1289.3 411.1 1304.7 412.0 1320.0 412.9 C 1335.3 413.7 1350.7 414.5 1366.0 415.4 C 1381.3 416.2 1396.7 417.0 1412.0 417.7 C 1427.3 418.5 1442.7 419.2 1458.0 419.9 C 1473.3 420.6 1488.7 421.2 1504.0 421.8 C 1519.3 422.3 1534.7 422.9 1550.0 423.3 C 1565.3 423.8 1580.7 424.2 1596.0 424.5 C 1611.3 424.8 1634.3 425.1 1642.0 425.3" stroke="#C9A96E" stroke-width="1.5" stroke-opacity="0.222" fill="none" stroke-linecap="round"/><path d="M -60.0 401.3 C -52.3 400.7 -29.3 398.9 -14.0 397.7 C 1.3 396.5 16.7 395.3 32.0 394.2 C 47.3 393.1 62.7 392.0 78.0 391.0 C 93.3 390.1 108.7 389.2 124.0 388.4 C 139.3 387.7 154.7 387.1 170.0 386.6 C 185.3 386.1 200.7 385.8 216.0 385.6 C 231.3 385.4 246.7 385.3 262.0 385.4 C 277.3 385.5 292.7 385.7 308.0 386.0 C 323.3 386.3 338.7 386.8 354.0 387.3 C 369.3 387.8 384.7 388.4 400.0 389.0 C 415.3 389.6 430.7 390.3 446.0 390.9 C 461.3 391.6 476.7 392.3 492.0 392.9 C 507.3 393.4 522.7 394.0 538.0 394.5 C 553.3 395.0 568.7 395.4 584.0 395.6 C 599.3 395.9 614.7 396.0 630.0 396.0 C 645.3 396.1 660.7 395.9 676.0 395.7 C 691.3 395.4 706.7 395.0 722.0 394.4 C 737.3 393.9 752.7 393.1 768.0 392.3 C 783.3 391.5 798.7 390.5 814.0 389.5 C 829.3 388.5 844.7 387.3 860.0 386.1 C 875.3 384.9 890.7 383.6 906.0 382.4 C 921.3 381.1 936.7 379.8 952.0 378.5 C 967.3 377.3 982.7 376.0 998.0 374.8 C 1013.3 373.7 1028.7 372.5 1044.0 371.5 C 1059.3 370.5 1074.7 369.6 1090.0 368.8 C 1105.3 368.0 1120.7 367.4 1136.0 366.8 C 1151.3 366.3 1166.7 365.9 1182.0 365.7 C 1197.3 365.4 1212.7 365.3 1228.0 365.3 C 1243.3 365.3 1258.7 365.5 1274.0 365.7 C 1289.3 366.0 1304.7 366.3 1320.0 366.7 C 1335.3 367.1 1350.7 367.6 1366.0 368.1 C 1381.3 368.5 1396.7 369.1 1412.0 369.6 C 1427.3 370.0 1442.7 370.5 1458.0 370.9 C 1473.3 371.4 1488.7 371.7 1504.0 372.0 C 1519.3 372.2 1534.7 372.4 1550.0 372.4 C 1565.3 372.4 1580.7 372.3 1596.0 372.1 C 1611.3 371.8 1634.3 371.1 1642.0 370.9" stroke="#F5F0E8" stroke-width="1" stroke-opacity="0.088" fill="none" stroke-linecap="round"/><path d="M -60.0 448.9 C -52.3 448.5 -29.3 447.2 -14.0 446.1 C 1.3 445.0 16.7 443.6 32.0 442.2 C 47.3 440.9 62.7 439.3 78.0 437.9 C 93.3 436.4 108.7 434.9 124.0 433.6 C 139.3 432.3 154.7 431.0 170.0 430.0 C 185.3 428.9 200.7 428.0 216.0 427.5 C 231.3 426.9 246.7 426.6 262.0 426.6 C 277.3 426.6 292.7 426.9 308.0 427.6 C 323.3 428.2 338.7 429.2 354.0 430.6 C 369.3 431.9 384.7 433.6 400.0 435.6 C 415.3 437.5 430.7 439.9 446.0 442.4 C 461.3 444.9 476.7 447.7 492.0 450.6 C 507.3 453.6 522.7 456.7 538.0 459.9 C 553.3 463.1 568.7 466.4 584.0 469.6 C 599.3 472.8 614.7 476.1 630.0 479.1 C 645.3 482.2 660.7 485.2 676.0 487.9 C 691.3 490.6 706.7 493.2 722.0 495.3 C 737.3 497.5 752.7 499.5 768.0 501.0 C 783.3 502.5 798.7 503.7 814.0 504.5 C 829.3 505.3 844.7 505.7 860.0 505.7 C 875.3 505.7 890.7 505.3 906.0 504.5 C 921.3 503.8 936.7 502.6 952.0 501.2 C 967.3 499.8 982.7 498.0 998.0 496.0 C 1013.3 494.0 1028.7 491.7 1044.0 489.3 C 1059.3 487.0 1074.7 484.3 1090.0 481.8 C 1105.3 479.2 1120.7 476.5 1136.0 473.9 C 1151.3 471.3 1166.7 468.7 1182.0 466.3 C 1197.3 463.9 1212.7 461.6 1228.0 459.6 C 1243.3 457.5 1258.7 455.7 1274.0 454.1 C 1289.3 452.6 1304.7 451.3 1320.0 450.4 C 1335.3 449.4 1350.7 448.8 1366.0 448.5 C 1381.3 448.2 1396.7 448.3 1412.0 448.6 C 1427.3 448.9 1442.7 449.6 1458.0 450.5 C 1473.3 451.4 1488.7 452.6 1504.0 453.9 C 1519.3 455.2 1534.7 456.9 1550.0 458.5 C 1565.3 460.1 1580.7 461.9 1596.0 463.7 C 1611.3 465.4 1634.3 468.1 1642.0 469.0" stroke="#F5F0E8" stroke-width="1" stroke-opacity="0.087" fill="none" stroke-linecap="round"/><path d="M -60.0 434.0 C -52.3 434.4 -29.3 435.4 -14.0 436.5 C 1.3 437.6 16.7 439.0 32.0 440.5 C 47.3 442.1 62.7 443.9 78.0 445.8 C 93.3 447.7 108.7 449.8 124.0 451.9 C 139.3 454.0 154.7 456.3 170.0 458.5 C 185.3 460.7 200.7 463.0 216.0 465.1 C 231.3 467.2 246.7 469.3 262.0 471.2 C 277.3 473.1 292.7 475.0 308.0 476.5 C 323.3 478.1 338.7 479.5 354.0 480.6 C 369.3 481.7 384.7 482.6 400.0 483.2 C 415.3 483.8 430.7 484.1 446.0 484.1 C 461.3 484.2 476.7 483.9 492.0 483.4 C 507.3 482.8 522.7 482.0 538.0 480.9 C 553.3 479.8 568.7 478.4 584.0 476.8 C 599.3 475.3 614.7 473.5 630.0 471.5 C 645.3 469.6 660.7 467.4 676.0 465.2 C 691.3 463.0 706.7 460.6 722.0 458.2 C 737.3 455.8 752.7 453.3 768.0 450.9 C 783.3 448.6 798.7 446.1 814.0 443.8 C 829.3 441.5 844.7 439.3 860.0 437.2 C 875.3 435.1 890.7 433.1 906.0 431.3 C 921.3 429.6 936.7 427.9 952.0 426.5 C 967.3 425.1 982.7 423.8 998.0 422.8 C 1013.3 421.8 1028.7 421.0 1044.0 420.4 C 1059.3 419.7 1074.7 419.3 1090.0 419.1 C 1105.3 418.8 1120.7 418.7 1136.0 418.8 C 1151.3 418.9 1166.7 419.1 1182.0 419.4 C 1197.3 419.7 1212.7 420.1 1228.0 420.6 C 1243.3 421.0 1258.7 421.5 1274.0 422.0 C 1289.3 422.5 1304.7 423.0 1320.0 423.5 C 1335.3 423.9 1350.7 424.3 1366.0 424.6 C 1381.3 424.9 1396.7 425.1 1412.0 425.2 C 1427.3 425.2 1442.7 425.2 1458.0 425.0 C 1473.3 424.8 1488.7 424.5 1504.0 424.0 C 1519.3 423.5 1534.7 422.8 1550.0 422.0 C 1565.3 421.2 1580.7 420.3 1596.0 419.2 C 1611.3 418.2 1634.3 416.3 1642.0 415.7" stroke="#F5F0E8" stroke-width="1" stroke-opacity="0.057" fill="none" stroke-linecap="round"/><path d="M -60.0 513.3 C -52.3 512.7 -29.3 510.8 -14.0 509.5 C 1.3 508.2 16.7 506.7 32.0 505.3 C 47.3 503.9 62.7 502.5 78.0 501.2 C 93.3 499.8 108.7 498.5 124.0 497.4 C 139.3 496.2 154.7 495.1 170.0 494.2 C 185.3 493.3 200.7 492.5 216.0 492.0 C 231.3 491.4 246.7 491.0 262.0 490.9 C 277.3 490.7 292.7 490.7 308.0 491.0 C 323.3 491.3 338.7 491.7 354.0 492.4 C 369.3 493.1 384.7 494.0 400.0 495.0 C 415.3 496.1 430.7 497.4 446.0 498.8 C 461.3 500.2 476.7 501.8 492.0 503.5 C 507.3 505.2 522.7 507.0 538.0 508.9 C 553.3 510.8 568.7 512.8 584.0 514.8 C 599.3 516.8 614.7 518.8 630.0 520.8 C 645.3 522.8 660.7 524.8 676.0 526.8 C 691.3 528.7 706.7 530.6 722.0 532.4 C 737.3 534.2 752.7 535.9 768.0 537.5 C 783.3 539.1 798.7 540.6 814.0 541.9 C 829.3 543.3 844.7 544.5 860.0 545.6 C 875.3 546.7 890.7 547.6 906.0 548.5 C 921.3 549.3 936.7 550.0 952.0 550.6 C 967.3 551.2 982.7 551.7 998.0 552.2 C 1013.3 552.6 1028.7 552.9 1044.0 553.2 C 1059.3 553.5 1074.7 553.7 1090.0 553.9 C 1105.3 554.1 1120.7 554.3 1136.0 554.5 C 1151.3 554.7 1166.7 554.9 1182.0 555.2 C 1197.3 555.4 1212.7 555.7 1228.0 556.1 C 1243.3 556.4 1258.7 556.8 1274.0 557.3 C 1289.3 557.8 1304.7 558.4 1320.0 559.1 C 1335.3 559.8 1350.7 560.5 1366.0 561.4 C 1381.3 562.2 1396.7 563.1 1412.0 564.1 C 1427.3 565.1 1442.7 566.2 1458.0 567.4 C 1473.3 568.5 1488.7 569.7 1504.0 570.9 C 1519.3 572.1 1534.7 573.4 1550.0 574.6 C 1565.3 575.8 1580.7 577.1 1596.0 578.3 C 1611.3 579.4 1634.3 581.1 1642.0 581.7" stroke="#C9A96E" stroke-width="1.5" stroke-opacity="0.216" fill="none" stroke-linecap="round"/><path d="M -60.0 516.0 C -52.3 516.0 -29.3 515.5 -14.0 515.8 C 1.3 516.2 16.7 516.9 32.0 517.9 C 47.3 518.9 62.7 520.3 78.0 521.8 C 93.3 523.3 108.7 525.2 124.0 526.9 C 139.3 528.7 154.7 530.7 170.0 532.5 C 185.3 534.3 200.7 536.2 216.0 537.7 C 231.3 539.3 246.7 540.8 262.0 541.9 C 277.3 543.0 292.7 543.8 308.0 544.3 C 323.3 544.7 338.7 544.9 354.0 544.6 C 369.3 544.3 384.7 543.5 400.0 542.4 C 415.3 541.3 430.7 539.8 446.0 537.9 C 461.3 536.0 476.7 533.7 492.0 531.2 C 507.3 528.7 522.7 525.9 538.0 522.9 C 553.3 520.0 568.7 516.8 584.0 513.7 C 599.3 510.6 614.7 507.3 630.0 504.3 C 645.3 501.3 660.7 498.2 676.0 495.6 C 691.3 493.0 706.7 490.4 722.0 488.4 C 737.3 486.4 752.7 484.6 768.0 483.5 C 783.3 482.3 798.7 481.5 814.0 481.2 C 829.3 481.0 844.7 481.3 860.0 482.1 C 875.3 482.9 890.7 484.2 906.0 486.0 C 921.3 487.8 936.7 490.2 952.0 492.8 C 967.3 495.5 982.7 498.7 998.0 502.0 C 1013.3 505.4 1028.7 509.2 1044.0 513.0 C 1059.3 516.7 1074.7 520.8 1090.0 524.8 C 1105.3 528.7 1120.7 532.8 1136.0 536.6 C 1151.3 540.4 1166.7 544.2 1182.0 547.6 C 1197.3 550.9 1212.7 554.1 1228.0 556.8 C 1243.3 559.5 1258.7 561.9 1274.0 563.7 C 1289.3 565.6 1304.7 567.0 1320.0 567.9 C 1335.3 568.8 1350.7 569.1 1366.0 569.0 C 1381.3 568.9 1396.7 568.3 1412.0 567.3 C 1427.3 566.2 1442.7 564.7 1458.0 562.9 C 1473.3 561.0 1488.7 558.8 1504.0 556.4 C 1519.3 553.9 1534.7 551.2 1550.0 548.4 C 1565.3 545.6 1580.7 542.6 1596.0 539.8 C 1611.3 536.9 1634.3 532.7 1642.0 531.3" stroke="#F5F0E8" stroke-width="1" stroke-opacity="0.091" fill="none" stroke-linecap="round"/><path d="M -60.0 576.5 C -52.3 575.7 -29.3 573.3 -14.0 571.7 C 1.3 570.1 16.7 568.5 32.0 567.0 C 47.3 565.5 62.7 564.0 78.0 562.6 C 93.3 561.2 108.7 559.9 124.0 558.6 C 139.3 557.4 154.7 556.3 170.0 555.3 C 185.3 554.3 200.7 553.4 216.0 552.6 C 231.3 551.8 246.7 551.1 262.0 550.5 C 277.3 549.9 292.7 549.4 308.0 549.0 C 323.3 548.6 338.7 548.3 354.0 548.0 C 369.3 547.7 384.7 547.5 400.0 547.3 C 415.3 547.1 430.7 546.9 446.0 546.8 C 461.3 546.6 476.7 546.4 492.0 546.2 C 507.3 545.9 522.7 545.7 538.0 545.3 C 553.3 545.0 568.7 544.6 584.0 544.1 C 599.3 543.6 614.7 543.0 630.0 542.4 C 645.3 541.7 660.7 540.9 676.0 540.1 C 691.3 539.2 706.7 538.2 722.0 537.2 C 737.3 536.2 752.7 535.0 768.0 533.8 C 783.3 532.6 798.7 531.4 814.0 530.1 C 829.3 528.8 844.7 527.5 860.0 526.1 C 875.3 524.8 890.7 523.5 906.0 522.2 C 921.3 521.0 936.7 519.7 952.0 518.5 C 967.3 517.4 982.7 516.3 998.0 515.4 C 1013.3 514.4 1028.7 513.6 1044.0 512.9 C 1059.3 512.2 1074.7 511.7 1090.0 511.4 C 1105.3 511.0 1120.7 510.8 1136.0 510.8 C 1151.3 510.8 1166.7 511.0 1182.0 511.4 C 1197.3 511.7 1212.7 512.3 1228.0 513.0 C 1243.3 513.7 1258.7 514.6 1274.0 515.6 C 1289.3 516.6 1304.7 517.7 1320.0 518.9 C 1335.3 520.2 1350.7 521.5 1366.0 522.9 C 1381.3 524.3 1396.7 525.7 1412.0 527.2 C 1427.3 528.6 1442.7 530.0 1458.0 531.4 C 1473.3 532.7 1488.7 534.1 1504.0 535.3 C 1519.3 536.5 1534.7 537.6 1550.0 538.6 C 1565.3 539.5 1580.7 540.4 1596.0 541.0 C 1611.3 541.6 1634.3 542.1 1642.0 542.4" stroke="#F5F0E8" stroke-width="1" stroke-opacity="0.081" fill="none" stroke-linecap="round"/><path d="M -60.0 607.5 C -52.3 607.1 -29.3 605.9 -14.0 605.0 C 1.3 604.1 16.7 603.1 32.0 602.0 C 47.3 601.0 62.7 599.8 78.0 598.7 C 93.3 597.6 108.7 596.4 124.0 595.2 C 139.3 594.1 154.7 593.0 170.0 591.9 C 185.3 590.8 200.7 589.8 216.0 588.8 C 231.3 587.9 246.7 587.0 262.0 586.3 C 277.3 585.5 292.7 584.8 308.0 584.3 C 323.3 583.7 338.7 583.3 354.0 583.0 C 369.3 582.7 384.7 582.5 400.0 582.5 C 415.3 582.4 430.7 582.5 446.0 582.6 C 461.3 582.8 476.7 583.0 492.0 583.4 C 507.3 583.7 522.7 584.1 538.0 584.6 C 553.3 585.0 568.7 585.6 584.0 586.1 C 599.3 586.6 614.7 587.2 630.0 587.7 C 645.3 588.3 660.7 588.8 676.0 589.3 C 691.3 589.8 706.7 590.3 722.0 590.7 C 737.3 591.1 752.7 591.5 768.0 591.7 C 783.3 592.0 798.7 592.2 814.0 592.3 C 829.3 592.5 844.7 592.5 860.0 592.5 C 875.3 592.4 890.7 592.3 906.0 592.2 C 921.3 592.0 936.7 591.7 952.0 591.4 C 967.3 591.2 982.7 590.8 998.0 590.5 C 1013.3 590.1 1028.7 589.7 1044.0 589.3 C 1059.3 588.9 1074.7 588.5 1090.0 588.2 C 1105.3 587.8 1120.7 587.4 1136.0 587.1 C 1151.3 586.8 1166.7 586.6 1182.0 586.4 C 1197.3 586.2 1212.7 586.0 1228.0 585.9 C 1243.3 585.9 1258.7 585.9 1274.0 585.9 C 1289.3 585.9 1304.7 586.1 1320.0 586.2 C 1335.3 586.4 1350.7 586.6 1366.0 586.9 C 1381.3 587.1 1396.7 587.4 1412.0 587.7 C 1427.3 588.0 1442.7 588.4 1458.0 588.7 C 1473.3 589.0 1488.7 589.3 1504.0 589.6 C 1519.3 589.8 1534.7 590.1 1550.0 590.2 C 1565.3 590.3 1580.7 590.4 1596.0 590.4 C 1611.3 590.4 1634.3 590.2 1642.0 590.1" stroke="#F5F0E8" stroke-width="1" stroke-opacity="0.065" fill="none" stroke-linecap="round"/><path d="M -60.0 634.6 C -52.3 634.5 -29.3 634.2 -14.0 633.8 C 1.3 633.5 16.7 633.0 32.0 632.5 C 47.3 632.0 62.7 631.3 78.0 630.6 C 93.3 630.0 108.7 629.2 124.0 628.4 C 139.3 627.6 154.7 626.7 170.0 625.9 C 185.3 625.0 200.7 624.1 216.0 623.2 C 231.3 622.2 246.7 621.3 262.0 620.4 C 277.3 619.5 292.7 618.6 308.0 617.8 C 323.3 617.0 338.7 616.2 354.0 615.5 C 369.3 614.7 384.7 614.1 400.0 613.5 C 415.3 612.9 430.7 612.4 446.0 612.1 C 461.3 611.7 476.7 611.4 492.0 611.3 C 507.3 611.1 522.7 611.1 538.0 611.2 C 553.3 611.3 568.7 611.5 584.0 611.9 C 599.3 612.2 614.7 612.7 630.0 613.3 C 645.3 613.9 660.7 614.6 676.0 615.5 C 691.3 616.3 706.7 617.3 722.0 618.4 C 737.3 619.5 752.7 620.7 768.0 621.9 C 783.3 623.2 798.7 624.6 814.0 626.0 C 829.3 627.4 844.7 629.0 860.0 630.5 C 875.3 632.0 890.7 633.6 906.0 635.2 C 921.3 636.8 936.7 638.4 952.0 640.0 C 967.3 641.5 982.7 643.1 998.0 644.6 C 1013.3 646.2 1028.7 647.6 1044.0 649.0 C 1059.3 650.4 1074.7 651.8 1090.0 653.0 C 1105.3 654.2 1120.7 655.3 1136.0 656.3 C 1151.3 657.3 1166.7 658.2 1182.0 658.9 C 1197.3 659.6 1212.7 660.2 1228.0 660.6 C 1243.3 661.0 1258.7 661.3 1274.0 661.3 C 1289.3 661.4 1304.7 661.4 1320.0 661.1 C 1335.3 660.9 1350.7 660.4 1366.0 659.8 C 1381.3 659.3 1396.7 658.5 1412.0 657.6 C 1427.3 656.7 1442.7 655.6 1458.0 654.4 C 1473.3 653.2 1488.7 651.8 1504.0 650.3 C 1519.3 648.8 1534.7 647.2 1550.0 645.5 C 1565.3 643.8 1580.7 642.0 1596.0 640.1 C 1611.3 638.2 1634.3 635.2 1642.0 634.3" stroke="#C9A96E" stroke-width="1.5" stroke-opacity="0.180" fill="none" stroke-linecap="round"/><path d="M -60.0 668.0 C -52.3 667.6 -29.3 666.8 -14.0 665.9 C 1.3 665.1 16.7 664.0 32.0 662.7 C 47.3 661.5 62.7 660.1 78.0 658.6 C 93.3 657.2 108.7 655.6 124.0 654.0 C 139.3 652.4 154.7 650.7 170.0 649.1 C 185.3 647.5 200.7 645.9 216.0 644.4 C 231.3 642.9 246.7 641.5 262.0 640.3 C 277.3 639.1 292.7 638.0 308.0 637.2 C 323.3 636.3 338.7 635.7 354.0 635.3 C 369.3 634.9 384.7 634.7 400.0 634.7 C 415.3 634.8 430.7 635.1 446.0 635.7 C 461.3 636.2 476.7 637.0 492.0 638.0 C 507.3 639.0 522.7 640.3 538.0 641.6 C 553.3 643.0 568.7 644.5 584.0 646.2 C 599.3 647.8 614.7 649.6 630.0 651.3 C 645.3 653.0 660.7 654.9 676.0 656.6 C 691.3 658.3 706.7 660.1 722.0 661.6 C 737.3 663.2 752.7 664.7 768.0 665.9 C 783.3 667.1 798.7 668.2 814.0 669.0 C 829.3 669.8 844.7 670.3 860.0 670.6 C 875.3 670.8 890.7 670.8 906.0 670.4 C 921.3 670.0 936.7 669.3 952.0 668.3 C 967.3 667.3 982.7 666.0 998.0 664.3 C 1013.3 662.7 1028.7 660.7 1044.0 658.5 C 1059.3 656.3 1074.7 653.7 1090.0 651.1 C 1105.3 648.4 1120.7 645.4 1136.0 642.4 C 1151.3 639.3 1166.7 636.1 1182.0 632.8 C 1197.3 629.6 1212.7 626.2 1228.0 622.9 C 1243.3 619.6 1258.7 616.2 1274.0 613.0 C 1289.3 609.8 1304.7 606.6 1320.0 603.6 C 1335.3 600.6 1350.7 597.7 1366.0 595.1 C 1381.3 592.5 1396.7 590.1 1412.0 587.9 C 1427.3 585.7 1442.7 583.8 1458.0 582.1 C 1473.3 580.4 1488.7 579.0 1504.0 577.9 C 1519.3 576.7 1534.7 575.8 1550.0 575.2 C 1565.3 574.5 1580.7 574.1 1596.0 573.9 C 1611.3 573.6 1634.3 573.7 1642.0 573.7" stroke="#F5F0E8" stroke-width="1" stroke-opacity="0.045" fill="none" stroke-linecap="round"/><path d="M -60.0 707.4 C -52.3 707.9 -29.3 709.7 -14.0 710.5 C 1.3 711.3 16.7 711.9 32.0 712.4 C 47.3 712.8 62.7 713.0 78.0 713.0 C 93.3 713.1 108.7 712.9 124.0 712.6 C 139.3 712.3 154.7 711.9 170.0 711.4 C 185.3 710.9 200.7 710.3 216.0 709.7 C 231.3 709.2 246.7 708.5 262.0 708.0 C 277.3 707.5 292.7 707.0 308.0 706.6 C 323.3 706.2 338.7 706.0 354.0 705.8 C 369.3 705.7 384.7 705.8 400.0 705.9 C 415.3 706.1 430.7 706.5 446.0 707.0 C 461.3 707.5 476.7 708.1 492.0 708.9 C 507.3 709.6 522.7 710.5 538.0 711.4 C 553.3 712.3 568.7 713.3 584.0 714.2 C 599.3 715.1 614.7 716.1 630.0 716.9 C 645.3 717.7 660.7 718.5 676.0 719.1 C 691.3 719.6 706.7 720.0 722.0 720.2 C 737.3 720.3 752.7 720.2 768.0 719.8 C 783.3 719.5 798.7 718.8 814.0 717.9 C 829.3 716.9 844.7 715.6 860.0 714.1 C 875.3 712.6 890.7 710.7 906.0 708.6 C 921.3 706.6 936.7 704.2 952.0 701.7 C 967.3 699.2 982.7 696.5 998.0 693.8 C 1013.3 691.0 1028.7 688.1 1044.0 685.3 C 1059.3 682.5 1074.7 679.6 1090.0 677.0 C 1105.3 674.3 1120.7 671.7 1136.0 669.4 C 1151.3 667.1 1166.7 665.0 1182.0 663.2 C 1197.3 661.4 1212.7 659.9 1228.0 658.9 C 1243.3 657.8 1258.7 657.1 1274.0 656.8 C 1289.3 656.5 1304.7 656.6 1320.0 657.1 C 1335.3 657.6 1350.7 658.5 1366.0 659.8 C 1381.3 661.1 1396.7 662.8 1412.0 664.7 C 1427.3 666.6 1442.7 668.9 1458.0 671.3 C 1473.3 673.7 1488.7 676.5 1504.0 679.2 C 1519.3 681.9 1534.7 684.9 1550.0 687.7 C 1565.3 690.5 1580.7 693.4 1596.0 696.1 C 1611.3 698.8 1634.3 702.6 1642.0 703.8" stroke="#F5F0E8" stroke-width="1" stroke-opacity="0.053" fill="none" stroke-linecap="round"/><path d="M -60.0 728.7 C -52.3 727.7 -29.3 724.4 -14.0 722.6 C 1.3 720.7 16.7 719.0 32.0 717.4 C 47.3 715.9 62.7 714.6 78.0 713.4 C 93.3 712.3 108.7 711.3 124.0 710.6 C 139.3 709.8 154.7 709.3 170.0 708.9 C 185.3 708.5 200.7 708.3 216.0 708.3 C 231.3 708.3 246.7 708.5 262.0 708.7 C 277.3 709.0 292.7 709.5 308.0 710.0 C 323.3 710.6 338.7 711.3 354.0 712.0 C 369.3 712.8 384.7 713.6 400.0 714.5 C 415.3 715.3 430.7 716.3 446.0 717.1 C 461.3 718.0 476.7 719.0 492.0 719.8 C 507.3 720.7 522.7 721.5 538.0 722.2 C 553.3 723.0 568.7 723.6 584.0 724.2 C 599.3 724.7 614.7 725.2 630.0 725.5 C 645.3 725.8 660.7 726.0 676.0 726.0 C 691.3 726.0 706.7 725.8 722.0 725.5 C 737.3 725.2 752.7 724.7 768.0 724.1 C 783.3 723.5 798.7 722.6 814.0 721.7 C 829.3 720.7 844.7 719.5 860.0 718.2 C 875.3 716.9 890.7 715.5 906.0 713.9 C 921.3 712.3 936.7 710.6 952.0 708.8 C 967.3 707.0 982.7 705.1 998.0 703.1 C 1013.3 701.1 1028.7 699.0 1044.0 696.9 C 1059.3 694.9 1074.7 692.7 1090.0 690.6 C 1105.3 688.5 1120.7 686.3 1136.0 684.2 C 1151.3 682.1 1166.7 680.0 1182.0 678.0 C 1197.3 676.1 1212.7 674.1 1228.0 672.3 C 1243.3 670.5 1258.7 668.7 1274.0 667.1 C 1289.3 665.5 1304.7 664.0 1320.0 662.7 C 1335.3 661.4 1350.7 660.2 1366.0 659.2 C 1381.3 658.1 1396.7 657.2 1412.0 656.5 C 1427.3 655.8 1442.7 655.3 1458.0 654.9 C 1473.3 654.5 1488.7 654.2 1504.0 654.1 C 1519.3 654.0 1534.7 654.1 1550.0 654.3 C 1565.3 654.5 1580.7 654.8 1596.0 655.2 C 1611.3 655.6 1634.3 656.5 1642.0 656.8" stroke="#F5F0E8" stroke-width="1" stroke-opacity="0.056" fill="none" stroke-linecap="round"/><path d="M -60.0 755.6 C -52.3 755.6 -29.3 755.4 -14.0 755.4 C 1.3 755.5 16.7 755.7 32.0 756.0 C 47.3 756.4 62.7 756.9 78.0 757.6 C 93.3 758.3 108.7 759.1 124.0 760.2 C 139.3 761.2 154.7 762.4 170.0 763.7 C 185.3 765.0 200.7 766.6 216.0 768.1 C 231.3 769.7 246.7 771.5 262.0 773.2 C 277.3 775.0 292.7 776.8 308.0 778.7 C 323.3 780.5 338.7 782.4 354.0 784.2 C 369.3 785.9 384.7 787.7 400.0 789.4 C 415.3 791.0 430.7 792.6 446.0 794.0 C 461.3 795.4 476.7 796.7 492.0 797.8 C 507.3 798.9 522.7 799.8 538.0 800.5 C 553.3 801.2 568.7 801.8 584.0 802.1 C 599.3 802.4 614.7 802.6 630.0 802.5 C 645.3 802.5 660.7 802.2 676.0 801.9 C 691.3 801.5 706.7 801.0 722.0 800.3 C 737.3 799.7 752.7 799.0 768.0 798.2 C 783.3 797.4 798.7 796.6 814.0 795.8 C 829.3 794.9 844.7 794.1 860.0 793.3 C 875.3 792.6 890.7 791.8 906.0 791.2 C 921.3 790.7 936.7 790.1 952.0 789.8 C 967.3 789.5 982.7 789.2 998.0 789.2 C 1013.3 789.2 1028.7 789.3 1044.0 789.6 C 1059.3 789.9 1074.7 790.4 1090.0 791.1 C 1105.3 791.7 1120.7 792.6 1136.0 793.5 C 1151.3 794.5 1166.7 795.6 1182.0 796.8 C 1197.3 798.0 1212.7 799.4 1228.0 800.7 C 1243.3 802.1 1258.7 803.5 1274.0 805.0 C 1289.3 806.4 1304.7 807.9 1320.0 809.3 C 1335.3 810.6 1350.7 812.0 1366.0 813.2 C 1381.3 814.5 1396.7 815.7 1412.0 816.7 C 1427.3 817.7 1442.7 818.6 1458.0 819.3 C 1473.3 820.0 1488.7 820.6 1504.0 821.0 C 1519.3 821.4 1534.7 821.6 1550.0 821.7 C 1565.3 821.8 1580.7 821.7 1596.0 821.5 C 1611.3 821.3 1634.3 820.6 1642.0 820.4" stroke="#C9A96E" stroke-width="1.5" stroke-opacity="0.201" fill="none" stroke-linecap="round"/><path d="M -60.0 816.3 C -52.3 816.4 -29.3 816.8 -14.0 816.7 C 1.3 816.6 16.7 816.3 32.0 815.8 C 47.3 815.3 62.7 814.6 78.0 813.8 C 93.3 812.9 108.7 811.8 124.0 810.5 C 139.3 809.3 154.7 807.8 170.0 806.3 C 185.3 804.7 200.7 803.0 216.0 801.2 C 231.3 799.5 246.7 797.6 262.0 795.7 C 277.3 793.9 292.7 791.9 308.0 790.1 C 323.3 788.2 338.7 786.3 354.0 784.6 C 369.3 782.8 384.7 781.1 400.0 779.6 C 415.3 778.1 430.7 776.7 446.0 775.5 C 461.3 774.3 476.7 773.3 492.0 772.5 C 507.3 771.8 522.7 771.2 538.0 770.9 C 553.3 770.5 568.7 770.4 584.0 770.6 C 599.3 770.7 614.7 771.2 630.0 771.8 C 645.3 772.4 660.7 773.3 676.0 774.3 C 691.3 775.3 706.7 776.6 722.0 778.0 C 737.3 779.4 752.7 781.0 768.0 782.7 C 783.3 784.3 798.7 786.1 814.0 787.9 C 829.3 789.7 844.7 791.6 860.0 793.4 C 875.3 795.2 890.7 797.1 906.0 798.8 C 921.3 800.5 936.7 802.2 952.0 803.7 C 967.3 805.2 982.7 806.6 998.0 807.8 C 1013.3 809.0 1028.7 810.0 1044.0 810.8 C 1059.3 811.6 1074.7 812.2 1090.0 812.6 C 1105.3 812.9 1120.7 813.0 1136.0 812.9 C 1151.3 812.8 1166.7 812.5 1182.0 811.9 C 1197.3 811.4 1212.7 810.6 1228.0 809.7 C 1243.3 808.8 1258.7 807.6 1274.0 806.4 C 1289.3 805.1 1304.7 803.7 1320.0 802.3 C 1335.3 800.8 1350.7 799.2 1366.0 797.7 C 1381.3 796.2 1396.7 794.5 1412.0 793.0 C 1427.3 791.5 1442.7 790.0 1458.0 788.6 C 1473.3 787.2 1488.7 785.9 1504.0 784.8 C 1519.3 783.6 1534.7 782.6 1550.0 781.8 C 1565.3 781.0 1580.7 780.4 1596.0 780.0 C 1611.3 779.6 1634.3 779.5 1642.0 779.4" stroke="#F5F0E8" stroke-width="1" stroke-opacity="0.083" fill="none" stroke-linecap="round"/><path d="M -60.0 826.3 C -52.3 826.6 -29.3 827.3 -14.0 827.9 C 1.3 828.4 16.7 829.1 32.0 829.7 C 47.3 830.4 62.7 831.1 78.0 831.8 C 93.3 832.6 108.7 833.3 124.0 834.1 C 139.3 834.9 154.7 835.8 170.0 836.6 C 185.3 837.5 200.7 838.4 216.0 839.2 C 231.3 840.1 246.7 840.9 262.0 841.8 C 277.3 842.6 292.7 843.5 308.0 844.3 C 323.3 845.0 338.7 845.8 354.0 846.5 C 369.3 847.2 384.7 847.9 400.0 848.4 C 415.3 849.0 430.7 849.5 446.0 849.9 C 461.3 850.3 476.7 850.6 492.0 850.8 C 507.3 851.0 522.7 851.1 538.0 851.1 C 553.3 851.1 568.7 851.0 584.0 850.7 C 599.3 850.5 614.7 850.1 630.0 849.6 C 645.3 849.2 660.7 848.5 676.0 847.8 C 691.3 847.1 706.7 846.3 722.0 845.4 C 737.3 844.4 752.7 843.4 768.0 842.2 C 783.3 841.1 798.7 839.9 814.0 838.6 C 829.3 837.3 844.7 836.0 860.0 834.6 C 875.3 833.2 890.7 831.7 906.0 830.2 C 921.3 828.8 936.7 827.3 952.0 825.8 C 967.3 824.3 982.7 822.8 998.0 821.4 C 1013.3 819.9 1028.7 818.5 1044.0 817.1 C 1059.3 815.8 1074.7 814.4 1090.0 813.2 C 1105.3 812.0 1120.7 810.8 1136.0 809.8 C 1151.3 808.8 1166.7 807.8 1182.0 807.0 C 1197.3 806.2 1212.7 805.4 1228.0 804.9 C 1243.3 804.3 1258.7 803.8 1274.0 803.5 C 1289.3 803.1 1304.7 802.9 1320.0 802.9 C 1335.3 802.8 1350.7 802.9 1366.0 803.1 C 1381.3 803.2 1396.7 803.5 1412.0 804.0 C 1427.3 804.4 1442.7 804.9 1458.0 805.5 C 1473.3 806.2 1488.7 806.9 1504.0 807.7 C 1519.3 808.5 1534.7 809.4 1550.0 810.3 C 1565.3 811.2 1580.7 812.2 1596.0 813.2 C 1611.3 814.2 1634.3 815.7 1642.0 816.3" stroke="#F5F0E8" stroke-width="1" stroke-opacity="0.052" fill="none" stroke-linecap="round"/><path d="M -60.0 854.4 C -52.3 854.9 -29.3 856.6 -14.0 857.9 C 1.3 859.2 16.7 860.6 32.0 862.0 C 47.3 863.5 62.7 865.1 78.0 866.7 C 93.3 868.3 108.7 869.9 124.0 871.6 C 139.3 873.2 154.7 874.9 170.0 876.5 C 185.3 878.1 200.7 879.7 216.0 881.3 C 231.3 882.8 246.7 884.2 262.0 885.5 C 277.3 886.9 292.7 888.1 308.0 889.2 C 323.3 890.2 338.7 891.2 354.0 892.0 C 369.3 892.7 384.7 893.4 400.0 893.8 C 415.3 894.3 430.7 894.5 446.0 894.6 C 461.3 894.8 476.7 894.7 492.0 894.5 C 507.3 894.3 522.7 894.0 538.0 893.5 C 553.3 893.0 568.7 892.4 584.0 891.8 C 599.3 891.1 614.7 890.3 630.0 889.5 C 645.3 888.7 660.7 887.8 676.0 887.0 C 691.3 886.2 706.7 885.3 722.0 884.5 C 737.3 883.8 752.7 883.0 768.0 882.3 C 783.3 881.7 798.7 881.1 814.0 880.7 C 829.3 880.3 844.7 879.9 860.0 879.8 C 875.3 879.6 890.7 879.6 906.0 879.8 C 921.3 880.0 936.7 880.3 952.0 880.8 C 967.3 881.3 982.7 882.0 998.0 882.9 C 1013.3 883.7 1028.7 884.8 1044.0 885.9 C 1059.3 887.1 1074.7 888.4 1090.0 889.9 C 1105.3 891.3 1120.7 892.9 1136.0 894.5 C 1151.3 896.1 1166.7 897.8 1182.0 899.6 C 1197.3 901.3 1212.7 903.1 1228.0 904.9 C 1243.3 906.7 1258.7 908.5 1274.0 910.2 C 1289.3 911.9 1304.7 913.7 1320.0 915.3 C 1335.3 916.9 1350.7 918.4 1366.0 919.9 C 1381.3 921.3 1396.7 922.6 1412.0 923.8 C 1427.3 925.0 1442.7 926.1 1458.0 927.1 C 1473.3 928.0 1488.7 928.9 1504.0 929.5 C 1519.3 930.2 1534.7 930.8 1550.0 931.3 C 1565.3 931.7 1580.7 932.0 1596.0 932.3 C 1611.3 932.5 1634.3 932.7 1642.0 932.8" stroke="#F5F0E8" stroke-width="1" stroke-opacity="0.077" fill="none" stroke-linecap="round"/><path d="M -60.0 868.7 C -52.3 868.2 -29.3 866.5 -14.0 865.7 C 1.3 864.9 16.7 864.3 32.0 863.9 C 47.3 863.5 62.7 863.3 78.0 863.3 C 93.3 863.2 108.7 863.4 124.0 863.8 C 139.3 864.2 154.7 864.8 170.0 865.6 C 185.3 866.4 200.7 867.4 216.0 868.5 C 231.3 869.7 246.7 871.0 262.0 872.5 C 277.3 873.9 292.7 875.5 308.0 877.2 C 323.3 878.9 338.7 880.7 354.0 882.5 C 369.3 884.4 384.7 886.3 400.0 888.2 C 415.3 890.2 430.7 892.1 446.0 894.0 C 461.3 896.0 476.7 897.9 492.0 899.7 C 507.3 901.5 522.7 903.3 538.0 905.0 C 553.3 906.6 568.7 908.2 584.0 909.6 C 599.3 911.0 614.7 912.3 630.0 913.4 C 645.3 914.5 660.7 915.5 676.0 916.3 C 691.3 917.1 706.7 917.7 722.0 918.0 C 737.3 918.4 752.7 918.7 768.0 918.7 C 783.3 918.7 798.7 918.5 814.0 918.2 C 829.3 917.8 844.7 917.2 860.0 916.5 C 875.3 915.8 890.7 914.9 906.0 913.9 C 921.3 912.9 936.7 911.7 952.0 910.4 C 967.3 909.2 982.7 907.7 998.0 906.2 C 1013.3 904.8 1028.7 903.2 1044.0 901.6 C 1059.3 900.0 1074.7 898.3 1090.0 896.6 C 1105.3 894.9 1120.7 893.2 1136.0 891.5 C 1151.3 889.9 1166.7 888.2 1182.0 886.6 C 1197.3 885.0 1212.7 883.4 1228.0 882.0 C 1243.3 880.5 1258.7 879.1 1274.0 877.8 C 1289.3 876.5 1304.7 875.3 1320.0 874.3 C 1335.3 873.2 1350.7 872.3 1366.0 871.5 C 1381.3 870.6 1396.7 870.0 1412.0 869.4 C 1427.3 868.8 1442.7 868.4 1458.0 868.1 C 1473.3 867.8 1488.7 867.7 1504.0 867.6 C 1519.3 867.6 1534.7 867.7 1550.0 867.8 C 1565.3 868.0 1580.7 868.3 1596.0 868.7 C 1611.3 869.1 1634.3 869.8 1642.0 870.1" stroke="#C9A96E" stroke-width="1.5" stroke-opacity="0.230" fill="none" stroke-linecap="round"/><path d="M -60.0 931.2 C -52.3 931.6 -29.3 932.8 -14.0 933.5 C 1.3 934.3 16.7 935.0 32.0 935.7 C 47.3 936.4 62.7 937.0 78.0 937.6 C 93.3 938.1 108.7 938.7 124.0 939.2 C 139.3 939.6 154.7 940.1 170.0 940.5 C 185.3 940.9 200.7 941.2 216.0 941.5 C 231.3 941.9 246.7 942.1 262.0 942.4 C 277.3 942.6 292.7 942.8 308.0 943.0 C 323.3 943.2 338.7 943.4 354.0 943.6 C 369.3 943.7 384.7 943.9 400.0 944.0 C 415.3 944.2 430.7 944.3 446.0 944.4 C 461.3 944.5 476.7 944.6 492.0 944.8 C 507.3 944.9 522.7 945.0 538.0 945.2 C 553.3 945.3 568.7 945.4 584.0 945.6 C 599.3 945.7 614.7 945.9 630.0 946.0 C 645.3 946.2 660.7 946.3 676.0 946.5 C 691.3 946.7 706.7 946.8 722.0 947.0 C 737.3 947.2 752.7 947.4 768.0 947.5 C 783.3 947.7 798.7 947.9 814.0 948.0 C 829.3 948.2 844.7 948.3 860.0 948.5 C 875.3 948.6 890.7 948.7 906.0 948.8 C 921.3 948.9 936.7 949.0 952.0 949.1 C 967.3 949.2 982.7 949.2 998.0 949.2 C 1013.3 949.3 1028.7 949.3 1044.0 949.2 C 1059.3 949.2 1074.7 949.2 1090.0 949.1 C 1105.3 949.1 1120.7 949.0 1136.0 948.9 C 1151.3 948.8 1166.7 948.7 1182.0 948.6 C 1197.3 948.5 1212.7 948.4 1228.0 948.3 C 1243.3 948.2 1258.7 948.0 1274.0 947.9 C 1289.3 947.8 1304.7 947.7 1320.0 947.7 C 1335.3 947.6 1350.7 947.6 1366.0 947.6 C 1381.3 947.6 1396.7 947.6 1412.0 947.7 C 1427.3 947.8 1442.7 947.9 1458.0 948.1 C 1473.3 948.2 1488.7 948.5 1504.0 948.8 C 1519.3 949.1 1534.7 949.5 1550.0 949.9 C 1565.3 950.4 1580.7 950.9 1596.0 951.5 C 1611.3 952.1 1634.3 953.2 1642.0 953.5" stroke="#F5F0E8" stroke-width="1" stroke-opacity="0.067" fill="none" stroke-linecap="round"/><path d="M -60.0 982.3 C -52.3 982.2 -29.3 982.2 -14.0 981.8 C 1.3 981.3 16.7 980.5 32.0 979.5 C 47.3 978.5 62.7 977.2 78.0 975.6 C 93.3 974.1 108.7 972.3 124.0 970.3 C 139.3 968.4 154.7 966.2 170.0 964.0 C 185.3 961.7 200.7 959.3 216.0 956.9 C 231.3 954.5 246.7 952.0 262.0 949.7 C 277.3 947.3 292.7 944.9 308.0 942.7 C 323.3 940.5 338.7 938.4 354.0 936.5 C 369.3 934.6 384.7 932.9 400.0 931.4 C 415.3 930.0 430.7 928.7 446.0 927.8 C 461.3 926.8 476.7 926.2 492.0 925.8 C 507.3 925.4 522.7 925.3 538.0 925.4 C 553.3 925.6 568.7 926.0 584.0 926.7 C 599.3 927.4 614.7 928.3 630.0 929.4 C 645.3 930.4 660.7 931.7 676.0 933.1 C 691.3 934.5 706.7 936.0 722.0 937.5 C 737.3 939.0 752.7 940.6 768.0 942.2 C 783.3 943.7 798.7 945.2 814.0 946.5 C 829.3 947.9 844.7 949.2 860.0 950.2 C 875.3 951.3 890.7 952.2 906.0 952.8 C 921.3 953.5 936.7 953.9 952.0 954.0 C 967.3 954.2 982.7 954.1 998.0 953.7 C 1013.3 953.3 1028.7 952.6 1044.0 951.7 C 1059.3 950.7 1074.7 949.5 1090.0 948.1 C 1105.3 946.7 1120.7 945.0 1136.0 943.1 C 1151.3 941.3 1166.7 939.2 1182.0 937.1 C 1197.3 935.0 1212.7 932.7 1228.0 930.4 C 1243.3 928.1 1258.7 925.7 1274.0 923.4 C 1289.3 921.1 1304.7 918.8 1320.0 916.7 C 1335.3 914.5 1350.7 912.4 1366.0 910.6 C 1381.3 908.7 1396.7 907.0 1412.0 905.5 C 1427.3 904.1 1442.7 902.8 1458.0 901.8 C 1473.3 900.8 1488.7 900.1 1504.0 899.6 C 1519.3 899.2 1534.7 899.0 1550.0 899.0 C 1565.3 899.1 1580.7 899.4 1596.0 900.0 C 1611.3 900.5 1634.3 901.9 1642.0 902.3" stroke="#F5F0E8" stroke-width="1" stroke-opacity="0.078" fill="none" stroke-linecap="round"/></g>
<path d="M -60.0 482.4 C -52.3 482.6 -29.3 483.5 -14.0 483.9 C 1.3 484.4 16.7 484.8 32.0 485.1 C 47.3 485.4 62.7 485.7 78.0 485.8 C 93.3 485.9 108.7 485.9 124.0 485.9 C 139.3 485.8 154.7 485.6 170.0 485.4 C 185.3 485.1 200.7 484.7 216.0 484.4 C 231.3 484.0 246.7 483.5 262.0 483.0 C 277.3 482.5 292.7 482.0 308.0 481.5 C 323.3 481.1 338.7 480.6 354.0 480.1 C 369.3 479.7 384.7 479.3 400.0 479.1 C 415.3 478.8 430.7 478.6 446.0 478.5 C 461.3 478.4 476.7 478.4 492.0 478.5 C 507.3 478.7 522.7 478.9 538.0 479.3 C 553.3 479.6 568.7 480.1 584.0 480.6 C 599.3 481.2 614.7 481.8 630.0 482.5 C 645.3 483.2 660.7 484.0 676.0 484.8 C 691.3 485.5 706.7 486.4 722.0 487.2 C 737.3 487.9 752.7 488.7 768.0 489.5 C 783.3 490.2 798.7 490.9 814.0 491.5 C 829.3 492.0 844.7 492.6 860.0 493.0 C 875.3 493.4 890.7 493.7 906.0 493.9 C 921.3 494.2 936.7 494.3 952.0 494.3 C 967.3 494.4 982.7 494.3 998.0 494.2 C 1013.3 494.0 1028.7 493.8 1044.0 493.6 C 1059.3 493.4 1074.7 493.1 1090.0 492.9 C 1105.3 492.6 1120.7 492.3 1136.0 492.1 C 1151.3 491.9 1166.7 491.7 1182.0 491.6 C 1197.3 491.5 1212.7 491.5 1228.0 491.5 C 1243.3 491.6 1258.7 491.8 1274.0 492.1 C 1289.3 492.3 1304.7 492.7 1320.0 493.2 C 1335.3 493.7 1350.7 494.3 1366.0 495.0 C 1381.3 495.6 1396.7 496.4 1412.0 497.3 C 1427.3 498.1 1442.7 499.0 1458.0 500.0 C 1473.3 500.9 1488.7 501.9 1504.0 502.8 C 1519.3 503.7 1534.7 504.7 1550.0 505.6 C 1565.3 506.4 1580.7 507.3 1596.0 508.1 C 1611.3 508.8 1634.3 509.7 1642.0 510.1" stroke="#C9A96E" stroke-width="2" stroke-opacity="0.5" fill="none" stroke-linecap="round"/>
<rect width="1600" height="900" fill="url(#vig)"/>
<rect width="1600" height="900" filter="url(#grain)" opacity="0.05"/>
</svg>