<svg xmlns="http://www.w3.org/2000/svg" viewBox="0 0 1600 900" preserveAspectRatio="xMidYMid slice">
<defs>
<linearGradient id="bg" x1="0" y1="0" x2="0" y2="1"><stop offset="0" stop-color="#0b160f"/><stop offset="1" stop-color="#15271b"/></linearGradient>
<radialGradient id="glow" cx="0.769" cy="0.147" r="0.75"><stop offset="0" stop-color="#C9A96E" stop-opacity="0.15"/><stop offset="1" stop-color="#C9A96E" stop-opacity="0"/></radialGradient>
<radialGradient id="vig" cx="0.5" cy="0.5" r="0.75"><stop offset="0.5" stop-color="#000" stop-opacity="0"/><stop offset="1" stop-color="#000" stop-opacity="0.5"/></radialGradient>
<filter id="grain"><feTurbulence type="fractalNoise" baseFrequency="0.9" numOctaves="2" stitchTiles="stitch"/><feColorMatrix type="matrix" values="0 0 0 0 0 0 0 0 0 0 0 0 0 0 0 0 0 0 0.55 0"/></filter>
</defs>
<rect width="1600" height="900" fill="url(#bg)"/>
<rect width="1600" height="900" fill="url(#glow)"/>
<path d="M -60.0 532.1 C -52.3 533.1 -29.3 536.5 -14.0 538.4 C 1.3 540.2 16.7 541.9 32.0 543.2 C 47.3 544.4 62.7 545.4 78.0 546.0 C 93.3 546.5 108.7 546.7 124.0 546.4 C 139.3 546.2 154.7 545.6 170.0 544.5 C 185.3 543.5 200.7 542.0 216.0 540.3 C 231.3 538.5 246.7 536.4 262.0 534.0 C 277.3 531.6 292.7 528.9 308.0 526.1 C 323.3 523.3 338.7 520.2 354.0 517.2 C 369.3 514.2 384.7 511.0 400.0 508.0 C 415.3 505.0 430.7 501.9 446.0 499.1 C 461.3 496.3 476.7 493.6 492.0 491.3 C 507.3 489.0 522.7 486.8 538.0 485.1 C 553.3 483.4 568.7 482.0 584.0 481.0 C 599.3 480.1 614.7 479.5 630.0 479.3 C 645.3 479.2 660.7 479.5 676.0 480.1 C 691.3 480.8 706.7 481.9 722.0 483.3 C 737.3 484.7 752.7 486.6 768.0 488.6 C 783.3 490.6 798.7 493.0 814.0 495.5 C 829.3 498.0 844.7 500.7 860.0 503.4 C 875.3 506.1 890.7 509.0 906.0 511.7 C 921.3 514.5 936.7 517.2 952.0 519.7 C 967.3 522.2 982.7 524.7 998.0 526.7 C 1013.3 528.8 1028.7 530.7 1044.0 532.2 C 1059.3 533.7 1074.7 534.9 1090.0 535.6 C 1105.3 536.4 1120.7 536.8 1136.0 536.8 C 1151.3 536.8 1166.7 536.4 1182.0 535.6 C 1197.3 534.9 1212.7 533.7 1228.0 532.2 C 1243.3 530.7 1258.7 528.8 1274.0 526.7 C 1289.3 524.7 1304.7 522.2 1320.0 519.7 C 1335.3 517.2 1350.7 514.5 1366.0 511.7 C 1381.3 509.0 1396.7 506.1 1412.0 503.3 C 1427.3 500.5 1442.7 497.7 1458.0 495.0 C 1473.3 492.4 1488.7 489.9 1504.0 487.6 C 1519.3 485.3 1534.7 483.2 1550.0 481.4 C 1565.3 479.7 1580.7 478.1 1596.0 477.0 C 1611.3 475.8 1631.3 393.9 1642.0 474.4 C 1652.7 554.9 1943.7 879.1 1660.0 960.0 C 1376.3 1040.9 226.7 960.0 -60.0 960.0 Z" fill="#C9A96E" fill-opacity="0.028"/>
<g><path d="M -60.0 -58.2 C -52.3 -57.6 -29.3 -55.6 -14.0 -54.3 C 1.3 -53.1 16.7 -51.8 32.0 -50.6 C 47.3 -49.5 62.7 -48.4 78.0 -47.4 C 93.3 -46.4 108.7 -45.5 124.0 -44.8 C 139.3 -44.1 154.7 -43.5 170.0 -43.0 C 185.3 -42.6 200.7 -42.3 216.0 -42.2 C 231.3 -42.1 246.7 -42.2 262.0 -42.4 C 277.3 -42.6 292.7 -43.0 308.0 -43.5 C 323.3 -44.0 338.7 -44.7 354.0 -45.5 C 369.3 -46.2 384.7 -47.1 400.0 -48.0 C 415.3 -48.9 430.7 -49.9 446.0 -51.0 C 461.3 -52.0 476.7 -53.0 492.0 -54.0 C 507.3 -55.1 522.7 -56.1 538.0 -57.0 C 553.3 -57.9 568.7 -58.8 584.0 -59.6 C 599.3 -60.4 614.7 -61.1 630.0 -61.6 C 645.3 -62.2 660.7 -62.6 676.0 -62.9 C 691.3 -63.2 706.7 -63.4 722.0 -63.4 C 737.3 -63.4 752.7 -63.3 768.0 -63.1 C 783.3 -62.8 798.7 -62.4 814.0 -62.0 C 829.3 -61.5 844.7 -60.9 860.0 -60.2 C 875.3 -59.5 890.7 -58.7 906.0 -57.9 C 921.3 -57.1 936.7 -56.2 952.0 -55.3 C 967.3 -54.4 982.7 -53.5 998.0 -52.6 C 1013.3 -51.7 1028.7 -50.8 1044.0 -49.9 C 1059.3 -49.0 1074.7 -48.2 1090.0 -47.4 C 1105.3 -46.6 1120.7 -45.9 1136.0 -45.2 C 1151.3 -44.5 1166.7 -43.9 1182.0 -43.3 C 1197.3 -42.8 1212.7 -42.3 1228.0 -41.8 C 1243.3 -41.4 1258.7 -41.0 1274.0 -40.6 C 1289.3 -40.2 1304.7 -39.9 1320.0 -39.6 C 1335.3 -39.3 1350.7 -39.1 1366.0 -38.8 C 1381.3 -38.5 1396.7 -38.2 1412.0 -38.0 C 1427.3 -37.7 1442.7 -37.4 1458.0 -37.1 C 1473.3 -36.7 1488.7 -36.4 1504.0 -36.0 C 1519.3 -35.6 1534.7 -35.2 1550.0 -34.8 C 1565.3 -34.4 1580.7 -33.9 1596.0 -33.4 C 1611.3 -32.9 1634.3 -32.1 1642.0 -31.9" stroke="#F5F0E8" stroke-width="1" stroke-opacity="0.071" fill="none" stroke-linecap="round"/><path d="M -60.0 -22.3 C -52.3 -22.4 -29.3 -22.7 -14.0 -22.9 C 1.3 -23.1 16.7 -23.2 32.0 -23.5 C 47.3 -23.7 62.7 -23.9 78.0 -24.1 C 93.3 -24.4 108.7 -24.6 124.0 -24.9 C 139.3 -25.3 154.7 -25.6 170.0 -26.0 C 185.3 -26.4 200.7 -26.8 216.0 -27.3 C 231.3 -27.7 246.7 -28.2 262.0 -28.8 C 277.3 -29.3 292.7 -29.9 308.0 -30.5 C 323.3 -31.2 338.7 -31.8 354.0 -32.5 C 369.3 -33.2 384.7 -34.0 400.0 -34.7 C 415.3 -35.5 430.7 -36.3 446.0 -37.1 C 461.3 -37.8 476.7 -38.7 492.0 -39.5 C 507.3 -40.3 522.7 -41.1 538.0 -41.9 C 553.3 -42.7 568.7 -43.5 584.0 -44.3 C 599.3 -45.1 614.7 -45.9 630.0 -46.7 C 645.3 -47.4 660.7 -48.2 676.0 -48.9 C 691.3 -49.6 706.7 -50.3 722.0 -51.0 C 737.3 -51.6 752.7 -52.2 768.0 -52.9 C 783.3 -53.5 798.7 -54.0 814.0 -54.6 C 829.3 -55.1 844.7 -55.6 860.0 -56.1 C 875.3 -56.6 890.7 -57.1 906.0 -57.5 C 921.3 -58.0 936.7 -58.4 952.0 -58.8 C 967.3 -59.3 982.7 -59.7 998.0 -60.1 C 1013.3 -60.5 1028.7 -60.9 1044.0 -61.3 C 1059.3 -61.7 1074.7 -62.1 1090.0 -62.6 C 1105.3 -63.0 1120.7 -63.5 1136.0 -63.9 C 1151.3 -64.4 1166.7 -64.9 1182.0 -65.4 C 1197.3 -65.9 1212.7 -66.4 1228.0 -66.9 C 1243.3 -67.5 1258.7 -68.1 1274.0 -68.6 C 1289.3 -69.2 1304.7 -69.9 1320.0 -70.5 C 1335.3 -71.1 1350.7 -71.8 1366.0 -72.4 C 1381.3 -73.1 1396.7 -73.8 1412.0 -74.4 C 1427.3 -75.1 1442.7 -75.8 1458.0 -76.5 C 1473.3 -77.1 1488.7 -77.8 1504.0 -78.4 C 1519.3 -79.1 1534.7 -79.7 1550.0 -80.3 C 1565.3 -80.9 1580.7 -81.4 1596.0 -82.0 C 1611.3 -82.5 1634.3 -83.1 1642.0 -83.4" stroke="#C9A96E" stroke-width="1.5" stroke-opacity="0.183" fill="none" stroke-linecap="round"/><path d="M -60.0 -3.1 C -52.3 -3.5 -29.3 -4.9 -14.0 -5.6 C 1.3 -6.4 16.7 -7.0 32.0 -7.5 C 47.3 -8.1 62.7 -8.5 78.0 -8.9 C 93.3 -9.3 108.7 -9.6 124.0 -9.9 C 139.3 -10.1 154.7 -10.3 170.0 -10.4 C 185.3 -10.6 200.7 -10.7 216.0 -10.8 C 231.3 -10.9 246.7 -10.9 262.0 -11.0 C 277.3 -11.1 292.7 -11.2 308.0 -11.2 C 323.3 -11.3 338.7 -11.4 354.0 -11.6 C 369.3 -11.7 384.7 -11.9 400.0 -12.1 C 415.3 -12.3 430.7 -12.6 446.0 -12.9 C 461.3 -13.2 476.7 -13.6 492.0 -14.0 C 507.3 -14.4 522.7 -14.9 538.0 -15.4 C 553.3 -16.0 568.7 -16.5 584.0 -17.2 C 599.3 -17.8 614.7 -18.5 630.0 -19.2 C 645.3 -19.9 660.7 -20.6 676.0 -21.4 C 691.3 -22.1 706.7 -22.9 722.0 -23.7 C 737.3 -24.5 752.7 -25.3 768.0 -26.1 C 783.3 -26.9 798.7 -27.7 814.0 -28.5 C 829.3 -29.2 844.7 -30.0 860.0 -30.7 C 875.3 -31.4 890.7 -32.1 906.0 -32.8 C 921.3 -33.4 936.7 -34.1 952.0 -34.6 C 967.3 -35.2 982.7 -35.7 998.0 -36.2 C 1013.3 -36.7 1028.7 -37.1 1044.0 -37.5 C 1059.3 -37.9 1074.7 -38.3 1090.0 -38.6 C 1105.3 -39.0 1120.7 -39.3 1136.0 -39.5 C 1151.3 -39.8 1166.7 -40.1 1182.0 -40.3 C 1197.3 -40.6 1212.7 -40.8 1228.0 -41.0 C 1243.3 -41.3 1258.7 -41.5 1274.0 -41.8 C 1289.3 -42.1 1304.7 -42.4 1320.0 -42.7 C 1335.3 -43.1 1350.7 -43.4 1366.0 -43.9 C 1381.3 -44.3 1396.7 -44.8 1412.0 -45.3 C 1427.3 -45.9 1442.7 -46.5 1458.0 -47.2 C 1473.3 -47.8 1488.7 -48.6 1504.0 -49.4 C 1519.3 -50.2 1534.7 -51.1 1550.0 -52.0 C 1565.3 -52.9 1580.7 -53.9 1596.0 -55.0 C 1611.3 -56.1 1634.3 -57.8 1642.0 -58.3" stroke="#F5F0E8" stroke-width="1" stroke-opacity="0.078" fill="none" stroke-linecap="round"/><path d="M -60.0 52.3 C -52.3 52.2 -29.3 51.8 -14.0 51.6 C 1.3 51.4 16.7 51.1 32.0 50.9 C 47.3 50.6 62.7 50.4 78.0 50.1 C 93.3 49.9 108.7 49.6 124.0 49.4 C 139.3 49.2 154.7 48.9 170.0 48.7 C 185.3 48.4 200.7 48.2 216.0 48.0 C 231.3 47.8 246.7 47.6 262.0 47.4 C 277.3 47.2 292.7 47.0 308.0 46.8 C 323.3 46.6 338.7 46.5 354.0 46.3 C 369.3 46.2 384.7 46.1 400.0 46.0 C 415.3 45.9 430.7 45.8 446.0 45.7 C 461.3 45.6 476.7 45.6 492.0 45.5 C 507.3 45.5 522.7 45.5 538.0 45.5 C 553.3 45.5 568.7 45.5 584.0 45.6 C 599.3 45.6 614.7 45.7 630.0 45.8 C 645.3 45.9 660.7 46.0 676.0 46.2 C 691.3 46.3 706.7 46.5 722.0 46.7 C 737.3 46.9 752.7 47.1 768.0 47.3 C 783.3 47.6 798.7 47.8 814.0 48.1 C 829.3 48.4 844.7 48.7 860.0 49.0 C 875.3 49.3 890.7 49.7 906.0 50.0 C 921.3 50.4 936.7 50.8 952.0 51.2 C 967.3 51.6 982.7 52.0 998.0 52.4 C 1013.3 52.9 1028.7 53.3 1044.0 53.8 C 1059.3 54.3 1074.7 54.8 1090.0 55.3 C 1105.3 55.8 1120.7 56.3 1136.0 56.9 C 1151.3 57.4 1166.7 57.9 1182.0 58.5 C 1197.3 59.1 1212.7 59.6 1228.0 60.2 C 1243.3 60.8 1258.7 61.4 1274.0 62.0 C 1289.3 62.6 1304.7 63.2 1320.0 63.9 C 1335.3 64.5 1350.7 65.1 1366.0 65.8 C 1381.3 66.4 1396.7 67.1 1412.0 67.7 C 1427.3 68.4 1442.7 69.0 1458.0 69.7 C 1473.3 70.3 1488.7 71.0 1504.0 71.7 C 1519.3 72.4 1534.7 73.0 1550.0 73.7 C 1565.3 74.4 1580.7 75.1 1596.0 75.7 C 1611.3 76.4 1634.3 77.4 1642.0 77.8" stroke="#F5F0E8" stroke-width="1" stroke-opacity="0.086" fill="none" stroke-linecap="round"/><path d="M -60.0 94.4 C -52.3 94.5 -29.3 94.7 -14.0 94.6 C 1.3 94.5 16.7 94.2 32.0 93.8 C 47.3 93.4 62.7 92.8 78.0 92.1 C 93.3 91.4 108.7 90.6 124.0 89.6 C 139.3 88.7 154.7 87.6 170.0 86.5 C 185.3 85.4 200.7 84.1 216.0 82.9 C 231.3 81.6 246.7 80.3 262.0 79.0 C 277.3 77.7 292.7 76.3 308.0 75.0 C 323.3 73.7 338.7 72.4 354.0 71.2 C 369.3 69.9 384.7 68.7 400.0 67.6 C 415.3 66.5 430.7 65.4 446.0 64.4 C 461.3 63.5 476.7 62.6 492.0 61.8 C 507.3 61.0 522.7 60.2 538.0 59.6 C 553.3 58.9 568.7 58.4 584.0 57.9 C 599.3 57.4 614.7 56.9 630.0 56.6 C 645.3 56.2 660.7 55.8 676.0 55.5 C 691.3 55.2 706.7 54.9 722.0 54.5 C 737.3 54.2 752.7 53.9 768.0 53.6 C 783.3 53.2 798.7 52.8 814.0 52.4 C 829.3 51.9 844.7 51.4 860.0 50.8 C 875.3 50.2 890.7 49.6 906.0 48.8 C 921.3 48.1 936.7 47.3 952.0 46.3 C 967.3 45.4 982.7 44.4 998.0 43.3 C 1013.3 42.2 1028.7 41.0 1044.0 39.7 C 1059.3 38.5 1074.7 37.1 1090.0 35.7 C 1105.3 34.4 1120.7 32.9 1136.0 31.5 C 1151.3 30.0 1166.7 28.5 1182.0 27.1 C 1197.3 25.6 1212.7 24.2 1228.0 22.8 C 1243.3 21.4 1258.7 20.1 1274.0 18.8 C 1289.3 17.6 1304.7 16.4 1320.0 15.3 C 1335.3 14.3 1350.7 13.4 1366.0 12.6 C 1381.3 11.8 1396.7 11.1 1412.0 10.7 C 1427.3 10.2 1442.7 9.9 1458.0 9.7 C 1473.3 9.6 1488.7 9.6 1504.0 9.8 C 1519.3 9.9 1534.7 10.3 1550.0 10.8 C 1565.3 11.3 1580.7 12.0 1596.0 12.7 C 1611.3 13.5 1634.3 15.0 1642.0 15.4" stroke="#F5F0E8" stroke-width="1" stroke-opacity="0.077" fill="none" stroke-linecap="round"/><path d="M -60.0 122.6 C -52.3 121.5 -29.3 118.5 -14.0 116.1 C 1.3 113.7 16.7 111.1 32.0 108.4 C 47.3 105.7 62.7 102.8 78.0 100.0 C 93.3 97.2 108.7 94.2 124.0 91.4 C 139.3 88.7 154.7 85.9 170.0 83.4 C 185.3 80.9 200.7 78.5 216.0 76.5 C 231.3 74.5 246.7 72.7 262.0 71.3 C 277.3 69.9 292.7 68.8 308.0 68.1 C 323.3 67.5 338.7 67.2 354.0 67.3 C 369.3 67.5 384.7 68.0 400.0 69.0 C 415.3 69.9 430.7 71.2 446.0 72.9 C 461.3 74.5 476.7 76.5 492.0 78.8 C 507.3 81.0 522.7 83.5 538.0 86.2 C 553.3 88.8 568.7 91.7 584.0 94.5 C 599.3 97.3 614.7 100.2 630.0 103.0 C 645.3 105.8 660.7 108.6 676.0 111.1 C 691.3 113.6 706.7 116.1 722.0 118.1 C 737.3 120.2 752.7 122.1 768.0 123.5 C 783.3 124.9 798.7 126.1 814.0 126.8 C 829.3 127.5 844.7 127.8 860.0 127.8 C 875.3 127.7 890.7 127.2 906.0 126.3 C 921.3 125.5 936.7 124.2 952.0 122.7 C 967.3 121.2 982.7 119.2 998.0 117.1 C 1013.3 115.0 1028.7 112.6 1044.0 110.1 C 1059.3 107.6 1074.7 104.9 1090.0 102.2 C 1105.3 99.5 1120.7 96.7 1136.0 94.0 C 1151.3 91.3 1166.7 88.6 1182.0 86.2 C 1197.3 83.7 1212.7 81.4 1228.0 79.3 C 1243.3 77.3 1258.7 75.4 1274.0 73.9 C 1289.3 72.3 1304.7 71.1 1320.0 70.1 C 1335.3 69.2 1350.7 68.6 1366.0 68.3 C 1381.3 68.0 1396.7 68.0 1412.0 68.3 C 1427.3 68.6 1442.7 69.2 1458.0 70.0 C 1473.3 70.7 1488.7 71.8 1504.0 72.9 C 1519.3 74.0 1534.7 75.3 1550.0 76.6 C 1565.3 77.9 1580.7 79.3 1596.0 80.6 C 1611.3 81.9 1634.3 83.6 1642.0 84.2" stroke="#C9A96E" stroke-width="1.5" stroke-opacity="0.211" fill="none" stroke-linecap="round"/><path d="M -60.0 123.0 C -52.3 123.4 -29.3 124.4 -14.0 125.0 C 1.3 125.7 16.7 126.3 32.0 126.8 C 47.3 127.3 62.7 127.8 78.0 128.1 C 93.3 128.5 108.7 128.8 124.0 128.9 C 139.3 129.1 154.7 129.2 170.0 129.2 C 185.3 129.2 200.7 129.1 216.0 129.0 C 231.3 128.9 246.7 128.6 262.0 128.4 C 277.3 128.1 292.7 127.8 308.0 127.5 C 323.3 127.2 338.7 126.9 354.0 126.6 C 369.3 126.3 384.7 126.0 400.0 125.9 C 415.3 125.7 430.7 125.5 446.0 125.5 C 461.3 125.5 476.7 125.6 492.0 125.8 C 507.3 126.1 522.7 126.4 538.0 127.0 C 553.3 127.5 568.7 128.2 584.0 129.1 C 599.3 129.9 614.7 131.0 630.0 132.2 C 645.3 133.4 660.7 134.8 676.0 136.3 C 691.3 137.9 706.7 139.6 722.0 141.4 C 737.3 143.3 752.7 145.3 768.0 147.4 C 783.3 149.5 798.7 151.8 814.0 154.1 C 829.3 156.3 844.7 158.7 860.0 161.1 C 875.3 163.5 890.7 166.0 906.0 168.4 C 921.3 170.8 936.7 173.2 952.0 175.6 C 967.3 177.9 982.7 180.3 998.0 182.5 C 1013.3 184.7 1028.7 186.9 1044.0 188.9 C 1059.3 191.0 1074.7 192.9 1090.0 194.7 C 1105.3 196.5 1120.7 198.2 1136.0 199.8 C 1151.3 201.4 1166.7 202.8 1182.0 204.2 C 1197.3 205.6 1212.7 206.8 1228.0 207.9 C 1243.3 209.1 1258.7 210.1 1274.0 211.1 C 1289.3 212.1 1304.7 213.1 1320.0 214.0 C 1335.3 214.9 1350.7 215.7 1366.0 216.6 C 1381.3 217.5 1396.7 218.4 1412.0 219.3 C 1427.3 220.2 1442.7 221.2 1458.0 222.2 C 1473.3 223.3 1488.7 224.3 1504.0 225.5 C 1519.3 226.7 1534.7 228.0 1550.0 229.4 C 1565.3 230.7 1580.7 232.2 1596.0 233.8 C 1611.3 235.3 1634.3 237.9 1642.0 238.8" stroke="#F5F0E8" stroke-width="1" stroke-opacity="0.090" fill="none" stroke-linecap="round"/><path d="M -60.0 161.7 C -52.3 161.3 -29.3 160.0 -14.0 159.3 C 1.3 158.6 16.7 157.9 32.0 157.3 C 47.3 156.7 62.7 156.2 78.0 155.8 C 93.3 155.3 108.7 155.0 124.0 154.7 C 139.3 154.5 154.7 154.3 170.0 154.2 C 185.3 154.2 200.7 154.2 216.0 154.3 C 231.3 154.4 246.7 154.6 262.0 154.9 C 277.3 155.2 292.7 155.6 308.0 156.1 C 323.3 156.5 338.7 157.1 354.0 157.7 C 369.3 158.4 384.7 159.1 400.0 159.8 C 415.3 160.6 430.7 161.4 446.0 162.3 C 461.3 163.1 476.7 164.1 492.0 165.0 C 507.3 165.9 522.7 166.9 538.0 167.9 C 553.3 168.8 568.7 169.8 584.0 170.8 C 599.3 171.7 614.7 172.7 630.0 173.6 C 645.3 174.5 660.7 175.4 676.0 176.2 C 691.3 177.0 706.7 177.7 722.0 178.4 C 737.3 179.0 752.7 179.6 768.0 180.1 C 783.3 180.5 798.7 180.9 814.0 181.2 C 829.3 181.4 844.7 181.5 860.0 181.5 C 875.3 181.5 890.7 181.4 906.0 181.0 C 921.3 180.7 936.7 180.3 952.0 179.7 C 967.3 179.1 982.7 178.3 998.0 177.3 C 1013.3 176.4 1028.7 175.3 1044.0 174.0 C 1059.3 172.8 1074.7 171.3 1090.0 169.7 C 1105.3 168.2 1120.7 166.4 1136.0 164.5 C 1151.3 162.6 1166.7 160.6 1182.0 158.4 C 1197.3 156.2 1212.7 153.9 1228.0 151.5 C 1243.3 149.1 1258.7 146.6 1274.0 143.9 C 1289.3 141.3 1304.7 138.6 1320.0 135.8 C 1335.3 133.1 1350.7 130.2 1366.0 127.3 C 1381.3 124.5 1396.7 121.5 1412.0 118.6 C 1427.3 115.7 1442.7 112.8 1458.0 109.9 C 1473.3 107.0 1488.7 104.1 1504.0 101.3 C 1519.3 98.5 1534.7 95.7 1550.0 93.0 C 1565.3 90.3 1580.7 87.7 1596.0 85.2 C 1611.3 82.8 1634.3 79.3 1642.0 78.2" stroke="#F5F0E8" stroke-width="1" stroke-opacity="0.072" fill="none" stroke-linecap="round"/><path d="M -60.0 192.5 C -52.3 192.8 -29.3 193.5 -14.0 194.5 C 1.3 195.5 16.7 196.8 32.0 198.4 C 47.3 200.0 62.7 201.9 78.0 204.0 C 93.3 206.1 108.7 208.5 124.0 210.9 C 139.3 213.3 154.7 215.9 170.0 218.4 C 185.3 220.9 200.7 223.5 216.0 225.9 C 231.3 228.3 246.7 230.7 262.0 232.8 C 277.3 234.8 292.7 236.8 308.0 238.3 C 323.3 239.9 338.7 241.2 354.0 242.1 C 369.3 243.0 384.7 243.6 400.0 243.8 C 415.3 244.0 430.7 243.8 446.0 243.2 C 461.3 242.7 476.7 241.7 492.0 240.5 C 507.3 239.3 522.7 237.7 538.0 236.0 C 553.3 234.2 568.7 232.2 584.0 230.1 C 599.3 228.0 614.7 225.7 630.0 223.5 C 645.3 221.3 660.7 219.0 676.0 217.0 C 691.3 214.9 706.7 212.9 722.0 211.2 C 737.3 209.5 752.7 208.0 768.0 206.9 C 783.3 205.8 798.7 204.9 814.0 204.6 C 829.3 204.2 844.7 204.2 860.0 204.6 C 875.3 205.1 890.7 206.0 906.0 207.2 C 921.3 208.5 936.7 210.2 952.0 212.3 C 967.3 214.3 982.7 216.8 998.0 219.5 C 1013.3 222.1 1028.7 225.2 1044.0 228.3 C 1059.3 231.4 1074.7 234.8 1090.0 238.1 C 1105.3 241.3 1120.7 244.8 1136.0 248.0 C 1151.3 251.2 1166.7 254.4 1182.0 257.3 C 1197.3 260.2 1212.7 263.0 1228.0 265.3 C 1243.3 267.6 1258.7 269.7 1274.0 271.2 C 1289.3 272.8 1304.7 274.0 1320.0 274.8 C 1335.3 275.5 1350.7 275.8 1366.0 275.6 C 1381.3 275.5 1396.7 274.8 1412.0 273.8 C 1427.3 272.8 1442.7 271.4 1458.0 269.7 C 1473.3 267.9 1488.7 265.8 1504.0 263.5 C 1519.3 261.3 1534.7 258.7 1550.0 256.1 C 1565.3 253.5 1580.7 250.7 1596.0 248.1 C 1611.3 245.5 1634.3 241.7 1642.0 240.4" stroke="#F5F0E8" stroke-width="1" stroke-opacity="0.092" fill="none" stroke-linecap="round"/><path d="M -60.0 267.8 C -52.3 268.2 -29.3 269.4 -14.0 270.1 C 1.3 270.7 16.7 271.2 32.0 271.6 C 47.3 271.9 62.7 272.2 78.0 272.3 C 93.3 272.3 108.7 272.3 124.0 272.1 C 139.3 271.9 154.7 271.5 170.0 271.1 C 185.3 270.6 200.7 270.0 216.0 269.2 C 231.3 268.5 246.7 267.6 262.0 266.6 C 277.3 265.6 292.7 264.4 308.0 263.2 C 323.3 262.0 338.7 260.7 354.0 259.3 C 369.3 257.9 384.7 256.4 400.0 254.9 C 415.3 253.3 430.7 251.7 446.0 250.1 C 461.3 248.5 476.7 246.9 492.0 245.3 C 507.3 243.6 522.7 242.0 538.0 240.4 C 553.3 238.8 568.7 237.2 584.0 235.6 C 599.3 234.1 614.7 232.6 630.0 231.2 C 645.3 229.8 660.7 228.5 676.0 227.3 C 691.3 226.1 706.7 224.9 722.0 223.9 C 737.3 222.9 752.7 222.0 768.0 221.3 C 783.3 220.5 798.7 219.9 814.0 219.4 C 829.3 218.9 844.7 218.6 860.0 218.4 C 875.3 218.2 890.7 218.1 906.0 218.2 C 921.3 218.3 936.7 218.5 952.0 218.9 C 967.3 219.2 982.7 219.7 998.0 220.3 C 1013.3 220.9 1028.7 221.7 1044.0 222.5 C 1059.3 223.4 1074.7 224.3 1090.0 225.4 C 1105.3 226.4 1120.7 227.5 1136.0 228.7 C 1151.3 229.9 1166.7 231.2 1182.0 232.5 C 1197.3 233.8 1212.7 235.2 1228.0 236.5 C 1243.3 237.9 1258.7 239.3 1274.0 240.6 C 1289.3 242.0 1304.7 243.4 1320.0 244.7 C 1335.3 246.0 1350.7 247.3 1366.0 248.5 C 1381.3 249.7 1396.7 250.9 1412.0 252.0 C 1427.3 253.1 1442.7 254.1 1458.0 255.0 C 1473.3 255.9 1488.7 256.7 1504.0 257.4 C 1519.3 258.1 1534.7 258.7 1550.0 259.2 C 1565.3 259.7 1580.7 260.1 1596.0 260.3 C 1611.3 260.5 1634.3 260.6 1642.0 260.6" stroke="#C9A96E" stroke-width="1.5" stroke-opacity="0.222" fill="none" stroke-linecap="round"/><path d="M -60.0 253.2 C -52.3 253.3 -29.3 252.9 -14.0 253.4 C 1.3 253.8 16.7 254.7 32.0 256.0 C 47.3 257.2 62.7 258.9 78.0 260.7 C 93.3 262.6 108.7 264.8 124.0 267.1 C 139.3 269.3 154.7 271.9 170.0 274.3 C 185.3 276.7 200.7 279.3 216.0 281.6 C 231.3 283.9 246.7 286.2 262.0 288.1 C 277.3 290.0 292.7 291.8 308.0 293.1 C 323.3 294.5 338.7 295.5 354.0 296.1 C 369.3 296.7 384.7 296.9 400.0 296.5 C 415.3 296.2 430.7 295.5 446.0 294.3 C 461.3 293.1 476.7 291.3 492.0 289.3 C 507.3 287.2 522.7 284.7 538.0 281.9 C 553.3 279.1 568.7 275.9 584.0 272.6 C 599.3 269.4 614.7 265.7 630.0 262.1 C 645.3 258.6 660.7 254.8 676.0 251.2 C 691.3 247.6 706.7 243.9 722.0 240.6 C 737.3 237.2 752.7 234.0 768.0 231.1 C 783.3 228.3 798.7 225.6 814.0 223.5 C 829.3 221.3 844.7 219.5 860.0 218.2 C 875.3 216.8 890.7 215.9 906.0 215.5 C 921.3 215.1 936.7 215.1 952.0 215.5 C 967.3 216.0 982.7 216.9 998.0 218.1 C 1013.3 219.3 1028.7 221.0 1044.0 222.8 C 1059.3 224.6 1074.7 226.8 1090.0 229.0 C 1105.3 231.3 1120.7 233.8 1136.0 236.1 C 1151.3 238.5 1166.7 241.0 1182.0 243.3 C 1197.3 245.6 1212.7 247.8 1228.0 249.8 C 1243.3 251.7 1258.7 253.5 1274.0 254.8 C 1289.3 256.2 1304.7 257.3 1320.0 258.0 C 1335.3 258.6 1350.7 258.9 1366.0 258.8 C 1381.3 258.6 1396.7 258.0 1412.0 257.1 C 1427.3 256.1 1442.7 254.7 1458.0 253.0 C 1473.3 251.2 1488.7 249.1 1504.0 246.7 C 1519.3 244.3 1534.7 241.6 1550.0 238.8 C 1565.3 235.9 1580.7 232.8 1596.0 229.7 C 1611.3 226.7 1634.3 221.9 1642.0 220.3" stroke="#F5F0E8" stroke-width="1" stroke-opacity="0.050" fill="none" stroke-linecap="round"/><path d="M -60.0 338.7 C -52.3 337.5 -29.3 334.3 -14.0 331.8 C 1.3 329.3 16.7 326.6 32.0 323.9 C 47.3 321.2 62.7 318.3 78.0 315.5 C 93.3 312.7 108.7 309.7 124.0 307.0 C 139.3 304.2 154.7 301.4 170.0 298.8 C 185.3 296.3 200.7 293.8 216.0 291.6 C 231.3 289.4 246.7 287.4 262.0 285.7 C 277.3 284.0 292.7 282.5 308.0 281.5 C 323.3 280.4 338.7 279.6 354.0 279.2 C 369.3 278.8 384.7 278.8 400.0 279.1 C 415.3 279.4 430.7 280.2 446.0 281.2 C 461.3 282.3 476.7 283.8 492.0 285.5 C 507.3 287.3 522.7 289.5 538.0 291.9 C 553.3 294.3 568.7 297.1 584.0 300.0 C 599.3 302.9 614.7 306.2 630.0 309.5 C 645.3 312.9 660.7 316.5 676.0 320.1 C 691.3 323.8 706.7 327.6 722.0 331.3 C 737.3 335.1 752.7 338.9 768.0 342.7 C 783.3 346.4 798.7 350.2 814.0 353.8 C 829.3 357.3 844.7 360.9 860.0 364.2 C 875.3 367.5 890.7 370.6 906.0 373.6 C 921.3 376.5 936.7 379.2 952.0 381.7 C 967.3 384.2 982.7 386.4 998.0 388.4 C 1013.3 390.4 1028.7 392.1 1044.0 393.6 C 1059.3 395.0 1074.7 396.2 1090.0 397.2 C 1105.3 398.1 1120.7 398.8 1136.0 399.3 C 1151.3 399.8 1166.7 400.1 1182.0 400.2 C 1197.3 400.3 1212.7 400.2 1228.0 399.9 C 1243.3 399.7 1258.7 399.3 1274.0 398.8 C 1289.3 398.3 1304.7 397.7 1320.0 397.1 C 1335.3 396.4 1350.7 395.7 1366.0 395.0 C 1381.3 394.2 1396.7 393.5 1412.0 392.7 C 1427.3 392.0 1442.7 391.2 1458.0 390.5 C 1473.3 389.8 1488.7 389.1 1504.0 388.5 C 1519.3 387.9 1534.7 387.3 1550.0 386.8 C 1565.3 386.3 1580.7 385.8 1596.0 385.4 C 1611.3 385.0 1634.3 384.5 1642.0 384.3" stroke="#F5F0E8" stroke-width="1" stroke-opacity="0.076" fill="none" stroke-linecap="round"/><path d="M -60.0 361.5 C -52.3 361.3 -29.3 360.8 -14.0 360.4 C 1.3 359.9 16.7 359.4 32.0 358.8 C 47.3 358.3 62.7 357.6 78.0 356.9 C 93.3 356.2 108.7 355.5 124.0 354.6 C 139.3 353.8 154.7 352.9 170.0 352.0 C 185.3 351.1 200.7 350.1 216.0 349.1 C 231.3 348.1 246.7 347.1 262.0 346.0 C 277.3 344.9 292.7 343.8 308.0 342.7 C 323.3 341.6 338.7 340.4 354.0 339.3 C 369.3 338.2 384.7 337.0 400.0 335.8 C 415.3 334.7 430.7 333.5 446.0 332.4 C 461.3 331.3 476.7 330.2 492.0 329.1 C 507.3 328.0 522.7 326.9 538.0 325.9 C 553.3 324.8 568.7 323.8 584.0 322.9 C 599.3 321.9 614.7 321.0 630.0 320.2 C 645.3 319.3 660.7 318.5 676.0 317.7 C 691.3 317.0 706.7 316.3 722.0 315.7 C 737.3 315.0 752.7 314.4 768.0 313.9 C 783.3 313.4 798.7 312.9 814.0 312.5 C 829.3 312.1 844.7 311.8 860.0 311.5 C 875.3 311.2 890.7 310.9 906.0 310.7 C 921.3 310.5 936.7 310.4 952.0 310.3 C 967.3 310.2 982.7 310.2 998.0 310.2 C 1013.3 310.1 1028.7 310.2 1044.0 310.2 C 1059.3 310.3 1074.7 310.3 1090.0 310.4 C 1105.3 310.5 1120.7 310.7 1136.0 310.8 C 1151.3 310.9 1166.7 311.0 1182.0 311.2 C 1197.3 311.3 1212.7 311.5 1228.0 311.6 C 1243.3 311.7 1258.7 311.8 1274.0 311.9 C 1289.3 312.0 1304.7 312.1 1320.0 312.2 C 1335.3 312.3 1350.7 312.3 1366.0 312.3 C 1381.3 312.3 1396.7 312.3 1412.0 312.2 C 1427.3 312.2 1442.7 312.1 1458.0 312.0 C 1473.3 311.8 1488.7 311.7 1504.0 311.4 C 1519.3 311.2 1534.7 311.0 1550.0 310.7 C 1565.3 310.4 1580.7 310.0 1596.0 309.6 C 1611.3 309.2 1634.3 308.6 1642.0 308.3" stroke="#F5F0E8" stroke-width="1" stroke-opacity="0.087" fill="none" stroke-linecap="round"/><path d="M -60.0 360.4 C -52.3 360.5 -29.3 360.7 -14.0 361.1 C 1.3 361.5 16.7 362.0 32.0 362.7 C 47.3 363.3 62.7 364.1 78.0 364.9 C 93.3 365.8 108.7 366.8 124.0 367.8 C 139.3 368.8 154.7 369.9 170.0 371.0 C 185.3 372.1 200.7 373.3 216.0 374.4 C 231.3 375.6 246.7 376.7 262.0 377.8 C 277.3 378.8 292.7 379.9 308.0 380.8 C 323.3 381.8 338.7 382.7 354.0 383.4 C 369.3 384.2 384.7 384.9 400.0 385.5 C 415.3 386.0 430.7 386.5 446.0 386.8 C 461.3 387.2 476.7 387.4 492.0 387.5 C 507.3 387.6 522.7 387.6 538.0 387.5 C 553.3 387.4 568.7 387.2 584.0 386.9 C 599.3 386.7 614.7 386.3 630.0 385.9 C 645.3 385.5 660.7 385.1 676.0 384.6 C 691.3 384.1 706.7 383.6 722.0 383.2 C 737.3 382.7 752.7 382.2 768.0 381.9 C 783.3 381.5 798.7 381.1 814.0 380.8 C 829.3 380.6 844.7 380.4 860.0 380.3 C 875.3 380.2 890.7 380.2 906.0 380.3 C 921.3 380.5 936.7 380.7 952.0 381.1 C 967.3 381.5 982.7 382.0 998.0 382.6 C 1013.3 383.3 1028.7 384.0 1044.0 384.9 C 1059.3 385.8 1074.7 386.8 1090.0 387.9 C 1105.3 389.0 1120.7 390.2 1136.0 391.4 C 1151.3 392.6 1166.7 394.0 1182.0 395.3 C 1197.3 396.7 1212.7 398.1 1228.0 399.5 C 1243.3 400.9 1258.7 402.3 1274.0 403.6 C 1289.3 405.0 1304.7 406.4 1320.0 407.6 C 1335.3 408.9 1350.7 410.1 1366.0 411.2 C 1381.3 412.2 1396.7 413.3 1412.0 414.1 C 1427.3 415.0 1442.7 415.8 1458.0 416.4 C 1473.3 417.0 1488.7 417.5 1504.0 417.9 C 1519.3 418.2 1534.7 418.5 1550.0 418.5 C 1565.3 418.6 1580.7 418.6 1596.0 418.4 C 1611.3 418.2 1634.3 417.7 1642.0 417.6" stroke="#C9A96E" stroke-width="1.5" stroke-opacity="0.181" fill="none" stroke-linecap="round"/><path d="M -60.0 414.5 C -52.3 413.9 -29.3 412.2 -14.0 411.1 C 1.3 410.0 16.7 408.9 32.0 407.9 C 47.3 406.9 62.7 405.9 78.0 404.9 C 93.3 404.0 108.7 403.1 124.0 402.3 C 139.3 401.4 154.7 400.6 170.0 399.9 C 185.3 399.1 200.7 398.4 216.0 397.8 C 231.3 397.2 246.7 396.6 262.0 396.0 C 277.3 395.5 292.7 395.0 308.0 394.6 C 323.3 394.2 338.7 393.8 354.0 393.4 C 369.3 393.1 384.7 392.8 400.0 392.6 C 415.3 392.3 430.7 392.1 446.0 391.9 C 461.3 391.8 476.7 391.7 492.0 391.6 C 507.3 391.5 522.7 391.4 538.0 391.4 C 553.3 391.4 568.7 391.4 584.0 391.4 C 599.3 391.4 614.7 391.4 630.0 391.5 C 645.3 391.5 660.7 391.6 676.0 391.7 C 691.3 391.7 706.7 391.8 722.0 391.9 C 737.3 392.0 752.7 392.1 768.0 392.2 C 783.3 392.2 798.7 392.3 814.0 392.4 C 829.3 392.4 844.7 392.5 860.0 392.5 C 875.3 392.6 890.7 392.6 906.0 392.6 C 921.3 392.6 936.7 392.6 952.0 392.6 C 967.3 392.6 982.7 392.5 998.0 392.5 C 1013.3 392.4 1028.7 392.3 1044.0 392.2 C 1059.3 392.1 1074.7 392.0 1090.0 391.8 C 1105.3 391.6 1120.7 391.5 1136.0 391.3 C 1151.3 391.1 1166.7 390.9 1182.0 390.6 C 1197.3 390.4 1212.7 390.1 1228.0 389.9 C 1243.3 389.6 1258.7 389.3 1274.0 389.0 C 1289.3 388.8 1304.7 388.5 1320.0 388.2 C 1335.3 387.9 1350.7 387.6 1366.0 387.3 C 1381.3 387.0 1396.7 386.7 1412.0 386.4 C 1427.3 386.1 1442.7 385.8 1458.0 385.6 C 1473.3 385.3 1488.7 385.0 1504.0 384.8 C 1519.3 384.6 1534.7 384.4 1550.0 384.2 C 1565.3 384.0 1580.7 383.9 1596.0 383.8 C 1611.3 383.6 1634.3 383.5 1642.0 383.5" stroke="#F5F0E8" stroke-width="1" stroke-opacity="0.057" fill="none" stroke-linecap="round"/><path d="M -60.0 465.5 C -52.3 465.1 -29.3 463.9 -14.0 463.1 C 1.3 462.3 16.7 461.5 32.0 460.6 C 47.3 459.8 62.7 459.0 78.0 458.2 C 93.3 457.3 108.7 456.5 124.0 455.7 C 139.3 454.9 154.7 454.1 170.0 453.2 C 185.3 452.4 200.7 451.6 216.0 450.8 C 231.3 450.0 246.7 449.1 262.0 448.3 C 277.3 447.5 292.7 446.6 308.0 445.7 C 323.3 444.8 338.7 443.9 354.0 443.0 C 369.3 442.0 384.7 441.1 400.0 440.0 C 415.3 439.0 430.7 437.9 446.0 436.8 C 461.3 435.6 476.7 434.4 492.0 433.2 C 507.3 431.9 522.7 430.6 538.0 429.2 C 553.3 427.8 568.7 426.3 584.0 424.8 C 599.3 423.3 614.7 421.8 630.0 420.2 C 645.3 418.6 660.7 416.9 676.0 415.3 C 691.3 413.6 706.7 411.9 722.0 410.3 C 737.3 408.6 752.7 406.9 768.0 405.3 C 783.3 403.7 798.7 402.0 814.0 400.5 C 829.3 399.0 844.7 397.5 860.0 396.1 C 875.3 394.8 890.7 393.5 906.0 392.3 C 921.3 391.1 936.7 390.1 952.0 389.2 C 967.3 388.3 982.7 387.5 998.0 386.9 C 1013.3 386.3 1028.7 385.8 1044.0 385.5 C 1059.3 385.2 1074.7 385.1 1090.0 385.1 C 1105.3 385.1 1120.7 385.2 1136.0 385.5 C 1151.3 385.8 1166.7 386.3 1182.0 386.8 C 1197.3 387.4 1212.7 388.0 1228.0 388.8 C 1243.3 389.5 1258.7 390.4 1274.0 391.2 C 1289.3 392.1 1304.7 393.1 1320.0 394.0 C 1335.3 394.9 1350.7 395.9 1366.0 396.8 C 1381.3 397.7 1396.7 398.6 1412.0 399.4 C 1427.3 400.2 1442.7 401.0 1458.0 401.6 C 1473.3 402.2 1488.7 402.8 1504.0 403.2 C 1519.3 403.7 1534.7 404.0 1550.0 404.2 C 1565.3 404.3 1580.7 404.4 1596.0 404.3 C 1611.3 404.2 1634.3 403.7 1642.0 403.6" stroke="#F5F0E8" stroke-width="1" stroke-opacity="0.078" fill="none" stroke-linecap="round"/><path d="M -60.0 483.0 C -52.3 483.2 -29.3 484.0 -14.0 484.4 C 1.3 484.8 16.7 485.1 32.0 485.3 C 47.3 485.5 62.7 485.6 78.0 485.6 C 93.3 485.6 108.7 485.5 124.0 485.3 C 139.3 485.1 154.7 484.9 170.0 484.5 C 185.3 484.2 200.7 483.7 216.0 483.3 C 231.3 482.8 246.7 482.2 262.0 481.6 C 277.3 481.0 292.7 480.4 308.0 479.7 C 323.3 479.1 338.7 478.4 354.0 477.7 C 369.3 477.1 384.7 476.4 400.0 475.8 C 415.3 475.1 430.7 474.5 446.0 474.0 C 461.3 473.4 476.7 472.9 492.0 472.5 C 507.3 472.1 522.7 471.7 538.0 471.5 C 553.3 471.2 568.7 471.0 584.0 470.9 C 599.3 470.8 614.7 470.8 630.0 470.9 C 645.3 471.0 660.7 471.2 676.0 471.5 C 691.3 471.7 706.7 472.1 722.0 472.5 C 737.3 473.0 752.7 473.5 768.0 474.0 C 783.3 474.6 798.7 475.2 814.0 475.9 C 829.3 476.5 844.7 477.2 860.0 477.9 C 875.3 478.6 890.7 479.3 906.0 480.0 C 921.3 480.7 936.7 481.4 952.0 482.0 C 967.3 482.6 982.7 483.2 998.0 483.7 C 1013.3 484.2 1028.7 484.7 1044.0 485.0 C 1059.3 485.3 1074.7 485.6 1090.0 485.7 C 1105.3 485.9 1120.7 485.9 1136.0 485.8 C 1151.3 485.7 1166.7 485.5 1182.0 485.2 C 1197.3 484.9 1212.7 484.4 1228.0 483.8 C 1243.3 483.3 1258.7 482.6 1274.0 481.8 C 1289.3 481.0 1304.7 480.0 1320.0 479.0 C 1335.3 478.0 1350.7 476.9 1366.0 475.7 C 1381.3 474.6 1396.7 473.3 1412.0 472.0 C 1427.3 470.8 1442.7 469.4 1458.0 468.1 C 1473.3 466.8 1488.7 465.4 1504.0 464.1 C 1519.3 462.8 1534.7 461.4 1550.0 460.2 C 1565.3 459.0 1580.7 457.7 1596.0 456.6 C 1611.3 455.5 1634.3 454.1 1642.0 453.6" stroke="#F5F0E8" stroke-width="1" stroke-opacity="0.048" fill="none" stroke-linecap="round"/><path d="M -60.0 532.1 C -52.3 533.1 -29.3 536.5 -14.0 538.4 C 1.3 540.2 16.7 541.9 32.0 543.2 C 47.3 544.4 62.7 545.4 78.0 546.0 C 93.3 546.5 108.7 546.7 124.0 546.4 C 139.3 546.2 154.7 545.6 170.0 544.5 C 185.3 543.5 200.7 542.0 216.0 540.3 C 231.3 538.5 246.7 536.4 262.0 534.0 C 277.3 531.6 292.7 528.9 308.0 526.1 C 323.3 523.3 338.7 520.2 354.0 517.2 C 369.3 514.2 384.7 511.0 400.0 508.0 C 415.3 505.0 430.7 501.9 446.0 499.1 C 461.3 496.3 476.7 493.6 492.0 491.3 C 507.3 489.0 522.7 486.8 538.0 485.1 C 553.3 483.4 568.7 482.0 584.0 481.0 C 599.3 480.1 614.7 479.5 630.0 479.3 C 645.3 479.2 660.7 479.5 676.0 480.1 C 691.3 480.8 706.7 481.9 722.0 483.3 C 737.3 484.7 752.7 486.6 768.0 488.6 C 783.3 490.6 798.7 493.0 814.0 495.5 C 829.3 498.0 844.7 500.7 860.0 503.4 C 875.3 506.1 890.7 509.0 906.0 511.7 C 921.3 514.5 936.7 517.2 952.0 519.7 C 967.3 522.2 982.7 524.7 998.0 526.7 C 1013.3 528.8 1028.7 530.7 1044.0 532.2 C 1059.3 533.7 1074.7 534.9 1090.0 535.6 C 1105.3 536.4 1120.7 536.8 1136.0 536.8 C 1151.3 536.8 1166.7 536.4 1182.0 535.6 C 1197.3 534.9 1212.7 533.7 1228.0 532.2 C 1243.3 530.7 1258.7 528.8 1274.0 526.7 C 1289.3 524.7 1304.7 522.2 1320.0 519.7 C 1335.3 517.2 1350.7 514.5 1366.0 511.7 C 1381.3 509.0 1396.7 506.1 1412.0 503.3 C 1427.3 500.5 1442.7 497.7 1458.0 495.0 C 1473.3 492.4 1488.7 489.9 1504.0 487.6 C 1519.3 485.3 1534.7 483.2 1550.0 481.4 C 1565.3 479.7 1580.7 478.1 1596.0 477.0 C 1611.3 475.8 1634.3 474.9 1642.0 474.4" stroke="#C9A96E" stroke-width="1.5" stroke-opacity="0.267" fill="none" stroke-linecap="round"/><path d="M -60.0 552.1 C -52.3 550.8 -29.3 546.8 -14.0 544.3 C 1.3 541.8 16.7 539.3 32.0 537.0 C 47.3 534.7 62.7 532.6 78.0 530.7 C 93.3 528.8 108.7 527.2 124.0 525.9 C 139.3 524.6 154.7 523.6 170.0 523.0 C 185.3 522.4 200.7 522.1 216.0 522.3 C 231.3 522.4 246.7 523.0 262.0 523.9 C 277.3 524.9 292.7 526.2 308.0 527.9 C 323.3 529.5 338.7 531.6 354.0 533.9 C 369.3 536.3 384.7 539.0 400.0 541.8 C 415.3 544.7 430.7 547.8 446.0 551.0 C 461.3 554.2 476.7 557.7 492.0 561.0 C 507.3 564.4 522.7 567.9 538.0 571.2 C 553.3 574.6 568.7 577.9 584.0 581.0 C 599.3 584.1 614.7 587.1 630.0 589.8 C 645.3 592.4 660.7 594.9 676.0 597.0 C 691.3 599.1 706.7 600.9 722.0 602.3 C 737.3 603.6 752.7 604.7 768.0 605.3 C 783.3 606.0 798.7 606.2 814.0 606.1 C 829.3 606.0 844.7 605.5 860.0 604.6 C 875.3 603.8 890.7 602.6 906.0 601.1 C 921.3 599.7 936.7 597.9 952.0 596.0 C 967.3 594.1 982.7 591.9 998.0 589.7 C 1013.3 587.4 1028.7 585.0 1044.0 582.7 C 1059.3 580.4 1074.7 578.0 1090.0 575.8 C 1105.3 573.6 1120.7 571.4 1136.0 569.5 C 1151.3 567.5 1166.7 565.7 1182.0 564.3 C 1197.3 562.8 1212.7 561.6 1228.0 560.8 C 1243.3 559.9 1258.7 559.4 1274.0 559.2 C 1289.3 559.1 1304.7 559.3 1320.0 559.9 C 1335.3 560.5 1350.7 561.5 1366.0 562.9 C 1381.3 564.2 1396.7 565.9 1412.0 567.9 C 1427.3 570.0 1442.7 572.4 1458.0 574.9 C 1473.3 577.5 1488.7 580.4 1504.0 583.5 C 1519.3 586.5 1534.7 589.7 1550.0 593.0 C 1565.3 596.2 1580.7 599.7 1596.0 603.0 C 1611.3 606.3 1634.3 611.2 1642.0 612.9" stroke="#F5F0E8" stroke-width="1" stroke-opacity="0.074" fill="none" stroke-linecap="round"/><path d="M -60.0 565.9 C -52.3 566.6 -29.3 568.4 -14.0 569.9 C 1.3 571.5 16.7 573.1 32.0 575.0 C 47.3 576.8 62.7 578.8 78.0 581.0 C 93.3 583.1 108.7 585.5 124.0 587.9 C 139.3 590.3 154.7 592.9 170.0 595.6 C 185.3 598.2 200.7 601.0 216.0 603.7 C 231.3 606.5 246.7 609.3 262.0 612.1 C 277.3 614.8 292.7 617.6 308.0 620.3 C 323.3 622.9 338.7 625.6 354.0 628.0 C 369.3 630.4 384.7 632.8 400.0 634.9 C 415.3 637.0 430.7 639.0 446.0 640.7 C 461.3 642.4 476.7 643.9 492.0 645.2 C 507.3 646.5 522.7 647.5 538.0 648.3 C 553.3 649.0 568.7 649.5 584.0 649.8 C 599.3 650.1 614.7 650.1 630.0 649.9 C 645.3 649.8 660.7 649.4 676.0 648.8 C 691.3 648.2 706.7 647.4 722.0 646.6 C 737.3 645.7 752.7 644.7 768.0 643.6 C 783.3 642.5 798.7 641.3 814.0 640.1 C 829.3 638.9 844.7 637.6 860.0 636.4 C 875.3 635.2 890.7 634.0 906.0 632.9 C 921.3 631.8 936.7 630.7 952.0 629.8 C 967.3 628.8 982.7 627.9 998.0 627.2 C 1013.3 626.5 1028.7 625.8 1044.0 625.3 C 1059.3 624.9 1074.7 624.5 1090.0 624.2 C 1105.3 624.0 1120.7 623.9 1136.0 623.9 C 1151.3 623.8 1166.7 623.9 1182.0 624.1 C 1197.3 624.3 1212.7 624.5 1228.0 624.8 C 1243.3 625.1 1258.7 625.5 1274.0 625.8 C 1289.3 626.2 1304.7 626.6 1320.0 626.9 C 1335.3 627.3 1350.7 627.7 1366.0 628.0 C 1381.3 628.3 1396.7 628.6 1412.0 628.9 C 1427.3 629.1 1442.7 629.3 1458.0 629.5 C 1473.3 629.6 1488.7 629.7 1504.0 629.8 C 1519.3 629.9 1534.7 629.9 1550.0 629.9 C 1565.3 630.0 1580.7 629.9 1596.0 630.0 C 1611.3 630.0 1634.3 630.1 1642.0 630.1" stroke="#F5F0E8" stroke-width="1" stroke-opacity="0.063" fill="none" stroke-linecap="round"/><path d="M -60.0 613.7 C -52.3 613.9 -29.3 614.7 -14.0 615.1 C 1.3 615.5 16.7 615.7 32.0 615.9 C 47.3 616.1 62.7 616.2 78.0 616.3 C 93.3 616.4 108.7 616.4 124.0 616.4 C 139.3 616.4 154.7 616.4 170.0 616.5 C 185.3 616.6 200.7 616.6 216.0 616.8 C 231.3 617.0 246.7 617.2 262.0 617.6 C 277.3 618.0 292.7 618.5 308.0 619.1 C 323.3 619.7 338.7 620.5 354.0 621.4 C 369.3 622.3 384.7 623.4 400.0 624.6 C 415.3 625.7 430.7 627.1 446.0 628.5 C 461.3 630.0 476.7 631.5 492.0 633.2 C 507.3 634.8 522.7 636.6 538.0 638.3 C 553.3 640.1 568.7 642.0 584.0 643.7 C 599.3 645.5 614.7 647.4 630.0 649.1 C 645.3 650.8 660.7 652.5 676.0 654.1 C 691.3 655.7 706.7 657.2 722.0 658.5 C 737.3 659.8 752.7 661.0 768.0 662.1 C 783.3 663.1 798.7 664.0 814.0 664.6 C 829.3 665.3 844.7 665.8 860.0 666.2 C 875.3 666.5 890.7 666.7 906.0 666.7 C 921.3 666.8 936.7 666.6 952.0 666.4 C 967.3 666.2 982.7 665.8 998.0 665.4 C 1013.3 664.9 1028.7 664.4 1044.0 663.9 C 1059.3 663.4 1074.7 662.8 1090.0 662.3 C 1105.3 661.8 1120.7 661.2 1136.0 660.8 C 1151.3 660.4 1166.7 660.0 1182.0 659.7 C 1197.3 659.4 1212.7 659.2 1228.0 659.2 C 1243.3 659.1 1258.7 659.2 1274.0 659.3 C 1289.3 659.5 1304.7 659.9 1320.0 660.3 C 1335.3 660.7 1350.7 661.3 1366.0 662.0 C 1381.3 662.6 1396.7 663.4 1412.0 664.2 C 1427.3 665.1 1442.7 666.0 1458.0 666.9 C 1473.3 667.8 1488.7 668.8 1504.0 669.7 C 1519.3 670.7 1534.7 671.6 1550.0 672.5 C 1565.3 673.4 1580.7 674.2 1596.0 674.9 C 1611.3 675.6 1634.3 676.5 1642.0 676.8" stroke="#F5F0E8" stroke-width="1" stroke-opacity="0.085" fill="none" stroke-linecap="round"/><path d="M -60.0 629.8 C -52.3 630.2 -29.3 631.1 -14.0 632.3 C 1.3 633.4 16.7 634.9 32.0 636.6 C 47.3 638.3 62.7 640.3 78.0 642.5 C 93.3 644.6 108.7 647.0 124.0 649.4 C 139.3 651.8 154.7 654.3 170.0 656.8 C 185.3 659.3 200.7 661.8 216.0 664.1 C 231.3 666.5 246.7 668.8 262.0 670.8 C 277.3 672.8 292.7 674.6 308.0 676.2 C 323.3 677.7 338.7 678.9 354.0 679.8 C 369.3 680.7 384.7 681.3 400.0 681.4 C 415.3 681.6 430.7 681.4 446.0 680.8 C 461.3 680.2 476.7 679.3 492.0 678.0 C 507.3 676.7 522.7 675.1 538.0 673.2 C 553.3 671.3 568.7 669.1 584.0 666.8 C 599.3 664.4 614.7 661.8 630.0 659.2 C 645.3 656.6 660.7 653.8 676.0 651.2 C 691.3 648.5 706.7 645.8 722.0 643.3 C 737.3 640.8 752.7 638.4 768.0 636.3 C 783.3 634.2 798.7 632.2 814.0 630.7 C 829.3 629.1 844.7 627.9 860.0 627.0 C 875.3 626.2 890.7 625.7 906.0 625.7 C 921.3 625.6 936.7 626.0 952.0 626.7 C 967.3 627.5 982.7 628.6 998.0 630.1 C 1013.3 631.6 1028.7 633.6 1044.0 635.7 C 1059.3 637.8 1074.7 640.4 1090.0 643.0 C 1105.3 645.6 1120.7 648.5 1136.0 651.3 C 1151.3 654.2 1166.7 657.2 1182.0 660.1 C 1197.3 663.0 1212.7 666.0 1228.0 668.6 C 1243.3 671.3 1258.7 673.9 1274.0 676.1 C 1289.3 678.3 1304.7 680.4 1320.0 681.9 C 1335.3 683.5 1350.7 684.8 1366.0 685.6 C 1381.3 686.4 1396.7 686.8 1412.0 686.8 C 1427.3 686.7 1442.7 686.2 1458.0 685.3 C 1473.3 684.4 1488.7 683.0 1504.0 681.3 C 1519.3 679.6 1534.7 677.5 1550.0 675.1 C 1565.3 672.8 1580.7 670.0 1596.0 667.2 C 1611.3 664.4 1634.3 659.8 1642.0 658.3" stroke="#C9A96E" stroke-width="1.5" stroke-opacity="0.248" fill="none" stroke-linecap="round"/><path d="M -60.0 679.0 C -52.3 678.2 -29.3 675.9 -14.0 674.5 C 1.3 673.2 16.7 672.0 32.0 671.0 C 47.3 670.1 62.7 669.3 78.0 668.7 C 93.3 668.1 108.7 667.7 124.0 667.6 C 139.3 667.5 154.7 667.6 170.0 667.9 C 185.3 668.2 200.7 668.8 216.0 669.5 C 231.3 670.2 246.7 671.2 262.0 672.3 C 277.3 673.4 292.7 674.7 308.0 676.1 C 323.3 677.5 338.7 679.1 354.0 680.6 C 369.3 682.2 384.7 683.9 400.0 685.5 C 415.3 687.2 430.7 688.9 446.0 690.5 C 461.3 692.0 476.7 693.6 492.0 695.1 C 507.3 696.5 522.7 697.8 538.0 699.0 C 553.3 700.1 568.7 701.1 584.0 701.9 C 599.3 702.7 614.7 703.3 630.0 703.6 C 645.3 703.9 660.7 704.1 676.0 704.0 C 691.3 703.8 706.7 703.5 722.0 702.9 C 737.3 702.3 752.7 701.5 768.0 700.5 C 783.3 699.5 798.7 698.2 814.0 696.9 C 829.3 695.5 844.7 693.9 860.0 692.3 C 875.3 690.7 890.7 688.9 906.0 687.1 C 921.3 685.3 936.7 683.5 952.0 681.7 C 967.3 679.9 982.7 678.0 998.0 676.4 C 1013.3 674.7 1028.7 673.0 1044.0 671.6 C 1059.3 670.1 1074.7 668.8 1090.0 667.6 C 1105.3 666.5 1120.7 665.6 1136.0 664.9 C 1151.3 664.2 1166.7 663.7 1182.0 663.4 C 1197.3 663.2 1212.7 663.2 1228.0 663.4 C 1243.3 663.7 1258.7 664.1 1274.0 664.8 C 1289.3 665.5 1304.7 666.4 1320.0 667.4 C 1335.3 668.5 1350.7 669.8 1366.0 671.1 C 1381.3 672.4 1396.7 674.0 1412.0 675.5 C 1427.3 677.0 1442.7 678.6 1458.0 680.1 C 1473.3 681.7 1488.7 683.3 1504.0 684.8 C 1519.3 686.2 1534.7 687.7 1550.0 688.9 C 1565.3 690.2 1580.7 691.3 1596.0 692.3 C 1611.3 693.2 1634.3 694.2 1642.0 694.5" stroke="#F5F0E8" stroke-width="1" stroke-opacity="0.062" fill="none" stroke-linecap="round"/><path d="M -60.0 723.6 C -52.3 724.2 -29.3 726.2 -14.0 727.4 C 1.3 728.6 16.7 729.8 32.0 730.8 C 47.3 731.9 62.7 732.9 78.0 733.7 C 93.3 734.6 108.7 735.3 124.0 735.9 C 139.3 736.6 154.7 737.0 170.0 737.4 C 185.3 737.8 200.7 738.0 216.0 738.1 C 231.3 738.2 246.7 738.2 262.0 738.1 C 277.3 738.0 292.7 737.7 308.0 737.5 C 323.3 737.2 338.7 736.8 354.0 736.4 C 369.3 736.0 384.7 735.5 400.0 735.0 C 415.3 734.5 430.7 734.0 446.0 733.6 C 461.3 733.1 476.7 732.7 492.0 732.3 C 507.3 732.0 522.7 731.7 538.0 731.5 C 553.3 731.3 568.7 731.1 584.0 731.1 C 599.3 731.2 614.7 731.3 630.0 731.5 C 645.3 731.8 660.7 732.2 676.0 732.7 C 691.3 733.3 706.7 733.9 722.0 734.7 C 737.3 735.6 752.7 736.5 768.0 737.6 C 783.3 738.6 798.7 739.8 814.0 741.1 C 829.3 742.3 844.7 743.7 860.0 745.1 C 875.3 746.6 890.7 748.1 906.0 749.6 C 921.3 751.1 936.7 752.6 952.0 754.2 C 967.3 755.7 982.7 757.2 998.0 758.6 C 1013.3 760.1 1028.7 761.5 1044.0 762.8 C 1059.3 764.1 1074.7 765.4 1090.0 766.5 C 1105.3 767.6 1120.7 768.6 1136.0 769.5 C 1151.3 770.3 1166.7 771.1 1182.0 771.7 C 1197.3 772.3 1212.7 772.7 1228.0 773.0 C 1243.3 773.3 1258.7 773.5 1274.0 773.5 C 1289.3 773.5 1304.7 773.4 1320.0 773.2 C 1335.3 773.1 1350.7 772.7 1366.0 772.4 C 1381.3 772.0 1396.7 771.5 1412.0 771.0 C 1427.3 770.5 1442.7 770.0 1458.0 769.4 C 1473.3 768.9 1488.7 768.3 1504.0 767.8 C 1519.3 767.3 1534.7 766.8 1550.0 766.4 C 1565.3 766.1 1580.7 765.7 1596.0 765.5 C 1611.3 765.3 1634.3 765.2 1642.0 765.2" stroke="#F5F0E8" stroke-width="1" stroke-opacity="0.051" fill="none" stroke-linecap="round"/><path d="M -60.0 776.7 C -52.3 776.1 -29.3 774.8 -14.0 773.4 C 1.3 772.0 16.7 770.2 32.0 768.3 C 47.3 766.4 62.7 764.1 78.0 761.9 C 93.3 759.7 108.7 757.2 124.0 754.9 C 139.3 752.6 154.7 750.3 170.0 748.1 C 185.3 746.0 200.7 743.9 216.0 742.2 C 231.3 740.5 246.7 739.0 262.0 737.9 C 277.3 736.7 292.7 735.9 308.0 735.5 C 323.3 735.1 338.7 735.0 354.0 735.3 C 369.3 735.7 384.7 736.4 400.0 737.4 C 415.3 738.5 430.7 739.9 446.0 741.5 C 461.3 743.1 476.7 745.1 492.0 747.1 C 507.3 749.2 522.7 751.4 538.0 753.6 C 553.3 755.8 568.7 758.2 584.0 760.3 C 599.3 762.5 614.7 764.6 630.0 766.4 C 645.3 768.2 660.7 769.9 676.0 771.3 C 691.3 772.6 706.7 773.6 722.0 774.3 C 737.3 774.9 752.7 775.3 768.0 775.2 C 783.3 775.1 798.7 774.6 814.0 773.8 C 829.3 773.0 844.7 771.8 860.0 770.3 C 875.3 768.9 890.7 767.0 906.0 765.1 C 921.3 763.2 936.7 760.9 952.0 758.7 C 967.3 756.5 982.7 754.1 998.0 751.9 C 1013.3 749.7 1028.7 747.4 1044.0 745.4 C 1059.3 743.4 1074.7 741.5 1090.0 740.0 C 1105.3 738.5 1120.7 737.2 1136.0 736.3 C 1151.3 735.5 1166.7 734.9 1182.0 734.8 C 1197.3 734.8 1212.7 735.1 1228.0 735.8 C 1243.3 736.5 1258.7 737.7 1274.0 739.2 C 1289.3 740.7 1304.7 742.6 1320.0 744.7 C 1335.3 746.9 1350.7 749.4 1366.0 752.0 C 1381.3 754.5 1396.7 757.4 1412.0 760.2 C 1427.3 763.0 1442.7 766.0 1458.0 768.7 C 1473.3 771.5 1488.7 774.3 1504.0 776.7 C 1519.3 779.2 1534.7 781.5 1550.0 783.5 C 1565.3 785.4 1580.7 787.1 1596.0 788.4 C 1611.3 789.6 1634.3 790.6 1642.0 791.0" stroke="#F5F0E8" stroke-width="1" stroke-opacity="0.089" fill="none" stroke-linecap="round"/><path d="M -60.0 798.5 C -52.3 798.9 -29.3 800.1 -14.0 800.7 C 1.3 801.3 16.7 801.8 32.0 802.2 C 47.3 802.5 62.7 802.8 78.0 802.9 C 93.3 803.0 108.7 802.9 124.0 802.8 C 139.3 802.7 154.7 802.4 170.0 802.0 C 185.3 801.7 200.7 801.2 216.0 800.7 C 231.3 800.1 246.7 799.5 262.0 798.8 C 277.3 798.2 292.7 797.4 308.0 796.7 C 323.3 796.0 338.7 795.2 354.0 794.5 C 369.3 793.8 384.7 793.0 400.0 792.4 C 415.3 791.7 430.7 791.1 446.0 790.5 C 461.3 790.0 476.7 789.5 492.0 789.1 C 507.3 788.7 522.7 788.4 538.0 788.2 C 553.3 788.0 568.7 787.9 584.0 787.9 C 599.3 787.9 614.7 788.0 630.0 788.2 C 645.3 788.4 660.7 788.7 676.0 789.1 C 691.3 789.5 706.7 790.0 722.0 790.5 C 737.3 791.1 752.7 791.7 768.0 792.4 C 783.3 793.1 798.7 793.8 814.0 794.6 C 829.3 795.3 844.7 796.1 860.0 796.9 C 875.3 797.6 890.7 798.4 906.0 799.1 C 921.3 799.8 936.7 800.5 952.0 801.1 C 967.3 801.7 982.7 802.3 998.0 802.8 C 1013.3 803.3 1028.7 803.7 1044.0 804.1 C 1059.3 804.4 1074.7 804.6 1090.0 804.8 C 1105.3 804.9 1120.7 805.0 1136.0 804.9 C 1151.3 804.9 1166.7 804.8 1182.0 804.6 C 1197.3 804.4 1212.7 804.1 1228.0 803.7 C 1243.3 803.4 1258.7 802.9 1274.0 802.5 C 1289.3 802.0 1304.7 801.5 1320.0 801.0 C 1335.3 800.5 1350.7 799.9 1366.0 799.4 C 1381.3 798.9 1396.7 798.4 1412.0 797.9 C 1427.3 797.4 1442.7 797.0 1458.0 796.6 C 1473.3 796.2 1488.7 795.9 1504.0 795.7 C 1519.3 795.5 1534.7 795.3 1550.0 795.2 C 1565.3 795.2 1580.7 795.2 1596.0 795.4 C 1611.3 795.5 1634.3 795.9 1642.0 796.1" stroke="#C9A96E" stroke-width="1.5" stroke-opacity="0.169" fill="none" stroke-linecap="round"/><path d="M -60.0 809.3 C -52.3 810.1 -29.3 812.5 -14.0 814.1 C 1.3 815.7 16.7 817.3 32.0 818.8 C 47.3 820.3 62.7 821.8 78.0 823.1 C 93.3 824.5 108.7 825.7 124.0 826.8 C 139.3 827.9 154.7 828.9 170.0 829.7 C 185.3 830.5 200.7 831.1 216.0 831.6 C 231.3 832.1 246.7 832.4 262.0 832.6 C 277.3 832.8 292.7 832.8 308.0 832.7 C 323.3 832.7 338.7 832.4 354.0 832.2 C 369.3 831.9 384.7 831.5 400.0 831.1 C 415.3 830.8 430.7 830.3 446.0 829.9 C 461.3 829.5 476.7 829.0 492.0 828.7 C 507.3 828.3 522.7 827.9 538.0 827.7 C 553.3 827.4 568.7 827.3 584.0 827.2 C 599.3 827.1 614.7 827.1 630.0 827.2 C 645.3 827.4 660.7 827.6 676.0 827.9 C 691.3 828.2 706.7 828.6 722.0 829.1 C 737.3 829.6 752.7 830.2 768.0 830.7 C 783.3 831.3 798.7 832.0 814.0 832.6 C 829.3 833.2 844.7 833.8 860.0 834.4 C 875.3 834.9 890.7 835.4 906.0 835.8 C 921.3 836.2 936.7 836.6 952.0 836.7 C 967.3 836.9 982.7 837.0 998.0 836.8 C 1013.3 836.7 1028.7 836.4 1044.0 836.0 C 1059.3 835.5 1074.7 834.8 1090.0 834.0 C 1105.3 833.2 1120.7 832.2 1136.0 831.0 C 1151.3 829.8 1166.7 828.4 1182.0 827.0 C 1197.3 825.5 1212.7 823.9 1228.0 822.2 C 1243.3 820.5 1258.7 818.6 1274.0 816.8 C 1289.3 815.0 1304.7 813.0 1320.0 811.2 C 1335.3 809.3 1350.7 807.4 1366.0 805.7 C 1381.3 803.9 1396.7 802.1 1412.0 800.5 C 1427.3 798.9 1442.7 797.4 1458.0 796.1 C 1473.3 794.7 1488.7 793.5 1504.0 792.5 C 1519.3 791.5 1534.7 790.7 1550.0 790.0 C 1565.3 789.4 1580.7 788.9 1596.0 788.6 C 1611.3 788.4 1634.3 788.4 1642.0 788.3" stroke="#F5F0E8" stroke-width="1" stroke-opacity="0.055" fill="none" stroke-linecap="round"/><path d="M -60.0 858.6 C -52.3 858.3 -29.3 857.3 -14.0 856.7 C 1.3 856.0 16.7 855.3 32.0 854.6 C 47.3 853.9 62.7 853.1 78.0 852.4 C 93.3 851.6 108.7 850.9 124.0 850.1 C 139.3 849.3 154.7 848.6 170.0 847.8 C 185.3 847.1 200.7 846.3 216.0 845.6 C 231.3 844.9 246.7 844.2 262.0 843.6 C 277.3 843.0 292.7 842.4 308.0 841.9 C 323.3 841.3 338.7 840.9 354.0 840.4 C 369.3 840.0 384.7 839.7 400.0 839.4 C 415.3 839.1 430.7 838.9 446.0 838.8 C 461.3 838.6 476.7 838.6 492.0 838.6 C 507.3 838.6 522.7 838.6 538.0 838.7 C 553.3 838.8 568.7 839.0 584.0 839.2 C 599.3 839.5 614.7 839.7 630.0 840.0 C 645.3 840.3 660.7 840.7 676.0 841.0 C 691.3 841.3 706.7 841.7 722.0 842.0 C 737.3 842.4 752.7 842.7 768.0 843.0 C 783.3 843.3 798.7 843.6 814.0 843.9 C 829.3 844.1 844.7 844.3 860.0 844.4 C 875.3 844.5 890.7 844.6 906.0 844.6 C 921.3 844.6 936.7 844.5 952.0 844.3 C 967.3 844.1 982.7 843.8 998.0 843.5 C 1013.3 843.1 1028.7 842.6 1044.0 842.0 C 1059.3 841.5 1074.7 840.8 1090.0 840.0 C 1105.3 839.3 1120.7 838.4 1136.0 837.5 C 1151.3 836.5 1166.7 835.5 1182.0 834.4 C 1197.3 833.3 1212.7 832.1 1228.0 830.9 C 1243.3 829.7 1258.7 828.3 1274.0 827.0 C 1289.3 825.7 1304.7 824.3 1320.0 823.0 C 1335.3 821.6 1350.7 820.2 1366.0 818.8 C 1381.3 817.5 1396.7 816.1 1412.0 814.8 C 1427.3 813.4 1442.7 812.1 1458.0 810.9 C 1473.3 809.6 1488.7 808.4 1504.0 807.3 C 1519.3 806.2 1534.7 805.1 1550.0 804.1 C 1565.3 803.1 1580.7 802.2 1596.0 801.4 C 1611.3 800.6 1634.3 799.7 1642.0 799.3" stroke="#F5F0E8" stroke-width="1" stroke-opacity="0.064" fill="none" stroke-linecap="round"/><path d="M -60.0 911.2 C -52.3 910.7 -29.3 909.4 -14.0 908.3 C 1.3 907.1 16.7 905.7 32.0 904.1 C 47.3 902.6 62.7 900.9 78.0 899.2 C 93.3 897.4 108.7 895.5 124.0 893.6 C 139.3 891.7 154.7 889.8 170.0 887.9 C 185.3 886.0 200.7 884.1 216.0 882.3 C 231.3 880.6 246.7 878.8 262.0 877.3 C 277.3 875.7 292.7 874.2 308.0 872.9 C 323.3 871.6 338.7 870.5 354.0 869.5 C 369.3 868.6 384.7 867.8 400.0 867.1 C 415.3 866.5 430.7 866.0 446.0 865.7 C 461.3 865.4 476.7 865.2 492.0 865.2 C 507.3 865.1 522.7 865.2 538.0 865.4 C 553.3 865.5 568.7 865.8 584.0 866.0 C 599.3 866.3 614.7 866.7 630.0 867.0 C 645.3 867.3 660.7 867.6 676.0 867.9 C 691.3 868.2 706.7 868.4 722.0 868.6 C 737.3 868.8 752.7 868.9 768.0 868.9 C 783.3 868.9 798.7 868.8 814.0 868.7 C 829.3 868.5 844.7 868.2 860.0 867.8 C 875.3 867.4 890.7 866.9 906.0 866.4 C 921.3 865.8 936.7 865.2 952.0 864.5 C 967.3 863.7 982.7 862.9 998.0 862.1 C 1013.3 861.3 1028.7 860.4 1044.0 859.6 C 1059.3 858.7 1074.7 857.8 1090.0 857.0 C 1105.3 856.1 1120.7 855.3 1136.0 854.5 C 1151.3 853.7 1166.7 852.9 1182.0 852.2 C 1197.3 851.5 1212.7 850.8 1228.0 850.2 C 1243.3 849.6 1258.7 849.1 1274.0 848.6 C 1289.3 848.1 1304.7 847.7 1320.0 847.3 C 1335.3 846.9 1350.7 846.6 1366.0 846.3 C 1381.3 846.0 1396.7 845.7 1412.0 845.5 C 1427.3 845.2 1442.7 844.9 1458.0 844.6 C 1473.3 844.3 1488.7 844.0 1504.0 843.7 C 1519.3 843.3 1534.7 842.9 1550.0 842.4 C 1565.3 842.0 1580.7 841.5 1596.0 840.8 C 1611.3 840.2 1634.3 839.1 1642.0 838.8" stroke="#F5F0E8" stroke-width="1" stroke-opacity="0.080" fill="none" stroke-linecap="round"/><path d="M -60.0 906.7 C -52.3 907.2 -29.3 908.4 -14.0 909.5 C 1.3 910.6 16.7 911.9 32.0 913.3 C 47.3 914.6 62.7 916.1 78.0 917.7 C 93.3 919.2 108.7 920.8 124.0 922.3 C 139.3 923.8 154.7 925.4 170.0 926.9 C 185.3 928.3 200.7 929.7 216.0 931.0 C 231.3 932.3 246.7 933.5 262.0 934.5 C 277.3 935.5 292.7 936.4 308.0 937.1 C 323.3 937.8 338.7 938.3 354.0 938.7 C 369.3 939.1 384.7 939.3 400.0 939.4 C 415.3 939.5 430.7 939.4 446.0 939.2 C 461.3 938.9 476.7 938.6 492.0 938.2 C 507.3 937.8 522.7 937.2 538.0 936.6 C 553.3 936.1 568.7 935.4 584.0 934.8 C 599.3 934.2 614.7 933.5 630.0 932.9 C 645.3 932.3 660.7 931.6 676.0 931.1 C 691.3 930.6 706.7 930.0 722.0 929.6 C 737.3 929.2 752.7 928.8 768.0 928.5 C 783.3 928.3 798.7 928.1 814.0 927.9 C 829.3 927.8 844.7 927.8 860.0 927.8 C 875.3 927.8 890.7 927.9 906.0 928.0 C 921.3 928.1 936.7 928.3 952.0 928.4 C 967.3 928.6 982.7 928.8 998.0 929.0 C 1013.3 929.1 1028.7 929.3 1044.0 929.4 C 1059.3 929.5 1074.7 929.6 1090.0 929.7 C 1105.3 929.7 1120.7 929.7 1136.0 929.6 C 1151.3 929.5 1166.7 929.3 1182.0 929.1 C 1197.3 928.9 1212.7 928.6 1228.0 928.2 C 1243.3 927.9 1258.7 927.4 1274.0 927.0 C 1289.3 926.5 1304.7 926.0 1320.0 925.5 C 1335.3 924.9 1350.7 924.4 1366.0 923.8 C 1381.3 923.3 1396.7 922.7 1412.0 922.2 C 1427.3 921.8 1442.7 921.3 1458.0 920.9 C 1473.3 920.5 1488.7 920.2 1504.0 920.0 C 1519.3 919.8 1534.7 919.7 1550.0 919.7 C 1565.3 919.7 1580.7 919.8 1596.0 920.0 C 1611.3 920.2 1634.3 920.9 1642.0 921.1" stroke="#C9A96E" stroke-width="1.5" stroke-opacity="0.214" fill="none" stroke-linecap="round"/><path d="M -60.0 971.7 C -52.3 971.7 -29.3 971.7 -14.0 971.6 C 1.3 971.5 16.7 971.3 32.0 970.9 C 47.3 970.5 62.7 970.1 78.0 969.4 C 93.3 968.8 108.7 968.0 124.0 967.1 C 139.3 966.2 154.7 965.1 170.0 963.9 C 185.3 962.7 200.7 961.3 216.0 959.8 C 231.3 958.3 246.7 956.7 262.0 955.0 C 277.3 953.3 292.7 951.5 308.0 949.7 C 323.3 947.9 338.7 945.9 354.0 944.1 C 369.3 942.2 384.7 940.3 400.0 938.4 C 415.3 936.6 430.7 934.8 446.0 933.1 C 461.3 931.4 476.7 929.8 492.0 928.3 C 507.3 926.9 522.7 925.5 538.0 924.3 C 553.3 923.1 568.7 922.1 584.0 921.2 C 599.3 920.4 614.7 919.7 630.0 919.1 C 645.3 918.6 660.7 918.2 676.0 918.0 C 691.3 917.8 706.7 917.7 722.0 917.7 C 737.3 917.8 752.7 918.0 768.0 918.2 C 783.3 918.4 798.7 918.7 814.0 919.1 C 829.3 919.4 844.7 919.8 860.0 920.1 C 875.3 920.4 890.7 920.8 906.0 921.0 C 921.3 921.2 936.7 921.4 952.0 921.4 C 967.3 921.5 982.7 921.4 998.0 921.2 C 1013.3 921.0 1028.7 920.6 1044.0 920.1 C 1059.3 919.6 1074.7 918.9 1090.0 918.1 C 1105.3 917.2 1120.7 916.2 1136.0 915.1 C 1151.3 914.0 1166.7 912.7 1182.0 911.3 C 1197.3 909.9 1212.7 908.3 1228.0 906.8 C 1243.3 905.2 1258.7 903.5 1274.0 901.8 C 1289.3 900.2 1304.7 898.4 1320.0 896.8 C 1335.3 895.1 1350.7 893.5 1366.0 891.9 C 1381.3 890.4 1396.7 888.9 1412.0 887.5 C 1427.3 886.2 1442.7 885.0 1458.0 883.9 C 1473.3 882.9 1488.7 882.0 1504.0 881.2 C 1519.3 880.5 1534.7 880.0 1550.0 879.6 C 1565.3 879.3 1580.7 879.1 1596.0 879.1 C 1611.3 879.1 1634.3 879.5 1642.0 879.5" stroke="#F5F0E8" stroke-width="1" stroke-opacity="0.074" fill="none" stroke-linecap="round"/></g>
<path d="M -60.0 455.1 C -52.3 455.4 -29.3 456.5 -14.0 457.2 C 1.3 457.9 16.7 458.6 32.0 459.3 C 47.3 460.0 62.7 460.6 78.0 461.3 C 93.3 462.0 108.7 462.6 124.0 463.2 C 139.3 463.8 154.7 464.4 170.0 464.9 C 185.3 465.4 200.7 465.9 216.0 466.3 C 231.3 466.8 246.7 467.1 262.0 467.5 C 277.3 467.8 292.7 468.1 308.0 468.4 C 323.3 468.6 338.7 468.8 354.0 468.9 C 369.3 469.1 384.7 469.2 400.0 469.2 C 415.3 469.3 430.7 469.3 446.0 469.3 C 461.3 469.3 476.7 469.3 492.0 469.3 C 507.3 469.2 522.7 469.2 538.0 469.1 C 553.3 469.0 568.7 469.0 584.0 468.9 C 599.3 468.8 614.7 468.8 630.0 468.8 C 645.3 468.7 660.7 468.7 676.0 468.7 C 691.3 468.7 706.7 468.8 722.0 468.8 C 737.3 468.9 752.7 469.0 768.0 469.2 C 783.3 469.3 798.7 469.5 814.0 469.7 C 829.3 469.9 844.7 470.2 860.0 470.5 C 875.3 470.8 890.7 471.1 906.0 471.5 C 921.3 471.9 936.7 472.3 952.0 472.7 C 967.3 473.1 982.7 473.5 998.0 474.0 C 1013.3 474.4 1028.7 474.9 1044.0 475.4 C 1059.3 475.8 1074.7 476.3 1090.0 476.7 C 1105.3 477.2 1120.7 477.6 1136.0 478.0 C 1151.3 478.5 1166.7 478.9 1182.0 479.2 C 1197.3 479.6 1212.7 479.9 1228.0 480.2 C 1243.3 480.5 1258.7 480.8 1274.0 481.0 C 1289.3 481.2 1304.7 481.3 1320.0 481.5 C 1335.3 481.6 1350.7 481.6 1366.0 481.7 C 1381.3 481.7 1396.7 481.7 1412.0 481.6 C 1427.3 481.6 1442.7 481.5 1458.0 481.4 C 1473.3 481.2 1488.7 481.1 1504.0 480.9 C 1519.3 480.7 1534.7 480.5 1550.0 480.3 C 1565.3 480.1 1580.7 479.9 1596.0 479.7 C 1611.3 479.5 1634.3 479.2 1642.0 479.1" stroke="#C9A96E" stroke-width="2" stroke-opacity="0.5" fill="none" stroke-linecap="round"/>
<rect width="1600" height="900" fill="url(#vig)"/>
<rect width="1600" height="900" filter="url(#grain)" opacity="0.05"/>
</svg>