<svg xmlns="http://www.w3.org/2000/svg" viewBox="0 0 1600 900" preserveAspectRatio="xMidYMid slice">
<defs>
<linearGradient id="bg" x1="0" y1="0" x2="0" y2="1"><stop offset="0" stop-color="#0b160f"/><stop offset="1" stop-color="#15271b"/></linearGradient>
<radialGradient id="glow" cx="0.588" cy="0.166" r="0.75"><stop offset="0" stop-color="#C9A96E" stop-opacity="0.15"/><stop offset="1" stop-color="#C9A96E" stop-opacity="0"/></radialGradient>
<radialGradient id="vig" cx="0.5" cy="0.5" r="0.75"><stop offset="0.5" stop-color="#000" stop-opacity="0"/><stop offset="1" stop-color="#000" stop-opacity="0.5"/></radialGradient>
<filter id="grain"><feTurbulence type="fractalNoise" baseFrequency="0.9" numOctaves="2" stitchTiles="stitch"/><feColorMatrix type="matrix" values="0 0 0 0 0 0 0 0 0 0 0 0 0 0 0 0 0 0 0.55 0"/></filter>
</defs>
<rect width="1600" height="900" fill="url(#bg)"/>
<rect width="1600" height="900" fill="url(#glow)"/>
<path d="M -60.0 528.2 C -52.3 529.1 -29.3 532.1 -14.0 533.9 C 1.3 535.8 16.7 537.5 32.0 539.1 C 47.3 540.7 62.7 542.2 78.0 543.4 C 93.3 544.6 108.7 545.7 124.0 546.5 C 139.3 547.4 154.7 548.0 170.0 548.5 C 185.3 548.9 200.7 549.1 216.0 549.2 C 231.3 549.2 246.7 549.1 262.0 548.8 C 277.3 548.5 292.7 548.1 308.0 547.5 C 323.3 547.0 338.7 546.4 354.0 545.8 C 369.3 545.1 384.7 544.4 400.0 543.7 C 415.3 543.1 430.7 542.4 446.0 541.8 C 461.3 541.3 476.7 540.7 492.0 540.3 C 507.3 539.9 522.7 539.6 538.0 539.4 C 553.3 539.2 568.7 539.1 584.0 539.2 C 599.3 539.2 614.7 539.4 630.0 539.7 C 645.3 540.0 660.7 540.4 676.0 540.8 C 691.3 541.3 706.7 541.8 722.0 542.3 C 737.3 542.9 752.7 543.5 768.0 544.0 C 783.3 544.5 798.7 545.0 814.0 545.4 C 829.3 545.8 844.7 546.2 860.0 546.3 C 875.3 546.4 890.7 546.5 906.0 546.3 C 921.3 546.1 936.7 545.7 952.0 545.1 C 967.3 544.5 982.7 543.6 998.0 542.6 C 1013.3 541.5 1028.7 540.2 1044.0 538.7 C 1059.3 537.2 1074.7 535.4 1090.0 533.5 C 1105.3 531.5 1120.7 529.4 1136.0 527.2 C 1151.3 524.9 1166.7 522.5 1182.0 520.0 C 1197.3 517.6 1212.7 515.1 1228.0 512.6 C 1243.3 510.1 1258.7 507.6 1274.0 505.2 C 1289.3 502.8 1304.7 500.5 1320.0 498.4 C 1335.3 496.3 1350.7 494.4 1366.0 492.7 C 1381.3 491.1 1396.7 489.6 1412.0 488.5 C 1427.3 487.4 1442.7 486.6 1458.0 486.1 C 1473.3 485.6 1488.7 485.5 1504.0 485.6 C 1519.3 485.8 1534.7 486.4 1550.0 487.2 C 1565.3 488.1 1580.7 489.3 1596.0 490.7 C 1611.3 492.2 1631.3 417.7 1642.0 495.9 C 1652.7 574.1 1943.7 882.6 1660.0 960.0 C 1376.3 1037.4 226.7 960.0 -60.0 960.0 Z" fill="#C9A96E" fill-opacity="0.028"/>
<g><path d="M -60.0 -62.5 C -52.3 -62.3 -29.3 -61.7 -14.0 -61.4 C 1.3 -61.0 16.7 -60.7 32.0 -60.4 C 47.3 -60.1 62.7 -59.8 78.0 -59.7 C 93.3 -59.5 108.7 -59.5 124.0 -59.5 C 139.3 -59.5 154.7 -59.7 170.0 -59.9 C 185.3 -60.2 200.7 -60.6 216.0 -61.1 C 231.3 -61.6 246.7 -62.3 262.0 -63.1 C 277.3 -63.8 292.7 -64.7 308.0 -65.7 C 323.3 -66.7 338.7 -67.8 354.0 -69.0 C 369.3 -70.2 384.7 -71.5 400.0 -72.8 C 415.3 -74.1 430.7 -75.5 446.0 -76.9 C 461.3 -78.2 476.7 -79.7 492.0 -81.0 C 507.3 -82.4 522.7 -83.8 538.0 -85.1 C 553.3 -86.4 568.7 -87.6 584.0 -88.8 C 599.3 -89.9 614.7 -91.0 630.0 -92.0 C 645.3 -93.0 660.7 -93.9 676.0 -94.7 C 691.3 -95.5 706.7 -96.1 722.0 -96.7 C 737.3 -97.3 752.7 -97.8 768.0 -98.1 C 783.3 -98.5 798.7 -98.8 814.0 -99.0 C 829.3 -99.2 844.7 -99.4 860.0 -99.5 C 875.3 -99.6 890.7 -99.6 906.0 -99.7 C 921.3 -99.8 936.7 -99.8 952.0 -99.9 C 967.3 -99.9 982.7 -100.0 998.0 -100.1 C 1013.3 -100.2 1028.7 -100.4 1044.0 -100.7 C 1059.3 -100.9 1074.7 -101.2 1090.0 -101.6 C 1105.3 -102.0 1120.7 -102.5 1136.0 -103.1 C 1151.3 -103.7 1166.7 -104.4 1182.0 -105.1 C 1197.3 -105.9 1212.7 -106.7 1228.0 -107.6 C 1243.3 -108.6 1258.7 -109.6 1274.0 -110.6 C 1289.3 -111.6 1304.7 -112.8 1320.0 -113.9 C 1335.3 -115.0 1350.7 -116.1 1366.0 -117.3 C 1381.3 -118.4 1396.7 -119.5 1412.0 -120.6 C 1427.3 -121.7 1442.7 -122.7 1458.0 -123.7 C 1473.3 -124.7 1488.7 -125.6 1504.0 -126.4 C 1519.3 -127.2 1534.7 -127.9 1550.0 -128.6 C 1565.3 -129.2 1580.7 -129.7 1596.0 -130.1 C 1611.3 -130.5 1634.3 -130.9 1642.0 -131.0" stroke="#F5F0E8" stroke-width="1" stroke-opacity="0.047" fill="none" stroke-linecap="round"/><path d="M -60.0 -9.3 C -52.3 -9.9 -29.3 -11.7 -14.0 -13.1 C 1.3 -14.5 16.7 -16.1 32.0 -17.8 C 47.3 -19.4 62.7 -21.2 78.0 -23.1 C 93.3 -24.9 108.7 -26.9 124.0 -28.9 C 139.3 -30.9 154.7 -32.9 170.0 -34.9 C 185.3 -37.0 200.7 -39.0 216.0 -41.0 C 231.3 -43.0 246.7 -45.0 262.0 -46.9 C 277.3 -48.7 292.7 -50.5 308.0 -52.2 C 323.3 -53.9 338.7 -55.4 354.0 -56.8 C 369.3 -58.2 384.7 -59.5 400.0 -60.5 C 415.3 -61.6 430.7 -62.5 446.0 -63.2 C 461.3 -64.0 476.7 -64.5 492.0 -64.8 C 507.3 -65.2 522.7 -65.3 538.0 -65.3 C 553.3 -65.3 568.7 -65.0 584.0 -64.7 C 599.3 -64.3 614.7 -63.8 630.0 -63.1 C 645.3 -62.5 660.7 -61.7 676.0 -60.8 C 691.3 -59.9 706.7 -58.9 722.0 -57.9 C 737.3 -56.9 752.7 -55.8 768.0 -54.7 C 783.3 -53.6 798.7 -52.5 814.0 -51.4 C 829.3 -50.4 844.7 -49.3 860.0 -48.4 C 875.3 -47.5 890.7 -46.6 906.0 -45.8 C 921.3 -45.1 936.7 -44.4 952.0 -43.9 C 967.3 -43.4 982.7 -43.1 998.0 -42.9 C 1013.3 -42.7 1028.7 -42.7 1044.0 -42.9 C 1059.3 -43.0 1074.7 -43.4 1090.0 -43.9 C 1105.3 -44.4 1120.7 -45.1 1136.0 -45.9 C 1151.3 -46.8 1166.7 -47.8 1182.0 -49.0 C 1197.3 -50.1 1212.7 -51.5 1228.0 -52.9 C 1243.3 -54.3 1258.7 -55.8 1274.0 -57.5 C 1289.3 -59.1 1304.7 -60.8 1320.0 -62.5 C 1335.3 -64.2 1350.7 -66.1 1366.0 -67.8 C 1381.3 -69.6 1396.7 -71.4 1412.0 -73.1 C 1427.3 -74.9 1442.7 -76.6 1458.0 -78.2 C 1473.3 -79.9 1488.7 -81.4 1504.0 -82.9 C 1519.3 -84.4 1534.7 -85.7 1550.0 -87.0 C 1565.3 -88.2 1580.7 -89.3 1596.0 -90.3 C 1611.3 -91.3 1634.3 -92.5 1642.0 -92.9" stroke="#F5F0E8" stroke-width="1.5" stroke-opacity="0.245" fill="none" stroke-linecap="round"/><path d="M -60.0 15.9 C -52.3 16.4 -29.3 18.1 -14.0 19.0 C 1.3 19.9 16.7 20.6 32.0 21.1 C 47.3 21.6 62.7 21.9 78.0 22.0 C 93.3 22.1 108.7 21.9 124.0 21.5 C 139.3 21.1 154.7 20.5 170.0 19.6 C 185.3 18.8 200.7 17.7 216.0 16.5 C 231.3 15.3 246.7 13.8 262.0 12.3 C 277.3 10.8 292.7 9.0 308.0 7.3 C 323.3 5.6 338.7 3.8 354.0 2.1 C 369.3 0.3 384.7 -1.5 400.0 -3.1 C 415.3 -4.7 430.7 -6.3 446.0 -7.7 C 461.3 -9.1 476.7 -10.4 492.0 -11.5 C 507.3 -12.5 522.7 -13.4 538.0 -14.0 C 553.3 -14.5 568.7 -14.9 584.0 -15.0 C 599.3 -15.1 614.7 -14.9 630.0 -14.5 C 645.3 -14.1 660.7 -13.3 676.0 -12.4 C 691.3 -11.5 706.7 -10.3 722.0 -9.0 C 737.3 -7.7 752.7 -6.1 768.0 -4.4 C 783.3 -2.8 798.7 -0.9 814.0 0.9 C 829.3 2.7 844.7 4.7 860.0 6.6 C 875.3 8.5 890.7 10.4 906.0 12.2 C 921.3 14.0 936.7 15.8 952.0 17.3 C 967.3 18.9 982.7 20.3 998.0 21.6 C 1013.3 22.8 1028.7 23.8 1044.0 24.6 C 1059.3 25.4 1074.7 25.9 1090.0 26.2 C 1105.3 26.5 1120.7 26.6 1136.0 26.4 C 1151.3 26.2 1166.7 25.8 1182.0 25.1 C 1197.3 24.5 1212.7 23.6 1228.0 22.6 C 1243.3 21.6 1258.7 20.4 1274.0 19.1 C 1289.3 17.9 1304.7 16.4 1320.0 15.0 C 1335.3 13.6 1350.7 12.1 1366.0 10.7 C 1381.3 9.3 1396.7 7.9 1412.0 6.6 C 1427.3 5.3 1442.7 4.1 1458.0 3.0 C 1473.3 2.0 1488.7 1.1 1504.0 0.5 C 1519.3 -0.2 1534.7 -0.7 1550.0 -0.9 C 1565.3 -1.2 1580.7 -1.2 1596.0 -1.0 C 1611.3 -0.8 1634.3 0.1 1642.0 0.3" stroke="#F5F0E8" stroke-width="1" stroke-opacity="0.074" fill="none" stroke-linecap="round"/><path d="M -60.0 57.6 C -52.3 57.7 -29.3 58.4 -14.0 58.5 C 1.3 58.7 16.7 58.6 32.0 58.4 C 47.3 58.1 62.7 57.7 78.0 57.2 C 93.3 56.6 108.7 55.9 124.0 55.1 C 139.3 54.3 154.7 53.3 170.0 52.4 C 185.3 51.4 200.7 50.4 216.0 49.4 C 231.3 48.4 246.7 47.4 262.0 46.4 C 277.3 45.5 292.7 44.6 308.0 43.8 C 323.3 43.1 338.7 42.4 354.0 41.9 C 369.3 41.4 384.7 41.0 400.0 40.8 C 415.3 40.7 430.7 40.7 446.0 40.9 C 461.3 41.1 476.7 41.5 492.0 42.1 C 507.3 42.7 522.7 43.5 538.0 44.5 C 553.3 45.4 568.7 46.6 584.0 47.9 C 599.3 49.2 614.7 50.6 630.0 52.2 C 645.3 53.7 660.7 55.4 676.0 57.0 C 691.3 58.7 706.7 60.5 722.0 62.2 C 737.3 63.8 752.7 65.6 768.0 67.2 C 783.3 68.8 798.7 70.4 814.0 71.8 C 829.3 73.2 844.7 74.5 860.0 75.7 C 875.3 76.8 890.7 77.7 906.0 78.5 C 921.3 79.2 936.7 79.8 952.0 80.2 C 967.3 80.5 982.7 80.6 998.0 80.5 C 1013.3 80.4 1028.7 80.1 1044.0 79.6 C 1059.3 79.1 1074.7 78.4 1090.0 77.6 C 1105.3 76.7 1120.7 75.7 1136.0 74.6 C 1151.3 73.5 1166.7 72.2 1182.0 70.9 C 1197.3 69.7 1212.7 68.3 1228.0 67.0 C 1243.3 65.6 1258.7 64.3 1274.0 63.1 C 1289.3 61.8 1304.7 60.6 1320.0 59.6 C 1335.3 58.6 1350.7 57.7 1366.0 57.0 C 1381.3 56.3 1396.7 55.7 1412.0 55.4 C 1427.3 55.1 1442.7 55.0 1458.0 55.2 C 1473.3 55.4 1488.7 55.8 1504.0 56.4 C 1519.3 57.1 1534.7 58.0 1550.0 59.1 C 1565.3 60.2 1580.7 61.6 1596.0 63.1 C 1611.3 64.6 1634.3 67.4 1642.0 68.2" stroke="#F5F0E8" stroke-width="1" stroke-opacity="0.049" fill="none" stroke-linecap="round"/><path d="M -60.0 81.6 C -52.3 81.3 -29.3 80.6 -14.0 80.2 C 1.3 79.7 16.7 79.3 32.0 78.9 C 47.3 78.5 62.7 78.1 78.0 77.8 C 93.3 77.5 108.7 77.2 124.0 77.0 C 139.3 76.8 154.7 76.7 170.0 76.6 C 185.3 76.6 200.7 76.6 216.0 76.6 C 231.3 76.7 246.7 76.9 262.0 77.1 C 277.3 77.3 292.7 77.6 308.0 77.9 C 323.3 78.2 338.7 78.6 354.0 79.0 C 369.3 79.5 384.7 79.9 400.0 80.4 C 415.3 80.9 430.7 81.4 446.0 81.9 C 461.3 82.5 476.7 83.0 492.0 83.5 C 507.3 84.0 522.7 84.5 538.0 84.9 C 553.3 85.4 568.7 85.8 584.0 86.1 C 599.3 86.5 614.7 86.8 630.0 87.1 C 645.3 87.3 660.7 87.5 676.0 87.7 C 691.3 87.8 706.7 87.9 722.0 87.9 C 737.3 87.9 752.7 87.8 768.0 87.7 C 783.3 87.5 798.7 87.3 814.0 87.1 C 829.3 86.9 844.7 86.6 860.0 86.3 C 875.3 86.0 890.7 85.6 906.0 85.2 C 921.3 84.9 936.7 84.5 952.0 84.1 C 967.3 83.7 982.7 83.4 998.0 83.0 C 1013.3 82.7 1028.7 82.3 1044.0 82.1 C 1059.3 81.8 1074.7 81.5 1090.0 81.4 C 1105.3 81.2 1120.7 81.1 1136.0 81.0 C 1151.3 81.0 1166.7 81.0 1182.0 81.1 C 1197.3 81.2 1212.7 81.4 1228.0 81.6 C 1243.3 81.8 1258.7 82.2 1274.0 82.5 C 1289.3 82.9 1304.7 83.4 1320.0 83.9 C 1335.3 84.4 1350.7 85.0 1366.0 85.5 C 1381.3 86.1 1396.7 86.8 1412.0 87.4 C 1427.3 88.1 1442.7 88.7 1458.0 89.4 C 1473.3 90.0 1488.7 90.7 1504.0 91.3 C 1519.3 91.9 1534.7 92.4 1550.0 92.9 C 1565.3 93.5 1580.7 93.9 1596.0 94.3 C 1611.3 94.7 1634.3 95.0 1642.0 95.2" stroke="#F5F0E8" stroke-width="1" stroke-opacity="0.085" fill="none" stroke-linecap="round"/><path d="M -60.0 90.2 C -52.3 90.8 -29.3 92.5 -14.0 93.9 C 1.3 95.2 16.7 96.7 32.0 98.2 C 47.3 99.8 62.7 101.5 78.0 103.2 C 93.3 104.9 108.7 106.8 124.0 108.7 C 139.3 110.6 154.7 112.6 170.0 114.6 C 185.3 116.6 200.7 118.6 216.0 120.7 C 231.3 122.8 246.7 124.9 262.0 127.0 C 277.3 129.1 292.7 131.2 308.0 133.3 C 323.3 135.3 338.7 137.4 354.0 139.4 C 369.3 141.4 384.7 143.3 400.0 145.2 C 415.3 147.1 430.7 148.9 446.0 150.6 C 461.3 152.3 476.7 153.9 492.0 155.5 C 507.3 157.0 522.7 158.4 538.0 159.7 C 553.3 161.0 568.7 162.2 584.0 163.3 C 599.3 164.3 614.7 165.3 630.0 166.1 C 645.3 166.9 660.7 167.6 676.0 168.1 C 691.3 168.7 706.7 169.1 722.0 169.4 C 737.3 169.7 752.7 169.8 768.0 169.9 C 783.3 169.9 798.7 169.8 814.0 169.6 C 829.3 169.5 844.7 169.2 860.0 168.8 C 875.3 168.4 890.7 167.9 906.0 167.4 C 921.3 166.8 936.7 166.2 952.0 165.5 C 967.3 164.8 982.7 164.1 998.0 163.3 C 1013.3 162.5 1028.7 161.7 1044.0 160.9 C 1059.3 160.1 1074.7 159.3 1090.0 158.5 C 1105.3 157.7 1120.7 156.9 1136.0 156.1 C 1151.3 155.4 1166.7 154.7 1182.0 154.0 C 1197.3 153.4 1212.7 152.7 1228.0 152.2 C 1243.3 151.7 1258.7 151.2 1274.0 150.9 C 1289.3 150.5 1304.7 150.2 1320.0 150.1 C 1335.3 149.9 1350.7 149.9 1366.0 149.9 C 1381.3 150.0 1396.7 150.2 1412.0 150.5 C 1427.3 150.8 1442.7 151.2 1458.0 151.8 C 1473.3 152.3 1488.7 153.0 1504.0 153.8 C 1519.3 154.6 1534.7 155.5 1550.0 156.5 C 1565.3 157.6 1580.7 158.7 1596.0 160.0 C 1611.3 161.3 1634.3 163.4 1642.0 164.1" stroke="#F5F0E8" stroke-width="1.5" stroke-opacity="0.188" fill="none" stroke-linecap="round"/><path d="M -60.0 170.9 C -52.3 170.7 -29.3 170.2 -14.0 169.7 C 1.3 169.2 16.7 168.7 32.0 168.0 C 47.3 167.3 62.7 166.6 78.0 165.7 C 93.3 164.8 108.7 163.9 124.0 162.8 C 139.3 161.7 154.7 160.6 170.0 159.3 C 185.3 158.0 200.7 156.6 216.0 155.2 C 231.3 153.7 246.7 152.2 262.0 150.5 C 277.3 148.9 292.7 147.2 308.0 145.4 C 323.3 143.6 338.7 141.8 354.0 139.9 C 369.3 137.9 384.7 136.0 400.0 134.0 C 415.3 132.0 430.7 129.9 446.0 127.9 C 461.3 125.8 476.7 123.8 492.0 121.7 C 507.3 119.6 522.7 117.6 538.0 115.5 C 553.3 113.5 568.7 111.5 584.0 109.5 C 599.3 107.6 614.7 105.6 630.0 103.8 C 645.3 102.0 660.7 100.2 676.0 98.5 C 691.3 96.8 706.7 95.2 722.0 93.7 C 737.3 92.2 752.7 90.8 768.0 89.5 C 783.3 88.2 798.7 87.1 814.0 86.0 C 829.3 85.0 844.7 84.1 860.0 83.3 C 875.3 82.5 890.7 81.9 906.0 81.4 C 921.3 80.9 936.7 80.5 952.0 80.3 C 967.3 80.1 982.7 80.0 998.0 80.0 C 1013.3 80.1 1028.7 80.3 1044.0 80.6 C 1059.3 80.8 1074.7 81.3 1090.0 81.8 C 1105.3 82.3 1120.7 83.0 1136.0 83.8 C 1151.3 84.5 1166.7 85.4 1182.0 86.3 C 1197.3 87.2 1212.7 88.2 1228.0 89.3 C 1243.3 90.3 1258.7 91.5 1274.0 92.6 C 1289.3 93.8 1304.7 95.0 1320.0 96.2 C 1335.3 97.5 1350.7 98.7 1366.0 100.0 C 1381.3 101.2 1396.7 102.5 1412.0 103.7 C 1427.3 104.9 1442.7 106.1 1458.0 107.2 C 1473.3 108.4 1488.7 109.5 1504.0 110.5 C 1519.3 111.6 1534.7 112.6 1550.0 113.5 C 1565.3 114.4 1580.7 115.2 1596.0 115.9 C 1611.3 116.7 1634.3 117.6 1642.0 117.9" stroke="#F5F0E8" stroke-width="1" stroke-opacity="0.071" fill="none" stroke-linecap="round"/><path d="M -60.0 184.5 C -52.3 185.6 -29.3 189.2 -14.0 191.5 C 1.3 193.8 16.7 196.0 32.0 198.1 C 47.3 200.2 62.7 202.3 78.0 204.1 C 93.3 205.9 108.7 207.6 124.0 209.0 C 139.3 210.5 154.7 211.7 170.0 212.8 C 185.3 213.8 200.7 214.6 216.0 215.2 C 231.3 215.8 246.7 216.2 262.0 216.3 C 277.3 216.5 292.7 216.4 308.0 216.1 C 323.3 215.9 338.7 215.4 354.0 214.9 C 369.3 214.3 384.7 213.5 400.0 212.7 C 415.3 211.9 430.7 210.9 446.0 210.0 C 461.3 209.1 476.7 208.0 492.0 207.1 C 507.3 206.1 522.7 205.1 538.0 204.3 C 553.3 203.4 568.7 202.6 584.0 202.0 C 599.3 201.4 614.7 200.9 630.0 200.6 C 645.3 200.3 660.7 200.1 676.0 200.2 C 691.3 200.3 706.7 200.6 722.0 201.2 C 737.3 201.7 752.7 202.5 768.0 203.5 C 783.3 204.5 798.7 205.8 814.0 207.2 C 829.3 208.7 844.7 210.4 860.0 212.2 C 875.3 214.0 890.7 216.1 906.0 218.3 C 921.3 220.4 936.7 222.8 952.0 225.2 C 967.3 227.6 982.7 230.1 998.0 232.6 C 1013.3 235.0 1028.7 237.6 1044.0 240.0 C 1059.3 242.5 1074.7 245.0 1090.0 247.3 C 1105.3 249.6 1120.7 251.8 1136.0 253.9 C 1151.3 255.9 1166.7 257.8 1182.0 259.5 C 1197.3 261.2 1212.7 262.7 1228.0 264.0 C 1243.3 265.2 1258.7 266.2 1274.0 267.0 C 1289.3 267.8 1304.7 268.4 1320.0 268.7 C 1335.3 269.0 1350.7 269.0 1366.0 268.9 C 1381.3 268.8 1396.7 268.4 1412.0 267.9 C 1427.3 267.4 1442.7 266.6 1458.0 265.8 C 1473.3 265.0 1488.7 264.0 1504.0 263.0 C 1519.3 262.0 1534.7 260.8 1550.0 259.7 C 1565.3 258.7 1580.7 257.5 1596.0 256.5 C 1611.3 255.5 1634.3 254.2 1642.0 253.7" stroke="#F5F0E8" stroke-width="1" stroke-opacity="0.079" fill="none" stroke-linecap="round"/><path d="M -60.0 227.5 C -52.3 227.8 -29.3 228.9 -14.0 229.4 C 1.3 229.9 16.7 230.3 32.0 230.5 C 47.3 230.8 62.7 230.9 78.0 230.8 C 93.3 230.8 108.7 230.5 124.0 230.2 C 139.3 229.8 154.7 229.3 170.0 228.7 C 185.3 228.1 200.7 227.3 216.0 226.5 C 231.3 225.7 246.7 224.8 262.0 223.8 C 277.3 222.9 292.7 221.9 308.0 220.9 C 323.3 219.9 338.7 218.9 354.0 217.9 C 369.3 216.9 384.7 216.0 400.0 215.2 C 415.3 214.3 430.7 213.5 446.0 212.9 C 461.3 212.2 476.7 211.7 492.0 211.3 C 507.3 210.9 522.7 210.6 538.0 210.5 C 553.3 210.3 568.7 210.3 584.0 210.5 C 599.3 210.6 614.7 210.9 630.0 211.3 C 645.3 211.7 660.7 212.2 676.0 212.8 C 691.3 213.4 706.7 214.1 722.0 214.8 C 737.3 215.6 752.7 216.4 768.0 217.2 C 783.3 218.0 798.7 218.9 814.0 219.7 C 829.3 220.4 844.7 221.2 860.0 221.9 C 875.3 222.6 890.7 223.2 906.0 223.7 C 921.3 224.2 936.7 224.6 952.0 224.9 C 967.3 225.1 982.7 225.3 998.0 225.3 C 1013.3 225.2 1028.7 225.1 1044.0 224.7 C 1059.3 224.4 1074.7 223.9 1090.0 223.3 C 1105.3 222.7 1120.7 222.0 1136.0 221.1 C 1151.3 220.3 1166.7 219.3 1182.0 218.2 C 1197.3 217.2 1212.7 216.0 1228.0 214.9 C 1243.3 213.7 1258.7 212.5 1274.0 211.3 C 1289.3 210.2 1304.7 208.9 1320.0 207.8 C 1335.3 206.7 1350.7 205.6 1366.0 204.6 C 1381.3 203.7 1396.7 202.8 1412.0 202.0 C 1427.3 201.3 1442.7 200.7 1458.0 200.2 C 1473.3 199.7 1488.7 199.4 1504.0 199.2 C 1519.3 199.1 1534.7 199.1 1550.0 199.2 C 1565.3 199.4 1580.7 199.7 1596.0 200.2 C 1611.3 200.6 1634.3 201.6 1642.0 201.9" stroke="#F5F0E8" stroke-width="1" stroke-opacity="0.084" fill="none" stroke-linecap="round"/><path d="M -60.0 280.7 C -52.3 281.1 -29.3 282.5 -14.0 283.1 C 1.3 283.7 16.7 284.1 32.0 284.3 C 47.3 284.6 62.7 284.6 78.0 284.5 C 93.3 284.4 108.7 284.1 124.0 283.7 C 139.3 283.2 154.7 282.6 170.0 282.0 C 185.3 281.3 200.7 280.4 216.0 279.5 C 231.3 278.6 246.7 277.6 262.0 276.5 C 277.3 275.5 292.7 274.4 308.0 273.3 C 323.3 272.2 338.7 271.0 354.0 269.9 C 369.3 268.8 384.7 267.7 400.0 266.6 C 415.3 265.6 430.7 264.6 446.0 263.7 C 461.3 262.9 476.7 262.0 492.0 261.4 C 507.3 260.7 522.7 260.1 538.0 259.7 C 553.3 259.2 568.7 258.9 584.0 258.8 C 599.3 258.6 614.7 258.6 630.0 258.8 C 645.3 258.9 660.7 259.2 676.0 259.7 C 691.3 260.1 706.7 260.7 722.0 261.4 C 737.3 262.2 752.7 263.1 768.0 264.1 C 783.3 265.1 798.7 266.2 814.0 267.4 C 829.3 268.7 844.7 270.0 860.0 271.4 C 875.3 272.8 890.7 274.3 906.0 275.8 C 921.3 277.4 936.7 279.0 952.0 280.5 C 967.3 282.1 982.7 283.7 998.0 285.3 C 1013.3 286.9 1028.7 288.5 1044.0 290.0 C 1059.3 291.5 1074.7 293.0 1090.0 294.4 C 1105.3 295.8 1120.7 297.2 1136.0 298.4 C 1151.3 299.7 1166.7 300.9 1182.0 301.9 C 1197.3 303.0 1212.7 304.0 1228.0 304.8 C 1243.3 305.7 1258.7 306.4 1274.0 307.1 C 1289.3 307.7 1304.7 308.2 1320.0 308.6 C 1335.3 309.1 1350.7 309.4 1366.0 309.6 C 1381.3 309.8 1396.7 310.0 1412.0 310.0 C 1427.3 310.1 1442.7 310.0 1458.0 310.0 C 1473.3 309.9 1488.7 309.8 1504.0 309.6 C 1519.3 309.5 1534.7 309.3 1550.0 309.1 C 1565.3 309.0 1580.7 308.8 1596.0 308.6 C 1611.3 308.5 1634.3 308.3 1642.0 308.2" stroke="#F5F0E8" stroke-width="1.5" stroke-opacity="0.190" fill="none" stroke-linecap="round"/><path d="M -60.0 289.7 C -52.3 290.9 -29.3 294.4 -14.0 296.8 C 1.3 299.2 16.7 301.6 32.0 304.0 C 47.3 306.4 62.7 308.7 78.0 311.1 C 93.3 313.4 108.7 315.7 124.0 317.9 C 139.3 320.1 154.7 322.3 170.0 324.4 C 185.3 326.5 200.7 328.6 216.0 330.5 C 231.3 332.4 246.7 334.3 262.0 336.0 C 277.3 337.8 292.7 339.4 308.0 340.9 C 323.3 342.4 338.7 343.9 354.0 345.1 C 369.3 346.4 384.7 347.5 400.0 348.6 C 415.3 349.6 430.7 350.4 446.0 351.2 C 461.3 351.9 476.7 352.5 492.0 352.9 C 507.3 353.4 522.7 353.7 538.0 353.8 C 553.3 354.0 568.7 354.0 584.0 353.9 C 599.3 353.8 614.7 353.5 630.0 353.1 C 645.3 352.7 660.7 352.2 676.0 351.6 C 691.3 350.9 706.7 350.2 722.0 349.3 C 737.3 348.5 752.7 347.5 768.0 346.4 C 783.3 345.4 798.7 344.2 814.0 343.0 C 829.3 341.8 844.7 340.5 860.0 339.2 C 875.3 337.9 890.7 336.5 906.0 335.1 C 921.3 333.7 936.7 332.2 952.0 330.8 C 967.3 329.4 982.7 327.9 998.0 326.5 C 1013.3 325.1 1028.7 323.7 1044.0 322.3 C 1059.3 321.0 1074.7 319.6 1090.0 318.4 C 1105.3 317.1 1120.7 315.9 1136.0 314.8 C 1151.3 313.7 1166.7 312.6 1182.0 311.7 C 1197.3 310.8 1212.7 310.0 1228.0 309.3 C 1243.3 308.6 1258.7 308.0 1274.0 307.6 C 1289.3 307.1 1304.7 306.8 1320.0 306.6 C 1335.3 306.5 1350.7 306.5 1366.0 306.6 C 1381.3 306.7 1396.7 307.0 1412.0 307.5 C 1427.3 307.9 1442.7 308.5 1458.0 309.3 C 1473.3 310.1 1488.7 311.0 1504.0 312.1 C 1519.3 313.2 1534.7 314.4 1550.0 315.8 C 1565.3 317.2 1580.7 318.7 1596.0 320.4 C 1611.3 322.1 1634.3 325.0 1642.0 325.9" stroke="#F5F0E8" stroke-width="1" stroke-opacity="0.067" fill="none" stroke-linecap="round"/><path d="M -60.0 342.5 C -52.3 344.1 -29.3 349.4 -14.0 352.4 C 1.3 355.4 16.7 358.2 32.0 360.4 C 47.3 362.6 62.7 364.5 78.0 365.7 C 93.3 366.9 108.7 367.6 124.0 367.6 C 139.3 367.7 154.7 367.2 170.0 366.1 C 185.3 365.0 200.7 363.3 216.0 361.2 C 231.3 359.1 246.7 356.4 262.0 353.4 C 277.3 350.5 292.7 347.0 308.0 343.6 C 323.3 340.1 338.7 336.2 354.0 332.5 C 369.3 328.9 384.7 325.0 400.0 321.5 C 415.3 318.0 430.7 314.5 446.0 311.5 C 461.3 308.5 476.7 305.7 492.0 303.6 C 507.3 301.4 522.7 299.6 538.0 298.5 C 553.3 297.3 568.7 296.7 584.0 296.7 C 599.3 296.7 614.7 297.3 630.0 298.4 C 645.3 299.5 660.7 301.2 676.0 303.3 C 691.3 305.4 706.7 308.1 722.0 311.0 C 737.3 313.8 752.7 317.2 768.0 320.5 C 783.3 323.9 798.7 327.6 814.0 331.0 C 829.3 334.5 844.7 338.1 860.0 341.3 C 875.3 344.5 890.7 347.7 906.0 350.3 C 921.3 353.0 936.7 355.4 952.0 357.2 C 967.3 358.9 982.7 360.3 998.0 361.1 C 1013.3 361.8 1028.7 362.0 1044.0 361.6 C 1059.3 361.2 1074.7 360.2 1090.0 358.8 C 1105.3 357.3 1120.7 355.2 1136.0 352.8 C 1151.3 350.4 1166.7 347.5 1182.0 344.4 C 1197.3 341.3 1212.7 337.7 1228.0 334.3 C 1243.3 330.8 1258.7 327.1 1274.0 323.6 C 1289.3 320.1 1304.7 316.5 1320.0 313.4 C 1335.3 310.3 1350.7 307.2 1366.0 304.8 C 1381.3 302.3 1396.7 300.2 1412.0 298.6 C 1427.3 297.1 1442.7 296.1 1458.0 295.6 C 1473.3 295.2 1488.7 295.4 1504.0 296.1 C 1519.3 296.9 1534.7 298.3 1550.0 300.1 C 1565.3 301.9 1580.7 304.4 1596.0 307.2 C 1611.3 310.0 1634.3 315.2 1642.0 316.8" stroke="#F5F0E8" stroke-width="1" stroke-opacity="0.092" fill="none" stroke-linecap="round"/><path d="M -60.0 359.6 C -52.3 359.9 -29.3 361.2 -14.0 361.6 C 1.3 362.0 16.7 362.1 32.0 362.0 C 47.3 361.8 62.7 361.4 78.0 360.7 C 93.3 360.1 108.7 359.1 124.0 358.0 C 139.3 357.0 154.7 355.6 170.0 354.3 C 185.3 352.9 200.7 351.3 216.0 349.8 C 231.3 348.3 246.7 346.7 262.0 345.3 C 277.3 343.9 292.7 342.4 308.0 341.3 C 323.3 340.1 338.7 339.1 354.0 338.3 C 369.3 337.6 384.7 337.1 400.0 336.9 C 415.3 336.8 430.7 336.9 446.0 337.4 C 461.3 337.9 476.7 338.7 492.0 339.9 C 507.3 341.0 522.7 342.6 538.0 344.3 C 553.3 346.1 568.7 348.3 584.0 350.6 C 599.3 352.8 614.7 355.4 630.0 358.1 C 645.3 360.7 660.7 363.6 676.0 366.4 C 691.3 369.2 706.7 372.1 722.0 374.8 C 737.3 377.5 752.7 380.3 768.0 382.7 C 783.3 385.2 798.7 387.5 814.0 389.5 C 829.3 391.4 844.7 393.2 860.0 394.6 C 875.3 395.9 890.7 397.0 906.0 397.6 C 921.3 398.3 936.7 398.6 952.0 398.5 C 967.3 398.4 982.7 398.0 998.0 397.2 C 1013.3 396.5 1028.7 395.3 1044.0 394.0 C 1059.3 392.7 1074.7 391.1 1090.0 389.3 C 1105.3 387.6 1120.7 385.6 1136.0 383.7 C 1151.3 381.8 1166.7 379.7 1182.0 377.8 C 1197.3 375.9 1212.7 373.9 1228.0 372.3 C 1243.3 370.6 1258.7 368.9 1274.0 367.7 C 1289.3 366.4 1304.7 365.3 1320.0 364.5 C 1335.3 363.7 1350.7 363.3 1366.0 363.1 C 1381.3 363.0 1396.7 363.2 1412.0 363.7 C 1427.3 364.2 1442.7 365.1 1458.0 366.2 C 1473.3 367.3 1488.7 368.7 1504.0 370.3 C 1519.3 371.8 1534.7 373.7 1550.0 375.6 C 1565.3 377.4 1580.7 379.5 1596.0 381.5 C 1611.3 383.5 1634.3 386.5 1642.0 387.5" stroke="#F5F0E8" stroke-width="1" stroke-opacity="0.087" fill="none" stroke-linecap="round"/><path d="M -60.0 356.4 C -52.3 355.7 -29.3 353.1 -14.0 351.8 C 1.3 350.5 16.7 349.3 32.0 348.5 C 47.3 347.7 62.7 347.2 78.0 347.0 C 93.3 346.9 108.7 347.1 124.0 347.8 C 139.3 348.4 154.7 349.5 170.0 350.9 C 185.3 352.4 200.7 354.2 216.0 356.4 C 231.3 358.7 246.7 361.3 262.0 364.2 C 277.3 367.1 292.7 370.3 308.0 373.8 C 323.3 377.2 338.7 380.9 354.0 384.7 C 369.3 388.5 384.7 392.5 400.0 396.4 C 415.3 400.3 430.7 404.4 446.0 408.2 C 461.3 412.1 476.7 416.0 492.0 419.5 C 507.3 423.1 522.7 426.6 538.0 429.7 C 553.3 432.8 568.7 435.7 584.0 438.2 C 599.3 440.7 614.7 442.9 630.0 444.7 C 645.3 446.5 660.7 447.9 676.0 449.0 C 691.3 450.1 706.7 450.7 722.0 451.1 C 737.3 451.5 752.7 451.5 768.0 451.2 C 783.3 451.0 798.7 450.4 814.0 449.6 C 829.3 448.9 844.7 447.9 860.0 446.9 C 875.3 445.9 890.7 444.6 906.0 443.5 C 921.3 442.3 936.7 441.1 952.0 440.1 C 967.3 439.0 982.7 438.0 998.0 437.2 C 1013.3 436.5 1028.7 435.8 1044.0 435.5 C 1059.3 435.2 1074.7 435.1 1090.0 435.3 C 1105.3 435.6 1120.7 436.1 1136.0 437.0 C 1151.3 437.8 1166.7 439.0 1182.0 440.5 C 1197.3 442.0 1212.7 443.9 1228.0 445.9 C 1243.3 448.0 1258.7 450.4 1274.0 452.9 C 1289.3 455.5 1304.7 458.3 1320.0 461.1 C 1335.3 464.0 1350.7 467.0 1366.0 470.0 C 1381.3 473.0 1396.7 476.0 1412.0 478.9 C 1427.3 481.8 1442.7 484.7 1458.0 487.3 C 1473.3 489.9 1488.7 492.4 1504.0 494.6 C 1519.3 496.7 1534.7 498.6 1550.0 500.2 C 1565.3 501.7 1580.7 502.9 1596.0 503.8 C 1611.3 504.6 1634.3 504.9 1642.0 505.1" stroke="#F5F0E8" stroke-width="1.5" stroke-opacity="0.211" fill="none" stroke-linecap="round"/><path d="M -60.0 415.9 C -52.3 416.2 -29.3 417.0 -14.0 417.6 C 1.3 418.2 16.7 419.0 32.0 419.6 C 47.3 420.3 62.7 421.0 78.0 421.6 C 93.3 422.2 108.7 422.8 124.0 423.2 C 139.3 423.6 154.7 423.9 170.0 424.0 C 185.3 424.1 200.7 424.0 216.0 423.7 C 231.3 423.4 246.7 423.0 262.0 422.3 C 277.3 421.6 292.7 420.7 308.0 419.7 C 323.3 418.7 338.7 417.4 354.0 416.0 C 369.3 414.7 384.7 413.1 400.0 411.5 C 415.3 409.9 430.7 408.2 446.0 406.5 C 461.3 404.8 476.7 403.0 492.0 401.3 C 507.3 399.6 522.7 397.8 538.0 396.3 C 553.3 394.7 568.7 393.2 584.0 391.9 C 599.3 390.6 614.7 389.4 630.0 388.4 C 645.3 387.4 660.7 386.6 676.0 386.1 C 691.3 385.5 706.7 385.1 722.0 385.0 C 737.3 384.8 752.7 384.9 768.0 385.1 C 783.3 385.4 798.7 385.8 814.0 386.4 C 829.3 387.0 844.7 387.7 860.0 388.5 C 875.3 389.3 890.7 390.3 906.0 391.2 C 921.3 392.1 936.7 393.1 952.0 394.0 C 967.3 394.9 982.7 395.8 998.0 396.6 C 1013.3 397.3 1028.7 398.0 1044.0 398.5 C 1059.3 398.9 1074.7 399.3 1090.0 399.4 C 1105.3 399.5 1120.7 399.4 1136.0 399.1 C 1151.3 398.8 1166.7 398.3 1182.0 397.5 C 1197.3 396.8 1212.7 395.7 1228.0 394.6 C 1243.3 393.4 1258.7 391.9 1274.0 390.4 C 1289.3 388.8 1304.7 387.0 1320.0 385.2 C 1335.3 383.4 1350.7 381.4 1366.0 379.4 C 1381.3 377.4 1396.7 375.3 1412.0 373.3 C 1427.3 371.2 1442.7 369.2 1458.0 367.3 C 1473.3 365.3 1488.7 363.4 1504.0 361.7 C 1519.3 360.0 1534.7 358.4 1550.0 357.0 C 1565.3 355.6 1580.7 354.3 1596.0 353.2 C 1611.3 352.2 1634.3 351.1 1642.0 350.7" stroke="#F5F0E8" stroke-width="1" stroke-opacity="0.085" fill="none" stroke-linecap="round"/><path d="M -60.0 460.4 C -52.3 460.4 -29.3 460.3 -14.0 460.4 C 1.3 460.6 16.7 460.9 32.0 461.4 C 47.3 461.9 62.7 462.5 78.0 463.3 C 93.3 464.1 108.7 465.1 124.0 466.1 C 139.3 467.2 154.7 468.4 170.0 469.6 C 185.3 470.9 200.7 472.3 216.0 473.8 C 231.3 475.2 246.7 476.7 262.0 478.2 C 277.3 479.7 292.7 481.3 308.0 482.8 C 323.3 484.3 338.7 485.9 354.0 487.3 C 369.3 488.7 384.7 490.1 400.0 491.4 C 415.3 492.7 430.7 493.9 446.0 495.0 C 461.3 496.0 476.7 497.0 492.0 497.8 C 507.3 498.6 522.7 499.2 538.0 499.7 C 553.3 500.2 568.7 500.5 584.0 500.7 C 599.3 500.9 614.7 500.9 630.0 500.8 C 645.3 500.7 660.7 500.4 676.0 500.0 C 691.3 499.6 706.7 499.0 722.0 498.4 C 737.3 497.8 752.7 497.0 768.0 496.2 C 783.3 495.4 798.7 494.4 814.0 493.5 C 829.3 492.6 844.7 491.6 860.0 490.7 C 875.3 489.8 890.7 488.8 906.0 487.9 C 921.3 487.0 936.7 486.2 952.0 485.4 C 967.3 484.7 982.7 484.0 998.0 483.5 C 1013.3 482.9 1028.7 482.5 1044.0 482.2 C 1059.3 481.9 1074.7 481.8 1090.0 481.8 C 1105.3 481.8 1120.7 482.0 1136.0 482.4 C 1151.3 482.7 1166.7 483.2 1182.0 483.9 C 1197.3 484.6 1212.7 485.5 1228.0 486.6 C 1243.3 487.6 1258.7 488.8 1274.0 490.1 C 1289.3 491.5 1304.7 493.0 1320.0 494.5 C 1335.3 496.1 1350.7 497.9 1366.0 499.7 C 1381.3 501.4 1396.7 503.3 1412.0 505.3 C 1427.3 507.2 1442.7 509.2 1458.0 511.2 C 1473.3 513.2 1488.7 515.2 1504.0 517.2 C 1519.3 519.2 1534.7 521.2 1550.0 523.1 C 1565.3 525.0 1580.7 526.8 1596.0 528.6 C 1611.3 530.4 1634.3 532.8 1642.0 533.7" stroke="#F5F0E8" stroke-width="1" stroke-opacity="0.053" fill="none" stroke-linecap="round"/><path d="M -60.0 504.2 C -52.3 505.3 -29.3 508.5 -14.0 510.5 C 1.3 512.6 16.7 514.7 32.0 516.7 C 47.3 518.7 62.7 520.7 78.0 522.7 C 93.3 524.6 108.7 526.4 124.0 528.2 C 139.3 529.9 154.7 531.6 170.0 533.1 C 185.3 534.7 200.7 536.1 216.0 537.5 C 231.3 538.8 246.7 540.0 262.0 541.0 C 277.3 542.1 292.7 543.0 308.0 543.8 C 323.3 544.6 338.7 545.3 354.0 545.8 C 369.3 546.3 384.7 546.7 400.0 547.0 C 415.3 547.2 430.7 547.4 446.0 547.4 C 461.3 547.4 476.7 547.3 492.0 547.2 C 507.3 547.0 522.7 546.7 538.0 546.4 C 553.3 546.0 568.7 545.6 584.0 545.1 C 599.3 544.7 614.7 544.1 630.0 543.6 C 645.3 543.1 660.7 542.5 676.0 542.0 C 691.3 541.4 706.7 540.9 722.0 540.3 C 737.3 539.8 752.7 539.3 768.0 538.9 C 783.3 538.5 798.7 538.1 814.0 537.8 C 829.3 537.5 844.7 537.3 860.0 537.1 C 875.3 537.0 890.7 537.0 906.0 537.0 C 921.3 537.1 936.7 537.3 952.0 537.6 C 967.3 537.9 982.7 538.3 998.0 538.8 C 1013.3 539.3 1028.7 540.0 1044.0 540.7 C 1059.3 541.5 1074.7 542.4 1090.0 543.3 C 1105.3 544.3 1120.7 545.4 1136.0 546.5 C 1151.3 547.7 1166.7 549.0 1182.0 550.3 C 1197.3 551.6 1212.7 553.1 1228.0 554.5 C 1243.3 556.0 1258.7 557.5 1274.0 559.0 C 1289.3 560.6 1304.7 562.2 1320.0 563.7 C 1335.3 565.3 1350.7 566.9 1366.0 568.4 C 1381.3 570.0 1396.7 571.5 1412.0 573.0 C 1427.3 574.5 1442.7 575.9 1458.0 577.3 C 1473.3 578.7 1488.7 580.0 1504.0 581.2 C 1519.3 582.4 1534.7 583.5 1550.0 584.5 C 1565.3 585.5 1580.7 586.4 1596.0 587.2 C 1611.3 588.0 1634.3 588.9 1642.0 589.2" stroke="#F5F0E8" stroke-width="1" stroke-opacity="0.074" fill="none" stroke-linecap="round"/><path d="M -60.0 528.2 C -52.3 529.1 -29.3 532.1 -14.0 533.9 C 1.3 535.8 16.7 537.5 32.0 539.1 C 47.3 540.7 62.7 542.2 78.0 543.4 C 93.3 544.6 108.7 545.7 124.0 546.5 C 139.3 547.4 154.7 548.0 170.0 548.5 C 185.3 548.9 200.7 549.1 216.0 549.2 C 231.3 549.2 246.7 549.1 262.0 548.8 C 277.3 548.5 292.7 548.1 308.0 547.5 C 323.3 547.0 338.7 546.4 354.0 545.8 C 369.3 545.1 384.7 544.4 400.0 543.7 C 415.3 543.1 430.7 542.4 446.0 541.8 C 461.3 541.3 476.7 540.7 492.0 540.3 C 507.3 539.9 522.7 539.6 538.0 539.4 C 553.3 539.2 568.7 539.1 584.0 539.2 C 599.3 539.2 614.7 539.4 630.0 539.7 C 645.3 540.0 660.7 540.4 676.0 540.8 C 691.3 541.3 706.7 541.8 722.0 542.3 C 737.3 542.9 752.7 543.5 768.0 544.0 C 783.3 544.5 798.7 545.0 814.0 545.4 C 829.3 545.8 844.7 546.2 860.0 546.3 C 875.3 546.4 890.7 546.5 906.0 546.3 C 921.3 546.1 936.7 545.7 952.0 545.1 C 967.3 544.5 982.7 543.6 998.0 542.6 C 1013.3 541.5 1028.7 540.2 1044.0 538.7 C 1059.3 537.2 1074.7 535.4 1090.0 533.5 C 1105.3 531.5 1120.7 529.4 1136.0 527.2 C 1151.3 524.9 1166.7 522.5 1182.0 520.0 C 1197.3 517.6 1212.7 515.1 1228.0 512.6 C 1243.3 510.1 1258.7 507.6 1274.0 505.2 C 1289.3 502.8 1304.7 500.5 1320.0 498.4 C 1335.3 496.3 1350.7 494.4 1366.0 492.7 C 1381.3 491.1 1396.7 489.6 1412.0 488.5 C 1427.3 487.4 1442.7 486.6 1458.0 486.1 C 1473.3 485.6 1488.7 485.5 1504.0 485.6 C 1519.3 485.8 1534.7 486.4 1550.0 487.2 C 1565.3 488.1 1580.7 489.3 1596.0 490.7 C 1611.3 492.2 1634.3 495.0 1642.0 495.9" stroke="#F5F0E8" stroke-width="1.5" stroke-opacity="0.180" fill="none" stroke-linecap="round"/><path d="M -60.0 549.7 C -52.3 550.5 -29.3 552.8 -14.0 554.4 C 1.3 556.0 16.7 557.6 32.0 559.1 C 47.3 560.7 62.7 562.3 78.0 563.7 C 93.3 565.2 108.7 566.6 124.0 567.9 C 139.3 569.1 154.7 570.4 170.0 571.4 C 185.3 572.5 200.7 573.5 216.0 574.3 C 231.3 575.2 246.7 575.9 262.0 576.5 C 277.3 577.1 292.7 577.6 308.0 578.0 C 323.3 578.4 338.7 578.7 354.0 579.0 C 369.3 579.2 384.7 579.3 400.0 579.5 C 415.3 579.6 430.7 579.6 446.0 579.7 C 461.3 579.8 476.7 579.9 492.0 580.0 C 507.3 580.1 522.7 580.2 538.0 580.4 C 553.3 580.7 568.7 580.9 584.0 581.3 C 599.3 581.7 614.7 582.1 630.0 582.7 C 645.3 583.3 660.7 584.0 676.0 584.8 C 691.3 585.7 706.7 586.6 722.0 587.7 C 737.3 588.8 752.7 590.0 768.0 591.2 C 783.3 592.5 798.7 594.0 814.0 595.5 C 829.3 596.9 844.7 598.5 860.0 600.2 C 875.3 601.8 890.7 603.5 906.0 605.2 C 921.3 606.8 936.7 608.6 952.0 610.2 C 967.3 611.9 982.7 613.6 998.0 615.2 C 1013.3 616.7 1028.7 618.3 1044.0 619.6 C 1059.3 621.0 1074.7 622.3 1090.0 623.5 C 1105.3 624.6 1120.7 625.6 1136.0 626.5 C 1151.3 627.3 1166.7 628.0 1182.0 628.5 C 1197.3 629.1 1212.7 629.4 1228.0 629.6 C 1243.3 629.7 1258.7 629.7 1274.0 629.6 C 1289.3 629.4 1304.7 629.1 1320.0 628.6 C 1335.3 628.2 1350.7 627.6 1366.0 626.9 C 1381.3 626.2 1396.7 625.4 1412.0 624.6 C 1427.3 623.7 1442.7 622.8 1458.0 621.9 C 1473.3 621.0 1488.7 620.0 1504.0 619.1 C 1519.3 618.2 1534.7 617.3 1550.0 616.6 C 1565.3 615.8 1580.7 615.0 1596.0 614.4 C 1611.3 613.8 1634.3 613.2 1642.0 612.9" stroke="#F5F0E8" stroke-width="1" stroke-opacity="0.070" fill="none" stroke-linecap="round"/><path d="M -60.0 597.3 C -52.3 597.3 -29.3 597.4 -14.0 597.6 C 1.3 597.7 16.7 597.9 32.0 598.1 C 47.3 598.4 62.7 598.6 78.0 598.8 C 93.3 599.1 108.7 599.3 124.0 599.5 C 139.3 599.7 154.7 599.9 170.0 600.0 C 185.3 600.2 200.7 600.3 216.0 600.3 C 231.3 600.3 246.7 600.3 262.0 600.2 C 277.3 600.1 292.7 599.9 308.0 599.7 C 323.3 599.5 338.7 599.2 354.0 598.9 C 369.3 598.7 384.7 598.3 400.0 597.9 C 415.3 597.6 430.7 597.2 446.0 596.9 C 461.3 596.5 476.7 596.2 492.0 595.9 C 507.3 595.6 522.7 595.4 538.0 595.3 C 553.3 595.1 568.7 595.0 584.0 595.1 C 599.3 595.2 614.7 595.4 630.0 595.7 C 645.3 596.0 660.7 596.5 676.0 597.1 C 691.3 597.8 706.7 598.6 722.0 599.5 C 737.3 600.5 752.7 601.6 768.0 602.9 C 783.3 604.2 798.7 605.7 814.0 607.3 C 829.3 608.9 844.7 610.6 860.0 612.4 C 875.3 614.3 890.7 616.3 906.0 618.3 C 921.3 620.3 936.7 622.4 952.0 624.6 C 967.3 626.7 982.7 628.9 998.0 631.0 C 1013.3 633.1 1028.7 635.3 1044.0 637.3 C 1059.3 639.3 1074.7 641.3 1090.0 643.2 C 1105.3 645.1 1120.7 646.8 1136.0 648.4 C 1151.3 650.0 1166.7 651.5 1182.0 652.8 C 1197.3 654.1 1212.7 655.2 1228.0 656.1 C 1243.3 657.0 1258.7 657.7 1274.0 658.3 C 1289.3 658.8 1304.7 659.2 1320.0 659.3 C 1335.3 659.5 1350.7 659.5 1366.0 659.4 C 1381.3 659.2 1396.7 658.9 1412.0 658.4 C 1427.3 658.0 1442.7 657.4 1458.0 656.8 C 1473.3 656.1 1488.7 655.4 1504.0 654.6 C 1519.3 653.8 1534.7 653.0 1550.0 652.1 C 1565.3 651.3 1580.7 650.4 1596.0 649.6 C 1611.3 648.8 1634.3 647.7 1642.0 647.3" stroke="#F5F0E8" stroke-width="1" stroke-opacity="0.088" fill="none" stroke-linecap="round"/><path d="M -60.0 643.0 C -52.3 642.1 -29.3 639.5 -14.0 637.9 C 1.3 636.3 16.7 634.7 32.0 633.3 C 47.3 631.8 62.7 630.4 78.0 629.2 C 93.3 627.9 108.7 626.8 124.0 625.7 C 139.3 624.7 154.7 623.7 170.0 622.9 C 185.3 622.0 200.7 621.3 216.0 620.6 C 231.3 620.0 246.7 619.5 262.0 619.0 C 277.3 618.5 292.7 618.1 308.0 617.8 C 323.3 617.5 338.7 617.2 354.0 617.0 C 369.3 616.8 384.7 616.6 400.0 616.5 C 415.3 616.3 430.7 616.2 446.0 616.2 C 461.3 616.1 476.7 616.0 492.0 616.0 C 507.3 615.9 522.7 615.9 538.0 615.8 C 553.3 615.8 568.7 615.7 584.0 615.7 C 599.3 615.7 614.7 615.6 630.0 615.6 C 645.3 615.6 660.7 615.5 676.0 615.5 C 691.3 615.5 706.7 615.4 722.0 615.4 C 737.3 615.4 752.7 615.4 768.0 615.5 C 783.3 615.5 798.7 615.5 814.0 615.6 C 829.3 615.7 844.7 615.8 860.0 615.9 C 875.3 616.0 890.7 616.2 906.0 616.4 C 921.3 616.6 936.7 616.8 952.0 617.1 C 967.3 617.3 982.7 617.6 998.0 617.9 C 1013.3 618.2 1028.7 618.6 1044.0 618.9 C 1059.3 619.2 1074.7 619.6 1090.0 619.9 C 1105.3 620.3 1120.7 620.6 1136.0 620.9 C 1151.3 621.2 1166.7 621.5 1182.0 621.8 C 1197.3 622.0 1212.7 622.2 1228.0 622.3 C 1243.3 622.5 1258.7 622.5 1274.0 622.5 C 1289.3 622.5 1304.7 622.4 1320.0 622.2 C 1335.3 622.0 1350.7 621.7 1366.0 621.2 C 1381.3 620.8 1396.7 620.3 1412.0 619.7 C 1427.3 619.0 1442.7 618.3 1458.0 617.4 C 1473.3 616.5 1488.7 615.6 1504.0 614.5 C 1519.3 613.4 1534.7 612.2 1550.0 611.0 C 1565.3 609.8 1580.7 608.4 1596.0 607.0 C 1611.3 605.7 1634.3 603.5 1642.0 602.8" stroke="#F5F0E8" stroke-width="1" stroke-opacity="0.083" fill="none" stroke-linecap="round"/><path d="M -60.0 689.5 C -52.3 688.9 -29.3 687.3 -14.0 686.1 C 1.3 684.9 16.7 683.6 32.0 682.3 C 47.3 681.0 62.7 679.7 78.0 678.3 C 93.3 676.9 108.7 675.5 124.0 674.0 C 139.3 672.6 154.7 671.1 170.0 669.6 C 185.3 668.1 200.7 666.6 216.0 665.1 C 231.3 663.7 246.7 662.2 262.0 660.7 C 277.3 659.3 292.7 657.9 308.0 656.5 C 323.3 655.1 338.7 653.8 354.0 652.5 C 369.3 651.3 384.7 650.1 400.0 648.9 C 415.3 647.8 430.7 646.8 446.0 645.8 C 461.3 644.8 476.7 644.0 492.0 643.2 C 507.3 642.4 522.7 641.8 538.0 641.2 C 553.3 640.6 568.7 640.2 584.0 639.8 C 599.3 639.5 614.7 639.3 630.0 639.1 C 645.3 639.0 660.7 639.0 676.0 639.1 C 691.3 639.2 706.7 639.4 722.0 639.6 C 737.3 639.9 752.7 640.3 768.0 640.8 C 783.3 641.3 798.7 641.8 814.0 642.4 C 829.3 643.1 844.7 643.8 860.0 644.5 C 875.3 645.2 890.7 646.1 906.0 646.9 C 921.3 647.7 936.7 648.6 952.0 649.4 C 967.3 650.3 982.7 651.2 998.0 652.1 C 1013.3 652.9 1028.7 653.8 1044.0 654.6 C 1059.3 655.5 1074.7 656.3 1090.0 657.0 C 1105.3 657.8 1120.7 658.5 1136.0 659.1 C 1151.3 659.8 1166.7 660.4 1182.0 660.8 C 1197.3 661.3 1212.7 661.8 1228.0 662.1 C 1243.3 662.4 1258.7 662.6 1274.0 662.8 C 1289.3 662.9 1304.7 663.0 1320.0 662.9 C 1335.3 662.8 1350.7 662.6 1366.0 662.4 C 1381.3 662.1 1396.7 661.7 1412.0 661.3 C 1427.3 660.8 1442.7 660.2 1458.0 659.5 C 1473.3 658.9 1488.7 658.1 1504.0 657.3 C 1519.3 656.4 1534.7 655.5 1550.0 654.5 C 1565.3 653.5 1580.7 652.4 1596.0 651.3 C 1611.3 650.2 1634.3 648.4 1642.0 647.8" stroke="#F5F0E8" stroke-width="1.5" stroke-opacity="0.225" fill="none" stroke-linecap="round"/><path d="M -60.0 708.0 C -52.3 708.2 -29.3 709.0 -14.0 709.6 C 1.3 710.2 16.7 710.8 32.0 711.4 C 47.3 712.0 62.7 712.6 78.0 713.2 C 93.3 713.8 108.7 714.5 124.0 715.1 C 139.3 715.8 154.7 716.4 170.0 717.1 C 185.3 717.8 200.7 718.4 216.0 719.1 C 231.3 719.7 246.7 720.4 262.0 721.1 C 277.3 721.7 292.7 722.4 308.0 723.0 C 323.3 723.7 338.7 724.3 354.0 724.9 C 369.3 725.6 384.7 726.2 400.0 726.8 C 415.3 727.4 430.7 727.9 446.0 728.5 C 461.3 729.1 476.7 729.6 492.0 730.1 C 507.3 730.6 522.7 731.1 538.0 731.6 C 553.3 732.0 568.7 732.5 584.0 732.9 C 599.3 733.3 614.7 733.7 630.0 734.0 C 645.3 734.4 660.7 734.7 676.0 735.0 C 691.3 735.3 706.7 735.5 722.0 735.8 C 737.3 736.0 752.7 736.2 768.0 736.4 C 783.3 736.6 798.7 736.8 814.0 736.9 C 829.3 737.0 844.7 737.1 860.0 737.2 C 875.3 737.3 890.7 737.4 906.0 737.4 C 921.3 737.5 936.7 737.5 952.0 737.5 C 967.3 737.5 982.7 737.5 998.0 737.5 C 1013.3 737.5 1028.7 737.5 1044.0 737.5 C 1059.3 737.5 1074.7 737.5 1090.0 737.4 C 1105.3 737.4 1120.7 737.4 1136.0 737.4 C 1151.3 737.4 1166.7 737.3 1182.0 737.3 C 1197.3 737.3 1212.7 737.3 1228.0 737.4 C 1243.3 737.4 1258.7 737.4 1274.0 737.5 C 1289.3 737.5 1304.7 737.6 1320.0 737.7 C 1335.3 737.8 1350.7 737.9 1366.0 738.1 C 1381.3 738.2 1396.7 738.4 1412.0 738.6 C 1427.3 738.8 1442.7 739.0 1458.0 739.3 C 1473.3 739.5 1488.7 739.8 1504.0 740.1 C 1519.3 740.4 1534.7 740.8 1550.0 741.2 C 1565.3 741.6 1580.7 742.0 1596.0 742.4 C 1611.3 742.9 1634.3 743.6 1642.0 743.8" stroke="#F5F0E8" stroke-width="1" stroke-opacity="0.078" fill="none" stroke-linecap="round"/><path d="M -60.0 746.4 C -52.3 746.1 -29.3 745.3 -14.0 744.7 C 1.3 744.2 16.7 743.7 32.0 743.2 C 47.3 742.6 62.7 742.1 78.0 741.6 C 93.3 741.1 108.7 740.7 124.0 740.2 C 139.3 739.7 154.7 739.2 170.0 738.7 C 185.3 738.3 200.7 737.8 216.0 737.3 C 231.3 736.9 246.7 736.4 262.0 735.9 C 277.3 735.4 292.7 735.0 308.0 734.5 C 323.3 734.0 338.7 733.5 354.0 732.9 C 369.3 732.4 384.7 731.9 400.0 731.3 C 415.3 730.8 430.7 730.2 446.0 729.6 C 461.3 729.0 476.7 728.4 492.0 727.7 C 507.3 727.1 522.7 726.4 538.0 725.7 C 553.3 725.1 568.7 724.3 584.0 723.6 C 599.3 722.9 614.7 722.2 630.0 721.4 C 645.3 720.7 660.7 719.9 676.0 719.1 C 691.3 718.4 706.7 717.6 722.0 716.8 C 737.3 716.0 752.7 715.3 768.0 714.5 C 783.3 713.8 798.7 713.0 814.0 712.3 C 829.3 711.6 844.7 710.9 860.0 710.2 C 875.3 709.6 890.7 708.9 906.0 708.4 C 921.3 707.8 936.7 707.2 952.0 706.7 C 967.3 706.3 982.7 705.8 998.0 705.4 C 1013.3 705.1 1028.7 704.7 1044.0 704.5 C 1059.3 704.2 1074.7 704.0 1090.0 703.9 C 1105.3 703.7 1120.7 703.6 1136.0 703.6 C 1151.3 703.6 1166.7 703.6 1182.0 703.7 C 1197.3 703.8 1212.7 703.9 1228.0 704.1 C 1243.3 704.3 1258.7 704.5 1274.0 704.7 C 1289.3 705.0 1304.7 705.2 1320.0 705.5 C 1335.3 705.8 1350.7 706.1 1366.0 706.3 C 1381.3 706.6 1396.7 706.9 1412.0 707.1 C 1427.3 707.4 1442.7 707.6 1458.0 707.8 C 1473.3 707.9 1488.7 708.1 1504.0 708.1 C 1519.3 708.2 1534.7 708.2 1550.0 708.0 C 1565.3 707.9 1580.7 707.8 1596.0 707.5 C 1611.3 707.2 1634.3 706.5 1642.0 706.3" stroke="#F5F0E8" stroke-width="1" stroke-opacity="0.077" fill="none" stroke-linecap="round"/><path d="M -60.0 793.8 C -52.3 792.9 -29.3 790.1 -14.0 788.2 C 1.3 786.2 16.7 784.1 32.0 782.1 C 47.3 780.0 62.7 777.9 78.0 775.8 C 93.3 773.8 108.7 771.7 124.0 769.8 C 139.3 767.9 154.7 766.1 170.0 764.4 C 185.3 762.8 200.7 761.2 216.0 759.9 C 231.3 758.6 246.7 757.4 262.0 756.5 C 277.3 755.6 292.7 754.9 308.0 754.5 C 323.3 754.0 338.7 753.8 354.0 753.9 C 369.3 753.9 384.7 754.1 400.0 754.6 C 415.3 755.1 430.7 755.8 446.0 756.6 C 461.3 757.5 476.7 758.6 492.0 759.8 C 507.3 760.9 522.7 762.3 538.0 763.7 C 553.3 765.1 568.7 766.6 584.0 768.1 C 599.3 769.6 614.7 771.2 630.0 772.7 C 645.3 774.2 660.7 775.7 676.0 777.1 C 691.3 778.5 706.7 779.8 722.0 781.0 C 737.3 782.2 752.7 783.2 768.0 784.1 C 783.3 784.9 798.7 785.7 814.0 786.2 C 829.3 786.7 844.7 787.0 860.0 787.2 C 875.3 787.3 890.7 787.2 906.0 787.0 C 921.3 786.7 936.7 786.3 952.0 785.7 C 967.3 785.1 982.7 784.3 998.0 783.4 C 1013.3 782.5 1028.7 781.5 1044.0 780.4 C 1059.3 779.3 1074.7 778.1 1090.0 776.8 C 1105.3 775.6 1120.7 774.3 1136.0 773.1 C 1151.3 771.8 1166.7 770.6 1182.0 769.4 C 1197.3 768.2 1212.7 767.0 1228.0 766.0 C 1243.3 765.0 1258.7 764.1 1274.0 763.3 C 1289.3 762.5 1304.7 761.8 1320.0 761.3 C 1335.3 760.8 1350.7 760.4 1366.0 760.2 C 1381.3 760.1 1396.7 760.0 1412.0 760.1 C 1427.3 760.2 1442.7 760.5 1458.0 760.9 C 1473.3 761.3 1488.7 761.9 1504.0 762.5 C 1519.3 763.1 1534.7 763.9 1550.0 764.7 C 1565.3 765.5 1580.7 766.5 1596.0 767.4 C 1611.3 768.3 1634.3 769.7 1642.0 770.2" stroke="#F5F0E8" stroke-width="1" stroke-opacity="0.084" fill="none" stroke-linecap="round"/><path d="M -60.0 820.6 C -52.3 820.7 -29.3 820.8 -14.0 820.9 C 1.3 821.0 16.7 821.1 32.0 821.2 C 47.3 821.3 62.7 821.4 78.0 821.4 C 93.3 821.5 108.7 821.5 124.0 821.5 C 139.3 821.5 154.7 821.5 170.0 821.5 C 185.3 821.4 200.7 821.3 216.0 821.1 C 231.3 821.0 246.7 820.8 262.0 820.6 C 277.3 820.3 292.7 820.0 308.0 819.7 C 323.3 819.4 338.7 819.0 354.0 818.5 C 369.3 818.1 384.7 817.5 400.0 817.0 C 415.3 816.4 430.7 815.8 446.0 815.1 C 461.3 814.4 476.7 813.7 492.0 812.9 C 507.3 812.1 522.7 811.2 538.0 810.3 C 553.3 809.4 568.7 808.5 584.0 807.5 C 599.3 806.5 614.7 805.5 630.0 804.4 C 645.3 803.3 660.7 802.2 676.0 801.0 C 691.3 799.9 706.7 798.7 722.0 797.5 C 737.3 796.3 752.7 795.0 768.0 793.8 C 783.3 792.5 798.7 791.3 814.0 790.0 C 829.3 788.7 844.7 787.4 860.0 786.2 C 875.3 784.9 890.7 783.6 906.0 782.3 C 921.3 781.1 936.7 779.8 952.0 778.6 C 967.3 777.3 982.7 776.1 998.0 774.9 C 1013.3 773.7 1028.7 772.5 1044.0 771.3 C 1059.3 770.2 1074.7 769.1 1090.0 768.0 C 1105.3 766.9 1120.7 765.8 1136.0 764.8 C 1151.3 763.8 1166.7 762.8 1182.0 761.9 C 1197.3 761.0 1212.7 760.1 1228.0 759.2 C 1243.3 758.3 1258.7 757.5 1274.0 756.7 C 1289.3 755.9 1304.7 755.2 1320.0 754.5 C 1335.3 753.8 1350.7 753.1 1366.0 752.5 C 1381.3 751.8 1396.7 751.2 1412.0 750.6 C 1427.3 750.1 1442.7 749.5 1458.0 749.0 C 1473.3 748.5 1488.7 748.0 1504.0 747.5 C 1519.3 747.0 1534.7 746.5 1550.0 746.0 C 1565.3 745.6 1580.7 745.1 1596.0 744.7 C 1611.3 744.2 1634.3 743.5 1642.0 743.3" stroke="#F5F0E8" stroke-width="1.5" stroke-opacity="0.229" fill="none" stroke-linecap="round"/><path d="M -60.0 867.5 C -52.3 867.8 -29.3 869.0 -14.0 869.5 C 1.3 869.9 16.7 870.2 32.0 870.2 C 47.3 870.2 62.7 870.0 78.0 869.6 C 93.3 869.3 108.7 868.7 124.0 867.9 C 139.3 867.2 154.7 866.2 170.0 865.2 C 185.3 864.2 200.7 863.1 216.0 861.9 C 231.3 860.7 246.7 859.4 262.0 858.2 C 277.3 857.0 292.7 855.8 308.0 854.7 C 323.3 853.6 338.7 852.5 354.0 851.6 C 369.3 850.8 384.7 850.0 400.0 849.5 C 415.3 849.0 430.7 848.7 446.0 848.6 C 461.3 848.5 476.7 848.7 492.0 849.1 C 507.3 849.6 522.7 850.3 538.0 851.2 C 553.3 852.2 568.7 853.4 584.0 854.8 C 599.3 856.3 614.7 858.0 630.0 859.8 C 645.3 861.7 660.7 863.8 676.0 866.0 C 691.3 868.1 706.7 870.5 722.0 872.9 C 737.3 875.2 752.7 877.7 768.0 880.1 C 783.3 882.5 798.7 884.9 814.0 887.2 C 829.3 889.5 844.7 891.8 860.0 893.8 C 875.3 895.8 890.7 897.8 906.0 899.4 C 921.3 901.1 936.7 902.6 952.0 903.8 C 967.3 905.0 982.7 906.0 998.0 906.7 C 1013.3 907.4 1028.7 907.9 1044.0 908.1 C 1059.3 908.3 1074.7 908.2 1090.0 907.9 C 1105.3 907.6 1120.7 907.1 1136.0 906.4 C 1151.3 905.7 1166.7 904.8 1182.0 903.8 C 1197.3 902.8 1212.7 901.6 1228.0 900.4 C 1243.3 899.2 1258.7 898.0 1274.0 896.7 C 1289.3 895.5 1304.7 894.3 1320.0 893.1 C 1335.3 892.0 1350.7 890.9 1366.0 890.0 C 1381.3 889.1 1396.7 888.3 1412.0 887.7 C 1427.3 887.1 1442.7 886.6 1458.0 886.4 C 1473.3 886.2 1488.7 886.2 1504.0 886.4 C 1519.3 886.6 1534.7 887.0 1550.0 887.6 C 1565.3 888.2 1580.7 889.0 1596.0 890.0 C 1611.3 891.0 1634.3 892.9 1642.0 893.5" stroke="#F5F0E8" stroke-width="1" stroke-opacity="0.051" fill="none" stroke-linecap="round"/><path d="M -60.0 885.5 C -52.3 886.2 -29.3 888.6 -14.0 890.2 C 1.3 891.7 16.7 893.3 32.0 894.8 C 47.3 896.2 62.7 897.7 78.0 899.1 C 93.3 900.4 108.7 901.7 124.0 902.9 C 139.3 904.1 154.7 905.2 170.0 906.2 C 185.3 907.2 200.7 908.1 216.0 908.9 C 231.3 909.7 246.7 910.4 262.0 910.9 C 277.3 911.5 292.7 912.0 308.0 912.3 C 323.3 912.7 338.7 912.9 354.0 913.1 C 369.3 913.2 384.7 913.3 400.0 913.3 C 415.3 913.3 430.7 913.2 446.0 913.1 C 461.3 913.0 476.7 912.8 492.0 912.6 C 507.3 912.4 522.7 912.2 538.0 912.0 C 553.3 911.7 568.7 911.5 584.0 911.3 C 599.3 911.1 614.7 910.9 630.0 910.7 C 645.3 910.6 660.7 910.4 676.0 910.4 C 691.3 910.3 706.7 910.3 722.0 910.3 C 737.3 910.4 752.7 910.5 768.0 910.7 C 783.3 910.9 798.7 911.1 814.0 911.5 C 829.3 911.8 844.7 912.2 860.0 912.7 C 875.3 913.2 890.7 913.7 906.0 914.3 C 921.3 914.9 936.7 915.6 952.0 916.3 C 967.3 917.1 982.7 917.8 998.0 918.7 C 1013.3 919.5 1028.7 920.4 1044.0 921.2 C 1059.3 922.1 1074.7 923.1 1090.0 924.0 C 1105.3 924.9 1120.7 925.9 1136.0 926.8 C 1151.3 927.8 1166.7 928.7 1182.0 929.7 C 1197.3 930.6 1212.7 931.5 1228.0 932.5 C 1243.3 933.4 1258.7 934.3 1274.0 935.2 C 1289.3 936.0 1304.7 936.9 1320.0 937.7 C 1335.3 938.5 1350.7 939.4 1366.0 940.1 C 1381.3 940.9 1396.7 941.7 1412.0 942.4 C 1427.3 943.1 1442.7 943.8 1458.0 944.5 C 1473.3 945.2 1488.7 945.8 1504.0 946.5 C 1519.3 947.1 1534.7 947.7 1550.0 948.3 C 1565.3 949.0 1580.7 949.5 1596.0 950.1 C 1611.3 950.7 1634.3 951.6 1642.0 951.9" stroke="#F5F0E8" stroke-width="1" stroke-opacity="0.050" fill="none" stroke-linecap="round"/><path d="M -60.0 936.8 C -52.3 936.5 -29.3 935.6 -14.0 934.9 C 1.3 934.2 16.7 933.4 32.0 932.6 C 47.3 931.8 62.7 930.9 78.0 930.0 C 93.3 929.2 108.7 928.2 124.0 927.3 C 139.3 926.3 154.7 925.3 170.0 924.3 C 185.3 923.3 200.7 922.2 216.0 921.2 C 231.3 920.1 246.7 919.0 262.0 918.0 C 277.3 916.9 292.7 915.8 308.0 914.7 C 323.3 913.6 338.7 912.5 354.0 911.4 C 369.3 910.4 384.7 909.3 400.0 908.2 C 415.3 907.2 430.7 906.2 446.0 905.1 C 461.3 904.1 476.7 903.2 492.0 902.2 C 507.3 901.3 522.7 900.4 538.0 899.5 C 553.3 898.6 568.7 897.8 584.0 897.0 C 599.3 896.3 614.7 895.5 630.0 894.9 C 645.3 894.2 660.7 893.6 676.0 893.0 C 691.3 892.4 706.7 891.9 722.0 891.5 C 737.3 891.0 752.7 890.6 768.0 890.3 C 783.3 890.0 798.7 889.7 814.0 889.5 C 829.3 889.3 844.7 889.2 860.0 889.1 C 875.3 889.0 890.7 889.0 906.0 889.0 C 921.3 889.0 936.7 889.1 952.0 889.3 C 967.3 889.4 982.7 889.6 998.0 889.9 C 1013.3 890.1 1028.7 890.4 1044.0 890.8 C 1059.3 891.1 1074.7 891.5 1090.0 891.9 C 1105.3 892.4 1120.7 892.8 1136.0 893.3 C 1151.3 893.8 1166.7 894.3 1182.0 894.8 C 1197.3 895.4 1212.7 895.9 1228.0 896.5 C 1243.3 897.0 1258.7 897.6 1274.0 898.2 C 1289.3 898.8 1304.7 899.4 1320.0 899.9 C 1335.3 900.5 1350.7 901.1 1366.0 901.6 C 1381.3 902.1 1396.7 902.7 1412.0 903.2 C 1427.3 903.7 1442.7 904.2 1458.0 904.6 C 1473.3 905.1 1488.7 905.5 1504.0 905.9 C 1519.3 906.2 1534.7 906.6 1550.0 906.8 C 1565.3 907.1 1580.7 907.4 1596.0 907.5 C 1611.3 907.7 1634.3 907.9 1642.0 907.9" stroke="#F5F0E8" stroke-width="1" stroke-opacity="0.050" fill="none" stroke-linecap="round"/><path d="M -60.0 975.8 C -52.3 975.1 -29.3 973.2 -14.0 971.7 C 1.3 970.2 16.7 968.6 32.0 967.0 C 47.3 965.3 62.7 963.6 78.0 961.8 C 93.3 960.0 108.7 958.1 124.0 956.3 C 139.3 954.4 154.7 952.5 170.0 950.7 C 185.3 948.9 200.7 947.0 216.0 945.3 C 231.3 943.5 246.7 941.8 262.0 940.2 C 277.3 938.6 292.7 937.0 308.0 935.6 C 323.3 934.2 338.7 932.9 354.0 931.7 C 369.3 930.6 384.7 929.5 400.0 928.7 C 415.3 927.8 430.7 927.0 446.0 926.4 C 461.3 925.8 476.7 925.3 492.0 925.0 C 507.3 924.7 522.7 924.5 538.0 924.4 C 553.3 924.3 568.7 924.3 584.0 924.4 C 599.3 924.5 614.7 924.8 630.0 925.0 C 645.3 925.3 660.7 925.6 676.0 926.0 C 691.3 926.3 706.7 926.7 722.0 927.1 C 737.3 927.4 752.7 927.8 768.0 928.1 C 783.3 928.4 798.7 928.7 814.0 928.9 C 829.3 929.1 844.7 929.2 860.0 929.3 C 875.3 929.3 890.7 929.2 906.0 929.1 C 921.3 928.9 936.7 928.6 952.0 928.2 C 967.3 927.8 982.7 927.3 998.0 926.7 C 1013.3 926.1 1028.7 925.3 1044.0 924.4 C 1059.3 923.6 1074.7 922.6 1090.0 921.5 C 1105.3 920.5 1120.7 919.3 1136.0 918.1 C 1151.3 916.9 1166.7 915.5 1182.0 914.2 C 1197.3 912.9 1212.7 911.4 1228.0 910.0 C 1243.3 908.6 1258.7 907.2 1274.0 905.8 C 1289.3 904.4 1304.7 903.0 1320.0 901.6 C 1335.3 900.3 1350.7 899.0 1366.0 897.7 C 1381.3 896.5 1396.7 895.3 1412.0 894.2 C 1427.3 893.1 1442.7 892.1 1458.0 891.2 C 1473.3 890.3 1488.7 889.5 1504.0 888.7 C 1519.3 888.0 1534.7 887.4 1550.0 886.9 C 1565.3 886.3 1580.7 885.9 1596.0 885.6 C 1611.3 885.2 1634.3 884.9 1642.0 884.7" stroke="#F5F0E8" stroke-width="1.5" stroke-opacity="0.267" fill="none" stroke-linecap="round"/></g>
<path d="M -60.0 451.9 C -52.3 451.8 -29.3 451.3 -14.0 451.0 C 1.3 450.7 16.7 450.3 32.0 450.0 C 47.3 449.7 62.7 449.3 78.0 448.9 C 93.3 448.5 108.7 448.2 124.0 447.7 C 139.3 447.3 154.7 446.9 170.0 446.5 C 185.3 446.0 200.7 445.6 216.0 445.1 C 231.3 444.6 246.7 444.1 262.0 443.6 C 277.3 443.1 292.7 442.6 308.0 442.1 C 323.3 441.5 338.7 441.0 354.0 440.4 C 369.3 439.9 384.7 439.3 400.0 438.7 C 415.3 438.2 430.7 437.6 446.0 437.0 C 461.3 436.4 476.7 435.9 492.0 435.3 C 507.3 434.7 522.7 434.1 538.0 433.6 C 553.3 433.0 568.7 432.4 584.0 431.9 C 599.3 431.4 614.7 430.8 630.0 430.3 C 645.3 429.8 660.7 429.3 676.0 428.9 C 691.3 428.4 706.7 428.0 722.0 427.6 C 737.3 427.2 752.7 426.8 768.0 426.4 C 783.3 426.1 798.7 425.8 814.0 425.5 C 829.3 425.3 844.7 425.0 860.0 424.9 C 875.3 424.7 890.7 424.5 906.0 424.4 C 921.3 424.3 936.7 424.3 952.0 424.3 C 967.3 424.3 982.7 424.3 998.0 424.4 C 1013.3 424.5 1028.7 424.6 1044.0 424.7 C 1059.3 424.9 1074.7 425.1 1090.0 425.4 C 1105.3 425.6 1120.7 425.9 1136.0 426.3 C 1151.3 426.6 1166.7 427.0 1182.0 427.4 C 1197.3 427.8 1212.7 428.2 1228.0 428.7 C 1243.3 429.2 1258.7 429.6 1274.0 430.2 C 1289.3 430.7 1304.7 431.2 1320.0 431.8 C 1335.3 432.3 1350.7 432.9 1366.0 433.4 C 1381.3 434.0 1396.7 434.6 1412.0 435.1 C 1427.3 435.7 1442.7 436.3 1458.0 436.9 C 1473.3 437.4 1488.7 438.0 1504.0 438.5 C 1519.3 439.0 1534.7 439.6 1550.0 440.1 C 1565.3 440.6 1580.7 441.1 1596.0 441.5 C 1611.3 442.0 1634.3 442.6 1642.0 442.8" stroke="#C9A96E" stroke-width="2" stroke-opacity="0.5" fill="none" stroke-linecap="round"/>
<rect width="1600" height="900" fill="url(#vig)"/>
<rect width="1600" height="900" filter="url(#grain)" opacity="0.05"/>
</svg>