<svg xmlns="http://www.w3.org/2000/svg" viewBox="0 0 1600 900" preserveAspectRatio="xMidYMid slice">
<defs>
<linearGradient id="bg" x1="0" y1="0" x2="0" y2="1"><stop offset="0" stop-color="#0b160f"/><stop offset="1" stop-color="#15271b"/></linearGradient>
<radialGradient id="glow" cx="0.362" cy="0.433" r="0.75"><stop offset="0" stop-color="#C9A96E" stop-opacity="0.15"/><stop offset="1" stop-color="#C9A96E" stop-opacity="0"/></radialGradient>
<radialGradient id="vig" cx="0.5" cy="0.5" r="0.75"><stop offset="0.5" stop-color="#000" stop-opacity="0"/><stop offset="1" stop-color="#000" stop-opacity="0.5"/></radialGradient>
<filter id="grain"><feTurbulence type="fractalNoise" baseFrequency="0.9" numOctaves="2" stitchTiles="stitch"/><feColorMatrix type="matrix" values="0 0 0 0 0 0 0 0 0 0 0 0 0 0 0 0 0 0 0.55 0"/></filter>
</defs>
<rect width="1600" height="900" fill="url(#bg)"/>
<rect width="1600" height="900" fill="url(#glow)"/>
<path d="M -60.0 569.0 C -52.3 569.2 -29.3 570.1 -14.0 570.7 C 1.3 571.3 16.7 571.8 32.0 572.3 C 47.3 572.7 62.7 573.2 78.0 573.6 C 93.3 574.0 108.7 574.3 124.0 574.6 C 139.3 574.9 154.7 575.2 170.0 575.4 C 185.3 575.5 200.7 575.7 216.0 575.7 C 231.3 575.8 246.7 575.8 262.0 575.7 C 277.3 575.6 292.7 575.5 308.0 575.3 C 323.3 575.1 338.7 574.8 354.0 574.5 C 369.3 574.1 384.7 573.7 400.0 573.2 C 415.3 572.8 430.7 572.2 446.0 571.6 C 461.3 571.0 476.7 570.3 492.0 569.5 C 507.3 568.8 522.7 568.0 538.0 567.1 C 553.3 566.2 568.7 565.3 584.0 564.3 C 599.3 563.3 614.7 562.2 630.0 561.1 C 645.3 560.0 660.7 558.9 676.0 557.7 C 691.3 556.5 706.7 555.3 722.0 554.0 C 737.3 552.7 752.7 551.4 768.0 550.1 C 783.3 548.8 798.7 547.4 814.0 546.0 C 829.3 544.6 844.7 543.2 860.0 541.8 C 875.3 540.4 890.7 539.0 906.0 537.5 C 921.3 536.1 936.7 534.7 952.0 533.2 C 967.3 531.8 982.7 530.4 998.0 528.9 C 1013.3 527.5 1028.7 526.1 1044.0 524.7 C 1059.3 523.3 1074.7 521.9 1090.0 520.6 C 1105.3 519.2 1120.7 517.9 1136.0 516.6 C 1151.3 515.3 1166.7 514.0 1182.0 512.8 C 1197.3 511.5 1212.7 510.3 1228.0 509.1 C 1243.3 508.0 1258.7 506.8 1274.0 505.8 C 1289.3 504.7 1304.7 503.6 1320.0 502.6 C 1335.3 501.6 1350.7 500.6 1366.0 499.7 C 1381.3 498.8 1396.7 497.9 1412.0 497.1 C 1427.3 496.2 1442.7 495.4 1458.0 494.7 C 1473.3 493.9 1488.7 493.2 1504.0 492.5 C 1519.3 491.9 1534.7 491.2 1550.0 490.6 C 1565.3 490.0 1580.7 489.5 1596.0 489.0 C 1611.3 488.4 1631.3 409.0 1642.0 487.5 C 1652.7 566.0 1943.7 881.2 1660.0 960.0 C 1376.3 1038.8 226.7 960.0 -60.0 960.0 Z" fill="#C9A96E" fill-opacity="0.028"/>
<g><path d="M -60.0 -63.2 C -52.3 -63.2 -29.3 -63.3 -14.0 -63.3 C 1.3 -63.4 16.7 -63.4 32.0 -63.5 C 47.3 -63.5 62.7 -63.6 78.0 -63.7 C 93.3 -63.8 108.7 -63.8 124.0 -64.0 C 139.3 -64.1 154.7 -64.3 170.0 -64.5 C 185.3 -64.7 200.7 -65.0 216.0 -65.3 C 231.3 -65.6 246.7 -66.0 262.0 -66.4 C 277.3 -66.8 292.7 -67.3 308.0 -67.9 C 323.3 -68.4 338.7 -69.0 354.0 -69.7 C 369.3 -70.4 384.7 -71.1 400.0 -71.9 C 415.3 -72.7 430.7 -73.6 446.0 -74.5 C 461.3 -75.3 476.7 -76.3 492.0 -77.3 C 507.3 -78.3 522.7 -79.3 538.0 -80.4 C 553.3 -81.4 568.7 -82.5 584.0 -83.6 C 599.3 -84.7 614.7 -85.9 630.0 -87.0 C 645.3 -88.1 660.7 -89.3 676.0 -90.4 C 691.3 -91.5 706.7 -92.6 722.0 -93.7 C 737.3 -94.8 752.7 -95.9 768.0 -96.9 C 783.3 -98.0 798.7 -99.0 814.0 -99.9 C 829.3 -100.9 844.7 -101.8 860.0 -102.7 C 875.3 -103.6 890.7 -104.4 906.0 -105.2 C 921.3 -105.9 936.7 -106.7 952.0 -107.3 C 967.3 -108.0 982.7 -108.6 998.0 -109.1 C 1013.3 -109.6 1028.7 -110.1 1044.0 -110.6 C 1059.3 -111.0 1074.7 -111.4 1090.0 -111.7 C 1105.3 -112.1 1120.7 -112.4 1136.0 -112.6 C 1151.3 -112.9 1166.7 -113.1 1182.0 -113.3 C 1197.3 -113.5 1212.7 -113.7 1228.0 -113.9 C 1243.3 -114.0 1258.7 -114.2 1274.0 -114.3 C 1289.3 -114.5 1304.7 -114.7 1320.0 -114.8 C 1335.3 -115.0 1350.7 -115.2 1366.0 -115.4 C 1381.3 -115.7 1396.7 -115.9 1412.0 -116.2 C 1427.3 -116.5 1442.7 -116.8 1458.0 -117.2 C 1473.3 -117.6 1488.7 -118.1 1504.0 -118.6 C 1519.3 -119.1 1534.7 -119.7 1550.0 -120.3 C 1565.3 -120.9 1580.7 -121.6 1596.0 -122.4 C 1611.3 -123.2 1634.3 -124.5 1642.0 -124.9" stroke="#F5F0E8" stroke-width="1" stroke-opacity="0.088" fill="none" stroke-linecap="round"/><path d="M -60.0 -20.5 C -52.3 -19.9 -29.3 -18.1 -14.0 -17.0 C 1.3 -15.9 16.7 -14.8 32.0 -13.8 C 47.3 -12.9 62.7 -11.9 78.0 -11.1 C 93.3 -10.3 108.7 -9.5 124.0 -8.9 C 139.3 -8.2 154.7 -7.7 170.0 -7.2 C 185.3 -6.7 200.7 -6.3 216.0 -5.9 C 231.3 -5.6 246.7 -5.3 262.0 -5.1 C 277.3 -4.9 292.7 -4.8 308.0 -4.7 C 323.3 -4.6 338.7 -4.5 354.0 -4.5 C 369.3 -4.4 384.7 -4.4 400.0 -4.5 C 415.3 -4.5 430.7 -4.5 446.0 -4.5 C 461.3 -4.5 476.7 -4.5 492.0 -4.5 C 507.3 -4.5 522.7 -4.5 538.0 -4.4 C 553.3 -4.3 568.7 -4.2 584.0 -4.1 C 599.3 -4.0 614.7 -3.8 630.0 -3.6 C 645.3 -3.4 660.7 -3.2 676.0 -2.9 C 691.3 -2.6 706.7 -2.3 722.0 -2.0 C 737.3 -1.7 752.7 -1.3 768.0 -1.0 C 783.3 -0.6 798.7 -0.2 814.0 0.2 C 829.3 0.5 844.7 0.9 860.0 1.3 C 875.3 1.6 890.7 2.0 906.0 2.3 C 921.3 2.6 936.7 2.9 952.0 3.1 C 967.3 3.3 982.7 3.5 998.0 3.6 C 1013.3 3.8 1028.7 3.8 1044.0 3.8 C 1059.3 3.8 1074.7 3.7 1090.0 3.6 C 1105.3 3.4 1120.7 3.2 1136.0 2.9 C 1151.3 2.6 1166.7 2.2 1182.0 1.7 C 1197.3 1.3 1212.7 0.8 1228.0 0.2 C 1243.3 -0.4 1258.7 -1.0 1274.0 -1.7 C 1289.3 -2.3 1304.7 -3.0 1320.0 -3.8 C 1335.3 -4.5 1350.7 -5.3 1366.0 -6.0 C 1381.3 -6.7 1396.7 -7.5 1412.0 -8.2 C 1427.3 -9.0 1442.7 -9.7 1458.0 -10.4 C 1473.3 -11.0 1488.7 -11.7 1504.0 -12.2 C 1519.3 -12.8 1534.7 -13.3 1550.0 -13.7 C 1565.3 -14.1 1580.7 -14.5 1596.0 -14.7 C 1611.3 -15.0 1634.3 -15.1 1642.0 -15.2" stroke="#C9A96E" stroke-width="1.5" stroke-opacity="0.226" fill="none" stroke-linecap="round"/><path d="M -60.0 7.0 C -52.3 6.9 -29.3 6.5 -14.0 6.3 C 1.3 6.1 16.7 5.9 32.0 5.8 C 47.3 5.7 62.7 5.6 78.0 5.5 C 93.3 5.4 108.7 5.3 124.0 5.2 C 139.3 5.2 154.7 5.1 170.0 5.0 C 185.3 4.9 200.7 4.8 216.0 4.6 C 231.3 4.4 246.7 4.2 262.0 4.0 C 277.3 3.8 292.7 3.5 308.0 3.1 C 323.3 2.8 338.7 2.4 354.0 2.0 C 369.3 1.5 384.7 1.0 400.0 0.4 C 415.3 -0.1 430.7 -0.7 446.0 -1.4 C 461.3 -2.1 476.7 -2.8 492.0 -3.6 C 507.3 -4.4 522.7 -5.2 538.0 -6.0 C 553.3 -6.8 568.7 -7.7 584.0 -8.6 C 599.3 -9.5 614.7 -10.4 630.0 -11.2 C 645.3 -12.1 660.7 -13.0 676.0 -13.8 C 691.3 -14.7 706.7 -15.5 722.0 -16.3 C 737.3 -17.0 752.7 -17.7 768.0 -18.4 C 783.3 -19.0 798.7 -19.6 814.0 -20.1 C 829.3 -20.6 844.7 -21.1 860.0 -21.4 C 875.3 -21.7 890.7 -22.0 906.0 -22.1 C 921.3 -22.2 936.7 -22.3 952.0 -22.2 C 967.3 -22.2 982.7 -22.0 998.0 -21.8 C 1013.3 -21.5 1028.7 -21.2 1044.0 -20.8 C 1059.3 -20.3 1074.7 -19.8 1090.0 -19.2 C 1105.3 -18.7 1120.7 -18.0 1136.0 -17.3 C 1151.3 -16.6 1166.7 -15.8 1182.0 -15.0 C 1197.3 -14.2 1212.7 -13.4 1228.0 -12.6 C 1243.3 -11.8 1258.7 -10.9 1274.0 -10.1 C 1289.3 -9.3 1304.7 -8.5 1320.0 -7.7 C 1335.3 -6.9 1350.7 -6.2 1366.0 -5.5 C 1381.3 -4.8 1396.7 -4.2 1412.0 -3.7 C 1427.3 -3.1 1442.7 -2.6 1458.0 -2.2 C 1473.3 -1.9 1488.7 -1.6 1504.0 -1.3 C 1519.3 -1.1 1534.7 -1.0 1550.0 -1.0 C 1565.3 -1.0 1580.7 -1.1 1596.0 -1.2 C 1611.3 -1.4 1634.3 -1.9 1642.0 -2.0" stroke="#F5F0E8" stroke-width="1" stroke-opacity="0.085" fill="none" stroke-linecap="round"/><path d="M -60.0 63.3 C -52.3 62.7 -29.3 60.9 -14.0 59.8 C 1.3 58.7 16.7 57.6 32.0 56.5 C 47.3 55.5 62.7 54.5 78.0 53.6 C 93.3 52.7 108.7 51.9 124.0 51.1 C 139.3 50.4 154.7 49.7 170.0 49.0 C 185.3 48.4 200.7 47.8 216.0 47.3 C 231.3 46.8 246.7 46.3 262.0 45.9 C 277.3 45.5 292.7 45.2 308.0 44.8 C 323.3 44.5 338.7 44.2 354.0 44.0 C 369.3 43.7 384.7 43.5 400.0 43.2 C 415.3 42.9 430.7 42.7 446.0 42.4 C 461.3 42.2 476.7 41.9 492.0 41.6 C 507.3 41.2 522.7 40.9 538.0 40.5 C 553.3 40.1 568.7 39.6 584.0 39.1 C 599.3 38.6 614.7 38.0 630.0 37.3 C 645.3 36.7 660.7 35.9 676.0 35.1 C 691.3 34.3 706.7 33.5 722.0 32.5 C 737.3 31.5 752.7 30.5 768.0 29.4 C 783.3 28.3 798.7 27.1 814.0 25.9 C 829.3 24.7 844.7 23.4 860.0 22.1 C 875.3 20.7 890.7 19.3 906.0 17.9 C 921.3 16.5 936.7 15.1 952.0 13.6 C 967.3 12.2 982.7 10.7 998.0 9.3 C 1013.3 7.9 1028.7 6.4 1044.0 5.1 C 1059.3 3.7 1074.7 2.3 1090.0 1.0 C 1105.3 -0.2 1120.7 -1.5 1136.0 -2.6 C 1151.3 -3.8 1166.7 -4.9 1182.0 -5.8 C 1197.3 -6.8 1212.7 -7.7 1228.0 -8.5 C 1243.3 -9.3 1258.7 -9.9 1274.0 -10.5 C 1289.3 -11.0 1304.7 -11.5 1320.0 -11.8 C 1335.3 -12.1 1350.7 -12.3 1366.0 -12.4 C 1381.3 -12.5 1396.7 -12.5 1412.0 -12.4 C 1427.3 -12.2 1442.7 -12.0 1458.0 -11.6 C 1473.3 -11.3 1488.7 -10.9 1504.0 -10.4 C 1519.3 -9.9 1534.7 -9.2 1550.0 -8.6 C 1565.3 -8.0 1580.7 -7.2 1596.0 -6.5 C 1611.3 -5.7 1634.3 -4.5 1642.0 -4.1" stroke="#F5F0E8" stroke-width="1" stroke-opacity="0.052" fill="none" stroke-linecap="round"/><path d="M -60.0 76.3 C -52.3 76.1 -29.3 75.5 -14.0 75.2 C 1.3 74.8 16.7 74.4 32.0 74.1 C 47.3 73.8 62.7 73.5 78.0 73.2 C 93.3 72.9 108.7 72.6 124.0 72.4 C 139.3 72.2 154.7 71.9 170.0 71.7 C 185.3 71.5 200.7 71.4 216.0 71.2 C 231.3 71.1 246.7 70.9 262.0 70.8 C 277.3 70.7 292.7 70.7 308.0 70.6 C 323.3 70.5 338.7 70.5 354.0 70.5 C 369.3 70.5 384.7 70.5 400.0 70.5 C 415.3 70.5 430.7 70.5 446.0 70.6 C 461.3 70.6 476.7 70.7 492.0 70.8 C 507.3 70.9 522.7 71.0 538.0 71.1 C 553.3 71.3 568.7 71.4 584.0 71.5 C 599.3 71.7 614.7 71.9 630.0 72.0 C 645.3 72.2 660.7 72.4 676.0 72.6 C 691.3 72.8 706.7 73.0 722.0 73.2 C 737.3 73.4 752.7 73.6 768.0 73.8 C 783.3 74.1 798.7 74.3 814.0 74.5 C 829.3 74.8 844.7 75.0 860.0 75.2 C 875.3 75.5 890.7 75.7 906.0 75.9 C 921.3 76.2 936.7 76.4 952.0 76.6 C 967.3 76.9 982.7 77.1 998.0 77.3 C 1013.3 77.5 1028.7 77.7 1044.0 77.9 C 1059.3 78.2 1074.7 78.4 1090.0 78.6 C 1105.3 78.8 1120.7 78.9 1136.0 79.1 C 1151.3 79.3 1166.7 79.5 1182.0 79.6 C 1197.3 79.8 1212.7 79.9 1228.0 80.0 C 1243.3 80.2 1258.7 80.3 1274.0 80.4 C 1289.3 80.5 1304.7 80.6 1320.0 80.7 C 1335.3 80.7 1350.7 80.8 1366.0 80.9 C 1381.3 80.9 1396.7 80.9 1412.0 81.0 C 1427.3 81.0 1442.7 81.0 1458.0 81.0 C 1473.3 80.9 1488.7 80.9 1504.0 80.9 C 1519.3 80.8 1534.7 80.7 1550.0 80.7 C 1565.3 80.6 1580.7 80.5 1596.0 80.4 C 1611.3 80.3 1634.3 80.1 1642.0 80.0" stroke="#F5F0E8" stroke-width="1" stroke-opacity="0.061" fill="none" stroke-linecap="round"/><path d="M -60.0 108.7 C -52.3 109.4 -29.3 111.4 -14.0 112.7 C 1.3 114.0 16.7 115.4 32.0 116.6 C 47.3 117.8 62.7 119.1 78.0 120.2 C 93.3 121.3 108.7 122.4 124.0 123.4 C 139.3 124.4 154.7 125.4 170.0 126.2 C 185.3 127.0 200.7 127.8 216.0 128.4 C 231.3 129.0 246.7 129.6 262.0 130.0 C 277.3 130.5 292.7 130.9 308.0 131.1 C 323.3 131.4 338.7 131.5 354.0 131.6 C 369.3 131.7 384.7 131.6 400.0 131.5 C 415.3 131.4 430.7 131.3 446.0 131.0 C 461.3 130.8 476.7 130.4 492.0 130.1 C 507.3 129.7 522.7 129.3 538.0 128.9 C 553.3 128.4 568.7 128.0 584.0 127.5 C 599.3 127.0 614.7 126.5 630.0 126.0 C 645.3 125.5 660.7 125.0 676.0 124.5 C 691.3 124.0 706.7 123.6 722.0 123.2 C 737.3 122.7 752.7 122.3 768.0 122.0 C 783.3 121.7 798.7 121.4 814.0 121.2 C 829.3 120.9 844.7 120.7 860.0 120.6 C 875.3 120.5 890.7 120.5 906.0 120.5 C 921.3 120.5 936.7 120.6 952.0 120.7 C 967.3 120.8 982.7 121.0 998.0 121.2 C 1013.3 121.5 1028.7 121.8 1044.0 122.1 C 1059.3 122.4 1074.7 122.8 1090.0 123.2 C 1105.3 123.6 1120.7 124.0 1136.0 124.4 C 1151.3 124.9 1166.7 125.3 1182.0 125.8 C 1197.3 126.2 1212.7 126.7 1228.0 127.1 C 1243.3 127.5 1258.7 127.8 1274.0 128.2 C 1289.3 128.5 1304.7 128.8 1320.0 129.0 C 1335.3 129.3 1350.7 129.4 1366.0 129.5 C 1381.3 129.6 1396.7 129.7 1412.0 129.6 C 1427.3 129.5 1442.7 129.3 1458.0 129.1 C 1473.3 128.8 1488.7 128.5 1504.0 128.0 C 1519.3 127.5 1534.7 127.0 1550.0 126.3 C 1565.3 125.7 1580.7 124.9 1596.0 124.0 C 1611.3 123.1 1634.3 121.6 1642.0 121.1" stroke="#C9A96E" stroke-width="1.5" stroke-opacity="0.270" fill="none" stroke-linecap="round"/><path d="M -60.0 159.1 C -52.3 158.2 -29.3 155.4 -14.0 153.7 C 1.3 152.1 16.7 150.6 32.0 149.2 C 47.3 147.9 62.7 146.8 78.0 145.8 C 93.3 144.8 108.7 144.0 124.0 143.3 C 139.3 142.7 154.7 142.2 170.0 141.8 C 185.3 141.4 200.7 141.2 216.0 141.0 C 231.3 140.9 246.7 140.8 262.0 140.8 C 277.3 140.7 292.7 140.8 308.0 140.7 C 323.3 140.7 338.7 140.7 354.0 140.6 C 369.3 140.4 384.7 140.3 400.0 140.0 C 415.3 139.7 430.7 139.3 446.0 138.8 C 461.3 138.3 476.7 137.6 492.0 136.8 C 507.3 136.0 522.7 135.1 538.0 134.0 C 553.3 132.9 568.7 131.7 584.0 130.4 C 599.3 129.1 614.7 127.6 630.0 126.1 C 645.3 124.6 660.7 123.0 676.0 121.4 C 691.3 119.8 706.7 118.2 722.0 116.6 C 737.3 115.0 752.7 113.5 768.0 112.0 C 783.3 110.6 798.7 109.2 814.0 108.1 C 829.3 106.9 844.7 105.8 860.0 105.0 C 875.3 104.1 890.7 103.5 906.0 103.1 C 921.3 102.6 936.7 102.4 952.0 102.5 C 967.3 102.5 982.7 102.8 998.0 103.3 C 1013.3 103.7 1028.7 104.5 1044.0 105.3 C 1059.3 106.2 1074.7 107.3 1090.0 108.5 C 1105.3 109.7 1120.7 111.1 1136.0 112.5 C 1151.3 113.9 1166.7 115.4 1182.0 116.9 C 1197.3 118.4 1212.7 119.9 1228.0 121.3 C 1243.3 122.6 1258.7 124.0 1274.0 125.1 C 1289.3 126.2 1304.7 127.2 1320.0 128.0 C 1335.3 128.7 1350.7 129.2 1366.0 129.5 C 1381.3 129.7 1396.7 129.7 1412.0 129.3 C 1427.3 129.0 1442.7 128.3 1458.0 127.4 C 1473.3 126.4 1488.7 125.1 1504.0 123.5 C 1519.3 121.9 1534.7 120.0 1550.0 117.9 C 1565.3 115.7 1580.7 113.3 1596.0 110.7 C 1611.3 108.1 1634.3 103.7 1642.0 102.3" stroke="#F5F0E8" stroke-width="1" stroke-opacity="0.059" fill="none" stroke-linecap="round"/><path d="M -60.0 207.7 C -52.3 208.0 -29.3 209.1 -14.0 209.5 C 1.3 209.9 16.7 210.1 32.0 210.1 C 47.3 210.1 62.7 209.8 78.0 209.5 C 93.3 209.2 108.7 208.7 124.0 208.1 C 139.3 207.6 154.7 206.9 170.0 206.2 C 185.3 205.5 200.7 204.8 216.0 204.1 C 231.3 203.4 246.7 202.7 262.0 202.2 C 277.3 201.6 292.7 201.1 308.0 200.8 C 323.3 200.5 338.7 200.3 354.0 200.2 C 369.3 200.2 384.7 200.4 400.0 200.7 C 415.3 201.0 430.7 201.6 446.0 202.3 C 461.3 203.0 476.7 203.9 492.0 205.0 C 507.3 206.0 522.7 207.3 538.0 208.7 C 553.3 210.1 568.7 211.6 584.0 213.2 C 599.3 214.9 614.7 216.6 630.0 218.4 C 645.3 220.2 660.7 222.1 676.0 223.9 C 691.3 225.7 706.7 227.6 722.0 229.3 C 737.3 231.1 752.7 232.9 768.0 234.5 C 783.3 236.1 798.7 237.6 814.0 239.0 C 829.3 240.4 844.7 241.7 860.0 242.8 C 875.3 243.8 890.7 244.8 906.0 245.5 C 921.3 246.3 936.7 246.9 952.0 247.3 C 967.3 247.8 982.7 248.0 998.0 248.2 C 1013.3 248.3 1028.7 248.3 1044.0 248.2 C 1059.3 248.1 1074.7 247.9 1090.0 247.6 C 1105.3 247.4 1120.7 247.0 1136.0 246.6 C 1151.3 246.3 1166.7 245.9 1182.0 245.6 C 1197.3 245.2 1212.7 244.9 1228.0 244.7 C 1243.3 244.4 1258.7 244.3 1274.0 244.2 C 1289.3 244.2 1304.7 244.2 1320.0 244.4 C 1335.3 244.7 1350.7 245.0 1366.0 245.5 C 1381.3 246.0 1396.7 246.6 1412.0 247.4 C 1427.3 248.2 1442.7 249.2 1458.0 250.3 C 1473.3 251.3 1488.7 252.6 1504.0 253.9 C 1519.3 255.2 1534.7 256.7 1550.0 258.2 C 1565.3 259.7 1580.7 261.4 1596.0 263.0 C 1611.3 264.6 1634.3 267.1 1642.0 268.0" stroke="#F5F0E8" stroke-width="1" stroke-opacity="0.074" fill="none" stroke-linecap="round"/><path d="M -60.0 232.9 C -52.3 232.1 -29.3 230.0 -14.0 228.4 C 1.3 226.9 16.7 225.3 32.0 223.8 C 47.3 222.3 62.7 220.7 78.0 219.4 C 93.3 218.0 108.7 216.6 124.0 215.5 C 139.3 214.4 154.7 213.4 170.0 212.7 C 185.3 212.0 200.7 211.4 216.0 211.2 C 231.3 211.0 246.7 211.0 262.0 211.3 C 277.3 211.7 292.7 212.3 308.0 213.3 C 323.3 214.3 338.7 215.5 354.0 217.1 C 369.3 218.7 384.7 220.6 400.0 222.7 C 415.3 224.8 430.7 227.2 446.0 229.8 C 461.3 232.4 476.7 235.3 492.0 238.2 C 507.3 241.1 522.7 244.2 538.0 247.3 C 553.3 250.4 568.7 253.7 584.0 256.8 C 599.3 259.9 614.7 263.1 630.0 266.0 C 645.3 268.9 660.7 271.8 676.0 274.4 C 691.3 277.0 706.7 279.4 722.0 281.5 C 737.3 283.6 752.7 285.4 768.0 286.8 C 783.3 288.3 798.7 289.4 814.0 290.2 C 829.3 290.9 844.7 291.3 860.0 291.3 C 875.3 291.3 890.7 291.0 906.0 290.2 C 921.3 289.5 936.7 288.4 952.0 287.1 C 967.3 285.7 982.7 284.0 998.0 282.1 C 1013.3 280.3 1028.7 278.1 1044.0 275.8 C 1059.3 273.6 1074.7 271.1 1090.0 268.7 C 1105.3 266.3 1120.7 263.7 1136.0 261.3 C 1151.3 258.9 1166.7 256.4 1182.0 254.2 C 1197.3 252.1 1212.7 249.9 1228.0 248.2 C 1243.3 246.4 1258.7 244.8 1274.0 243.5 C 1289.3 242.3 1304.7 241.3 1320.0 240.8 C 1335.3 240.2 1350.7 240.0 1366.0 240.2 C 1381.3 240.4 1396.7 240.9 1412.0 241.9 C 1427.3 242.8 1442.7 244.2 1458.0 245.8 C 1473.3 247.5 1488.7 249.5 1504.0 251.8 C 1519.3 254.1 1534.7 256.7 1550.0 259.5 C 1565.3 262.2 1580.7 265.3 1596.0 268.4 C 1611.3 271.5 1634.3 276.4 1642.0 278.0" stroke="#F5F0E8" stroke-width="1" stroke-opacity="0.051" fill="none" stroke-linecap="round"/><path d="M -60.0 277.6 C -52.3 277.4 -29.3 276.9 -14.0 276.3 C 1.3 275.8 16.7 275.1 32.0 274.4 C 47.3 273.6 62.7 272.8 78.0 271.8 C 93.3 270.9 108.7 269.9 124.0 268.8 C 139.3 267.8 154.7 266.6 170.0 265.5 C 185.3 264.4 200.7 263.2 216.0 262.0 C 231.3 260.8 246.7 259.6 262.0 258.5 C 277.3 257.3 292.7 256.2 308.0 255.1 C 323.3 254.0 338.7 253.0 354.0 252.1 C 369.3 251.1 384.7 250.2 400.0 249.5 C 415.3 248.7 430.7 248.1 446.0 247.5 C 461.3 247.0 476.7 246.6 492.0 246.3 C 507.3 246.1 522.7 245.9 538.0 246.0 C 553.3 246.0 568.7 246.2 584.0 246.5 C 599.3 246.9 614.7 247.4 630.0 248.0 C 645.3 248.7 660.7 249.5 676.0 250.5 C 691.3 251.5 706.7 252.7 722.0 254.0 C 737.3 255.3 752.7 256.7 768.0 258.3 C 783.3 259.9 798.7 261.6 814.0 263.5 C 829.3 265.3 844.7 267.2 860.0 269.3 C 875.3 271.3 890.7 273.4 906.0 275.6 C 921.3 277.8 936.7 280.1 952.0 282.4 C 967.3 284.6 982.7 287.0 998.0 289.3 C 1013.3 291.6 1028.7 293.9 1044.0 296.2 C 1059.3 298.5 1074.7 300.7 1090.0 302.9 C 1105.3 305.1 1120.7 307.2 1136.0 309.2 C 1151.3 311.3 1166.7 313.2 1182.0 315.0 C 1197.3 316.8 1212.7 318.5 1228.0 320.0 C 1243.3 321.6 1258.7 323.0 1274.0 324.2 C 1289.3 325.4 1304.7 326.4 1320.0 327.3 C 1335.3 328.2 1350.7 328.8 1366.0 329.3 C 1381.3 329.8 1396.7 330.1 1412.0 330.2 C 1427.3 330.3 1442.7 330.2 1458.0 329.9 C 1473.3 329.6 1488.7 329.1 1504.0 328.4 C 1519.3 327.7 1534.7 326.9 1550.0 325.8 C 1565.3 324.8 1580.7 323.6 1596.0 322.2 C 1611.3 320.8 1634.3 318.4 1642.0 317.6" stroke="#C9A96E" stroke-width="1.5" stroke-opacity="0.238" fill="none" stroke-linecap="round"/><path d="M -60.0 291.9 C -52.3 292.0 -29.3 292.0 -14.0 292.3 C 1.3 292.5 16.7 292.9 32.0 293.3 C 47.3 293.8 62.7 294.4 78.0 295.2 C 93.3 295.9 108.7 296.8 124.0 297.8 C 139.3 298.8 154.7 299.9 170.0 301.1 C 185.3 302.3 200.7 303.7 216.0 305.1 C 231.3 306.5 246.7 308.0 262.0 309.5 C 277.3 311.0 292.7 312.6 308.0 314.2 C 323.3 315.8 338.7 317.4 354.0 319.0 C 369.3 320.5 384.7 322.1 400.0 323.5 C 415.3 324.9 430.7 326.3 446.0 327.6 C 461.3 328.8 476.7 330.0 492.0 331.0 C 507.3 332.0 522.7 332.9 538.0 333.5 C 553.3 334.2 568.7 334.7 584.0 335.0 C 599.3 335.3 614.7 335.4 630.0 335.3 C 645.3 335.3 660.7 335.0 676.0 334.5 C 691.3 334.0 706.7 333.3 722.0 332.5 C 737.3 331.7 752.7 330.6 768.0 329.5 C 783.3 328.3 798.7 327.0 814.0 325.5 C 829.3 324.1 844.7 322.6 860.0 321.0 C 875.3 319.4 890.7 317.7 906.0 316.0 C 921.3 314.4 936.7 312.6 952.0 311.0 C 967.3 309.3 982.7 307.7 998.0 306.2 C 1013.3 304.7 1028.7 303.2 1044.0 302.0 C 1059.3 300.7 1074.7 299.5 1090.0 298.5 C 1105.3 297.6 1120.7 296.8 1136.0 296.2 C 1151.3 295.6 1166.7 295.3 1182.0 295.1 C 1197.3 295.0 1212.7 295.1 1228.0 295.4 C 1243.3 295.8 1258.7 296.4 1274.0 297.2 C 1289.3 298.0 1304.7 299.0 1320.0 300.3 C 1335.3 301.6 1350.7 303.0 1366.0 304.7 C 1381.3 306.3 1396.7 308.2 1412.0 310.2 C 1427.3 312.2 1442.7 314.3 1458.0 316.5 C 1473.3 318.7 1488.7 321.1 1504.0 323.4 C 1519.3 325.7 1534.7 328.2 1550.0 330.5 C 1565.3 332.9 1580.7 335.2 1596.0 337.5 C 1611.3 339.8 1634.3 343.0 1642.0 344.0" stroke="#F5F0E8" stroke-width="1" stroke-opacity="0.060" fill="none" stroke-linecap="round"/><path d="M -60.0 330.5 C -52.3 329.1 -29.3 324.5 -14.0 322.1 C 1.3 319.7 16.7 317.5 32.0 315.9 C 47.3 314.3 62.7 313.1 78.0 312.5 C 93.3 311.9 108.7 311.8 124.0 312.2 C 139.3 312.6 154.7 313.5 170.0 314.9 C 185.3 316.2 200.7 318.1 216.0 320.3 C 231.3 322.4 246.7 325.1 262.0 327.8 C 277.3 330.5 292.7 333.7 308.0 336.7 C 323.3 339.7 338.7 343.0 354.0 346.1 C 369.3 349.1 384.7 352.2 400.0 355.0 C 415.3 357.8 430.7 360.5 446.0 362.8 C 461.3 365.1 476.7 367.2 492.0 368.8 C 507.3 370.5 522.7 371.8 538.0 372.6 C 553.3 373.5 568.7 374.0 584.0 374.1 C 599.3 374.2 614.7 373.9 630.0 373.3 C 645.3 372.8 660.7 371.8 676.0 370.7 C 691.3 369.6 706.7 368.2 722.0 366.8 C 737.3 365.4 752.7 363.8 768.0 362.4 C 783.3 360.9 798.7 359.3 814.0 358.0 C 829.3 356.7 844.7 355.5 860.0 354.5 C 875.3 353.6 890.7 352.9 906.0 352.5 C 921.3 352.1 936.7 352.0 952.0 352.2 C 967.3 352.5 982.7 353.1 998.0 354.0 C 1013.3 354.9 1028.7 356.1 1044.0 357.6 C 1059.3 359.1 1074.7 360.9 1090.0 362.8 C 1105.3 364.8 1120.7 367.0 1136.0 369.1 C 1151.3 371.3 1166.7 373.7 1182.0 375.9 C 1197.3 378.0 1212.7 380.3 1228.0 382.3 C 1243.3 384.2 1258.7 386.1 1274.0 387.6 C 1289.3 389.2 1304.7 390.5 1320.0 391.4 C 1335.3 392.3 1350.7 392.9 1366.0 393.1 C 1381.3 393.3 1396.7 393.0 1412.0 392.5 C 1427.3 391.9 1442.7 390.9 1458.0 389.6 C 1473.3 388.4 1488.7 386.7 1504.0 384.8 C 1519.3 383.0 1534.7 380.8 1550.0 378.7 C 1565.3 376.5 1580.7 374.1 1596.0 371.8 C 1611.3 369.6 1634.3 366.3 1642.0 365.2" stroke="#F5F0E8" stroke-width="1" stroke-opacity="0.086" fill="none" stroke-linecap="round"/><path d="M -60.0 384.4 C -52.3 383.7 -29.3 381.7 -14.0 380.3 C 1.3 378.9 16.7 377.2 32.0 375.7 C 47.3 374.2 62.7 372.5 78.0 371.1 C 93.3 369.6 108.7 368.2 124.0 367.0 C 139.3 365.8 154.7 364.7 170.0 363.8 C 185.3 363.0 200.7 362.4 216.0 362.1 C 231.3 361.7 246.7 361.6 262.0 361.9 C 277.3 362.1 292.7 362.6 308.0 363.4 C 323.3 364.1 338.7 365.2 354.0 366.5 C 369.3 367.8 384.7 369.4 400.0 371.1 C 415.3 372.8 430.7 374.8 446.0 376.8 C 461.3 378.9 476.7 381.1 492.0 383.3 C 507.3 385.5 522.7 387.8 538.0 390.1 C 553.3 392.3 568.7 394.6 584.0 396.8 C 599.3 398.9 614.7 401.0 630.0 402.9 C 645.3 404.8 660.7 406.6 676.0 408.2 C 691.3 409.8 706.7 411.2 722.0 412.4 C 737.3 413.6 752.7 414.6 768.0 415.4 C 783.3 416.2 798.7 416.8 814.0 417.2 C 829.3 417.6 844.7 417.8 860.0 417.9 C 875.3 417.9 890.7 417.8 906.0 417.6 C 921.3 417.3 936.7 416.9 952.0 416.5 C 967.3 416.1 982.7 415.5 998.0 415.0 C 1013.3 414.4 1028.7 413.8 1044.0 413.2 C 1059.3 412.7 1074.7 412.1 1090.0 411.5 C 1105.3 411.0 1120.7 410.5 1136.0 410.0 C 1151.3 409.6 1166.7 409.2 1182.0 408.9 C 1197.3 408.5 1212.7 408.3 1228.0 408.1 C 1243.3 407.9 1258.7 407.8 1274.0 407.7 C 1289.3 407.7 1304.7 407.7 1320.0 407.8 C 1335.3 407.8 1350.7 407.9 1366.0 408.0 C 1381.3 408.2 1396.7 408.3 1412.0 408.5 C 1427.3 408.7 1442.7 408.8 1458.0 409.0 C 1473.3 409.2 1488.7 409.4 1504.0 409.6 C 1519.3 409.8 1534.7 410.0 1550.0 410.2 C 1565.3 410.4 1580.7 410.6 1596.0 410.8 C 1611.3 411.0 1634.3 411.3 1642.0 411.4" stroke="#F5F0E8" stroke-width="1" stroke-opacity="0.086" fill="none" stroke-linecap="round"/><path d="M -60.0 409.5 C -52.3 409.2 -29.3 408.2 -14.0 407.6 C 1.3 407.0 16.7 406.5 32.0 406.0 C 47.3 405.5 62.7 405.0 78.0 404.7 C 93.3 404.3 108.7 404.0 124.0 403.7 C 139.3 403.5 154.7 403.3 170.0 403.2 C 185.3 403.1 200.7 403.0 216.0 403.1 C 231.3 403.1 246.7 403.2 262.0 403.3 C 277.3 403.4 292.7 403.6 308.0 403.9 C 323.3 404.1 338.7 404.4 354.0 404.7 C 369.3 405.0 384.7 405.4 400.0 405.8 C 415.3 406.1 430.7 406.5 446.0 406.9 C 461.3 407.3 476.7 407.8 492.0 408.2 C 507.3 408.6 522.7 409.0 538.0 409.3 C 553.3 409.7 568.7 410.1 584.0 410.4 C 599.3 410.8 614.7 411.1 630.0 411.4 C 645.3 411.7 660.7 411.9 676.0 412.2 C 691.3 412.4 706.7 412.6 722.0 412.7 C 737.3 412.9 752.7 413.0 768.0 413.1 C 783.3 413.2 798.7 413.3 814.0 413.3 C 829.3 413.4 844.7 413.4 860.0 413.4 C 875.3 413.5 890.7 413.5 906.0 413.5 C 921.3 413.5 936.7 413.5 952.0 413.6 C 967.3 413.6 982.7 413.7 998.0 413.8 C 1013.3 413.9 1028.7 414.0 1044.0 414.1 C 1059.3 414.3 1074.7 414.5 1090.0 414.8 C 1105.3 415.1 1120.7 415.4 1136.0 415.8 C 1151.3 416.3 1166.7 416.7 1182.0 417.3 C 1197.3 417.9 1212.7 418.5 1228.0 419.2 C 1243.3 419.9 1258.7 420.8 1274.0 421.6 C 1289.3 422.5 1304.7 423.5 1320.0 424.6 C 1335.3 425.6 1350.7 426.8 1366.0 428.0 C 1381.3 429.2 1396.7 430.5 1412.0 431.8 C 1427.3 433.2 1442.7 434.6 1458.0 436.0 C 1473.3 437.5 1488.7 439.0 1504.0 440.5 C 1519.3 442.1 1534.7 443.6 1550.0 445.2 C 1565.3 446.8 1580.7 448.4 1596.0 449.9 C 1611.3 451.5 1634.3 453.8 1642.0 454.6" stroke="#C9A96E" stroke-width="1.5" stroke-opacity="0.243" fill="none" stroke-linecap="round"/><path d="M -60.0 504.5 C -52.3 504.1 -29.3 503.3 -14.0 502.3 C 1.3 501.3 16.7 500.0 32.0 498.3 C 47.3 496.7 62.7 494.8 78.0 492.6 C 93.3 490.5 108.7 488.0 124.0 485.3 C 139.3 482.6 154.7 479.7 170.0 476.5 C 185.3 473.4 200.7 470.0 216.0 466.5 C 231.3 463.0 246.7 459.3 262.0 455.6 C 277.3 451.8 292.7 447.9 308.0 444.0 C 323.3 440.1 338.7 436.1 354.0 432.1 C 369.3 428.1 384.7 424.1 400.0 420.3 C 415.3 416.4 430.7 412.5 446.0 408.8 C 461.3 405.1 476.7 401.5 492.0 398.1 C 507.3 394.7 522.7 391.5 538.0 388.5 C 553.3 385.5 568.7 382.7 584.0 380.1 C 599.3 377.6 614.7 375.3 630.0 373.4 C 645.3 371.4 660.7 369.7 676.0 368.3 C 691.3 366.9 706.7 365.8 722.0 365.0 C 737.3 364.3 752.7 363.8 768.0 363.7 C 783.3 363.5 798.7 363.7 814.0 364.1 C 829.3 364.6 844.7 365.4 860.0 366.4 C 875.3 367.4 890.7 368.7 906.0 370.2 C 921.3 371.7 936.7 373.5 952.0 375.5 C 967.3 377.4 982.7 379.6 998.0 381.8 C 1013.3 384.1 1028.7 386.6 1044.0 389.1 C 1059.3 391.5 1074.7 394.2 1090.0 396.8 C 1105.3 399.4 1120.7 402.1 1136.0 404.7 C 1151.3 407.3 1166.7 410.0 1182.0 412.5 C 1197.3 415.0 1212.7 417.5 1228.0 419.8 C 1243.3 422.0 1258.7 424.2 1274.0 426.2 C 1289.3 428.2 1304.7 430.0 1320.0 431.6 C 1335.3 433.2 1350.7 434.6 1366.0 435.7 C 1381.3 436.8 1396.7 437.6 1412.0 438.2 C 1427.3 438.8 1442.7 439.1 1458.0 439.1 C 1473.3 439.2 1488.7 438.9 1504.0 438.3 C 1519.3 437.8 1534.7 437.0 1550.0 435.8 C 1565.3 434.7 1580.7 433.3 1596.0 431.7 C 1611.3 430.0 1634.3 426.9 1642.0 426.0" stroke="#F5F0E8" stroke-width="1" stroke-opacity="0.067" fill="none" stroke-linecap="round"/><path d="M -60.0 492.3 C -52.3 491.8 -29.3 490.4 -14.0 489.4 C 1.3 488.4 16.7 487.3 32.0 486.4 C 47.3 485.6 62.7 484.7 78.0 484.1 C 93.3 483.5 108.7 483.0 124.0 482.8 C 139.3 482.6 154.7 482.7 170.0 483.0 C 185.3 483.4 200.7 484.1 216.0 485.1 C 231.3 486.0 246.7 487.4 262.0 488.9 C 277.3 490.5 292.7 492.4 308.0 494.5 C 323.3 496.6 338.7 499.0 354.0 501.4 C 369.3 503.9 384.7 506.6 400.0 509.3 C 415.3 512.0 430.7 514.8 446.0 517.5 C 461.3 520.3 476.7 523.0 492.0 525.5 C 507.3 528.0 522.7 530.5 538.0 532.7 C 553.3 534.8 568.7 536.8 584.0 538.4 C 599.3 540.1 614.7 541.4 630.0 542.5 C 645.3 543.5 660.7 544.2 676.0 544.5 C 691.3 544.9 706.7 544.9 722.0 544.6 C 737.3 544.3 752.7 543.7 768.0 542.8 C 783.3 542.0 798.7 540.8 814.0 539.6 C 829.3 538.4 844.7 536.9 860.0 535.4 C 875.3 534.0 890.7 532.3 906.0 530.9 C 921.3 529.4 936.7 527.8 952.0 526.5 C 967.3 525.2 982.7 523.9 998.0 523.0 C 1013.3 522.0 1028.7 521.2 1044.0 520.8 C 1059.3 520.3 1074.7 520.1 1090.0 520.2 C 1105.3 520.3 1120.7 520.7 1136.0 521.5 C 1151.3 522.2 1166.7 523.3 1182.0 524.6 C 1197.3 525.9 1212.7 527.5 1228.0 529.3 C 1243.3 531.1 1258.7 533.2 1274.0 535.4 C 1289.3 537.5 1304.7 539.9 1320.0 542.2 C 1335.3 544.5 1350.7 547.0 1366.0 549.2 C 1381.3 551.5 1396.7 553.8 1412.0 555.9 C 1427.3 558.0 1442.7 559.9 1458.0 561.6 C 1473.3 563.3 1488.7 564.8 1504.0 566.0 C 1519.3 567.2 1534.7 568.1 1550.0 568.7 C 1565.3 569.3 1580.7 569.7 1596.0 569.7 C 1611.3 569.7 1634.3 569.1 1642.0 568.9" stroke="#F5F0E8" stroke-width="1" stroke-opacity="0.084" fill="none" stroke-linecap="round"/><path d="M -60.0 513.5 C -52.3 514.6 -29.3 517.8 -14.0 520.1 C 1.3 522.3 16.7 524.6 32.0 526.9 C 47.3 529.1 62.7 531.5 78.0 533.8 C 93.3 536.1 108.7 538.5 124.0 540.8 C 139.3 543.1 154.7 545.5 170.0 547.7 C 185.3 550.0 200.7 552.3 216.0 554.4 C 231.3 556.6 246.7 558.7 262.0 560.8 C 277.3 562.8 292.7 564.8 308.0 566.6 C 323.3 568.5 338.7 570.3 354.0 571.9 C 369.3 573.6 384.7 575.1 400.0 576.5 C 415.3 577.9 430.7 579.2 446.0 580.4 C 461.3 581.6 476.7 582.6 492.0 583.5 C 507.3 584.4 522.7 585.2 538.0 585.8 C 553.3 586.5 568.7 587.0 584.0 587.4 C 599.3 587.8 614.7 588.1 630.0 588.2 C 645.3 588.4 660.7 588.4 676.0 588.4 C 691.3 588.4 706.7 588.2 722.0 588.0 C 737.3 587.8 752.7 587.4 768.0 587.1 C 783.3 586.7 798.7 586.2 814.0 585.8 C 829.3 585.3 844.7 584.8 860.0 584.2 C 875.3 583.7 890.7 583.1 906.0 582.5 C 921.3 581.9 936.7 581.4 952.0 580.8 C 967.3 580.2 982.7 579.6 998.0 579.1 C 1013.3 578.6 1028.7 578.1 1044.0 577.6 C 1059.3 577.1 1074.7 576.7 1090.0 576.3 C 1105.3 575.9 1120.7 575.6 1136.0 575.3 C 1151.3 575.0 1166.7 574.8 1182.0 574.6 C 1197.3 574.4 1212.7 574.2 1228.0 574.2 C 1243.3 574.1 1258.7 574.0 1274.0 574.1 C 1289.3 574.1 1304.7 574.1 1320.0 574.2 C 1335.3 574.3 1350.7 574.4 1366.0 574.6 C 1381.3 574.7 1396.7 574.9 1412.0 575.1 C 1427.3 575.3 1442.7 575.6 1458.0 575.8 C 1473.3 576.0 1488.7 576.2 1504.0 576.5 C 1519.3 576.7 1534.7 576.9 1550.0 577.1 C 1565.3 577.3 1580.7 577.5 1596.0 577.6 C 1611.3 577.8 1634.3 578.0 1642.0 578.0" stroke="#F5F0E8" stroke-width="1" stroke-opacity="0.081" fill="none" stroke-linecap="round"/><path d="M -60.0 569.0 C -52.3 569.2 -29.3 570.1 -14.0 570.7 C 1.3 571.3 16.7 571.8 32.0 572.3 C 47.3 572.7 62.7 573.2 78.0 573.6 C 93.3 574.0 108.7 574.3 124.0 574.6 C 139.3 574.9 154.7 575.2 170.0 575.4 C 185.3 575.5 200.7 575.7 216.0 575.7 C 231.3 575.8 246.7 575.8 262.0 575.7 C 277.3 575.6 292.7 575.5 308.0 575.3 C 323.3 575.1 338.7 574.8 354.0 574.5 C 369.3 574.1 384.7 573.7 400.0 573.2 C 415.3 572.8 430.7 572.2 446.0 571.6 C 461.3 571.0 476.7 570.3 492.0 569.5 C 507.3 568.8 522.7 568.0 538.0 567.1 C 553.3 566.2 568.7 565.3 584.0 564.3 C 599.3 563.3 614.7 562.2 630.0 561.1 C 645.3 560.0 660.7 558.9 676.0 557.7 C 691.3 556.5 706.7 555.3 722.0 554.0 C 737.3 552.7 752.7 551.4 768.0 550.1 C 783.3 548.8 798.7 547.4 814.0 546.0 C 829.3 544.6 844.7 543.2 860.0 541.8 C 875.3 540.4 890.7 539.0 906.0 537.5 C 921.3 536.1 936.7 534.7 952.0 533.2 C 967.3 531.8 982.7 530.4 998.0 528.9 C 1013.3 527.5 1028.7 526.1 1044.0 524.7 C 1059.3 523.3 1074.7 521.9 1090.0 520.6 C 1105.3 519.2 1120.7 517.9 1136.0 516.6 C 1151.3 515.3 1166.7 514.0 1182.0 512.8 C 1197.3 511.5 1212.7 510.3 1228.0 509.1 C 1243.3 508.0 1258.7 506.8 1274.0 505.8 C 1289.3 504.7 1304.7 503.6 1320.0 502.6 C 1335.3 501.6 1350.7 500.6 1366.0 499.7 C 1381.3 498.8 1396.7 497.9 1412.0 497.1 C 1427.3 496.2 1442.7 495.4 1458.0 494.7 C 1473.3 493.9 1488.7 493.2 1504.0 492.5 C 1519.3 491.9 1534.7 491.2 1550.0 490.6 C 1565.3 490.0 1580.7 489.5 1596.0 489.0 C 1611.3 488.4 1634.3 487.7 1642.0 487.5" stroke="#C9A96E" stroke-width="1.5" stroke-opacity="0.198" fill="none" stroke-linecap="round"/><path d="M -60.0 595.2 C -52.3 595.7 -29.3 597.6 -14.0 598.6 C 1.3 599.6 16.7 600.6 32.0 601.3 C 47.3 602.0 62.7 602.6 78.0 603.0 C 93.3 603.4 108.7 603.7 124.0 603.8 C 139.3 603.9 154.7 603.8 170.0 603.6 C 185.3 603.4 200.7 603.0 216.0 602.5 C 231.3 602.0 246.7 601.4 262.0 600.7 C 277.3 599.9 292.7 599.1 308.0 598.2 C 323.3 597.3 338.7 596.3 354.0 595.3 C 369.3 594.2 384.7 593.2 400.0 592.1 C 415.3 591.0 430.7 589.9 446.0 588.8 C 461.3 587.7 476.7 586.7 492.0 585.6 C 507.3 584.6 522.7 583.6 538.0 582.6 C 553.3 581.6 568.7 580.7 584.0 579.9 C 599.3 579.0 614.7 578.2 630.0 577.4 C 645.3 576.6 660.7 575.9 676.0 575.2 C 691.3 574.6 706.7 573.9 722.0 573.3 C 737.3 572.7 752.7 572.2 768.0 571.6 C 783.3 571.1 798.7 570.6 814.0 570.1 C 829.3 569.5 844.7 569.0 860.0 568.5 C 875.3 568.0 890.7 567.4 906.0 566.9 C 921.3 566.3 936.7 565.8 952.0 565.2 C 967.3 564.5 982.7 563.9 998.0 563.3 C 1013.3 562.6 1028.7 561.9 1044.0 561.2 C 1059.3 560.5 1074.7 559.8 1090.0 559.0 C 1105.3 558.3 1120.7 557.5 1136.0 556.7 C 1151.3 556.0 1166.7 555.2 1182.0 554.5 C 1197.3 553.7 1212.7 553.0 1228.0 552.3 C 1243.3 551.6 1258.7 550.9 1274.0 550.3 C 1289.3 549.7 1304.7 549.1 1320.0 548.6 C 1335.3 548.1 1350.7 547.7 1366.0 547.3 C 1381.3 547.0 1396.7 546.7 1412.0 546.5 C 1427.3 546.3 1442.7 546.1 1458.0 546.1 C 1473.3 546.0 1488.7 546.1 1504.0 546.1 C 1519.3 546.2 1534.7 546.4 1550.0 546.6 C 1565.3 546.8 1580.7 547.0 1596.0 547.3 C 1611.3 547.5 1634.3 547.9 1642.0 548.0" stroke="#F5F0E8" stroke-width="1" stroke-opacity="0.080" fill="none" stroke-linecap="round"/><path d="M -60.0 639.6 C -52.3 640.0 -29.3 641.4 -14.0 642.2 C 1.3 643.0 16.7 643.7 32.0 644.3 C 47.3 644.9 62.7 645.4 78.0 645.9 C 93.3 646.3 108.7 646.7 124.0 647.0 C 139.3 647.3 154.7 647.6 170.0 647.8 C 185.3 648.1 200.7 648.3 216.0 648.5 C 231.3 648.7 246.7 648.8 262.0 649.0 C 277.3 649.2 292.7 649.4 308.0 649.6 C 323.3 649.9 338.7 650.1 354.0 650.4 C 369.3 650.7 384.7 651.0 400.0 651.4 C 415.3 651.8 430.7 652.2 446.0 652.7 C 461.3 653.2 476.7 653.7 492.0 654.3 C 507.3 654.9 522.7 655.5 538.0 656.2 C 553.3 656.8 568.7 657.5 584.0 658.3 C 599.3 659.0 614.7 659.8 630.0 660.5 C 645.3 661.3 660.7 662.0 676.0 662.8 C 691.3 663.6 706.7 664.3 722.0 665.0 C 737.3 665.8 752.7 666.5 768.0 667.1 C 783.3 667.8 798.7 668.4 814.0 668.9 C 829.3 669.5 844.7 670.0 860.0 670.4 C 875.3 670.8 890.7 671.2 906.0 671.5 C 921.3 671.8 936.7 672.1 952.0 672.3 C 967.3 672.4 982.7 672.6 998.0 672.6 C 1013.3 672.7 1028.7 672.8 1044.0 672.8 C 1059.3 672.8 1074.7 672.8 1090.0 672.8 C 1105.3 672.7 1120.7 672.7 1136.0 672.7 C 1151.3 672.7 1166.7 672.7 1182.0 672.8 C 1197.3 672.9 1212.7 673.0 1228.0 673.2 C 1243.3 673.5 1258.7 673.7 1274.0 674.2 C 1289.3 674.6 1304.7 675.1 1320.0 675.7 C 1335.3 676.3 1350.7 677.1 1366.0 678.0 C 1381.3 678.9 1396.7 680.0 1412.0 681.1 C 1427.3 682.3 1442.7 683.7 1458.0 685.2 C 1473.3 686.6 1488.7 688.3 1504.0 690.0 C 1519.3 691.8 1534.7 693.7 1550.0 695.6 C 1565.3 697.6 1580.7 699.7 1596.0 701.9 C 1611.3 704.0 1634.3 707.4 1642.0 708.5" stroke="#F5F0E8" stroke-width="1" stroke-opacity="0.066" fill="none" stroke-linecap="round"/><path d="M -60.0 658.0 C -52.3 658.7 -29.3 660.9 -14.0 662.2 C 1.3 663.5 16.7 664.6 32.0 665.7 C 47.3 666.7 62.7 667.6 78.0 668.3 C 93.3 669.1 108.7 669.7 124.0 670.2 C 139.3 670.8 154.7 671.2 170.0 671.6 C 185.3 672.0 200.7 672.3 216.0 672.6 C 231.3 672.9 246.7 673.2 262.0 673.5 C 277.3 673.8 292.7 674.1 308.0 674.6 C 323.3 675.0 338.7 675.5 354.0 676.0 C 369.3 676.6 384.7 677.3 400.0 678.1 C 415.3 678.9 430.7 679.8 446.0 680.8 C 461.3 681.8 476.7 683.0 492.0 684.2 C 507.3 685.4 522.7 686.7 538.0 688.0 C 553.3 689.3 568.7 690.8 584.0 692.1 C 599.3 693.5 614.7 694.9 630.0 696.2 C 645.3 697.6 660.7 698.9 676.0 700.0 C 691.3 701.2 706.7 702.2 722.0 703.1 C 737.3 704.0 752.7 704.7 768.0 705.2 C 783.3 705.7 798.7 706.0 814.0 706.1 C 829.3 706.1 844.7 706.0 860.0 705.6 C 875.3 705.2 890.7 704.5 906.0 703.7 C 921.3 702.8 936.7 701.7 952.0 700.5 C 967.3 699.2 982.7 697.7 998.0 696.2 C 1013.3 694.6 1028.7 692.9 1044.0 691.1 C 1059.3 689.4 1074.7 687.5 1090.0 685.7 C 1105.3 683.9 1120.7 682.1 1136.0 680.4 C 1151.3 678.7 1166.7 677.1 1182.0 675.6 C 1197.3 674.2 1212.7 672.9 1228.0 671.8 C 1243.3 670.8 1258.7 669.9 1274.0 669.4 C 1289.3 668.8 1304.7 668.5 1320.0 668.5 C 1335.3 668.4 1350.7 668.7 1366.0 669.2 C 1381.3 669.7 1396.7 670.5 1412.0 671.5 C 1427.3 672.5 1442.7 673.8 1458.0 675.2 C 1473.3 676.6 1488.7 678.3 1504.0 680.0 C 1519.3 681.7 1534.7 683.6 1550.0 685.4 C 1565.3 687.3 1580.7 689.3 1596.0 691.1 C 1611.3 693.0 1634.3 695.6 1642.0 696.5" stroke="#F5F0E8" stroke-width="1" stroke-opacity="0.054" fill="none" stroke-linecap="round"/><path d="M -60.0 691.4 C -52.3 691.5 -29.3 691.8 -14.0 692.1 C 1.3 692.3 16.7 692.7 32.0 692.9 C 47.3 693.2 62.7 693.5 78.0 693.7 C 93.3 693.9 108.7 694.1 124.0 694.1 C 139.3 694.1 154.7 694.0 170.0 693.7 C 185.3 693.4 200.7 693.0 216.0 692.5 C 231.3 691.9 246.7 691.2 262.0 690.3 C 277.3 689.4 292.7 688.3 308.0 687.1 C 323.3 686.0 338.7 684.6 354.0 683.2 C 369.3 681.8 384.7 680.2 400.0 678.6 C 415.3 677.0 430.7 675.4 446.0 673.8 C 461.3 672.1 476.7 670.5 492.0 669.0 C 507.3 667.4 522.7 665.9 538.0 664.6 C 553.3 663.3 568.7 662.0 584.0 661.1 C 599.3 660.1 614.7 659.2 630.0 658.7 C 645.3 658.1 660.7 657.8 676.0 657.8 C 691.3 657.7 706.7 657.9 722.0 658.5 C 737.3 659.0 752.7 659.8 768.0 660.9 C 783.3 662.0 798.7 663.4 814.0 665.0 C 829.3 666.6 844.7 668.5 860.0 670.6 C 875.3 672.7 890.7 675.1 906.0 677.5 C 921.3 680.0 936.7 682.7 952.0 685.4 C 967.3 688.1 982.7 690.9 998.0 693.7 C 1013.3 696.5 1028.7 699.4 1044.0 702.1 C 1059.3 704.8 1074.7 707.6 1090.0 710.1 C 1105.3 712.6 1120.7 715.1 1136.0 717.3 C 1151.3 719.5 1166.7 721.5 1182.0 723.3 C 1197.3 725.0 1212.7 726.6 1228.0 727.8 C 1243.3 729.0 1258.7 730.0 1274.0 730.6 C 1289.3 731.3 1304.7 731.7 1320.0 731.8 C 1335.3 731.9 1350.7 731.7 1366.0 731.3 C 1381.3 730.9 1396.7 730.2 1412.0 729.4 C 1427.3 728.5 1442.7 727.4 1458.0 726.2 C 1473.3 725.0 1488.7 723.6 1504.0 722.2 C 1519.3 720.7 1534.7 719.2 1550.0 717.6 C 1565.3 716.1 1580.7 714.5 1596.0 713.0 C 1611.3 711.5 1634.3 709.4 1642.0 708.7" stroke="#C9A96E" stroke-width="1.5" stroke-opacity="0.227" fill="none" stroke-linecap="round"/><path d="M -60.0 746.7 C -52.3 747.3 -29.3 749.1 -14.0 750.3 C 1.3 751.4 16.7 752.5 32.0 753.5 C 47.3 754.4 62.7 755.3 78.0 756.0 C 93.3 756.6 108.7 757.1 124.0 757.4 C 139.3 757.7 154.7 757.8 170.0 757.7 C 185.3 757.6 200.7 757.2 216.0 756.6 C 231.3 756.0 246.7 755.2 262.0 754.2 C 277.3 753.2 292.7 751.9 308.0 750.5 C 323.3 749.1 338.7 747.5 354.0 745.8 C 369.3 744.1 384.7 742.2 400.0 740.3 C 415.3 738.4 430.7 736.4 446.0 734.4 C 461.3 732.5 476.7 730.4 492.0 728.6 C 507.3 726.7 522.7 724.8 538.0 723.1 C 553.3 721.4 568.7 719.8 584.0 718.4 C 599.3 717.1 614.7 715.8 630.0 714.9 C 645.3 714.0 660.7 713.2 676.0 712.8 C 691.3 712.4 706.7 712.2 722.0 712.3 C 737.3 712.3 752.7 712.7 768.0 713.3 C 783.3 713.9 798.7 714.8 814.0 715.8 C 829.3 716.9 844.7 718.2 860.0 719.6 C 875.3 721.1 890.7 722.7 906.0 724.4 C 921.3 726.1 936.7 728.0 952.0 729.8 C 967.3 731.6 982.7 733.5 998.0 735.2 C 1013.3 737.0 1028.7 738.8 1044.0 740.4 C 1059.3 742.0 1074.7 743.5 1090.0 744.8 C 1105.3 746.1 1120.7 747.2 1136.0 748.0 C 1151.3 748.9 1166.7 749.5 1182.0 749.9 C 1197.3 750.2 1212.7 750.3 1228.0 750.1 C 1243.3 750.0 1258.7 749.5 1274.0 748.8 C 1289.3 748.1 1304.7 747.1 1320.0 745.9 C 1335.3 744.7 1350.7 743.2 1366.0 741.6 C 1381.3 740.0 1396.7 738.1 1412.0 736.2 C 1427.3 734.3 1442.7 732.3 1458.0 730.2 C 1473.3 728.2 1488.7 726.0 1504.0 724.0 C 1519.3 721.9 1534.7 719.8 1550.0 717.9 C 1565.3 716.0 1580.7 714.1 1596.0 712.4 C 1611.3 710.8 1634.3 708.7 1642.0 707.9" stroke="#F5F0E8" stroke-width="1" stroke-opacity="0.046" fill="none" stroke-linecap="round"/><path d="M -60.0 777.6 C -52.3 777.4 -29.3 776.9 -14.0 776.7 C 1.3 776.4 16.7 776.1 32.0 775.9 C 47.3 775.7 62.7 775.6 78.0 775.5 C 93.3 775.4 108.7 775.3 124.0 775.3 C 139.3 775.3 154.7 775.3 170.0 775.4 C 185.3 775.5 200.7 775.7 216.0 775.8 C 231.3 776.0 246.7 776.2 262.0 776.4 C 277.3 776.6 292.7 776.9 308.0 777.1 C 323.3 777.4 338.7 777.6 354.0 777.8 C 369.3 778.0 384.7 778.2 400.0 778.4 C 415.3 778.5 430.7 778.6 446.0 778.7 C 461.3 778.7 476.7 778.7 492.0 778.6 C 507.3 778.5 522.7 778.3 538.0 778.1 C 553.3 777.8 568.7 777.5 584.0 777.1 C 599.3 776.6 614.7 776.1 630.0 775.5 C 645.3 775.0 660.7 774.3 676.0 773.5 C 691.3 772.8 706.7 772.0 722.0 771.1 C 737.3 770.3 752.7 769.4 768.0 768.4 C 783.3 767.5 798.7 766.5 814.0 765.6 C 829.3 764.6 844.7 763.6 860.0 762.6 C 875.3 761.7 890.7 760.7 906.0 759.9 C 921.3 759.0 936.7 758.1 952.0 757.3 C 967.3 756.5 982.7 755.8 998.0 755.1 C 1013.3 754.5 1028.7 753.9 1044.0 753.4 C 1059.3 752.9 1074.7 752.5 1090.0 752.2 C 1105.3 751.9 1120.7 751.6 1136.0 751.5 C 1151.3 751.3 1166.7 751.3 1182.0 751.3 C 1197.3 751.2 1212.7 751.3 1228.0 751.4 C 1243.3 751.6 1258.7 751.8 1274.0 752.0 C 1289.3 752.2 1304.7 752.4 1320.0 752.7 C 1335.3 753.0 1350.7 753.3 1366.0 753.5 C 1381.3 753.8 1396.7 754.1 1412.0 754.4 C 1427.3 754.6 1442.7 754.8 1458.0 755.0 C 1473.3 755.2 1488.7 755.4 1504.0 755.5 C 1519.3 755.7 1534.7 755.7 1550.0 755.8 C 1565.3 755.8 1580.7 755.8 1596.0 755.7 C 1611.3 755.7 1634.3 755.5 1642.0 755.4" stroke="#F5F0E8" stroke-width="1" stroke-opacity="0.078" fill="none" stroke-linecap="round"/><path d="M -60.0 818.3 C -52.3 819.1 -29.3 821.3 -14.0 822.7 C 1.3 824.1 16.7 825.6 32.0 827.0 C 47.3 828.4 62.7 829.8 78.0 831.1 C 93.3 832.4 108.7 833.7 124.0 834.8 C 139.3 835.9 154.7 837.0 170.0 837.9 C 185.3 838.9 200.7 839.7 216.0 840.4 C 231.3 841.1 246.7 841.7 262.0 842.1 C 277.3 842.5 292.7 842.8 308.0 843.0 C 323.3 843.1 338.7 843.2 354.0 843.1 C 369.3 843.0 384.7 842.8 400.0 842.5 C 415.3 842.2 430.7 841.8 446.0 841.4 C 461.3 840.9 476.7 840.4 492.0 839.8 C 507.3 839.3 522.7 838.7 538.0 838.1 C 553.3 837.5 568.7 836.9 584.0 836.4 C 599.3 835.8 614.7 835.3 630.0 834.9 C 645.3 834.4 660.7 834.0 676.0 833.8 C 691.3 833.5 706.7 833.3 722.0 833.2 C 737.3 833.2 752.7 833.2 768.0 833.4 C 783.3 833.5 798.7 833.8 814.0 834.3 C 829.3 834.7 844.7 835.2 860.0 835.9 C 875.3 836.5 890.7 837.3 906.0 838.1 C 921.3 839.0 936.7 840.0 952.0 841.0 C 967.3 842.0 982.7 843.1 998.0 844.3 C 1013.3 845.4 1028.7 846.6 1044.0 847.8 C 1059.3 849.0 1074.7 850.2 1090.0 851.3 C 1105.3 852.5 1120.7 853.7 1136.0 854.7 C 1151.3 855.8 1166.7 856.9 1182.0 857.8 C 1197.3 858.8 1212.7 859.7 1228.0 860.4 C 1243.3 861.2 1258.7 861.9 1274.0 862.5 C 1289.3 863.0 1304.7 863.5 1320.0 863.9 C 1335.3 864.2 1350.7 864.5 1366.0 864.6 C 1381.3 864.8 1396.7 864.8 1412.0 864.8 C 1427.3 864.8 1442.7 864.6 1458.0 864.5 C 1473.3 864.3 1488.7 864.0 1504.0 863.8 C 1519.3 863.5 1534.7 863.2 1550.0 862.9 C 1565.3 862.6 1580.7 862.2 1596.0 861.9 C 1611.3 861.6 1634.3 861.2 1642.0 861.1" stroke="#F5F0E8" stroke-width="1" stroke-opacity="0.080" fill="none" stroke-linecap="round"/><path d="M -60.0 852.0 C -52.3 852.1 -29.3 852.2 -14.0 852.3 C 1.3 852.4 16.7 852.6 32.0 852.7 C 47.3 852.9 62.7 853.2 78.0 853.5 C 93.3 853.8 108.7 854.2 124.0 854.7 C 139.3 855.2 154.7 855.8 170.0 856.5 C 185.3 857.2 200.7 858.0 216.0 858.9 C 231.3 859.7 246.7 860.7 262.0 861.7 C 277.3 862.7 292.7 863.7 308.0 864.8 C 323.3 865.8 338.7 866.9 354.0 867.9 C 369.3 868.8 384.7 869.8 400.0 870.6 C 415.3 871.5 430.7 872.3 446.0 872.9 C 461.3 873.4 476.7 873.9 492.0 874.2 C 507.3 874.5 522.7 874.6 538.0 874.5 C 553.3 874.4 568.7 874.1 584.0 873.6 C 599.3 873.1 614.7 872.4 630.0 871.5 C 645.3 870.6 660.7 869.6 676.0 868.4 C 691.3 867.2 706.7 865.8 722.0 864.4 C 737.3 863.1 752.7 861.5 768.0 860.0 C 783.3 858.5 798.7 857.0 814.0 855.5 C 829.3 854.1 844.7 852.6 860.0 851.3 C 875.3 850.1 890.7 848.9 906.0 847.9 C 921.3 847.0 936.7 846.2 952.0 845.7 C 967.3 845.2 982.7 844.8 998.0 844.8 C 1013.3 844.8 1028.7 845.1 1044.0 845.6 C 1059.3 846.1 1074.7 846.9 1090.0 847.9 C 1105.3 849.0 1120.7 850.3 1136.0 851.8 C 1151.3 853.3 1166.7 855.1 1182.0 857.0 C 1197.3 858.9 1212.7 861.0 1228.0 863.1 C 1243.3 865.2 1258.7 867.5 1274.0 869.7 C 1289.3 871.9 1304.7 874.2 1320.0 876.3 C 1335.3 878.4 1350.7 880.6 1366.0 882.5 C 1381.3 884.4 1396.7 886.3 1412.0 887.9 C 1427.3 889.5 1442.7 890.9 1458.0 892.1 C 1473.3 893.3 1488.7 894.3 1504.0 895.0 C 1519.3 895.7 1534.7 896.2 1550.0 896.4 C 1565.3 896.6 1580.7 896.6 1596.0 896.4 C 1611.3 896.2 1634.3 895.4 1642.0 895.1" stroke="#C9A96E" stroke-width="1.5" stroke-opacity="0.208" fill="none" stroke-linecap="round"/><path d="M -60.0 878.4 C -52.3 879.2 -29.3 881.4 -14.0 883.0 C 1.3 884.6 16.7 886.3 32.0 888.0 C 47.3 889.6 62.7 891.4 78.0 893.0 C 93.3 894.6 108.7 896.2 124.0 897.6 C 139.3 899.1 154.7 900.4 170.0 901.6 C 185.3 902.8 200.7 903.8 216.0 904.6 C 231.3 905.4 246.7 906.0 262.0 906.4 C 277.3 906.8 292.7 907.0 308.0 906.9 C 323.3 906.9 338.7 906.6 354.0 906.1 C 369.3 905.6 384.7 904.9 400.0 904.0 C 415.3 903.1 430.7 902.0 446.0 900.8 C 461.3 899.6 476.7 898.2 492.0 896.8 C 507.3 895.3 522.7 893.7 538.0 892.2 C 553.3 890.6 568.7 888.9 584.0 887.3 C 599.3 885.7 614.7 884.1 630.0 882.5 C 645.3 881.0 660.7 879.5 676.0 878.1 C 691.3 876.7 706.7 875.4 722.0 874.3 C 737.3 873.1 752.7 872.1 768.0 871.2 C 783.3 870.3 798.7 869.6 814.0 869.0 C 829.3 868.5 844.7 868.1 860.0 867.8 C 875.3 867.5 890.7 867.4 906.0 867.3 C 921.3 867.3 936.7 867.5 952.0 867.7 C 967.3 867.8 982.7 868.2 998.0 868.5 C 1013.3 868.9 1028.7 869.3 1044.0 869.7 C 1059.3 870.1 1074.7 870.6 1090.0 871.1 C 1105.3 871.5 1120.7 871.9 1136.0 872.3 C 1151.3 872.7 1166.7 873.1 1182.0 873.3 C 1197.3 873.6 1212.7 873.9 1228.0 874.0 C 1243.3 874.2 1258.7 874.2 1274.0 874.2 C 1289.3 874.2 1304.7 874.2 1320.0 874.0 C 1335.3 873.9 1350.7 873.7 1366.0 873.4 C 1381.3 873.2 1396.7 872.8 1412.0 872.5 C 1427.3 872.2 1442.7 871.8 1458.0 871.5 C 1473.3 871.1 1488.7 870.7 1504.0 870.4 C 1519.3 870.1 1534.7 869.8 1550.0 869.5 C 1565.3 869.3 1580.7 869.1 1596.0 869.0 C 1611.3 868.9 1634.3 868.9 1642.0 868.9" stroke="#F5F0E8" stroke-width="1" stroke-opacity="0.047" fill="none" stroke-linecap="round"/><path d="M -60.0 939.7 C -52.3 939.4 -29.3 938.6 -14.0 937.8 C 1.3 937.1 16.7 936.2 32.0 935.3 C 47.3 934.3 62.7 933.3 78.0 932.2 C 93.3 931.1 108.7 929.9 124.0 928.8 C 139.3 927.6 154.7 926.4 170.0 925.3 C 185.3 924.1 200.7 922.9 216.0 921.8 C 231.3 920.7 246.7 919.6 262.0 918.7 C 277.3 917.7 292.7 916.8 308.0 916.0 C 323.3 915.2 338.7 914.5 354.0 913.9 C 369.3 913.3 384.7 912.8 400.0 912.5 C 415.3 912.2 430.7 912.0 446.0 912.0 C 461.3 911.9 476.7 912.0 492.0 912.2 C 507.3 912.4 522.7 912.8 538.0 913.3 C 553.3 913.8 568.7 914.4 584.0 915.1 C 599.3 915.8 614.7 916.6 630.0 917.5 C 645.3 918.4 660.7 919.5 676.0 920.5 C 691.3 921.6 706.7 922.7 722.0 923.9 C 737.3 925.0 752.7 926.2 768.0 927.5 C 783.3 928.7 798.7 929.9 814.0 931.1 C 829.3 932.3 844.7 933.5 860.0 934.6 C 875.3 935.8 890.7 936.9 906.0 938.0 C 921.3 939.0 936.7 940.0 952.0 940.9 C 967.3 941.8 982.7 942.7 998.0 943.4 C 1013.3 944.2 1028.7 944.9 1044.0 945.4 C 1059.3 946.0 1074.7 946.5 1090.0 946.9 C 1105.3 947.3 1120.7 947.5 1136.0 947.8 C 1151.3 948.0 1166.7 948.1 1182.0 948.1 C 1197.3 948.1 1212.7 948.1 1228.0 948.0 C 1243.3 947.9 1258.7 947.7 1274.0 947.4 C 1289.3 947.2 1304.7 946.9 1320.0 946.5 C 1335.3 946.2 1350.7 945.8 1366.0 945.4 C 1381.3 945.0 1396.7 944.5 1412.0 944.1 C 1427.3 943.6 1442.7 943.1 1458.0 942.7 C 1473.3 942.2 1488.7 941.7 1504.0 941.3 C 1519.3 940.8 1534.7 940.4 1550.0 940.0 C 1565.3 939.5 1580.7 939.1 1596.0 938.7 C 1611.3 938.4 1634.3 937.9 1642.0 937.7" stroke="#F5F0E8" stroke-width="1" stroke-opacity="0.072" fill="none" stroke-linecap="round"/><path d="M -60.0 963.8 C -52.3 963.6 -29.3 963.1 -14.0 962.6 C 1.3 962.2 16.7 961.7 32.0 961.3 C 47.3 960.8 62.7 960.3 78.0 959.8 C 93.3 959.3 108.7 958.9 124.0 958.5 C 139.3 958.1 154.7 957.7 170.0 957.4 C 185.3 957.1 200.7 956.9 216.0 956.8 C 231.3 956.7 246.7 956.7 262.0 956.8 C 277.3 956.9 292.7 957.1 308.0 957.4 C 323.3 957.8 338.7 958.2 354.0 958.8 C 369.3 959.4 384.7 960.1 400.0 960.9 C 415.3 961.6 430.7 962.6 446.0 963.5 C 461.3 964.5 476.7 965.6 492.0 966.7 C 507.3 967.7 522.7 968.9 538.0 970.1 C 553.3 971.2 568.7 972.4 584.0 973.6 C 599.3 974.7 614.7 975.9 630.0 976.9 C 645.3 978.0 660.7 979.0 676.0 979.9 C 691.3 980.8 706.7 981.6 722.0 982.3 C 737.3 982.9 752.7 983.5 768.0 983.9 C 783.3 984.3 798.7 984.6 814.0 984.7 C 829.3 984.9 844.7 984.8 860.0 984.6 C 875.3 984.5 890.7 984.1 906.0 983.7 C 921.3 983.2 936.7 982.6 952.0 981.9 C 967.3 981.2 982.7 980.4 998.0 979.5 C 1013.3 978.6 1028.7 977.6 1044.0 976.6 C 1059.3 975.6 1074.7 974.6 1090.0 973.6 C 1105.3 972.5 1120.7 971.5 1136.0 970.5 C 1151.3 969.5 1166.7 968.5 1182.0 967.7 C 1197.3 966.8 1212.7 966.0 1228.0 965.4 C 1243.3 964.7 1258.7 964.2 1274.0 963.8 C 1289.3 963.3 1304.7 963.1 1320.0 962.9 C 1335.3 962.8 1350.7 962.8 1366.0 963.0 C 1381.3 963.1 1396.7 963.4 1412.0 963.9 C 1427.3 964.3 1442.7 964.9 1458.0 965.5 C 1473.3 966.2 1488.7 967.0 1504.0 967.9 C 1519.3 968.8 1534.7 969.7 1550.0 970.7 C 1565.3 971.7 1580.7 972.8 1596.0 973.8 C 1611.3 974.9 1634.3 976.4 1642.0 977.0" stroke="#F5F0E8" stroke-width="1" stroke-opacity="0.049" fill="none" stroke-linecap="round"/></g>
<path d="M -60.0 451.8 C -52.3 451.8 -29.3 451.6 -14.0 451.6 C 1.3 451.6 16.7 451.6 32.0 451.7 C 47.3 451.9 62.7 452.1 78.0 452.3 C 93.3 452.6 108.7 453.0 124.0 453.4 C 139.3 453.8 154.7 454.4 170.0 454.9 C 185.3 455.5 200.7 456.2 216.0 456.9 C 231.3 457.5 246.7 458.3 262.0 459.1 C 277.3 459.9 292.7 460.8 308.0 461.6 C 323.3 462.5 338.7 463.4 354.0 464.3 C 369.3 465.2 384.7 466.1 400.0 467.0 C 415.3 467.9 430.7 468.8 446.0 469.7 C 461.3 470.6 476.7 471.4 492.0 472.2 C 507.3 473.0 522.7 473.8 538.0 474.5 C 553.3 475.2 568.7 475.9 584.0 476.5 C 599.3 477.1 614.7 477.7 630.0 478.1 C 645.3 478.6 660.7 479.0 676.0 479.4 C 691.3 479.7 706.7 480.0 722.0 480.2 C 737.3 480.4 752.7 480.6 768.0 480.7 C 783.3 480.8 798.7 480.8 814.0 480.8 C 829.3 480.8 844.7 480.7 860.0 480.6 C 875.3 480.6 890.7 480.4 906.0 480.3 C 921.3 480.2 936.7 480.0 952.0 479.9 C 967.3 479.7 982.7 479.5 998.0 479.4 C 1013.3 479.3 1028.7 479.1 1044.0 479.0 C 1059.3 478.9 1074.7 478.9 1090.0 478.8 C 1105.3 478.8 1120.7 478.8 1136.0 478.9 C 1151.3 478.9 1166.7 479.1 1182.0 479.2 C 1197.3 479.4 1212.7 479.6 1228.0 479.9 C 1243.3 480.1 1258.7 480.5 1274.0 480.9 C 1289.3 481.2 1304.7 481.7 1320.0 482.2 C 1335.3 482.7 1350.7 483.2 1366.0 483.8 C 1381.3 484.3 1396.7 484.9 1412.0 485.6 C 1427.3 486.2 1442.7 486.8 1458.0 487.5 C 1473.3 488.2 1488.7 488.8 1504.0 489.5 C 1519.3 490.1 1534.7 490.8 1550.0 491.4 C 1565.3 492.0 1580.7 492.6 1596.0 493.2 C 1611.3 493.8 1634.3 494.5 1642.0 494.7" stroke="#C9A96E" stroke-width="2" stroke-opacity="0.5" fill="none" stroke-linecap="round"/>
<rect width="1600" height="900" fill="url(#vig)"/>
<rect width="1600" height="900" filter="url(#grain)" opacity="0.05"/>
</svg>