<svg xmlns="http://www.w3.org/2000/svg" viewBox="0 0 1600 900" preserveAspectRatio="xMidYMid slice">
<defs>
<linearGradient id="bg" x1="0" y1="0" x2="0" y2="1"><stop offset="0" stop-color="#0b160f"/><stop offset="1" stop-color="#15271b"/></linearGradient>
<radialGradient id="glow" cx="0.640" cy="0.368" r="0.75"><stop offset="0" stop-color="#C9A96E" stop-opacity="0.15"/><stop offset="1" stop-color="#C9A96E" stop-opacity="0"/></radialGradient>
<radialGradient id="vig" cx="0.5" cy="0.5" r="0.75"><stop offset="0.5" stop-color="#000" stop-opacity="0"/><stop offset="1" stop-color="#000" stop-opacity="0.5"/></radialGradient>
<filter id="grain"><feTurbulence type="fractalNoise" baseFrequency="0.9" numOctaves="2" stitchTiles="stitch"/><feColorMatrix type="matrix" values="0 0 0 0 0 0 0 0 0 0 0 0 0 0 0 0 0 0 0.55 0"/></filter>
</defs>
<rect width="1600" height="900" fill="url(#bg)"/>
<rect width="1600" height="900" fill="url(#glow)"/>
<path d="M -60.0 630.1 C -52.3 631.7 -29.3 636.9 -14.0 639.9 C 1.3 642.9 16.7 645.7 32.0 648.1 C 47.3 650.5 62.7 652.6 78.0 654.2 C 93.3 655.8 108.7 657.0 124.0 657.7 C 139.3 658.4 154.7 658.6 170.0 658.4 C 185.3 658.2 200.7 657.5 216.0 656.3 C 231.3 655.2 246.7 653.6 262.0 651.7 C 277.3 649.8 292.7 647.5 308.0 644.9 C 323.3 642.4 338.7 639.5 354.0 636.6 C 369.3 633.7 384.7 630.5 400.0 627.4 C 415.3 624.3 430.7 621.1 446.0 618.1 C 461.3 615.1 476.7 612.1 492.0 609.4 C 507.3 606.7 522.7 604.2 538.0 602.1 C 553.3 600.0 568.7 598.1 584.0 596.8 C 599.3 595.4 614.7 594.4 630.0 593.9 C 645.3 593.3 660.7 593.3 676.0 593.7 C 691.3 594.0 706.7 594.9 722.0 596.2 C 737.3 597.5 752.7 599.2 768.0 601.3 C 783.3 603.4 798.7 605.9 814.0 608.7 C 829.3 611.4 844.7 614.5 860.0 617.7 C 875.3 620.9 890.7 624.4 906.0 627.8 C 921.3 631.3 936.7 634.9 952.0 638.3 C 967.3 641.7 982.7 645.1 998.0 648.2 C 1013.3 651.4 1028.7 654.4 1044.0 657.1 C 1059.3 659.7 1074.7 662.1 1090.0 664.1 C 1105.3 666.1 1120.7 667.7 1136.0 668.9 C 1151.3 670.0 1166.7 670.8 1182.0 671.0 C 1197.3 671.3 1212.7 671.1 1228.0 670.5 C 1243.3 669.9 1258.7 668.9 1274.0 667.4 C 1289.3 666.0 1304.7 664.2 1320.0 662.1 C 1335.3 660.0 1350.7 657.5 1366.0 654.9 C 1381.3 652.3 1396.7 649.3 1412.0 646.4 C 1427.3 643.6 1442.7 640.5 1458.0 637.5 C 1473.3 634.6 1488.7 631.6 1504.0 628.8 C 1519.3 626.1 1534.7 623.4 1550.0 621.1 C 1565.3 618.8 1580.7 616.6 1596.0 614.9 C 1611.3 613.2 1631.3 553.4 1642.0 610.9 C 1652.7 668.4 1943.7 901.8 1660.0 960.0 C 1376.3 1018.2 226.7 960.0 -60.0 960.0 Z" fill="#C9A96E" fill-opacity="0.028"/>
<g><path d="M -60.0 -55.9 C -52.3 -55.8 -29.3 -55.3 -14.0 -55.0 C 1.3 -54.8 16.7 -54.5 32.0 -54.2 C 47.3 -53.9 62.7 -53.7 78.0 -53.4 C 93.3 -53.1 108.7 -52.8 124.0 -52.6 C 139.3 -52.3 154.7 -52.0 170.0 -51.8 C 185.3 -51.5 200.7 -51.2 216.0 -51.0 C 231.3 -50.7 246.7 -50.4 262.0 -50.2 C 277.3 -49.9 292.7 -49.7 308.0 -49.4 C 323.3 -49.2 338.7 -49.0 354.0 -48.8 C 369.3 -48.6 384.7 -48.4 400.0 -48.3 C 415.3 -48.1 430.7 -48.0 446.0 -47.9 C 461.3 -47.8 476.7 -47.7 492.0 -47.7 C 507.3 -47.7 522.7 -47.7 538.0 -47.7 C 553.3 -47.7 568.7 -47.8 584.0 -47.9 C 599.3 -48.0 614.7 -48.1 630.0 -48.3 C 645.3 -48.4 660.7 -48.6 676.0 -48.8 C 691.3 -49.0 706.7 -49.2 722.0 -49.5 C 737.3 -49.7 752.7 -49.9 768.0 -50.1 C 783.3 -50.4 798.7 -50.6 814.0 -50.8 C 829.3 -51.0 844.7 -51.2 860.0 -51.4 C 875.3 -51.5 890.7 -51.7 906.0 -51.7 C 921.3 -51.8 936.7 -51.9 952.0 -51.8 C 967.3 -51.8 982.7 -51.7 998.0 -51.6 C 1013.3 -51.4 1028.7 -51.2 1044.0 -50.9 C 1059.3 -50.6 1074.7 -50.2 1090.0 -49.8 C 1105.3 -49.3 1120.7 -48.8 1136.0 -48.1 C 1151.3 -47.5 1166.7 -46.8 1182.0 -46.0 C 1197.3 -45.3 1212.7 -44.4 1228.0 -43.5 C 1243.3 -42.6 1258.7 -41.6 1274.0 -40.6 C 1289.3 -39.6 1304.7 -38.5 1320.0 -37.4 C 1335.3 -36.2 1350.7 -35.1 1366.0 -33.9 C 1381.3 -32.8 1396.7 -31.6 1412.0 -30.4 C 1427.3 -29.3 1442.7 -28.1 1458.0 -27.0 C 1473.3 -25.8 1488.7 -24.7 1504.0 -23.7 C 1519.3 -22.6 1534.7 -21.6 1550.0 -20.7 C 1565.3 -19.8 1580.7 -18.9 1596.0 -18.1 C 1611.3 -17.4 1634.3 -16.4 1642.0 -16.1" stroke="#F5F0E8" stroke-width="1" stroke-opacity="0.049" fill="none" stroke-linecap="round"/><path d="M -60.0 -18.1 C -52.3 -17.9 -29.3 -17.2 -14.0 -16.7 C 1.3 -16.3 16.7 -15.9 32.0 -15.6 C 47.3 -15.3 62.7 -15.0 78.0 -14.8 C 93.3 -14.6 108.7 -14.5 124.0 -14.4 C 139.3 -14.3 154.7 -14.3 170.0 -14.4 C 185.3 -14.4 200.7 -14.6 216.0 -14.7 C 231.3 -14.9 246.7 -15.2 262.0 -15.5 C 277.3 -15.8 292.7 -16.2 308.0 -16.6 C 323.3 -17.1 338.7 -17.6 354.0 -18.1 C 369.3 -18.6 384.7 -19.2 400.0 -19.8 C 415.3 -20.4 430.7 -21.0 446.0 -21.6 C 461.3 -22.3 476.7 -22.9 492.0 -23.6 C 507.3 -24.2 522.7 -24.9 538.0 -25.5 C 553.3 -26.1 568.7 -26.8 584.0 -27.4 C 599.3 -27.9 614.7 -28.5 630.0 -29.0 C 645.3 -29.5 660.7 -30.0 676.0 -30.4 C 691.3 -30.8 706.7 -31.2 722.0 -31.4 C 737.3 -31.7 752.7 -32.0 768.0 -32.1 C 783.3 -32.3 798.7 -32.4 814.0 -32.4 C 829.3 -32.4 844.7 -32.3 860.0 -32.2 C 875.3 -32.1 890.7 -31.9 906.0 -31.6 C 921.3 -31.4 936.7 -31.0 952.0 -30.7 C 967.3 -30.3 982.7 -29.9 998.0 -29.4 C 1013.3 -28.9 1028.7 -28.4 1044.0 -27.8 C 1059.3 -27.3 1074.7 -26.7 1090.0 -26.1 C 1105.3 -25.5 1120.7 -24.9 1136.0 -24.2 C 1151.3 -23.6 1166.7 -23.0 1182.0 -22.4 C 1197.3 -21.8 1212.7 -21.2 1228.0 -20.7 C 1243.3 -20.1 1258.7 -19.6 1274.0 -19.1 C 1289.3 -18.6 1304.7 -18.2 1320.0 -17.8 C 1335.3 -17.5 1350.7 -17.2 1366.0 -16.9 C 1381.3 -16.7 1396.7 -16.5 1412.0 -16.4 C 1427.3 -16.3 1442.7 -16.2 1458.0 -16.3 C 1473.3 -16.3 1488.7 -16.4 1504.0 -16.6 C 1519.3 -16.8 1534.7 -17.0 1550.0 -17.3 C 1565.3 -17.7 1580.7 -18.1 1596.0 -18.5 C 1611.3 -18.9 1634.3 -19.8 1642.0 -20.0" stroke="#F5F0E8" stroke-width="1.5" stroke-opacity="0.166" fill="none" stroke-linecap="round"/><path d="M -60.0 20.7 C -52.3 19.8 -29.3 17.4 -14.0 15.7 C 1.3 14.1 16.7 12.4 32.0 10.8 C 47.3 9.2 62.7 7.6 78.0 6.2 C 93.3 4.8 108.7 3.4 124.0 2.2 C 139.3 1.0 154.7 -0.0 170.0 -0.9 C 185.3 -1.8 200.7 -2.5 216.0 -3.0 C 231.3 -3.5 246.7 -3.8 262.0 -3.9 C 277.3 -4.0 292.7 -3.9 308.0 -3.7 C 323.3 -3.5 338.7 -3.0 354.0 -2.5 C 369.3 -1.9 384.7 -1.2 400.0 -0.4 C 415.3 0.3 430.7 1.3 446.0 2.2 C 461.3 3.1 476.7 4.1 492.0 5.0 C 507.3 6.0 522.7 6.9 538.0 7.8 C 553.3 8.7 568.7 9.5 584.0 10.2 C 599.3 10.9 614.7 11.5 630.0 11.9 C 645.3 12.3 660.7 12.6 676.0 12.6 C 691.3 12.7 706.7 12.6 722.0 12.3 C 737.3 12.1 752.7 11.6 768.0 10.9 C 783.3 10.3 798.7 9.4 814.0 8.4 C 829.3 7.4 844.7 6.2 860.0 4.9 C 875.3 3.6 890.7 2.2 906.0 0.7 C 921.3 -0.8 936.7 -2.4 952.0 -4.0 C 967.3 -5.6 982.7 -7.3 998.0 -8.9 C 1013.3 -10.5 1028.7 -12.1 1044.0 -13.6 C 1059.3 -15.1 1074.7 -16.6 1090.0 -17.9 C 1105.3 -19.2 1120.7 -20.4 1136.0 -21.5 C 1151.3 -22.5 1166.7 -23.4 1182.0 -24.1 C 1197.3 -24.8 1212.7 -25.4 1228.0 -25.7 C 1243.3 -26.1 1258.7 -26.3 1274.0 -26.3 C 1289.3 -26.3 1304.7 -26.1 1320.0 -25.8 C 1335.3 -25.5 1350.7 -25.0 1366.0 -24.5 C 1381.3 -23.9 1396.7 -23.2 1412.0 -22.5 C 1427.3 -21.8 1442.7 -20.9 1458.0 -20.1 C 1473.3 -19.3 1488.7 -18.4 1504.0 -17.6 C 1519.3 -16.8 1534.7 -16.0 1550.0 -15.3 C 1565.3 -14.7 1580.7 -14.0 1596.0 -13.5 C 1611.3 -13.0 1634.3 -12.6 1642.0 -12.4" stroke="#F5F0E8" stroke-width="1" stroke-opacity="0.075" fill="none" stroke-linecap="round"/><path d="M -60.0 58.8 C -52.3 59.2 -29.3 60.5 -14.0 61.3 C 1.3 62.1 16.7 62.8 32.0 63.4 C 47.3 64.1 62.7 64.7 78.0 65.2 C 93.3 65.7 108.7 66.2 124.0 66.6 C 139.3 67.0 154.7 67.4 170.0 67.7 C 185.3 68.0 200.7 68.3 216.0 68.5 C 231.3 68.7 246.7 68.9 262.0 69.1 C 277.3 69.2 292.7 69.4 308.0 69.5 C 323.3 69.6 338.7 69.6 354.0 69.7 C 369.3 69.8 384.7 69.8 400.0 69.8 C 415.3 69.9 430.7 69.9 446.0 70.0 C 461.3 70.0 476.7 70.1 492.0 70.1 C 507.3 70.2 522.7 70.2 538.0 70.3 C 553.3 70.4 568.7 70.5 584.0 70.7 C 599.3 70.8 614.7 71.0 630.0 71.2 C 645.3 71.3 660.7 71.6 676.0 71.8 C 691.3 72.1 706.7 72.4 722.0 72.7 C 737.3 73.0 752.7 73.4 768.0 73.8 C 783.3 74.2 798.7 74.6 814.0 75.1 C 829.3 75.5 844.7 76.0 860.0 76.6 C 875.3 77.1 890.7 77.7 906.0 78.3 C 921.3 78.9 936.7 79.5 952.0 80.2 C 967.3 80.9 982.7 81.6 998.0 82.3 C 1013.3 83.0 1028.7 83.7 1044.0 84.5 C 1059.3 85.3 1074.7 86.1 1090.0 86.9 C 1105.3 87.7 1120.7 88.5 1136.0 89.3 C 1151.3 90.2 1166.7 91.0 1182.0 91.9 C 1197.3 92.8 1212.7 93.6 1228.0 94.5 C 1243.3 95.4 1258.7 96.3 1274.0 97.2 C 1289.3 98.1 1304.7 99.0 1320.0 99.9 C 1335.3 100.9 1350.7 101.8 1366.0 102.7 C 1381.3 103.7 1396.7 104.6 1412.0 105.5 C 1427.3 106.5 1442.7 107.4 1458.0 108.4 C 1473.3 109.4 1488.7 110.3 1504.0 111.3 C 1519.3 112.3 1534.7 113.3 1550.0 114.2 C 1565.3 115.2 1580.7 116.2 1596.0 117.2 C 1611.3 118.3 1634.3 119.8 1642.0 120.3" stroke="#F5F0E8" stroke-width="1" stroke-opacity="0.063" fill="none" stroke-linecap="round"/><path d="M -60.0 98.5 C -52.3 98.8 -29.3 99.7 -14.0 100.2 C 1.3 100.8 16.7 101.3 32.0 101.8 C 47.3 102.3 62.7 102.8 78.0 103.3 C 93.3 103.8 108.7 104.3 124.0 104.8 C 139.3 105.2 154.7 105.7 170.0 106.2 C 185.3 106.7 200.7 107.2 216.0 107.7 C 231.3 108.2 246.7 108.7 262.0 109.2 C 277.3 109.7 292.7 110.3 308.0 110.8 C 323.3 111.3 338.7 111.8 354.0 112.3 C 369.3 112.9 384.7 113.4 400.0 113.9 C 415.3 114.4 430.7 114.9 446.0 115.4 C 461.3 115.9 476.7 116.4 492.0 116.8 C 507.3 117.2 522.7 117.7 538.0 118.0 C 553.3 118.4 568.7 118.8 584.0 119.1 C 599.3 119.4 614.7 119.7 630.0 119.9 C 645.3 120.2 660.7 120.4 676.0 120.5 C 691.3 120.7 706.7 120.8 722.0 120.9 C 737.3 120.9 752.7 120.9 768.0 120.9 C 783.3 120.9 798.7 120.9 814.0 120.8 C 829.3 120.7 844.7 120.6 860.0 120.5 C 875.3 120.3 890.7 120.2 906.0 120.0 C 921.3 119.9 936.7 119.7 952.0 119.6 C 967.3 119.4 982.7 119.3 998.0 119.2 C 1013.3 119.1 1028.7 119.0 1044.0 119.0 C 1059.3 118.9 1074.7 118.9 1090.0 119.0 C 1105.3 119.1 1120.7 119.2 1136.0 119.4 C 1151.3 119.6 1166.7 119.9 1182.0 120.2 C 1197.3 120.6 1212.7 121.0 1228.0 121.6 C 1243.3 122.1 1258.7 122.8 1274.0 123.5 C 1289.3 124.2 1304.7 125.1 1320.0 126.0 C 1335.3 126.9 1350.7 128.0 1366.0 129.1 C 1381.3 130.2 1396.7 131.4 1412.0 132.7 C 1427.3 134.0 1442.7 135.4 1458.0 136.8 C 1473.3 138.3 1488.7 139.8 1504.0 141.3 C 1519.3 142.8 1534.7 144.5 1550.0 146.1 C 1565.3 147.7 1580.7 149.3 1596.0 151.0 C 1611.3 152.6 1634.3 155.0 1642.0 155.8" stroke="#F5F0E8" stroke-width="1" stroke-opacity="0.058" fill="none" stroke-linecap="round"/><path d="M -60.0 125.2 C -52.3 125.7 -29.3 127.1 -14.0 128.1 C 1.3 129.1 16.7 130.1 32.0 131.1 C 47.3 132.0 62.7 133.0 78.0 134.0 C 93.3 135.0 108.7 135.9 124.0 136.8 C 139.3 137.8 154.7 138.7 170.0 139.6 C 185.3 140.4 200.7 141.3 216.0 142.0 C 231.3 142.8 246.7 143.6 262.0 144.3 C 277.3 145.0 292.7 145.6 308.0 146.2 C 323.3 146.8 338.7 147.4 354.0 147.8 C 369.3 148.3 384.7 148.7 400.0 149.1 C 415.3 149.4 430.7 149.7 446.0 150.0 C 461.3 150.2 476.7 150.4 492.0 150.5 C 507.3 150.6 522.7 150.6 538.0 150.6 C 553.3 150.6 568.7 150.5 584.0 150.4 C 599.3 150.3 614.7 150.1 630.0 149.9 C 645.3 149.7 660.7 149.4 676.0 149.1 C 691.3 148.8 706.7 148.5 722.0 148.1 C 737.3 147.7 752.7 147.3 768.0 146.9 C 783.3 146.5 798.7 146.0 814.0 145.6 C 829.3 145.1 844.7 144.6 860.0 144.2 C 875.3 143.7 890.7 143.3 906.0 142.8 C 921.3 142.4 936.7 141.9 952.0 141.5 C 967.3 141.1 982.7 140.7 998.0 140.3 C 1013.3 139.9 1028.7 139.5 1044.0 139.2 C 1059.3 138.9 1074.7 138.6 1090.0 138.4 C 1105.3 138.2 1120.7 137.9 1136.0 137.8 C 1151.3 137.6 1166.7 137.5 1182.0 137.5 C 1197.3 137.4 1212.7 137.4 1228.0 137.4 C 1243.3 137.5 1258.7 137.5 1274.0 137.7 C 1289.3 137.8 1304.7 138.0 1320.0 138.2 C 1335.3 138.5 1350.7 138.7 1366.0 139.1 C 1381.3 139.4 1396.7 139.7 1412.0 140.1 C 1427.3 140.5 1442.7 141.0 1458.0 141.5 C 1473.3 141.9 1488.7 142.4 1504.0 143.0 C 1519.3 143.5 1534.7 144.1 1550.0 144.6 C 1565.3 145.2 1580.7 145.8 1596.0 146.4 C 1611.3 147.0 1634.3 147.9 1642.0 148.2" stroke="#F5F0E8" stroke-width="1.5" stroke-opacity="0.243" fill="none" stroke-linecap="round"/><path d="M -60.0 154.7 C -52.3 154.9 -29.3 155.5 -14.0 156.2 C 1.3 156.8 16.7 157.8 32.0 158.8 C 47.3 159.8 62.7 161.1 78.0 162.4 C 93.3 163.7 108.7 165.2 124.0 166.7 C 139.3 168.2 154.7 169.8 170.0 171.3 C 185.3 172.9 200.7 174.5 216.0 176.0 C 231.3 177.5 246.7 179.0 262.0 180.3 C 277.3 181.6 292.7 182.8 308.0 183.8 C 323.3 184.8 338.7 185.7 354.0 186.4 C 369.3 187.0 384.7 187.5 400.0 187.7 C 415.3 187.9 430.7 187.9 446.0 187.6 C 461.3 187.4 476.7 186.9 492.0 186.2 C 507.3 185.5 522.7 184.5 538.0 183.4 C 553.3 182.3 568.7 181.0 584.0 179.5 C 599.3 178.0 614.7 176.4 630.0 174.7 C 645.3 173.0 660.7 171.1 676.0 169.3 C 691.3 167.4 706.7 165.5 722.0 163.6 C 737.3 161.7 752.7 159.8 768.0 158.0 C 783.3 156.2 798.7 154.4 814.0 152.8 C 829.3 151.2 844.7 149.7 860.0 148.4 C 875.3 147.0 890.7 145.9 906.0 144.9 C 921.3 143.9 936.7 143.1 952.0 142.5 C 967.3 141.9 982.7 141.4 998.0 141.2 C 1013.3 141.0 1028.7 141.0 1044.0 141.1 C 1059.3 141.3 1074.7 141.6 1090.0 142.0 C 1105.3 142.5 1120.7 143.1 1136.0 143.8 C 1151.3 144.5 1166.7 145.4 1182.0 146.3 C 1197.3 147.1 1212.7 148.1 1228.0 149.1 C 1243.3 150.0 1258.7 151.0 1274.0 152.0 C 1289.3 152.9 1304.7 153.8 1320.0 154.7 C 1335.3 155.5 1350.7 156.4 1366.0 157.0 C 1381.3 157.7 1396.7 158.4 1412.0 158.9 C 1427.3 159.3 1442.7 159.7 1458.0 160.0 C 1473.3 160.2 1488.7 160.4 1504.0 160.4 C 1519.3 160.4 1534.7 160.3 1550.0 160.1 C 1565.3 160.0 1580.7 159.6 1596.0 159.3 C 1611.3 158.9 1634.3 158.2 1642.0 157.9" stroke="#F5F0E8" stroke-width="1" stroke-opacity="0.070" fill="none" stroke-linecap="round"/><path d="M -60.0 211.9 C -52.3 212.0 -29.3 212.4 -14.0 212.5 C 1.3 212.7 16.7 212.7 32.0 212.7 C 47.3 212.8 62.7 212.7 78.0 212.7 C 93.3 212.8 108.7 212.8 124.0 212.9 C 139.3 212.9 154.7 213.1 170.0 213.3 C 185.3 213.5 200.7 213.8 216.0 214.3 C 231.3 214.7 246.7 215.3 262.0 216.0 C 277.3 216.7 292.7 217.5 308.0 218.4 C 323.3 219.4 338.7 220.5 354.0 221.7 C 369.3 222.9 384.7 224.2 400.0 225.6 C 415.3 227.1 430.7 228.6 446.0 230.2 C 461.3 231.7 476.7 233.4 492.0 235.1 C 507.3 236.7 522.7 238.4 538.0 240.1 C 553.3 241.7 568.7 243.4 584.0 244.9 C 599.3 246.4 614.7 247.9 630.0 249.3 C 645.3 250.6 660.7 251.8 676.0 252.9 C 691.3 254.0 706.7 254.9 722.0 255.6 C 737.3 256.4 752.7 256.9 768.0 257.3 C 783.3 257.6 798.7 257.8 814.0 257.7 C 829.3 257.7 844.7 257.5 860.0 257.1 C 875.3 256.7 890.7 256.1 906.0 255.3 C 921.3 254.6 936.7 253.7 952.0 252.7 C 967.3 251.8 982.7 250.6 998.0 249.5 C 1013.3 248.3 1028.7 247.1 1044.0 245.9 C 1059.3 244.7 1074.7 243.4 1090.0 242.3 C 1105.3 241.1 1120.7 239.9 1136.0 238.9 C 1151.3 237.9 1166.7 236.9 1182.0 236.2 C 1197.3 235.4 1212.7 234.7 1228.0 234.2 C 1243.3 233.8 1258.7 233.5 1274.0 233.4 C 1289.3 233.3 1304.7 233.4 1320.0 233.6 C 1335.3 233.9 1350.7 234.4 1366.0 235.1 C 1381.3 235.8 1396.7 236.7 1412.0 237.7 C 1427.3 238.7 1442.7 239.9 1458.0 241.2 C 1473.3 242.6 1488.7 244.1 1504.0 245.6 C 1519.3 247.1 1534.7 248.8 1550.0 250.5 C 1565.3 252.2 1580.7 253.9 1596.0 255.6 C 1611.3 257.4 1634.3 259.9 1642.0 260.8" stroke="#F5F0E8" stroke-width="1" stroke-opacity="0.077" fill="none" stroke-linecap="round"/><path d="M -60.0 215.0 C -52.3 215.3 -29.3 215.7 -14.0 216.6 C 1.3 217.4 16.7 218.6 32.0 220.1 C 47.3 221.5 62.7 223.3 78.0 225.2 C 93.3 227.1 108.7 229.3 124.0 231.4 C 139.3 233.6 154.7 235.9 170.0 238.1 C 185.3 240.3 200.7 242.6 216.0 244.7 C 231.3 246.7 246.7 248.8 262.0 250.5 C 277.3 252.2 292.7 253.7 308.0 254.9 C 323.3 256.1 338.7 257.1 354.0 257.7 C 369.3 258.2 384.7 258.5 400.0 258.4 C 415.3 258.3 430.7 257.9 446.0 257.1 C 461.3 256.4 476.7 255.3 492.0 253.9 C 507.3 252.6 522.7 250.9 538.0 249.1 C 553.3 247.3 568.7 245.3 584.0 243.2 C 599.3 241.1 614.7 238.8 630.0 236.5 C 645.3 234.3 660.7 232.0 676.0 229.8 C 691.3 227.7 706.7 225.5 722.0 223.6 C 737.3 221.6 752.7 219.8 768.0 218.2 C 783.3 216.6 798.7 215.2 814.0 214.1 C 829.3 212.9 844.7 212.0 860.0 211.3 C 875.3 210.6 890.7 210.2 906.0 210.0 C 921.3 209.8 936.7 209.8 952.0 210.0 C 967.3 210.1 982.7 210.5 998.0 210.9 C 1013.3 211.3 1028.7 211.9 1044.0 212.5 C 1059.3 213.0 1074.7 213.7 1090.0 214.2 C 1105.3 214.7 1120.7 215.3 1136.0 215.7 C 1151.3 216.0 1166.7 216.3 1182.0 216.4 C 1197.3 216.5 1212.7 216.5 1228.0 216.3 C 1243.3 216.0 1258.7 215.6 1274.0 215.0 C 1289.3 214.4 1304.7 213.6 1320.0 212.6 C 1335.3 211.7 1350.7 210.5 1366.0 209.3 C 1381.3 208.0 1396.7 206.6 1412.0 205.2 C 1427.3 203.8 1442.7 202.3 1458.0 200.9 C 1473.3 199.4 1488.7 198.0 1504.0 196.6 C 1519.3 195.3 1534.7 194.1 1550.0 193.0 C 1565.3 192.0 1580.7 191.0 1596.0 190.3 C 1611.3 189.7 1634.3 189.2 1642.0 189.0" stroke="#F5F0E8" stroke-width="1" stroke-opacity="0.083" fill="none" stroke-linecap="round"/><path d="M -60.0 234.0 C -52.3 234.3 -29.3 234.7 -14.0 235.7 C 1.3 236.7 16.7 238.2 32.0 240.0 C 47.3 241.8 62.7 244.0 78.0 246.5 C 93.3 249.0 108.7 251.8 124.0 254.8 C 139.3 257.7 154.7 261.0 170.0 264.2 C 185.3 267.5 200.7 270.9 216.0 274.2 C 231.3 277.5 246.7 280.8 262.0 283.9 C 277.3 287.0 292.7 290.0 308.0 292.7 C 323.3 295.4 338.7 297.9 354.0 300.1 C 369.3 302.3 384.7 304.2 400.0 305.8 C 415.3 307.3 430.7 308.6 446.0 309.5 C 461.3 310.4 476.7 311.0 492.0 311.4 C 507.3 311.8 522.7 311.8 538.0 311.7 C 553.3 311.6 568.7 311.3 584.0 310.9 C 599.3 310.5 614.7 310.0 630.0 309.5 C 645.3 309.1 660.7 308.5 676.0 308.2 C 691.3 307.8 706.7 307.5 722.0 307.4 C 737.3 307.4 752.7 307.4 768.0 307.8 C 783.3 308.1 798.7 308.7 814.0 309.6 C 829.3 310.4 844.7 311.5 860.0 312.9 C 875.3 314.3 890.7 316.0 906.0 317.9 C 921.3 319.7 936.7 321.9 952.0 324.1 C 967.3 326.3 982.7 328.8 998.0 331.3 C 1013.3 333.7 1028.7 336.3 1044.0 338.7 C 1059.3 341.2 1074.7 343.7 1090.0 345.9 C 1105.3 348.2 1120.7 350.4 1136.0 352.2 C 1151.3 354.1 1166.7 355.8 1182.0 357.1 C 1197.3 358.4 1212.7 359.4 1228.0 360.0 C 1243.3 360.7 1258.7 361.0 1274.0 360.9 C 1289.3 360.9 1304.7 360.4 1320.0 359.7 C 1335.3 358.9 1350.7 357.8 1366.0 356.5 C 1381.3 355.1 1396.7 353.5 1412.0 351.7 C 1427.3 349.9 1442.7 347.9 1458.0 345.9 C 1473.3 343.9 1488.7 341.8 1504.0 339.8 C 1519.3 337.8 1534.7 335.7 1550.0 333.9 C 1565.3 332.2 1580.7 330.4 1596.0 329.1 C 1611.3 327.7 1634.3 326.3 1642.0 325.8" stroke="#F5F0E8" stroke-width="1.5" stroke-opacity="0.240" fill="none" stroke-linecap="round"/><path d="M -60.0 292.9 C -52.3 293.4 -29.3 294.7 -14.0 295.9 C 1.3 297.1 16.7 298.6 32.0 300.3 C 47.3 301.9 62.7 303.8 78.0 305.8 C 93.3 307.7 108.7 309.9 124.0 312.1 C 139.3 314.4 154.7 316.7 170.0 319.1 C 185.3 321.4 200.7 323.8 216.0 326.1 C 231.3 328.5 246.7 330.8 262.0 333.0 C 277.3 335.2 292.7 337.4 308.0 339.3 C 323.3 341.3 338.7 343.1 354.0 344.7 C 369.3 346.3 384.7 347.7 400.0 348.9 C 415.3 350.1 430.7 351.0 446.0 351.7 C 461.3 352.4 476.7 352.8 492.0 352.9 C 507.3 353.1 522.7 353.0 538.0 352.7 C 553.3 352.4 568.7 351.7 584.0 351.0 C 599.3 350.2 614.7 349.1 630.0 347.9 C 645.3 346.8 660.7 345.4 676.0 343.9 C 691.3 342.4 706.7 340.8 722.0 339.1 C 737.3 337.4 752.7 335.7 768.0 334.0 C 783.3 332.2 798.7 330.5 814.0 328.8 C 829.3 327.2 844.7 325.6 860.0 324.1 C 875.3 322.7 890.7 321.3 906.0 320.1 C 921.3 319.0 936.7 318.0 952.0 317.2 C 967.3 316.4 982.7 315.9 998.0 315.6 C 1013.3 315.2 1028.7 315.2 1044.0 315.3 C 1059.3 315.5 1074.7 315.9 1090.0 316.6 C 1105.3 317.2 1120.7 318.2 1136.0 319.3 C 1151.3 320.4 1166.7 321.7 1182.0 323.3 C 1197.3 324.8 1212.7 326.5 1228.0 328.3 C 1243.3 330.2 1258.7 332.2 1274.0 334.2 C 1289.3 336.3 1304.7 338.4 1320.0 340.6 C 1335.3 342.7 1350.7 344.9 1366.0 347.0 C 1381.3 349.2 1396.7 351.3 1412.0 353.3 C 1427.3 355.3 1442.7 357.2 1458.0 359.0 C 1473.3 360.7 1488.7 362.3 1504.0 363.8 C 1519.3 365.2 1534.7 366.4 1550.0 367.5 C 1565.3 368.5 1580.7 369.3 1596.0 369.9 C 1611.3 370.5 1634.3 370.9 1642.0 371.1" stroke="#F5F0E8" stroke-width="1" stroke-opacity="0.067" fill="none" stroke-linecap="round"/><path d="M -60.0 348.4 C -52.3 348.6 -29.3 349.2 -14.0 349.4 C 1.3 349.6 16.7 349.7 32.0 349.6 C 47.3 349.5 62.7 349.2 78.0 348.8 C 93.3 348.4 108.7 347.8 124.0 347.1 C 139.3 346.5 154.7 345.6 170.0 344.7 C 185.3 343.8 200.7 342.7 216.0 341.6 C 231.3 340.6 246.7 339.4 262.0 338.4 C 277.3 337.3 292.7 336.2 308.0 335.2 C 323.3 334.3 338.7 333.3 354.0 332.6 C 369.3 331.9 384.7 331.3 400.0 331.0 C 415.3 330.6 430.7 330.5 446.0 330.6 C 461.3 330.7 476.7 331.1 492.0 331.7 C 507.3 332.4 522.7 333.3 538.0 334.5 C 553.3 335.8 568.7 337.3 584.0 339.0 C 599.3 340.8 614.7 342.9 630.0 345.1 C 645.3 347.4 660.7 349.9 676.0 352.6 C 691.3 355.2 706.7 358.1 722.0 361.0 C 737.3 364.0 752.7 367.1 768.0 370.1 C 783.3 373.1 798.7 376.3 814.0 379.3 C 829.3 382.3 844.7 385.3 860.0 388.2 C 875.3 391.0 890.7 393.7 906.0 396.3 C 921.3 398.8 936.7 401.1 952.0 403.2 C 967.3 405.3 982.7 407.2 998.0 408.8 C 1013.3 410.5 1028.7 411.8 1044.0 412.9 C 1059.3 414.0 1074.7 414.8 1090.0 415.4 C 1105.3 416.0 1120.7 416.4 1136.0 416.5 C 1151.3 416.7 1166.7 416.6 1182.0 416.4 C 1197.3 416.2 1212.7 415.8 1228.0 415.3 C 1243.3 414.9 1258.7 414.3 1274.0 413.7 C 1289.3 413.2 1304.7 412.5 1320.0 411.9 C 1335.3 411.3 1350.7 410.7 1366.0 410.3 C 1381.3 409.8 1396.7 409.3 1412.0 409.0 C 1427.3 408.8 1442.7 408.6 1458.0 408.5 C 1473.3 408.5 1488.7 408.5 1504.0 408.8 C 1519.3 409.0 1534.7 409.4 1550.0 409.8 C 1565.3 410.3 1580.7 410.9 1596.0 411.6 C 1611.3 412.2 1634.3 413.4 1642.0 413.8" stroke="#F5F0E8" stroke-width="1" stroke-opacity="0.074" fill="none" stroke-linecap="round"/><path d="M -60.0 390.3 C -52.3 390.7 -29.3 392.0 -14.0 392.9 C 1.3 393.8 16.7 394.8 32.0 395.8 C 47.3 396.7 62.7 397.7 78.0 398.7 C 93.3 399.6 108.7 400.5 124.0 401.3 C 139.3 402.1 154.7 402.8 170.0 403.3 C 185.3 403.9 200.7 404.3 216.0 404.6 C 231.3 404.8 246.7 404.9 262.0 404.8 C 277.3 404.7 292.7 404.4 308.0 403.9 C 323.3 403.4 338.7 402.7 354.0 401.8 C 369.3 400.9 384.7 399.8 400.0 398.5 C 415.3 397.3 430.7 395.8 446.0 394.1 C 461.3 392.5 476.7 390.6 492.0 388.7 C 507.3 386.8 522.7 384.7 538.0 382.6 C 553.3 380.4 568.7 378.1 584.0 375.9 C 599.3 373.6 614.7 371.3 630.0 369.0 C 645.3 366.7 660.7 364.3 676.0 362.1 C 691.3 359.8 706.7 357.6 722.0 355.5 C 737.3 353.4 752.7 351.4 768.0 349.5 C 783.3 347.6 798.7 345.8 814.0 344.2 C 829.3 342.6 844.7 341.2 860.0 339.9 C 875.3 338.6 890.7 337.5 906.0 336.6 C 921.3 335.6 936.7 334.9 952.0 334.3 C 967.3 333.7 982.7 333.3 998.0 333.0 C 1013.3 332.7 1028.7 332.6 1044.0 332.7 C 1059.3 332.7 1074.7 332.9 1090.0 333.2 C 1105.3 333.4 1120.7 333.9 1136.0 334.3 C 1151.3 334.8 1166.7 335.4 1182.0 336.0 C 1197.3 336.6 1212.7 337.3 1228.0 338.0 C 1243.3 338.7 1258.7 339.5 1274.0 340.2 C 1289.3 340.9 1304.7 341.7 1320.0 342.4 C 1335.3 343.1 1350.7 343.8 1366.0 344.4 C 1381.3 345.0 1396.7 345.6 1412.0 346.1 C 1427.3 346.7 1442.7 347.1 1458.0 347.5 C 1473.3 347.9 1488.7 348.2 1504.0 348.5 C 1519.3 348.7 1534.7 348.9 1550.0 348.9 C 1565.3 349.0 1580.7 349.0 1596.0 348.9 C 1611.3 348.7 1634.3 348.3 1642.0 348.2" stroke="#F5F0E8" stroke-width="1" stroke-opacity="0.084" fill="none" stroke-linecap="round"/><path d="M -60.0 483.0 C -52.3 483.0 -29.3 483.2 -14.0 482.9 C 1.3 482.6 16.7 482.0 32.0 481.2 C 47.3 480.4 62.7 479.3 78.0 478.0 C 93.3 476.7 108.7 475.1 124.0 473.3 C 139.3 471.5 154.7 469.5 170.0 467.3 C 185.3 465.1 200.7 462.7 216.0 460.2 C 231.3 457.6 246.7 454.9 262.0 452.1 C 277.3 449.3 292.7 446.3 308.0 443.3 C 323.3 440.3 338.7 437.2 354.0 434.1 C 369.3 431.0 384.7 427.8 400.0 424.7 C 415.3 421.7 430.7 418.5 446.0 415.5 C 461.3 412.5 476.7 409.6 492.0 406.8 C 507.3 403.9 522.7 401.2 538.0 398.7 C 553.3 396.1 568.7 393.7 584.0 391.5 C 599.3 389.3 614.7 387.2 630.0 385.4 C 645.3 383.6 660.7 382.0 676.0 380.6 C 691.3 379.2 706.7 378.1 722.0 377.1 C 737.3 376.2 752.7 375.6 768.0 375.1 C 783.3 374.7 798.7 374.5 814.0 374.5 C 829.3 374.5 844.7 374.8 860.0 375.2 C 875.3 375.7 890.7 376.4 906.0 377.2 C 921.3 378.0 936.7 379.1 952.0 380.3 C 967.3 381.4 982.7 382.8 998.0 384.2 C 1013.3 385.6 1028.7 387.1 1044.0 388.7 C 1059.3 390.3 1074.7 392.0 1090.0 393.6 C 1105.3 395.3 1120.7 397.0 1136.0 398.6 C 1151.3 400.3 1166.7 401.9 1182.0 403.4 C 1197.3 405.0 1212.7 406.5 1228.0 407.8 C 1243.3 409.1 1258.7 410.4 1274.0 411.4 C 1289.3 412.5 1304.7 413.4 1320.0 414.1 C 1335.3 414.8 1350.7 415.3 1366.0 415.6 C 1381.3 415.9 1396.7 416.0 1412.0 415.9 C 1427.3 415.7 1442.7 415.4 1458.0 414.7 C 1473.3 414.1 1488.7 413.3 1504.0 412.2 C 1519.3 411.1 1534.7 409.8 1550.0 408.2 C 1565.3 406.7 1580.7 404.9 1596.0 402.9 C 1611.3 400.9 1634.3 397.4 1642.0 396.3" stroke="#F5F0E8" stroke-width="1.5" stroke-opacity="0.208" fill="none" stroke-linecap="round"/><path d="M -60.0 457.0 C -52.3 456.5 -29.3 455.1 -14.0 454.2 C 1.3 453.4 16.7 452.5 32.0 451.7 C 47.3 450.9 62.7 450.1 78.0 449.3 C 93.3 448.5 108.7 447.8 124.0 447.1 C 139.3 446.4 154.7 445.7 170.0 445.1 C 185.3 444.5 200.7 443.9 216.0 443.3 C 231.3 442.7 246.7 442.2 262.0 441.7 C 277.3 441.3 292.7 440.8 308.0 440.4 C 323.3 440.0 338.7 439.6 354.0 439.3 C 369.3 439.0 384.7 438.7 400.0 438.4 C 415.3 438.2 430.7 437.9 446.0 437.8 C 461.3 437.6 476.7 437.4 492.0 437.3 C 507.3 437.2 522.7 437.1 538.0 437.1 C 553.3 437.1 568.7 437.1 584.0 437.1 C 599.3 437.1 614.7 437.1 630.0 437.2 C 645.3 437.3 660.7 437.4 676.0 437.5 C 691.3 437.7 706.7 437.8 722.0 438.0 C 737.3 438.2 752.7 438.4 768.0 438.6 C 783.3 438.8 798.7 439.0 814.0 439.2 C 829.3 439.5 844.7 439.7 860.0 440.0 C 875.3 440.2 890.7 440.5 906.0 440.8 C 921.3 441.0 936.7 441.3 952.0 441.5 C 967.3 441.8 982.7 442.1 998.0 442.3 C 1013.3 442.6 1028.7 442.8 1044.0 443.1 C 1059.3 443.3 1074.7 443.5 1090.0 443.7 C 1105.3 443.9 1120.7 444.1 1136.0 444.3 C 1151.3 444.4 1166.7 444.6 1182.0 444.7 C 1197.3 444.8 1212.7 444.9 1228.0 445.0 C 1243.3 445.0 1258.7 445.1 1274.0 445.0 C 1289.3 445.0 1304.7 445.0 1320.0 444.9 C 1335.3 444.9 1350.7 444.8 1366.0 444.6 C 1381.3 444.5 1396.7 444.3 1412.0 444.1 C 1427.3 443.9 1442.7 443.6 1458.0 443.3 C 1473.3 443.0 1488.7 442.6 1504.0 442.2 C 1519.3 441.8 1534.7 441.4 1550.0 440.9 C 1565.3 440.4 1580.7 439.9 1596.0 439.4 C 1611.3 438.8 1634.3 437.8 1642.0 437.5" stroke="#F5F0E8" stroke-width="1" stroke-opacity="0.063" fill="none" stroke-linecap="round"/><path d="M -60.0 556.5 C -52.3 555.5 -29.3 552.9 -14.0 550.5 C 1.3 548.1 16.7 545.3 32.0 542.2 C 47.3 539.2 62.7 535.8 78.0 532.4 C 93.3 529.0 108.7 525.3 124.0 521.7 C 139.3 518.2 154.7 514.5 170.0 511.1 C 185.3 507.7 200.7 504.4 216.0 501.4 C 231.3 498.4 246.7 495.6 262.0 493.3 C 277.3 490.9 292.7 488.9 308.0 487.3 C 323.3 485.7 338.7 484.6 354.0 483.9 C 369.3 483.2 384.7 483.0 400.0 483.1 C 415.3 483.3 430.7 484.0 446.0 484.9 C 461.3 485.9 476.7 487.3 492.0 488.9 C 507.3 490.4 522.7 492.4 538.0 494.4 C 553.3 496.4 568.7 498.7 584.0 500.8 C 599.3 503.0 614.7 505.3 630.0 507.3 C 645.3 509.4 660.7 511.4 676.0 513.1 C 691.3 514.8 706.7 516.4 722.0 517.5 C 737.3 518.6 752.7 519.5 768.0 519.9 C 783.3 520.3 798.7 520.3 814.0 519.9 C 829.3 519.5 844.7 518.7 860.0 517.5 C 875.3 516.3 890.7 514.6 906.0 512.6 C 921.3 510.7 936.7 508.3 952.0 505.7 C 967.3 503.2 982.7 500.3 998.0 497.4 C 1013.3 494.5 1028.7 491.3 1044.0 488.3 C 1059.3 485.3 1074.7 482.1 1090.0 479.2 C 1105.3 476.4 1120.7 473.6 1136.0 471.1 C 1151.3 468.7 1166.7 466.4 1182.0 464.7 C 1197.3 462.9 1212.7 461.4 1228.0 460.5 C 1243.3 459.6 1258.7 459.1 1274.0 459.1 C 1289.3 459.1 1304.7 459.7 1320.0 460.7 C 1335.3 461.7 1350.7 463.2 1366.0 465.2 C 1381.3 467.1 1396.7 469.6 1412.0 472.3 C 1427.3 475.0 1442.7 478.2 1458.0 481.5 C 1473.3 484.9 1488.7 488.6 1504.0 492.2 C 1519.3 495.9 1534.7 499.8 1550.0 503.5 C 1565.3 507.2 1580.7 511.1 1596.0 514.6 C 1611.3 518.1 1634.3 522.9 1642.0 524.6" stroke="#F5F0E8" stroke-width="1" stroke-opacity="0.082" fill="none" stroke-linecap="round"/><path d="M -60.0 567.5 C -52.3 566.8 -29.3 565.0 -14.0 563.5 C 1.3 562.0 16.7 560.2 32.0 558.4 C 47.3 556.6 62.7 554.6 78.0 552.6 C 93.3 550.6 108.7 548.4 124.0 546.4 C 139.3 544.3 154.7 542.2 170.0 540.2 C 185.3 538.2 200.7 536.3 216.0 534.5 C 231.3 532.7 246.7 530.9 262.0 529.4 C 277.3 527.9 292.7 526.6 308.0 525.4 C 323.3 524.3 338.7 523.3 354.0 522.6 C 369.3 521.9 384.7 521.4 400.0 521.1 C 415.3 520.8 430.7 520.7 446.0 520.9 C 461.3 521.0 476.7 521.4 492.0 521.9 C 507.3 522.4 522.7 523.2 538.0 524.0 C 553.3 524.8 568.7 525.9 584.0 526.9 C 599.3 528.0 614.7 529.2 630.0 530.5 C 645.3 531.7 660.7 533.0 676.0 534.3 C 691.3 535.6 706.7 536.9 722.0 538.1 C 737.3 539.3 752.7 540.6 768.0 541.7 C 783.3 542.8 798.7 543.8 814.0 544.7 C 829.3 545.7 844.7 546.5 860.0 547.1 C 875.3 547.8 890.7 548.4 906.0 548.8 C 921.3 549.2 936.7 549.5 952.0 549.6 C 967.3 549.7 982.7 549.7 998.0 549.6 C 1013.3 549.5 1028.7 549.3 1044.0 549.0 C 1059.3 548.6 1074.7 548.2 1090.0 547.7 C 1105.3 547.2 1120.7 546.6 1136.0 546.0 C 1151.3 545.4 1166.7 544.8 1182.0 544.1 C 1197.3 543.4 1212.7 542.7 1228.0 542.1 C 1243.3 541.4 1258.7 540.7 1274.0 540.1 C 1289.3 539.5 1304.7 538.9 1320.0 538.3 C 1335.3 537.8 1350.7 537.3 1366.0 536.8 C 1381.3 536.4 1396.7 535.9 1412.0 535.6 C 1427.3 535.2 1442.7 534.9 1458.0 534.6 C 1473.3 534.4 1488.7 534.2 1504.0 533.9 C 1519.3 533.7 1534.7 533.6 1550.0 533.4 C 1565.3 533.3 1580.7 533.1 1596.0 533.0 C 1611.3 532.8 1634.3 532.6 1642.0 532.5" stroke="#F5F0E8" stroke-width="1" stroke-opacity="0.078" fill="none" stroke-linecap="round"/><path d="M -60.0 585.4 C -52.3 584.7 -29.3 582.3 -14.0 580.7 C 1.3 579.2 16.7 577.8 32.0 576.4 C 47.3 575.0 62.7 573.7 78.0 572.5 C 93.3 571.2 108.7 570.1 124.0 569.0 C 139.3 567.9 154.7 567.0 170.0 566.0 C 185.3 565.1 200.7 564.3 216.0 563.5 C 231.3 562.7 246.7 562.0 262.0 561.4 C 277.3 560.7 292.7 560.1 308.0 559.5 C 323.3 558.9 338.7 558.3 354.0 557.7 C 369.3 557.1 384.7 556.5 400.0 555.9 C 415.3 555.3 430.7 554.7 446.0 554.0 C 461.3 553.4 476.7 552.7 492.0 551.9 C 507.3 551.1 522.7 550.3 538.0 549.5 C 553.3 548.6 568.7 547.6 584.0 546.6 C 599.3 545.6 614.7 544.5 630.0 543.4 C 645.3 542.3 660.7 541.1 676.0 539.8 C 691.3 538.6 706.7 537.3 722.0 536.0 C 737.3 534.6 752.7 533.3 768.0 531.9 C 783.3 530.6 798.7 529.2 814.0 527.9 C 829.3 526.6 844.7 525.2 860.0 524.0 C 875.3 522.8 890.7 521.5 906.0 520.4 C 921.3 519.3 936.7 518.3 952.0 517.4 C 967.3 516.5 982.7 515.7 998.0 515.0 C 1013.3 514.3 1028.7 513.8 1044.0 513.4 C 1059.3 513.0 1074.7 512.8 1090.0 512.7 C 1105.3 512.6 1120.7 512.7 1136.0 512.9 C 1151.3 513.1 1166.7 513.5 1182.0 514.0 C 1197.3 514.5 1212.7 515.2 1228.0 516.0 C 1243.3 516.8 1258.7 517.7 1274.0 518.7 C 1289.3 519.7 1304.7 520.8 1320.0 521.9 C 1335.3 523.1 1350.7 524.3 1366.0 525.6 C 1381.3 526.8 1396.7 528.1 1412.0 529.3 C 1427.3 530.5 1442.7 531.8 1458.0 532.9 C 1473.3 534.1 1488.7 535.2 1504.0 536.2 C 1519.3 537.2 1534.7 538.1 1550.0 538.9 C 1565.3 539.6 1580.7 540.3 1596.0 540.8 C 1611.3 541.2 1634.3 541.5 1642.0 541.7" stroke="#F5F0E8" stroke-width="1.5" stroke-opacity="0.193" fill="none" stroke-linecap="round"/><path d="M -60.0 630.1 C -52.3 631.7 -29.3 636.9 -14.0 639.9 C 1.3 642.9 16.7 645.7 32.0 648.1 C 47.3 650.5 62.7 652.6 78.0 654.2 C 93.3 655.8 108.7 657.0 124.0 657.7 C 139.3 658.4 154.7 658.6 170.0 658.4 C 185.3 658.2 200.7 657.5 216.0 656.3 C 231.3 655.2 246.7 653.6 262.0 651.7 C 277.3 649.8 292.7 647.5 308.0 644.9 C 323.3 642.4 338.7 639.5 354.0 636.6 C 369.3 633.7 384.7 630.5 400.0 627.4 C 415.3 624.3 430.7 621.1 446.0 618.1 C 461.3 615.1 476.7 612.1 492.0 609.4 C 507.3 606.7 522.7 604.2 538.0 602.1 C 553.3 600.0 568.7 598.1 584.0 596.8 C 599.3 595.4 614.7 594.4 630.0 593.9 C 645.3 593.3 660.7 593.3 676.0 593.7 C 691.3 594.0 706.7 594.9 722.0 596.2 C 737.3 597.5 752.7 599.2 768.0 601.3 C 783.3 603.4 798.7 605.9 814.0 608.7 C 829.3 611.4 844.7 614.5 860.0 617.7 C 875.3 620.9 890.7 624.4 906.0 627.8 C 921.3 631.3 936.7 634.9 952.0 638.3 C 967.3 641.7 982.7 645.1 998.0 648.2 C 1013.3 651.4 1028.7 654.4 1044.0 657.1 C 1059.3 659.7 1074.7 662.1 1090.0 664.1 C 1105.3 666.1 1120.7 667.7 1136.0 668.9 C 1151.3 670.0 1166.7 670.8 1182.0 671.0 C 1197.3 671.3 1212.7 671.1 1228.0 670.5 C 1243.3 669.9 1258.7 668.9 1274.0 667.4 C 1289.3 666.0 1304.7 664.2 1320.0 662.1 C 1335.3 660.0 1350.7 657.5 1366.0 654.9 C 1381.3 652.3 1396.7 649.3 1412.0 646.4 C 1427.3 643.6 1442.7 640.5 1458.0 637.5 C 1473.3 634.6 1488.7 631.6 1504.0 628.8 C 1519.3 626.1 1534.7 623.4 1550.0 621.1 C 1565.3 618.8 1580.7 616.6 1596.0 614.9 C 1611.3 613.2 1634.3 611.6 1642.0 610.9" stroke="#F5F0E8" stroke-width="1" stroke-opacity="0.059" fill="none" stroke-linecap="round"/><path d="M -60.0 636.7 C -52.3 636.4 -29.3 635.3 -14.0 634.5 C 1.3 633.7 16.7 632.9 32.0 632.1 C 47.3 631.3 62.7 630.5 78.0 629.7 C 93.3 628.9 108.7 628.1 124.0 627.3 C 139.3 626.6 154.7 625.9 170.0 625.2 C 185.3 624.6 200.7 624.0 216.0 623.6 C 231.3 623.2 246.7 622.8 262.0 622.6 C 277.3 622.4 292.7 622.3 308.0 622.4 C 323.3 622.5 338.7 622.8 354.0 623.2 C 369.3 623.7 384.7 624.3 400.0 625.1 C 415.3 625.9 430.7 626.9 446.0 628.1 C 461.3 629.3 476.7 630.7 492.0 632.2 C 507.3 633.7 522.7 635.5 538.0 637.3 C 553.3 639.2 568.7 641.2 584.0 643.3 C 599.3 645.4 614.7 647.6 630.0 649.9 C 645.3 652.1 660.7 654.5 676.0 656.8 C 691.3 659.2 706.7 661.5 722.0 663.8 C 737.3 666.1 752.7 668.4 768.0 670.5 C 783.3 672.6 798.7 674.7 814.0 676.5 C 829.3 678.3 844.7 680.0 860.0 681.5 C 875.3 682.9 890.7 684.1 906.0 685.1 C 921.3 686.0 936.7 686.7 952.0 687.1 C 967.3 687.4 982.7 687.5 998.0 687.2 C 1013.3 687.0 1028.7 686.4 1044.0 685.5 C 1059.3 684.5 1074.7 683.3 1090.0 681.7 C 1105.3 680.1 1120.7 678.2 1136.0 675.9 C 1151.3 673.7 1166.7 671.2 1182.0 668.4 C 1197.3 665.7 1212.7 662.6 1228.0 659.3 C 1243.3 656.1 1258.7 652.6 1274.0 649.0 C 1289.3 645.4 1304.7 641.6 1320.0 637.8 C 1335.3 633.9 1350.7 630.0 1366.0 626.0 C 1381.3 622.1 1396.7 618.1 1412.0 614.3 C 1427.3 610.4 1442.7 606.5 1458.0 602.9 C 1473.3 599.2 1488.7 595.6 1504.0 592.3 C 1519.3 588.9 1534.7 585.7 1550.0 582.8 C 1565.3 579.9 1580.7 577.2 1596.0 574.8 C 1611.3 572.5 1634.3 569.6 1642.0 568.6" stroke="#F5F0E8" stroke-width="1" stroke-opacity="0.088" fill="none" stroke-linecap="round"/><path d="M -60.0 695.3 C -52.3 696.1 -29.3 698.3 -14.0 699.7 C 1.3 701.2 16.7 702.6 32.0 703.9 C 47.3 705.3 62.7 706.5 78.0 707.7 C 93.3 708.9 108.7 710.0 124.0 710.9 C 139.3 711.9 154.7 712.7 170.0 713.4 C 185.3 714.1 200.7 714.7 216.0 715.2 C 231.3 715.6 246.7 715.9 262.0 716.1 C 277.3 716.2 292.7 716.3 308.0 716.1 C 323.3 716.0 338.7 715.8 354.0 715.4 C 369.3 715.1 384.7 714.6 400.0 714.0 C 415.3 713.5 430.7 712.8 446.0 712.1 C 461.3 711.4 476.7 710.5 492.0 709.7 C 507.3 708.9 522.7 708.0 538.0 707.1 C 553.3 706.2 568.7 705.3 584.0 704.4 C 599.3 703.6 614.7 702.7 630.0 701.9 C 645.3 701.1 660.7 700.4 676.0 699.7 C 691.3 699.0 706.7 698.4 722.0 697.9 C 737.3 697.4 752.7 697.0 768.0 696.7 C 783.3 696.5 798.7 696.3 814.0 696.2 C 829.3 696.2 844.7 696.2 860.0 696.4 C 875.3 696.6 890.7 696.9 906.0 697.3 C 921.3 697.7 936.7 698.3 952.0 698.9 C 967.3 699.5 982.7 700.3 998.0 701.1 C 1013.3 701.9 1028.7 702.8 1044.0 703.7 C 1059.3 704.6 1074.7 705.6 1090.0 706.6 C 1105.3 707.6 1120.7 708.7 1136.0 709.7 C 1151.3 710.7 1166.7 711.8 1182.0 712.8 C 1197.3 713.8 1212.7 714.7 1228.0 715.6 C 1243.3 716.5 1258.7 717.4 1274.0 718.1 C 1289.3 718.8 1304.7 719.5 1320.0 720.1 C 1335.3 720.6 1350.7 721.1 1366.0 721.4 C 1381.3 721.7 1396.7 721.9 1412.0 722.0 C 1427.3 722.0 1442.7 722.0 1458.0 721.8 C 1473.3 721.6 1488.7 721.2 1504.0 720.8 C 1519.3 720.3 1534.7 719.8 1550.0 719.1 C 1565.3 718.4 1580.7 717.6 1596.0 716.8 C 1611.3 715.9 1634.3 714.4 1642.0 713.9" stroke="#F5F0E8" stroke-width="1" stroke-opacity="0.083" fill="none" stroke-linecap="round"/><path d="M -60.0 716.5 C -52.3 716.5 -29.3 716.1 -14.0 716.2 C 1.3 716.3 16.7 716.5 32.0 716.9 C 47.3 717.3 62.7 717.9 78.0 718.6 C 93.3 719.2 108.7 720.1 124.0 720.9 C 139.3 721.7 154.7 722.7 170.0 723.6 C 185.3 724.5 200.7 725.5 216.0 726.5 C 231.3 727.4 246.7 728.4 262.0 729.3 C 277.3 730.2 292.7 731.1 308.0 731.9 C 323.3 732.8 338.7 733.5 354.0 734.3 C 369.3 735.0 384.7 735.7 400.0 736.3 C 415.3 736.9 430.7 737.5 446.0 738.0 C 461.3 738.5 476.7 739.0 492.0 739.5 C 507.3 739.9 522.7 740.4 538.0 740.8 C 553.3 741.2 568.7 741.7 584.0 742.1 C 599.3 742.5 614.7 743.0 630.0 743.4 C 645.3 743.9 660.7 744.3 676.0 744.8 C 691.3 745.3 706.7 745.8 722.0 746.3 C 737.3 746.7 752.7 747.3 768.0 747.7 C 783.3 748.2 798.7 748.7 814.0 749.2 C 829.3 749.6 844.7 750.1 860.0 750.5 C 875.3 750.8 890.7 751.2 906.0 751.4 C 921.3 751.7 936.7 751.9 952.0 752.0 C 967.3 752.1 982.7 752.1 998.0 752.0 C 1013.3 751.9 1028.7 751.7 1044.0 751.4 C 1059.3 751.1 1074.7 750.7 1090.0 750.2 C 1105.3 749.7 1120.7 749.0 1136.0 748.4 C 1151.3 747.7 1166.7 746.9 1182.0 746.1 C 1197.3 745.3 1212.7 744.3 1228.0 743.4 C 1243.3 742.5 1258.7 741.6 1274.0 740.7 C 1289.3 739.8 1304.7 738.8 1320.0 738.0 C 1335.3 737.2 1350.7 736.3 1366.0 735.6 C 1381.3 734.9 1396.7 734.2 1412.0 733.7 C 1427.3 733.2 1442.7 732.8 1458.0 732.5 C 1473.3 732.2 1488.7 732.0 1504.0 732.0 C 1519.3 732.0 1534.7 732.1 1550.0 732.4 C 1565.3 732.6 1580.7 733.0 1596.0 733.5 C 1611.3 734.0 1634.3 735.0 1642.0 735.3" stroke="#F5F0E8" stroke-width="1.5" stroke-opacity="0.260" fill="none" stroke-linecap="round"/><path d="M -60.0 771.7 C -52.3 773.4 -29.3 778.7 -14.0 782.0 C 1.3 785.4 16.7 788.7 32.0 791.7 C 47.3 794.7 62.7 797.6 78.0 800.0 C 93.3 802.4 108.7 804.6 124.0 806.3 C 139.3 807.9 154.7 809.2 170.0 809.9 C 185.3 810.7 200.7 811.0 216.0 810.7 C 231.3 810.5 246.7 809.7 262.0 808.5 C 277.3 807.3 292.7 805.5 308.0 803.3 C 323.3 801.2 338.7 798.5 354.0 795.5 C 369.3 792.6 384.7 789.2 400.0 785.6 C 415.3 782.0 430.7 778.0 446.0 774.1 C 461.3 770.1 476.7 765.9 492.0 761.7 C 507.3 757.6 522.7 753.4 538.0 749.4 C 553.3 745.4 568.7 741.4 584.0 737.8 C 599.3 734.1 614.7 730.6 630.0 727.6 C 645.3 724.5 660.7 721.7 676.0 719.4 C 691.3 717.2 706.7 715.2 722.0 713.8 C 737.3 712.4 752.7 711.4 768.0 710.9 C 783.3 710.4 798.7 710.5 814.0 710.9 C 829.3 711.3 844.7 712.2 860.0 713.5 C 875.3 714.8 890.7 716.5 906.0 718.5 C 921.3 720.5 936.7 722.9 952.0 725.4 C 967.3 727.9 982.7 730.7 998.0 733.6 C 1013.3 736.4 1028.7 739.4 1044.0 742.3 C 1059.3 745.2 1074.7 748.2 1090.0 751.0 C 1105.3 753.7 1120.7 756.5 1136.0 758.9 C 1151.3 761.2 1166.7 763.5 1182.0 765.3 C 1197.3 767.2 1212.7 768.8 1228.0 770.0 C 1243.3 771.2 1258.7 772.0 1274.0 772.4 C 1289.3 772.8 1304.7 772.8 1320.0 772.5 C 1335.3 772.1 1350.7 771.3 1366.0 770.2 C 1381.3 769.1 1396.7 767.5 1412.0 765.8 C 1427.3 764.0 1442.7 761.8 1458.0 759.5 C 1473.3 757.2 1488.7 754.5 1504.0 751.9 C 1519.3 749.2 1534.7 746.3 1550.0 743.4 C 1565.3 740.5 1580.7 737.5 1596.0 734.7 C 1611.3 731.8 1634.3 727.6 1642.0 726.2" stroke="#F5F0E8" stroke-width="1" stroke-opacity="0.047" fill="none" stroke-linecap="round"/><path d="M -60.0 821.3 C -52.3 820.8 -29.3 819.2 -14.0 818.3 C 1.3 817.3 16.7 816.4 32.0 815.6 C 47.3 814.8 62.7 814.1 78.0 813.4 C 93.3 812.8 108.7 812.3 124.0 811.9 C 139.3 811.5 154.7 811.2 170.0 811.0 C 185.3 810.8 200.7 810.7 216.0 810.7 C 231.3 810.7 246.7 810.9 262.0 811.1 C 277.3 811.2 292.7 811.5 308.0 811.8 C 323.3 812.2 338.7 812.6 354.0 812.9 C 369.3 813.3 384.7 813.8 400.0 814.2 C 415.3 814.6 430.7 815.0 446.0 815.3 C 461.3 815.7 476.7 816.0 492.0 816.2 C 507.3 816.4 522.7 816.6 538.0 816.6 C 553.3 816.6 568.7 816.6 584.0 816.4 C 599.3 816.2 614.7 815.9 630.0 815.5 C 645.3 815.0 660.7 814.4 676.0 813.7 C 691.3 813.0 706.7 812.2 722.0 811.3 C 737.3 810.3 752.7 809.2 768.0 808.1 C 783.3 806.9 798.7 805.6 814.0 804.3 C 829.3 802.9 844.7 801.5 860.0 800.0 C 875.3 798.6 890.7 797.0 906.0 795.5 C 921.3 794.0 936.7 792.5 952.0 791.0 C 967.3 789.5 982.7 788.0 998.0 786.7 C 1013.3 785.3 1028.7 783.9 1044.0 782.7 C 1059.3 781.5 1074.7 780.3 1090.0 779.3 C 1105.3 778.3 1120.7 777.4 1136.0 776.6 C 1151.3 775.8 1166.7 775.2 1182.0 774.7 C 1197.3 774.2 1212.7 773.9 1228.0 773.7 C 1243.3 773.4 1258.7 773.4 1274.0 773.4 C 1289.3 773.4 1304.7 773.6 1320.0 773.8 C 1335.3 774.1 1350.7 774.5 1366.0 774.9 C 1381.3 775.3 1396.7 775.8 1412.0 776.4 C 1427.3 776.9 1442.7 777.5 1458.0 778.1 C 1473.3 778.6 1488.7 779.2 1504.0 779.8 C 1519.3 780.3 1534.7 780.8 1550.0 781.3 C 1565.3 781.7 1580.7 782.1 1596.0 782.4 C 1611.3 782.7 1634.3 783.0 1642.0 783.1" stroke="#F5F0E8" stroke-width="1" stroke-opacity="0.048" fill="none" stroke-linecap="round"/><path d="M -60.0 855.8 C -52.3 855.3 -29.3 853.7 -14.0 852.4 C 1.3 851.1 16.7 849.5 32.0 848.0 C 47.3 846.4 62.7 844.6 78.0 842.8 C 93.3 841.1 108.7 839.2 124.0 837.4 C 139.3 835.7 154.7 833.8 170.0 832.1 C 185.3 830.5 200.7 828.8 216.0 827.4 C 231.3 826.0 246.7 824.6 262.0 823.6 C 277.3 822.5 292.7 821.6 308.0 821.0 C 323.3 820.4 338.7 820.1 354.0 820.0 C 369.3 819.9 384.7 820.1 400.0 820.5 C 415.3 820.9 430.7 821.6 446.0 822.6 C 461.3 823.5 476.7 824.7 492.0 826.0 C 507.3 827.4 522.7 828.9 538.0 830.6 C 553.3 832.2 568.7 834.0 584.0 835.8 C 599.3 837.6 614.7 839.4 630.0 841.2 C 645.3 843.0 660.7 844.7 676.0 846.3 C 691.3 847.9 706.7 849.4 722.0 850.6 C 737.3 851.8 752.7 852.9 768.0 853.6 C 783.3 854.4 798.7 854.9 814.0 855.0 C 829.3 855.2 844.7 855.1 860.0 854.6 C 875.3 854.2 890.7 853.4 906.0 852.3 C 921.3 851.2 936.7 849.7 952.0 848.1 C 967.3 846.4 982.7 844.4 998.0 842.2 C 1013.3 840.0 1028.7 837.6 1044.0 835.1 C 1059.3 832.5 1074.7 829.8 1090.0 827.1 C 1105.3 824.4 1120.7 821.5 1136.0 818.8 C 1151.3 816.1 1166.7 813.3 1182.0 810.7 C 1197.3 808.2 1212.7 805.7 1228.0 803.5 C 1243.3 801.2 1258.7 799.2 1274.0 797.4 C 1289.3 795.7 1304.7 794.1 1320.0 793.0 C 1335.3 791.8 1350.7 790.9 1366.0 790.3 C 1381.3 789.8 1396.7 789.5 1412.0 789.6 C 1427.3 789.6 1442.7 790.0 1458.0 790.6 C 1473.3 791.3 1488.7 792.2 1504.0 793.3 C 1519.3 794.4 1534.7 795.7 1550.0 797.2 C 1565.3 798.6 1580.7 800.2 1596.0 801.8 C 1611.3 803.4 1634.3 805.9 1642.0 806.7" stroke="#F5F0E8" stroke-width="1" stroke-opacity="0.062" fill="none" stroke-linecap="round"/><path d="M -60.0 882.5 C -52.3 882.4 -29.3 881.8 -14.0 881.6 C 1.3 881.3 16.7 881.2 32.0 881.1 C 47.3 881.0 62.7 881.0 78.0 881.0 C 93.3 880.9 108.7 880.9 124.0 880.9 C 139.3 880.9 154.7 880.8 170.0 880.7 C 185.3 880.6 200.7 880.4 216.0 880.2 C 231.3 879.9 246.7 879.6 262.0 879.1 C 277.3 878.7 292.7 878.1 308.0 877.5 C 323.3 876.9 338.7 876.1 354.0 875.3 C 369.3 874.5 384.7 873.6 400.0 872.6 C 415.3 871.7 430.7 870.6 446.0 869.6 C 461.3 868.5 476.7 867.4 492.0 866.3 C 507.3 865.2 522.7 864.1 538.0 863.1 C 553.3 862.0 568.7 861.0 584.0 860.1 C 599.3 859.2 614.7 858.3 630.0 857.5 C 645.3 856.8 660.7 856.1 676.0 855.5 C 691.3 855.0 706.7 854.6 722.0 854.2 C 737.3 853.9 752.7 853.7 768.0 853.7 C 783.3 853.6 798.7 853.6 814.0 853.7 C 829.3 853.8 844.7 854.1 860.0 854.3 C 875.3 854.6 890.7 854.9 906.0 855.3 C 921.3 855.7 936.7 856.1 952.0 856.5 C 967.3 856.9 982.7 857.3 998.0 857.6 C 1013.3 857.9 1028.7 858.3 1044.0 858.5 C 1059.3 858.7 1074.7 858.9 1090.0 859.0 C 1105.3 859.1 1120.7 859.1 1136.0 859.0 C 1151.3 858.9 1166.7 858.7 1182.0 858.3 C 1197.3 858.0 1212.7 857.6 1228.0 857.1 C 1243.3 856.6 1258.7 856.0 1274.0 855.3 C 1289.3 854.6 1304.7 853.9 1320.0 853.1 C 1335.3 852.3 1350.7 851.4 1366.0 850.5 C 1381.3 849.6 1396.7 848.6 1412.0 847.7 C 1427.3 846.8 1442.7 845.8 1458.0 844.9 C 1473.3 844.0 1488.7 843.1 1504.0 842.2 C 1519.3 841.3 1534.7 840.5 1550.0 839.6 C 1565.3 838.8 1580.7 838.1 1596.0 837.3 C 1611.3 836.6 1634.3 835.6 1642.0 835.2" stroke="#F5F0E8" stroke-width="1.5" stroke-opacity="0.251" fill="none" stroke-linecap="round"/><path d="M -60.0 920.9 C -52.3 921.1 -29.3 921.4 -14.0 921.8 C 1.3 922.2 16.7 922.7 32.0 923.2 C 47.3 923.8 62.7 924.5 78.0 925.2 C 93.3 926.0 108.7 926.8 124.0 927.8 C 139.3 928.7 154.7 929.7 170.0 930.8 C 185.3 931.9 200.7 933.1 216.0 934.3 C 231.3 935.4 246.7 936.7 262.0 937.9 C 277.3 939.1 292.7 940.4 308.0 941.6 C 323.3 942.9 338.7 944.1 354.0 945.3 C 369.3 946.4 384.7 947.6 400.0 948.6 C 415.3 949.6 430.7 950.6 446.0 951.5 C 461.3 952.4 476.7 953.2 492.0 953.8 C 507.3 954.5 522.7 955.1 538.0 955.5 C 553.3 956.0 568.7 956.3 584.0 956.5 C 599.3 956.7 614.7 956.8 630.0 956.8 C 645.3 956.8 660.7 956.7 676.0 956.5 C 691.3 956.3 706.7 956.0 722.0 955.7 C 737.3 955.3 752.7 954.9 768.0 954.4 C 783.3 954.0 798.7 953.5 814.0 953.0 C 829.3 952.5 844.7 952.0 860.0 951.6 C 875.3 951.1 890.7 950.6 906.0 950.2 C 921.3 949.9 936.7 949.5 952.0 949.3 C 967.3 949.0 982.7 948.8 998.0 948.8 C 1013.3 948.7 1028.7 948.7 1044.0 948.8 C 1059.3 949.0 1074.7 949.2 1090.0 949.5 C 1105.3 949.9 1120.7 950.3 1136.0 950.9 C 1151.3 951.5 1166.7 952.2 1182.0 952.9 C 1197.3 953.7 1212.7 954.5 1228.0 955.5 C 1243.3 956.4 1258.7 957.4 1274.0 958.4 C 1289.3 959.5 1304.7 960.6 1320.0 961.7 C 1335.3 962.8 1350.7 963.9 1366.0 965.1 C 1381.3 966.2 1396.7 967.3 1412.0 968.4 C 1427.3 969.4 1442.7 970.5 1458.0 971.5 C 1473.3 972.4 1488.7 973.3 1504.0 974.2 C 1519.3 975.0 1534.7 975.8 1550.0 976.4 C 1565.3 977.1 1580.7 977.6 1596.0 978.1 C 1611.3 978.6 1634.3 979.1 1642.0 979.3" stroke="#F5F0E8" stroke-width="1" stroke-opacity="0.061" fill="none" stroke-linecap="round"/><path d="M -60.0 958.8 C -52.3 958.7 -29.3 958.5 -14.0 958.4 C 1.3 958.3 16.7 958.3 32.0 958.4 C 47.3 958.4 62.7 958.5 78.0 958.7 C 93.3 958.9 108.7 959.1 124.0 959.4 C 139.3 959.6 154.7 960.0 170.0 960.3 C 185.3 960.7 200.7 961.1 216.0 961.4 C 231.3 961.8 246.7 962.2 262.0 962.6 C 277.3 962.9 292.7 963.3 308.0 963.6 C 323.3 963.9 338.7 964.1 354.0 964.3 C 369.3 964.5 384.7 964.7 400.0 964.7 C 415.3 964.7 430.7 964.7 446.0 964.6 C 461.3 964.5 476.7 964.3 492.0 964.0 C 507.3 963.7 522.7 963.3 538.0 962.8 C 553.3 962.4 568.7 961.9 584.0 961.3 C 599.3 960.7 614.7 960.1 630.0 959.4 C 645.3 958.8 660.7 958.1 676.0 957.4 C 691.3 956.7 706.7 956.0 722.0 955.4 C 737.3 954.7 752.7 954.1 768.0 953.5 C 783.3 952.9 798.7 952.4 814.0 952.0 C 829.3 951.5 844.7 951.2 860.0 950.9 C 875.3 950.6 890.7 950.5 906.0 950.4 C 921.3 950.3 936.7 950.3 952.0 950.4 C 967.3 950.6 982.7 950.8 998.0 951.1 C 1013.3 951.3 1028.7 951.7 1044.0 952.1 C 1059.3 952.5 1074.7 953.0 1090.0 953.5 C 1105.3 954.0 1120.7 954.6 1136.0 955.1 C 1151.3 955.6 1166.7 956.2 1182.0 956.7 C 1197.3 957.2 1212.7 957.6 1228.0 958.0 C 1243.3 958.4 1258.7 958.8 1274.0 959.0 C 1289.3 959.3 1304.7 959.4 1320.0 959.5 C 1335.3 959.6 1350.7 959.5 1366.0 959.4 C 1381.3 959.3 1396.7 959.0 1412.0 958.7 C 1427.3 958.4 1442.7 957.9 1458.0 957.4 C 1473.3 956.9 1488.7 956.3 1504.0 955.6 C 1519.3 955.0 1534.7 954.2 1550.0 953.5 C 1565.3 952.8 1580.7 952.0 1596.0 951.2 C 1611.3 950.4 1634.3 949.3 1642.0 948.9" stroke="#F5F0E8" stroke-width="1" stroke-opacity="0.088" fill="none" stroke-linecap="round"/></g>
<path d="M -60.0 545.6 C -52.3 545.1 -29.3 543.3 -14.0 542.3 C 1.3 541.2 16.7 540.2 32.0 539.2 C 47.3 538.3 62.7 537.4 78.0 536.5 C 93.3 535.7 108.7 535.0 124.0 534.3 C 139.3 533.7 154.7 533.1 170.0 532.6 C 185.3 532.1 200.7 531.7 216.0 531.3 C 231.3 531.0 246.7 530.7 262.0 530.5 C 277.3 530.3 292.7 530.1 308.0 530.0 C 323.3 529.9 338.7 529.8 354.0 529.7 C 369.3 529.7 384.7 529.7 400.0 529.6 C 415.3 529.6 430.7 529.6 446.0 529.5 C 461.3 529.5 476.7 529.4 492.0 529.3 C 507.3 529.2 522.7 529.1 538.0 528.9 C 553.3 528.8 568.7 528.6 584.0 528.3 C 599.3 528.1 614.7 527.8 630.0 527.4 C 645.3 527.1 660.7 526.7 676.0 526.3 C 691.3 525.9 706.7 525.4 722.0 524.9 C 737.3 524.4 752.7 523.9 768.0 523.4 C 783.3 522.9 798.7 522.3 814.0 521.8 C 829.3 521.3 844.7 520.7 860.0 520.3 C 875.3 519.8 890.7 519.3 906.0 518.9 C 921.3 518.5 936.7 518.1 952.0 517.8 C 967.3 517.5 982.7 517.3 998.0 517.1 C 1013.3 517.0 1028.7 516.9 1044.0 516.9 C 1059.3 516.9 1074.7 517.0 1090.0 517.2 C 1105.3 517.4 1120.7 517.7 1136.0 518.1 C 1151.3 518.4 1166.7 518.9 1182.0 519.4 C 1197.3 519.9 1212.7 520.5 1228.0 521.1 C 1243.3 521.8 1258.7 522.5 1274.0 523.2 C 1289.3 524.0 1304.7 524.7 1320.0 525.5 C 1335.3 526.3 1350.7 527.1 1366.0 527.9 C 1381.3 528.7 1396.7 529.4 1412.0 530.2 C 1427.3 530.9 1442.7 531.6 1458.0 532.2 C 1473.3 532.8 1488.7 533.4 1504.0 533.9 C 1519.3 534.4 1534.7 534.8 1550.0 535.1 C 1565.3 535.4 1580.7 535.6 1596.0 535.7 C 1611.3 535.9 1634.3 535.8 1642.0 535.8" stroke="#C9A96E" stroke-width="2" stroke-opacity="0.5" fill="none" stroke-linecap="round"/>
<rect width="1600" height="900" fill="url(#vig)"/>
<rect width="1600" height="900" filter="url(#grain)" opacity="0.05"/>
</svg>