<svg xmlns="http://www.w3.org/2000/svg" viewBox="0 0 1600 900" preserveAspectRatio="xMidYMid slice">
<defs>
<linearGradient id="bg" x1="0" y1="0" x2="0" y2="1"><stop offset="0" stop-color="#0b160f"/><stop offset="1" stop-color="#15271b"/></linearGradient>
<radialGradient id="glow" cx="0.211" cy="0.301" r="0.75"><stop offset="0" stop-color="#C9A96E" stop-opacity="0.15"/><stop offset="1" stop-color="#C9A96E" stop-opacity="0"/></radialGradient>
<radialGradient id="vig" cx="0.5" cy="0.5" r="0.75"><stop offset="0.5" stop-color="#000" stop-opacity="0"/><stop offset="1" stop-color="#000" stop-opacity="0.5"/></radialGradient>
<filter id="grain"><feTurbulence type="fractalNoise" baseFrequency="0.9" numOctaves="2" stitchTiles="stitch"/><feColorMatrix type="matrix" values="0 0 0 0 0 0 0 0 0 0 0 0 0 0 0 0 0 0 0.55 0"/></filter>
</defs>
<rect width="1600" height="900" fill="url(#bg)"/>
<rect width="1600" height="900" fill="url(#glow)"/>
<path d="M -60.0 560.8 C -52.3 560.7 -29.3 560.1 -14.0 559.8 C 1.3 559.6 16.7 559.6 32.0 559.5 C 47.3 559.4 62.7 559.5 78.0 559.4 C 93.3 559.4 108.7 559.4 124.0 559.3 C 139.3 559.2 154.7 559.0 170.0 558.7 C 185.3 558.4 200.7 558.0 216.0 557.4 C 231.3 556.9 246.7 556.1 262.0 555.3 C 277.3 554.5 292.7 553.4 308.0 552.3 C 323.3 551.2 338.7 550.0 354.0 548.7 C 369.3 547.4 384.7 546.0 400.0 544.7 C 415.3 543.3 430.7 541.9 446.0 540.6 C 461.3 539.3 476.7 538.1 492.0 537.0 C 507.3 536.0 522.7 535.0 538.0 534.3 C 553.3 533.6 568.7 533.1 584.0 532.9 C 599.3 532.7 614.7 532.7 630.0 533.1 C 645.3 533.4 660.7 534.0 676.0 534.9 C 691.3 535.8 706.7 537.0 722.0 538.4 C 737.3 539.7 752.7 541.4 768.0 543.1 C 783.3 544.8 798.7 546.8 814.0 548.7 C 829.3 550.6 844.7 552.7 860.0 554.6 C 875.3 556.5 890.7 558.4 906.0 560.1 C 921.3 561.7 936.7 563.2 952.0 564.4 C 967.3 565.5 982.7 566.5 998.0 567.0 C 1013.3 567.5 1028.7 567.6 1044.0 567.3 C 1059.3 567.0 1074.7 566.2 1090.0 565.1 C 1105.3 563.9 1120.7 562.2 1136.0 560.2 C 1151.3 558.1 1166.7 555.6 1182.0 552.8 C 1197.3 550.0 1212.7 546.8 1228.0 543.4 C 1243.3 540.1 1258.7 536.3 1274.0 532.7 C 1289.3 529.0 1304.7 525.0 1320.0 521.3 C 1335.3 517.6 1350.7 513.7 1366.0 510.3 C 1381.3 506.8 1396.7 503.4 1412.0 500.4 C 1427.3 497.5 1442.7 494.7 1458.0 492.6 C 1473.3 490.4 1488.7 488.6 1504.0 487.3 C 1519.3 486.1 1534.7 485.3 1550.0 485.1 C 1565.3 484.8 1580.7 485.1 1596.0 485.9 C 1611.3 486.7 1631.3 410.6 1642.0 489.6 C 1652.7 568.6 1943.7 881.6 1660.0 960.0 C 1376.3 1038.4 226.7 960.0 -60.0 960.0 Z" fill="#C9A96E" fill-opacity="0.028"/>
<g><path d="M -60.0 -69.0 C -52.3 -68.3 -29.3 -66.2 -14.0 -64.7 C 1.3 -63.3 16.7 -61.8 32.0 -60.3 C 47.3 -58.8 62.7 -57.3 78.0 -55.8 C 93.3 -54.3 108.7 -52.8 124.0 -51.4 C 139.3 -49.9 154.7 -48.4 170.0 -47.0 C 185.3 -45.6 200.7 -44.1 216.0 -42.8 C 231.3 -41.4 246.7 -40.1 262.0 -38.8 C 277.3 -37.6 292.7 -36.4 308.0 -35.2 C 323.3 -34.1 338.7 -33.0 354.0 -32.0 C 369.3 -31.0 384.7 -30.0 400.0 -29.2 C 415.3 -28.3 430.7 -27.5 446.0 -26.8 C 461.3 -26.1 476.7 -25.4 492.0 -24.8 C 507.3 -24.3 522.7 -23.8 538.0 -23.4 C 553.3 -22.9 568.7 -22.6 584.0 -22.3 C 599.3 -22.0 614.7 -21.8 630.0 -21.7 C 645.3 -21.5 660.7 -21.4 676.0 -21.4 C 691.3 -21.3 706.7 -21.3 722.0 -21.3 C 737.3 -21.4 752.7 -21.4 768.0 -21.5 C 783.3 -21.6 798.7 -21.7 814.0 -21.9 C 829.3 -22.0 844.7 -22.1 860.0 -22.3 C 875.3 -22.4 890.7 -22.5 906.0 -22.7 C 921.3 -22.8 936.7 -22.9 952.0 -23.0 C 967.3 -23.0 982.7 -23.1 998.0 -23.1 C 1013.3 -23.1 1028.7 -23.1 1044.0 -23.0 C 1059.3 -22.9 1074.7 -22.8 1090.0 -22.6 C 1105.3 -22.4 1120.7 -22.1 1136.0 -21.8 C 1151.3 -21.5 1166.7 -21.2 1182.0 -20.7 C 1197.3 -20.3 1212.7 -19.8 1228.0 -19.2 C 1243.3 -18.6 1258.7 -18.0 1274.0 -17.3 C 1289.3 -16.6 1304.7 -15.8 1320.0 -15.0 C 1335.3 -14.2 1350.7 -13.3 1366.0 -12.4 C 1381.3 -11.4 1396.7 -10.4 1412.0 -9.3 C 1427.3 -8.3 1442.7 -7.2 1458.0 -6.0 C 1473.3 -4.9 1488.7 -3.7 1504.0 -2.5 C 1519.3 -1.3 1534.7 -0.0 1550.0 1.2 C 1565.3 2.5 1580.7 3.8 1596.0 5.1 C 1611.3 6.3 1634.3 8.3 1642.0 9.0" stroke="#F5F0E8" stroke-width="1" stroke-opacity="0.085" fill="none" stroke-linecap="round"/><path d="M -60.0 -17.3 C -52.3 -17.4 -29.3 -17.4 -14.0 -17.6 C 1.3 -17.7 16.7 -18.0 32.0 -18.3 C 47.3 -18.5 62.7 -18.9 78.0 -19.3 C 93.3 -19.6 108.7 -20.1 124.0 -20.5 C 139.3 -20.8 154.7 -21.2 170.0 -21.6 C 185.3 -21.9 200.7 -22.3 216.0 -22.5 C 231.3 -22.8 246.7 -23.0 262.0 -23.1 C 277.3 -23.2 292.7 -23.2 308.0 -23.1 C 323.3 -23.0 338.7 -22.9 354.0 -22.6 C 369.3 -22.3 384.7 -21.9 400.0 -21.4 C 415.3 -20.9 430.7 -20.3 446.0 -19.6 C 461.3 -18.9 476.7 -18.1 492.0 -17.2 C 507.3 -16.4 522.7 -15.4 538.0 -14.4 C 553.3 -13.5 568.7 -12.4 584.0 -11.4 C 599.3 -10.4 614.7 -9.3 630.0 -8.3 C 645.3 -7.3 660.7 -6.2 676.0 -5.3 C 691.3 -4.3 706.7 -3.4 722.0 -2.6 C 737.3 -1.8 752.7 -1.0 768.0 -0.4 C 783.3 0.2 798.7 0.8 814.0 1.2 C 829.3 1.6 844.7 1.9 860.0 2.0 C 875.3 2.2 890.7 2.3 906.0 2.2 C 921.3 2.2 936.7 2.0 952.0 1.7 C 967.3 1.5 982.7 1.1 998.0 0.6 C 1013.3 0.2 1028.7 -0.3 1044.0 -0.8 C 1059.3 -1.4 1074.7 -2.0 1090.0 -2.6 C 1105.3 -3.1 1120.7 -3.7 1136.0 -4.3 C 1151.3 -4.8 1166.7 -5.4 1182.0 -5.8 C 1197.3 -6.2 1212.7 -6.6 1228.0 -6.8 C 1243.3 -7.1 1258.7 -7.2 1274.0 -7.3 C 1289.3 -7.3 1304.7 -7.2 1320.0 -6.9 C 1335.3 -6.7 1350.7 -6.3 1366.0 -5.8 C 1381.3 -5.2 1396.7 -4.5 1412.0 -3.7 C 1427.3 -2.9 1442.7 -2.0 1458.0 -0.9 C 1473.3 0.1 1488.7 1.3 1504.0 2.6 C 1519.3 3.9 1534.7 5.2 1550.0 6.6 C 1565.3 8.0 1580.7 9.5 1596.0 11.0 C 1611.3 12.4 1634.3 14.6 1642.0 15.3" stroke="#C9A96E" stroke-width="1.5" stroke-opacity="0.248" fill="none" stroke-linecap="round"/><path d="M -60.0 6.9 C -52.3 6.4 -29.3 5.0 -14.0 4.0 C 1.3 2.9 16.7 1.8 32.0 0.7 C 47.3 -0.5 62.7 -1.7 78.0 -2.9 C 93.3 -4.1 108.7 -5.4 124.0 -6.6 C 139.3 -7.9 154.7 -9.2 170.0 -10.4 C 185.3 -11.6 200.7 -12.8 216.0 -14.0 C 231.3 -15.1 246.7 -16.2 262.0 -17.3 C 277.3 -18.3 292.7 -19.2 308.0 -20.0 C 323.3 -20.8 338.7 -21.5 354.0 -22.1 C 369.3 -22.7 384.7 -23.1 400.0 -23.4 C 415.3 -23.7 430.7 -23.9 446.0 -23.9 C 461.3 -24.0 476.7 -23.8 492.0 -23.6 C 507.3 -23.4 522.7 -23.0 538.0 -22.5 C 553.3 -22.1 568.7 -21.5 584.0 -20.8 C 599.3 -20.2 614.7 -19.4 630.0 -18.7 C 645.3 -18.0 660.7 -17.2 676.0 -16.4 C 691.3 -15.7 706.7 -14.9 722.0 -14.3 C 737.3 -13.6 752.7 -13.0 768.0 -12.5 C 783.3 -12.0 798.7 -11.6 814.0 -11.4 C 829.3 -11.1 844.7 -11.0 860.0 -11.1 C 875.3 -11.1 890.7 -11.4 906.0 -11.8 C 921.3 -12.2 936.7 -12.8 952.0 -13.6 C 967.3 -14.3 982.7 -15.3 998.0 -16.4 C 1013.3 -17.6 1028.7 -18.9 1044.0 -20.3 C 1059.3 -21.7 1074.7 -23.3 1090.0 -24.9 C 1105.3 -26.6 1120.7 -28.4 1136.0 -30.2 C 1151.3 -32.0 1166.7 -33.9 1182.0 -35.7 C 1197.3 -37.6 1212.7 -39.5 1228.0 -41.3 C 1243.3 -43.0 1258.7 -44.8 1274.0 -46.5 C 1289.3 -48.1 1304.7 -49.7 1320.0 -51.2 C 1335.3 -52.6 1350.7 -53.9 1366.0 -55.1 C 1381.3 -56.2 1396.7 -57.3 1412.0 -58.1 C 1427.3 -59.0 1442.7 -59.7 1458.0 -60.2 C 1473.3 -60.8 1488.7 -61.2 1504.0 -61.4 C 1519.3 -61.7 1534.7 -61.9 1550.0 -61.9 C 1565.3 -62.0 1580.7 -62.0 1596.0 -61.9 C 1611.3 -61.8 1634.3 -61.6 1642.0 -61.6" stroke="#F5F0E8" stroke-width="1" stroke-opacity="0.078" fill="none" stroke-linecap="round"/><path d="M -60.0 33.6 C -52.3 33.6 -29.3 33.5 -14.0 33.6 C 1.3 33.6 16.7 33.6 32.0 33.7 C 47.3 33.8 62.7 33.9 78.0 34.1 C 93.3 34.3 108.7 34.5 124.0 34.9 C 139.3 35.2 154.7 35.6 170.0 36.0 C 185.3 36.4 200.7 36.9 216.0 37.5 C 231.3 38.1 246.7 38.7 262.0 39.4 C 277.3 40.0 292.7 40.8 308.0 41.5 C 323.3 42.3 338.7 43.0 354.0 43.8 C 369.3 44.6 384.7 45.4 400.0 46.1 C 415.3 46.9 430.7 47.6 446.0 48.3 C 461.3 49.0 476.7 49.6 492.0 50.1 C 507.3 50.7 522.7 51.1 538.0 51.5 C 553.3 51.8 568.7 52.1 584.0 52.2 C 599.3 52.3 614.7 52.3 630.0 52.1 C 645.3 52.0 660.7 51.7 676.0 51.3 C 691.3 50.9 706.7 50.3 722.0 49.7 C 737.3 49.0 752.7 48.3 768.0 47.4 C 783.3 46.5 798.7 45.6 814.0 44.6 C 829.3 43.6 844.7 42.4 860.0 41.4 C 875.3 40.3 890.7 39.1 906.0 38.1 C 921.3 37.0 936.7 35.9 952.0 34.9 C 967.3 33.9 982.7 33.0 998.0 32.2 C 1013.3 31.4 1028.7 30.7 1044.0 30.1 C 1059.3 29.6 1074.7 29.1 1090.0 28.9 C 1105.3 28.7 1120.7 28.6 1136.0 28.7 C 1151.3 28.8 1166.7 29.1 1182.0 29.6 C 1197.3 30.1 1212.7 30.8 1228.0 31.6 C 1243.3 32.4 1258.7 33.4 1274.0 34.5 C 1289.3 35.7 1304.7 36.9 1320.0 38.3 C 1335.3 39.6 1350.7 41.1 1366.0 42.6 C 1381.3 44.0 1396.7 45.6 1412.0 47.1 C 1427.3 48.6 1442.7 50.2 1458.0 51.6 C 1473.3 53.0 1488.7 54.4 1504.0 55.6 C 1519.3 56.9 1534.7 58.0 1550.0 59.0 C 1565.3 60.0 1580.7 60.8 1596.0 61.4 C 1611.3 62.0 1634.3 62.4 1642.0 62.7" stroke="#F5F0E8" stroke-width="1" stroke-opacity="0.065" fill="none" stroke-linecap="round"/><path d="M -60.0 59.8 C -52.3 59.3 -29.3 57.8 -14.0 56.9 C 1.3 56.0 16.7 55.2 32.0 54.4 C 47.3 53.6 62.7 52.8 78.0 52.2 C 93.3 51.5 108.7 50.9 124.0 50.4 C 139.3 49.9 154.7 49.4 170.0 49.0 C 185.3 48.6 200.7 48.3 216.0 48.1 C 231.3 47.8 246.7 47.6 262.0 47.5 C 277.3 47.4 292.7 47.3 308.0 47.3 C 323.3 47.3 338.7 47.4 354.0 47.5 C 369.3 47.7 384.7 47.9 400.0 48.1 C 415.3 48.3 430.7 48.6 446.0 48.9 C 461.3 49.3 476.7 49.6 492.0 50.0 C 507.3 50.4 522.7 50.9 538.0 51.3 C 553.3 51.8 568.7 52.2 584.0 52.7 C 599.3 53.2 614.7 53.7 630.0 54.2 C 645.3 54.7 660.7 55.2 676.0 55.7 C 691.3 56.2 706.7 56.7 722.0 57.2 C 737.3 57.6 752.7 58.1 768.0 58.5 C 783.3 58.9 798.7 59.3 814.0 59.6 C 829.3 59.9 844.7 60.2 860.0 60.5 C 875.3 60.7 890.7 60.9 906.0 61.1 C 921.3 61.2 936.7 61.3 952.0 61.3 C 967.3 61.3 982.7 61.3 998.0 61.1 C 1013.3 61.0 1028.7 60.8 1044.0 60.5 C 1059.3 60.3 1074.7 59.9 1090.0 59.5 C 1105.3 59.1 1120.7 58.6 1136.0 58.0 C 1151.3 57.4 1166.7 56.8 1182.0 56.1 C 1197.3 55.3 1212.7 54.5 1228.0 53.6 C 1243.3 52.8 1258.7 51.8 1274.0 50.8 C 1289.3 49.7 1304.7 48.6 1320.0 47.5 C 1335.3 46.3 1350.7 45.1 1366.0 43.8 C 1381.3 42.5 1396.7 41.2 1412.0 39.8 C 1427.3 38.4 1442.7 37.0 1458.0 35.5 C 1473.3 34.0 1488.7 32.5 1504.0 30.9 C 1519.3 29.4 1534.7 27.8 1550.0 26.2 C 1565.3 24.6 1580.7 22.9 1596.0 21.3 C 1611.3 19.6 1634.3 17.2 1642.0 16.3" stroke="#F5F0E8" stroke-width="1" stroke-opacity="0.048" fill="none" stroke-linecap="round"/><path d="M -60.0 105.0 C -52.3 104.6 -29.3 103.5 -14.0 102.7 C 1.3 101.9 16.7 101.0 32.0 100.1 C 47.3 99.3 62.7 98.3 78.0 97.5 C 93.3 96.6 108.7 95.8 124.0 94.9 C 139.3 94.1 154.7 93.4 170.0 92.7 C 185.3 92.0 200.7 91.3 216.0 90.7 C 231.3 90.2 246.7 89.6 262.0 89.2 C 277.3 88.8 292.7 88.5 308.0 88.3 C 323.3 88.0 338.7 87.9 354.0 87.8 C 369.3 87.8 384.7 87.8 400.0 88.0 C 415.3 88.2 430.7 88.4 446.0 88.8 C 461.3 89.1 476.7 89.6 492.0 90.2 C 507.3 90.7 522.7 91.4 538.0 92.2 C 553.3 93.0 568.7 93.9 584.0 94.9 C 599.3 96.0 614.7 97.1 630.0 98.4 C 645.3 99.7 660.7 101.0 676.0 102.6 C 691.3 104.1 706.7 105.7 722.0 107.4 C 737.3 109.2 752.7 111.0 768.0 113.0 C 783.3 114.9 798.7 116.9 814.0 119.0 C 829.3 121.1 844.7 123.3 860.0 125.5 C 875.3 127.7 890.7 129.9 906.0 132.1 C 921.3 134.3 936.7 136.6 952.0 138.7 C 967.3 140.8 982.7 143.0 998.0 144.9 C 1013.3 146.9 1028.7 148.8 1044.0 150.5 C 1059.3 152.1 1074.7 153.7 1090.0 155.0 C 1105.3 156.3 1120.7 157.4 1136.0 158.3 C 1151.3 159.1 1166.7 159.8 1182.0 160.1 C 1197.3 160.5 1212.7 160.5 1228.0 160.4 C 1243.3 160.2 1258.7 159.7 1274.0 159.0 C 1289.3 158.3 1304.7 157.3 1320.0 156.2 C 1335.3 155.0 1350.7 153.6 1366.0 152.1 C 1381.3 150.6 1396.7 148.9 1412.0 147.1 C 1427.3 145.4 1442.7 143.4 1458.0 141.6 C 1473.3 139.8 1488.7 137.8 1504.0 136.1 C 1519.3 134.3 1534.7 132.5 1550.0 131.0 C 1565.3 129.4 1580.7 127.9 1596.0 126.8 C 1611.3 125.6 1634.3 124.4 1642.0 123.9" stroke="#C9A96E" stroke-width="1.5" stroke-opacity="0.252" fill="none" stroke-linecap="round"/><path d="M -60.0 150.8 C -52.3 150.8 -29.3 150.9 -14.0 150.7 C 1.3 150.4 16.7 150.0 32.0 149.3 C 47.3 148.6 62.7 147.6 78.0 146.5 C 93.3 145.4 108.7 144.0 124.0 142.5 C 139.3 141.0 154.7 139.3 170.0 137.6 C 185.3 135.9 200.7 134.0 216.0 132.2 C 231.3 130.4 246.7 128.4 262.0 126.6 C 277.3 124.9 292.7 123.1 308.0 121.5 C 323.3 119.9 338.7 118.4 354.0 117.1 C 369.3 115.9 384.7 114.8 400.0 114.0 C 415.3 113.2 430.7 112.6 446.0 112.3 C 461.3 112.0 476.7 112.0 492.0 112.3 C 507.3 112.6 522.7 113.2 538.0 114.0 C 553.3 114.8 568.7 115.9 584.0 117.2 C 599.3 118.4 614.7 120.0 630.0 121.6 C 645.3 123.2 660.7 125.0 676.0 126.8 C 691.3 128.6 706.7 130.6 722.0 132.4 C 737.3 134.2 752.7 136.1 768.0 137.8 C 783.3 139.4 798.7 141.1 814.0 142.4 C 829.3 143.7 844.7 144.9 860.0 145.7 C 875.3 146.6 890.7 147.2 906.0 147.5 C 921.3 147.7 936.7 147.7 952.0 147.3 C 967.3 146.9 982.7 146.1 998.0 145.1 C 1013.3 144.0 1028.7 142.6 1044.0 141.0 C 1059.3 139.3 1074.7 137.3 1090.0 135.2 C 1105.3 133.0 1120.7 130.6 1136.0 128.1 C 1151.3 125.6 1166.7 122.9 1182.0 120.2 C 1197.3 117.6 1212.7 114.8 1228.0 112.2 C 1243.3 109.5 1258.7 106.9 1274.0 104.5 C 1289.3 102.1 1304.7 99.8 1320.0 97.9 C 1335.3 95.9 1350.7 94.2 1366.0 92.8 C 1381.3 91.4 1396.7 90.3 1412.0 89.6 C 1427.3 88.9 1442.7 88.6 1458.0 88.6 C 1473.3 88.7 1488.7 89.1 1504.0 89.9 C 1519.3 90.6 1534.7 91.8 1550.0 93.2 C 1565.3 94.6 1580.7 96.4 1596.0 98.3 C 1611.3 100.3 1634.3 103.7 1642.0 104.8" stroke="#F5F0E8" stroke-width="1" stroke-opacity="0.068" fill="none" stroke-linecap="round"/><path d="M -60.0 172.1 C -52.3 172.1 -29.3 172.3 -14.0 172.2 C 1.3 172.2 16.7 172.1 32.0 171.8 C 47.3 171.6 62.7 171.3 78.0 170.9 C 93.3 170.6 108.7 170.1 124.0 169.5 C 139.3 169.0 154.7 168.3 170.0 167.6 C 185.3 166.9 200.7 166.1 216.0 165.3 C 231.3 164.5 246.7 163.6 262.0 162.7 C 277.3 161.8 292.7 160.9 308.0 159.9 C 323.3 159.0 338.7 158.0 354.0 157.1 C 369.3 156.1 384.7 155.2 400.0 154.3 C 415.3 153.4 430.7 152.5 446.0 151.7 C 461.3 150.9 476.7 150.1 492.0 149.4 C 507.3 148.7 522.7 148.1 538.0 147.5 C 553.3 147.0 568.7 146.5 584.0 146.1 C 599.3 145.7 614.7 145.4 630.0 145.2 C 645.3 145.0 660.7 144.9 676.0 144.8 C 691.3 144.7 706.7 144.8 722.0 144.8 C 737.3 144.9 752.7 145.1 768.0 145.3 C 783.3 145.4 798.7 145.7 814.0 146.0 C 829.3 146.2 844.7 146.6 860.0 146.9 C 875.3 147.2 890.7 147.5 906.0 147.8 C 921.3 148.1 936.7 148.4 952.0 148.6 C 967.3 148.9 982.7 149.1 998.0 149.2 C 1013.3 149.3 1028.7 149.4 1044.0 149.4 C 1059.3 149.4 1074.7 149.3 1090.0 149.1 C 1105.3 148.9 1120.7 148.6 1136.0 148.2 C 1151.3 147.8 1166.7 147.3 1182.0 146.6 C 1197.3 146.0 1212.7 145.3 1228.0 144.4 C 1243.3 143.6 1258.7 142.6 1274.0 141.5 C 1289.3 140.5 1304.7 139.3 1320.0 138.0 C 1335.3 136.8 1350.7 135.4 1366.0 134.0 C 1381.3 132.6 1396.7 131.0 1412.0 129.5 C 1427.3 128.0 1442.7 126.3 1458.0 124.7 C 1473.3 123.1 1488.7 121.4 1504.0 119.8 C 1519.3 118.2 1534.7 116.5 1550.0 114.9 C 1565.3 113.3 1580.7 111.7 1596.0 110.2 C 1611.3 108.6 1634.3 106.5 1642.0 105.7" stroke="#F5F0E8" stroke-width="1" stroke-opacity="0.062" fill="none" stroke-linecap="round"/><path d="M -60.0 204.9 C -52.3 206.0 -29.3 209.4 -14.0 211.5 C 1.3 213.5 16.7 215.5 32.0 217.3 C 47.3 219.1 62.7 220.7 78.0 222.1 C 93.3 223.5 108.7 224.6 124.0 225.5 C 139.3 226.4 154.7 227.0 170.0 227.4 C 185.3 227.7 200.7 227.8 216.0 227.7 C 231.3 227.5 246.7 227.1 262.0 226.5 C 277.3 225.9 292.7 225.0 308.0 224.0 C 323.3 223.0 338.7 221.8 354.0 220.5 C 369.3 219.3 384.7 217.8 400.0 216.4 C 415.3 215.0 430.7 213.5 446.0 212.1 C 461.3 210.7 476.7 209.2 492.0 208.0 C 507.3 206.7 522.7 205.5 538.0 204.5 C 553.3 203.5 568.7 202.7 584.0 202.1 C 599.3 201.5 614.7 201.0 630.0 200.9 C 645.3 200.8 660.7 200.9 676.0 201.3 C 691.3 201.6 706.7 202.3 722.0 203.2 C 737.3 204.1 752.7 205.2 768.0 206.6 C 783.3 208.0 798.7 209.6 814.0 211.4 C 829.3 213.1 844.7 215.1 860.0 217.2 C 875.3 219.3 890.7 221.5 906.0 223.8 C 921.3 226.0 936.7 228.4 952.0 230.7 C 967.3 233.0 982.7 235.3 998.0 237.5 C 1013.3 239.6 1028.7 241.8 1044.0 243.7 C 1059.3 245.7 1074.7 247.5 1090.0 249.1 C 1105.3 250.7 1120.7 252.1 1136.0 253.3 C 1151.3 254.5 1166.7 255.4 1182.0 256.1 C 1197.3 256.8 1212.7 257.3 1228.0 257.5 C 1243.3 257.7 1258.7 257.7 1274.0 257.5 C 1289.3 257.2 1304.7 256.7 1320.0 256.1 C 1335.3 255.5 1350.7 254.6 1366.0 253.7 C 1381.3 252.8 1396.7 251.7 1412.0 250.6 C 1427.3 249.5 1442.7 248.3 1458.0 247.2 C 1473.3 246.0 1488.7 244.8 1504.0 243.8 C 1519.3 242.7 1534.7 241.7 1550.0 240.8 C 1565.3 240.0 1580.7 239.2 1596.0 238.7 C 1611.3 238.1 1634.3 237.8 1642.0 237.6" stroke="#F5F0E8" stroke-width="1" stroke-opacity="0.075" fill="none" stroke-linecap="round"/><path d="M -60.0 236.1 C -52.3 235.3 -29.3 232.7 -14.0 231.3 C 1.3 229.8 16.7 228.4 32.0 227.3 C 47.3 226.1 62.7 225.0 78.0 224.2 C 93.3 223.4 108.7 222.7 124.0 222.3 C 139.3 221.8 154.7 221.6 170.0 221.5 C 185.3 221.4 200.7 221.5 216.0 221.7 C 231.3 222.0 246.7 222.4 262.0 222.9 C 277.3 223.4 292.7 224.0 308.0 224.7 C 323.3 225.4 338.7 226.2 354.0 227.0 C 369.3 227.7 384.7 228.6 400.0 229.3 C 415.3 230.0 430.7 230.8 446.0 231.4 C 461.3 232.0 476.7 232.6 492.0 233.0 C 507.3 233.4 522.7 233.8 538.0 233.9 C 553.3 234.0 568.7 234.0 584.0 233.8 C 599.3 233.6 614.7 233.2 630.0 232.6 C 645.3 232.1 660.7 231.4 676.0 230.5 C 691.3 229.6 706.7 228.5 722.0 227.3 C 737.3 226.1 752.7 224.8 768.0 223.4 C 783.3 222.0 798.7 220.4 814.0 218.9 C 829.3 217.4 844.7 215.8 860.0 214.3 C 875.3 212.7 890.7 211.1 906.0 209.7 C 921.3 208.3 936.7 206.9 952.0 205.6 C 967.3 204.4 982.7 203.3 998.0 202.4 C 1013.3 201.5 1028.7 200.7 1044.0 200.2 C 1059.3 199.7 1074.7 199.4 1090.0 199.3 C 1105.3 199.3 1120.7 199.5 1136.0 199.9 C 1151.3 200.3 1166.7 201.0 1182.0 201.9 C 1197.3 202.8 1212.7 204.0 1228.0 205.3 C 1243.3 206.6 1258.7 208.1 1274.0 209.8 C 1289.3 211.5 1304.7 213.3 1320.0 215.2 C 1335.3 217.1 1350.7 219.2 1366.0 221.2 C 1381.3 223.2 1396.7 225.4 1412.0 227.4 C 1427.3 229.4 1442.7 231.4 1458.0 233.3 C 1473.3 235.2 1488.7 237.0 1504.0 238.6 C 1519.3 240.2 1534.7 241.7 1550.0 243.0 C 1565.3 244.2 1580.7 245.3 1596.0 246.1 C 1611.3 246.9 1634.3 247.6 1642.0 247.9" stroke="#C9A96E" stroke-width="1.5" stroke-opacity="0.173" fill="none" stroke-linecap="round"/><path d="M -60.0 247.6 C -52.3 247.7 -29.3 247.9 -14.0 248.1 C 1.3 248.3 16.7 248.5 32.0 248.8 C 47.3 249.0 62.7 249.2 78.0 249.5 C 93.3 249.8 108.7 250.1 124.0 250.4 C 139.3 250.7 154.7 251.1 170.0 251.4 C 185.3 251.8 200.7 252.2 216.0 252.6 C 231.3 253.0 246.7 253.4 262.0 253.9 C 277.3 254.3 292.7 254.8 308.0 255.2 C 323.3 255.7 338.7 256.2 354.0 256.7 C 369.3 257.3 384.7 257.8 400.0 258.3 C 415.3 258.9 430.7 259.4 446.0 260.0 C 461.3 260.6 476.7 261.1 492.0 261.7 C 507.3 262.3 522.7 262.9 538.0 263.5 C 553.3 264.1 568.7 264.7 584.0 265.3 C 599.3 265.9 614.7 266.5 630.0 267.1 C 645.3 267.7 660.7 268.3 676.0 268.9 C 691.3 269.5 706.7 270.0 722.0 270.6 C 737.3 271.2 752.7 271.7 768.0 272.2 C 783.3 272.8 798.7 273.3 814.0 273.8 C 829.3 274.2 844.7 274.7 860.0 275.2 C 875.3 275.6 890.7 276.0 906.0 276.4 C 921.3 276.8 936.7 277.1 952.0 277.4 C 967.3 277.8 982.7 278.1 998.0 278.3 C 1013.3 278.6 1028.7 278.8 1044.0 279.0 C 1059.3 279.2 1074.7 279.3 1090.0 279.4 C 1105.3 279.5 1120.7 279.6 1136.0 279.6 C 1151.3 279.7 1166.7 279.7 1182.0 279.6 C 1197.3 279.6 1212.7 279.5 1228.0 279.4 C 1243.3 279.3 1258.7 279.2 1274.0 279.0 C 1289.3 278.9 1304.7 278.7 1320.0 278.4 C 1335.3 278.2 1350.7 277.9 1366.0 277.7 C 1381.3 277.4 1396.7 277.1 1412.0 276.8 C 1427.3 276.4 1442.7 276.1 1458.0 275.7 C 1473.3 275.4 1488.7 275.0 1504.0 274.6 C 1519.3 274.2 1534.7 273.8 1550.0 273.4 C 1565.3 273.0 1580.7 272.6 1596.0 272.2 C 1611.3 271.8 1634.3 271.2 1642.0 271.0" stroke="#F5F0E8" stroke-width="1" stroke-opacity="0.077" fill="none" stroke-linecap="round"/><path d="M -60.0 326.2 C -52.3 326.4 -29.3 327.5 -14.0 327.5 C 1.3 327.6 16.7 327.3 32.0 326.7 C 47.3 326.0 62.7 325.0 78.0 323.7 C 93.3 322.4 108.7 320.7 124.0 318.8 C 139.3 317.0 154.7 314.9 170.0 312.7 C 185.3 310.5 200.7 308.2 216.0 305.9 C 231.3 303.6 246.7 301.2 262.0 299.1 C 277.3 296.9 292.7 294.8 308.0 293.0 C 323.3 291.2 338.7 289.5 354.0 288.3 C 369.3 287.0 384.7 286.0 400.0 285.5 C 415.3 284.9 430.7 284.8 446.0 285.0 C 461.3 285.2 476.7 285.9 492.0 286.9 C 507.3 288.0 522.7 289.5 538.0 291.3 C 553.3 293.0 568.7 295.2 584.0 297.6 C 599.3 300.0 614.7 302.7 630.0 305.5 C 645.3 308.3 660.7 311.3 676.0 314.2 C 691.3 317.2 706.7 320.2 722.0 323.1 C 737.3 325.9 752.7 328.7 768.0 331.2 C 783.3 333.7 798.7 336.0 814.0 337.9 C 829.3 339.8 844.7 341.4 860.0 342.6 C 875.3 343.7 890.7 344.4 906.0 344.7 C 921.3 345.0 936.7 344.8 952.0 344.2 C 967.3 343.5 982.7 342.4 998.0 341.0 C 1013.3 339.5 1028.7 337.6 1044.0 335.4 C 1059.3 333.2 1074.7 330.6 1090.0 328.0 C 1105.3 325.3 1120.7 322.3 1136.0 319.4 C 1151.3 316.4 1166.7 313.3 1182.0 310.4 C 1197.3 307.6 1212.7 304.6 1228.0 302.1 C 1243.3 299.5 1258.7 297.0 1274.0 295.1 C 1289.3 293.1 1304.7 291.3 1320.0 290.2 C 1335.3 289.0 1350.7 288.2 1366.0 287.9 C 1381.3 287.7 1396.7 287.9 1412.0 288.7 C 1427.3 289.5 1442.7 290.8 1458.0 292.6 C 1473.3 294.3 1488.7 296.6 1504.0 299.3 C 1519.3 302.0 1534.7 305.1 1550.0 308.5 C 1565.3 311.8 1580.7 315.6 1596.0 319.5 C 1611.3 323.3 1634.3 329.5 1642.0 331.5" stroke="#F5F0E8" stroke-width="1" stroke-opacity="0.063" fill="none" stroke-linecap="round"/><path d="M -60.0 328.5 C -52.3 328.7 -29.3 329.3 -14.0 329.7 C 1.3 330.1 16.7 330.6 32.0 331.0 C 47.3 331.5 62.7 332.0 78.0 332.5 C 93.3 332.9 108.7 333.4 124.0 333.8 C 139.3 334.2 154.7 334.5 170.0 334.8 C 185.3 335.1 200.7 335.3 216.0 335.4 C 231.3 335.5 246.7 335.6 262.0 335.5 C 277.3 335.4 292.7 335.3 308.0 335.0 C 323.3 334.7 338.7 334.3 354.0 333.8 C 369.3 333.3 384.7 332.7 400.0 332.1 C 415.3 331.4 430.7 330.6 446.0 329.8 C 461.3 329.0 476.7 328.1 492.0 327.2 C 507.3 326.3 522.7 325.3 538.0 324.4 C 553.3 323.4 568.7 322.5 584.0 321.6 C 599.3 320.7 614.7 319.8 630.0 319.0 C 645.3 318.3 660.7 317.5 676.0 317.0 C 691.3 316.4 706.7 315.9 722.0 315.5 C 737.3 315.2 752.7 315.0 768.0 314.9 C 783.3 314.9 798.7 315.0 814.0 315.2 C 829.3 315.5 844.7 315.9 860.0 316.5 C 875.3 317.1 890.7 317.8 906.0 318.7 C 921.3 319.5 936.7 320.6 952.0 321.7 C 967.3 322.8 982.7 324.1 998.0 325.4 C 1013.3 326.7 1028.7 328.1 1044.0 329.6 C 1059.3 331.0 1074.7 332.5 1090.0 334.0 C 1105.3 335.4 1120.7 336.9 1136.0 338.4 C 1151.3 339.8 1166.7 341.2 1182.0 342.4 C 1197.3 343.7 1212.7 344.9 1228.0 346.0 C 1243.3 347.1 1258.7 348.0 1274.0 348.8 C 1289.3 349.6 1304.7 350.3 1320.0 350.7 C 1335.3 351.2 1350.7 351.5 1366.0 351.6 C 1381.3 351.8 1396.7 351.7 1412.0 351.5 C 1427.3 351.3 1442.7 350.9 1458.0 350.4 C 1473.3 349.9 1488.7 349.2 1504.0 348.4 C 1519.3 347.6 1534.7 346.7 1550.0 345.7 C 1565.3 344.7 1580.7 343.6 1596.0 342.5 C 1611.3 341.4 1634.3 339.6 1642.0 339.0" stroke="#F5F0E8" stroke-width="1" stroke-opacity="0.062" fill="none" stroke-linecap="round"/><path d="M -60.0 336.0 C -52.3 335.5 -29.3 333.9 -14.0 333.2 C 1.3 332.5 16.7 332.0 32.0 331.8 C 47.3 331.5 62.7 331.5 78.0 331.7 C 93.3 331.9 108.7 332.4 124.0 333.0 C 139.3 333.6 154.7 334.5 170.0 335.4 C 185.3 336.4 200.7 337.6 216.0 338.9 C 231.3 340.1 246.7 341.6 262.0 343.0 C 277.3 344.5 292.7 346.1 308.0 347.7 C 323.3 349.3 338.7 351.0 354.0 352.7 C 369.3 354.3 384.7 356.0 400.0 357.7 C 415.3 359.3 430.7 360.9 446.0 362.4 C 461.3 363.9 476.7 365.3 492.0 366.6 C 507.3 367.9 522.7 369.2 538.0 370.3 C 553.3 371.4 568.7 372.3 584.0 373.2 C 599.3 374.0 614.7 374.7 630.0 375.3 C 645.3 375.9 660.7 376.3 676.0 376.6 C 691.3 376.9 706.7 377.1 722.0 377.2 C 737.3 377.3 752.7 377.3 768.0 377.2 C 783.3 377.1 798.7 376.9 814.0 376.7 C 829.3 376.5 844.7 376.2 860.0 375.9 C 875.3 375.6 890.7 375.3 906.0 375.0 C 921.3 374.8 936.7 374.5 952.0 374.3 C 967.3 374.2 982.7 374.0 998.0 374.0 C 1013.3 374.0 1028.7 374.0 1044.0 374.2 C 1059.3 374.4 1074.7 374.8 1090.0 375.2 C 1105.3 375.7 1120.7 376.3 1136.0 377.1 C 1151.3 377.9 1166.7 378.8 1182.0 379.9 C 1197.3 381.0 1212.7 382.3 1228.0 383.7 C 1243.3 385.2 1258.7 386.8 1274.0 388.5 C 1289.3 390.3 1304.7 392.2 1320.0 394.2 C 1335.3 396.2 1350.7 398.4 1366.0 400.6 C 1381.3 402.9 1396.7 405.2 1412.0 407.6 C 1427.3 410.0 1442.7 412.5 1458.0 415.0 C 1473.3 417.5 1488.7 420.1 1504.0 422.6 C 1519.3 425.1 1534.7 427.6 1550.0 430.0 C 1565.3 432.5 1580.7 434.9 1596.0 437.2 C 1611.3 439.5 1634.3 442.7 1642.0 443.8" stroke="#C9A96E" stroke-width="1.5" stroke-opacity="0.216" fill="none" stroke-linecap="round"/><path d="M -60.0 394.8 C -52.3 394.1 -29.3 392.0 -14.0 390.6 C 1.3 389.2 16.7 387.8 32.0 386.5 C 47.3 385.1 62.7 383.8 78.0 382.6 C 93.3 381.4 108.7 380.2 124.0 379.2 C 139.3 378.2 154.7 377.3 170.0 376.5 C 185.3 375.8 200.7 375.1 216.0 374.7 C 231.3 374.2 246.7 373.9 262.0 373.8 C 277.3 373.7 292.7 373.8 308.0 374.0 C 323.3 374.3 338.7 374.7 354.0 375.3 C 369.3 376.0 384.7 376.8 400.0 377.8 C 415.3 378.8 430.7 380.0 446.0 381.3 C 461.3 382.6 476.7 384.2 492.0 385.8 C 507.3 387.5 522.7 389.3 538.0 391.2 C 553.3 393.1 568.7 395.1 584.0 397.2 C 599.3 399.3 614.7 401.5 630.0 403.7 C 645.3 406.0 660.7 408.3 676.0 410.5 C 691.3 412.8 706.7 415.1 722.0 417.4 C 737.3 419.6 752.7 421.9 768.0 424.0 C 783.3 426.1 798.7 428.2 814.0 430.2 C 829.3 432.2 844.7 434.1 860.0 435.8 C 875.3 437.5 890.7 439.2 906.0 440.6 C 921.3 442.0 936.7 443.3 952.0 444.4 C 967.3 445.6 982.7 446.5 998.0 447.2 C 1013.3 448.0 1028.7 448.5 1044.0 448.9 C 1059.3 449.2 1074.7 449.4 1090.0 449.4 C 1105.3 449.3 1120.7 449.1 1136.0 448.7 C 1151.3 448.3 1166.7 447.7 1182.0 447.0 C 1197.3 446.2 1212.7 445.3 1228.0 444.3 C 1243.3 443.2 1258.7 442.0 1274.0 440.7 C 1289.3 439.4 1304.7 438.0 1320.0 436.5 C 1335.3 435.0 1350.7 433.4 1366.0 431.8 C 1381.3 430.1 1396.7 428.4 1412.0 426.7 C 1427.3 425.0 1442.7 423.3 1458.0 421.6 C 1473.3 419.9 1488.7 418.1 1504.0 416.5 C 1519.3 414.8 1534.7 413.2 1550.0 411.7 C 1565.3 410.2 1580.7 408.7 1596.0 407.3 C 1611.3 405.9 1634.3 404.1 1642.0 403.5" stroke="#F5F0E8" stroke-width="1" stroke-opacity="0.079" fill="none" stroke-linecap="round"/><path d="M -60.0 429.9 C -52.3 430.3 -29.3 431.2 -14.0 431.9 C 1.3 432.6 16.7 433.3 32.0 433.9 C 47.3 434.6 62.7 435.3 78.0 435.9 C 93.3 436.6 108.7 437.2 124.0 437.7 C 139.3 438.2 154.7 438.7 170.0 439.2 C 185.3 439.6 200.7 439.9 216.0 440.2 C 231.3 440.4 246.7 440.6 262.0 440.7 C 277.3 440.8 292.7 440.7 308.0 440.7 C 323.3 440.6 338.7 440.4 354.0 440.1 C 369.3 439.8 384.7 439.5 400.0 439.1 C 415.3 438.7 430.7 438.2 446.0 437.7 C 461.3 437.2 476.7 436.6 492.0 436.1 C 507.3 435.5 522.7 434.9 538.0 434.3 C 553.3 433.7 568.7 433.1 584.0 432.6 C 599.3 432.0 614.7 431.5 630.0 431.0 C 645.3 430.5 660.7 430.1 676.0 429.7 C 691.3 429.4 706.7 429.1 722.0 428.9 C 737.3 428.6 752.7 428.5 768.0 428.4 C 783.3 428.4 798.7 428.4 814.0 428.5 C 829.3 428.6 844.7 428.8 860.0 429.1 C 875.3 429.3 890.7 429.7 906.0 430.1 C 921.3 430.5 936.7 431.0 952.0 431.5 C 967.3 432.0 982.7 432.6 998.0 433.2 C 1013.3 433.7 1028.7 434.4 1044.0 435.0 C 1059.3 435.6 1074.7 436.2 1090.0 436.8 C 1105.3 437.3 1120.7 437.9 1136.0 438.4 C 1151.3 438.9 1166.7 439.4 1182.0 439.8 C 1197.3 440.2 1212.7 440.6 1228.0 440.9 C 1243.3 441.1 1258.7 441.4 1274.0 441.5 C 1289.3 441.6 1304.7 441.6 1320.0 441.6 C 1335.3 441.6 1350.7 441.4 1366.0 441.2 C 1381.3 441.0 1396.7 440.8 1412.0 440.4 C 1427.3 440.1 1442.7 439.7 1458.0 439.3 C 1473.3 438.8 1488.7 438.3 1504.0 437.8 C 1519.3 437.3 1534.7 436.7 1550.0 436.2 C 1565.3 435.6 1580.7 435.1 1596.0 434.5 C 1611.3 434.0 1634.3 433.3 1642.0 433.0" stroke="#F5F0E8" stroke-width="1" stroke-opacity="0.061" fill="none" stroke-linecap="round"/><path d="M -60.0 479.0 C -52.3 478.3 -29.3 476.2 -14.0 474.7 C 1.3 473.1 16.7 471.4 32.0 469.7 C 47.3 468.0 62.7 466.1 78.0 464.3 C 93.3 462.5 108.7 460.6 124.0 458.8 C 139.3 457.1 154.7 455.3 170.0 453.6 C 185.3 452.0 200.7 450.4 216.0 448.9 C 231.3 447.5 246.7 446.2 262.0 445.1 C 277.3 443.9 292.7 443.0 308.0 442.2 C 323.3 441.4 338.7 440.9 354.0 440.5 C 369.3 440.1 384.7 439.9 400.0 439.9 C 415.3 439.9 430.7 440.0 446.0 440.4 C 461.3 440.7 476.7 441.2 492.0 441.7 C 507.3 442.3 522.7 443.1 538.0 443.8 C 553.3 444.6 568.7 445.5 584.0 446.3 C 599.3 447.2 614.7 448.1 630.0 448.9 C 645.3 449.8 660.7 450.6 676.0 451.4 C 691.3 452.2 706.7 452.9 722.0 453.5 C 737.3 454.1 752.7 454.6 768.0 455.0 C 783.3 455.4 798.7 455.7 814.0 455.8 C 829.3 456.0 844.7 456.0 860.0 456.0 C 875.3 455.9 890.7 455.8 906.0 455.5 C 921.3 455.3 936.7 454.9 952.0 454.5 C 967.3 454.1 982.7 453.6 998.0 453.2 C 1013.3 452.7 1028.7 452.2 1044.0 451.7 C 1059.3 451.3 1074.7 450.8 1090.0 450.4 C 1105.3 450.0 1120.7 449.6 1136.0 449.3 C 1151.3 449.0 1166.7 448.7 1182.0 448.6 C 1197.3 448.4 1212.7 448.3 1228.0 448.4 C 1243.3 448.4 1258.7 448.5 1274.0 448.6 C 1289.3 448.8 1304.7 449.0 1320.0 449.3 C 1335.3 449.6 1350.7 449.9 1366.0 450.3 C 1381.3 450.6 1396.7 451.0 1412.0 451.3 C 1427.3 451.7 1442.7 452.0 1458.0 452.3 C 1473.3 452.6 1488.7 452.8 1504.0 452.9 C 1519.3 453.0 1534.7 453.1 1550.0 453.0 C 1565.3 452.9 1580.7 452.7 1596.0 452.4 C 1611.3 452.0 1634.3 451.2 1642.0 451.0" stroke="#F5F0E8" stroke-width="1" stroke-opacity="0.052" fill="none" stroke-linecap="round"/><path d="M -60.0 499.5 C -52.3 499.2 -29.3 498.2 -14.0 497.6 C 1.3 497.1 16.7 496.7 32.0 496.4 C 47.3 496.1 62.7 495.9 78.0 495.8 C 93.3 495.7 108.7 495.7 124.0 495.8 C 139.3 495.9 154.7 496.0 170.0 496.2 C 185.3 496.4 200.7 496.7 216.0 496.9 C 231.3 497.2 246.7 497.5 262.0 497.7 C 277.3 497.9 292.7 498.0 308.0 498.1 C 323.3 498.2 338.7 498.2 354.0 498.0 C 369.3 497.9 384.7 497.6 400.0 497.2 C 415.3 496.8 430.7 496.3 446.0 495.6 C 461.3 494.9 476.7 494.1 492.0 493.1 C 507.3 492.1 522.7 491.0 538.0 489.8 C 553.3 488.6 568.7 487.3 584.0 486.0 C 599.3 484.7 614.7 483.2 630.0 481.9 C 645.3 480.5 660.7 479.1 676.0 477.8 C 691.3 476.5 706.7 475.3 722.0 474.2 C 737.3 473.2 752.7 472.2 768.0 471.4 C 783.3 470.7 798.7 470.1 814.0 469.7 C 829.3 469.4 844.7 469.2 860.0 469.3 C 875.3 469.4 890.7 469.8 906.0 470.3 C 921.3 470.9 936.7 471.7 952.0 472.6 C 967.3 473.5 982.7 474.7 998.0 475.9 C 1013.3 477.2 1028.7 478.6 1044.0 480.0 C 1059.3 481.4 1074.7 483.0 1090.0 484.4 C 1105.3 485.8 1120.7 487.3 1136.0 488.5 C 1151.3 489.8 1166.7 491.0 1182.0 491.9 C 1197.3 492.8 1212.7 493.6 1228.0 494.1 C 1243.3 494.5 1258.7 494.7 1274.0 494.6 C 1289.3 494.5 1304.7 494.1 1320.0 493.4 C 1335.3 492.6 1350.7 491.5 1366.0 490.2 C 1381.3 488.8 1396.7 487.1 1412.0 485.2 C 1427.3 483.3 1442.7 481.1 1458.0 478.8 C 1473.3 476.4 1488.7 473.9 1504.0 471.3 C 1519.3 468.7 1534.7 466.0 1550.0 463.3 C 1565.3 460.7 1580.7 458.0 1596.0 455.6 C 1611.3 453.1 1634.3 449.8 1642.0 448.6" stroke="#C9A96E" stroke-width="1.5" stroke-opacity="0.242" fill="none" stroke-linecap="round"/><path d="M -60.0 525.6 C -52.3 525.2 -29.3 524.0 -14.0 523.2 C 1.3 522.4 16.7 521.5 32.0 520.7 C 47.3 519.9 62.7 519.0 78.0 518.4 C 93.3 517.7 108.7 517.1 124.0 516.7 C 139.3 516.4 154.7 516.1 170.0 516.1 C 185.3 516.1 200.7 516.3 216.0 516.7 C 231.3 517.2 246.7 517.9 262.0 518.8 C 277.3 519.8 292.7 521.0 308.0 522.4 C 323.3 523.8 338.7 525.5 354.0 527.3 C 369.3 529.1 384.7 531.2 400.0 533.3 C 415.3 535.4 430.7 537.7 446.0 540.0 C 461.3 542.2 476.7 544.6 492.0 546.8 C 507.3 549.0 522.7 551.3 538.0 553.3 C 553.3 555.2 568.7 557.1 584.0 558.7 C 599.3 560.3 614.7 561.7 630.0 562.7 C 645.3 563.7 660.7 564.4 676.0 564.7 C 691.3 565.1 706.7 565.0 722.0 564.6 C 737.3 564.2 752.7 563.4 768.0 562.2 C 783.3 561.0 798.7 559.4 814.0 557.6 C 829.3 555.7 844.7 553.5 860.0 551.0 C 875.3 548.6 890.7 545.9 906.0 543.0 C 921.3 540.2 936.7 537.1 952.0 534.1 C 967.3 531.1 982.7 528.0 998.0 525.0 C 1013.3 522.1 1028.7 519.1 1044.0 516.3 C 1059.3 513.6 1074.7 511.0 1090.0 508.8 C 1105.3 506.5 1120.7 504.5 1136.0 502.8 C 1151.3 501.2 1166.7 499.9 1182.0 499.0 C 1197.3 498.1 1212.7 497.5 1228.0 497.4 C 1243.3 497.2 1258.7 497.5 1274.0 498.1 C 1289.3 498.7 1304.7 499.7 1320.0 500.9 C 1335.3 502.1 1350.7 503.7 1366.0 505.4 C 1381.3 507.2 1396.7 509.2 1412.0 511.2 C 1427.3 513.3 1442.7 515.5 1458.0 517.7 C 1473.3 519.8 1488.7 522.1 1504.0 524.1 C 1519.3 526.1 1534.7 528.2 1550.0 529.9 C 1565.3 531.7 1580.7 533.3 1596.0 534.6 C 1611.3 535.9 1634.3 537.3 1642.0 537.8" stroke="#F5F0E8" stroke-width="1" stroke-opacity="0.069" fill="none" stroke-linecap="round"/><path d="M -60.0 560.8 C -52.3 560.7 -29.3 560.1 -14.0 559.8 C 1.3 559.6 16.7 559.6 32.0 559.5 C 47.3 559.4 62.7 559.5 78.0 559.4 C 93.3 559.4 108.7 559.4 124.0 559.3 C 139.3 559.2 154.7 559.0 170.0 558.7 C 185.3 558.4 200.7 558.0 216.0 557.4 C 231.3 556.9 246.7 556.1 262.0 555.3 C 277.3 554.5 292.7 553.4 308.0 552.3 C 323.3 551.2 338.7 550.0 354.0 548.7 C 369.3 547.4 384.7 546.0 400.0 544.7 C 415.3 543.3 430.7 541.9 446.0 540.6 C 461.3 539.3 476.7 538.1 492.0 537.0 C 507.3 536.0 522.7 535.0 538.0 534.3 C 553.3 533.6 568.7 533.1 584.0 532.9 C 599.3 532.7 614.7 532.7 630.0 533.1 C 645.3 533.4 660.7 534.0 676.0 534.9 C 691.3 535.8 706.7 537.0 722.0 538.4 C 737.3 539.7 752.7 541.4 768.0 543.1 C 783.3 544.8 798.7 546.8 814.0 548.7 C 829.3 550.6 844.7 552.7 860.0 554.6 C 875.3 556.5 890.7 558.4 906.0 560.1 C 921.3 561.7 936.7 563.2 952.0 564.4 C 967.3 565.5 982.7 566.5 998.0 567.0 C 1013.3 567.5 1028.7 567.6 1044.0 567.3 C 1059.3 567.0 1074.7 566.2 1090.0 565.1 C 1105.3 563.9 1120.7 562.2 1136.0 560.2 C 1151.3 558.1 1166.7 555.6 1182.0 552.8 C 1197.3 550.0 1212.7 546.8 1228.0 543.4 C 1243.3 540.1 1258.7 536.3 1274.0 532.7 C 1289.3 529.0 1304.7 525.0 1320.0 521.3 C 1335.3 517.6 1350.7 513.7 1366.0 510.3 C 1381.3 506.8 1396.7 503.4 1412.0 500.4 C 1427.3 497.5 1442.7 494.7 1458.0 492.6 C 1473.3 490.4 1488.7 488.6 1504.0 487.3 C 1519.3 486.1 1534.7 485.3 1550.0 485.1 C 1565.3 484.8 1580.7 485.1 1596.0 485.9 C 1611.3 486.7 1634.3 489.0 1642.0 489.6" stroke="#F5F0E8" stroke-width="1" stroke-opacity="0.058" fill="none" stroke-linecap="round"/><path d="M -60.0 621.9 C -52.3 621.9 -29.3 621.8 -14.0 621.6 C 1.3 621.4 16.7 621.1 32.0 620.8 C 47.3 620.5 62.7 620.0 78.0 619.6 C 93.3 619.1 108.7 618.5 124.0 617.9 C 139.3 617.3 154.7 616.6 170.0 615.8 C 185.3 615.1 200.7 614.3 216.0 613.4 C 231.3 612.5 246.7 611.6 262.0 610.6 C 277.3 609.6 292.7 608.6 308.0 607.6 C 323.3 606.5 338.7 605.4 354.0 604.3 C 369.3 603.1 384.7 602.0 400.0 600.8 C 415.3 599.6 430.7 598.4 446.0 597.2 C 461.3 596.0 476.7 594.8 492.0 593.6 C 507.3 592.4 522.7 591.2 538.0 590.0 C 553.3 588.8 568.7 587.6 584.0 586.4 C 599.3 585.3 614.7 584.1 630.0 583.0 C 645.3 582.0 660.7 580.9 676.0 579.9 C 691.3 578.9 706.7 577.9 722.0 577.0 C 737.3 576.1 752.7 575.2 768.0 574.4 C 783.3 573.6 798.7 572.9 814.0 572.2 C 829.3 571.6 844.7 571.0 860.0 570.4 C 875.3 569.9 890.7 569.5 906.0 569.1 C 921.3 568.8 936.7 568.5 952.0 568.3 C 967.3 568.1 982.7 568.0 998.0 568.0 C 1013.3 568.0 1028.7 568.0 1044.0 568.2 C 1059.3 568.3 1074.7 568.6 1090.0 568.9 C 1105.3 569.2 1120.7 569.6 1136.0 570.1 C 1151.3 570.6 1166.7 571.2 1182.0 571.8 C 1197.3 572.5 1212.7 573.2 1228.0 574.0 C 1243.3 574.8 1258.7 575.7 1274.0 576.6 C 1289.3 577.6 1304.7 578.6 1320.0 579.6 C 1335.3 580.7 1350.7 581.8 1366.0 583.0 C 1381.3 584.2 1396.7 585.4 1412.0 586.6 C 1427.3 587.9 1442.7 589.2 1458.0 590.5 C 1473.3 591.8 1488.7 593.2 1504.0 594.5 C 1519.3 595.9 1534.7 597.3 1550.0 598.6 C 1565.3 600.0 1580.7 601.4 1596.0 602.8 C 1611.3 604.2 1634.3 606.2 1642.0 606.9" stroke="#F5F0E8" stroke-width="1" stroke-opacity="0.069" fill="none" stroke-linecap="round"/><path d="M -60.0 616.3 C -52.3 616.6 -29.3 617.5 -14.0 618.2 C 1.3 618.9 16.7 619.7 32.0 620.5 C 47.3 621.3 62.7 622.2 78.0 623.1 C 93.3 624.0 108.7 624.9 124.0 625.9 C 139.3 626.9 154.7 628.0 170.0 629.0 C 185.3 630.1 200.7 631.2 216.0 632.3 C 231.3 633.4 246.7 634.6 262.0 635.7 C 277.3 636.8 292.7 638.0 308.0 639.2 C 323.3 640.3 338.7 641.5 354.0 642.6 C 369.3 643.7 384.7 644.9 400.0 646.0 C 415.3 647.1 430.7 648.2 446.0 649.2 C 461.3 650.3 476.7 651.3 492.0 652.3 C 507.3 653.3 522.7 654.2 538.0 655.1 C 553.3 656.0 568.7 656.8 584.0 657.6 C 599.3 658.4 614.7 659.1 630.0 659.8 C 645.3 660.5 660.7 661.1 676.0 661.6 C 691.3 662.2 706.7 662.7 722.0 663.1 C 737.3 663.5 752.7 663.9 768.0 664.2 C 783.3 664.4 798.7 664.7 814.0 664.9 C 829.3 665.0 844.7 665.1 860.0 665.2 C 875.3 665.3 890.7 665.3 906.0 665.2 C 921.3 665.2 936.7 665.1 952.0 665.0 C 967.3 664.9 982.7 664.7 998.0 664.5 C 1013.3 664.4 1028.7 664.1 1044.0 663.9 C 1059.3 663.7 1074.7 663.4 1090.0 663.2 C 1105.3 663.0 1120.7 662.7 1136.0 662.5 C 1151.3 662.2 1166.7 662.0 1182.0 661.8 C 1197.3 661.5 1212.7 661.3 1228.0 661.2 C 1243.3 661.0 1258.7 660.9 1274.0 660.8 C 1289.3 660.7 1304.7 660.6 1320.0 660.6 C 1335.3 660.7 1350.7 660.7 1366.0 660.8 C 1381.3 660.9 1396.7 661.1 1412.0 661.3 C 1427.3 661.6 1442.7 661.9 1458.0 662.3 C 1473.3 662.6 1488.7 663.1 1504.0 663.6 C 1519.3 664.1 1534.7 664.7 1550.0 665.4 C 1565.3 666.0 1580.7 666.8 1596.0 667.6 C 1611.3 668.4 1634.3 669.7 1642.0 670.2" stroke="#C9A96E" stroke-width="1.5" stroke-opacity="0.192" fill="none" stroke-linecap="round"/><path d="M -60.0 664.1 C -52.3 663.6 -29.3 662.2 -14.0 661.4 C 1.3 660.6 16.7 659.8 32.0 659.0 C 47.3 658.3 62.7 657.6 78.0 656.9 C 93.3 656.2 108.7 655.6 124.0 655.1 C 139.3 654.5 154.7 654.0 170.0 653.5 C 185.3 653.0 200.7 652.6 216.0 652.2 C 231.3 651.8 246.7 651.4 262.0 651.1 C 277.3 650.7 292.7 650.4 308.0 650.2 C 323.3 649.9 338.7 649.6 354.0 649.4 C 369.3 649.2 384.7 649.0 400.0 648.8 C 415.3 648.5 430.7 648.4 446.0 648.2 C 461.3 648.0 476.7 647.8 492.0 647.6 C 507.3 647.4 522.7 647.2 538.0 647.0 C 553.3 646.7 568.7 646.5 584.0 646.2 C 599.3 646.0 614.7 645.7 630.0 645.4 C 645.3 645.1 660.7 644.7 676.0 644.4 C 691.3 644.0 706.7 643.6 722.0 643.1 C 737.3 642.6 752.7 642.1 768.0 641.6 C 783.3 641.1 798.7 640.5 814.0 639.8 C 829.3 639.2 844.7 638.5 860.0 637.8 C 875.3 637.0 890.7 636.2 906.0 635.4 C 921.3 634.6 936.7 633.7 952.0 632.8 C 967.3 631.9 982.7 630.9 998.0 629.9 C 1013.3 628.9 1028.7 627.8 1044.0 626.8 C 1059.3 625.7 1074.7 624.5 1090.0 623.4 C 1105.3 622.3 1120.7 621.1 1136.0 619.9 C 1151.3 618.7 1166.7 617.5 1182.0 616.3 C 1197.3 615.0 1212.7 613.8 1228.0 612.6 C 1243.3 611.3 1258.7 610.1 1274.0 608.9 C 1289.3 607.7 1304.7 606.5 1320.0 605.3 C 1335.3 604.1 1350.7 602.9 1366.0 601.8 C 1381.3 600.7 1396.7 599.5 1412.0 598.5 C 1427.3 597.4 1442.7 596.4 1458.0 595.5 C 1473.3 594.5 1488.7 593.6 1504.0 592.7 C 1519.3 591.9 1534.7 591.1 1550.0 590.4 C 1565.3 589.7 1580.7 589.0 1596.0 588.4 C 1611.3 587.8 1634.3 587.2 1642.0 586.9" stroke="#F5F0E8" stroke-width="1" stroke-opacity="0.061" fill="none" stroke-linecap="round"/><path d="M -60.0 687.0 C -52.3 686.7 -29.3 685.7 -14.0 685.1 C 1.3 684.5 16.7 683.8 32.0 683.3 C 47.3 682.7 62.7 682.2 78.0 681.7 C 93.3 681.3 108.7 680.9 124.0 680.6 C 139.3 680.3 154.7 680.1 170.0 680.0 C 185.3 679.9 200.7 679.9 216.0 680.0 C 231.3 680.2 246.7 680.4 262.0 680.8 C 277.3 681.2 292.7 681.7 308.0 682.3 C 323.3 682.9 338.7 683.7 354.0 684.5 C 369.3 685.4 384.7 686.3 400.0 687.4 C 415.3 688.4 430.7 689.6 446.0 690.8 C 461.3 692.0 476.7 693.3 492.0 694.6 C 507.3 695.9 522.7 697.3 538.0 698.6 C 553.3 700.0 568.7 701.4 584.0 702.7 C 599.3 704.1 614.7 705.4 630.0 706.7 C 645.3 707.9 660.7 709.1 676.0 710.2 C 691.3 711.3 706.7 712.3 722.0 713.2 C 737.3 714.1 752.7 714.8 768.0 715.4 C 783.3 716.0 798.7 716.5 814.0 716.8 C 829.3 717.1 844.7 717.2 860.0 717.1 C 875.3 717.1 890.7 716.8 906.0 716.4 C 921.3 716.0 936.7 715.4 952.0 714.6 C 967.3 713.9 982.7 712.9 998.0 711.8 C 1013.3 710.7 1028.7 709.4 1044.0 708.0 C 1059.3 706.7 1074.7 705.1 1090.0 703.5 C 1105.3 701.8 1120.7 700.1 1136.0 698.3 C 1151.3 696.4 1166.7 694.5 1182.0 692.6 C 1197.3 690.7 1212.7 688.7 1228.0 686.8 C 1243.3 684.8 1258.7 682.8 1274.0 680.9 C 1289.3 679.0 1304.7 677.1 1320.0 675.3 C 1335.3 673.6 1350.7 671.8 1366.0 670.2 C 1381.3 668.6 1396.7 667.1 1412.0 665.8 C 1427.3 664.4 1442.7 663.2 1458.0 662.1 C 1473.3 661.1 1488.7 660.2 1504.0 659.4 C 1519.3 658.7 1534.7 658.1 1550.0 657.7 C 1565.3 657.2 1580.7 657.0 1596.0 656.9 C 1611.3 656.8 1634.3 657.1 1642.0 657.1" stroke="#F5F0E8" stroke-width="1" stroke-opacity="0.081" fill="none" stroke-linecap="round"/><path d="M -60.0 725.1 C -52.3 724.5 -29.3 722.6 -14.0 721.3 C 1.3 720.1 16.7 718.8 32.0 717.6 C 47.3 716.5 62.7 715.3 78.0 714.2 C 93.3 713.1 108.7 712.1 124.0 711.1 C 139.3 710.1 154.7 709.2 170.0 708.3 C 185.3 707.5 200.7 706.7 216.0 706.0 C 231.3 705.3 246.7 704.6 262.0 704.1 C 277.3 703.5 292.7 703.1 308.0 702.7 C 323.3 702.3 338.7 702.0 354.0 701.8 C 369.3 701.6 384.7 701.5 400.0 701.4 C 415.3 701.4 430.7 701.4 446.0 701.6 C 461.3 701.7 476.7 701.9 492.0 702.2 C 507.3 702.5 522.7 702.9 538.0 703.4 C 553.3 703.8 568.7 704.4 584.0 705.0 C 599.3 705.6 614.7 706.3 630.0 707.0 C 645.3 707.7 660.7 708.5 676.0 709.4 C 691.3 710.2 706.7 711.1 722.0 712.1 C 737.3 713.0 752.7 714.0 768.0 715.0 C 783.3 716.0 798.7 717.1 814.0 718.1 C 829.3 719.2 844.7 720.3 860.0 721.3 C 875.3 722.4 890.7 723.5 906.0 724.6 C 921.3 725.7 936.7 726.8 952.0 727.8 C 967.3 728.9 982.7 729.9 998.0 730.9 C 1013.3 731.9 1028.7 732.9 1044.0 733.8 C 1059.3 734.8 1074.7 735.7 1090.0 736.5 C 1105.3 737.4 1120.7 738.2 1136.0 738.9 C 1151.3 739.6 1166.7 740.3 1182.0 740.9 C 1197.3 741.5 1212.7 742.1 1228.0 742.6 C 1243.3 743.0 1258.7 743.4 1274.0 743.8 C 1289.3 744.1 1304.7 744.4 1320.0 744.5 C 1335.3 744.7 1350.7 744.8 1366.0 744.8 C 1381.3 744.8 1396.7 744.8 1412.0 744.6 C 1427.3 744.5 1442.7 744.3 1458.0 744.0 C 1473.3 743.7 1488.7 743.3 1504.0 742.9 C 1519.3 742.4 1534.7 741.9 1550.0 741.4 C 1565.3 740.8 1580.7 740.1 1596.0 739.4 C 1611.3 738.7 1634.3 737.5 1642.0 737.1" stroke="#F5F0E8" stroke-width="1" stroke-opacity="0.085" fill="none" stroke-linecap="round"/><path d="M -60.0 742.9 C -52.3 742.3 -29.3 740.3 -14.0 739.2 C 1.3 738.2 16.7 737.4 32.0 736.8 C 47.3 736.2 62.7 735.9 78.0 735.8 C 93.3 735.7 108.7 735.8 124.0 736.3 C 139.3 736.7 154.7 737.4 170.0 738.3 C 185.3 739.2 200.7 740.3 216.0 741.6 C 231.3 742.9 246.7 744.5 262.0 746.1 C 277.3 747.7 292.7 749.5 308.0 751.3 C 323.3 753.0 338.7 755.0 354.0 756.8 C 369.3 758.6 384.7 760.4 400.0 762.1 C 415.3 763.8 430.7 765.5 446.0 766.9 C 461.3 768.3 476.7 769.6 492.0 770.7 C 507.3 771.7 522.7 772.5 538.0 773.1 C 553.3 773.6 568.7 773.9 584.0 773.9 C 599.3 773.9 614.7 773.6 630.0 773.0 C 645.3 772.5 660.7 771.6 676.0 770.5 C 691.3 769.3 706.7 767.9 722.0 766.3 C 737.3 764.7 752.7 762.8 768.0 760.9 C 783.3 758.9 798.7 756.7 814.0 754.4 C 829.3 752.2 844.7 749.8 860.0 747.4 C 875.3 745.1 890.7 742.6 906.0 740.3 C 921.3 738.0 936.7 735.6 952.0 733.5 C 967.3 731.3 982.7 729.2 998.0 727.3 C 1013.3 725.4 1028.7 723.7 1044.0 722.1 C 1059.3 720.6 1074.7 719.3 1090.0 718.2 C 1105.3 717.1 1120.7 716.2 1136.0 715.5 C 1151.3 714.8 1166.7 714.4 1182.0 714.1 C 1197.3 713.8 1212.7 713.8 1228.0 713.9 C 1243.3 714.0 1258.7 714.2 1274.0 714.6 C 1289.3 714.9 1304.7 715.4 1320.0 715.9 C 1335.3 716.5 1350.7 717.1 1366.0 717.6 C 1381.3 718.2 1396.7 718.8 1412.0 719.3 C 1427.3 719.9 1442.7 720.4 1458.0 720.7 C 1473.3 721.1 1488.7 721.4 1504.0 721.6 C 1519.3 721.8 1534.7 721.8 1550.0 721.7 C 1565.3 721.6 1580.7 721.4 1596.0 721.1 C 1611.3 720.7 1634.3 719.9 1642.0 719.6" stroke="#C9A96E" stroke-width="1.5" stroke-opacity="0.265" fill="none" stroke-linecap="round"/><path d="M -60.0 793.8 C -52.3 794.0 -29.3 794.8 -14.0 795.4 C 1.3 796.0 16.7 796.8 32.0 797.5 C 47.3 798.3 62.7 799.1 78.0 799.8 C 93.3 800.6 108.7 801.4 124.0 802.0 C 139.3 802.7 154.7 803.3 170.0 803.8 C 185.3 804.2 200.7 804.6 216.0 804.7 C 231.3 804.8 246.7 804.9 262.0 804.6 C 277.3 804.4 292.7 804.0 308.0 803.3 C 323.3 802.7 338.7 801.8 354.0 800.8 C 369.3 799.7 384.7 798.4 400.0 797.0 C 415.3 795.5 430.7 793.9 446.0 792.1 C 461.3 790.3 476.7 788.4 492.0 786.4 C 507.3 784.4 522.7 782.2 538.0 780.1 C 553.3 778.0 568.7 775.9 584.0 773.8 C 599.3 771.7 614.7 769.6 630.0 767.7 C 645.3 765.8 660.7 763.9 676.0 762.2 C 691.3 760.6 706.7 759.0 722.0 757.7 C 737.3 756.4 752.7 755.3 768.0 754.4 C 783.3 753.6 798.7 752.9 814.0 752.5 C 829.3 752.1 844.7 751.9 860.0 752.0 C 875.3 752.0 890.7 752.3 906.0 752.8 C 921.3 753.2 936.7 753.9 952.0 754.7 C 967.3 755.5 982.7 756.5 998.0 757.6 C 1013.3 758.6 1028.7 759.8 1044.0 761.0 C 1059.3 762.1 1074.7 763.4 1090.0 764.5 C 1105.3 765.7 1120.7 766.9 1136.0 768.0 C 1151.3 769.1 1166.7 770.1 1182.0 771.0 C 1197.3 771.8 1212.7 772.6 1228.0 773.2 C 1243.3 773.8 1258.7 774.2 1274.0 774.5 C 1289.3 774.8 1304.7 774.9 1320.0 774.8 C 1335.3 774.7 1350.7 774.5 1366.0 774.0 C 1381.3 773.6 1396.7 773.0 1412.0 772.3 C 1427.3 771.6 1442.7 770.7 1458.0 769.8 C 1473.3 768.8 1488.7 767.7 1504.0 766.6 C 1519.3 765.5 1534.7 764.2 1550.0 763.0 C 1565.3 761.7 1580.7 760.4 1596.0 759.2 C 1611.3 757.9 1634.3 756.0 1642.0 755.4" stroke="#F5F0E8" stroke-width="1" stroke-opacity="0.066" fill="none" stroke-linecap="round"/><path d="M -60.0 835.9 C -52.3 835.2 -29.3 833.1 -14.0 831.7 C 1.3 830.4 16.7 829.1 32.0 827.8 C 47.3 826.5 62.7 825.3 78.0 824.2 C 93.3 823.1 108.7 822.0 124.0 821.0 C 139.3 820.0 154.7 819.1 170.0 818.3 C 185.3 817.4 200.7 816.7 216.0 816.0 C 231.3 815.3 246.7 814.7 262.0 814.1 C 277.3 813.5 292.7 813.0 308.0 812.5 C 323.3 812.1 338.7 811.7 354.0 811.2 C 369.3 810.8 384.7 810.5 400.0 810.1 C 415.3 809.7 430.7 809.3 446.0 808.9 C 461.3 808.5 476.7 808.1 492.0 807.6 C 507.3 807.2 522.7 806.7 538.0 806.2 C 553.3 805.6 568.7 805.0 584.0 804.4 C 599.3 803.8 614.7 803.1 630.0 802.3 C 645.3 801.6 660.7 800.8 676.0 799.9 C 691.3 799.1 706.7 798.2 722.0 797.3 C 737.3 796.3 752.7 795.4 768.0 794.4 C 783.3 793.4 798.7 792.4 814.0 791.5 C 829.3 790.5 844.7 789.5 860.0 788.5 C 875.3 787.6 890.7 786.7 906.0 785.8 C 921.3 784.9 936.7 784.1 952.0 783.4 C 967.3 782.6 982.7 782.0 998.0 781.4 C 1013.3 780.8 1028.7 780.3 1044.0 779.9 C 1059.3 779.5 1074.7 779.2 1090.0 779.1 C 1105.3 778.9 1120.7 778.8 1136.0 778.8 C 1151.3 778.9 1166.7 779.0 1182.0 779.2 C 1197.3 779.5 1212.7 779.8 1228.0 780.2 C 1243.3 780.6 1258.7 781.1 1274.0 781.6 C 1289.3 782.1 1304.7 782.7 1320.0 783.4 C 1335.3 784.0 1350.7 784.6 1366.0 785.3 C 1381.3 785.9 1396.7 786.6 1412.0 787.2 C 1427.3 787.8 1442.7 788.4 1458.0 788.9 C 1473.3 789.4 1488.7 789.9 1504.0 790.3 C 1519.3 790.6 1534.7 791.0 1550.0 791.2 C 1565.3 791.4 1580.7 791.5 1596.0 791.5 C 1611.3 791.5 1634.3 791.2 1642.0 791.1" stroke="#F5F0E8" stroke-width="1" stroke-opacity="0.058" fill="none" stroke-linecap="round"/><path d="M -60.0 851.4 C -52.3 852.3 -29.3 855.0 -14.0 856.8 C 1.3 858.6 16.7 860.4 32.0 862.2 C 47.3 864.0 62.7 865.8 78.0 867.4 C 93.3 869.0 108.7 870.6 124.0 872.0 C 139.3 873.4 154.7 874.6 170.0 875.7 C 185.3 876.7 200.7 877.6 216.0 878.3 C 231.3 878.9 246.7 879.4 262.0 879.7 C 277.3 879.9 292.7 880.0 308.0 879.9 C 323.3 879.8 338.7 879.4 354.0 879.0 C 369.3 878.6 384.7 878.0 400.0 877.3 C 415.3 876.6 430.7 875.8 446.0 874.9 C 461.3 874.1 476.7 873.2 492.0 872.3 C 507.3 871.4 522.7 870.5 538.0 869.7 C 553.3 868.9 568.7 868.1 584.0 867.5 C 599.3 866.8 614.7 866.2 630.0 865.8 C 645.3 865.4 660.7 865.0 676.0 864.9 C 691.3 864.7 706.7 864.7 722.0 864.8 C 737.3 864.9 752.7 865.1 768.0 865.5 C 783.3 865.9 798.7 866.4 814.0 866.9 C 829.3 867.5 844.7 868.1 860.0 868.8 C 875.3 869.5 890.7 870.2 906.0 870.9 C 921.3 871.6 936.7 872.3 952.0 872.9 C 967.3 873.5 982.7 874.1 998.0 874.5 C 1013.3 874.9 1028.7 875.2 1044.0 875.3 C 1059.3 875.4 1074.7 875.4 1090.0 875.2 C 1105.3 875.0 1120.7 874.6 1136.0 874.0 C 1151.3 873.4 1166.7 872.5 1182.0 871.6 C 1197.3 870.6 1212.7 869.4 1228.0 868.0 C 1243.3 866.7 1258.7 865.1 1274.0 863.5 C 1289.3 861.9 1304.7 860.1 1320.0 858.3 C 1335.3 856.5 1350.7 854.5 1366.0 852.6 C 1381.3 850.7 1396.7 848.7 1412.0 846.9 C 1427.3 845.0 1442.7 843.2 1458.0 841.5 C 1473.3 839.8 1488.7 838.1 1504.0 836.7 C 1519.3 835.3 1534.7 834.0 1550.0 832.9 C 1565.3 831.8 1580.7 830.9 1596.0 830.3 C 1611.3 829.6 1634.3 829.2 1642.0 828.9" stroke="#F5F0E8" stroke-width="1" stroke-opacity="0.048" fill="none" stroke-linecap="round"/><path d="M -60.0 892.5 C -52.3 892.9 -29.3 894.0 -14.0 894.8 C 1.3 895.6 16.7 896.4 32.0 897.1 C 47.3 897.8 62.7 898.5 78.0 899.0 C 93.3 899.6 108.7 900.1 124.0 900.4 C 139.3 900.7 154.7 901.0 170.0 901.0 C 185.3 901.0 200.7 900.9 216.0 900.7 C 231.3 900.4 246.7 899.9 262.0 899.3 C 277.3 898.7 292.7 897.8 308.0 896.9 C 323.3 895.9 338.7 894.8 354.0 893.6 C 369.3 892.3 384.7 890.9 400.0 889.4 C 415.3 887.9 430.7 886.3 446.0 884.6 C 461.3 883.0 476.7 881.2 492.0 879.5 C 507.3 877.7 522.7 875.9 538.0 874.2 C 553.3 872.4 568.7 870.7 584.0 869.0 C 599.3 867.3 614.7 865.7 630.0 864.2 C 645.3 862.7 660.7 861.2 676.0 860.0 C 691.3 858.7 706.7 857.5 722.0 856.4 C 737.3 855.4 752.7 854.5 768.0 853.7 C 783.3 853.0 798.7 852.3 814.0 851.8 C 829.3 851.3 844.7 851.0 860.0 850.7 C 875.3 850.5 890.7 850.3 906.0 850.3 C 921.3 850.2 936.7 850.3 952.0 850.3 C 967.3 850.4 982.7 850.6 998.0 850.7 C 1013.3 850.8 1028.7 851.0 1044.0 851.1 C 1059.3 851.2 1074.7 851.4 1090.0 851.4 C 1105.3 851.4 1120.7 851.4 1136.0 851.2 C 1151.3 851.1 1166.7 850.9 1182.0 850.6 C 1197.3 850.2 1212.7 849.8 1228.0 849.1 C 1243.3 848.5 1258.7 847.8 1274.0 846.9 C 1289.3 846.1 1304.7 845.0 1320.0 843.9 C 1335.3 842.8 1350.7 841.5 1366.0 840.1 C 1381.3 838.7 1396.7 837.2 1412.0 835.6 C 1427.3 834.0 1442.7 832.3 1458.0 830.5 C 1473.3 828.8 1488.7 826.9 1504.0 825.1 C 1519.3 823.3 1534.7 821.4 1550.0 819.6 C 1565.3 817.8 1580.7 815.9 1596.0 814.1 C 1611.3 812.4 1634.3 809.8 1642.0 809.0" stroke="#C9A96E" stroke-width="1.5" stroke-opacity="0.227" fill="none" stroke-linecap="round"/><path d="M -60.0 923.6 C -52.3 923.5 -29.3 923.3 -14.0 923.1 C 1.3 922.9 16.7 922.6 32.0 922.4 C 47.3 922.2 62.7 922.0 78.0 921.7 C 93.3 921.5 108.7 921.2 124.0 921.0 C 139.3 920.8 154.7 920.5 170.0 920.3 C 185.3 920.1 200.7 919.9 216.0 919.7 C 231.3 919.5 246.7 919.3 262.0 919.2 C 277.3 919.1 292.7 918.9 308.0 918.9 C 323.3 918.8 338.7 918.8 354.0 918.8 C 369.3 918.8 384.7 918.9 400.0 919.0 C 415.3 919.1 430.7 919.2 446.0 919.4 C 461.3 919.6 476.7 919.8 492.0 920.1 C 507.3 920.4 522.7 920.7 538.0 921.0 C 553.3 921.4 568.7 921.8 584.0 922.1 C 599.3 922.5 614.7 922.9 630.0 923.3 C 645.3 923.8 660.7 924.2 676.0 924.6 C 691.3 925.0 706.7 925.4 722.0 925.8 C 737.3 926.1 752.7 926.5 768.0 926.8 C 783.3 927.1 798.7 927.3 814.0 927.5 C 829.3 927.7 844.7 927.9 860.0 928.0 C 875.3 928.0 890.7 928.1 906.0 928.0 C 921.3 927.9 936.7 927.8 952.0 927.5 C 967.3 927.3 982.7 927.0 998.0 926.6 C 1013.3 926.2 1028.7 925.7 1044.0 925.1 C 1059.3 924.5 1074.7 923.9 1090.0 923.2 C 1105.3 922.4 1120.7 921.6 1136.0 920.8 C 1151.3 919.9 1166.7 919.0 1182.0 918.0 C 1197.3 917.1 1212.7 916.0 1228.0 915.0 C 1243.3 914.0 1258.7 912.9 1274.0 911.9 C 1289.3 910.8 1304.7 909.7 1320.0 908.7 C 1335.3 907.7 1350.7 906.6 1366.0 905.7 C 1381.3 904.7 1396.7 903.7 1412.0 902.8 C 1427.3 902.0 1442.7 901.1 1458.0 900.4 C 1473.3 899.7 1488.7 899.0 1504.0 898.4 C 1519.3 897.8 1534.7 897.4 1550.0 897.0 C 1565.3 896.6 1580.7 896.3 1596.0 896.1 C 1611.3 896.0 1634.3 895.9 1642.0 895.9" stroke="#F5F0E8" stroke-width="1" stroke-opacity="0.047" fill="none" stroke-linecap="round"/><path d="M -60.0 952.2 C -52.3 952.7 -29.3 953.9 -14.0 954.9 C 1.3 955.8 16.7 956.8 32.0 957.7 C 47.3 958.7 62.7 959.7 78.0 960.7 C 93.3 961.6 108.7 962.6 124.0 963.5 C 139.3 964.3 154.7 965.2 170.0 966.0 C 185.3 966.7 200.7 967.4 216.0 968.0 C 231.3 968.6 246.7 969.1 262.0 969.5 C 277.3 970.0 292.7 970.3 308.0 970.5 C 323.3 970.8 338.7 970.9 354.0 971.0 C 369.3 971.1 384.7 971.1 400.0 971.0 C 415.3 971.0 430.7 970.9 446.0 970.7 C 461.3 970.6 476.7 970.4 492.0 970.3 C 507.3 970.2 522.7 970.0 538.0 969.9 C 553.3 969.8 568.7 969.7 584.0 969.6 C 599.3 969.6 614.7 969.6 630.0 969.7 C 645.3 969.8 660.7 970.0 676.0 970.2 C 691.3 970.5 706.7 970.8 722.0 971.2 C 737.3 971.6 752.7 972.1 768.0 972.6 C 783.3 973.2 798.7 973.8 814.0 974.4 C 829.3 975.1 844.7 975.8 860.0 976.5 C 875.3 977.3 890.7 978.0 906.0 978.8 C 921.3 979.5 936.7 980.3 952.0 980.9 C 967.3 981.6 982.7 982.3 998.0 982.9 C 1013.3 983.4 1028.7 984.0 1044.0 984.4 C 1059.3 984.8 1074.7 985.1 1090.0 985.3 C 1105.3 985.5 1120.7 985.7 1136.0 985.6 C 1151.3 985.6 1166.7 985.5 1182.0 985.2 C 1197.3 985.0 1212.7 984.6 1228.0 984.2 C 1243.3 983.7 1258.7 983.2 1274.0 982.5 C 1289.3 981.9 1304.7 981.2 1320.0 980.4 C 1335.3 979.7 1350.7 978.8 1366.0 978.0 C 1381.3 977.2 1396.7 976.4 1412.0 975.5 C 1427.3 974.7 1442.7 973.9 1458.0 973.2 C 1473.3 972.4 1488.7 971.7 1504.0 971.1 C 1519.3 970.5 1534.7 969.9 1550.0 969.5 C 1565.3 969.0 1580.7 968.6 1596.0 968.4 C 1611.3 968.1 1634.3 968.0 1642.0 967.9" stroke="#F5F0E8" stroke-width="1" stroke-opacity="0.059" fill="none" stroke-linecap="round"/></g>
<path d="M -60.0 472.6 C -52.3 472.7 -29.3 472.9 -14.0 473.1 C 1.3 473.3 16.7 473.6 32.0 473.9 C 47.3 474.2 62.7 474.5 78.0 474.9 C 93.3 475.2 108.7 475.6 124.0 476.0 C 139.3 476.4 154.7 476.8 170.0 477.1 C 185.3 477.5 200.7 477.9 216.0 478.2 C 231.3 478.6 246.7 478.9 262.0 479.2 C 277.3 479.4 292.7 479.7 308.0 479.9 C 323.3 480.1 338.7 480.3 354.0 480.4 C 369.3 480.5 384.7 480.6 400.0 480.7 C 415.3 480.7 430.7 480.7 446.0 480.7 C 461.3 480.7 476.7 480.6 492.0 480.5 C 507.3 480.4 522.7 480.3 538.0 480.1 C 553.3 480.0 568.7 479.9 584.0 479.7 C 599.3 479.6 614.7 479.4 630.0 479.3 C 645.3 479.2 660.7 479.0 676.0 479.0 C 691.3 478.9 706.7 478.8 722.0 478.8 C 737.3 478.7 752.7 478.7 768.0 478.8 C 783.3 478.8 798.7 478.9 814.0 479.1 C 829.3 479.2 844.7 479.4 860.0 479.6 C 875.3 479.8 890.7 480.1 906.0 480.4 C 921.3 480.7 936.7 481.0 952.0 481.4 C 967.3 481.7 982.7 482.1 998.0 482.5 C 1013.3 482.9 1028.7 483.3 1044.0 483.7 C 1059.3 484.1 1074.7 484.5 1090.0 484.9 C 1105.3 485.3 1120.7 485.6 1136.0 486.0 C 1151.3 486.3 1166.7 486.6 1182.0 486.8 C 1197.3 487.1 1212.7 487.3 1228.0 487.4 C 1243.3 487.6 1258.7 487.7 1274.0 487.7 C 1289.3 487.7 1304.7 487.7 1320.0 487.6 C 1335.3 487.5 1350.7 487.3 1366.0 487.1 C 1381.3 486.9 1396.7 486.6 1412.0 486.3 C 1427.3 486.0 1442.7 485.6 1458.0 485.2 C 1473.3 484.7 1488.7 484.3 1504.0 483.8 C 1519.3 483.3 1534.7 482.8 1550.0 482.3 C 1565.3 481.8 1580.7 481.2 1596.0 480.7 C 1611.3 480.2 1634.3 479.4 1642.0 479.2" stroke="#C9A96E" stroke-width="2" stroke-opacity="0.5" fill="none" stroke-linecap="round"/>
<rect width="1600" height="900" fill="url(#vig)"/>
<rect width="1600" height="900" filter="url(#grain)" opacity="0.05"/>
</svg>