<svg xmlns="http://www.w3.org/2000/svg" viewBox="0 0 1600 900" preserveAspectRatio="xMidYMid slice">
<defs>
<linearGradient id="bg" x1="0" y1="0" x2="0" y2="1"><stop offset="0" stop-color="#0b160f"/><stop offset="1" stop-color="#15271b"/></linearGradient>
<radialGradient id="glow" cx="0.398" cy="0.317" r="0.75"><stop offset="0" stop-color="#C9A96E" stop-opacity="0.15"/><stop offset="1" stop-color="#C9A96E" stop-opacity="0"/></radialGradient>
<radialGradient id="vig" cx="0.5" cy="0.5" r="0.75"><stop offset="0.5" stop-color="#000" stop-opacity="0"/><stop offset="1" stop-color="#000" stop-opacity="0.5"/></radialGradient>
<filter id="grain"><feTurbulence type="fractalNoise" baseFrequency="0.9" numOctaves="2" stitchTiles="stitch"/><feColorMatrix type="matrix" values="0 0 0 0 0 0 0 0 0 0 0 0 0 0 0 0 0 0 0.55 0"/></filter>
</defs>
<rect width="1600" height="900" fill="url(#bg)"/>
<rect width="1600" height="900" fill="url(#glow)"/>
<path d="M -60.0 512.2 C -52.3 510.7 -29.3 506.2 -14.0 503.3 C 1.3 500.3 16.7 497.3 32.0 494.4 C 47.3 491.5 62.7 488.6 78.0 485.9 C 93.3 483.2 108.7 480.5 124.0 478.1 C 139.3 475.7 154.7 473.4 170.0 471.3 C 185.3 469.2 200.7 467.4 216.0 465.8 C 231.3 464.2 246.7 462.8 262.0 461.7 C 277.3 460.6 292.7 459.7 308.0 459.1 C 323.3 458.6 338.7 458.3 354.0 458.2 C 369.3 458.2 384.7 458.4 400.0 458.9 C 415.3 459.3 430.7 460.1 446.0 461.0 C 461.3 461.9 476.7 463.1 492.0 464.4 C 507.3 465.7 522.7 467.3 538.0 468.9 C 553.3 470.5 568.7 472.4 584.0 474.2 C 599.3 476.1 614.7 478.1 630.0 480.0 C 645.3 482.0 660.7 484.0 676.0 486.0 C 691.3 488.0 706.7 490.0 722.0 491.9 C 737.3 493.7 752.7 495.6 768.0 497.3 C 783.3 498.9 798.7 500.5 814.0 502.0 C 829.3 503.4 844.7 504.6 860.0 505.7 C 875.3 506.8 890.7 507.6 906.0 508.3 C 921.3 509.0 936.7 509.5 952.0 509.7 C 967.3 509.9 982.7 510.0 998.0 509.8 C 1013.3 509.6 1028.7 509.2 1044.0 508.7 C 1059.3 508.1 1074.7 507.3 1090.0 506.4 C 1105.3 505.4 1120.7 504.3 1136.0 503.1 C 1151.3 501.8 1166.7 500.4 1182.0 498.9 C 1197.3 497.5 1212.7 495.9 1228.0 494.2 C 1243.3 492.6 1258.7 490.9 1274.0 489.2 C 1289.3 487.6 1304.7 485.8 1320.0 484.2 C 1335.3 482.6 1350.7 480.9 1366.0 479.4 C 1381.3 477.9 1396.7 476.5 1412.0 475.2 C 1427.3 473.9 1442.7 472.6 1458.0 471.6 C 1473.3 470.6 1488.7 469.7 1504.0 468.9 C 1519.3 468.2 1534.7 467.7 1550.0 467.3 C 1565.3 466.9 1580.7 466.8 1596.0 466.8 C 1611.3 466.8 1631.3 385.1 1642.0 467.3 C 1652.7 549.5 1943.7 877.9 1660.0 960.0 C 1376.3 1042.1 226.7 960.0 -60.0 960.0 Z" fill="#C9A96E" fill-opacity="0.028"/>
<g><path d="M -60.0 -52.4 C -52.3 -52.6 -29.3 -53.3 -14.0 -53.8 C 1.3 -54.2 16.7 -54.5 32.0 -54.9 C 47.3 -55.2 62.7 -55.5 78.0 -55.8 C 93.3 -56.2 108.7 -56.5 124.0 -56.8 C 139.3 -57.1 154.7 -57.5 170.0 -57.9 C 185.3 -58.3 200.7 -58.7 216.0 -59.2 C 231.3 -59.7 246.7 -60.3 262.0 -60.9 C 277.3 -61.5 292.7 -62.2 308.0 -63.0 C 323.3 -63.8 338.7 -64.7 354.0 -65.6 C 369.3 -66.6 384.7 -67.6 400.0 -68.7 C 415.3 -69.8 430.7 -71.0 446.0 -72.2 C 461.3 -73.5 476.7 -74.8 492.0 -76.2 C 507.3 -77.5 522.7 -78.9 538.0 -80.4 C 553.3 -81.8 568.7 -83.3 584.0 -84.7 C 599.3 -86.2 614.7 -87.7 630.0 -89.1 C 645.3 -90.5 660.7 -92.0 676.0 -93.3 C 691.3 -94.7 706.7 -96.0 722.0 -97.3 C 737.3 -98.5 752.7 -99.8 768.0 -100.9 C 783.3 -102.0 798.7 -103.0 814.0 -104.0 C 829.3 -104.9 844.7 -105.8 860.0 -106.6 C 875.3 -107.3 890.7 -108.0 906.0 -108.6 C 921.3 -109.2 936.7 -109.7 952.0 -110.2 C 967.3 -110.6 982.7 -111.0 998.0 -111.3 C 1013.3 -111.6 1028.7 -111.8 1044.0 -112.0 C 1059.3 -112.3 1074.7 -112.4 1090.0 -112.6 C 1105.3 -112.8 1120.7 -112.9 1136.0 -113.1 C 1151.3 -113.3 1166.7 -113.4 1182.0 -113.6 C 1197.3 -113.8 1212.7 -114.0 1228.0 -114.3 C 1243.3 -114.6 1258.7 -114.9 1274.0 -115.2 C 1289.3 -115.6 1304.7 -116.0 1320.0 -116.5 C 1335.3 -117.0 1350.7 -117.5 1366.0 -118.1 C 1381.3 -118.7 1396.7 -119.4 1412.0 -120.1 C 1427.3 -120.8 1442.7 -121.6 1458.0 -122.3 C 1473.3 -123.1 1488.7 -124.0 1504.0 -124.8 C 1519.3 -125.6 1534.7 -126.5 1550.0 -127.4 C 1565.3 -128.2 1580.7 -129.1 1596.0 -129.9 C 1611.3 -130.7 1634.3 -131.9 1642.0 -132.3" stroke="#F5F0E8" stroke-width="1" stroke-opacity="0.055" fill="none" stroke-linecap="round"/><path d="M -60.0 -41.7 C -52.3 -41.9 -29.3 -42.5 -14.0 -42.7 C 1.3 -42.9 16.7 -43.0 32.0 -43.0 C 47.3 -43.0 62.7 -42.9 78.0 -42.7 C 93.3 -42.5 108.7 -42.1 124.0 -41.7 C 139.3 -41.3 154.7 -40.7 170.0 -40.1 C 185.3 -39.5 200.7 -38.8 216.0 -38.0 C 231.3 -37.2 246.7 -36.3 262.0 -35.5 C 277.3 -34.6 292.7 -33.6 308.0 -32.6 C 323.3 -31.6 338.7 -30.6 354.0 -29.6 C 369.3 -28.6 384.7 -27.6 400.0 -26.6 C 415.3 -25.6 430.7 -24.6 446.0 -23.7 C 461.3 -22.8 476.7 -21.9 492.0 -21.1 C 507.3 -20.3 522.7 -19.5 538.0 -18.9 C 553.3 -18.2 568.7 -17.7 584.0 -17.2 C 599.3 -16.7 614.7 -16.4 630.0 -16.1 C 645.3 -15.8 660.7 -15.7 676.0 -15.7 C 691.3 -15.6 706.7 -15.7 722.0 -15.9 C 737.3 -16.1 752.7 -16.5 768.0 -16.9 C 783.3 -17.3 798.7 -17.9 814.0 -18.5 C 829.3 -19.2 844.7 -19.9 860.0 -20.8 C 875.3 -21.6 890.7 -22.5 906.0 -23.5 C 921.3 -24.5 936.7 -25.5 952.0 -26.6 C 967.3 -27.7 982.7 -28.9 998.0 -30.1 C 1013.3 -31.3 1028.7 -32.5 1044.0 -33.7 C 1059.3 -34.9 1074.7 -36.2 1090.0 -37.4 C 1105.3 -38.6 1120.7 -39.8 1136.0 -40.9 C 1151.3 -42.1 1166.7 -43.2 1182.0 -44.3 C 1197.3 -45.4 1212.7 -46.4 1228.0 -47.4 C 1243.3 -48.4 1258.7 -49.3 1274.0 -50.1 C 1289.3 -50.9 1304.7 -51.7 1320.0 -52.4 C 1335.3 -53.1 1350.7 -53.7 1366.0 -54.2 C 1381.3 -54.7 1396.7 -55.2 1412.0 -55.6 C 1427.3 -56.0 1442.7 -56.3 1458.0 -56.5 C 1473.3 -56.8 1488.7 -56.9 1504.0 -57.1 C 1519.3 -57.2 1534.7 -57.2 1550.0 -57.2 C 1565.3 -57.3 1580.7 -57.2 1596.0 -57.2 C 1611.3 -57.1 1634.3 -56.9 1642.0 -56.9" stroke="#F5F0E8" stroke-width="1.5" stroke-opacity="0.189" fill="none" stroke-linecap="round"/><path d="M -60.0 4.2 C -52.3 4.6 -29.3 5.9 -14.0 6.8 C 1.3 7.7 16.7 8.7 32.0 9.6 C 47.3 10.6 62.7 11.6 78.0 12.6 C 93.3 13.6 108.7 14.6 124.0 15.7 C 139.3 16.7 154.7 17.7 170.0 18.7 C 185.3 19.7 200.7 20.7 216.0 21.6 C 231.3 22.6 246.7 23.5 262.0 24.4 C 277.3 25.3 292.7 26.2 308.0 27.0 C 323.3 27.8 338.7 28.6 354.0 29.3 C 369.3 30.0 384.7 30.6 400.0 31.2 C 415.3 31.8 430.7 32.3 446.0 32.8 C 461.3 33.3 476.7 33.7 492.0 34.1 C 507.3 34.4 522.7 34.7 538.0 35.0 C 553.3 35.2 568.7 35.4 584.0 35.6 C 599.3 35.7 614.7 35.8 630.0 35.9 C 645.3 36.0 660.7 36.1 676.0 36.1 C 691.3 36.1 706.7 36.1 722.0 36.2 C 737.3 36.2 752.7 36.2 768.0 36.2 C 783.3 36.3 798.7 36.3 814.0 36.4 C 829.3 36.5 844.7 36.5 860.0 36.7 C 875.3 36.8 890.7 37.0 906.0 37.3 C 921.3 37.5 936.7 37.8 952.0 38.2 C 967.3 38.6 982.7 39.0 998.0 39.5 C 1013.3 40.1 1028.7 40.7 1044.0 41.3 C 1059.3 42.0 1074.7 42.8 1090.0 43.6 C 1105.3 44.4 1120.7 45.3 1136.0 46.3 C 1151.3 47.3 1166.7 48.4 1182.0 49.5 C 1197.3 50.6 1212.7 51.8 1228.0 53.1 C 1243.3 54.3 1258.7 55.6 1274.0 57.0 C 1289.3 58.3 1304.7 59.7 1320.0 61.1 C 1335.3 62.5 1350.7 64.0 1366.0 65.4 C 1381.3 66.8 1396.7 68.3 1412.0 69.7 C 1427.3 71.1 1442.7 72.6 1458.0 73.9 C 1473.3 75.3 1488.7 76.7 1504.0 77.9 C 1519.3 79.2 1534.7 80.4 1550.0 81.6 C 1565.3 82.8 1580.7 83.8 1596.0 84.8 C 1611.3 85.8 1634.3 87.1 1642.0 87.6" stroke="#F5F0E8" stroke-width="1" stroke-opacity="0.058" fill="none" stroke-linecap="round"/><path d="M -60.0 38.7 C -52.3 38.6 -29.3 38.2 -14.0 38.1 C 1.3 38.0 16.7 38.0 32.0 38.1 C 47.3 38.3 62.7 38.5 78.0 38.8 C 93.3 39.0 108.7 39.4 124.0 39.8 C 139.3 40.2 154.7 40.7 170.0 41.2 C 185.3 41.7 200.7 42.2 216.0 42.6 C 231.3 43.1 246.7 43.6 262.0 43.9 C 277.3 44.3 292.7 44.7 308.0 44.9 C 323.3 45.2 338.7 45.4 354.0 45.4 C 369.3 45.5 384.7 45.4 400.0 45.3 C 415.3 45.1 430.7 44.8 446.0 44.4 C 461.3 43.9 476.7 43.4 492.0 42.7 C 507.3 42.1 522.7 41.2 538.0 40.4 C 553.3 39.5 568.7 38.4 584.0 37.4 C 599.3 36.3 614.7 35.1 630.0 33.9 C 645.3 32.8 660.7 31.5 676.0 30.2 C 691.3 29.0 706.7 27.7 722.0 26.5 C 737.3 25.3 752.7 24.1 768.0 23.0 C 783.3 21.9 798.7 20.9 814.0 20.0 C 829.3 19.1 844.7 18.3 860.0 17.6 C 875.3 17.0 890.7 16.5 906.0 16.1 C 921.3 15.8 936.7 15.6 952.0 15.6 C 967.3 15.6 982.7 15.8 998.0 16.1 C 1013.3 16.5 1028.7 17.0 1044.0 17.7 C 1059.3 18.3 1074.7 19.2 1090.0 20.1 C 1105.3 21.1 1120.7 22.2 1136.0 23.3 C 1151.3 24.5 1166.7 25.8 1182.0 27.1 C 1197.3 28.4 1212.7 29.8 1228.0 31.2 C 1243.3 32.6 1258.7 34.0 1274.0 35.3 C 1289.3 36.6 1304.7 37.9 1320.0 39.1 C 1335.3 40.2 1350.7 41.4 1366.0 42.3 C 1381.3 43.2 1396.7 44.1 1412.0 44.7 C 1427.3 45.4 1442.7 45.8 1458.0 46.1 C 1473.3 46.4 1488.7 46.5 1504.0 46.4 C 1519.3 46.3 1534.7 46.0 1550.0 45.5 C 1565.3 45.0 1580.7 44.3 1596.0 43.4 C 1611.3 42.5 1634.3 40.7 1642.0 40.2" stroke="#F5F0E8" stroke-width="1" stroke-opacity="0.072" fill="none" stroke-linecap="round"/><path d="M -60.0 94.5 C -52.3 94.9 -29.3 96.1 -14.0 96.8 C 1.3 97.5 16.7 98.2 32.0 98.7 C 47.3 99.3 62.7 99.7 78.0 100.1 C 93.3 100.5 108.7 100.9 124.0 101.1 C 139.3 101.4 154.7 101.6 170.0 101.7 C 185.3 101.9 200.7 101.9 216.0 101.9 C 231.3 101.9 246.7 101.9 262.0 101.8 C 277.3 101.7 292.7 101.5 308.0 101.3 C 323.3 101.1 338.7 100.9 354.0 100.6 C 369.3 100.3 384.7 100.0 400.0 99.7 C 415.3 99.4 430.7 99.0 446.0 98.6 C 461.3 98.3 476.7 97.9 492.0 97.5 C 507.3 97.1 522.7 96.7 538.0 96.3 C 553.3 96.0 568.7 95.6 584.0 95.2 C 599.3 94.8 614.7 94.5 630.0 94.1 C 645.3 93.8 660.7 93.5 676.0 93.2 C 691.3 92.9 706.7 92.6 722.0 92.3 C 737.3 92.1 752.7 91.9 768.0 91.7 C 783.3 91.5 798.7 91.3 814.0 91.2 C 829.3 91.1 844.7 91.0 860.0 90.9 C 875.3 90.8 890.7 90.8 906.0 90.8 C 921.3 90.7 936.7 90.8 952.0 90.8 C 967.3 90.8 982.7 90.9 998.0 90.9 C 1013.3 91.0 1028.7 91.1 1044.0 91.2 C 1059.3 91.2 1074.7 91.4 1090.0 91.5 C 1105.3 91.6 1120.7 91.7 1136.0 91.8 C 1151.3 91.9 1166.7 92.0 1182.0 92.1 C 1197.3 92.1 1212.7 92.2 1228.0 92.3 C 1243.3 92.3 1258.7 92.4 1274.0 92.4 C 1289.3 92.4 1304.7 92.4 1320.0 92.4 C 1335.3 92.3 1350.7 92.3 1366.0 92.2 C 1381.3 92.0 1396.7 91.9 1412.0 91.7 C 1427.3 91.6 1442.7 91.4 1458.0 91.1 C 1473.3 90.9 1488.7 90.6 1504.0 90.3 C 1519.3 89.9 1534.7 89.6 1550.0 89.2 C 1565.3 88.8 1580.7 88.4 1596.0 87.9 C 1611.3 87.5 1634.3 86.7 1642.0 86.4" stroke="#F5F0E8" stroke-width="1" stroke-opacity="0.089" fill="none" stroke-linecap="round"/><path d="M -60.0 128.3 C -52.3 127.3 -29.3 124.3 -14.0 122.3 C 1.3 120.2 16.7 118.1 32.0 116.1 C 47.3 114.1 62.7 112.0 78.0 110.1 C 93.3 108.1 108.7 106.2 124.0 104.4 C 139.3 102.6 154.7 100.8 170.0 99.3 C 185.3 97.7 200.7 96.2 216.0 95.0 C 231.3 93.7 246.7 92.5 262.0 91.6 C 277.3 90.6 292.7 89.9 308.0 89.3 C 323.3 88.7 338.7 88.3 354.0 88.1 C 369.3 87.8 384.7 87.8 400.0 88.0 C 415.3 88.1 430.7 88.5 446.0 89.0 C 461.3 89.5 476.7 90.2 492.0 91.0 C 507.3 91.8 522.7 92.8 538.0 93.9 C 553.3 95.0 568.7 96.2 584.0 97.5 C 599.3 98.8 614.7 100.3 630.0 101.7 C 645.3 103.2 660.7 104.7 676.0 106.3 C 691.3 107.8 706.7 109.4 722.0 110.9 C 737.3 112.4 752.7 114.0 768.0 115.5 C 783.3 116.9 798.7 118.4 814.0 119.7 C 829.3 121.0 844.7 122.3 860.0 123.4 C 875.3 124.5 890.7 125.5 906.0 126.4 C 921.3 127.2 936.7 128.0 952.0 128.5 C 967.3 129.1 982.7 129.5 998.0 129.7 C 1013.3 129.9 1028.7 129.9 1044.0 129.8 C 1059.3 129.6 1074.7 129.3 1090.0 128.8 C 1105.3 128.3 1120.7 127.6 1136.0 126.7 C 1151.3 125.9 1166.7 124.8 1182.0 123.7 C 1197.3 122.5 1212.7 121.2 1228.0 119.8 C 1243.3 118.4 1258.7 116.8 1274.0 115.2 C 1289.3 113.5 1304.7 111.8 1320.0 110.0 C 1335.3 108.3 1350.7 106.4 1366.0 104.6 C 1381.3 102.8 1396.7 100.9 1412.0 99.1 C 1427.3 97.3 1442.7 95.5 1458.0 93.8 C 1473.3 92.1 1488.7 90.5 1504.0 89.0 C 1519.3 87.5 1534.7 86.0 1550.0 84.8 C 1565.3 83.5 1580.7 82.4 1596.0 81.4 C 1611.3 80.5 1634.3 79.5 1642.0 79.1" stroke="#F5F0E8" stroke-width="1.5" stroke-opacity="0.220" fill="none" stroke-linecap="round"/><path d="M -60.0 164.8 C -52.3 164.3 -29.3 162.8 -14.0 161.7 C 1.3 160.6 16.7 159.5 32.0 158.3 C 47.3 157.2 62.7 156.0 78.0 154.8 C 93.3 153.6 108.7 152.3 124.0 151.1 C 139.3 149.9 154.7 148.7 170.0 147.5 C 185.3 146.3 200.7 145.1 216.0 144.0 C 231.3 142.8 246.7 141.7 262.0 140.6 C 277.3 139.5 292.7 138.5 308.0 137.5 C 323.3 136.6 338.7 135.6 354.0 134.8 C 369.3 133.9 384.7 133.1 400.0 132.4 C 415.3 131.7 430.7 131.1 446.0 130.5 C 461.3 129.9 476.7 129.4 492.0 129.0 C 507.3 128.6 522.7 128.3 538.0 128.0 C 553.3 127.7 568.7 127.6 584.0 127.4 C 599.3 127.3 614.7 127.3 630.0 127.3 C 645.3 127.4 660.7 127.5 676.0 127.6 C 691.3 127.8 706.7 128.0 722.0 128.3 C 737.3 128.5 752.7 128.9 768.0 129.2 C 783.3 129.6 798.7 130.0 814.0 130.4 C 829.3 130.9 844.7 131.3 860.0 131.8 C 875.3 132.3 890.7 132.8 906.0 133.3 C 921.3 133.8 936.7 134.3 952.0 134.8 C 967.3 135.3 982.7 135.8 998.0 136.3 C 1013.3 136.8 1028.7 137.3 1044.0 137.7 C 1059.3 138.1 1074.7 138.6 1090.0 138.9 C 1105.3 139.3 1120.7 139.7 1136.0 140.0 C 1151.3 140.3 1166.7 140.6 1182.0 140.8 C 1197.3 141.0 1212.7 141.2 1228.0 141.3 C 1243.3 141.5 1258.7 141.5 1274.0 141.6 C 1289.3 141.6 1304.7 141.6 1320.0 141.5 C 1335.3 141.5 1350.7 141.4 1366.0 141.2 C 1381.3 141.0 1396.7 140.8 1412.0 140.6 C 1427.3 140.3 1442.7 140.0 1458.0 139.7 C 1473.3 139.4 1488.7 139.0 1504.0 138.6 C 1519.3 138.2 1534.7 137.8 1550.0 137.3 C 1565.3 136.8 1580.7 136.3 1596.0 135.8 C 1611.3 135.3 1634.3 134.5 1642.0 134.2" stroke="#F5F0E8" stroke-width="1" stroke-opacity="0.056" fill="none" stroke-linecap="round"/><path d="M -60.0 180.6 C -52.3 179.9 -29.3 177.7 -14.0 176.6 C 1.3 175.6 16.7 174.8 32.0 174.3 C 47.3 173.8 62.7 173.6 78.0 173.5 C 93.3 173.4 108.7 173.7 124.0 174.0 C 139.3 174.3 154.7 174.8 170.0 175.4 C 185.3 175.9 200.7 176.6 216.0 177.3 C 231.3 177.9 246.7 178.7 262.0 179.2 C 277.3 179.8 292.7 180.4 308.0 180.7 C 323.3 181.1 338.7 181.4 354.0 181.4 C 369.3 181.4 384.7 181.3 400.0 180.9 C 415.3 180.5 430.7 179.8 446.0 178.9 C 461.3 178.0 476.7 176.8 492.0 175.4 C 507.3 173.9 522.7 172.2 538.0 170.3 C 553.3 168.4 568.7 166.2 584.0 163.8 C 599.3 161.5 614.7 158.9 630.0 156.3 C 645.3 153.6 660.7 150.8 676.0 148.0 C 691.3 145.2 706.7 142.3 722.0 139.5 C 737.3 136.7 752.7 133.8 768.0 131.2 C 783.3 128.5 798.7 125.9 814.0 123.6 C 829.3 121.2 844.7 119.0 860.0 117.1 C 875.3 115.2 890.7 113.6 906.0 112.2 C 921.3 110.9 936.7 109.8 952.0 109.1 C 967.3 108.4 982.7 108.0 998.0 107.9 C 1013.3 107.8 1028.7 108.1 1044.0 108.6 C 1059.3 109.2 1074.7 110.1 1090.0 111.2 C 1105.3 112.3 1120.7 113.7 1136.0 115.3 C 1151.3 116.9 1166.7 118.7 1182.0 120.6 C 1197.3 122.5 1212.7 124.6 1228.0 126.7 C 1243.3 128.8 1258.7 131.0 1274.0 133.1 C 1289.3 135.1 1304.7 137.3 1320.0 139.2 C 1335.3 141.1 1350.7 143.0 1366.0 144.6 C 1381.3 146.2 1396.7 147.7 1412.0 148.9 C 1427.3 150.1 1442.7 151.0 1458.0 151.7 C 1473.3 152.3 1488.7 152.7 1504.0 152.7 C 1519.3 152.7 1534.7 152.4 1550.0 151.8 C 1565.3 151.2 1580.7 150.3 1596.0 149.1 C 1611.3 147.9 1634.3 145.3 1642.0 144.6" stroke="#F5F0E8" stroke-width="1" stroke-opacity="0.058" fill="none" stroke-linecap="round"/><path d="M -60.0 201.5 C -52.3 202.0 -29.3 203.2 -14.0 204.6 C 1.3 205.9 16.7 207.5 32.0 209.3 C 47.3 211.2 62.7 213.4 78.0 215.7 C 93.3 218.0 108.7 220.6 124.0 223.2 C 139.3 225.9 154.7 228.8 170.0 231.6 C 185.3 234.4 200.7 237.4 216.0 240.2 C 231.3 243.0 246.7 245.9 262.0 248.5 C 277.3 251.1 292.7 253.7 308.0 255.9 C 323.3 258.1 338.7 260.2 354.0 261.9 C 369.3 263.6 384.7 265.1 400.0 266.2 C 415.3 267.3 430.7 268.0 446.0 268.4 C 461.3 268.8 476.7 268.8 492.0 268.5 C 507.3 268.2 522.7 267.5 538.0 266.6 C 553.3 265.7 568.7 264.4 584.0 263.0 C 599.3 261.5 614.7 259.8 630.0 258.0 C 645.3 256.2 660.7 254.1 676.0 252.2 C 691.3 250.2 706.7 248.1 722.0 246.2 C 737.3 244.2 752.7 242.2 768.0 240.5 C 783.3 238.8 798.7 237.2 814.0 235.9 C 829.3 234.5 844.7 233.4 860.0 232.6 C 875.3 231.9 890.7 231.4 906.0 231.2 C 921.3 231.1 936.7 231.3 952.0 231.8 C 967.3 232.4 982.7 233.3 998.0 234.5 C 1013.3 235.7 1028.7 237.2 1044.0 239.0 C 1059.3 240.8 1074.7 243.0 1090.0 245.3 C 1105.3 247.6 1120.7 250.1 1136.0 252.8 C 1151.3 255.4 1166.7 258.3 1182.0 261.1 C 1197.3 264.0 1212.7 266.9 1228.0 269.8 C 1243.3 272.7 1258.7 275.6 1274.0 278.4 C 1289.3 281.1 1304.7 283.8 1320.0 286.3 C 1335.3 288.8 1350.7 291.2 1366.0 293.4 C 1381.3 295.6 1396.7 297.6 1412.0 299.4 C 1427.3 301.2 1442.7 302.8 1458.0 304.2 C 1473.3 305.5 1488.7 306.7 1504.0 307.7 C 1519.3 308.7 1534.7 309.5 1550.0 310.2 C 1565.3 310.9 1580.7 311.3 1596.0 311.8 C 1611.3 312.2 1634.3 312.5 1642.0 312.7" stroke="#F5F0E8" stroke-width="1" stroke-opacity="0.079" fill="none" stroke-linecap="round"/><path d="M -60.0 249.7 C -52.3 249.4 -29.3 248.3 -14.0 247.8 C 1.3 247.3 16.7 246.9 32.0 246.7 C 47.3 246.5 62.7 246.4 78.0 246.5 C 93.3 246.5 108.7 246.7 124.0 247.0 C 139.3 247.3 154.7 247.7 170.0 248.2 C 185.3 248.6 200.7 249.2 216.0 249.8 C 231.3 250.4 246.7 251.1 262.0 251.7 C 277.3 252.4 292.7 253.0 308.0 253.6 C 323.3 254.2 338.7 254.8 354.0 255.3 C 369.3 255.8 384.7 256.3 400.0 256.6 C 415.3 256.9 430.7 257.1 446.0 257.2 C 461.3 257.2 476.7 257.2 492.0 256.9 C 507.3 256.7 522.7 256.3 538.0 255.8 C 553.3 255.2 568.7 254.4 584.0 253.5 C 599.3 252.6 614.7 251.5 630.0 250.3 C 645.3 249.0 660.7 247.6 676.0 246.0 C 691.3 244.4 706.7 242.7 722.0 240.8 C 737.3 239.0 752.7 237.0 768.0 234.9 C 783.3 232.9 798.7 230.7 814.0 228.5 C 829.3 226.3 844.7 224.0 860.0 221.7 C 875.3 219.4 890.7 217.1 906.0 214.9 C 921.3 212.6 936.7 210.3 952.0 208.2 C 967.3 206.0 982.7 203.9 998.0 201.9 C 1013.3 199.9 1028.7 198.0 1044.0 196.2 C 1059.3 194.4 1074.7 192.8 1090.0 191.3 C 1105.3 189.8 1120.7 188.4 1136.0 187.3 C 1151.3 186.1 1166.7 185.1 1182.0 184.2 C 1197.3 183.4 1212.7 182.7 1228.0 182.1 C 1243.3 181.6 1258.7 181.3 1274.0 181.0 C 1289.3 180.8 1304.7 180.7 1320.0 180.8 C 1335.3 180.8 1350.7 181.0 1366.0 181.2 C 1381.3 181.5 1396.7 181.8 1412.0 182.2 C 1427.3 182.6 1442.7 183.1 1458.0 183.6 C 1473.3 184.1 1488.7 184.6 1504.0 185.1 C 1519.3 185.6 1534.7 186.2 1550.0 186.7 C 1565.3 187.1 1580.7 187.6 1596.0 188.0 C 1611.3 188.4 1634.3 188.8 1642.0 188.9" stroke="#F5F0E8" stroke-width="1.5" stroke-opacity="0.170" fill="none" stroke-linecap="round"/><path d="M -60.0 298.8 C -52.3 298.4 -29.3 297.5 -14.0 296.8 C 1.3 296.0 16.7 295.3 32.0 294.4 C 47.3 293.6 62.7 292.7 78.0 291.7 C 93.3 290.8 108.7 289.8 124.0 288.7 C 139.3 287.7 154.7 286.6 170.0 285.4 C 185.3 284.3 200.7 283.1 216.0 281.9 C 231.3 280.7 246.7 279.4 262.0 278.2 C 277.3 277.0 292.7 275.7 308.0 274.5 C 323.3 273.3 338.7 272.0 354.0 270.8 C 369.3 269.6 384.7 268.4 400.0 267.3 C 415.3 266.2 430.7 265.0 446.0 264.0 C 461.3 263.0 476.7 262.0 492.0 261.1 C 507.3 260.2 522.7 259.4 538.0 258.6 C 553.3 257.9 568.7 257.2 584.0 256.7 C 599.3 256.1 614.7 255.6 630.0 255.2 C 645.3 254.8 660.7 254.6 676.0 254.4 C 691.3 254.2 706.7 254.1 722.0 254.1 C 737.3 254.0 752.7 254.1 768.0 254.3 C 783.3 254.4 798.7 254.7 814.0 254.9 C 829.3 255.2 844.7 255.6 860.0 256.0 C 875.3 256.4 890.7 256.8 906.0 257.3 C 921.3 257.7 936.7 258.3 952.0 258.7 C 967.3 259.2 982.7 259.7 998.0 260.2 C 1013.3 260.7 1028.7 261.1 1044.0 261.5 C 1059.3 261.9 1074.7 262.3 1090.0 262.6 C 1105.3 262.9 1120.7 263.1 1136.0 263.3 C 1151.3 263.4 1166.7 263.5 1182.0 263.5 C 1197.3 263.5 1212.7 263.4 1228.0 263.2 C 1243.3 262.9 1258.7 262.6 1274.0 262.2 C 1289.3 261.8 1304.7 261.2 1320.0 260.6 C 1335.3 260.0 1350.7 259.2 1366.0 258.4 C 1381.3 257.6 1396.7 256.6 1412.0 255.6 C 1427.3 254.6 1442.7 253.4 1458.0 252.3 C 1473.3 251.1 1488.7 249.8 1504.0 248.5 C 1519.3 247.3 1534.7 245.9 1550.0 244.5 C 1565.3 243.2 1580.7 241.7 1596.0 240.4 C 1611.3 239.0 1634.3 236.9 1642.0 236.2" stroke="#F5F0E8" stroke-width="1" stroke-opacity="0.053" fill="none" stroke-linecap="round"/><path d="M -60.0 358.0 C -52.3 358.1 -29.3 358.8 -14.0 358.6 C 1.3 358.5 16.7 358.1 32.0 357.3 C 47.3 356.5 62.7 355.3 78.0 353.8 C 93.3 352.4 108.7 350.5 124.0 348.5 C 139.3 346.4 154.7 344.0 170.0 341.5 C 185.3 339.0 200.7 336.2 216.0 333.4 C 231.3 330.6 246.7 327.5 262.0 324.6 C 277.3 321.7 292.7 318.6 308.0 315.8 C 323.3 312.9 338.7 310.1 354.0 307.5 C 369.3 304.9 384.7 302.4 400.0 300.3 C 415.3 298.1 430.7 296.2 446.0 294.6 C 461.3 293.0 476.7 291.7 492.0 290.7 C 507.3 289.8 522.7 289.1 538.0 288.8 C 553.3 288.5 568.7 288.6 584.0 288.9 C 599.3 289.2 614.7 289.9 630.0 290.8 C 645.3 291.6 660.7 292.8 676.0 294.1 C 691.3 295.3 706.7 296.8 722.0 298.3 C 737.3 299.8 752.7 301.5 768.0 303.1 C 783.3 304.6 798.7 306.3 814.0 307.7 C 829.3 309.1 844.7 310.5 860.0 311.6 C 875.3 312.7 890.7 313.7 906.0 314.4 C 921.3 315.0 936.7 315.5 952.0 315.6 C 967.3 315.7 982.7 315.5 998.0 314.9 C 1013.3 314.4 1028.7 313.6 1044.0 312.4 C 1059.3 311.3 1074.7 309.8 1090.0 308.1 C 1105.3 306.4 1120.7 304.4 1136.0 302.2 C 1151.3 300.1 1166.7 297.7 1182.0 295.2 C 1197.3 292.7 1212.7 290.1 1228.0 287.5 C 1243.3 284.9 1258.7 282.2 1274.0 279.7 C 1289.3 277.1 1304.7 274.6 1320.0 272.3 C 1335.3 270.1 1350.7 267.9 1366.0 266.0 C 1381.3 264.2 1396.7 262.5 1412.0 261.2 C 1427.3 259.9 1442.7 258.9 1458.0 258.2 C 1473.3 257.6 1488.7 257.3 1504.0 257.3 C 1519.3 257.3 1534.7 257.7 1550.0 258.4 C 1565.3 259.1 1580.7 260.2 1596.0 261.5 C 1611.3 262.8 1634.3 265.4 1642.0 266.2" stroke="#F5F0E8" stroke-width="1" stroke-opacity="0.046" fill="none" stroke-linecap="round"/><path d="M -60.0 369.0 C -52.3 369.7 -29.3 371.7 -14.0 373.0 C 1.3 374.3 16.7 375.7 32.0 377.0 C 47.3 378.2 62.7 379.5 78.0 380.5 C 93.3 381.5 108.7 382.3 124.0 382.9 C 139.3 383.5 154.7 383.9 170.0 383.9 C 185.3 384.0 200.7 383.8 216.0 383.3 C 231.3 382.7 246.7 381.9 262.0 380.8 C 277.3 379.7 292.7 378.2 308.0 376.6 C 323.3 375.0 338.7 373.0 354.0 371.0 C 369.3 369.0 384.7 366.7 400.0 364.4 C 415.3 362.2 430.7 359.8 446.0 357.5 C 461.3 355.2 476.7 352.9 492.0 350.8 C 507.3 348.7 522.7 346.6 538.0 344.9 C 553.3 343.1 568.7 341.6 584.0 340.3 C 599.3 339.1 614.7 338.2 630.0 337.6 C 645.3 337.1 660.7 336.8 676.0 336.9 C 691.3 337.1 706.7 337.5 722.0 338.3 C 737.3 339.1 752.7 340.3 768.0 341.6 C 783.3 343.0 798.7 344.7 814.0 346.5 C 829.3 348.3 844.7 350.3 860.0 352.4 C 875.3 354.4 890.7 356.6 906.0 358.7 C 921.3 360.7 936.7 362.8 952.0 364.7 C 967.3 366.5 982.7 368.3 998.0 369.7 C 1013.3 371.2 1028.7 372.4 1044.0 373.3 C 1059.3 374.2 1074.7 374.8 1090.0 375.0 C 1105.3 375.2 1120.7 375.0 1136.0 374.5 C 1151.3 374.0 1166.7 373.1 1182.0 372.0 C 1197.3 370.8 1212.7 369.2 1228.0 367.5 C 1243.3 365.8 1258.7 363.8 1274.0 361.7 C 1289.3 359.7 1304.7 357.3 1320.0 355.1 C 1335.3 352.9 1350.7 350.6 1366.0 348.5 C 1381.3 346.4 1396.7 344.3 1412.0 342.5 C 1427.3 340.8 1442.7 339.2 1458.0 338.1 C 1473.3 336.9 1488.7 336.0 1504.0 335.7 C 1519.3 335.3 1534.7 335.3 1550.0 335.8 C 1565.3 336.3 1580.7 337.3 1596.0 338.7 C 1611.3 340.1 1634.3 343.4 1642.0 344.3" stroke="#F5F0E8" stroke-width="1" stroke-opacity="0.083" fill="none" stroke-linecap="round"/><path d="M -60.0 397.5 C -52.3 399.2 -29.3 404.2 -14.0 407.4 C 1.3 410.5 16.7 413.6 32.0 416.2 C 47.3 418.9 62.7 421.4 78.0 423.3 C 93.3 425.3 108.7 426.9 124.0 427.9 C 139.3 429.0 154.7 429.6 170.0 429.6 C 185.3 429.6 200.7 429.0 216.0 428.0 C 231.3 426.9 246.7 425.3 262.0 423.2 C 277.3 421.2 292.7 418.6 308.0 415.7 C 323.3 412.8 338.7 409.4 354.0 405.9 C 369.3 402.4 384.7 398.5 400.0 394.7 C 415.3 390.9 430.7 386.8 446.0 382.9 C 461.3 379.0 476.7 375.1 492.0 371.5 C 507.3 367.8 522.7 364.3 538.0 361.3 C 553.3 358.2 568.7 355.4 584.0 353.1 C 599.3 350.8 614.7 348.9 630.0 347.5 C 645.3 346.2 660.7 345.3 676.0 344.9 C 691.3 344.6 706.7 344.8 722.0 345.4 C 737.3 346.0 752.7 347.2 768.0 348.8 C 783.3 350.3 798.7 352.3 814.0 354.5 C 829.3 356.8 844.7 359.4 860.0 362.1 C 875.3 364.9 890.7 367.9 906.0 370.8 C 921.3 373.7 936.7 376.7 952.0 379.5 C 967.3 382.3 982.7 385.1 998.0 387.5 C 1013.3 389.9 1028.7 392.2 1044.0 394.0 C 1059.3 395.8 1074.7 397.3 1090.0 398.2 C 1105.3 399.2 1120.7 399.8 1136.0 399.9 C 1151.3 399.9 1166.7 399.5 1182.0 398.6 C 1197.3 397.7 1212.7 396.3 1228.0 394.5 C 1243.3 392.8 1258.7 390.5 1274.0 387.9 C 1289.3 385.4 1304.7 382.4 1320.0 379.3 C 1335.3 376.2 1350.7 372.8 1366.0 369.4 C 1381.3 366.0 1396.7 362.4 1412.0 358.9 C 1427.3 355.5 1442.7 352.0 1458.0 348.8 C 1473.3 345.6 1488.7 342.4 1504.0 339.7 C 1519.3 337.0 1534.7 334.5 1550.0 332.5 C 1565.3 330.4 1580.7 328.7 1596.0 327.5 C 1611.3 326.3 1634.3 325.6 1642.0 325.2" stroke="#F5F0E8" stroke-width="1.5" stroke-opacity="0.226" fill="none" stroke-linecap="round"/><path d="M -60.0 418.8 C -52.3 418.7 -29.3 418.3 -14.0 418.1 C 1.3 417.9 16.7 417.8 32.0 417.7 C 47.3 417.7 62.7 417.7 78.0 417.7 C 93.3 417.8 108.7 417.9 124.0 418.1 C 139.3 418.3 154.7 418.5 170.0 418.8 C 185.3 419.1 200.7 419.5 216.0 420.0 C 231.3 420.4 246.7 420.9 262.0 421.4 C 277.3 422.0 292.7 422.6 308.0 423.2 C 323.3 423.9 338.7 424.6 354.0 425.4 C 369.3 426.1 384.7 426.9 400.0 427.8 C 415.3 428.6 430.7 429.5 446.0 430.4 C 461.3 431.3 476.7 432.2 492.0 433.1 C 507.3 434.1 522.7 435.1 538.0 436.0 C 553.3 437.0 568.7 438.0 584.0 439.0 C 599.3 440.0 614.7 441.0 630.0 442.0 C 645.3 443.0 660.7 444.0 676.0 444.9 C 691.3 445.9 706.7 446.9 722.0 447.8 C 737.3 448.7 752.7 449.7 768.0 450.6 C 783.3 451.4 798.7 452.3 814.0 453.1 C 829.3 454.0 844.7 454.8 860.0 455.5 C 875.3 456.3 890.7 457.0 906.0 457.7 C 921.3 458.4 936.7 459.1 952.0 459.7 C 967.3 460.3 982.7 460.9 998.0 461.4 C 1013.3 462.0 1028.7 462.5 1044.0 462.9 C 1059.3 463.4 1074.7 463.8 1090.0 464.2 C 1105.3 464.6 1120.7 465.0 1136.0 465.3 C 1151.3 465.7 1166.7 466.0 1182.0 466.3 C 1197.3 466.6 1212.7 466.8 1228.0 467.1 C 1243.3 467.3 1258.7 467.6 1274.0 467.8 C 1289.3 468.0 1304.7 468.2 1320.0 468.4 C 1335.3 468.7 1350.7 468.9 1366.0 469.1 C 1381.3 469.3 1396.7 469.5 1412.0 469.8 C 1427.3 470.0 1442.7 470.3 1458.0 470.6 C 1473.3 470.8 1488.7 471.1 1504.0 471.5 C 1519.3 471.8 1534.7 472.1 1550.0 472.5 C 1565.3 472.9 1580.7 473.4 1596.0 473.8 C 1611.3 474.3 1634.3 475.1 1642.0 475.3" stroke="#F5F0E8" stroke-width="1" stroke-opacity="0.053" fill="none" stroke-linecap="round"/><path d="M -60.0 490.3 C -52.3 489.5 -29.3 487.4 -14.0 485.8 C 1.3 484.1 16.7 482.3 32.0 480.5 C 47.3 478.6 62.7 476.6 78.0 474.7 C 93.3 472.7 108.7 470.7 124.0 468.7 C 139.3 466.7 154.7 464.7 170.0 462.8 C 185.3 460.9 200.7 459.0 216.0 457.3 C 231.3 455.6 246.7 454.0 262.0 452.6 C 277.3 451.2 292.7 449.9 308.0 448.8 C 323.3 447.7 338.7 446.8 354.0 446.1 C 369.3 445.5 384.7 445.0 400.0 444.8 C 415.3 444.5 430.7 444.5 446.0 444.8 C 461.3 445.0 476.7 445.5 492.0 446.1 C 507.3 446.8 522.7 447.7 538.0 448.8 C 553.3 449.9 568.7 451.2 584.0 452.6 C 599.3 454.1 614.7 455.7 630.0 457.4 C 645.3 459.2 660.7 461.1 676.0 463.1 C 691.3 465.0 706.7 467.1 722.0 469.2 C 737.3 471.3 752.7 473.4 768.0 475.5 C 783.3 477.6 798.7 479.8 814.0 481.8 C 829.3 483.9 844.7 485.9 860.0 487.8 C 875.3 489.7 890.7 491.5 906.0 493.2 C 921.3 494.9 936.7 496.4 952.0 497.8 C 967.3 499.2 982.7 500.4 998.0 501.5 C 1013.3 502.5 1028.7 503.3 1044.0 504.0 C 1059.3 504.7 1074.7 505.1 1090.0 505.4 C 1105.3 505.7 1120.7 505.8 1136.0 505.7 C 1151.3 505.6 1166.7 505.3 1182.0 504.8 C 1197.3 504.4 1212.7 503.7 1228.0 503.0 C 1243.3 502.3 1258.7 501.3 1274.0 500.4 C 1289.3 499.4 1304.7 498.3 1320.0 497.1 C 1335.3 496.0 1350.7 494.7 1366.0 493.4 C 1381.3 492.2 1396.7 490.9 1412.0 489.6 C 1427.3 488.4 1442.7 487.1 1458.0 485.9 C 1473.3 484.7 1488.7 483.5 1504.0 482.4 C 1519.3 481.3 1534.7 480.3 1550.0 479.4 C 1565.3 478.6 1580.7 477.8 1596.0 477.2 C 1611.3 476.5 1634.3 475.9 1642.0 475.7" stroke="#F5F0E8" stroke-width="1" stroke-opacity="0.086" fill="none" stroke-linecap="round"/><path d="M -60.0 512.2 C -52.3 510.7 -29.3 506.2 -14.0 503.3 C 1.3 500.3 16.7 497.3 32.0 494.4 C 47.3 491.5 62.7 488.6 78.0 485.9 C 93.3 483.2 108.7 480.5 124.0 478.1 C 139.3 475.7 154.7 473.4 170.0 471.3 C 185.3 469.2 200.7 467.4 216.0 465.8 C 231.3 464.2 246.7 462.8 262.0 461.7 C 277.3 460.6 292.7 459.7 308.0 459.1 C 323.3 458.6 338.7 458.3 354.0 458.2 C 369.3 458.2 384.7 458.4 400.0 458.9 C 415.3 459.3 430.7 460.1 446.0 461.0 C 461.3 461.9 476.7 463.1 492.0 464.4 C 507.3 465.7 522.7 467.3 538.0 468.9 C 553.3 470.5 568.7 472.4 584.0 474.2 C 599.3 476.1 614.7 478.1 630.0 480.0 C 645.3 482.0 660.7 484.0 676.0 486.0 C 691.3 488.0 706.7 490.0 722.0 491.9 C 737.3 493.7 752.7 495.6 768.0 497.3 C 783.3 498.9 798.7 500.5 814.0 502.0 C 829.3 503.4 844.7 504.6 860.0 505.7 C 875.3 506.8 890.7 507.6 906.0 508.3 C 921.3 509.0 936.7 509.5 952.0 509.7 C 967.3 509.9 982.7 510.0 998.0 509.8 C 1013.3 509.6 1028.7 509.2 1044.0 508.7 C 1059.3 508.1 1074.7 507.3 1090.0 506.4 C 1105.3 505.4 1120.7 504.3 1136.0 503.1 C 1151.3 501.8 1166.7 500.4 1182.0 498.9 C 1197.3 497.5 1212.7 495.9 1228.0 494.2 C 1243.3 492.6 1258.7 490.9 1274.0 489.2 C 1289.3 487.6 1304.7 485.8 1320.0 484.2 C 1335.3 482.6 1350.7 480.9 1366.0 479.4 C 1381.3 477.9 1396.7 476.5 1412.0 475.2 C 1427.3 473.9 1442.7 472.6 1458.0 471.6 C 1473.3 470.6 1488.7 469.7 1504.0 468.9 C 1519.3 468.2 1534.7 467.7 1550.0 467.3 C 1565.3 466.9 1580.7 466.8 1596.0 466.8 C 1611.3 466.8 1634.3 467.2 1642.0 467.3" stroke="#F5F0E8" stroke-width="1" stroke-opacity="0.057" fill="none" stroke-linecap="round"/><path d="M -60.0 513.1 C -52.3 513.9 -29.3 516.0 -14.0 517.6 C 1.3 519.2 16.7 520.9 32.0 522.7 C 47.3 524.5 62.7 526.5 78.0 528.4 C 93.3 530.3 108.7 532.3 124.0 534.3 C 139.3 536.3 154.7 538.3 170.0 540.3 C 185.3 542.2 200.7 544.2 216.0 546.1 C 231.3 548.0 246.7 549.8 262.0 551.5 C 277.3 553.3 292.7 554.9 308.0 556.4 C 323.3 557.9 338.7 559.3 354.0 560.6 C 369.3 561.9 384.7 563.0 400.0 564.0 C 415.3 565.0 430.7 565.8 446.0 566.5 C 461.3 567.1 476.7 567.6 492.0 568.0 C 507.3 568.4 522.7 568.6 538.0 568.6 C 553.3 568.7 568.7 568.6 584.0 568.4 C 599.3 568.2 614.7 567.8 630.0 567.4 C 645.3 566.9 660.7 566.4 676.0 565.7 C 691.3 565.1 706.7 564.3 722.0 563.5 C 737.3 562.7 752.7 561.8 768.0 560.9 C 783.3 560.0 798.7 559.1 814.0 558.1 C 829.3 557.2 844.7 556.2 860.0 555.3 C 875.3 554.3 890.7 553.4 906.0 552.5 C 921.3 551.6 936.7 550.8 952.0 550.0 C 967.3 549.2 982.7 548.5 998.0 547.8 C 1013.3 547.1 1028.7 546.5 1044.0 546.0 C 1059.3 545.5 1074.7 545.1 1090.0 544.7 C 1105.3 544.3 1120.7 544.0 1136.0 543.8 C 1151.3 543.6 1166.7 543.5 1182.0 543.5 C 1197.3 543.4 1212.7 543.4 1228.0 543.5 C 1243.3 543.6 1258.7 543.7 1274.0 543.9 C 1289.3 544.1 1304.7 544.3 1320.0 544.6 C 1335.3 544.9 1350.7 545.2 1366.0 545.5 C 1381.3 545.8 1396.7 546.1 1412.0 546.5 C 1427.3 546.8 1442.7 547.1 1458.0 547.5 C 1473.3 547.8 1488.7 548.1 1504.0 548.4 C 1519.3 548.6 1534.7 548.9 1550.0 549.1 C 1565.3 549.3 1580.7 549.5 1596.0 549.7 C 1611.3 549.8 1634.3 549.9 1642.0 550.0" stroke="#F5F0E8" stroke-width="1.5" stroke-opacity="0.172" fill="none" stroke-linecap="round"/><path d="M -60.0 590.2 C -52.3 590.3 -29.3 590.7 -14.0 590.7 C 1.3 590.8 16.7 590.7 32.0 590.5 C 47.3 590.3 62.7 589.9 78.0 589.4 C 93.3 589.0 108.7 588.3 124.0 587.6 C 139.3 586.9 154.7 586.1 170.0 585.1 C 185.3 584.2 200.7 583.1 216.0 582.0 C 231.3 580.9 246.7 579.7 262.0 578.5 C 277.3 577.2 292.7 575.9 308.0 574.6 C 323.3 573.3 338.7 571.9 354.0 570.6 C 369.3 569.2 384.7 567.8 400.0 566.5 C 415.3 565.2 430.7 563.9 446.0 562.7 C 461.3 561.4 476.7 560.2 492.0 559.1 C 507.3 558.0 522.7 557.0 538.0 556.1 C 553.3 555.2 568.7 554.3 584.0 553.6 C 599.3 552.9 614.7 552.3 630.0 551.8 C 645.3 551.4 660.7 551.0 676.0 550.8 C 691.3 550.6 706.7 550.5 722.0 550.6 C 737.3 550.6 752.7 550.8 768.0 551.1 C 783.3 551.4 798.7 551.8 814.0 552.4 C 829.3 552.9 844.7 553.5 860.0 554.3 C 875.3 555.0 890.7 555.8 906.0 556.7 C 921.3 557.6 936.7 558.6 952.0 559.6 C 967.3 560.6 982.7 561.7 998.0 562.7 C 1013.3 563.8 1028.7 564.9 1044.0 566.0 C 1059.3 567.1 1074.7 568.2 1090.0 569.2 C 1105.3 570.2 1120.7 571.2 1136.0 572.2 C 1151.3 573.1 1166.7 574.0 1182.0 574.8 C 1197.3 575.6 1212.7 576.3 1228.0 576.9 C 1243.3 577.5 1258.7 578.1 1274.0 578.5 C 1289.3 578.8 1304.7 579.1 1320.0 579.3 C 1335.3 579.4 1350.7 579.5 1366.0 579.4 C 1381.3 579.3 1396.7 579.0 1412.0 578.7 C 1427.3 578.3 1442.7 577.8 1458.0 577.2 C 1473.3 576.6 1488.7 575.9 1504.0 575.1 C 1519.3 574.3 1534.7 573.4 1550.0 572.4 C 1565.3 571.4 1580.7 570.3 1596.0 569.1 C 1611.3 568.0 1634.3 566.1 1642.0 565.5" stroke="#F5F0E8" stroke-width="1" stroke-opacity="0.070" fill="none" stroke-linecap="round"/><path d="M -60.0 610.7 C -52.3 610.4 -29.3 609.6 -14.0 609.0 C 1.3 608.5 16.7 607.9 32.0 607.4 C 47.3 606.8 62.7 606.3 78.0 605.8 C 93.3 605.3 108.7 604.8 124.0 604.4 C 139.3 603.9 154.7 603.5 170.0 603.1 C 185.3 602.7 200.7 602.3 216.0 602.0 C 231.3 601.6 246.7 601.3 262.0 601.0 C 277.3 600.7 292.7 600.4 308.0 600.2 C 323.3 599.9 338.7 599.6 354.0 599.4 C 369.3 599.1 384.7 598.9 400.0 598.6 C 415.3 598.4 430.7 598.1 446.0 597.8 C 461.3 597.5 476.7 597.2 492.0 596.9 C 507.3 596.5 522.7 596.2 538.0 595.7 C 553.3 595.3 568.7 594.8 584.0 594.3 C 599.3 593.7 614.7 593.1 630.0 592.4 C 645.3 591.8 660.7 591.0 676.0 590.2 C 691.3 589.3 706.7 588.4 722.0 587.4 C 737.3 586.4 752.7 585.3 768.0 584.1 C 783.3 582.9 798.7 581.7 814.0 580.3 C 829.3 578.9 844.7 577.5 860.0 576.0 C 875.3 574.5 890.7 572.9 906.0 571.2 C 921.3 569.5 936.7 567.8 952.0 566.0 C 967.3 564.3 982.7 562.4 998.0 560.6 C 1013.3 558.8 1028.7 556.9 1044.0 555.0 C 1059.3 553.1 1074.7 551.2 1090.0 549.4 C 1105.3 547.5 1120.7 545.6 1136.0 543.8 C 1151.3 542.0 1166.7 540.3 1182.0 538.6 C 1197.3 536.9 1212.7 535.3 1228.0 533.7 C 1243.3 532.2 1258.7 530.7 1274.0 529.4 C 1289.3 528.1 1304.7 526.8 1320.0 525.7 C 1335.3 524.6 1350.7 523.6 1366.0 522.8 C 1381.3 521.9 1396.7 521.2 1412.0 520.6 C 1427.3 520.0 1442.7 519.6 1458.0 519.3 C 1473.3 518.9 1488.7 518.8 1504.0 518.7 C 1519.3 518.7 1534.7 518.8 1550.0 518.9 C 1565.3 519.1 1580.7 519.4 1596.0 519.8 C 1611.3 520.2 1634.3 521.0 1642.0 521.3" stroke="#F5F0E8" stroke-width="1" stroke-opacity="0.073" fill="none" stroke-linecap="round"/><path d="M -60.0 652.2 C -52.3 651.5 -29.3 649.6 -14.0 648.2 C 1.3 646.8 16.7 645.3 32.0 643.7 C 47.3 642.2 62.7 640.6 78.0 639.1 C 93.3 637.5 108.7 635.9 124.0 634.4 C 139.3 632.9 154.7 631.4 170.0 630.1 C 185.3 628.7 200.7 627.4 216.0 626.3 C 231.3 625.2 246.7 624.2 262.0 623.4 C 277.3 622.6 292.7 621.9 308.0 621.5 C 323.3 621.1 338.7 620.8 354.0 620.8 C 369.3 620.8 384.7 621.0 400.0 621.4 C 415.3 621.9 430.7 622.5 446.0 623.4 C 461.3 624.3 476.7 625.4 492.0 626.8 C 507.3 628.1 522.7 629.7 538.0 631.4 C 553.3 633.1 568.7 635.1 584.0 637.2 C 599.3 639.2 614.7 641.5 630.0 643.9 C 645.3 646.2 660.7 648.8 676.0 651.3 C 691.3 653.9 706.7 656.5 722.0 659.2 C 737.3 661.9 752.7 664.6 768.0 667.2 C 783.3 669.9 798.7 672.6 814.0 675.1 C 829.3 677.7 844.7 680.2 860.0 682.6 C 875.3 685.0 890.7 687.3 906.0 689.4 C 921.3 691.4 936.7 693.4 952.0 695.1 C 967.3 696.9 982.7 698.5 998.0 699.8 C 1013.3 701.1 1028.7 702.2 1044.0 703.1 C 1059.3 704.0 1074.7 704.7 1090.0 705.1 C 1105.3 705.5 1120.7 705.7 1136.0 705.7 C 1151.3 705.6 1166.7 705.3 1182.0 704.9 C 1197.3 704.4 1212.7 703.7 1228.0 702.8 C 1243.3 702.0 1258.7 700.9 1274.0 699.7 C 1289.3 698.5 1304.7 697.1 1320.0 695.7 C 1335.3 694.2 1350.7 692.7 1366.0 691.0 C 1381.3 689.4 1396.7 687.7 1412.0 686.0 C 1427.3 684.3 1442.7 682.6 1458.0 680.9 C 1473.3 679.3 1488.7 677.6 1504.0 676.0 C 1519.3 674.4 1534.7 672.9 1550.0 671.5 C 1565.3 670.1 1580.7 668.9 1596.0 667.7 C 1611.3 666.6 1634.3 665.3 1642.0 664.8" stroke="#F5F0E8" stroke-width="1" stroke-opacity="0.089" fill="none" stroke-linecap="round"/><path d="M -60.0 705.8 C -52.3 706.0 -29.3 706.9 -14.0 707.1 C 1.3 707.3 16.7 707.3 32.0 707.0 C 47.3 706.7 62.7 706.2 78.0 705.4 C 93.3 704.7 108.7 703.7 124.0 702.5 C 139.3 701.3 154.7 699.9 170.0 698.3 C 185.3 696.8 200.7 695.0 216.0 693.2 C 231.3 691.3 246.7 689.3 262.0 687.3 C 277.3 685.3 292.7 683.1 308.0 681.0 C 323.3 678.9 338.7 676.7 354.0 674.6 C 369.3 672.5 384.7 670.4 400.0 668.4 C 415.3 666.4 430.7 664.4 446.0 662.6 C 461.3 660.8 476.7 659.0 492.0 657.3 C 507.3 655.7 522.7 654.2 538.0 652.7 C 553.3 651.3 568.7 650.0 584.0 648.8 C 599.3 647.6 614.7 646.6 630.0 645.6 C 645.3 644.6 660.7 643.7 676.0 642.8 C 691.3 642.0 706.7 641.2 722.0 640.5 C 737.3 639.8 752.7 639.1 768.0 638.4 C 783.3 637.7 798.7 637.1 814.0 636.4 C 829.3 635.7 844.7 635.0 860.0 634.2 C 875.3 633.4 890.7 632.6 906.0 631.7 C 921.3 630.8 936.7 629.9 952.0 628.9 C 967.3 627.8 982.7 626.7 998.0 625.5 C 1013.3 624.4 1028.7 623.1 1044.0 621.7 C 1059.3 620.4 1074.7 618.9 1090.0 617.4 C 1105.3 616.0 1120.7 614.4 1136.0 612.8 C 1151.3 611.2 1166.7 609.5 1182.0 607.9 C 1197.3 606.2 1212.7 604.5 1228.0 602.8 C 1243.3 601.2 1258.7 599.5 1274.0 597.8 C 1289.3 596.2 1304.7 594.6 1320.0 593.1 C 1335.3 591.6 1350.7 590.2 1366.0 588.8 C 1381.3 587.5 1396.7 586.2 1412.0 585.1 C 1427.3 584.0 1442.7 583.0 1458.0 582.1 C 1473.3 581.3 1488.7 580.5 1504.0 579.9 C 1519.3 579.4 1534.7 579.0 1550.0 578.7 C 1565.3 578.4 1580.7 578.3 1596.0 578.3 C 1611.3 578.3 1634.3 578.7 1642.0 578.8" stroke="#F5F0E8" stroke-width="1.5" stroke-opacity="0.172" fill="none" stroke-linecap="round"/><path d="M -60.0 713.4 C -52.3 714.4 -29.3 717.3 -14.0 719.1 C 1.3 720.8 16.7 722.6 32.0 724.1 C 47.3 725.6 62.7 727.0 78.0 728.1 C 93.3 729.2 108.7 730.1 124.0 730.7 C 139.3 731.3 154.7 731.7 170.0 731.8 C 185.3 732.0 200.7 731.8 216.0 731.4 C 231.3 731.0 246.7 730.3 262.0 729.5 C 277.3 728.6 292.7 727.5 308.0 726.3 C 323.3 725.1 338.7 723.7 354.0 722.3 C 369.3 720.9 384.7 719.3 400.0 717.8 C 415.3 716.3 430.7 714.7 446.0 713.2 C 461.3 711.8 476.7 710.3 492.0 709.0 C 507.3 707.8 522.7 706.6 538.0 705.6 C 553.3 704.6 568.7 703.7 584.0 703.1 C 599.3 702.4 614.7 701.9 630.0 701.7 C 645.3 701.4 660.7 701.3 676.0 701.4 C 691.3 701.4 706.7 701.7 722.0 702.1 C 737.3 702.4 752.7 703.0 768.0 703.5 C 783.3 704.1 798.7 704.8 814.0 705.4 C 829.3 706.1 844.7 706.8 860.0 707.5 C 875.3 708.1 890.7 708.8 906.0 709.3 C 921.3 709.8 936.7 710.3 952.0 710.6 C 967.3 710.9 982.7 711.1 998.0 711.1 C 1013.3 711.2 1028.7 711.1 1044.0 710.8 C 1059.3 710.5 1074.7 710.1 1090.0 709.5 C 1105.3 709.0 1120.7 708.2 1136.0 707.4 C 1151.3 706.6 1166.7 705.7 1182.0 704.7 C 1197.3 703.8 1212.7 702.7 1228.0 701.7 C 1243.3 700.7 1258.7 699.6 1274.0 698.6 C 1289.3 697.7 1304.7 696.7 1320.0 696.0 C 1335.3 695.2 1350.7 694.5 1366.0 694.0 C 1381.3 693.4 1396.7 693.1 1412.0 692.9 C 1427.3 692.7 1442.7 692.7 1458.0 692.9 C 1473.3 693.1 1488.7 693.5 1504.0 694.1 C 1519.3 694.7 1534.7 695.5 1550.0 696.4 C 1565.3 697.3 1580.7 698.4 1596.0 699.6 C 1611.3 700.7 1634.3 702.7 1642.0 703.4" stroke="#F5F0E8" stroke-width="1" stroke-opacity="0.061" fill="none" stroke-linecap="round"/><path d="M -60.0 718.6 C -52.3 718.0 -29.3 716.0 -14.0 715.0 C 1.3 714.1 16.7 713.3 32.0 712.7 C 47.3 712.1 62.7 711.8 78.0 711.6 C 93.3 711.5 108.7 711.5 124.0 711.8 C 139.3 712.1 154.7 712.5 170.0 713.2 C 185.3 713.8 200.7 714.7 216.0 715.7 C 231.3 716.7 246.7 717.8 262.0 719.1 C 277.3 720.4 292.7 721.8 308.0 723.3 C 323.3 724.8 338.7 726.4 354.0 728.0 C 369.3 729.7 384.7 731.4 400.0 733.1 C 415.3 734.8 430.7 736.5 446.0 738.2 C 461.3 739.9 476.7 741.6 492.0 743.2 C 507.3 744.8 522.7 746.4 538.0 747.8 C 553.3 749.3 568.7 750.7 584.0 752.0 C 599.3 753.3 614.7 754.5 630.0 755.6 C 645.3 756.7 660.7 757.7 676.0 758.6 C 691.3 759.5 706.7 760.2 722.0 760.9 C 737.3 761.6 752.7 762.1 768.0 762.6 C 783.3 763.0 798.7 763.4 814.0 763.7 C 829.3 764.0 844.7 764.2 860.0 764.4 C 875.3 764.6 890.7 764.7 906.0 764.8 C 921.3 764.9 936.7 765.0 952.0 765.1 C 967.3 765.2 982.7 765.2 998.0 765.4 C 1013.3 765.5 1028.7 765.6 1044.0 765.8 C 1059.3 766.0 1074.7 766.3 1090.0 766.6 C 1105.3 766.9 1120.7 767.3 1136.0 767.7 C 1151.3 768.2 1166.7 768.7 1182.0 769.3 C 1197.3 769.9 1212.7 770.6 1228.0 771.3 C 1243.3 772.1 1258.7 772.9 1274.0 773.8 C 1289.3 774.7 1304.7 775.7 1320.0 776.6 C 1335.3 777.6 1350.7 778.7 1366.0 779.7 C 1381.3 780.7 1396.7 781.8 1412.0 782.8 C 1427.3 783.9 1442.7 784.9 1458.0 785.9 C 1473.3 786.8 1488.7 787.8 1504.0 788.6 C 1519.3 789.4 1534.7 790.2 1550.0 790.8 C 1565.3 791.5 1580.7 792.0 1596.0 792.4 C 1611.3 792.7 1634.3 792.9 1642.0 793.1" stroke="#F5F0E8" stroke-width="1" stroke-opacity="0.082" fill="none" stroke-linecap="round"/><path d="M -60.0 786.3 C -52.3 786.8 -29.3 788.6 -14.0 789.7 C 1.3 790.9 16.7 792.1 32.0 793.2 C 47.3 794.4 62.7 795.5 78.0 796.7 C 93.3 797.8 108.7 798.9 124.0 800.0 C 139.3 801.1 154.7 802.2 170.0 803.2 C 185.3 804.2 200.7 805.2 216.0 806.2 C 231.3 807.1 246.7 808.0 262.0 808.9 C 277.3 809.7 292.7 810.5 308.0 811.2 C 323.3 811.9 338.7 812.6 354.0 813.1 C 369.3 813.7 384.7 814.2 400.0 814.6 C 415.3 815.1 430.7 815.4 446.0 815.6 C 461.3 815.9 476.7 816.1 492.0 816.1 C 507.3 816.2 522.7 816.2 538.0 816.1 C 553.3 816.0 568.7 815.8 584.0 815.5 C 599.3 815.2 614.7 814.9 630.0 814.4 C 645.3 813.9 660.7 813.4 676.0 812.7 C 691.3 812.1 706.7 811.4 722.0 810.6 C 737.3 809.8 752.7 808.9 768.0 807.9 C 783.3 807.0 798.7 806.0 814.0 804.9 C 829.3 803.8 844.7 802.7 860.0 801.5 C 875.3 800.3 890.7 799.0 906.0 797.8 C 921.3 796.5 936.7 795.2 952.0 793.8 C 967.3 792.5 982.7 791.1 998.0 789.8 C 1013.3 788.4 1028.7 787.0 1044.0 785.6 C 1059.3 784.3 1074.7 782.9 1090.0 781.6 C 1105.3 780.2 1120.7 778.9 1136.0 777.6 C 1151.3 776.3 1166.7 775.1 1182.0 773.9 C 1197.3 772.7 1212.7 771.5 1228.0 770.4 C 1243.3 769.4 1258.7 768.3 1274.0 767.4 C 1289.3 766.5 1304.7 765.6 1320.0 764.9 C 1335.3 764.1 1350.7 763.4 1366.0 762.8 C 1381.3 762.2 1396.7 761.8 1412.0 761.4 C 1427.3 761.0 1442.7 760.7 1458.0 760.6 C 1473.3 760.4 1488.7 760.4 1504.0 760.5 C 1519.3 760.5 1534.7 760.7 1550.0 761.0 C 1565.3 761.3 1580.7 761.7 1596.0 762.3 C 1611.3 762.8 1634.3 763.9 1642.0 764.2" stroke="#F5F0E8" stroke-width="1" stroke-opacity="0.063" fill="none" stroke-linecap="round"/><path d="M -60.0 812.1 C -52.3 812.3 -29.3 813.0 -14.0 813.6 C 1.3 814.1 16.7 814.7 32.0 815.2 C 47.3 815.8 62.7 816.4 78.0 817.0 C 93.3 817.7 108.7 818.3 124.0 818.9 C 139.3 819.6 154.7 820.2 170.0 820.8 C 185.3 821.5 200.7 822.1 216.0 822.7 C 231.3 823.3 246.7 823.9 262.0 824.5 C 277.3 825.0 292.7 825.6 308.0 826.1 C 323.3 826.6 338.7 827.1 354.0 827.5 C 369.3 827.9 384.7 828.4 400.0 828.7 C 415.3 829.1 430.7 829.4 446.0 829.7 C 461.3 830.0 476.7 830.2 492.0 830.4 C 507.3 830.6 522.7 830.7 538.0 830.8 C 553.3 830.9 568.7 831.0 584.0 831.0 C 599.3 831.1 614.7 831.0 630.0 831.0 C 645.3 831.0 660.7 830.9 676.0 830.8 C 691.3 830.7 706.7 830.5 722.0 830.4 C 737.3 830.2 752.7 830.0 768.0 829.9 C 783.3 829.7 798.7 829.5 814.0 829.3 C 829.3 829.1 844.7 828.9 860.0 828.7 C 875.3 828.5 890.7 828.3 906.0 828.1 C 921.3 827.9 936.7 827.7 952.0 827.6 C 967.3 827.5 982.7 827.3 998.0 827.3 C 1013.3 827.2 1028.7 827.1 1044.0 827.1 C 1059.3 827.1 1074.7 827.1 1090.0 827.1 C 1105.3 827.2 1120.7 827.3 1136.0 827.4 C 1151.3 827.5 1166.7 827.7 1182.0 827.9 C 1197.3 828.1 1212.7 828.4 1228.0 828.7 C 1243.3 829.0 1258.7 829.4 1274.0 829.8 C 1289.3 830.2 1304.7 830.6 1320.0 831.1 C 1335.3 831.5 1350.7 832.0 1366.0 832.6 C 1381.3 833.1 1396.7 833.7 1412.0 834.3 C 1427.3 834.9 1442.7 835.5 1458.0 836.2 C 1473.3 836.8 1488.7 837.5 1504.0 838.1 C 1519.3 838.8 1534.7 839.5 1550.0 840.2 C 1565.3 840.9 1580.7 841.6 1596.0 842.2 C 1611.3 842.9 1634.3 843.9 1642.0 844.2" stroke="#F5F0E8" stroke-width="1.5" stroke-opacity="0.176" fill="none" stroke-linecap="round"/><path d="M -60.0 869.4 C -52.3 869.1 -29.3 868.0 -14.0 867.2 C 1.3 866.4 16.7 865.6 32.0 864.7 C 47.3 863.8 62.7 862.9 78.0 861.9 C 93.3 861.0 108.7 860.0 124.0 859.1 C 139.3 858.1 154.7 857.2 170.0 856.2 C 185.3 855.3 200.7 854.4 216.0 853.5 C 231.3 852.6 246.7 851.8 262.0 851.0 C 277.3 850.2 292.7 849.4 308.0 848.8 C 323.3 848.1 338.7 847.4 354.0 846.8 C 369.3 846.3 384.7 845.7 400.0 845.3 C 415.3 844.8 430.7 844.4 446.0 844.0 C 461.3 843.6 476.7 843.3 492.0 843.0 C 507.3 842.8 522.7 842.5 538.0 842.3 C 553.3 842.1 568.7 841.9 584.0 841.7 C 599.3 841.5 614.7 841.3 630.0 841.1 C 645.3 840.9 660.7 840.7 676.0 840.5 C 691.3 840.2 706.7 840.0 722.0 839.7 C 737.3 839.3 752.7 839.0 768.0 838.6 C 783.3 838.2 798.7 837.7 814.0 837.2 C 829.3 836.7 844.7 836.1 860.0 835.4 C 875.3 834.7 890.7 834.0 906.0 833.2 C 921.3 832.4 936.7 831.5 952.0 830.5 C 967.3 829.6 982.7 828.5 998.0 827.4 C 1013.3 826.4 1028.7 825.2 1044.0 824.0 C 1059.3 822.8 1074.7 821.6 1090.0 820.3 C 1105.3 819.0 1120.7 817.7 1136.0 816.4 C 1151.3 815.1 1166.7 813.8 1182.0 812.5 C 1197.3 811.2 1212.7 809.9 1228.0 808.6 C 1243.3 807.3 1258.7 806.1 1274.0 804.9 C 1289.3 803.8 1304.7 802.7 1320.0 801.6 C 1335.3 800.6 1350.7 799.6 1366.0 798.8 C 1381.3 797.9 1396.7 797.1 1412.0 796.5 C 1427.3 795.8 1442.7 795.2 1458.0 794.8 C 1473.3 794.4 1488.7 794.0 1504.0 793.8 C 1519.3 793.6 1534.7 793.5 1550.0 793.5 C 1565.3 793.5 1580.7 793.7 1596.0 793.9 C 1611.3 794.1 1634.3 794.7 1642.0 794.9" stroke="#F5F0E8" stroke-width="1" stroke-opacity="0.065" fill="none" stroke-linecap="round"/><path d="M -60.0 885.7 C -52.3 886.1 -29.3 887.3 -14.0 888.0 C 1.3 888.8 16.7 889.6 32.0 890.4 C 47.3 891.2 62.7 892.0 78.0 892.8 C 93.3 893.6 108.7 894.4 124.0 895.2 C 139.3 896.0 154.7 896.9 170.0 897.7 C 185.3 898.4 200.7 899.2 216.0 900.0 C 231.3 900.8 246.7 901.6 262.0 902.3 C 277.3 903.0 292.7 903.8 308.0 904.5 C 323.3 905.2 338.7 905.8 354.0 906.5 C 369.3 907.1 384.7 907.8 400.0 908.4 C 415.3 908.9 430.7 909.5 446.0 910.0 C 461.3 910.5 476.7 911.0 492.0 911.5 C 507.3 911.9 522.7 912.3 538.0 912.7 C 553.3 913.0 568.7 913.4 584.0 913.6 C 599.3 913.9 614.7 914.1 630.0 914.3 C 645.3 914.5 660.7 914.7 676.0 914.8 C 691.3 914.9 706.7 914.9 722.0 914.9 C 737.3 914.9 752.7 914.9 768.0 914.8 C 783.3 914.7 798.7 914.6 814.0 914.4 C 829.3 914.2 844.7 914.0 860.0 913.8 C 875.3 913.5 890.7 913.2 906.0 912.9 C 921.3 912.5 936.7 912.1 952.0 911.7 C 967.3 911.3 982.7 910.9 998.0 910.4 C 1013.3 909.9 1028.7 909.4 1044.0 908.9 C 1059.3 908.4 1074.7 907.8 1090.0 907.2 C 1105.3 906.7 1120.7 906.1 1136.0 905.4 C 1151.3 904.8 1166.7 904.2 1182.0 903.5 C 1197.3 902.9 1212.7 902.2 1228.0 901.6 C 1243.3 900.9 1258.7 900.3 1274.0 899.6 C 1289.3 898.9 1304.7 898.3 1320.0 897.6 C 1335.3 896.9 1350.7 896.3 1366.0 895.6 C 1381.3 895.0 1396.7 894.4 1412.0 893.7 C 1427.3 893.1 1442.7 892.5 1458.0 892.0 C 1473.3 891.4 1488.7 890.8 1504.0 890.3 C 1519.3 889.8 1534.7 889.2 1550.0 888.8 C 1565.3 888.3 1580.7 887.8 1596.0 887.4 C 1611.3 887.0 1634.3 886.5 1642.0 886.3" stroke="#F5F0E8" stroke-width="1" stroke-opacity="0.065" fill="none" stroke-linecap="round"/><path d="M -60.0 919.0 C -52.3 919.1 -29.3 919.4 -14.0 919.6 C 1.3 919.8 16.7 920.0 32.0 920.1 C 47.3 920.3 62.7 920.5 78.0 920.6 C 93.3 920.7 108.7 920.8 124.0 920.9 C 139.3 921.1 154.7 921.1 170.0 921.2 C 185.3 921.3 200.7 921.4 216.0 921.5 C 231.3 921.7 246.7 921.8 262.0 922.0 C 277.3 922.1 292.7 922.3 308.0 922.6 C 323.3 922.9 338.7 923.2 354.0 923.7 C 369.3 924.1 384.7 924.6 400.0 925.2 C 415.3 925.9 430.7 926.6 446.0 927.4 C 461.3 928.2 476.7 929.2 492.0 930.2 C 507.3 931.3 522.7 932.5 538.0 933.7 C 553.3 934.9 568.7 936.3 584.0 937.7 C 599.3 939.1 614.7 940.6 630.0 942.1 C 645.3 943.6 660.7 945.2 676.0 946.7 C 691.3 948.2 706.7 949.7 722.0 951.1 C 737.3 952.6 752.7 954.0 768.0 955.3 C 783.3 956.5 798.7 957.7 814.0 958.8 C 829.3 959.8 844.7 960.7 860.0 961.4 C 875.3 962.1 890.7 962.7 906.0 963.1 C 921.3 963.4 936.7 963.6 952.0 963.6 C 967.3 963.6 982.7 963.4 998.0 963.1 C 1013.3 962.7 1028.7 962.2 1044.0 961.6 C 1059.3 960.9 1074.7 960.1 1090.0 959.3 C 1105.3 958.5 1120.7 957.5 1136.0 956.6 C 1151.3 955.7 1166.7 954.7 1182.0 953.8 C 1197.3 952.9 1212.7 952.0 1228.0 951.2 C 1243.3 950.5 1258.7 949.7 1274.0 949.2 C 1289.3 948.7 1304.7 948.3 1320.0 948.2 C 1335.3 948.0 1350.7 948.0 1366.0 948.2 C 1381.3 948.5 1396.7 948.9 1412.0 949.5 C 1427.3 950.2 1442.7 951.1 1458.0 952.1 C 1473.3 953.1 1488.7 954.4 1504.0 955.8 C 1519.3 957.1 1534.7 958.7 1550.0 960.3 C 1565.3 962.0 1580.7 963.7 1596.0 965.5 C 1611.3 967.2 1634.3 969.9 1642.0 970.8" stroke="#F5F0E8" stroke-width="1" stroke-opacity="0.060" fill="none" stroke-linecap="round"/><path d="M -60.0 964.0 C -52.3 964.0 -29.3 964.2 -14.0 964.2 C 1.3 964.3 16.7 964.3 32.0 964.3 C 47.3 964.3 62.7 964.3 78.0 964.2 C 93.3 964.2 108.7 964.1 124.0 963.9 C 139.3 963.8 154.7 963.6 170.0 963.4 C 185.3 963.2 200.7 963.0 216.0 962.8 C 231.3 962.5 246.7 962.2 262.0 961.9 C 277.3 961.6 292.7 961.2 308.0 960.9 C 323.3 960.5 338.7 960.1 354.0 959.7 C 369.3 959.3 384.7 958.9 400.0 958.5 C 415.3 958.1 430.7 957.6 446.0 957.2 C 461.3 956.7 476.7 956.3 492.0 955.8 C 507.3 955.4 522.7 954.9 538.0 954.5 C 553.3 954.0 568.7 953.6 584.0 953.1 C 599.3 952.7 614.7 952.3 630.0 951.9 C 645.3 951.4 660.7 951.0 676.0 950.7 C 691.3 950.3 706.7 949.9 722.0 949.5 C 737.3 949.2 752.7 948.9 768.0 948.5 C 783.3 948.2 798.7 947.9 814.0 947.7 C 829.3 947.4 844.7 947.1 860.0 946.9 C 875.3 946.7 890.7 946.4 906.0 946.2 C 921.3 946.0 936.7 945.9 952.0 945.7 C 967.3 945.5 982.7 945.3 998.0 945.2 C 1013.3 945.0 1028.7 944.9 1044.0 944.8 C 1059.3 944.6 1074.7 944.5 1090.0 944.4 C 1105.3 944.2 1120.7 944.1 1136.0 944.0 C 1151.3 943.8 1166.7 943.7 1182.0 943.5 C 1197.3 943.4 1212.7 943.2 1228.0 943.1 C 1243.3 942.9 1258.7 942.7 1274.0 942.5 C 1289.3 942.3 1304.7 942.1 1320.0 941.9 C 1335.3 941.6 1350.7 941.4 1366.0 941.1 C 1381.3 940.8 1396.7 940.6 1412.0 940.2 C 1427.3 939.9 1442.7 939.6 1458.0 939.3 C 1473.3 938.9 1488.7 938.5 1504.0 938.1 C 1519.3 937.8 1534.7 937.3 1550.0 936.9 C 1565.3 936.5 1580.7 936.1 1596.0 935.6 C 1611.3 935.2 1634.3 934.5 1642.0 934.3" stroke="#F5F0E8" stroke-width="1.5" stroke-opacity="0.207" fill="none" stroke-linecap="round"/></g>
<path d="M -60.0 417.1 C -52.3 417.3 -29.3 418.0 -14.0 418.5 C 1.3 419.1 16.7 419.6 32.0 420.2 C 47.3 420.7 62.7 421.3 78.0 421.8 C 93.3 422.4 108.7 422.9 124.0 423.4 C 139.3 423.9 154.7 424.4 170.0 424.9 C 185.3 425.3 200.7 425.7 216.0 426.0 C 231.3 426.2 246.7 426.5 262.0 426.6 C 277.3 426.7 292.7 426.8 308.0 426.7 C 323.3 426.7 338.7 426.5 354.0 426.3 C 369.3 426.0 384.7 425.6 400.0 425.1 C 415.3 424.7 430.7 424.1 446.0 423.4 C 461.3 422.7 476.7 421.9 492.0 421.1 C 507.3 420.2 522.7 419.3 538.0 418.3 C 553.3 417.3 568.7 416.2 584.0 415.1 C 599.3 414.1 614.7 412.9 630.0 411.8 C 645.3 410.7 660.7 409.5 676.0 408.4 C 691.3 407.3 706.7 406.2 722.0 405.1 C 737.3 404.1 752.7 403.1 768.0 402.2 C 783.3 401.3 798.7 400.4 814.0 399.7 C 829.3 398.9 844.7 398.3 860.0 397.8 C 875.3 397.3 890.7 396.9 906.0 396.6 C 921.3 396.3 936.7 396.2 952.0 396.1 C 967.3 396.1 982.7 396.2 998.0 396.5 C 1013.3 396.7 1028.7 397.1 1044.0 397.5 C 1059.3 398.0 1074.7 398.6 1090.0 399.3 C 1105.3 400.0 1120.7 400.7 1136.0 401.6 C 1151.3 402.4 1166.7 403.4 1182.0 404.3 C 1197.3 405.3 1212.7 406.3 1228.0 407.4 C 1243.3 408.4 1258.7 409.5 1274.0 410.5 C 1289.3 411.5 1304.7 412.6 1320.0 413.6 C 1335.3 414.6 1350.7 415.6 1366.0 416.6 C 1381.3 417.5 1396.7 418.4 1412.0 419.2 C 1427.3 420.0 1442.7 420.8 1458.0 421.5 C 1473.3 422.2 1488.7 422.8 1504.0 423.3 C 1519.3 423.9 1534.7 424.3 1550.0 424.7 C 1565.3 425.1 1580.7 425.4 1596.0 425.7 C 1611.3 426.0 1634.3 426.2 1642.0 426.3" stroke="#C9A96E" stroke-width="2" stroke-opacity="0.5" fill="none" stroke-linecap="round"/>
<rect width="1600" height="900" fill="url(#vig)"/>
<rect width="1600" height="900" filter="url(#grain)" opacity="0.05"/>
</svg>