<svg xmlns="http://www.w3.org/2000/svg" preserveAspectRatio="xMidYMid slice" viewBox="0 0 1600 900"><defs><radialGradient id="b" cx=".296" cy=".311" r=".75"><stop offset="0" stop-color="#c9a96e" stop-opacity=".15"/><stop offset="1" stop-color="#c9a96e" stop-opacity="0"/></radialGradient><radialGradient id="c" cx=".5" cy=".5" r=".75"><stop offset=".5" stop-opacity="0"/><stop offset="1" stop-opacity=".5"/></radialGradient><linearGradient id="a" x1="0" x2="0" y1="0" y2="1"><stop offset="0" stop-color="#0b160f"/><stop offset="1" stop-color="#15271b"/></linearGradient><filter id="d"><feTurbulence baseFrequency=".9" numOctaves="2" stitchTiles="stitch" type="fractalNoise"/><feColorMatrix values="0 0 0 0 0 0 0 0 0 0 0 0 0 0 0 0 0 0 0.55 0"/></filter></defs><path fill="url(#a)" d="M0 0h1600v900H0z"/><path fill="url(#b)" d="M0 0h1600v900H0z"/><path fill="#c9a96e" fill-opacity=".028" d="M-60 492.4c7.7.9 30.7 3.4 46 5.2s30.7 3.8 46 5.8c15.3 1.9 30.7 4 46 6.1s30.7 4.2 46 6.4c15.3 2.1 30.7 4.3 46 6.4 15.3 2.2 30.7 4.3 46 6.4s30.7 4.2 46 6.2 30.7 3.9 46 5.8c15.3 1.8 30.7 3.6 46 5.3s30.7 3.2 46 4.7c15.3 1.4 30.7 2.7 46 3.9s30.7 2.3 46 3.2 30.7 1.7 46 2.3c15.3.7 30.7 1.2 46 1.5s30.7.5 46 .6 30.7 0 46-.2c15.3-.3 30.7-.6 46-1.1s30.7-1.1 46-1.8c15.3-.6 30.7-1.5 46-2.3 15.3-.9 30.7-1.9 46-3 15.3-1 30.7-2.1 46-3.3 15.3-1.1 30.7-2.4 46-3.6s30.7-2.5 46-3.7 30.7-2.5 46-3.7 30.7-2.4 46-3.6c15.3-1.1 30.7-2.2 46-3.3 15.3-1 30.7-2 46-2.9 15.3-.8 30.7-1.6 46-2.3s30.7-1.3 46-1.8 30.7-.9 46-1.1c15.3-.3 30.7-.4 46-.4s30.7.1 46 .3c15.3.3 30.7.7 46 1.2s30.7 1.1 46 1.9c15.3.7 30.7 1.6 46 2.6s30.7 2.1 46 3.2c15.3 1.2 35.3-67.2 46 3.9s301.7 352.3 18 422.8-1433.3 0-1720 0Z"/><g fill="none" stroke="#f5f0e8" stroke-linecap="round"><path stroke-opacity=".059" d="M-60-69.2c7.7.1 30.7.2 46 .4 15.3.3 30.7.5 46 .9 15.3.3 30.7.7 46 1.2s30.7 1 46 1.6 30.7 1.3 46 2.1c15.3.7 30.7 1.6 46 2.4 15.3.9 30.7 1.8 46 2.8s30.7 2 46 3 30.7 2.1 46 3.1c15.3 1.1 30.7 2.1 46 3.1 15.3 1.1 30.7 2.1 46 3s30.7 1.9 46 2.7 30.7 1.6 46 2.2c15.3.7 30.7 1.3 46 1.7 15.3.5 30.7.8 46 1 15.3.3 30.7.4 46 .3 15.3 0 30.7-.2 46-.4 15.3-.3 30.7-.8 46-1.3s30.7-1.2 46-2c15.3-.7 30.7-1.6 46-2.6 15.3-.9 30.7-2 46-3.1s30.7-2.3 46-3.5c15.3-1.3 30.7-2.5 46-3.8 15.3-1.2 30.7-2.5 46-3.7s30.7-2.4 46-3.5 30.7-2.2 46-3.1c15.3-1 30.7-1.9 46-2.6s30.7-1.3 46-1.8 30.7-.8 46-.9c15.3-.2 30.7-.2 46 0 15.3.1 30.7.4 46 .9s30.7 1.2 46 2 30.7 1.8 46 2.9c15.3 1 30.7 2.3 46 3.6s30.7 2.8 46 4.3 30.7 3.2 46 4.8 38.3 4.2 46 5"/><path stroke-opacity=".234" stroke-width="1.5" d="M-60-21.3c7.7-.3 30.7-1.4 46-2.3s30.7-1.9 46-3c15.3-1 30.7-2.2 46-3.3 15.3-1.2 30.7-2.5 46-3.7 15.3-1.3 30.7-2.5 46-3.8 15.3-1.2 30.7-2.5 46-3.6 15.3-1.2 30.7-2.4 46-3.4s30.7-2 46-2.8 30.7-1.6 46-2.1c15.3-.6 30.7-1.1 46-1.4s30.7-.5 46-.5 30.7.1 46 .4 30.7.7 46 1.2 30.7 1.2 46 1.9 30.7 1.6 46 2.4c15.3.9 30.7 1.9 46 2.8 15.3 1 30.7 2 46 3 15.3.9 30.7 1.9 46 2.8s30.7 1.8 46 2.5c15.3.8 30.7 1.5 46 2 15.3.6 30.7 1.1 46 1.4s30.7.5 46 .5c15.3.1 30.7 0 46-.2s30.7-.6 46-1c15.3-.5 30.7-1.1 46-1.8s30.7-1.6 46-2.4c15.3-.9 30.7-1.9 46-2.9s30.7-2.1 46-3.2 30.7-2.2 46-3.3c15.3-1 30.7-2.1 46-3.1s30.7-2 46-3c15.3-.9 30.7-1.7 46-2.5 15.3-.7 30.7-1.4 46-2s30.7-1.1 46-1.6c15.3-.4 30.7-.7 46-1s30.7-.5 46-.6c15.3-.2 38.3-.2 46-.3"/><path stroke-opacity=".092" d="M-60 19.9c7.7-.6 30.7-2.1 46-3.3s30.7-2.5 46-3.9 30.7-2.9 46-4.4 30.7-3.1 46-4.6S154.7.6 170-.8s30.7-2.8 46-4.1c15.3-1.2 30.7-2.4 46-3.4s30.7-1.9 46-2.5c15.3-.7 30.7-1.2 46-1.4 15.3-.3 30.7-.3 46-.2a1765 1765 0 0 1 92 3.6c15.3 1.1 30.7 2.3 46 3.7 15.3 1.5 30.7 3.1 46 4.8 15.3 1.8 30.7 3.8 46 5.8s30.7 4.2 46 6.4 30.7 4.5 46 6.7c15.3 2.3 30.7 4.6 46 6.9 15.3 2.2 30.7 4.5 46 6.6 15.3 2.2 30.7 4.3 46 6.2s30.7 3.7 46 5.4c15.3 1.6 30.7 3.1 46 4.4s30.7 2.4 46 3.4c15.3.9 30.7 1.6 46 2.1 15.3.6 30.7.9 46 1 15.3.2 30.7.1 46-.1s30.7-.6 46-1.2c15.3-.5 30.7-1.1 46-1.9 15.3-.7 30.7-1.6 46-2.5s30.7-1.9 46-2.8c15.3-1 30.7-2 46-2.9s30.7-1.8 46-2.6a3538 3538 0 0 1 92-3.6c15.3-.3 30.7-.5 46-.6 15.3 0 30.7.1 46 .4s38.3 1.2 46 1.4"/><path stroke-opacity=".092" d="M-60 52.9c7.7-.5 30.7-2.1 46-3.3 15.3-1.3 30.7-2.7 46-4.1s30.7-3 46-4.4c15.3-1.5 30.7-3 46-4.3 15.3-1.4 30.7-2.7 46-3.8s30.7-2.2 46-2.9c15.3-.8 30.7-1.4 46-1.8s30.7-.5 46-.4 30.7.5 46 1c15.3.6 30.7 1.5 46 2.5s30.7 2.3 46 3.7c15.3 1.3 30.7 2.9 46 4.6 15.3 1.6 30.7 3.5 46 5.3 15.3 1.7 30.7 3.6 46 5.4s30.7 3.7 46 5.3c15.3 1.7 30.7 3.3 46 4.7 15.3 1.5 30.7 2.8 46 3.8 15.3 1.1 30.7 2 46 2.7 15.3.6 30.7 1.1 46 1.3a1763 1763 0 0 0 92-1.2c15.3-.5 30.7-1.3 46-2.2 15.3-.8 30.7-1.9 46-2.9s30.7-2.1 46-3.2c15.3-1 30.7-2.1 46-3.1 15.3-.9 30.7-1.8 46-2.6 15.3-.7 30.7-1.3 46-1.7 15.3-.3 30.7-.5 46-.5 15.3.1 30.7.4 46 .9s30.7 1.3 46 2.3 30.7 2.3 46 3.8c15.3 1.4 30.7 3.1 46 5 15.3 1.8 30.7 3.8 46 5.9s30.7 4.4 46 6.6 30.7 4.5 46 6.7 30.7 4.4 46 6.5c15.3 2 38.3 4.8 46 5.8"/><path stroke-opacity=".077" d="M-60 57.8c7.7.1 30.7.1 46 .5 15.3.5 30.7 1.1 46 2s30.7 2.1 46 3.4 30.7 2.8 46 4.5c15.3 1.6 30.7 3.5 46 5.4 15.3 1.8 30.7 3.9 46 5.9s30.7 4 46 6c15.3 1.9 30.7 3.9 46 5.7s30.7 3.5 46 5 30.7 2.9 46 4.1 30.7 2.2 46 2.9c15.3.8 30.7 1.4 46 1.8s30.7.6 46 .7 30.7-.1 46-.3 30.7-.5 46-.9c15.3-.3 30.7-.7 46-1.1s30.7-.8 46-1c15.3-.3 30.7-.5 46-.5s30.7 0 46 .4c15.3.3 30.7.8 46 1.5s30.7 1.6 46 2.8 30.7 2.6 46 4.1c15.3 1.6 30.7 3.5 46 5.4 15.3 2 30.7 4.2 46 6.4s30.7 4.7 46 7.1 30.7 4.9 46 7.3 30.7 4.9 46 7.2 30.7 4.6 46 6.6c15.3 2.1 30.7 4 46 5.7s30.7 3.2 46 4.4 30.7 2.2 46 3c15.3.7 30.7 1.2 46 1.4s30.7.2 46 0 30.7-.7 46-1.3 30.7-1.4 46-2.2c15.3-.9 30.7-1.9 46-2.8s38.3-2.4 46-2.9"/><path stroke-opacity=".179" stroke-width="1.5" d="M-60 102.5c7.7.8 30.7 3.2 46 4.9 15.3 1.6 30.7 3.4 46 5.1s30.7 3.4 46 5.1c15.3 1.6 30.7 3.3 46 4.8s30.7 3 46 4.3c15.3 1.4 30.7 2.6 46 3.6s30.7 1.9 46 2.6 30.7 1.2 46 1.5 30.7.3 46 .2 30.7-.4 46-1c15.3-.5 30.7-1.3 46-2.2s30.7-2 46-3.2c15.3-1.3 30.7-2.7 46-4.3 15.3-1.5 30.7-3.2 46-4.9s30.7-3.5 46-5.3 30.7-3.7 46-5.5 30.7-3.7 46-5.4 30.7-3.4 46-4.9c15.3-1.6 30.7-3 46-4.3s30.7-2.4 46-3.4a1771 1771 0 0 1 92-3.6c15.3-.2 30.7-.2 46-.1 15.3.2 30.7.5 46 1.1 15.3.5 30.7 1.2 46 2s30.7 1.8 46 2.9c15.3 1 30.7 2.2 46 3.5 15.3 1.2 30.7 2.6 46 3.9s30.7 2.7 46 4.1c15.3 1.3 30.7 2.7 46 4s30.7 2.5 46 3.7c15.3 1.1 30.7 2.2 46 3.2 15.3.9 30.7 1.8 46 2.5s30.7 1.3 46 1.8 30.7.8 46 1 30.7.3 46 .2c15.3 0 38.3-.4 46-.5"/><path stroke-opacity=".071" d="M-60 156.9c7.7.7 30.7 2.8 46 4 15.3 1.3 30.7 2.5 46 3.5 15.3 1.1 30.7 2.1 46 2.9s30.7 1.6 46 2.1c15.3.6 30.7 1 46 1.3 15.3.2 30.7.3 46 .3 15.3-.1 30.7-.3 46-.7s30.7-1 46-1.7 30.7-1.5 46-2.5 30.7-2.2 46-3.4c15.3-1.3 30.7-2.7 46-4.1 15.3-1.5 30.7-3.1 46-4.7s30.7-3.2 46-4.9 30.7-3.4 46-5.1 30.7-3.5 46-5.1 30.7-3.3 46-4.8c15.3-1.6 30.7-3.1 46-4.4 15.3-1.4 30.7-2.7 46-3.9 15.3-1.1 30.7-2.2 46-3.1 15.3-1 30.7-1.8 46-2.4 15.3-.7 30.7-1.3 46-1.7s30.7-.6 46-.8 30.7-.2 46-.1 30.7.3 46 .6 30.7.7 46 1.1c15.3.5 30.7 1 46 1.6s30.7 1.2 46 1.9c15.3.6 30.7 1.3 46 2 15.3.6 30.7 1.3 46 2s30.7 1.3 46 1.9 30.7 1.2 46 1.7 30.7 1 46 1.5c15.3.4 30.7.7 46 1 15.3.4 30.7.6 46 .8s30.7.3 46 .4 30.7.2 46 .2 38.3-.1 46-.1"/><path stroke-opacity=".079" d="M-60 193.5c7.7-.2 30.7-.6 46-1l46-1.2c15.3-.5 30.7-1.1 46-1.6 15.3-.6 30.7-1.3 46-2 15.3-.8 30.7-1.6 46-2.4 15.3-.9 30.7-1.9 46-2.9s30.7-2.1 46-3.3 30.7-2.4 46-3.7 30.7-2.7 46-4.2c15.3-1.4 30.7-2.9 46-4.4s30.7-3.1 46-4.7 30.7-3.2 46-4.9c15.3-1.6 30.7-3.3 46-4.9s30.7-3.2 46-4.8 30.7-3.2 46-4.7 30.7-2.9 46-4.3 30.7-2.7 46-3.9c15.3-1.3 30.7-2.4 46-3.5 15.3-1 30.7-1.9 46-2.7 15.3-.9 30.7-1.6 46-2.2s30.7-1 46-1.4c15.3-.3 30.7-.5 46-.6s30.7-.1 46 .1c15.3.1 30.7.4 46 .8s30.7.9 46 1.5c15.3.5 30.7 1.2 46 2s30.7 1.6 46 2.6c15.3.9 30.7 1.9 46 2.9s30.7 2.1 46 3.1c15.3 1.1 30.7 2.2 46 3.3s30.7 2.3 46 3.3c15.3 1.1 30.7 2.2 46 3.2s30.7 2 46 2.9 30.7 1.7 46 2.5a3538 3538 0 0 0 92 3.6c15.3.4 38.3.8 46 1"/><path stroke-opacity=".051" d="M-60 217.2c7.7-.1 30.7-.3 46-.5l46-.3 46-.3c15.3-.2 30.7-.3 46-.4 15.3-.2 30.7-.3 46-.5s30.7-.4 46-.7 30.7-.6 46-1c15.3-.3 30.7-.7 46-1.2s30.7-1 46-1.6 30.7-1.3 46-2c15.3-.8 30.7-1.6 46-2.4 15.3-.9 30.7-1.8 46-2.8s30.7-2 46-3.1 30.7-2.3 46-3.4c15.3-1.2 30.7-2.5 46-3.7 15.3-1.3 30.7-2.6 46-3.9s30.7-2.6 46-3.9 30.7-2.7 46-4 30.7-2.6 46-3.8c15.3-1.3 30.7-2.5 46-3.7s30.7-2.3 46-3.4 30.7-2.2 46-3.1c15.3-1 30.7-1.9 46-2.8 15.3-.8 30.7-1.6 46-2.2 15.3-.7 30.7-1.4 46-1.9s30.7-1 46-1.4 30.7-.7 46-1 30.7-.5 46-.6c15.3-.2 30.7-.2 46-.3s30.7-.1 46-.1 30.7.1 46 .1 30.7.1 46 .1 30.7.1 46 0c15.3 0 30.7 0 46-.1s30.7-.2 46-.4 30.7-.5 46-.8c15.3-.4 38.3-1.1 46-1.3"/><path stroke-opacity=".221" stroke-width="1.5" d="M-60 237.2c7.7-.3 30.7-1.2 46-1.7 15.3-.6 30.7-1.1 46-1.5 15.3-.5 30.7-.9 46-1.3s30.7-.7 46-1c15.3-.2 30.7-.4 46-.5 15.3-.2 30.7-.3 46-.3s30.7.1 46 .2 30.7.3 46 .5l46 .9 46 1.2c15.3.4 30.7.9 46 1.4s30.7 1 46 1.5 30.7 1.1 46 1.6c15.3.6 30.7 1.1 46 1.7 15.3.5 30.7 1.1 46 1.6s30.7 1 46 1.5c15.3.4 30.7.9 46 1.3s30.7.8 46 1.1c15.3.4 30.7.7 46 1s30.7.5 46 .8l46 .6c15.3.2 30.7.3 46 .5s30.7.3 46 .4c15.3.2 30.7.3 46 .5s30.7.3 46 .5 30.7.4 46 .7c15.3.2 30.7.5 46 .8 15.3.4 30.7.7 46 1.2 15.3.4 30.7.9 46 1.4 15.3.6 30.7 1.1 46 1.8s30.7 1.4 46 2.1c15.3.8 30.7 1.6 46 2.5s30.7 1.8 46 2.8 30.7 2 46 3.1c15.3 1 30.7 2.1 46 3.2s30.7 2.3 46 3.4 38.3 2.8 46 3.4"/><path stroke-opacity=".088" d="M-60 263.6c7.7-1.2 30.7-4.8 46-7.1s30.7-4.5 46-6.5 30.7-4 46-5.6c15.3-1.7 30.7-3.1 46-4.3s30.7-2.2 46-2.9 30.7-1.1 46-1.3 30.7 0 46 .3c15.3.4 30.7 1 46 1.8 15.3.9 30.7 1.9 46 3.1a3571 3571 0 0 1 92 9c15.3 1.6 30.7 3.4 46 5.1 15.3 1.6 30.7 3.4 46 4.9 15.3 1.6 30.7 3.2 46 4.5 15.3 1.4 30.7 2.7 46 3.8 15.3 1 30.7 1.9 46 2.6a1766 1766 0 0 0 92 1.8c15.3-.1 30.7-.4 46-.9 15.3-.4 30.7-1.1 46-1.9s30.7-1.8 46-2.8 30.7-2.1 46-3.3 30.7-2.4 46-3.6 30.7-2.5 46-3.7c15.3-1.1 30.7-2.3 46-3.4 15.3-1 30.7-2.1 46-3s30.7-1.7 46-2.5c15.3-.7 30.7-1.4 46-2 15.3-.5 30.7-1 46-1.5 15.3-.4 30.7-.8 46-1.1 15.3-.4 30.7-.7 46-1.1s30.7-.7 46-1.2 30.7-1 46-1.6c15.3-.7 30.7-1.4 46-2.3s30.7-1.9 46-3.2c15.3-1.2 30.7-2.6 46-4.2s38.3-4.4 46-5.3"/><path stroke-opacity=".049" d="M-60 312.9c7.7-.6 30.7-2.8 46-4.1s30.7-2.5 46-3.6c15.3-1 30.7-2 46-2.7s30.7-1.3 46-1.7 30.7-.7 46-.7 30.7.1 46 .4 30.7.7 46 1.3c15.3.5 30.7 1.2 46 2 15.3.7 30.7 1.6 46 2.4 15.3.9 30.7 1.8 46 2.6 15.3.9 30.7 1.7 46 2.4s30.7 1.4 46 1.9 30.7.9 46 1.2c15.3.2 30.7.3 46 .2s30.7-.4 46-.9c15.3-.4 30.7-1.1 46-1.9s30.7-1.7 46-2.8 30.7-2.3 46-3.6 30.7-2.8 46-4.2 30.7-2.9 46-4.3 30.7-2.9 46-4.2c15.3-1.4 30.7-2.7 46-3.8 15.3-1.2 30.7-2.2 46-3.1 15.3-.8 30.7-1.6 46-2.1s30.7-.8 46-1c15.3-.1 30.7-.1 46 .2 15.3.2 30.7.6 46 1.2 15.3.5 30.7 1.3 46 2.1s30.7 1.8 46 2.8 30.7 2.1 46 3.2c15.3 1 30.7 2.1 46 3.1s30.7 2 46 2.8 30.7 1.6 46 2.1c15.3.6 30.7 1 46 1.2s30.7.2 46-.1c15.3-.2 30.7-.6 46-1.3 15.3-.6 38.3-2.1 46-2.5"/><path stroke-opacity=".057" d="M-60 350.3c7.7-.2 30.7-1 46-1.3a3529 3529 0 0 1 138-.9c15.3.2 30.7.5 46 .8 15.3.4 30.7.8 46 1.3 15.3.4 30.7 1 46 1.5s30.7 1.1 46 1.7c15.3.5 30.7 1.1 46 1.6s30.7 1 46 1.4 30.7.8 46 1.1 30.7.6 46 .8 30.7.3 46 .4 30.7.2 46 .2c15.3.1 30.7.1 46 .1s30.7.1 46 .2 30.7.2 46 .4c15.3.3 30.7.6 46 1 15.3.5 30.7 1 46 1.7s30.7 1.6 46 2.6 30.7 2.2 46 3.5 30.7 2.8 46 4.5 30.7 3.5 46 5.5c15.3 1.9 30.7 4 46 6.2s30.7 4.5 46 6.9c15.3 2.3 30.7 4.8 46 7.2s30.7 4.8 46 7.2 30.7 4.8 46 7c15.3 2.3 30.7 4.5 46 6.5 15.3 2.1 30.7 4 46 5.8s30.7 3.4 46 4.8c15.3 1.5 30.7 2.8 46 3.9s30.7 2.1 46 2.9 30.7 1.4 46 1.9 30.7.9 46 1.1c15.3.3 30.7.5 46 .6 15.3.2 38.3.2 46 .3"/><path stroke-opacity=".162" stroke-width="1.5" d="M-60 343.6c7.7.7 30.7 2.3 46 3.7s30.7 3 46 4.8c15.3 1.7 30.7 3.7 46 5.8s30.7 4.3 46 6.6c15.3 2.4 30.7 4.8 46 7.3s30.7 5 46 7.6c15.3 2.5 30.7 5.1 46 7.6s30.7 5 46 7.4 30.7 4.7 46 6.9 30.7 4.2 46 6.1 30.7 3.6 46 5.2c15.3 1.5 30.7 2.9 46 4 15.3 1.2 30.7 2.1 46 2.9 15.3.7 30.7 1.2 46 1.6 15.3.3 30.7.4 46 .4s30.7-.3 46-.7c15.3-.3 30.7-.9 46-1.5 15.3-.7 30.7-1.5 46-2.3 15.3-.9 30.7-1.8 46-2.8 15.3-.9 30.7-1.9 46-2.9s30.7-1.9 46-2.8 30.7-1.8 46-2.5 30.7-1.4 46-1.9 30.7-.8 46-1 30.7-.3 46-.1 30.7.5 46 1 30.7 1.2 46 2.1 30.7 2 46 3.2c15.3 1.3 30.7 2.7 46 4.2a3592 3592 0 0 1 92 10.8c15.3 2 30.7 4.1 46 6.1 15.3 2.1 30.7 4.3 46 6.3 15.3 2.1 30.7 4.2 46 6.2s30.7 4 46 5.9c15.3 1.8 30.7 3.6 46 5.2s38.3 3.6 46 4.4"/><path stroke-opacity=".09" d="M-60 435.3c7.7.9 30.7 3.7 46 5.4 15.3 1.6 30.7 3.1 46 4.4s30.7 2.4 46 3.3c15.3.8 30.7 1.5 46 1.9s30.7.6 46 .6c15.3-.1 30.7-.3 46-.9 15.3-.5 30.7-1.2 46-2.2 15.3-.9 30.7-2.1 46-3.4s30.7-2.8 46-4.5c15.3-1.6 30.7-3.4 46-5.3s30.7-3.9 46-5.9 30.7-4.1 46-6.1 30.7-4.1 46-6c15.3-2 30.7-3.9 46-5.7s30.7-3.5 46-4.9c15.3-1.5 30.7-2.9 46-4s30.7-2.1 46-2.8c15.3-.6 30.7-1.1 46-1.3s30.7-.2 46 .2c15.3.3 30.7.8 46 1.7 15.3.8 30.7 1.9 46 3.2 15.3 1.4 30.7 3 46 4.7 15.3 1.8 30.7 3.9 46 6 15.3 2.2 30.7 4.6 46 7.1s30.7 5.1 46 7.8 30.7 5.5 46 8.3 30.7 5.7 46 8.5 30.7 5.6 46 8.3 30.7 5.4 46 7.8c15.3 2.5 30.7 4.9 46 7 15.3 2.2 30.7 4.2 46 6s30.7 3.4 46 4.7 30.7 2.4 46 3.3c15.3.8 30.7 1.4 46 1.8s30.7.4 46 .3 30.7-.5 46-1.1 38.3-2.1 46-2.5"/><path stroke-opacity=".055" d="M-60 426.6c7.7-1.1 30.7-4.6 46-6.7s30.7-4.1 46-5.9 30.7-3.5 46-4.9c15.3-1.5 30.7-2.7 46-3.8 15.3-1 30.7-1.9 46-2.5 15.3-.7 30.7-1.1 46-1.3 15.3-.3 30.7-.3 46-.2 15.3.2 30.7.5 46 .9a3535 3535 0 0 1 92 4.2c15.3.9 30.7 1.9 46 2.8 15.3 1 30.7 2 46 3 15.3.9 30.7 1.9 46 2.8s30.7 1.8 46 2.5c15.3.8 30.7 1.5 46 2 15.3.6 30.7 1.1 46 1.4 15.3.4 30.7.6 46 .8a3527 3527 0 0 0 92-.6c15.3-.2 30.7-.6 46-1 15.3-.5 30.7-1 46-1.5s30.7-1.1 46-1.6 30.7-1.1 46-1.6 30.7-1 46-1.5c15.3-.4 30.7-.8 46-1.1s30.7-.5 46-.6 30.7-.2 46-.1 30.7.2 46 .5c15.3.2 30.7.5 46 1 15.3.4 30.7.9 46 1.4s30.7 1.1 46 1.8c15.3.6 30.7 1.2 46 1.9 15.3.6 30.7 1.2 46 1.8s30.7 1.2 46 1.7c15.3.4 30.7.8 46 1.1s30.7.6 46 .6c15.3.1 38.3-.1 46-.1"/><path stroke-opacity=".047" d="M-60 444c7.7.6 30.7 1.9 46 3.4s30.7 3.4 46 5.5 30.7 4.5 46 7.1 30.7 5.5 46 8.5c15.3 2.9 30.7 6 46 9.1 15.3 3 30.7 6.2 46 9.2s30.7 6.1 46 8.8c15.3 2.8 30.7 5.5 46 7.8 15.3 2.4 30.7 4.6 46 6.4 15.3 1.9 30.7 3.5 46 4.7 15.3 1.3 30.7 2.2 46 2.8s30.7.9 46 .9 30.7-.3 46-.8 30.7-1.4 46-2.3c15.3-1 30.7-2.2 46-3.4 15.3-1.3 30.7-2.7 46-4.2 15.3-1.4 30.7-2.9 46-4.3s30.7-2.8 46-4.1 30.7-2.5 46-3.6c15.3-1 30.7-1.9 46-2.7 15.3-.7 30.7-1.3 46-1.7s30.7-.6 46-.7 30.7 0 46 .2 30.7.5 46 .9l46 1.2c15.3.5 30.7.9 46 1.3 15.3.3 30.7.7 46 .8 15.3.2 30.7.3 46 .1 15.3-.1 30.7-.4 46-.9 15.3-.6 30.7-1.3 46-2.2 15.3-1 30.7-2.1 46-3.5s30.7-3 46-4.7c15.3-1.8 30.7-3.7 46-5.7 15.3-2.1 30.7-4.3 46-6.4 15.3-2.2 30.7-4.5 46-6.7s30.7-4.4 46-6.4 38.3-4.6 46-5.5"/><path stroke-opacity=".195" stroke-width="1.5" d="M-60 492.4c7.7.9 30.7 3.4 46 5.2s30.7 3.8 46 5.8c15.3 1.9 30.7 4 46 6.1s30.7 4.2 46 6.4c15.3 2.1 30.7 4.3 46 6.4 15.3 2.2 30.7 4.3 46 6.4s30.7 4.2 46 6.2 30.7 3.9 46 5.8c15.3 1.8 30.7 3.6 46 5.3s30.7 3.2 46 4.7c15.3 1.4 30.7 2.7 46 3.9s30.7 2.3 46 3.2 30.7 1.7 46 2.3c15.3.7 30.7 1.2 46 1.5s30.7.5 46 .6 30.7 0 46-.2c15.3-.3 30.7-.6 46-1.1s30.7-1.1 46-1.8c15.3-.6 30.7-1.5 46-2.3 15.3-.9 30.7-1.9 46-3 15.3-1 30.7-2.1 46-3.3 15.3-1.1 30.7-2.4 46-3.6s30.7-2.5 46-3.7 30.7-2.5 46-3.7 30.7-2.4 46-3.6c15.3-1.1 30.7-2.2 46-3.3 15.3-1 30.7-2 46-2.9 15.3-.8 30.7-1.6 46-2.3s30.7-1.3 46-1.8 30.7-.9 46-1.1c15.3-.3 30.7-.4 46-.4s30.7.1 46 .3c15.3.3 30.7.7 46 1.2s30.7 1.1 46 1.9c15.3.7 30.7 1.6 46 2.6s30.7 2.1 46 3.2c15.3 1.2 38.3 3.2 46 3.9"/><path stroke-opacity=".085" d="M-60 544.2c7.7-.1 30.7-.3 46-.4s30.7-.1 46-.1 30.7.1 46 .2 30.7.3 46 .6 30.7.6 46 1 30.7.9 46 1.3c15.3.5 30.7 1 46 1.6 15.3.5 30.7 1.1 46 1.7 15.3.5 30.7 1.1 46 1.6s30.7 1.1 46 1.5c15.3.5 30.7.9 46 1.3s30.7.7 46 1l46 .6c15.3.2 30.7.3 46 .3 15.3.1 30.7.1 46 .2h92c15.3.1 30.7.1 46 .3 15.3.1 30.7.3 46 .6s30.7.7 46 1.1c15.3.5 30.7 1.1 46 1.7 15.3.7 30.7 1.5 46 2.4 15.3.8 30.7 1.8 46 2.9 15.3 1 30.7 2.2 46 3.4s30.7 2.5 46 3.8c15.3 1.2 30.7 2.6 46 3.8 15.3 1.3 30.7 2.6 46 3.8 15.3 1.1 30.7 2.3 46 3.2 15.3 1 30.7 1.9 46 2.6s30.7 1.2 46 1.6c15.3.3 30.7.4 46 .4 15.3-.1 30.7-.4 46-1 15.3-.5 30.7-1.3 46-2.3s30.7-2.2 46-3.6 30.7-3 46-4.8c15.3-1.7 30.7-3.7 46-5.7s38.3-5.2 46-6.3"/><path stroke-opacity=".07" d="M-60 614.2c7.7.6 30.7 2.5 46 3.3s30.7 1.5 46 1.7c15.3.3 30.7.3 46-.1s30.7-1 46-2.1c15.3-1 30.7-2.3 46-3.9s30.7-3.6 46-5.7 30.7-4.6 46-7.1 30.7-5.2 46-7.9 30.7-5.6 46-8.3c15.3-2.8 30.7-5.6 46-8.1 15.3-2.6 30.7-5.1 46-7.3s30.7-4.2 46-5.9 30.7-3.1 46-4.2 30.7-1.8 46-2.2 30.7-.4 46-.1 30.7 1 46 2c15.3.9 30.7 2.2 46 3.7s30.7 3.3 46 5.2c15.3 1.8 30.7 3.9 46 6 15.3 2 30.7 4.2 46 6.3 15.3 2 30.7 4.1 46 5.9 15.3 1.9 30.7 3.6 46 5 15.3 1.5 30.7 2.7 46 3.6s30.7 1.5 46 1.7c15.3.3 30.7.2 46-.3s30.7-1.3 46-2.5 30.7-2.7 46-4.5 30.7-3.9 46-6.2 30.7-4.9 46-7.5 30.7-5.5 46-8.2 30.7-5.6 46-8.2c15.3-2.7 30.7-5.4 46-7.7 15.3-2.4 30.7-4.6 46-6.5s30.7-3.6 46-4.8c15.3-1.3 30.7-2.2 46-2.8 15.3-.5 30.7-.7 46-.5 15.3.3 38.3 1.6 46 1.9"/><path stroke-opacity=".071" d="M-60 647.6c7.7-.2 30.7-.8 46-1.5s30.7-1.6 46-2.7 30.7-2.4 46-3.9 30.7-3.2 46-5.1 30.7-3.9 46-6.2c15.3-2.2 30.7-4.6 46-7 15.3-2.5 30.7-5.1 46-7.7 15.3-2.7 30.7-5.4 46-8.1 15.3-2.6 30.7-5.3 46-7.9s30.7-5.1 46-7.5 30.7-4.7 46-6.8 30.7-4.1 46-5.8 30.7-3.2 46-4.5 30.7-2.3 46-3.1c15.3-.9 30.7-1.4 46-1.8s30.7-.5 46-.5 30.7.3 46 .7c15.3.3 30.7.9 46 1.5s30.7 1.4 46 2.1c15.3.8 30.7 1.7 46 2.5 15.3.7 30.7 1.6 46 2.3s30.7 1.4 46 2 30.7 1.1 46 1.4 30.7.6 46 .6c15.3.1 30.7 0 46-.2 15.3-.3 30.7-.6 46-1.2 15.3-.5 30.7-1.1 46-1.9s30.7-1.7 46-2.6c15.3-1 30.7-2.1 46-3.2s30.7-2.3 46-3.5c15.3-1.1 30.7-2.4 46-3.5 15.3-1.2 30.7-2.4 46-3.5s30.7-2.2 46-3.2 30.7-2 46-2.8c15.3-.9 30.7-1.7 46-2.5 15.3-.7 30.7-1.4 46-2s38.3-1.4 46-1.7"/><path stroke-opacity=".174" stroke-width="1.5" d="M-60 686.8c7.7.7 30.7 3.1 46 4.2s30.7 1.8 46 2.2 30.7.5 46 .3 30.7-.8 46-1.6 30.7-1.9 46-3.2 30.7-2.9 46-4.6 30.7-3.7 46-5.7c15.3-1.9 30.7-4.1 46-6.2s30.7-4.4 46-6.5 30.7-4.2 46-6.2c15.3-1.9 30.7-3.9 46-5.6 15.3-1.6 30.7-3.2 46-4.5s30.7-2.4 46-3.3c15.3-.8 30.7-1.4 46-1.7s30.7-.3 46 0 30.7.9 46 1.7c15.3.9 30.7 2 46 3.4s30.7 3.1 46 5c15.3 1.8 30.7 4 46 6.2 15.3 2.3 30.7 4.8 46 7.4s30.7 5.4 46 8.1c15.3 2.8 30.7 5.7 46 8.5 15.3 2.9 30.7 5.8 46 8.6s30.7 5.6 46 8.2 30.7 5.2 46 7.6 30.7 4.6 46 6.7c15.3 2 30.7 3.9 46 5.5s30.7 3.1 46 4.3c15.3 1.1 30.7 2.1 46 2.8 15.3.8 30.7 1.3 46 1.6 15.3.2 30.7.3 46 .2s30.7-.5 46-1c15.3-.4 30.7-1.1 46-1.9 15.3-.7 30.7-1.7 46-2.6 15.3-1 30.7-2.1 46-3.2s30.7-2.2 46-3.3 38.3-2.7 46-3.3"/><path stroke-opacity=".051" d="M-60 677.6c7.7.8 30.7 3.1 46 4.7 15.3 1.5 30.7 3 46 4.5 15.3 1.4 30.7 2.9 46 4.2 15.3 1.4 30.7 2.7 46 3.9s30.7 2.4 46 3.4c15.3 1.1 30.7 2.1 46 3.1 15.3.9 30.7 1.8 46 2.5 15.3.8 30.7 1.5 46 2.2s30.7 1.3 46 1.8 30.7 1 46 1.5l46 1.2c15.3.4 30.7.7 46 1.1l46 .9 46 .9c15.3.3 30.7.7 46 1l46 .9c15.3.4 30.7.7 46 1.1 15.3.3 30.7.7 46 1.1 15.3.3 30.7.7 46 1.1l46 1.2c15.3.3 30.7.7 46 1.1 15.3.3 30.7.7 46 1l46 .9 46 .6c15.3.2 30.7.3 46 .4 15.3 0 30.7.1 46 0 15.3 0 30.7-.1 46-.2l46-.6 46-.9 46-1.2c15.3-.4 30.7-.9 46-1.3 15.3-.5 30.7-1 46-1.5s30.7-1 46-1.5 30.7-1 46-1.4 30.7-.9 46-1.2l46-.9c15.3-.2 38.3-.3 46-.4"/><path stroke-opacity=".054" d="M-60 721.8c7.7-1 30.7-4 46-6.1s30.7-4.2 46-6.3 30.7-4.2 46-6.2c15.3-2.1 30.7-4.1 46-6s30.7-3.8 46-5.6c15.3-1.7 30.7-3.4 46-4.9s30.7-2.9 46-4.1 30.7-2.3 46-3.2 30.7-1.6 46-2.2c15.3-.5 30.7-.9 46-1.1s30.7-.3 46-.1c15.3.1 30.7.4 46 .8s30.7 1 46 1.8c15.3.7 30.7 1.5 46 2.4s30.7 2 46 3c15.3 1.1 30.7 2.3 46 3.4 15.3 1.2 30.7 2.4 46 3.5 15.3 1.2 30.7 2.4 46 3.5s30.7 2.2 46 3.2a3545 3545 0 0 0 92 4.8c15.3.5 30.7 1 46 1.3s30.7.5 46 .5 30.7-.1 46-.4 30.7-.7 46-1.3c15.3-.5 30.7-1.2 46-2s30.7-1.8 46-2.8 30.7-2.2 46-3.4 30.7-2.5 46-3.8 30.7-2.7 46-4c15.3-1.4 30.7-2.8 46-4.1 15.3-1.4 30.7-2.7 46-4 15.3-1.2 30.7-2.5 46-3.6 15.3-1.2 30.7-2.2 46-3.2s30.7-1.8 46-2.6c15.3-.7 30.7-1.4 46-1.9s38.3-.9 46-1.1"/><path stroke-opacity=".045" d="M-60 731.3c7.7-.2 30.7-.6 46-.8s30.7-.3 46-.3c15.3-.1 30.7-.1 46 0s30.7.2 46 .4 30.7.5 46 .8c15.3.4 30.7.8 46 1.3s30.7 1 46 1.6 30.7 1.3 46 2 30.7 1.5 46 2.4c15.3.8 30.7 1.7 46 2.7 15.3.9 30.7 1.9 46 3 15.3 1 30.7 2.1 46 3.2s30.7 2.3 46 3.4c15.3 1.2 30.7 2.4 46 3.6 15.3 1.3 30.7 2.5 46 3.8 15.3 1.2 30.7 2.5 46 3.7 15.3 1.3 30.7 2.5 46 3.8 15.3 1.2 30.7 2.5 46 3.7s30.7 2.4 46 3.6 30.7 2.4 46 3.5 30.7 2.2 46 3.2c15.3 1.1 30.7 2.1 46 3 15.3 1 30.7 1.9 46 2.7s30.7 1.6 46 2.4c15.3.7 30.7 1.4 46 2s30.7 1.1 46 1.6 30.7.9 46 1.2 30.7.6 46 .8 30.7.3 46 .4c15.3 0 30.7 0 46-.1s30.7-.2 46-.4 30.7-.5 46-.9c15.3-.3 30.7-.7 46-1.2 15.3-.4 30.7-.9 46-1.5s30.7-1.2 46-1.9c15.3-.6 30.7-1.3 46-2.1 15.3-.7 38.3-1.9 46-2.3"/><path stroke-opacity=".194" stroke-width="1.5" d="M-60 781.9c7.7.7 30.7 2.9 46 4.3s30.7 2.8 46 4c15.3 1.3 30.7 2.6 46 3.7 15.3 1.2 30.7 2.2 46 3.3 15.3 1 30.7 1.9 46 2.8 15.3.8 30.7 1.6 46 2.4 15.3.7 30.7 1.4 46 2s30.7 1.1 46 1.7c15.3.5 30.7 1 46 1.4 15.3.5 30.7.9 46 1.3 15.3.5 30.7.9 46 1.3 15.3.5 30.7.9 46 1.4s30.7 1 46 1.5c15.3.6 30.7 1.2 46 1.8 15.3.7 30.7 1.4 46 2.2s30.7 1.7 46 2.6 30.7 1.9 46 3 30.7 2.2 46 3.5c15.3 1.2 30.7 2.5 46 3.9 15.3 1.3 30.7 2.7 46 4.2s30.7 3 46 4.6c15.3 1.5 30.7 3.1 46 4.7s30.7 3.3 46 4.9 30.7 3.2 46 4.8 30.7 3.2 46 4.7 30.7 3 46 4.4 30.7 2.8 46 4.1c15.3 1.2 30.7 2.4 46 3.5a3549 3549 0 0 0 92 5.4 3535 3535 0 0 0 138 3.6c15.3.1 30.7.1 46 .1s30.7-.2 46-.3l46-.6c15.3-.3 38.3-.7 46-.9"/><path stroke-opacity=".064" d="M-60 816.9c7.7-.1 30.7-.6 46-.8s30.7-.4 46-.5l46-.3c15.3 0 30.7 0 46 .1 15.3 0 30.7.2 46 .3 15.3.2 30.7.4 46 .7 15.3.2 30.7.6 46 .9l46 1.2c15.3.5 30.7 1 46 1.5s30.7 1.1 46 1.7 30.7 1.2 46 1.8 30.7 1.3 46 1.9c15.3.7 30.7 1.4 46 2 15.3.7 30.7 1.4 46 2.1 15.3.6 30.7 1.3 46 2 15.3.6 30.7 1.2 46 1.9 15.3.6 30.7 1.2 46 1.8s30.7 1.1 46 1.7c15.3.5 30.7 1 46 1.5 15.3.4 30.7.9 46 1.3l46 1.2c15.3.4 30.7.7 46 1l46 .9c15.3.2 30.7.5 46 .7l46 .6c15.3.2 30.7.3 46 .5s30.7.3 46 .4c15.3.2 30.7.3 46 .5 15.3.1 30.7.2 46 .4 15.3.1 30.7.2 46 .4 15.3.1 30.7.2 46 .4 15.3.1 30.7.3 46 .5 15.3.1 30.7.3 46 .5 15.3.1 30.7.3 46 .5l46 .6 46 .6 46 .6"/><path stroke-opacity=".063" d="M-60 842.5c7.7.2 30.7.5 46 .9 15.3.5 30.7 1.1 46 1.9 15.3.7 30.7 1.6 46 2.6 15.3.9 30.7 2 46 3.1s30.7 2.3 46 3.5c15.3 1.1 30.7 2.3 46 3.4s30.7 2.2 46 3.2c15.3.9 30.7 1.8 46 2.6s30.7 1.5 46 2 30.7.9 46 1.1c15.3.3 30.7.3 46 .3 15.3-.1 30.7-.3 46-.6 15.3-.4 30.7-.8 46-1.4s30.7-1.2 46-2c15.3-.7 30.7-1.5 46-2.3s30.7-1.7 46-2.5 30.7-1.7 46-2.4 30.7-1.4 46-2 30.7-1.1 46-1.5 30.7-.6 46-.8c15.3-.1 30.7-.1 46 0 15.3.2 30.7.5 46 .8 15.3.4 30.7.9 46 1.5s30.7 1.4 46 2.1c15.3.8 30.7 1.6 46 2.4 15.3.9 30.7 1.8 46 2.6s30.7 1.7 46 2.4c15.3.8 30.7 1.5 46 2.1s30.7 1.1 46 1.4c15.3.4 30.7.6 46 .7 15.3 0 30.7 0 46-.3 15.3-.2 30.7-.6 46-1.1s30.7-1.2 46-2 30.7-1.8 46-2.8c15.3-1.1 30.7-2.2 46-3.4s30.7-2.4 46-3.7c15.3-1.2 38.3-3.1 46-3.7"/><path stroke-opacity=".09" d="M-60 902.5c7.7-.2 30.7-.8 46-1.4 15.3-.5 30.7-1.1 46-1.8s30.7-1.4 46-2.3c15.3-.8 30.7-1.7 46-2.7 15.3-.9 30.7-2 46-3 15.3-1.1 30.7-2.2 46-3.3s30.7-2.3 46-3.4 30.7-2.2 46-3.3 30.7-2.2 46-3.2 30.7-2 46-2.9 30.7-1.8 46-2.6c15.3-.7 30.7-1.5 46-2.1s30.7-1.2 46-1.7 30.7-1 46-1.4 30.7-.7 46-1l46-.9c15.3-.3 30.7-.5 46-.8 15.3-.2 30.7-.5 46-.8 15.3-.4 30.7-.7 46-1.2 15.3-.4 30.7-.9 46-1.4 15.3-.6 30.7-1.2 46-2 15.3-.7 30.7-1.5 46-2.5a3549 3549 0 0 0 92-6.6c15.3-1.2 30.7-2.6 46-4s30.7-2.9 46-4.3c15.3-1.5 30.7-3 46-4.5s30.7-3 46-4.4 30.7-2.9 46-4.2 30.7-2.5 46-3.7c15.3-1.1 30.7-2.2 46-3.1s30.7-1.6 46-2.3c15.3-.6 30.7-1.1 46-1.4s30.7-.5 46-.6c15.3 0 30.7.1 46 .4 15.3.2 30.7.6 46 1 15.3.5 38.3 1.4 46 1.7"/><path stroke-opacity=".212" stroke-width="1.5" d="M-60 925.1c7.7-.1 30.7-.5 46-.6 15.3 0 30.7 0 46 .1 15.3.2 30.7.4 46 .7 15.3.4 30.7.8 46 1.3 15.3.4 30.7 1 46 1.5 15.3.6 30.7 1.2 46 1.8 15.3.5 30.7 1.1 46 1.6s30.7 1 46 1.4c15.3.3 30.7.6 46 .8 15.3.1 30.7.2 46 .1 15.3-.2 30.7-.4 46-.9 15.3-.4 30.7-1 46-1.7s30.7-1.6 46-2.6 30.7-2.1 46-3.3c15.3-1.3 30.7-2.6 46-4 15.3-1.3 30.7-2.8 46-4.2s30.7-2.9 46-4.2c15.3-1.4 30.7-2.7 46-3.9s30.7-2.4 46-3.3c15.3-1 30.7-1.8 46-2.4 15.3-.7 30.7-1.2 46-1.4a1764 1764 0 0 1 92 .6c15.3.5 30.7 1.1 46 1.9s30.7 1.8 46 2.8 30.7 2.2 46 3.3c15.3 1.2 30.7 2.4 46 3.6s30.7 2.5 46 3.6 30.7 2.2 46 3.1c15.3 1 30.7 1.9 46 2.6 15.3.6 30.7 1.2 46 1.6s30.7.6 46 .6 30.7-.1 46-.4 30.7-.8 46-1.4 30.7-1.3 46-2.2c15.3-.8 30.7-1.8 46-2.7 15.3-1 38.3-2.6 46-3.1"/><path stroke-opacity=".082" d="M-60 964.1c7.7-.5 30.7-1.9 46-2.8s30.7-1.8 46-2.7 30.7-1.8 46-2.7 30.7-1.8 46-2.6c15.3-.9 30.7-1.7 46-2.5s30.7-1.6 46-2.3 30.7-1.5 46-2.1c15.3-.7 30.7-1.4 46-2s30.7-1.2 46-1.7c15.3-.6 30.7-1.1 46-1.6 15.3-.4 30.7-.9 46-1.3 15.3-.5 30.7-.9 46-1.2 15.3-.4 30.7-.8 46-1.1l46-.9 46-.9c15.3-.2 30.7-.5 46-.7 15.3-.3 30.7-.5 46-.7 15.3-.3 30.7-.5 46-.7 15.3-.3 30.7-.5 46-.7 15.3-.3 30.7-.5 46-.7 15.3-.3 30.7-.5 46-.8 15.3-.2 30.7-.5 46-.7l46-.9 46-.9c15.3-.3 30.7-.7 46-1l46-1.2c15.3-.4 30.7-.8 46-1.3 15.3-.4 30.7-.9 46-1.4s30.7-1 46-1.6 30.7-1.1 46-1.8c15.3-.6 30.7-1.2 46-1.9s30.7-1.4 46-2.2c15.3-.7 30.7-1.5 46-2.3s30.7-1.7 46-2.5c15.3-.9 30.7-1.8 46-2.7s30.7-1.8 46-2.8c15.3-.9 38.3-2.4 46-2.8"/></g><path fill="none" stroke="#c9a96e" stroke-linecap="round" stroke-opacity=".5" stroke-width="2" d="M-60 422.4c7.7.3 30.7 1.3 46 2s30.7 1.5 46 2.3 30.7 1.7 46 2.6c15.3.8 30.7 1.7 46 2.6s30.7 1.8 46 2.7c15.3.8 30.7 1.7 46 2.5s30.7 1.6 46 2.4c15.3.7 30.7 1.4 46 2.1 15.3.6 30.7 1.2 46 1.8 15.3.5 30.7 1 46 1.4s30.7.8 46 1.1 30.7.5 46 .7 30.7.4 46 .5l46 .3c15.3.1 30.7.1 46 .1 15.3.1 30.7.1 46 .1 15.3.1 30.7.1 46 .2 15.3 0 30.7.1 46 .2s30.7.2 46 .4c15.3.1 30.7.3 46 .5 15.3.3 30.7.5 46 .8s30.7.7 46 1l46 1.2c15.3.4 30.7.8 46 1.3 15.3.4 30.7.9 46 1.3s30.7.9 46 1.3 30.7.8 46 1.1c15.3.4 30.7.7 46 1l46 .6c15.3.1 30.7.2 46 .2s30.7 0 46-.2c15.3-.1 30.7-.3 46-.6s30.7-.6 46-1.1c15.3-.4 30.7-.9 46-1.4 15.3-.6 30.7-1.2 46-1.9 15.3-.6 30.7-1.3 46-2.1 15.3-.7 38.3-1.9 46-2.3"/><path fill="url(#c)" d="M0 0h1600v900H0z"/><path d="M0 0h1600v900H0z" filter="url(#d)" opacity=".05"/></svg>