<svg xmlns="http://www.w3.org/2000/svg" viewBox="0 0 1600 900" preserveAspectRatio="xMidYMid slice">
<defs>
<linearGradient id="bg" x1="0" y1="0" x2="0" y2="1"><stop offset="0" stop-color="#0b160f"/><stop offset="1" stop-color="#15271b"/></linearGradient>
<radialGradient id="glow" cx="0.296" cy="0.311" r="0.75"><stop offset="0" stop-color="#C9A96E" stop-opacity="0.15"/><stop offset="1" stop-color="#C9A96E" stop-opacity="0"/></radialGradient>
<radialGradient id="vig" cx="0.5" cy="0.5" r="0.75"><stop offset="0.5" stop-color="#000" stop-opacity="0"/><stop offset="1" stop-color="#000" stop-opacity="0.5"/></radialGradient>
<filter id="grain"><feTurbulence type="fractalNoise" baseFrequency="0.9" numOctaves="2" stitchTiles="stitch"/><feColorMatrix type="matrix" values="0 0 0 0 0 0 0 0 0 0 0 0 0 0 0 0 0 0 0.55 0"/></filter>
</defs>
<rect width="1600" height="900" fill="url(#bg)"/>
<rect width="1600" height="900" fill="url(#glow)"/>
<path d="M -60.0 492.4 C -52.3 493.3 -29.3 495.8 -14.0 497.6 C 1.3 499.4 16.7 501.4 32.0 503.4 C 47.3 505.3 62.7 507.4 78.0 509.5 C 93.3 511.6 108.7 513.7 124.0 515.9 C 139.3 518.0 154.7 520.2 170.0 522.3 C 185.3 524.5 200.7 526.6 216.0 528.7 C 231.3 530.8 246.7 532.9 262.0 534.9 C 277.3 536.9 292.7 538.8 308.0 540.7 C 323.3 542.5 338.7 544.3 354.0 546.0 C 369.3 547.7 384.7 549.2 400.0 550.7 C 415.3 552.1 430.7 553.4 446.0 554.6 C 461.3 555.8 476.7 556.9 492.0 557.8 C 507.3 558.7 522.7 559.5 538.0 560.1 C 553.3 560.8 568.7 561.3 584.0 561.6 C 599.3 561.9 614.7 562.1 630.0 562.2 C 645.3 562.3 660.7 562.2 676.0 562.0 C 691.3 561.7 706.7 561.4 722.0 560.9 C 737.3 560.4 752.7 559.8 768.0 559.1 C 783.3 558.5 798.7 557.6 814.0 556.8 C 829.3 555.9 844.7 554.9 860.0 553.8 C 875.3 552.8 890.7 551.7 906.0 550.5 C 921.3 549.4 936.7 548.1 952.0 546.9 C 967.3 545.7 982.7 544.4 998.0 543.2 C 1013.3 542.0 1028.7 540.7 1044.0 539.5 C 1059.3 538.3 1074.7 537.1 1090.0 535.9 C 1105.3 534.8 1120.7 533.7 1136.0 532.6 C 1151.3 531.6 1166.7 530.6 1182.0 529.7 C 1197.3 528.9 1212.7 528.1 1228.0 527.4 C 1243.3 526.7 1258.7 526.1 1274.0 525.6 C 1289.3 525.1 1304.7 524.7 1320.0 524.5 C 1335.3 524.2 1350.7 524.1 1366.0 524.1 C 1381.3 524.1 1396.7 524.2 1412.0 524.4 C 1427.3 524.7 1442.7 525.1 1458.0 525.6 C 1473.3 526.1 1488.7 526.7 1504.0 527.5 C 1519.3 528.2 1534.7 529.1 1550.0 530.1 C 1565.3 531.1 1580.7 532.2 1596.0 533.3 C 1611.3 534.5 1631.3 466.1 1642.0 537.2 C 1652.7 608.3 1943.7 889.5 1660.0 960.0 C 1376.3 1030.5 226.7 960.0 -60.0 960.0 Z" fill="#C9A96E" fill-opacity="0.028"/>
<g><path d="M -60.0 -69.2 C -52.3 -69.1 -29.3 -69.0 -14.0 -68.8 C 1.3 -68.5 16.7 -68.3 32.0 -67.9 C 47.3 -67.6 62.7 -67.2 78.0 -66.7 C 93.3 -66.2 108.7 -65.7 124.0 -65.1 C 139.3 -64.5 154.7 -63.8 170.0 -63.0 C 185.3 -62.3 200.7 -61.4 216.0 -60.6 C 231.3 -59.7 246.7 -58.8 262.0 -57.8 C 277.3 -56.8 292.7 -55.8 308.0 -54.8 C 323.3 -53.8 338.7 -52.7 354.0 -51.7 C 369.3 -50.6 384.7 -49.6 400.0 -48.6 C 415.3 -47.5 430.7 -46.5 446.0 -45.6 C 461.3 -44.7 476.7 -43.7 492.0 -42.9 C 507.3 -42.1 522.7 -41.3 538.0 -40.7 C 553.3 -40.0 568.7 -39.4 584.0 -39.0 C 599.3 -38.5 614.7 -38.2 630.0 -38.0 C 645.3 -37.7 660.7 -37.6 676.0 -37.7 C 691.3 -37.7 706.7 -37.9 722.0 -38.1 C 737.3 -38.4 752.7 -38.9 768.0 -39.4 C 783.3 -39.9 798.7 -40.6 814.0 -41.4 C 829.3 -42.1 844.7 -43.0 860.0 -44.0 C 875.3 -44.9 890.7 -46.0 906.0 -47.1 C 921.3 -48.2 936.7 -49.4 952.0 -50.6 C 967.3 -51.9 982.7 -53.1 998.0 -54.4 C 1013.3 -55.6 1028.7 -56.9 1044.0 -58.1 C 1059.3 -59.3 1074.7 -60.5 1090.0 -61.6 C 1105.3 -62.7 1120.7 -63.8 1136.0 -64.7 C 1151.3 -65.7 1166.7 -66.6 1182.0 -67.3 C 1197.3 -68.0 1212.7 -68.6 1228.0 -69.1 C 1243.3 -69.6 1258.7 -69.9 1274.0 -70.0 C 1289.3 -70.2 1304.7 -70.2 1320.0 -70.0 C 1335.3 -69.9 1350.7 -69.6 1366.0 -69.1 C 1381.3 -68.6 1396.7 -67.9 1412.0 -67.1 C 1427.3 -66.3 1442.7 -65.3 1458.0 -64.2 C 1473.3 -63.2 1488.7 -61.9 1504.0 -60.6 C 1519.3 -59.3 1534.7 -57.8 1550.0 -56.3 C 1565.3 -54.8 1580.7 -53.1 1596.0 -51.5 C 1611.3 -49.9 1634.3 -47.3 1642.0 -46.5" stroke="#F5F0E8" stroke-width="1" stroke-opacity="0.059" fill="none" stroke-linecap="round"/><path d="M -60.0 -21.3 C -52.3 -21.6 -29.3 -22.7 -14.0 -23.6 C 1.3 -24.5 16.7 -25.5 32.0 -26.6 C 47.3 -27.6 62.7 -28.8 78.0 -29.9 C 93.3 -31.1 108.7 -32.4 124.0 -33.6 C 139.3 -34.9 154.7 -36.1 170.0 -37.4 C 185.3 -38.6 200.7 -39.9 216.0 -41.0 C 231.3 -42.2 246.7 -43.4 262.0 -44.4 C 277.3 -45.4 292.7 -46.4 308.0 -47.2 C 323.3 -48.0 338.7 -48.8 354.0 -49.3 C 369.3 -49.9 384.7 -50.4 400.0 -50.7 C 415.3 -51.0 430.7 -51.2 446.0 -51.2 C 461.3 -51.2 476.7 -51.1 492.0 -50.8 C 507.3 -50.5 522.7 -50.1 538.0 -49.6 C 553.3 -49.1 568.7 -48.4 584.0 -47.7 C 599.3 -47.0 614.7 -46.1 630.0 -45.3 C 645.3 -44.4 660.7 -43.4 676.0 -42.5 C 691.3 -41.5 706.7 -40.5 722.0 -39.5 C 737.3 -38.6 752.7 -37.6 768.0 -36.7 C 783.3 -35.8 798.7 -34.9 814.0 -34.2 C 829.3 -33.4 844.7 -32.7 860.0 -32.2 C 875.3 -31.6 890.7 -31.1 906.0 -30.8 C 921.3 -30.5 936.7 -30.3 952.0 -30.3 C 967.3 -30.2 982.7 -30.3 998.0 -30.5 C 1013.3 -30.7 1028.7 -31.1 1044.0 -31.5 C 1059.3 -32.0 1074.7 -32.6 1090.0 -33.3 C 1105.3 -34.0 1120.7 -34.9 1136.0 -35.7 C 1151.3 -36.6 1166.7 -37.6 1182.0 -38.6 C 1197.3 -39.6 1212.7 -40.7 1228.0 -41.8 C 1243.3 -42.9 1258.7 -44.0 1274.0 -45.1 C 1289.3 -46.1 1304.7 -47.2 1320.0 -48.2 C 1335.3 -49.2 1350.7 -50.2 1366.0 -51.2 C 1381.3 -52.1 1396.7 -52.9 1412.0 -53.7 C 1427.3 -54.4 1442.7 -55.1 1458.0 -55.7 C 1473.3 -56.3 1488.7 -56.8 1504.0 -57.3 C 1519.3 -57.7 1534.7 -58.0 1550.0 -58.3 C 1565.3 -58.6 1580.7 -58.8 1596.0 -58.9 C 1611.3 -59.1 1634.3 -59.1 1642.0 -59.2" stroke="#F5F0E8" stroke-width="1.5" stroke-opacity="0.234" fill="none" stroke-linecap="round"/><path d="M -60.0 19.9 C -52.3 19.3 -29.3 17.8 -14.0 16.6 C 1.3 15.4 16.7 14.1 32.0 12.7 C 47.3 11.3 62.7 9.8 78.0 8.3 C 93.3 6.8 108.7 5.2 124.0 3.7 C 139.3 2.2 154.7 0.6 170.0 -0.8 C 185.3 -2.2 200.7 -3.6 216.0 -4.9 C 231.3 -6.1 246.7 -7.3 262.0 -8.3 C 277.3 -9.3 292.7 -10.2 308.0 -10.8 C 323.3 -11.5 338.7 -12.0 354.0 -12.2 C 369.3 -12.5 384.7 -12.5 400.0 -12.4 C 415.3 -12.2 430.7 -11.8 446.0 -11.2 C 461.3 -10.6 476.7 -9.8 492.0 -8.8 C 507.3 -7.7 522.7 -6.5 538.0 -5.1 C 553.3 -3.6 568.7 -2.0 584.0 -0.3 C 599.3 1.5 614.7 3.5 630.0 5.5 C 645.3 7.5 660.7 9.7 676.0 11.9 C 691.3 14.1 706.7 16.4 722.0 18.6 C 737.3 20.9 752.7 23.2 768.0 25.5 C 783.3 27.7 798.7 30.0 814.0 32.1 C 829.3 34.3 844.7 36.4 860.0 38.3 C 875.3 40.2 890.7 42.0 906.0 43.7 C 921.3 45.3 936.7 46.8 952.0 48.1 C 967.3 49.4 982.7 50.5 998.0 51.5 C 1013.3 52.4 1028.7 53.1 1044.0 53.6 C 1059.3 54.2 1074.7 54.5 1090.0 54.6 C 1105.3 54.8 1120.7 54.7 1136.0 54.5 C 1151.3 54.3 1166.7 53.9 1182.0 53.3 C 1197.3 52.8 1212.7 52.2 1228.0 51.4 C 1243.3 50.7 1258.7 49.8 1274.0 48.9 C 1289.3 48.0 1304.7 47.0 1320.0 46.1 C 1335.3 45.1 1350.7 44.1 1366.0 43.2 C 1381.3 42.3 1396.7 41.4 1412.0 40.6 C 1427.3 39.8 1442.7 39.1 1458.0 38.5 C 1473.3 37.9 1488.7 37.4 1504.0 37.0 C 1519.3 36.7 1534.7 36.5 1550.0 36.4 C 1565.3 36.4 1580.7 36.5 1596.0 36.8 C 1611.3 37.1 1634.3 38.0 1642.0 38.2" stroke="#F5F0E8" stroke-width="1" stroke-opacity="0.092" fill="none" stroke-linecap="round"/><path d="M -60.0 52.9 C -52.3 52.4 -29.3 50.8 -14.0 49.6 C 1.3 48.3 16.7 46.9 32.0 45.5 C 47.3 44.1 62.7 42.5 78.0 41.1 C 93.3 39.6 108.7 38.1 124.0 36.8 C 139.3 35.4 154.7 34.1 170.0 33.0 C 185.3 31.9 200.7 30.8 216.0 30.1 C 231.3 29.3 246.7 28.7 262.0 28.3 C 277.3 27.9 292.7 27.8 308.0 27.9 C 323.3 28.0 338.7 28.4 354.0 28.9 C 369.3 29.5 384.7 30.4 400.0 31.4 C 415.3 32.4 430.7 33.7 446.0 35.1 C 461.3 36.4 476.7 38.0 492.0 39.7 C 507.3 41.3 522.7 43.2 538.0 45.0 C 553.3 46.7 568.7 48.6 584.0 50.4 C 599.3 52.2 614.7 54.1 630.0 55.7 C 645.3 57.4 660.7 59.0 676.0 60.4 C 691.3 61.9 706.7 63.2 722.0 64.2 C 737.3 65.3 752.7 66.2 768.0 66.9 C 783.3 67.5 798.7 68.0 814.0 68.2 C 829.3 68.4 844.7 68.4 860.0 68.2 C 875.3 68.0 890.7 67.6 906.0 67.0 C 921.3 66.5 936.7 65.7 952.0 64.8 C 967.3 64.0 982.7 62.9 998.0 61.9 C 1013.3 60.9 1028.7 59.8 1044.0 58.7 C 1059.3 57.7 1074.7 56.6 1090.0 55.6 C 1105.3 54.7 1120.7 53.8 1136.0 53.0 C 1151.3 52.3 1166.7 51.7 1182.0 51.3 C 1197.3 51.0 1212.7 50.8 1228.0 50.8 C 1243.3 50.9 1258.7 51.2 1274.0 51.7 C 1289.3 52.2 1304.7 53.0 1320.0 54.0 C 1335.3 55.0 1350.7 56.3 1366.0 57.8 C 1381.3 59.2 1396.7 60.9 1412.0 62.8 C 1427.3 64.6 1442.7 66.6 1458.0 68.7 C 1473.3 70.8 1488.7 73.1 1504.0 75.3 C 1519.3 77.5 1534.7 79.8 1550.0 82.0 C 1565.3 84.2 1580.7 86.4 1596.0 88.5 C 1611.3 90.5 1634.3 93.3 1642.0 94.3" stroke="#F5F0E8" stroke-width="1" stroke-opacity="0.092" fill="none" stroke-linecap="round"/><path d="M -60.0 57.8 C -52.3 57.9 -29.3 57.9 -14.0 58.3 C 1.3 58.8 16.7 59.4 32.0 60.3 C 47.3 61.2 62.7 62.4 78.0 63.7 C 93.3 65.0 108.7 66.5 124.0 68.2 C 139.3 69.8 154.7 71.7 170.0 73.6 C 185.3 75.4 200.7 77.5 216.0 79.5 C 231.3 81.5 246.7 83.5 262.0 85.5 C 277.3 87.4 292.7 89.4 308.0 91.2 C 323.3 93.0 338.7 94.7 354.0 96.2 C 369.3 97.7 384.7 99.1 400.0 100.3 C 415.3 101.5 430.7 102.5 446.0 103.2 C 461.3 104.0 476.7 104.6 492.0 105.0 C 507.3 105.4 522.7 105.6 538.0 105.7 C 553.3 105.8 568.7 105.6 584.0 105.4 C 599.3 105.2 614.7 104.9 630.0 104.5 C 645.3 104.2 660.7 103.8 676.0 103.4 C 691.3 103.0 706.7 102.6 722.0 102.4 C 737.3 102.1 752.7 101.9 768.0 101.9 C 783.3 101.9 798.7 101.9 814.0 102.3 C 829.3 102.6 844.7 103.1 860.0 103.8 C 875.3 104.5 890.7 105.4 906.0 106.6 C 921.3 107.8 936.7 109.2 952.0 110.7 C 967.3 112.3 982.7 114.2 998.0 116.1 C 1013.3 118.1 1028.7 120.3 1044.0 122.5 C 1059.3 124.7 1074.7 127.2 1090.0 129.6 C 1105.3 132.0 1120.7 134.5 1136.0 136.9 C 1151.3 139.3 1166.7 141.8 1182.0 144.1 C 1197.3 146.4 1212.7 148.7 1228.0 150.7 C 1243.3 152.8 1258.7 154.7 1274.0 156.4 C 1289.3 158.1 1304.7 159.6 1320.0 160.8 C 1335.3 162.0 1350.7 163.0 1366.0 163.8 C 1381.3 164.5 1396.7 165.0 1412.0 165.2 C 1427.3 165.4 1442.7 165.4 1458.0 165.2 C 1473.3 165.0 1488.7 164.5 1504.0 163.9 C 1519.3 163.3 1534.7 162.5 1550.0 161.7 C 1565.3 160.8 1580.7 159.8 1596.0 158.9 C 1611.3 158.0 1634.3 156.5 1642.0 156.0" stroke="#F5F0E8" stroke-width="1" stroke-opacity="0.077" fill="none" stroke-linecap="round"/><path d="M -60.0 102.5 C -52.3 103.3 -29.3 105.7 -14.0 107.4 C 1.3 109.0 16.7 110.8 32.0 112.5 C 47.3 114.2 62.7 115.9 78.0 117.6 C 93.3 119.2 108.7 120.9 124.0 122.4 C 139.3 123.9 154.7 125.4 170.0 126.7 C 185.3 128.1 200.7 129.3 216.0 130.3 C 231.3 131.3 246.7 132.2 262.0 132.9 C 277.3 133.6 292.7 134.1 308.0 134.4 C 323.3 134.7 338.7 134.7 354.0 134.6 C 369.3 134.5 384.7 134.2 400.0 133.6 C 415.3 133.1 430.7 132.3 446.0 131.4 C 461.3 130.5 476.7 129.4 492.0 128.2 C 507.3 126.9 522.7 125.5 538.0 123.9 C 553.3 122.4 568.7 120.7 584.0 119.0 C 599.3 117.3 614.7 115.5 630.0 113.7 C 645.3 111.9 660.7 110.0 676.0 108.2 C 691.3 106.4 706.7 104.5 722.0 102.8 C 737.3 101.1 752.7 99.4 768.0 97.9 C 783.3 96.3 798.7 94.9 814.0 93.6 C 829.3 92.3 844.7 91.2 860.0 90.2 C 875.3 89.2 890.7 88.4 906.0 87.8 C 921.3 87.2 936.7 86.8 952.0 86.6 C 967.3 86.4 982.7 86.4 998.0 86.5 C 1013.3 86.7 1028.7 87.0 1044.0 87.6 C 1059.3 88.1 1074.7 88.8 1090.0 89.6 C 1105.3 90.4 1120.7 91.4 1136.0 92.5 C 1151.3 93.5 1166.7 94.7 1182.0 96.0 C 1197.3 97.2 1212.7 98.6 1228.0 99.9 C 1243.3 101.2 1258.7 102.6 1274.0 104.0 C 1289.3 105.3 1304.7 106.7 1320.0 108.0 C 1335.3 109.3 1350.7 110.5 1366.0 111.7 C 1381.3 112.8 1396.7 113.9 1412.0 114.9 C 1427.3 115.8 1442.7 116.7 1458.0 117.4 C 1473.3 118.1 1488.7 118.7 1504.0 119.2 C 1519.3 119.7 1534.7 120.0 1550.0 120.2 C 1565.3 120.4 1580.7 120.5 1596.0 120.4 C 1611.3 120.4 1634.3 120.0 1642.0 119.9" stroke="#F5F0E8" stroke-width="1.5" stroke-opacity="0.179" fill="none" stroke-linecap="round"/><path d="M -60.0 156.9 C -52.3 157.6 -29.3 159.7 -14.0 160.9 C 1.3 162.2 16.7 163.4 32.0 164.4 C 47.3 165.5 62.7 166.5 78.0 167.3 C 93.3 168.1 108.7 168.9 124.0 169.4 C 139.3 170.0 154.7 170.4 170.0 170.7 C 185.3 170.9 200.7 171.0 216.0 171.0 C 231.3 170.9 246.7 170.7 262.0 170.3 C 277.3 169.9 292.7 169.3 308.0 168.6 C 323.3 167.9 338.7 167.1 354.0 166.1 C 369.3 165.1 384.7 163.9 400.0 162.7 C 415.3 161.4 430.7 160.0 446.0 158.6 C 461.3 157.1 476.7 155.5 492.0 153.9 C 507.3 152.3 522.7 150.7 538.0 149.0 C 553.3 147.3 568.7 145.6 584.0 143.9 C 599.3 142.2 614.7 140.4 630.0 138.8 C 645.3 137.2 660.7 135.5 676.0 134.0 C 691.3 132.4 706.7 130.9 722.0 129.6 C 737.3 128.2 752.7 126.9 768.0 125.7 C 783.3 124.6 798.7 123.5 814.0 122.6 C 829.3 121.6 844.7 120.8 860.0 120.2 C 875.3 119.5 890.7 118.9 906.0 118.5 C 921.3 118.1 936.7 117.9 952.0 117.7 C 967.3 117.5 982.7 117.5 998.0 117.6 C 1013.3 117.7 1028.7 117.9 1044.0 118.2 C 1059.3 118.5 1074.7 118.9 1090.0 119.3 C 1105.3 119.8 1120.7 120.3 1136.0 120.9 C 1151.3 121.5 1166.7 122.1 1182.0 122.8 C 1197.3 123.4 1212.7 124.1 1228.0 124.8 C 1243.3 125.4 1258.7 126.1 1274.0 126.8 C 1289.3 127.5 1304.7 128.1 1320.0 128.7 C 1335.3 129.3 1350.7 129.9 1366.0 130.4 C 1381.3 130.9 1396.7 131.4 1412.0 131.9 C 1427.3 132.3 1442.7 132.6 1458.0 132.9 C 1473.3 133.3 1488.7 133.5 1504.0 133.7 C 1519.3 133.9 1534.7 134.0 1550.0 134.1 C 1565.3 134.2 1580.7 134.3 1596.0 134.3 C 1611.3 134.3 1634.3 134.2 1642.0 134.2" stroke="#F5F0E8" stroke-width="1" stroke-opacity="0.071" fill="none" stroke-linecap="round"/><path d="M -60.0 193.5 C -52.3 193.3 -29.3 192.9 -14.0 192.5 C 1.3 192.1 16.7 191.7 32.0 191.3 C 47.3 190.8 62.7 190.2 78.0 189.7 C 93.3 189.1 108.7 188.4 124.0 187.7 C 139.3 186.9 154.7 186.1 170.0 185.3 C 185.3 184.4 200.7 183.4 216.0 182.4 C 231.3 181.4 246.7 180.3 262.0 179.1 C 277.3 177.9 292.7 176.7 308.0 175.4 C 323.3 174.1 338.7 172.7 354.0 171.2 C 369.3 169.8 384.7 168.3 400.0 166.8 C 415.3 165.3 430.7 163.7 446.0 162.1 C 461.3 160.5 476.7 158.9 492.0 157.2 C 507.3 155.6 522.7 153.9 538.0 152.3 C 553.3 150.7 568.7 149.1 584.0 147.5 C 599.3 145.9 614.7 144.3 630.0 142.8 C 645.3 141.3 660.7 139.9 676.0 138.5 C 691.3 137.1 706.7 135.8 722.0 134.6 C 737.3 133.3 752.7 132.2 768.0 131.1 C 783.3 130.1 798.7 129.2 814.0 128.4 C 829.3 127.5 844.7 126.8 860.0 126.2 C 875.3 125.6 890.7 125.2 906.0 124.8 C 921.3 124.5 936.7 124.3 952.0 124.2 C 967.3 124.1 982.7 124.1 998.0 124.3 C 1013.3 124.4 1028.7 124.7 1044.0 125.1 C 1059.3 125.5 1074.7 126.0 1090.0 126.6 C 1105.3 127.1 1120.7 127.8 1136.0 128.6 C 1151.3 129.4 1166.7 130.2 1182.0 131.2 C 1197.3 132.1 1212.7 133.1 1228.0 134.1 C 1243.3 135.1 1258.7 136.2 1274.0 137.2 C 1289.3 138.3 1304.7 139.4 1320.0 140.5 C 1335.3 141.6 1350.7 142.8 1366.0 143.8 C 1381.3 144.9 1396.7 146.0 1412.0 147.0 C 1427.3 148.0 1442.7 149.0 1458.0 149.9 C 1473.3 150.8 1488.7 151.6 1504.0 152.4 C 1519.3 153.2 1534.7 153.9 1550.0 154.5 C 1565.3 155.1 1580.7 155.6 1596.0 156.0 C 1611.3 156.4 1634.3 156.8 1642.0 157.0" stroke="#F5F0E8" stroke-width="1" stroke-opacity="0.079" fill="none" stroke-linecap="round"/><path d="M -60.0 217.2 C -52.3 217.1 -29.3 216.9 -14.0 216.7 C 1.3 216.6 16.7 216.5 32.0 216.4 C 47.3 216.3 62.7 216.2 78.0 216.1 C 93.3 215.9 108.7 215.8 124.0 215.7 C 139.3 215.5 154.7 215.4 170.0 215.2 C 185.3 215.0 200.7 214.8 216.0 214.5 C 231.3 214.2 246.7 213.9 262.0 213.5 C 277.3 213.2 292.7 212.8 308.0 212.3 C 323.3 211.8 338.7 211.3 354.0 210.7 C 369.3 210.1 384.7 209.4 400.0 208.7 C 415.3 207.9 430.7 207.1 446.0 206.3 C 461.3 205.4 476.7 204.5 492.0 203.5 C 507.3 202.5 522.7 201.5 538.0 200.4 C 553.3 199.3 568.7 198.1 584.0 197.0 C 599.3 195.8 614.7 194.5 630.0 193.3 C 645.3 192.0 660.7 190.7 676.0 189.4 C 691.3 188.1 706.7 186.8 722.0 185.5 C 737.3 184.2 752.7 182.8 768.0 181.5 C 783.3 180.2 798.7 178.9 814.0 177.7 C 829.3 176.4 844.7 175.2 860.0 174.0 C 875.3 172.8 890.7 171.7 906.0 170.6 C 921.3 169.5 936.7 168.4 952.0 167.5 C 967.3 166.5 982.7 165.6 998.0 164.7 C 1013.3 163.9 1028.7 163.1 1044.0 162.5 C 1059.3 161.8 1074.7 161.1 1090.0 160.6 C 1105.3 160.1 1120.7 159.6 1136.0 159.2 C 1151.3 158.8 1166.7 158.5 1182.0 158.2 C 1197.3 157.9 1212.7 157.7 1228.0 157.6 C 1243.3 157.4 1258.7 157.4 1274.0 157.3 C 1289.3 157.2 1304.7 157.2 1320.0 157.2 C 1335.3 157.2 1350.7 157.3 1366.0 157.3 C 1381.3 157.3 1396.7 157.4 1412.0 157.4 C 1427.3 157.4 1442.7 157.5 1458.0 157.4 C 1473.3 157.4 1488.7 157.4 1504.0 157.3 C 1519.3 157.2 1534.7 157.1 1550.0 156.9 C 1565.3 156.7 1580.7 156.4 1596.0 156.1 C 1611.3 155.7 1634.3 155.0 1642.0 154.8" stroke="#F5F0E8" stroke-width="1" stroke-opacity="0.051" fill="none" stroke-linecap="round"/><path d="M -60.0 237.2 C -52.3 236.9 -29.3 236.0 -14.0 235.5 C 1.3 234.9 16.7 234.4 32.0 234.0 C 47.3 233.5 62.7 233.1 78.0 232.7 C 93.3 232.3 108.7 232.0 124.0 231.7 C 139.3 231.5 154.7 231.3 170.0 231.2 C 185.3 231.0 200.7 230.9 216.0 230.9 C 231.3 230.9 246.7 231.0 262.0 231.1 C 277.3 231.2 292.7 231.4 308.0 231.6 C 323.3 231.9 338.7 232.2 354.0 232.5 C 369.3 232.9 384.7 233.3 400.0 233.7 C 415.3 234.1 430.7 234.6 446.0 235.1 C 461.3 235.6 476.7 236.1 492.0 236.6 C 507.3 237.1 522.7 237.7 538.0 238.2 C 553.3 238.8 568.7 239.3 584.0 239.9 C 599.3 240.4 614.7 241.0 630.0 241.5 C 645.3 242.0 660.7 242.5 676.0 243.0 C 691.3 243.4 706.7 243.9 722.0 244.3 C 737.3 244.7 752.7 245.1 768.0 245.4 C 783.3 245.8 798.7 246.1 814.0 246.4 C 829.3 246.7 844.7 246.9 860.0 247.2 C 875.3 247.4 890.7 247.6 906.0 247.8 C 921.3 248.0 936.7 248.1 952.0 248.3 C 967.3 248.5 982.7 248.6 998.0 248.7 C 1013.3 248.9 1028.7 249.0 1044.0 249.2 C 1059.3 249.4 1074.7 249.5 1090.0 249.7 C 1105.3 249.9 1120.7 250.1 1136.0 250.4 C 1151.3 250.6 1166.7 250.9 1182.0 251.2 C 1197.3 251.6 1212.7 251.9 1228.0 252.4 C 1243.3 252.8 1258.7 253.3 1274.0 253.8 C 1289.3 254.4 1304.7 254.9 1320.0 255.6 C 1335.3 256.3 1350.7 257.0 1366.0 257.7 C 1381.3 258.5 1396.7 259.3 1412.0 260.2 C 1427.3 261.1 1442.7 262.0 1458.0 263.0 C 1473.3 264.0 1488.7 265.0 1504.0 266.1 C 1519.3 267.1 1534.7 268.2 1550.0 269.3 C 1565.3 270.4 1580.7 271.6 1596.0 272.7 C 1611.3 273.8 1634.3 275.5 1642.0 276.1" stroke="#F5F0E8" stroke-width="1.5" stroke-opacity="0.221" fill="none" stroke-linecap="round"/><path d="M -60.0 263.6 C -52.3 262.4 -29.3 258.8 -14.0 256.5 C 1.3 254.2 16.7 252.0 32.0 250.0 C 47.3 248.0 62.7 246.0 78.0 244.4 C 93.3 242.7 108.7 241.3 124.0 240.1 C 139.3 238.9 154.7 237.9 170.0 237.2 C 185.3 236.5 200.7 236.1 216.0 235.9 C 231.3 235.7 246.7 235.9 262.0 236.2 C 277.3 236.6 292.7 237.2 308.0 238.0 C 323.3 238.9 338.7 239.9 354.0 241.1 C 369.3 242.4 384.7 243.8 400.0 245.3 C 415.3 246.8 430.7 248.4 446.0 250.1 C 461.3 251.7 476.7 253.5 492.0 255.2 C 507.3 256.8 522.7 258.6 538.0 260.1 C 553.3 261.7 568.7 263.3 584.0 264.6 C 599.3 266.0 614.7 267.3 630.0 268.4 C 645.3 269.4 660.7 270.3 676.0 271.0 C 691.3 271.7 706.7 272.2 722.0 272.5 C 737.3 272.8 752.7 272.9 768.0 272.8 C 783.3 272.7 798.7 272.4 814.0 271.9 C 829.3 271.5 844.7 270.8 860.0 270.0 C 875.3 269.2 890.7 268.2 906.0 267.2 C 921.3 266.2 936.7 265.1 952.0 263.9 C 967.3 262.7 982.7 261.5 998.0 260.3 C 1013.3 259.1 1028.7 257.8 1044.0 256.6 C 1059.3 255.5 1074.7 254.3 1090.0 253.2 C 1105.3 252.2 1120.7 251.1 1136.0 250.2 C 1151.3 249.3 1166.7 248.5 1182.0 247.7 C 1197.3 247.0 1212.7 246.3 1228.0 245.7 C 1243.3 245.2 1258.7 244.7 1274.0 244.2 C 1289.3 243.8 1304.7 243.4 1320.0 243.1 C 1335.3 242.7 1350.7 242.4 1366.0 242.0 C 1381.3 241.6 1396.7 241.3 1412.0 240.8 C 1427.3 240.3 1442.7 239.8 1458.0 239.2 C 1473.3 238.5 1488.7 237.8 1504.0 236.9 C 1519.3 236.0 1534.7 235.0 1550.0 233.7 C 1565.3 232.5 1580.7 231.1 1596.0 229.5 C 1611.3 227.9 1634.3 225.1 1642.0 224.2" stroke="#F5F0E8" stroke-width="1" stroke-opacity="0.088" fill="none" stroke-linecap="round"/><path d="M -60.0 312.9 C -52.3 312.3 -29.3 310.1 -14.0 308.8 C 1.3 307.5 16.7 306.3 32.0 305.2 C 47.3 304.2 62.7 303.2 78.0 302.5 C 93.3 301.8 108.7 301.2 124.0 300.8 C 139.3 300.4 154.7 300.1 170.0 300.1 C 185.3 300.1 200.7 300.2 216.0 300.5 C 231.3 300.8 246.7 301.2 262.0 301.8 C 277.3 302.3 292.7 303.0 308.0 303.8 C 323.3 304.5 338.7 305.4 354.0 306.2 C 369.3 307.1 384.7 308.0 400.0 308.8 C 415.3 309.7 430.7 310.5 446.0 311.2 C 461.3 311.9 476.7 312.6 492.0 313.1 C 507.3 313.6 522.7 314.0 538.0 314.3 C 553.3 314.5 568.7 314.6 584.0 314.5 C 599.3 314.4 614.7 314.1 630.0 313.6 C 645.3 313.2 660.7 312.5 676.0 311.7 C 691.3 310.9 706.7 310.0 722.0 308.9 C 737.3 307.8 752.7 306.6 768.0 305.3 C 783.3 304.0 798.7 302.5 814.0 301.1 C 829.3 299.7 844.7 298.2 860.0 296.8 C 875.3 295.4 890.7 293.9 906.0 292.6 C 921.3 291.2 936.7 289.9 952.0 288.8 C 967.3 287.6 982.7 286.6 998.0 285.7 C 1013.3 284.9 1028.7 284.1 1044.0 283.6 C 1059.3 283.1 1074.7 282.8 1090.0 282.6 C 1105.3 282.5 1120.7 282.5 1136.0 282.8 C 1151.3 283.0 1166.7 283.4 1182.0 284.0 C 1197.3 284.5 1212.7 285.3 1228.0 286.1 C 1243.3 286.9 1258.7 287.9 1274.0 288.9 C 1289.3 289.9 1304.7 291.0 1320.0 292.1 C 1335.3 293.1 1350.7 294.2 1366.0 295.2 C 1381.3 296.2 1396.7 297.2 1412.0 298.0 C 1427.3 298.8 1442.7 299.6 1458.0 300.1 C 1473.3 300.7 1488.7 301.1 1504.0 301.3 C 1519.3 301.5 1534.7 301.5 1550.0 301.2 C 1565.3 301.0 1580.7 300.6 1596.0 299.9 C 1611.3 299.3 1634.3 297.8 1642.0 297.4" stroke="#F5F0E8" stroke-width="1" stroke-opacity="0.049" fill="none" stroke-linecap="round"/><path d="M -60.0 350.3 C -52.3 350.1 -29.3 349.3 -14.0 349.0 C 1.3 348.6 16.7 348.3 32.0 348.1 C 47.3 347.9 62.7 347.8 78.0 347.8 C 93.3 347.8 108.7 347.9 124.0 348.1 C 139.3 348.3 154.7 348.6 170.0 348.9 C 185.3 349.3 200.7 349.7 216.0 350.2 C 231.3 350.6 246.7 351.2 262.0 351.7 C 277.3 352.2 292.7 352.8 308.0 353.4 C 323.3 353.9 338.7 354.5 354.0 355.0 C 369.3 355.5 384.7 356.0 400.0 356.4 C 415.3 356.8 430.7 357.2 446.0 357.5 C 461.3 357.8 476.7 358.1 492.0 358.3 C 507.3 358.5 522.7 358.6 538.0 358.7 C 553.3 358.8 568.7 358.9 584.0 358.9 C 599.3 359.0 614.7 359.0 630.0 359.0 C 645.3 359.0 660.7 359.1 676.0 359.2 C 691.3 359.3 706.7 359.4 722.0 359.6 C 737.3 359.9 752.7 360.2 768.0 360.6 C 783.3 361.1 798.7 361.6 814.0 362.3 C 829.3 363.0 844.7 363.9 860.0 364.9 C 875.3 365.9 890.7 367.1 906.0 368.4 C 921.3 369.7 936.7 371.2 952.0 372.9 C 967.3 374.6 982.7 376.4 998.0 378.4 C 1013.3 380.3 1028.7 382.4 1044.0 384.6 C 1059.3 386.8 1074.7 389.1 1090.0 391.5 C 1105.3 393.8 1120.7 396.3 1136.0 398.7 C 1151.3 401.1 1166.7 403.5 1182.0 405.9 C 1197.3 408.3 1212.7 410.7 1228.0 412.9 C 1243.3 415.2 1258.7 417.4 1274.0 419.4 C 1289.3 421.5 1304.7 423.4 1320.0 425.2 C 1335.3 427.0 1350.7 428.6 1366.0 430.0 C 1381.3 431.5 1396.7 432.8 1412.0 433.9 C 1427.3 435.0 1442.7 436.0 1458.0 436.8 C 1473.3 437.6 1488.7 438.2 1504.0 438.7 C 1519.3 439.2 1534.7 439.6 1550.0 439.8 C 1565.3 440.1 1580.7 440.3 1596.0 440.4 C 1611.3 440.6 1634.3 440.6 1642.0 440.7" stroke="#F5F0E8" stroke-width="1" stroke-opacity="0.057" fill="none" stroke-linecap="round"/><path d="M -60.0 343.6 C -52.3 344.3 -29.3 345.9 -14.0 347.3 C 1.3 348.7 16.7 350.3 32.0 352.1 C 47.3 353.8 62.7 355.8 78.0 357.9 C 93.3 360.0 108.7 362.2 124.0 364.5 C 139.3 366.9 154.7 369.3 170.0 371.8 C 185.3 374.3 200.7 376.8 216.0 379.4 C 231.3 381.9 246.7 384.5 262.0 387.0 C 277.3 389.5 292.7 392.0 308.0 394.4 C 323.3 396.8 338.7 399.1 354.0 401.3 C 369.3 403.5 384.7 405.5 400.0 407.4 C 415.3 409.3 430.7 411.0 446.0 412.6 C 461.3 414.1 476.7 415.5 492.0 416.6 C 507.3 417.8 522.7 418.7 538.0 419.5 C 553.3 420.2 568.7 420.7 584.0 421.1 C 599.3 421.4 614.7 421.5 630.0 421.5 C 645.3 421.5 660.7 421.2 676.0 420.8 C 691.3 420.5 706.7 419.9 722.0 419.3 C 737.3 418.6 752.7 417.8 768.0 417.0 C 783.3 416.1 798.7 415.2 814.0 414.2 C 829.3 413.3 844.7 412.3 860.0 411.3 C 875.3 410.3 890.7 409.4 906.0 408.5 C 921.3 407.6 936.7 406.7 952.0 406.0 C 967.3 405.3 982.7 404.6 998.0 404.1 C 1013.3 403.6 1028.7 403.3 1044.0 403.1 C 1059.3 402.9 1074.7 402.8 1090.0 403.0 C 1105.3 403.2 1120.7 403.5 1136.0 404.0 C 1151.3 404.5 1166.7 405.2 1182.0 406.1 C 1197.3 407.0 1212.7 408.1 1228.0 409.3 C 1243.3 410.6 1258.7 412.0 1274.0 413.5 C 1289.3 415.1 1304.7 416.8 1320.0 418.6 C 1335.3 420.4 1350.7 422.3 1366.0 424.3 C 1381.3 426.3 1396.7 428.4 1412.0 430.4 C 1427.3 432.5 1442.7 434.7 1458.0 436.7 C 1473.3 438.8 1488.7 440.9 1504.0 442.9 C 1519.3 444.9 1534.7 446.9 1550.0 448.8 C 1565.3 450.6 1580.7 452.4 1596.0 454.0 C 1611.3 455.6 1634.3 457.6 1642.0 458.4" stroke="#F5F0E8" stroke-width="1.5" stroke-opacity="0.162" fill="none" stroke-linecap="round"/><path d="M -60.0 435.3 C -52.3 436.2 -29.3 439.0 -14.0 440.7 C 1.3 442.3 16.7 443.8 32.0 445.1 C 47.3 446.4 62.7 447.5 78.0 448.4 C 93.3 449.2 108.7 449.9 124.0 450.3 C 139.3 450.7 154.7 450.9 170.0 450.9 C 185.3 450.8 200.7 450.6 216.0 450.0 C 231.3 449.5 246.7 448.8 262.0 447.8 C 277.3 446.9 292.7 445.7 308.0 444.4 C 323.3 443.1 338.7 441.6 354.0 439.9 C 369.3 438.3 384.7 436.5 400.0 434.6 C 415.3 432.7 430.7 430.7 446.0 428.7 C 461.3 426.7 476.7 424.6 492.0 422.6 C 507.3 420.6 522.7 418.5 538.0 416.6 C 553.3 414.6 568.7 412.7 584.0 410.9 C 599.3 409.1 614.7 407.4 630.0 406.0 C 645.3 404.5 660.7 403.1 676.0 402.0 C 691.3 400.9 706.7 399.9 722.0 399.2 C 737.3 398.6 752.7 398.1 768.0 397.9 C 783.3 397.7 798.7 397.7 814.0 398.1 C 829.3 398.4 844.7 398.9 860.0 399.8 C 875.3 400.6 890.7 401.7 906.0 403.0 C 921.3 404.4 936.7 406.0 952.0 407.7 C 967.3 409.5 982.7 411.6 998.0 413.7 C 1013.3 415.9 1028.7 418.3 1044.0 420.8 C 1059.3 423.3 1074.7 425.9 1090.0 428.6 C 1105.3 431.3 1120.7 434.1 1136.0 436.9 C 1151.3 439.7 1166.7 442.6 1182.0 445.4 C 1197.3 448.2 1212.7 451.0 1228.0 453.7 C 1243.3 456.4 1258.7 459.1 1274.0 461.5 C 1289.3 464.0 1304.7 466.4 1320.0 468.5 C 1335.3 470.7 1350.7 472.7 1366.0 474.5 C 1381.3 476.3 1396.7 477.9 1412.0 479.2 C 1427.3 480.5 1442.7 481.6 1458.0 482.5 C 1473.3 483.3 1488.7 483.9 1504.0 484.3 C 1519.3 484.7 1534.7 484.7 1550.0 484.6 C 1565.3 484.5 1580.7 484.1 1596.0 483.5 C 1611.3 482.9 1634.3 481.4 1642.0 481.0" stroke="#F5F0E8" stroke-width="1" stroke-opacity="0.090" fill="none" stroke-linecap="round"/><path d="M -60.0 426.6 C -52.3 425.5 -29.3 422.0 -14.0 419.9 C 1.3 417.8 16.7 415.8 32.0 414.0 C 47.3 412.2 62.7 410.5 78.0 409.1 C 93.3 407.6 108.7 406.4 124.0 405.3 C 139.3 404.3 154.7 403.4 170.0 402.8 C 185.3 402.1 200.7 401.7 216.0 401.5 C 231.3 401.2 246.7 401.2 262.0 401.3 C 277.3 401.5 292.7 401.8 308.0 402.2 C 323.3 402.7 338.7 403.3 354.0 404.0 C 369.3 404.7 384.7 405.5 400.0 406.4 C 415.3 407.3 430.7 408.3 446.0 409.2 C 461.3 410.2 476.7 411.2 492.0 412.2 C 507.3 413.1 522.7 414.1 538.0 415.0 C 553.3 415.9 568.7 416.8 584.0 417.5 C 599.3 418.3 614.7 419.0 630.0 419.5 C 645.3 420.1 660.7 420.6 676.0 420.9 C 691.3 421.3 706.7 421.5 722.0 421.7 C 737.3 421.8 752.7 421.8 768.0 421.7 C 783.3 421.6 798.7 421.4 814.0 421.1 C 829.3 420.9 844.7 420.5 860.0 420.1 C 875.3 419.6 890.7 419.1 906.0 418.6 C 921.3 418.1 936.7 417.5 952.0 417.0 C 967.3 416.5 982.7 415.9 998.0 415.4 C 1013.3 414.9 1028.7 414.4 1044.0 413.9 C 1059.3 413.5 1074.7 413.1 1090.0 412.8 C 1105.3 412.5 1120.7 412.3 1136.0 412.2 C 1151.3 412.1 1166.7 412.0 1182.0 412.1 C 1197.3 412.2 1212.7 412.3 1228.0 412.6 C 1243.3 412.8 1258.7 413.1 1274.0 413.6 C 1289.3 414.0 1304.7 414.5 1320.0 415.0 C 1335.3 415.5 1350.7 416.1 1366.0 416.8 C 1381.3 417.4 1396.7 418.0 1412.0 418.7 C 1427.3 419.3 1442.7 419.9 1458.0 420.5 C 1473.3 421.1 1488.7 421.7 1504.0 422.2 C 1519.3 422.6 1534.7 423.0 1550.0 423.3 C 1565.3 423.6 1580.7 423.9 1596.0 423.9 C 1611.3 424.0 1634.3 423.8 1642.0 423.8" stroke="#F5F0E8" stroke-width="1" stroke-opacity="0.055" fill="none" stroke-linecap="round"/><path d="M -60.0 444.0 C -52.3 444.6 -29.3 445.9 -14.0 447.4 C 1.3 448.9 16.7 450.8 32.0 452.9 C 47.3 455.0 62.7 457.4 78.0 460.0 C 93.3 462.6 108.7 465.5 124.0 468.5 C 139.3 471.4 154.7 474.5 170.0 477.6 C 185.3 480.6 200.7 483.8 216.0 486.8 C 231.3 489.8 246.7 492.9 262.0 495.6 C 277.3 498.4 292.7 501.1 308.0 503.4 C 323.3 505.8 338.7 508.0 354.0 509.8 C 369.3 511.7 384.7 513.3 400.0 514.5 C 415.3 515.8 430.7 516.7 446.0 517.3 C 461.3 517.9 476.7 518.2 492.0 518.2 C 507.3 518.2 522.7 517.9 538.0 517.4 C 553.3 516.9 568.7 516.0 584.0 515.1 C 599.3 514.1 614.7 512.9 630.0 511.7 C 645.3 510.4 660.7 509.0 676.0 507.5 C 691.3 506.1 706.7 504.6 722.0 503.2 C 737.3 501.8 752.7 500.4 768.0 499.1 C 783.3 497.8 798.7 496.6 814.0 495.5 C 829.3 494.5 844.7 493.6 860.0 492.8 C 875.3 492.1 890.7 491.5 906.0 491.1 C 921.3 490.7 936.7 490.5 952.0 490.4 C 967.3 490.3 982.7 490.4 998.0 490.6 C 1013.3 490.8 1028.7 491.1 1044.0 491.5 C 1059.3 491.9 1074.7 492.3 1090.0 492.7 C 1105.3 493.2 1120.7 493.6 1136.0 494.0 C 1151.3 494.3 1166.7 494.7 1182.0 494.8 C 1197.3 495.0 1212.7 495.1 1228.0 494.9 C 1243.3 494.8 1258.7 494.5 1274.0 494.0 C 1289.3 493.4 1304.7 492.7 1320.0 491.8 C 1335.3 490.8 1350.7 489.7 1366.0 488.3 C 1381.3 486.9 1396.7 485.3 1412.0 483.6 C 1427.3 481.8 1442.7 479.9 1458.0 477.9 C 1473.3 475.8 1488.7 473.6 1504.0 471.5 C 1519.3 469.3 1534.7 467.0 1550.0 464.8 C 1565.3 462.6 1580.7 460.4 1596.0 458.4 C 1611.3 456.4 1634.3 453.8 1642.0 452.9" stroke="#F5F0E8" stroke-width="1" stroke-opacity="0.047" fill="none" stroke-linecap="round"/><path d="M -60.0 492.4 C -52.3 493.3 -29.3 495.8 -14.0 497.6 C 1.3 499.4 16.7 501.4 32.0 503.4 C 47.3 505.3 62.7 507.4 78.0 509.5 C 93.3 511.6 108.7 513.7 124.0 515.9 C 139.3 518.0 154.7 520.2 170.0 522.3 C 185.3 524.5 200.7 526.6 216.0 528.7 C 231.3 530.8 246.7 532.9 262.0 534.9 C 277.3 536.9 292.7 538.8 308.0 540.7 C 323.3 542.5 338.7 544.3 354.0 546.0 C 369.3 547.7 384.7 549.2 400.0 550.7 C 415.3 552.1 430.7 553.4 446.0 554.6 C 461.3 555.8 476.7 556.9 492.0 557.8 C 507.3 558.7 522.7 559.5 538.0 560.1 C 553.3 560.8 568.7 561.3 584.0 561.6 C 599.3 561.9 614.7 562.1 630.0 562.2 C 645.3 562.3 660.7 562.2 676.0 562.0 C 691.3 561.7 706.7 561.4 722.0 560.9 C 737.3 560.4 752.7 559.8 768.0 559.1 C 783.3 558.5 798.7 557.6 814.0 556.8 C 829.3 555.9 844.7 554.9 860.0 553.8 C 875.3 552.8 890.7 551.7 906.0 550.5 C 921.3 549.4 936.7 548.1 952.0 546.9 C 967.3 545.7 982.7 544.4 998.0 543.2 C 1013.3 542.0 1028.7 540.7 1044.0 539.5 C 1059.3 538.3 1074.7 537.1 1090.0 535.9 C 1105.3 534.8 1120.7 533.7 1136.0 532.6 C 1151.3 531.6 1166.7 530.6 1182.0 529.7 C 1197.3 528.9 1212.7 528.1 1228.0 527.4 C 1243.3 526.7 1258.7 526.1 1274.0 525.6 C 1289.3 525.1 1304.7 524.7 1320.0 524.5 C 1335.3 524.2 1350.7 524.1 1366.0 524.1 C 1381.3 524.1 1396.7 524.2 1412.0 524.4 C 1427.3 524.7 1442.7 525.1 1458.0 525.6 C 1473.3 526.1 1488.7 526.7 1504.0 527.5 C 1519.3 528.2 1534.7 529.1 1550.0 530.1 C 1565.3 531.1 1580.7 532.2 1596.0 533.3 C 1611.3 534.5 1634.3 536.5 1642.0 537.2" stroke="#F5F0E8" stroke-width="1.5" stroke-opacity="0.195" fill="none" stroke-linecap="round"/><path d="M -60.0 544.2 C -52.3 544.1 -29.3 543.9 -14.0 543.8 C 1.3 543.7 16.7 543.7 32.0 543.7 C 47.3 543.7 62.7 543.8 78.0 543.9 C 93.3 544.0 108.7 544.2 124.0 544.5 C 139.3 544.8 154.7 545.1 170.0 545.5 C 185.3 545.9 200.7 546.4 216.0 546.8 C 231.3 547.3 246.7 547.8 262.0 548.4 C 277.3 548.9 292.7 549.5 308.0 550.1 C 323.3 550.6 338.7 551.2 354.0 551.7 C 369.3 552.2 384.7 552.8 400.0 553.2 C 415.3 553.7 430.7 554.1 446.0 554.5 C 461.3 554.9 476.7 555.2 492.0 555.5 C 507.3 555.7 522.7 555.9 538.0 556.1 C 553.3 556.3 568.7 556.4 584.0 556.4 C 599.3 556.5 614.7 556.5 630.0 556.6 C 645.3 556.6 660.7 556.6 676.0 556.6 C 691.3 556.6 706.7 556.6 722.0 556.6 C 737.3 556.7 752.7 556.7 768.0 556.9 C 783.3 557.0 798.7 557.2 814.0 557.5 C 829.3 557.8 844.7 558.2 860.0 558.6 C 875.3 559.1 890.7 559.7 906.0 560.3 C 921.3 561.0 936.7 561.8 952.0 562.7 C 967.3 563.5 982.7 564.5 998.0 565.6 C 1013.3 566.6 1028.7 567.8 1044.0 569.0 C 1059.3 570.2 1074.7 571.5 1090.0 572.8 C 1105.3 574.0 1120.7 575.4 1136.0 576.6 C 1151.3 577.9 1166.7 579.2 1182.0 580.4 C 1197.3 581.5 1212.7 582.7 1228.0 583.6 C 1243.3 584.6 1258.7 585.5 1274.0 586.2 C 1289.3 586.9 1304.7 587.4 1320.0 587.8 C 1335.3 588.1 1350.7 588.2 1366.0 588.2 C 1381.3 588.1 1396.7 587.8 1412.0 587.2 C 1427.3 586.7 1442.7 585.9 1458.0 584.9 C 1473.3 583.9 1488.7 582.7 1504.0 581.3 C 1519.3 579.9 1534.7 578.3 1550.0 576.5 C 1565.3 574.8 1580.7 572.8 1596.0 570.8 C 1611.3 568.8 1634.3 565.6 1642.0 564.5" stroke="#F5F0E8" stroke-width="1" stroke-opacity="0.085" fill="none" stroke-linecap="round"/><path d="M -60.0 614.2 C -52.3 614.8 -29.3 616.7 -14.0 617.5 C 1.3 618.3 16.7 619.0 32.0 619.2 C 47.3 619.5 62.7 619.5 78.0 619.1 C 93.3 618.7 108.7 618.1 124.0 617.0 C 139.3 616.0 154.7 614.7 170.0 613.1 C 185.3 611.5 200.7 609.5 216.0 607.4 C 231.3 605.3 246.7 602.8 262.0 600.3 C 277.3 597.8 292.7 595.1 308.0 592.4 C 323.3 589.7 338.7 586.8 354.0 584.1 C 369.3 581.3 384.7 578.5 400.0 576.0 C 415.3 573.4 430.7 570.9 446.0 568.7 C 461.3 566.5 476.7 564.5 492.0 562.8 C 507.3 561.1 522.7 559.7 538.0 558.6 C 553.3 557.5 568.7 556.8 584.0 556.4 C 599.3 556.0 614.7 556.0 630.0 556.3 C 645.3 556.6 660.7 557.3 676.0 558.3 C 691.3 559.2 706.7 560.5 722.0 562.0 C 737.3 563.5 752.7 565.3 768.0 567.2 C 783.3 569.0 798.7 571.1 814.0 573.2 C 829.3 575.2 844.7 577.4 860.0 579.5 C 875.3 581.5 890.7 583.6 906.0 585.4 C 921.3 587.3 936.7 589.0 952.0 590.4 C 967.3 591.9 982.7 593.1 998.0 594.0 C 1013.3 594.9 1028.7 595.5 1044.0 595.7 C 1059.3 596.0 1074.7 595.9 1090.0 595.4 C 1105.3 594.9 1120.7 594.1 1136.0 592.9 C 1151.3 591.7 1166.7 590.2 1182.0 588.4 C 1197.3 586.6 1212.7 584.5 1228.0 582.2 C 1243.3 579.9 1258.7 577.3 1274.0 574.7 C 1289.3 572.1 1304.7 569.2 1320.0 566.5 C 1335.3 563.8 1350.7 560.9 1366.0 558.3 C 1381.3 555.6 1396.7 552.9 1412.0 550.6 C 1427.3 548.2 1442.7 546.0 1458.0 544.1 C 1473.3 542.2 1488.7 540.5 1504.0 539.3 C 1519.3 538.0 1534.7 537.1 1550.0 536.5 C 1565.3 536.0 1580.7 535.8 1596.0 536.0 C 1611.3 536.3 1634.3 537.6 1642.0 537.9" stroke="#F5F0E8" stroke-width="1" stroke-opacity="0.070" fill="none" stroke-linecap="round"/><path d="M -60.0 647.6 C -52.3 647.4 -29.3 646.8 -14.0 646.1 C 1.3 645.4 16.7 644.5 32.0 643.4 C 47.3 642.3 62.7 641.0 78.0 639.5 C 93.3 638.0 108.7 636.3 124.0 634.4 C 139.3 632.5 154.7 630.5 170.0 628.2 C 185.3 626.0 200.7 623.6 216.0 621.2 C 231.3 618.7 246.7 616.1 262.0 613.5 C 277.3 610.8 292.7 608.1 308.0 605.4 C 323.3 602.8 338.7 600.1 354.0 597.5 C 369.3 594.9 384.7 592.4 400.0 590.0 C 415.3 587.6 430.7 585.3 446.0 583.2 C 461.3 581.1 476.7 579.1 492.0 577.4 C 507.3 575.7 522.7 574.2 538.0 572.9 C 553.3 571.6 568.7 570.6 584.0 569.8 C 599.3 568.9 614.7 568.4 630.0 568.0 C 645.3 567.6 660.7 567.5 676.0 567.5 C 691.3 567.5 706.7 567.8 722.0 568.2 C 737.3 568.5 752.7 569.1 768.0 569.7 C 783.3 570.3 798.7 571.1 814.0 571.8 C 829.3 572.6 844.7 573.5 860.0 574.3 C 875.3 575.0 890.7 575.9 906.0 576.6 C 921.3 577.3 936.7 578.0 952.0 578.6 C 967.3 579.2 982.7 579.7 998.0 580.0 C 1013.3 580.3 1028.7 580.6 1044.0 580.6 C 1059.3 580.7 1074.7 580.6 1090.0 580.4 C 1105.3 580.1 1120.7 579.8 1136.0 579.2 C 1151.3 578.7 1166.7 578.1 1182.0 577.3 C 1197.3 576.5 1212.7 575.6 1228.0 574.7 C 1243.3 573.7 1258.7 572.6 1274.0 571.5 C 1289.3 570.4 1304.7 569.2 1320.0 568.0 C 1335.3 566.9 1350.7 565.6 1366.0 564.5 C 1381.3 563.3 1396.7 562.1 1412.0 561.0 C 1427.3 559.9 1442.7 558.8 1458.0 557.8 C 1473.3 556.8 1488.7 555.8 1504.0 555.0 C 1519.3 554.1 1534.7 553.3 1550.0 552.5 C 1565.3 551.8 1580.7 551.1 1596.0 550.5 C 1611.3 549.9 1634.3 549.1 1642.0 548.8" stroke="#F5F0E8" stroke-width="1" stroke-opacity="0.071" fill="none" stroke-linecap="round"/><path d="M -60.0 686.8 C -52.3 687.5 -29.3 689.9 -14.0 691.0 C 1.3 692.1 16.7 692.8 32.0 693.2 C 47.3 693.6 62.7 693.7 78.0 693.5 C 93.3 693.3 108.7 692.7 124.0 691.9 C 139.3 691.1 154.7 690.0 170.0 688.7 C 185.3 687.4 200.7 685.8 216.0 684.1 C 231.3 682.4 246.7 680.4 262.0 678.4 C 277.3 676.5 292.7 674.3 308.0 672.2 C 323.3 670.1 338.7 667.8 354.0 665.7 C 369.3 663.6 384.7 661.5 400.0 659.5 C 415.3 657.6 430.7 655.6 446.0 653.9 C 461.3 652.3 476.7 650.7 492.0 649.4 C 507.3 648.1 522.7 647.0 538.0 646.1 C 553.3 645.3 568.7 644.7 584.0 644.4 C 599.3 644.1 614.7 644.1 630.0 644.4 C 645.3 644.7 660.7 645.3 676.0 646.1 C 691.3 647.0 706.7 648.1 722.0 649.5 C 737.3 650.9 752.7 652.6 768.0 654.5 C 783.3 656.3 798.7 658.5 814.0 660.7 C 829.3 663.0 844.7 665.5 860.0 668.1 C 875.3 670.7 890.7 673.5 906.0 676.2 C 921.3 679.0 936.7 681.9 952.0 684.7 C 967.3 687.6 982.7 690.5 998.0 693.3 C 1013.3 696.1 1028.7 698.9 1044.0 701.5 C 1059.3 704.1 1074.7 706.7 1090.0 709.1 C 1105.3 711.5 1120.7 713.7 1136.0 715.8 C 1151.3 717.8 1166.7 719.7 1182.0 721.3 C 1197.3 722.9 1212.7 724.4 1228.0 725.6 C 1243.3 726.7 1258.7 727.7 1274.0 728.4 C 1289.3 729.2 1304.7 729.7 1320.0 730.0 C 1335.3 730.2 1350.7 730.3 1366.0 730.2 C 1381.3 730.1 1396.7 729.7 1412.0 729.2 C 1427.3 728.8 1442.7 728.1 1458.0 727.3 C 1473.3 726.6 1488.7 725.6 1504.0 724.7 C 1519.3 723.7 1534.7 722.6 1550.0 721.5 C 1565.3 720.4 1580.7 719.3 1596.0 718.2 C 1611.3 717.1 1634.3 715.5 1642.0 714.9" stroke="#F5F0E8" stroke-width="1.5" stroke-opacity="0.174" fill="none" stroke-linecap="round"/><path d="M -60.0 677.6 C -52.3 678.4 -29.3 680.7 -14.0 682.3 C 1.3 683.8 16.7 685.3 32.0 686.8 C 47.3 688.2 62.7 689.7 78.0 691.0 C 93.3 692.4 108.7 693.7 124.0 694.9 C 139.3 696.1 154.7 697.3 170.0 698.3 C 185.3 699.4 200.7 700.4 216.0 701.4 C 231.3 702.3 246.7 703.2 262.0 703.9 C 277.3 704.7 292.7 705.4 308.0 706.1 C 323.3 706.8 338.7 707.4 354.0 707.9 C 369.3 708.4 384.7 708.9 400.0 709.4 C 415.3 709.8 430.7 710.2 446.0 710.6 C 461.3 711.0 476.7 711.3 492.0 711.7 C 507.3 712.0 522.7 712.3 538.0 712.6 C 553.3 712.9 568.7 713.2 584.0 713.5 C 599.3 713.8 614.7 714.2 630.0 714.5 C 645.3 714.8 660.7 715.1 676.0 715.4 C 691.3 715.8 706.7 716.1 722.0 716.5 C 737.3 716.8 752.7 717.2 768.0 717.6 C 783.3 717.9 798.7 718.3 814.0 718.7 C 829.3 719.1 844.7 719.5 860.0 719.9 C 875.3 720.2 890.7 720.6 906.0 721.0 C 921.3 721.3 936.7 721.7 952.0 722.0 C 967.3 722.3 982.7 722.6 998.0 722.9 C 1013.3 723.1 1028.7 723.3 1044.0 723.5 C 1059.3 723.7 1074.7 723.8 1090.0 723.9 C 1105.3 723.9 1120.7 724.0 1136.0 723.9 C 1151.3 723.9 1166.7 723.8 1182.0 723.7 C 1197.3 723.5 1212.7 723.3 1228.0 723.1 C 1243.3 722.8 1258.7 722.5 1274.0 722.2 C 1289.3 721.8 1304.7 721.4 1320.0 721.0 C 1335.3 720.6 1350.7 720.1 1366.0 719.7 C 1381.3 719.2 1396.7 718.7 1412.0 718.2 C 1427.3 717.7 1442.7 717.2 1458.0 716.7 C 1473.3 716.2 1488.7 715.7 1504.0 715.3 C 1519.3 714.9 1534.7 714.4 1550.0 714.1 C 1565.3 713.8 1580.7 713.5 1596.0 713.2 C 1611.3 713.0 1634.3 712.9 1642.0 712.8" stroke="#F5F0E8" stroke-width="1" stroke-opacity="0.051" fill="none" stroke-linecap="round"/><path d="M -60.0 721.8 C -52.3 720.8 -29.3 717.8 -14.0 715.7 C 1.3 713.6 16.7 711.5 32.0 709.4 C 47.3 707.3 62.7 705.2 78.0 703.2 C 93.3 701.1 108.7 699.1 124.0 697.2 C 139.3 695.3 154.7 693.4 170.0 691.6 C 185.3 689.9 200.7 688.2 216.0 686.7 C 231.3 685.2 246.7 683.8 262.0 682.6 C 277.3 681.4 292.7 680.3 308.0 679.4 C 323.3 678.5 338.7 677.8 354.0 677.2 C 369.3 676.7 384.7 676.3 400.0 676.1 C 415.3 675.9 430.7 675.8 446.0 676.0 C 461.3 676.1 476.7 676.4 492.0 676.8 C 507.3 677.2 522.7 677.8 538.0 678.6 C 553.3 679.3 568.7 680.1 584.0 681.0 C 599.3 681.9 614.7 683.0 630.0 684.0 C 645.3 685.1 660.7 686.3 676.0 687.4 C 691.3 688.6 706.7 689.8 722.0 690.9 C 737.3 692.1 752.7 693.3 768.0 694.4 C 783.3 695.5 798.7 696.6 814.0 697.6 C 829.3 698.6 844.7 699.5 860.0 700.3 C 875.3 701.1 890.7 701.8 906.0 702.4 C 921.3 702.9 936.7 703.4 952.0 703.7 C 967.3 704.0 982.7 704.2 998.0 704.2 C 1013.3 704.2 1028.7 704.1 1044.0 703.8 C 1059.3 703.5 1074.7 703.1 1090.0 702.5 C 1105.3 702.0 1120.7 701.3 1136.0 700.5 C 1151.3 699.7 1166.7 698.7 1182.0 697.7 C 1197.3 696.7 1212.7 695.5 1228.0 694.3 C 1243.3 693.1 1258.7 691.8 1274.0 690.5 C 1289.3 689.2 1304.7 687.8 1320.0 686.5 C 1335.3 685.1 1350.7 683.7 1366.0 682.4 C 1381.3 681.0 1396.7 679.7 1412.0 678.4 C 1427.3 677.2 1442.7 675.9 1458.0 674.8 C 1473.3 673.6 1488.7 672.6 1504.0 671.6 C 1519.3 670.6 1534.7 669.8 1550.0 669.0 C 1565.3 668.3 1580.7 667.6 1596.0 667.1 C 1611.3 666.6 1634.3 666.2 1642.0 666.0" stroke="#F5F0E8" stroke-width="1" stroke-opacity="0.054" fill="none" stroke-linecap="round"/><path d="M -60.0 731.3 C -52.3 731.1 -29.3 730.7 -14.0 730.5 C 1.3 730.3 16.7 730.2 32.0 730.2 C 47.3 730.1 62.7 730.1 78.0 730.2 C 93.3 730.3 108.7 730.4 124.0 730.6 C 139.3 730.8 154.7 731.1 170.0 731.4 C 185.3 731.8 200.7 732.2 216.0 732.7 C 231.3 733.2 246.7 733.7 262.0 734.3 C 277.3 734.9 292.7 735.6 308.0 736.3 C 323.3 737.0 338.7 737.8 354.0 738.7 C 369.3 739.5 384.7 740.4 400.0 741.4 C 415.3 742.3 430.7 743.3 446.0 744.4 C 461.3 745.4 476.7 746.5 492.0 747.6 C 507.3 748.7 522.7 749.9 538.0 751.0 C 553.3 752.2 568.7 753.4 584.0 754.6 C 599.3 755.9 614.7 757.1 630.0 758.4 C 645.3 759.6 660.7 760.9 676.0 762.1 C 691.3 763.4 706.7 764.6 722.0 765.9 C 737.3 767.1 752.7 768.4 768.0 769.6 C 783.3 770.8 798.7 772.0 814.0 773.2 C 829.3 774.4 844.7 775.6 860.0 776.7 C 875.3 777.8 890.7 778.9 906.0 779.9 C 921.3 781.0 936.7 782.0 952.0 782.9 C 967.3 783.9 982.7 784.8 998.0 785.6 C 1013.3 786.4 1028.7 787.2 1044.0 788.0 C 1059.3 788.7 1074.7 789.4 1090.0 790.0 C 1105.3 790.6 1120.7 791.1 1136.0 791.6 C 1151.3 792.1 1166.7 792.5 1182.0 792.8 C 1197.3 793.1 1212.7 793.4 1228.0 793.6 C 1243.3 793.8 1258.7 793.9 1274.0 794.0 C 1289.3 794.0 1304.7 794.0 1320.0 793.9 C 1335.3 793.8 1350.7 793.7 1366.0 793.5 C 1381.3 793.3 1396.7 793.0 1412.0 792.6 C 1427.3 792.3 1442.7 791.9 1458.0 791.4 C 1473.3 791.0 1488.7 790.5 1504.0 789.9 C 1519.3 789.3 1534.7 788.7 1550.0 788.0 C 1565.3 787.4 1580.7 786.7 1596.0 785.9 C 1611.3 785.2 1634.3 784.0 1642.0 783.6" stroke="#F5F0E8" stroke-width="1" stroke-opacity="0.045" fill="none" stroke-linecap="round"/><path d="M -60.0 781.9 C -52.3 782.6 -29.3 784.8 -14.0 786.2 C 1.3 787.6 16.7 789.0 32.0 790.2 C 47.3 791.5 62.7 792.8 78.0 793.9 C 93.3 795.1 108.7 796.1 124.0 797.2 C 139.3 798.2 154.7 799.1 170.0 800.0 C 185.3 800.8 200.7 801.6 216.0 802.4 C 231.3 803.1 246.7 803.8 262.0 804.4 C 277.3 805.0 292.7 805.5 308.0 806.1 C 323.3 806.6 338.7 807.1 354.0 807.5 C 369.3 808.0 384.7 808.4 400.0 808.8 C 415.3 809.3 430.7 809.7 446.0 810.1 C 461.3 810.6 476.7 811.0 492.0 811.5 C 507.3 812.0 522.7 812.5 538.0 813.0 C 553.3 813.6 568.7 814.2 584.0 814.8 C 599.3 815.5 614.7 816.2 630.0 817.0 C 645.3 817.8 660.7 818.7 676.0 819.6 C 691.3 820.5 706.7 821.5 722.0 822.6 C 737.3 823.7 752.7 824.8 768.0 826.1 C 783.3 827.3 798.7 828.6 814.0 830.0 C 829.3 831.3 844.7 832.7 860.0 834.2 C 875.3 835.7 890.7 837.2 906.0 838.8 C 921.3 840.3 936.7 841.9 952.0 843.5 C 967.3 845.1 982.7 846.8 998.0 848.4 C 1013.3 850.0 1028.7 851.6 1044.0 853.2 C 1059.3 854.8 1074.7 856.4 1090.0 857.9 C 1105.3 859.4 1120.7 860.9 1136.0 862.3 C 1151.3 863.7 1166.7 865.1 1182.0 866.4 C 1197.3 867.6 1212.7 868.8 1228.0 869.9 C 1243.3 871.0 1258.7 872.0 1274.0 872.9 C 1289.3 873.8 1304.7 874.6 1320.0 875.3 C 1335.3 876.0 1350.7 876.6 1366.0 877.1 C 1381.3 877.6 1396.7 878.0 1412.0 878.3 C 1427.3 878.6 1442.7 878.8 1458.0 878.9 C 1473.3 879.0 1488.7 879.0 1504.0 879.0 C 1519.3 879.0 1534.7 878.8 1550.0 878.7 C 1565.3 878.5 1580.7 878.3 1596.0 878.1 C 1611.3 877.8 1634.3 877.4 1642.0 877.2" stroke="#F5F0E8" stroke-width="1.5" stroke-opacity="0.194" fill="none" stroke-linecap="round"/><path d="M -60.0 816.9 C -52.3 816.8 -29.3 816.3 -14.0 816.1 C 1.3 815.9 16.7 815.7 32.0 815.6 C 47.3 815.5 62.7 815.4 78.0 815.3 C 93.3 815.3 108.7 815.3 124.0 815.4 C 139.3 815.4 154.7 815.6 170.0 815.7 C 185.3 815.9 200.7 816.1 216.0 816.4 C 231.3 816.6 246.7 817.0 262.0 817.3 C 277.3 817.7 292.7 818.1 308.0 818.5 C 323.3 819.0 338.7 819.5 354.0 820.0 C 369.3 820.5 384.7 821.1 400.0 821.7 C 415.3 822.3 430.7 822.9 446.0 823.5 C 461.3 824.1 476.7 824.8 492.0 825.4 C 507.3 826.1 522.7 826.8 538.0 827.4 C 553.3 828.1 568.7 828.8 584.0 829.5 C 599.3 830.1 614.7 830.8 630.0 831.5 C 645.3 832.1 660.7 832.7 676.0 833.4 C 691.3 834.0 706.7 834.6 722.0 835.2 C 737.3 835.8 752.7 836.3 768.0 836.9 C 783.3 837.4 798.7 837.9 814.0 838.4 C 829.3 838.8 844.7 839.3 860.0 839.7 C 875.3 840.1 890.7 840.5 906.0 840.9 C 921.3 841.3 936.7 841.6 952.0 841.9 C 967.3 842.2 982.7 842.5 998.0 842.8 C 1013.3 843.0 1028.7 843.3 1044.0 843.5 C 1059.3 843.7 1074.7 843.9 1090.0 844.1 C 1105.3 844.3 1120.7 844.4 1136.0 844.6 C 1151.3 844.8 1166.7 844.9 1182.0 845.0 C 1197.3 845.2 1212.7 845.3 1228.0 845.5 C 1243.3 845.6 1258.7 845.7 1274.0 845.9 C 1289.3 846.0 1304.7 846.1 1320.0 846.3 C 1335.3 846.4 1350.7 846.5 1366.0 846.7 C 1381.3 846.8 1396.7 847.0 1412.0 847.2 C 1427.3 847.3 1442.7 847.5 1458.0 847.7 C 1473.3 847.8 1488.7 848.0 1504.0 848.2 C 1519.3 848.4 1534.7 848.6 1550.0 848.8 C 1565.3 849.0 1580.7 849.2 1596.0 849.4 C 1611.3 849.6 1634.3 849.9 1642.0 850.0" stroke="#F5F0E8" stroke-width="1" stroke-opacity="0.064" fill="none" stroke-linecap="round"/><path d="M -60.0 842.5 C -52.3 842.7 -29.3 843.0 -14.0 843.4 C 1.3 843.9 16.7 844.5 32.0 845.3 C 47.3 846.0 62.7 846.9 78.0 847.9 C 93.3 848.8 108.7 849.9 124.0 851.0 C 139.3 852.1 154.7 853.3 170.0 854.5 C 185.3 855.6 200.7 856.8 216.0 857.9 C 231.3 859.0 246.7 860.1 262.0 861.1 C 277.3 862.0 292.7 862.9 308.0 863.7 C 323.3 864.5 338.7 865.2 354.0 865.7 C 369.3 866.2 384.7 866.6 400.0 866.8 C 415.3 867.1 430.7 867.1 446.0 867.1 C 461.3 867.0 476.7 866.8 492.0 866.5 C 507.3 866.1 522.7 865.7 538.0 865.1 C 553.3 864.5 568.7 863.9 584.0 863.1 C 599.3 862.4 614.7 861.6 630.0 860.8 C 645.3 860.0 660.7 859.1 676.0 858.3 C 691.3 857.5 706.7 856.6 722.0 855.9 C 737.3 855.2 752.7 854.5 768.0 853.9 C 783.3 853.3 798.7 852.8 814.0 852.4 C 829.3 852.0 844.7 851.8 860.0 851.6 C 875.3 851.5 890.7 851.5 906.0 851.6 C 921.3 851.8 936.7 852.1 952.0 852.4 C 967.3 852.8 982.7 853.3 998.0 853.9 C 1013.3 854.5 1028.7 855.3 1044.0 856.0 C 1059.3 856.8 1074.7 857.6 1090.0 858.4 C 1105.3 859.3 1120.7 860.2 1136.0 861.0 C 1151.3 861.8 1166.7 862.7 1182.0 863.4 C 1197.3 864.2 1212.7 864.9 1228.0 865.5 C 1243.3 866.1 1258.7 866.6 1274.0 866.9 C 1289.3 867.3 1304.7 867.5 1320.0 867.6 C 1335.3 867.6 1350.7 867.6 1366.0 867.3 C 1381.3 867.1 1396.7 866.7 1412.0 866.2 C 1427.3 865.7 1442.7 865.0 1458.0 864.2 C 1473.3 863.4 1488.7 862.4 1504.0 861.4 C 1519.3 860.3 1534.7 859.2 1550.0 858.0 C 1565.3 856.8 1580.7 855.6 1596.0 854.3 C 1611.3 853.1 1634.3 851.2 1642.0 850.6" stroke="#F5F0E8" stroke-width="1" stroke-opacity="0.063" fill="none" stroke-linecap="round"/><path d="M -60.0 902.5 C -52.3 902.3 -29.3 901.7 -14.0 901.1 C 1.3 900.6 16.7 900.0 32.0 899.3 C 47.3 898.6 62.7 897.9 78.0 897.0 C 93.3 896.2 108.7 895.3 124.0 894.3 C 139.3 893.4 154.7 892.3 170.0 891.3 C 185.3 890.2 200.7 889.1 216.0 888.0 C 231.3 886.9 246.7 885.7 262.0 884.6 C 277.3 883.5 292.7 882.4 308.0 881.3 C 323.3 880.2 338.7 879.1 354.0 878.1 C 369.3 877.1 384.7 876.1 400.0 875.2 C 415.3 874.3 430.7 873.4 446.0 872.6 C 461.3 871.9 476.7 871.1 492.0 870.5 C 507.3 869.9 522.7 869.3 538.0 868.8 C 553.3 868.3 568.7 867.8 584.0 867.4 C 599.3 867.0 614.7 866.7 630.0 866.4 C 645.3 866.1 660.7 865.8 676.0 865.5 C 691.3 865.2 706.7 865.0 722.0 864.7 C 737.3 864.5 752.7 864.2 768.0 863.9 C 783.3 863.5 798.7 863.2 814.0 862.7 C 829.3 862.3 844.7 861.8 860.0 861.3 C 875.3 860.7 890.7 860.1 906.0 859.3 C 921.3 858.6 936.7 857.8 952.0 856.8 C 967.3 855.9 982.7 854.9 998.0 853.8 C 1013.3 852.7 1028.7 851.5 1044.0 850.2 C 1059.3 849.0 1074.7 847.6 1090.0 846.2 C 1105.3 844.8 1120.7 843.3 1136.0 841.9 C 1151.3 840.4 1166.7 838.9 1182.0 837.4 C 1197.3 835.9 1212.7 834.4 1228.0 833.0 C 1243.3 831.6 1258.7 830.1 1274.0 828.8 C 1289.3 827.5 1304.7 826.3 1320.0 825.1 C 1335.3 824.0 1350.7 822.9 1366.0 822.0 C 1381.3 821.1 1396.7 820.4 1412.0 819.7 C 1427.3 819.1 1442.7 818.6 1458.0 818.3 C 1473.3 818.0 1488.7 817.8 1504.0 817.7 C 1519.3 817.7 1534.7 817.8 1550.0 818.1 C 1565.3 818.3 1580.7 818.7 1596.0 819.1 C 1611.3 819.6 1634.3 820.5 1642.0 820.8" stroke="#F5F0E8" stroke-width="1" stroke-opacity="0.090" fill="none" stroke-linecap="round"/><path d="M -60.0 925.1 C -52.3 925.0 -29.3 924.6 -14.0 924.5 C 1.3 924.5 16.7 924.5 32.0 924.6 C 47.3 924.8 62.7 925.0 78.0 925.3 C 93.3 925.7 108.7 926.1 124.0 926.6 C 139.3 927.0 154.7 927.6 170.0 928.1 C 185.3 928.7 200.7 929.3 216.0 929.9 C 231.3 930.4 246.7 931.0 262.0 931.5 C 277.3 932.0 292.7 932.5 308.0 932.9 C 323.3 933.2 338.7 933.5 354.0 933.7 C 369.3 933.8 384.7 933.9 400.0 933.8 C 415.3 933.6 430.7 933.4 446.0 932.9 C 461.3 932.5 476.7 931.9 492.0 931.2 C 507.3 930.5 522.7 929.6 538.0 928.6 C 553.3 927.6 568.7 926.5 584.0 925.3 C 599.3 924.0 614.7 922.7 630.0 921.3 C 645.3 920.0 660.7 918.5 676.0 917.1 C 691.3 915.7 706.7 914.2 722.0 912.9 C 737.3 911.5 752.7 910.2 768.0 909.0 C 783.3 907.8 798.7 906.6 814.0 905.7 C 829.3 904.7 844.7 903.9 860.0 903.3 C 875.3 902.6 890.7 902.1 906.0 901.9 C 921.3 901.6 936.7 901.5 952.0 901.6 C 967.3 901.7 982.7 902.0 998.0 902.5 C 1013.3 903.0 1028.7 903.6 1044.0 904.4 C 1059.3 905.2 1074.7 906.2 1090.0 907.2 C 1105.3 908.2 1120.7 909.4 1136.0 910.5 C 1151.3 911.7 1166.7 912.9 1182.0 914.1 C 1197.3 915.3 1212.7 916.6 1228.0 917.7 C 1243.3 918.8 1258.7 919.9 1274.0 920.8 C 1289.3 921.8 1304.7 922.7 1320.0 923.4 C 1335.3 924.0 1350.7 924.6 1366.0 925.0 C 1381.3 925.4 1396.7 925.6 1412.0 925.6 C 1427.3 925.6 1442.7 925.5 1458.0 925.2 C 1473.3 924.9 1488.7 924.4 1504.0 923.8 C 1519.3 923.2 1534.7 922.5 1550.0 921.6 C 1565.3 920.8 1580.7 919.8 1596.0 918.9 C 1611.3 917.9 1634.3 916.3 1642.0 915.8" stroke="#F5F0E8" stroke-width="1.5" stroke-opacity="0.212" fill="none" stroke-linecap="round"/><path d="M -60.0 964.1 C -52.3 963.6 -29.3 962.2 -14.0 961.3 C 1.3 960.4 16.7 959.5 32.0 958.6 C 47.3 957.7 62.7 956.8 78.0 955.9 C 93.3 955.0 108.7 954.1 124.0 953.3 C 139.3 952.4 154.7 951.6 170.0 950.8 C 185.3 950.0 200.7 949.2 216.0 948.5 C 231.3 947.8 246.7 947.0 262.0 946.4 C 277.3 945.7 292.7 945.0 308.0 944.4 C 323.3 943.8 338.7 943.2 354.0 942.7 C 369.3 942.1 384.7 941.6 400.0 941.1 C 415.3 940.7 430.7 940.2 446.0 939.8 C 461.3 939.3 476.7 938.9 492.0 938.6 C 507.3 938.2 522.7 937.8 538.0 937.5 C 553.3 937.2 568.7 936.9 584.0 936.6 C 599.3 936.3 614.7 936.0 630.0 935.7 C 645.3 935.5 660.7 935.2 676.0 935.0 C 691.3 934.7 706.7 934.5 722.0 934.3 C 737.3 934.0 752.7 933.8 768.0 933.6 C 783.3 933.3 798.7 933.1 814.0 932.9 C 829.3 932.6 844.7 932.4 860.0 932.2 C 875.3 931.9 890.7 931.7 906.0 931.4 C 921.3 931.2 936.7 930.9 952.0 930.7 C 967.3 930.4 982.7 930.1 998.0 929.8 C 1013.3 929.5 1028.7 929.2 1044.0 928.9 C 1059.3 928.6 1074.7 928.2 1090.0 927.9 C 1105.3 927.5 1120.7 927.1 1136.0 926.7 C 1151.3 926.3 1166.7 925.9 1182.0 925.4 C 1197.3 925.0 1212.7 924.5 1228.0 924.0 C 1243.3 923.5 1258.7 923.0 1274.0 922.4 C 1289.3 921.8 1304.7 921.3 1320.0 920.6 C 1335.3 920.0 1350.7 919.4 1366.0 918.7 C 1381.3 918.0 1396.7 917.3 1412.0 916.5 C 1427.3 915.8 1442.7 915.0 1458.0 914.2 C 1473.3 913.4 1488.7 912.5 1504.0 911.7 C 1519.3 910.8 1534.7 909.9 1550.0 909.0 C 1565.3 908.1 1580.7 907.2 1596.0 906.2 C 1611.3 905.3 1634.3 903.8 1642.0 903.4" stroke="#F5F0E8" stroke-width="1" stroke-opacity="0.082" fill="none" stroke-linecap="round"/></g>
<path d="M -60.0 422.4 C -52.3 422.7 -29.3 423.7 -14.0 424.4 C 1.3 425.1 16.7 425.9 32.0 426.7 C 47.3 427.5 62.7 428.4 78.0 429.3 C 93.3 430.1 108.7 431.0 124.0 431.9 C 139.3 432.8 154.7 433.7 170.0 434.6 C 185.3 435.4 200.7 436.3 216.0 437.1 C 231.3 437.9 246.7 438.7 262.0 439.5 C 277.3 440.2 292.7 440.9 308.0 441.6 C 323.3 442.2 338.7 442.8 354.0 443.4 C 369.3 443.9 384.7 444.4 400.0 444.8 C 415.3 445.2 430.7 445.6 446.0 445.9 C 461.3 446.2 476.7 446.4 492.0 446.6 C 507.3 446.8 522.7 447.0 538.0 447.1 C 553.3 447.2 568.7 447.3 584.0 447.4 C 599.3 447.5 614.7 447.5 630.0 447.5 C 645.3 447.6 660.7 447.6 676.0 447.6 C 691.3 447.7 706.7 447.7 722.0 447.8 C 737.3 447.8 752.7 447.9 768.0 448.0 C 783.3 448.1 798.7 448.2 814.0 448.4 C 829.3 448.5 844.7 448.7 860.0 448.9 C 875.3 449.2 890.7 449.4 906.0 449.7 C 921.3 450.0 936.7 450.4 952.0 450.7 C 967.3 451.1 982.7 451.5 998.0 451.9 C 1013.3 452.3 1028.7 452.7 1044.0 453.2 C 1059.3 453.6 1074.7 454.1 1090.0 454.5 C 1105.3 454.9 1120.7 455.4 1136.0 455.8 C 1151.3 456.2 1166.7 456.6 1182.0 456.9 C 1197.3 457.3 1212.7 457.6 1228.0 457.9 C 1243.3 458.1 1258.7 458.3 1274.0 458.5 C 1289.3 458.6 1304.7 458.7 1320.0 458.7 C 1335.3 458.7 1350.7 458.7 1366.0 458.5 C 1381.3 458.4 1396.7 458.2 1412.0 457.9 C 1427.3 457.6 1442.7 457.3 1458.0 456.8 C 1473.3 456.4 1488.7 455.9 1504.0 455.4 C 1519.3 454.8 1534.7 454.2 1550.0 453.5 C 1565.3 452.9 1580.7 452.2 1596.0 451.4 C 1611.3 450.7 1634.3 449.5 1642.0 449.1" stroke="#C9A96E" stroke-width="2" stroke-opacity="0.5" fill="none" stroke-linecap="round"/>
<rect width="1600" height="900" fill="url(#vig)"/>
<rect width="1600" height="900" filter="url(#grain)" opacity="0.05"/>
</svg>