<svg xmlns="http://www.w3.org/2000/svg" preserveAspectRatio="xMidYMid slice" viewBox="0 0 1600 900"><defs><radialGradient id="b" cx=".572" cy=".097" r=".75"><stop offset="0" stop-color="#c9a96e" stop-opacity=".15"/><stop offset="1" stop-color="#c9a96e" stop-opacity="0"/></radialGradient><radialGradient id="c" cx=".5" cy=".5" r=".75"><stop offset=".5" stop-opacity="0"/><stop offset="1" stop-opacity=".5"/></radialGradient><linearGradient id="a" x1="0" x2="0" y1="0" y2="1"><stop offset="0" stop-color="#0b160f"/><stop offset="1" stop-color="#15271b"/></linearGradient><filter id="d"><feTurbulence baseFrequency=".9" numOctaves="2" stitchTiles="stitch" type="fractalNoise"/><feColorMatrix values="0 0 0 0 0 0 0 0 0 0 0 0 0 0 0 0 0 0 0.55 0"/></filter></defs><path fill="url(#a)" d="M0 0h1600v900H0z"/><path fill="url(#b)" d="M0 0h1600v900H0z"/><path fill="#c9a96e" fill-opacity=".028" d="M-60 519.8c7.7-1 30.7-3.8 46-5.7s30.7-3.7 46-5.6c15.3-1.8 30.7-3.6 46-5.4 15.3-1.7 30.7-3.5 46-5.2s30.7-3.3 46-4.9 30.7-3.2 46-4.7 30.7-2.9 46-4.3c15.3-1.3 30.7-2.6 46-3.9 15.3-1.2 30.7-2.4 46-3.5s30.7-2.1 46-3.1c15.3-.9 30.7-1.8 46-2.6s30.7-1.5 46-2.2c15.3-.6 30.7-1.2 46-1.7s30.7-.9 46-1.2c15.3-.4 30.7-.7 46-.9s30.7-.3 46-.4 30.7-.1 46 0c15.3 0 30.7.1 46 .2l46 .6c15.3.3 30.7.5 46 .9 15.3.3 30.7.6 46 1 15.3.3 30.7.7 46 1.1s30.7.9 46 1.3 30.7.8 46 1.3l46 1.2c15.3.4 30.7.8 46 1.1 15.3.4 30.7.7 46 1s30.7.6 46 .8 30.7.4 46 .5 30.7.2 46 .2 30.7-.1 46-.2 30.7-.3 46-.5c15.3-.3 30.7-.6 46-1s30.7-.8 46-1.4c15.3-.5 30.7-1.1 46-1.8s30.7-1.5 46-2.3 35.3-84.7 46-2.7c10.7 81.9 301.7 411.8 18 494.2s-1433.3 0-1720 0Z"/><g fill="none" stroke="#f5f0e8" stroke-linecap="round"><path stroke-opacity=".049" d="M-60-58.5c7.7-.3 30.7-1.3 46-2.1s30.7-1.6 46-2.4c15.3-.9 30.7-1.8 46-2.7s30.7-1.9 46-2.9c15.3-.9 30.7-1.9 46-2.9s30.7-2 46-2.9c15.3-1 30.7-1.9 46-2.7 15.3-.9 30.7-1.7 46-2.5 15.3-.7 30.7-1.4 46-2s30.7-1.1 46-1.5 30.7-.7 46-1c15.3-.2 30.7-.4 46-.4 15.3-.1 30.7-.1 46-.1 15.3.1 30.7.2 46 .4 15.3.1 30.7.4 46 .6l46 .6c15.3.2 30.7.4 46 .5s30.7.2 46 .2a3527 3527 0 0 0 92-1.2c15.3-.4 30.7-.9 46-1.6s30.7-1.5 46-2.4 30.7-1.9 46-3.1c15.3-1.1 30.7-2.4 46-3.7 15.3-1.4 30.7-2.9 46-4.4s30.7-3.1 46-4.7 30.7-3.3 46-5c15.3-1.6 30.7-3.3 46-4.9 15.3-1.7 30.7-3.3 46-4.8a3578 3578 0 0 1 92-8.4c15.3-1.3 30.7-2.4 46-3.4s30.7-1.9 46-2.7 30.7-1.4 46-2 30.7-1.1 46-1.5l46-.9 46-.6"/><path stroke-opacity=".24" stroke-width="1.5" d="M-60-51.5c7.7.7 30.7 2.5 46 4.1s30.7 3.5 46 5.5 30.7 4.3 46 6.6 30.7 4.8 46 7.2 30.7 4.9 46 7.3 30.7 4.9 46 7.1 30.7 4.4 46 6.3 30.7 3.7 46 5.2 30.7 2.8 46 3.8 30.7 1.8 46 2.3c15.3.4 30.7.6 46 .6 15.3-.1 30.7-.4 46-.9 15.3-.6 30.7-1.4 46-2.3s30.7-2 46-3.2 30.7-2.6 46-3.9c15.3-1.4 30.7-2.8 46-4.1 15.3-1.4 30.7-2.7 46-3.9s30.7-2.3 46-3.2c15.3-1 30.7-1.7 46-2.3 15.3-.5 30.7-.8 46-.9s30.7.1 46 .5 30.7 1 46 1.9 30.7 2 46 3.3 30.7 2.9 46 4.5 30.7 3.5 46 5.3c15.3 1.9 30.7 3.9 46 5.9 15.3 1.9 30.7 3.9 46 5.8s30.7 3.8 46 5.5 30.7 3.4 46 4.8c15.3 1.3 30.7 2.6 46 3.6 15.3.9 30.7 1.7 46 2.2s30.7.7 46 .7c15.3-.1 30.7-.4 46-.9s30.7-1.3 46-2.3c15.3-.9 30.7-2.1 46-3.5 15.3-1.3 30.7-2.8 46-4.3s38.3-4 46-4.8"/><path stroke-opacity=".077" d="M-60 15.2c7.7-.5 30.7-1.8 46-2.8s30.7-2 46-3.2c15.3-1.1 30.7-2.3 46-3.5 15.3-1.3 30.7-2.6 46-3.9s30.7-2.6 46-4c15.3-1.3 30.7-2.7 46-4.1 15.3-1.3 30.7-2.7 46-4s30.7-2.7 46-3.9c15.3-1.3 30.7-2.5 46-3.7 15.3-1.1 30.7-2.3 46-3.3s30.7-2 46-2.9c15.3-.8 30.7-1.6 46-2.3 15.3-.8 30.7-1.4 46-1.9s30.7-.9 46-1.2c15.3-.4 30.7-.6 46-.7 15.3-.2 30.7-.2 46-.2 15.3.1 30.7.2 46 .4l46 .9c15.3.4 30.7.8 46 1.3 15.3.4 30.7 1 46 1.5 15.3.6 30.7 1.2 46 1.8s30.7 1.3 46 1.9 30.7 1.3 46 1.9 30.7 1.2 46 1.8 30.7 1.1 46 1.6 30.7 1 46 1.4 30.7.7 46 1 30.7.5 46 .6c15.3.2 30.7.2 46 .2s30.7 0 46-.2c15.3-.1 30.7-.4 46-.7 15.3-.2 30.7-.6 46-1s30.7-.9 46-1.5c15.3-.5 30.7-1.1 46-1.7 15.3-.7 30.7-1.3 46-2.1 15.3-.7 30.7-1.4 46-2.2 15.3-.7 38.3-1.9 46-2.3"/><path stroke-opacity=".088" d="M-60 32.1c7.7-.1 30.7-.8 46-1 15.3-.3 30.7-.5 46-.4 15.3 0 30.7.2 46 .6 15.3.5 30.7 1.1 46 1.9 15.3.9 30.7 2 46 3.4 15.3 1.3 30.7 2.9 46 4.7s30.7 3.9 46 6.1c15.3 2.1 30.7 4.6 46 7 15.3 2.5 30.7 5.2 46 7.8 15.3 2.7 30.7 5.4 46 8.1 15.3 2.6 30.7 5.3 46 7.8 15.3 2.6 30.7 5.1 46 7.3 15.3 2.3 30.7 4.4 46 6.3 15.3 1.8 30.7 3.5 46 4.9s30.7 2.5 46 3.4c15.3.8 30.7 1.4 46 1.7 15.3.4 30.7.4 46 .2s30.7-.6 46-1.2 30.7-1.4 46-2.3 30.7-2 46-3.1c15.3-1 30.7-2.2 46-3.3s30.7-2.2 46-3.1c15.3-1 30.7-1.9 46-2.6s30.7-1.3 46-1.6c15.3-.4 30.7-.5 46-.5 15.3.1 30.7.5 46 1 15.3.6 30.7 1.4 46 2.4s30.7 2.2 46 3.6 30.7 3 46 4.7 30.7 3.6 46 5.5c15.3 1.8 30.7 3.8 46 5.7 15.3 2 30.7 3.9 46 5.8 15.3 1.8 30.7 3.6 46 5.2s30.7 3.1 46 4.3c15.3 1.3 30.7 2.4 46 3.2 15.3.9 30.7 1.5 46 1.9s38.3.4 46 .4"/><path stroke-opacity=".047" d="M-60 87.5c7.7-.2 30.7-.9 46-1.4 15.3-.6 30.7-1.3 46-1.9 15.3-.7 30.7-1.5 46-2.3 15.3-.7 30.7-1.5 46-2.3 15.3-.7 30.7-1.5 46-2.2s30.7-1.4 46-2c15.3-.5 30.7-1.1 46-1.5s30.7-.8 46-1c15.3-.3 30.7-.4 46-.5 15.3 0 30.7.1 46 .3 15.3.1 30.7.4 46 .8s30.7.8 46 1.4 30.7 1.2 46 1.9 30.7 1.5 46 2.3 30.7 1.7 46 2.6 30.7 1.8 46 2.7 30.7 1.8 46 2.7 30.7 1.7 46 2.6c15.3.8 30.7 1.6 46 2.4 15.3.7 30.7 1.4 46 2 15.3.7 30.7 1.3 46 1.8s30.7.9 46 1.3 30.7.8 46 1c15.3.3 30.7.5 46 .7s30.7.3 46 .4 30.7.1 46 .2h138c15.3.1 30.7.1 46 .2 15.3 0 30.7.1 46 .2s30.7.3 46 .5c15.3.1 30.7.3 46 .6 15.3.2 30.7.5 46 .8s30.7.6 46 1c15.3.3 30.7.7 46 1 15.3.4 38.3 1 46 1.1"/><path stroke-opacity=".163" stroke-width="1.5" d="M-60 102.2c7.7-.1 30.7-.3 46-.4 15.3 0 30.7.1 46 .2 15.3.2 30.7.4 46 .8s30.7.8 46 1.4c15.3.5 30.7 1.2 46 1.9s30.7 1.6 46 2.4 30.7 1.8 46 2.6c15.3.9 30.7 1.9 46 2.8 15.3.8 30.7 1.7 46 2.5s30.7 1.5 46 2.1 30.7 1.2 46 1.5 30.7.6 46 .6 30.7-.1 46-.4 30.7-.8 46-1.5 30.7-1.6 46-2.6c15.3-1.1 30.7-2.3 46-3.7s30.7-2.9 46-4.6c15.3-1.6 30.7-3.4 46-5.2 15.3-1.9 30.7-3.8 46-5.7 15.3-2 30.7-4 46-5.9s30.7-3.9 46-5.7c15.3-1.9 30.7-3.7 46-5.4 15.3-1.6 30.7-3.2 46-4.7 15.3-1.4 30.7-2.7 46-3.8 15.3-1.2 30.7-2.2 46-3s30.7-1.4 46-1.9 30.7-.8 46-1 30.7-.2 46-.1 30.7.3 46 .6 30.7.8 46 1.2 30.7 1 46 1.5 30.7 1.1 46 1.6 30.7 1 46 1.5 30.7.9 46 1.3 30.7.7 46 1 30.7.4 46 .6c15.3.1 38.3.1 46 .2"/><path stroke-opacity=".072" d="M-60 153.6c7.7.3 30.7 1 46 1.4 15.3.5 30.7 1 46 1.4s30.7.9 46 1.2 30.7.6 46 .8c15.3.1 30.7.2 46 .2 15.3-.1 30.7-.3 46-.6 15.3-.4 30.7-.8 46-1.5 15.3-.6 30.7-1.4 46-2.4 15.3-.9 30.7-2 46-3.3 15.3-1.2 30.7-2.7 46-4.2s30.7-3.2 46-4.9 30.7-3.6 46-5.5 30.7-3.9 46-5.9 30.7-4 46-6 30.7-4 46-5.9c15.3-2 30.7-3.9 46-5.6 15.3-1.8 30.7-3.5 46-5 15.3-1.6 30.7-3 46-4.3 15.3-1.2 30.7-2.4 46-3.3 15.3-1 30.7-1.7 46-2.4 15.3-.6 30.7-1 46-1.3s30.7-.4 46-.3c15.3 0 30.7.2 46 .6 15.3.3 30.7.7 46 1.3 15.3.5 30.7 1.2 46 1.9s30.7 1.4 46 2.2 30.7 1.6 46 2.3c15.3.8 30.7 1.6 46 2.2 15.3.7 30.7 1.4 46 1.9s30.7 1 46 1.3 30.7.5 46 .5c15.3.1 30.7 0 46-.2 15.3-.3 30.7-.6 46-1.2 15.3-.5 30.7-1.2 46-2s30.7-1.7 46-2.7c15.3-1.1 30.7-2.3 46-3.5s38.3-3.3 46-3.9"/><path stroke-opacity=".055" d="M-60 171.7c7.7.9 30.7 3.3 46 5 15.3 1.6 30.7 3.4 46 4.9 15.3 1.6 30.7 3.1 46 4.4 15.3 1.4 30.7 2.6 46 3.5s30.7 1.7 46 2.1a1176 1176 0 0 0 92-.6c15.3-.7 30.7-1.7 46-2.9s30.7-2.8 46-4.5 30.7-3.7 46-5.9c15.3-2.1 30.7-4.5 46-6.9s30.7-4.9 46-7.5c15.3-2.5 30.7-5.1 46-7.6s30.7-5.1 46-7.4 30.7-4.6 46-6.7c15.3-2 30.7-3.9 46-5.6 15.3-1.6 30.7-3.1 46-4.3 15.3-1.1 30.7-2.1 46-2.8s30.7-1.1 46-1.3 30.7-.1 46 .1 30.7.7 46 1.3 30.7 1.4 46 2.2 30.7 1.8 46 2.7c15.3 1 30.7 2 46 2.9s30.7 1.9 46 2.6c15.3.8 30.7 1.5 46 2s30.7.9 46 1.1c15.3.1 30.7.1 46-.1 15.3-.3 30.7-.7 46-1.4s30.7-1.6 46-2.7 30.7-2.4 46-3.9c15.3-1.4 30.7-3.1 46-4.8 15.3-1.8 30.7-3.7 46-5.6s30.7-3.9 46-5.9c15.3-1.9 30.7-4 46-5.8 15.3-1.9 30.7-3.8 46-5.5s38.3-3.9 46-4.7"/><path stroke-opacity=".056" d="M-60 203.7c7.7.4 30.7 1.8 46 2.7s30.7 1.8 46 2.8c15.3.9 30.7 1.8 46 2.7 15.3 1 30.7 1.9 46 2.8 15.3 1 30.7 1.9 46 2.9s30.7 1.9 46 2.9 30.7 1.9 46 2.9 30.7 2 46 3 30.7 2 46 3.1c15.3 1 30.7 2 46 3 15.3 1.1 30.7 2.1 46 3.1 15.3 1.1 30.7 2.1 46 3.2 15.3 1 30.7 2.1 46 3.1 15.3 1.1 30.7 2.1 46 3.2 15.3 1 30.7 2.1 46 3.1 15.3 1.1 30.7 2.1 46 3.1s30.7 2.1 46 3.1 30.7 1.9 46 2.9 30.7 1.9 46 2.9c15.3.9 30.7 1.8 46 2.7s30.7 1.7 46 2.5c15.3.9 30.7 1.7 46 2.4 15.3.8 30.7 1.5 46 2.3 15.3.7 30.7 1.3 46 2 15.3.6 30.7 1.2 46 1.7 15.3.6 30.7 1.1 46 1.6s30.7 1 46 1.4 30.7.8 46 1.1l46 .9c15.3.3 30.7.5 46 .7 15.3.3 30.7.4 46 .6s30.7.3 46 .4l46 .3c15.3.1 30.7.1 46 .2 15.3 0 30.7.1 46 .1 15.3.1 30.7.1 46 .2 15.3 0 38.3.1 46 .2"/><path stroke-opacity=".262" stroke-width="1.5" d="M-60 238.8c7.7-1.2 30.7-4.7 46-7 15.3-2.2 30.7-4.5 46-6.6s30.7-4.2 46-6.1 30.7-3.7 46-5.2c15.3-1.6 30.7-3 46-4.2 15.3-1.1 30.7-2.1 46-2.8s30.7-1.2 46-1.5c15.3-.2 30.7-.3 46-.1 15.3.3 30.7.7 46 1.4 15.3.6 30.7 1.5 46 2.5s30.7 2.3 46 3.6c15.3 1.4 30.7 2.9 46 4.4 15.3 1.6 30.7 3.3 46 5s30.7 3.4 46 5.1 30.7 3.4 46 5c15.3 1.5 30.7 3.1 46 4.4 15.3 1.4 30.7 2.7 46 3.7 15.3 1.1 30.7 2 46 2.7 15.3.6 30.7 1.1 46 1.3s30.7.2 46 0c15.3-.3 30.7-.8 46-1.5 15.3-.8 30.7-1.8 46-3s30.7-2.7 46-4.3 30.7-3.5 46-5.5 30.7-4.2 46-6.5c15.3-2.2 30.7-4.7 46-7.1s30.7-5 46-7.5 30.7-5 46-7.5c15.3-2.4 30.7-4.9 46-7.2s30.7-4.6 46-6.6c15.3-2.1 30.7-4.1 46-5.8 15.3-1.8 30.7-3.4 46-4.7 15.3-1.4 30.7-2.6 46-3.5 15.3-1 30.7-1.7 46-2.2a1764 1764 0 0 1 92-.6c15.3.2 38.3 1.1 46 1.3"/><path stroke-opacity=".074" d="M-60 259.1c7.7.7 30.7 2.4 46 3.8 15.3 1.5 30.7 3.1 46 4.7 15.3 1.7 30.7 3.5 46 5.2s30.7 3.6 46 5.3 30.7 3.4 46 5 30.7 3.1 46 4.4c15.3 1.4 30.7 2.6 46 3.6a1773 1773 0 0 0 92 4.2c15.3.4 30.7.6 46 .6s30.7-.1 46-.4c15.3-.2 30.7-.6 46-1.1 15.3-.4 30.7-1 46-1.5 15.3-.6 30.7-1.2 46-1.8s30.7-1.3 46-1.8c15.3-.6 30.7-1.1 46-1.5 15.3-.5 30.7-.9 46-1.1 15.3-.3 30.7-.4 46-.5 15.3 0 30.7 0 46 .2 15.3.1 30.7.4 46 .8 15.3.3 30.7.8 46 1.3 15.3.6 30.7 1.2 46 1.8 15.3.7 30.7 1.4 46 2 15.3.7 30.7 1.4 46 2.1 15.3.6 30.7 1.3 46 1.8a3532 3532 0 0 0 92 2.4c15.3.2 30.7.4 46 .4s30.7-.2 46-.4a3529 3529 0 0 0 92-2.4c15.3-.5 30.7-1.1 46-1.8 15.3-.6 30.7-1.2 46-1.8 15.3-.7 30.7-1.3 46-1.8s30.7-1 46-1.4 30.7-.7 46-.8c15.3-.2 38.3-.1 46-.1"/><path stroke-opacity=".047" d="M-60 307.6c7.7.1 30.7-.1 46 .2s30.7 1 46 1.8 30.7 1.9 46 3.2c15.3 1.2 30.7 2.7 46 4.2 15.3 1.6 30.7 3.3 46 5 15.3 1.6 30.7 3.4 46 4.9 15.3 1.6 30.7 3.1 46 4.4 15.3 1.2 30.7 2.4 46 3.1 15.3.8 30.7 1.3 46 1.4s30.7-.1 46-.8c15.3-.6 30.7-1.7 46-3.1 15.3-1.5 30.7-3.4 46-5.6s30.7-4.8 46-7.7 30.7-6.2 46-9.5c15.3-3.4 30.7-7.1 46-10.7 15.3-3.7 30.7-7.5 46-11.2s30.7-7.4 46-10.8c15.3-3.5 30.7-6.8 46-9.8 15.3-2.9 30.7-5.7 46-7.9 15.3-2.3 30.7-4.2 46-5.7 15.3-1.4 30.7-2.4 46-3 15.3-.5 30.7-.5 46-.2 15.3.4 30.7 1.3 46 2.5s30.7 2.8 46 4.7 30.7 4.1 46 6.5c15.3 2.3 30.7 4.9 46 7.5 15.3 2.5 30.7 5.3 46 7.8s30.7 5.1 46 7.4c15.3 2.2 30.7 4.4 46 6.2 15.3 1.7 30.7 3.3 46 4.4 15.3 1.2 30.7 2 46 2.4s30.7.4 46 .1 30.7-1 46-2.1c15.3-1 30.7-2.4 46-3.9 15.3-1.6 30.7-3.5 46-5.4s30.7-4.1 46-6.2 38.3-5.4 46-6.4"/><path stroke-opacity=".059" d="M-60 339.4c7.7 1 30.7 4.1 46 6.1 15.3 2.1 30.7 4.2 46 6.2s30.7 4 46 5.9c15.3 1.8 30.7 3.6 46 5.3 15.3 1.6 30.7 3.1 46 4.5 15.3 1.3 30.7 2.5 46 3.6 15.3 1 30.7 1.8 46 2.4s30.7 1.1 46 1.3c15.3.3 30.7.3 46 .2s30.7-.4 46-.8 30.7-1.1 46-1.7c15.3-.7 30.7-1.6 46-2.5 15.3-.8 30.7-1.8 46-2.8s30.7-2 46-3 30.7-2 46-2.9 30.7-1.8 46-2.6c15.3-.7 30.7-1.4 46-1.9s30.7-.9 46-1.2c15.3-.2 30.7-.3 46-.2 15.3 0 30.7.3 46 .7s30.7 1 46 1.7 30.7 1.6 46 2.5c15.3 1 30.7 2.2 46 3.4s30.7 2.5 46 3.8c15.3 1.4 30.7 2.8 46 4.3 15.3 1.4 30.7 2.8 46 4.2s30.7 2.8 46 4.1 30.7 2.5 46 3.6 30.7 2.1 46 2.9 30.7 1.5 46 2 30.7.8 46 1c15.3.1 30.7.1 46-.1 15.3-.3 30.7-.7 46-1.3s30.7-1.3 46-2.2 30.7-2 46-3.2c15.3-1.1 30.7-2.5 46-3.8 15.3-1.4 38.3-3.6 46-4.3"/><path stroke-opacity=".18" stroke-width="1.5" d="M-60 386.6c7.7.3 30.7 1 46 1.5s30.7 1 46 1.5 30.7 1 46 1.4c15.3.5 30.7.9 46 1.3s30.7.8 46 1.1c15.3.4 30.7.7 46 1 15.3.2 30.7.5 46 .7 15.3.1 30.7.3 46 .4 15.3 0 30.7.1 46 0 15.3 0 30.7-.1 46-.2 15.3-.2 30.7-.4 46-.7s30.7-.6 46-1 30.7-.9 46-1.5c15.3-.5 30.7-1.1 46-1.8s30.7-1.5 46-2.3c15.3-.9 30.7-1.8 46-2.7 15.3-1 30.7-2.1 46-3.2s30.7-2.3 46-3.5c15.3-1.3 30.7-2.6 46-3.9 15.3-1.4 30.7-2.8 46-4.3s30.7-3.1 46-4.7 30.7-3.2 46-4.9 30.7-3.5 46-5.2c15.3-1.8 30.7-3.6 46-5.5 15.3-1.8 30.7-3.7 46-5.6s30.7-3.9 46-5.8c15.3-2 30.7-4 46-5.9 15.3-2 30.7-4 46-6s30.7-4 46-6c15.3-1.9 30.7-3.9 46-5.9s30.7-3.9 46-5.8c15.3-2 30.7-3.9 46-5.8 15.3-1.8 30.7-3.7 46-5.5s30.7-3.6 46-5.4c15.3-1.7 30.7-3.4 46-5.1 15.3-1.6 30.7-3.3 46-4.8 15.3-1.6 38.3-3.8 46-4.5"/><path stroke-opacity=".089" d="M-60 430.3c7.7 0 30.7 0 46-.4s30.7-1 46-1.8c15.3-.9 30.7-2 46-3.3 15.3-1.2 30.7-2.8 46-4.4 15.3-1.7 30.7-3.6 46-5.6 15.3-1.9 30.7-4 46-6.1s30.7-4.3 46-6.4 30.7-4.2 46-6.2c15.3-1.9 30.7-3.8 46-5.5s30.7-3.2 46-4.5 30.7-2.3 46-3.2c15.3-.8 30.7-1.4 46-1.7 15.3-.4 30.7-.5 46-.4s30.7.5 46 1 30.7 1.2 46 1.9c15.3.8 30.7 1.8 46 2.7s30.7 1.9 46 2.9c15.3.9 30.7 1.9 46 2.6 15.3.8 30.7 1.6 46 2.1 15.3.6 30.7 1 46 1.2s30.7.2 46-.1c15.3-.2 30.7-.7 46-1.3 15.3-.7 30.7-1.6 46-2.7 15.3-1 30.7-2.3 46-3.8 15.3-1.4 30.7-3 46-4.7 15.3-1.6 30.7-3.5 46-5.3s30.7-3.7 46-5.5 30.7-3.6 46-5.3 30.7-3.4 46-4.9 30.7-2.8 46-4 30.7-2.3 46-3.2c15.3-.8 30.7-1.5 46-2.1 15.3-.5 30.7-.9 46-1.2 15.3-.2 30.7-.3 46-.3 15.3-.1 30.7 0 46 .1s30.7.3 46 .4c15.3.2 38.3.3 46 .4"/><path stroke-opacity=".054" d="M-60 452.1c7.7.2 30.7.7 46 1 15.3.4 30.7.8 46 1.1s30.7.6 46 .8c15.3.1 30.7.2 46 .1 15.3-.2 30.7-.4 46-.9s30.7-1.2 46-2.1c15.3-.8 30.7-1.9 46-3.2s30.7-2.8 46-4.5 30.7-3.6 46-5.6 30.7-4.2 46-6.4 30.7-4.6 46-6.9 30.7-4.7 46-7 30.7-4.6 46-6.8 30.7-4.3 46-6.1c15.3-1.9 30.7-3.7 46-5.2s30.7-2.8 46-3.9 30.7-2 46-2.6 30.7-1 46-1.2c15.3-.1 30.7 0 46 .2s30.7.7 46 1.3c15.3.5 30.7 1.3 46 2.1 15.3.7 30.7 1.7 46 2.5 15.3.9 30.7 1.8 46 2.7 15.3.8 30.7 1.6 46 2.3s30.7 1.3 46 1.7 30.7.6 46 .7c15.3 0 30.7-.1 46-.5 15.3-.3 30.7-.9 46-1.7 15.3-.7 30.7-1.7 46-2.9 15.3-1.1 30.7-2.5 46-4 15.3-1.4 30.7-3.1 46-4.8s30.7-3.5 46-5.4c15.3-1.8 30.7-3.7 46-5.5s30.7-3.6 46-5.3 30.7-3.3 46-4.8c15.3-1.4 30.7-2.8 46-4 15.3-1.1 38.3-2.4 46-2.9"/><path stroke-opacity=".078" d="M-60 506c7.7 1.2 30.7 5.1 46 7.3s30.7 4.2 46 5.8c15.3 1.7 30.7 3 46 4s30.7 1.7 46 2 30.7.2 46-.2 30.7-1.2 46-2.4c15.3-1.1 30.7-2.6 46-4.3s30.7-3.8 46-6c15.3-2.3 30.7-4.8 46-7.3 15.3-2.6 30.7-5.4 46-8.1 15.3-2.8 30.7-5.7 46-8.4s30.7-5.5 46-8 30.7-5 46-7.1c15.3-2.2 30.7-4.2 46-5.8s30.7-2.9 46-3.9c15.3-.9 30.7-1.5 46-1.7s30.7 0 46 .6 30.7 1.6 46 2.9c15.3 1.4 30.7 3.2 46 5.3s30.7 4.6 46 7.4c15.3 2.7 30.7 5.8 46 9 15.3 3.3 30.7 6.8 46 10.4 15.3 3.5 30.7 7.3 46 11 15.3 3.8 30.7 7.6 46 11.3s30.7 7.4 46 10.9 30.7 6.9 46 10 30.7 6 46 8.6 30.7 4.9 46 6.9c15.3 1.9 30.7 3.6 46 4.8 15.3 1.3 30.7 2.2 46 2.8s30.7.8 46 .7c15.3-.2 30.7-.6 46-1.4 15.3-.7 30.7-1.7 46-2.9 15.3-1.3 30.7-2.8 46-4.4 15.3-1.5 30.7-3.3 46-5.1s30.7-3.8 46-5.6 38.3-4.5 46-5.4"/><path stroke-opacity=".234" stroke-width="1.5" d="M-60 519.8c7.7-1 30.7-3.8 46-5.7s30.7-3.7 46-5.6c15.3-1.8 30.7-3.6 46-5.4 15.3-1.7 30.7-3.5 46-5.2s30.7-3.3 46-4.9 30.7-3.2 46-4.7 30.7-2.9 46-4.3c15.3-1.3 30.7-2.6 46-3.9 15.3-1.2 30.7-2.4 46-3.5s30.7-2.1 46-3.1c15.3-.9 30.7-1.8 46-2.6s30.7-1.5 46-2.2c15.3-.6 30.7-1.2 46-1.7s30.7-.9 46-1.2c15.3-.4 30.7-.7 46-.9s30.7-.3 46-.4 30.7-.1 46 0c15.3 0 30.7.1 46 .2l46 .6c15.3.3 30.7.5 46 .9 15.3.3 30.7.6 46 1 15.3.3 30.7.7 46 1.1s30.7.9 46 1.3 30.7.8 46 1.3l46 1.2c15.3.4 30.7.8 46 1.1 15.3.4 30.7.7 46 1s30.7.6 46 .8 30.7.4 46 .5 30.7.2 46 .2 30.7-.1 46-.2 30.7-.3 46-.5c15.3-.3 30.7-.6 46-1s30.7-.8 46-1.4c15.3-.5 30.7-1.1 46-1.8s30.7-1.5 46-2.3 38.3-2.3 46-2.7"/><path stroke-opacity=".051" d="M-60 549.6c7.7-.3 30.7-1.2 46-1.9 15.3-.6 30.7-1.2 46-1.7 15.3-.6 30.7-1.1 46-1.6s30.7-.9 46-1.3 30.7-.7 46-1l46-.6 46-.3c15.3-.1 30.7-.1 46-.1h46c15.3-.1 30.7-.1 46-.2s30.7-.2 46-.5 30.7-.7 46-1.2 30.7-1.2 46-2c15.3-.9 30.7-1.9 46-3.1s30.7-2.6 46-4.2 30.7-3.5 46-5.4c15.3-2 30.7-4.2 46-6.5s30.7-4.7 46-7.2 30.7-5.1 46-7.7 30.7-5.2 46-7.7 30.7-5 46-7.2c15.3-2.3 30.7-4.4 46-6.2 15.3-1.9 30.7-3.5 46-4.8 15.3-1.2 30.7-2.2 46-2.8s30.7-.9 46-.8 30.7.6 46 1.5 30.7 2.1 46 3.6c15.3 1.6 30.7 3.5 46 5.6 15.3 2 30.7 4.5 46 6.9 15.3 2.5 30.7 5.2 46 7.8s30.7 5.4 46 7.9 30.7 5.1 46 7.3 30.7 4.2 46 5.9c15.3 1.6 30.7 3 46 3.9 15.3.8 30.7 1.3 46 1.3s30.7-.5 46-1.5 38.3-3.7 46-4.4"/><path stroke-opacity=".076" d="M-60 585.4c7.7 0 30.7-.3 46-.5s30.7-.5 46-.7 30.7-.5 46-.7c15.3-.1 30.7-.3 46-.4 15.3 0 30.7 0 46 .1s30.7.4 46 .7c15.3.4 30.7.9 46 1.5 15.3.7 30.7 1.5 46 2.4s30.7 1.9 46 3.1a3565 3565 0 0 1 92 8.4c15.3 1.6 30.7 3.2 46 4.9s30.7 3.4 46 5.1c15.3 1.6 30.7 3.3 46 4.9s30.7 3.2 46 4.7c15.3 1.4 30.7 2.8 46 4 15.3 1.3 30.7 2.4 46 3.4s30.7 1.8 46 2.5 30.7 1.2 46 1.6 30.7.6 46 .7c15.3.2 30.7.1 46 0s30.7-.3 46-.6 30.7-.6 46-1c15.3-.3 30.7-.7 46-1 15.3-.4 30.7-.7 46-.9s30.7-.4 46-.4 30.7.1 46 .3c15.3.3 30.7.7 46 1.3s30.7 1.3 46 2.3c15.3.9 30.7 2 46 3.3 15.3 1.4 30.7 2.9 46 4.5s30.7 3.4 46 5.4c15.3 1.9 30.7 4 46 6.1s30.7 4.3 46 6.6c15.3 2.2 30.7 4.5 46 6.7 15.3 2.3 30.7 4.5 46 6.7 15.3 2.1 38.3 5.1 46 6.1"/><path stroke-opacity=".075" d="M-60 629.8c7.7.7 30.7 2.8 46 3.9s30.7 2.1 46 2.8c15.3.8 30.7 1.3 46 1.8 15.3.4 30.7.6 46 .8s30.7.2 46 .2 30.7-.2 46-.3 30.7-.3 46-.4l46-.3c15.3 0 30.7 0 46 .2 15.3.1 30.7.3 46 .6 15.3.4 30.7.8 46 1.4s30.7 1.3 46 2.1 30.7 1.7 46 2.8c15.3 1 30.7 2.1 46 3.3s30.7 2.5 46 3.8 30.7 2.7 46 4 30.7 2.7 46 4 30.7 2.6 46 3.7c15.3 1.2 30.7 2.4 46 3.4s30.7 2 46 2.8 30.7 1.5 46 2.2c15.3.6 30.7 1.1 46 1.5s30.7.7 46 1c15.3.2 30.7.4 46 .5 15.3.2 30.7.2 46 .3 15.3 0 30.7.1 46 .1l46 .3c15.3.1 30.7.3 46 .5 15.3.3 30.7.6 46 1s30.7.8 46 1.4c15.3.5 30.7 1.2 46 1.9s30.7 1.5 46 2.3c15.3.9 30.7 1.8 46 2.7s30.7 1.8 46 2.7c15.3 1 30.7 1.9 46 2.7 15.3.9 30.7 1.7 46 2.4s38.3 1.5 46 1.8"/><path stroke-opacity=".252" stroke-width="1.5" d="M-60 643.5c7.7-.1 30.7-.2 46-.4l46-.6c15.3-.2 30.7-.5 46-.7s30.7-.5 46-.7c15.3-.1 30.7-.3 46-.4s30.7-.1 46-.1c15.3.1 30.7.2 46 .4s30.7.5 46 .9 30.7.9 46 1.6c15.3.6 30.7 1.3 46 2.2s30.7 1.9 46 3 30.7 2.4 46 3.7c15.3 1.4 30.7 2.9 46 4.5 15.3 1.5 30.7 3.2 46 5s30.7 3.7 46 5.6 30.7 3.9 46 6c15.3 2 30.7 4.1 46 6.2s30.7 4.3 46 6.4 30.7 4.3 46 6.3c15.3 2.1 30.7 4.2 46 6.2 15.3 1.9 30.7 3.9 46 5.7 15.3 1.9 30.7 3.6 46 5.3 15.3 1.6 30.7 3.2 46 4.6s30.7 2.7 46 3.8c15.3 1.2 30.7 2.2 46 3.1 15.3.8 30.7 1.6 46 2.1 15.3.6 30.7 1 46 1.3s30.7.5 46 .5 30.7-.1 46-.4c15.3-.2 30.7-.6 46-1 15.3-.5 30.7-1.1 46-1.7s30.7-1.3 46-2.1c15.3-.7 30.7-1.5 46-2.3s30.7-1.7 46-2.5 30.7-1.7 46-2.5c15.3-.7 30.7-1.5 46-2.2s38.3-1.5 46-1.8"/><path stroke-opacity=".063" d="M-60 669.4c7.7-1.4 30.7-5.8 46-8.5 15.3-2.6 30.7-5.2 46-7.5 15.3-2.2 30.7-4.3 46-6.1s30.7-3.3 46-4.5 30.7-2.1 46-2.7 30.7-.8 46-.9c15.3 0 30.7.3 46 .8 15.3.4 30.7 1.2 46 2 15.3.9 30.7 2 46 3.1s30.7 2.3 46 3.5 30.7 2.4 46 3.5 30.7 2.2 46 3.1 30.7 1.6 46 2.2c15.3.5 30.7.8 46 .9s30.7-.1 46-.5 30.7-1.1 46-2 30.7-2.1 46-3.4c15.3-1.4 30.7-3 46-4.6 15.3-1.7 30.7-3.6 46-5.5s30.7-4 46-6c15.3-1.9 30.7-4 46-5.9s30.7-3.7 46-5.4c15.3-1.6 30.7-3.2 46-4.5 15.3-1.2 30.7-2.3 46-3.1s30.7-1.4 46-1.6c15.3-.3 30.7-.3 46 0s30.7.9 46 1.6c15.3.8 30.7 1.9 46 3.1s30.7 2.7 46 4.2 30.7 3.3 46 4.9c15.3 1.7 30.7 3.5 46 5.2 15.3 1.6 30.7 3.3 46 4.8s30.7 2.9 46 4c15.3 1.2 30.7 2.2 46 2.9s30.7 1.1 46 1.3c15.3.1 30.7 0 46-.5 15.3-.4 38.3-1.8 46-2.2"/><path stroke-opacity=".067" d="M-60 716.2c7.7.4 30.7 1.3 46 2s30.7 1.4 46 2.2 30.7 1.6 46 2.5 30.7 1.8 46 2.7 30.7 1.8 46 2.8 30.7 1.9 46 2.9 30.7 2 46 3 30.7 1.9 46 2.9 30.7 1.9 46 2.8 30.7 1.8 46 2.7 30.7 1.7 46 2.4c15.3.8 30.7 1.5 46 2.2s30.7 1.3 46 1.8c15.3.6 30.7 1.1 46 1.5s30.7.8 46 1.1 30.7.5 46 .7c15.3.1 30.7.2 46 .2s30.7 0 46-.1l46-.6c15.3-.2 30.7-.5 46-.9l46-1.2c15.3-.5 30.7-1 46-1.5s30.7-1.1 46-1.7 30.7-1.2 46-1.8 30.7-1.3 46-1.9 30.7-1.2 46-1.8c15.3-.7 30.7-1.3 46-1.8 15.3-.6 30.7-1.1 46-1.6s30.7-1 46-1.4 30.7-.7 46-1 30.7-.6 46-.7c15.3-.2 30.7-.3 46-.3 15.3-.1 30.7 0 46 .1s30.7.3 46 .6 30.7.6 46 1.1c15.3.4 30.7.9 46 1.5s38.3 1.7 46 2"/><path stroke-opacity=".092" d="M-60 784.8c7.7-1.1 30.7-4.1 46-6.3 15.3-2.3 30.7-4.8 46-7.4 15.3-2.5 30.7-5.2 46-7.8s30.7-5.3 46-7.8 30.7-5 46-7.2c15.3-2.3 30.7-4.3 46-6.1s30.7-3.4 46-4.6 30.7-2.2 46-2.8 30.7-.9 46-.9 30.7.3 46 .8 30.7 1.3 46 2.3c15.3.9 30.7 2.1 46 3.3s30.7 2.6 46 3.9 30.7 2.7 46 4c15.3 1.2 30.7 2.4 46 3.4s30.7 1.9 46 2.6c15.3.6 30.7 1 46 1.2s30.7.1 46-.3c15.3-.3 30.7-.9 46-1.7s30.7-1.9 46-3.1 30.7-2.7 46-4.2 30.7-3.2 46-4.8 30.7-3.4 46-5 30.7-3.2 46-4.7c15.3-1.4 30.7-2.8 46-3.9 15.3-1.2 30.7-2.1 46-2.9 15.3-.7 30.7-1.2 46-1.4 15.3-.3 30.7-.3 46-.1s30.7.6 46 1.3c15.3.6 30.7 1.4 46 2.3s30.7 2 46 3.1 30.7 2.3 46 3.4 30.7 2.3 46 3.3c15.3.9 30.7 1.9 46 2.6s30.7 1.3 46 1.6 30.7.5 46 .4 38.3-.8 46-1"/><path stroke-opacity=".191" stroke-width="1.5" d="M-60 810.9c7.7 0 30.7.1 46 .1h46c15.3 0 30.7-.1 46-.2s30.7-.2 46-.4a3529 3529 0 0 0 92-2.4c15.3-.7 30.7-1.4 46-2.3s30.7-1.9 46-3.1 30.7-2.5 46-4c15.3-1.4 30.7-3.1 46-4.8a3608 3608 0 0 0 92-12c15.3-2.2 30.7-4.5 46-6.7s30.7-4.6 46-6.8 30.7-4.5 46-6.6 30.7-4.1 46-6 30.7-3.7 46-5.2 30.7-2.9 46-4.1c15.3-1.1 30.7-2 46-2.7s30.7-1.1 46-1.3 30.7-.2 46 .1 30.7.9 46 1.6 30.7 1.7 46 2.8 30.7 2.4 46 3.7c15.3 1.4 30.7 3 46 4.5 15.3 1.6 30.7 3.3 46 4.9 15.3 1.7 30.7 3.4 46 5s30.7 3.3 46 4.8 30.7 3 46 4.3 30.7 2.6 46 3.6c15.3 1.1 30.7 2.1 46 2.9s30.7 1.5 46 2.1 30.7 1 46 1.3a3528 3528 0 0 0 92 .6c15.3-.1 30.7-.2 46-.4l46-.6"/><path stroke-opacity=".077" d="M-60 814.2c7.7.4 30.7 1.5 46 2.2 15.3.8 30.7 1.7 46 2.5 15.3.9 30.7 1.8 46 2.6 15.3.9 30.7 1.8 46 2.6 15.3.9 30.7 1.7 46 2.5s30.7 1.5 46 2.2 30.7 1.3 46 1.9c15.3.5 30.7 1 46 1.5 15.3.4 30.7.8 46 1.1s30.7.6 46 .8 30.7.3 46 .5l46 .3 46 .3c15.3.2 30.7.3 46 .4 15.3.2 30.7.4 46 .7 15.3.2 30.7.5 46 .9s30.7.9 46 1.4 30.7 1.1 46 1.8 30.7 1.4 46 2.2c15.3.9 30.7 1.8 46 2.7s30.7 1.9 46 2.9 30.7 2.1 46 3.1c15.3 1.1 30.7 2.1 46 3.2 15.3 1 30.7 2 46 3s30.7 1.9 46 2.8c15.3.8 30.7 1.6 46 2.3s30.7 1.4 46 1.9 30.7.9 46 1.2c15.3.4 30.7.6 46 .7s30.7.2 46 .1c15.3 0 30.7-.2 46-.4s30.7-.5 46-.8c15.3-.4 30.7-.7 46-1.1l46-1.2c15.3-.4 30.7-.8 46-1.1 15.3-.4 30.7-.7 46-1 15.3-.2 38.3-.4 46-.5"/><path stroke-opacity=".053" d="M-60 870.2c7.7-.1 30.7-.4 46-.7a3532 3532 0 0 0 92-3.6c15.3-.7 30.7-1.6 46-2.4 15.3-.9 30.7-1.8 46-2.6 15.3-.9 30.7-1.7 46-2.5s30.7-1.6 46-2.3 30.7-1.3 46-1.8c15.3-.6 30.7-1.1 46-1.5 15.3-.3 30.7-.7 46-.9 15.3-.3 30.7-.5 46-.6 15.3-.2 30.7-.3 46-.4l46-.3c15.3-.2 30.7-.3 46-.5 15.3-.3 30.7-.5 46-.9s30.7-.8 46-1.4c15.3-.5 30.7-1.2 46-2s30.7-1.7 46-2.7c15.3-1.1 30.7-2.2 46-3.5 15.3-1.2 30.7-2.5 46-3.9s30.7-2.9 46-4.4 30.7-3.1 46-4.5c15.3-1.5 30.7-3 46-4.4s30.7-2.8 46-4 30.7-2.3 46-3.2 30.7-1.6 46-2.2c15.3-.5 30.7-.9 46-1 15.3-.2 30.7-.1 46 .2s30.7.8 46 1.5 30.7 1.7 46 2.7c15.3 1.1 30.7 2.4 46 3.7s30.7 2.9 46 4.4 30.7 3.1 46 4.7c15.3 1.5 30.7 3.1 46 4.6s30.7 2.9 46 4.2c15.3 1.2 30.7 2.4 46 3.3s38.3 1.8 46 2.2"/><path stroke-opacity=".048" d="M-60 894.9c7.7.5 30.7 1.9 46 2.7a3538 3538 0 0 0 92 3.6c15.3.4 30.7.7 46 .8 15.3.2 30.7.3 46 .3s30.7-.1 46-.2c15.3-.2 30.7-.4 46-.7 15.3-.2 30.7-.6 46-.9l46-.9c15.3-.3 30.7-.6 46-.8l46-.6c15.3-.1 30.7-.1 46-.1 15.3.1 30.7.2 46 .4s30.7.5 46 .9c15.3.5 30.7 1 46 1.6s30.7 1.3 46 2c15.3.8 30.7 1.6 46 2.5s30.7 1.8 46 2.8c15.3.9 30.7 2 46 2.9 15.3 1 30.7 2 46 3 15.3.9 30.7 1.9 46 2.8 15.3.8 30.7 1.7 46 2.4s30.7 1.4 46 2a3532 3532 0 0 0 92 2.4c15.3.2 30.7.3 46 .4 15.3 0 30.7 0 46-.1s30.7-.3 46-.5 30.7-.5 46-.8c15.3-.2 30.7-.5 46-.8 15.3-.2 30.7-.5 46-.7s30.7-.4 46-.5 30.7-.1 46 0c15.3 0 30.7.2 46 .4s30.7.6 46 1 30.7 1 46 1.6 38.3 1.8 46 2.1"/><path stroke-opacity=".17" stroke-width="1.5" d="M-60 924.6c7.7.1 30.7.5 46 .7s30.7.4 46 .5c15.3.2 30.7.3 46 .4 15.3 0 30.7.1 46 .1 15.3.1 30.7.1 46 .1 15.3.1 30.7.1 46 .2 15.3 0 30.7.1 46 .2s30.7.2 46 .4 30.7.5 46 .8 30.7.6 46 1.1c15.3.4 30.7.9 46 1.5s30.7 1.3 46 2c15.3.8 30.7 1.6 46 2.5s30.7 1.9 46 2.9c15.3 1.1 30.7 2.2 46 3.3 15.3 1.2 30.7 2.4 46 3.6 15.3 1.3 30.7 2.6 46 3.8 15.3 1.3 30.7 2.6 46 3.9s30.7 2.6 46 3.8 30.7 2.4 46 3.5 30.7 2.2 46 3.2 30.7 1.9 46 2.7 30.7 1.5 46 2c15.3.6 30.7 1.1 46 1.5 15.3.3 30.7.6 46 .7 15.3.2 30.7.2 46 .1s30.7-.3 46-.6 30.7-.7 46-1.1 30.7-1 46-1.5c15.3-.6 30.7-1.2 46-1.8s30.7-1.3 46-1.9 30.7-1.3 46-1.9c15.3-.5 30.7-1.1 46-1.5 15.3-.5 30.7-.9 46-1.2s30.7-.6 46-.7 30.7-.1 46 0 38.3.6 46 .7"/><path stroke-opacity=".06" d="M-60 966.6c7.7-.5 30.7-1.8 46-2.6 15.3-.9 30.7-1.8 46-2.6s30.7-1.6 46-2.2c15.3-.7 30.7-1.4 46-1.8 15.3-.5 30.7-1 46-1.2 15.3-.3 30.7-.4 46-.4s30.7.1 46 .3c15.3.3 30.7.7 46 1.3 15.3.5 30.7 1.2 46 2s30.7 1.7 46 2.7c15.3.9 30.7 2 46 3.2 15.3 1.1 30.7 2.3 46 3.6 15.3 1.2 30.7 2.5 46 3.7 15.3 1.3 30.7 2.5 46 3.7s30.7 2.4 46 3.5 30.7 2.1 46 3.1c15.3.9 30.7 1.7 46 2.5 15.3.7 30.7 1.3 46 1.8s30.7.8 46 1.1a3527 3527 0 0 0 138-.9c15.3-.4 30.7-.9 46-1.4s30.7-1.1 46-1.7 30.7-1.3 46-1.9c15.3-.7 30.7-1.3 46-1.9s30.7-1.2 46-1.8c15.3-.5 30.7-1 46-1.4s30.7-.8 46-1.1 30.7-.5 46-.6c15.3-.2 30.7-.2 46-.2 15.3.1 30.7.2 46 .4 15.3.1 30.7.4 46 .7s30.7.7 46 1.1 30.7.9 46 1.4 30.7 1 46 1.6c15.3.5 38.3 1.4 46 1.6"/></g><path fill="none" stroke="#c9a96e" stroke-linecap="round" stroke-opacity=".5" stroke-width="2" d="M-60 429.6c7.7 0 30.7 0 46 .1 15.3 0 30.7.1 46 .1l46 .3 46 .3c15.3.2 30.7.3 46 .5 15.3.1 30.7.3 46 .4l46 .6c15.3.1 30.7.3 46 .4 15.3.2 30.7.3 46 .4l46 .3h46c15.3-.1 30.7-.1 46-.3 15.3-.1 30.7-.3 46-.6 15.3-.2 30.7-.5 46-.9s30.7-.9 46-1.4 30.7-1.1 46-1.8c15.3-.6 30.7-1.3 46-2.1s30.7-1.7 46-2.6 30.7-1.8 46-2.8 30.7-2.1 46-3.2c15.3-1 30.7-2.2 46-3.3s30.7-2.3 46-3.4 30.7-2.3 46-3.4c15.3-1.2 30.7-2.3 46-3.4s30.7-2.2 46-3.2 30.7-2 46-3c15.3-.9 30.7-1.8 46-2.7 15.3-.8 30.7-1.6 46-2.3 15.3-.8 30.7-1.4 46-2 15.3-.7 30.7-1.2 46-1.7s30.7-.9 46-1.3l46-.9c15.3-.3 30.7-.5 46-.7 15.3-.1 30.7-.3 46-.4s30.7-.1 46-.2c15.3 0 30.7-.1 46-.1h46"/><path fill="url(#c)" d="M0 0h1600v900H0z"/><path d="M0 0h1600v900H0z" filter="url(#d)" opacity=".05"/></svg>