<svg xmlns="http://www.w3.org/2000/svg" preserveAspectRatio="xMidYMid slice" viewBox="0 0 1600 900"><defs><radialGradient id="b" cx=".379" cy=".082" r=".75"><stop offset="0" stop-color="#c9a96e" stop-opacity=".15"/><stop offset="1" stop-color="#c9a96e" stop-opacity="0"/></radialGradient><radialGradient id="c" cx=".5" cy=".5" r=".75"><stop offset=".5" stop-opacity="0"/><stop offset="1" stop-opacity=".5"/></radialGradient><linearGradient id="a" x1="0" x2="0" y1="0" y2="1"><stop offset="0" stop-color="#0b160f"/><stop offset="1" stop-color="#15271b"/></linearGradient><filter id="d"><feTurbulence baseFrequency=".9" numOctaves="2" stitchTiles="stitch" type="fractalNoise"/><feColorMatrix values="0 0 0 0 0 0 0 0 0 0 0 0 0 0 0 0 0 0 0.55 0"/></filter></defs><path fill="url(#a)" d="M0 0h1600v900H0z"/><path fill="url(#b)" d="M0 0h1600v900H0z"/><path fill="#c9a96e" fill-opacity=".028" d="M-60 493.2c7.7.1 30.7.1 46 .3s30.7.6 46 1.1 30.7 1.1 46 1.9c15.3.7 30.7 1.6 46 2.5 15.3 1 30.7 2.1 46 3.2s30.7 2.4 46 3.6c15.3 1.3 30.7 2.6 46 4 15.3 1.3 30.7 2.7 46 4.1 15.3 1.3 30.7 2.7 46 4.1 15.3 1.3 30.7 2.7 46 4 15.3 1.2 30.7 2.5 46 3.7 15.3 1.1 30.7 2.2 46 3.3 15.3 1 30.7 2 46 2.8 15.3.9 30.7 1.7 46 2.4s30.7 1.3 46 1.9c15.3.5 30.7 1 46 1.4s30.7.7 46 1l46 .6c15.3.2 30.7.3 46 .5l46 .3c15.3.1 30.7.2 46 .4 15.3.1 30.7.2 46 .4s30.7.4 46 .7 30.7.6 46 1 30.7.8 46 1.3 30.7 1.1 46 1.7 30.7 1.3 46 2.1c15.3.7 30.7 1.5 46 2.3 15.3.9 30.7 1.7 46 2.7 15.3.9 30.7 1.8 46 2.8 15.3.9 30.7 1.9 46 2.9s30.7 2 46 2.9c15.3 1 30.7 2 46 2.9s30.7 1.8 46 2.6c15.3.9 30.7 1.7 46 2.5 15.3.7 30.7 1.5 46 2.1 15.3.7 35.3-63 46 1.8s301.7 322.5 18 387-1433.3 0-1720 0Z"/><g fill="none" stroke-linecap="round"><path stroke="#f5f0e8" stroke-opacity=".084" d="M-60-58.4c7.7.3 30.7 1.3 46 1.9 15.3.5 30.7.9 46 1.3 15.3.3 30.7.6 46 .7s30.7.1 46 0c15.3-.2 30.7-.4 46-.8 15.3-.3 30.7-.8 46-1.3s30.7-1.2 46-1.8c15.3-.7 30.7-1.5 46-2.2 15.3-.8 30.7-1.6 46-2.4 15.3-.7 30.7-1.5 46-2.2 15.3-.8 30.7-1.5 46-2.1s30.7-1.1 46-1.6c15.3-.4 30.7-.8 46-1 15.3-.3 30.7-.4 46-.5s30.7 0 46 .1 30.7.3 46 .6c15.3.2 30.7.6 46 1l46 1.2c15.3.5 30.7.9 46 1.4l46 1.2c15.3.4 30.7.7 46 1s30.7.5 46 .7 30.7.3 46 .3 30.7 0 46-.1 30.7-.3 46-.5 30.7-.5 46-.7l46-.9c15.3-.3 30.7-.6 46-.8l46-.6c15.3-.1 30.7-.2 46-.2 15.3-.1 30.7 0 46 .1 15.3.2 30.7.4 46 .8 15.3.3 30.7.7 46 1.2 15.3.4 30.7 1 46 1.6s30.7 1.3 46 2 30.7 1.5 46 2.2 38.3 1.8 46 2.1"/><path stroke="#c9a96e" stroke-opacity=".242" stroke-width="1.5" d="M-60-34.1c7.7.5 30.7 2.1 46 3.4 15.3 1.2 30.7 2.7 46 4.1 15.3 1.5 30.7 3.1 46 4.6s30.7 3.1 46 4.5c15.3 1.5 30.7 2.9 46 4.1 15.3 1.3 30.7 2.4 46 3.3 15.3.8 30.7 1.5 46 2 15.3.4 30.7.6 46 .6 15.3-.1 30.7-.4 46-.9 15.3-.6 30.7-1.4 46-2.4s30.7-2.3 46-3.6 30.7-2.9 46-4.5c15.3-1.5 30.7-3.2 46-4.8s30.7-3.3 46-4.8 30.7-3 46-4.2c15.3-1.3 30.7-2.4 46-3.2s30.7-1.4 46-1.7 30.7-.3 46 0c15.3.2 30.7.8 46 1.6 15.3.9 30.7 2 46 3.4 15.3 1.3 30.7 2.9 46 4.7 15.3 1.7 30.7 3.7 46 5.6 15.3 2 30.7 4.1 46 6.2 15.3 2 30.7 4.2 46 6.1s30.7 3.9 46 5.5c15.3 1.7 30.7 3.3 46 4.5 15.3 1.3 30.7 2.3 46 3.1 15.3.7 30.7 1.2 46 1.4 15.3.3 30.7.2 46-.1 15.3-.4 30.7-1 46-1.7 15.3-.8 30.7-1.9 46-3s30.7-2.4 46-3.7 30.7-2.7 46-4 30.7-2.6 46-3.7 30.7-2.2 46-3c15.3-.7 30.7-1.4 46-1.7s38.3-.2 46-.3"/><path stroke="#f5f0e8" stroke-opacity=".08" d="M-60-6.7c7.7-.5 30.7-1.9 46-2.7 15.3-.7 30.7-1.4 46-1.9 15.3-.4 30.7-.8 46-.9 15.3-.2 30.7-.2 46-.1s30.7.3 46 .7c15.3.3 30.7.8 46 1.4 15.3.5 30.7 1.2 46 1.8s30.7 1.4 46 2c15.3.7 30.7 1.3 46 1.9s30.7 1.1 46 1.5 30.7.6 46 .7 30.7.1 46-.1c15.3-.3 30.7-.7 46-1.3s30.7-1.4 46-2.4 30.7-2.2 46-3.6c15.3-1.3 30.7-2.9 46-4.6 15.3-1.6 30.7-3.5 46-5.4s30.7-3.9 46-5.9 30.7-4.1 46-6.2c15.3-2 30.7-4 46-5.9s30.7-3.8 46-5.5c15.3-1.6 30.7-3.2 46-4.5 15.3-1.4 30.7-2.6 46-3.5 15.3-1 30.7-1.7 46-2.3 15.3-.5 30.7-.8 46-.8 15.3-.1 30.7 0 46 .4 15.3.3 30.7.9 46 1.6 15.3.6 30.7 1.5 46 2.4 15.3 1 30.7 2 46 3.1s30.7 2.2 46 3.3 30.7 2.2 46 3.1c15.3 1 30.7 1.9 46 2.6s30.7 1.3 46 1.7 30.7.6 46 .6c15.3-.1 30.7-.3 46-.8s30.7-1.2 46-2.2c15.3-.9 38.3-2.9 46-3.5"/><path stroke="#f5f0e8" stroke-opacity=".056" d="M-60 51c7.7-.1 30.7-.4 46-.7s30.7-.7 46-1.1 30.7-.9 46-1.4 30.7-1.1 46-1.7c15.3-.5 30.7-1.1 46-1.7s30.7-1.2 46-1.7 30.7-1 46-1.5c15.3-.4 30.7-.9 46-1.2 15.3-.4 30.7-.6 46-.8s30.7-.4 46-.4a3527 3527 0 0 1 92 .6c15.3.2 30.7.5 46 .9s30.7.8 46 1.3 30.7 1.1 46 1.7c15.3.5 30.7 1.2 46 1.8s30.7 1.3 46 1.9c15.3.7 30.7 1.3 46 2 15.3.6 30.7 1.3 46 1.9s30.7 1.2 46 1.7c15.3.6 30.7 1.1 46 1.6s30.7.9 46 1.3c15.3.5 30.7.8 46 1.2s30.7.7 46 1c15.3.4 30.7.7 46 1l46 .9c15.3.3 30.7.6 46 1s30.7.7 46 1.2c15.3.4 30.7.9 46 1.4s30.7 1.1 46 1.7c15.3.7 30.7 1.4 46 2.2s30.7 1.6 46 2.5 30.7 1.9 46 3c15.3 1 30.7 2.2 46 3.4 15.3 1.1 30.7 2.4 46 3.7 15.3 1.2 30.7 2.6 46 3.9 15.3 1.4 38.3 3.4 46 4.1"/><path stroke="#f5f0e8" stroke-opacity=".047" d="M-60 66.5c7.7-.4 30.7-1.5 46-2.2s30.7-1.3 46-1.9 30.7-1.1 46-1.5 30.7-.8 46-1c15.3-.3 30.7-.4 46-.5s30.7-.1 46 0 30.7.3 46 .5c15.3.3 30.7.6 46 1s30.7.8 46 1.3 30.7 1 46 1.5c15.3.6 30.7 1.1 46 1.7 15.3.5 30.7 1 46 1.5s30.7 1 46 1.3c15.3.4 30.7.8 46 1s30.7.4 46 .4c15.3.1 30.7 0 46-.2s30.7-.5 46-.9 30.7-.9 46-1.6 30.7-1.5 46-2.4 30.7-2 46-3.1c15.3-1.2 30.7-2.4 46-3.8 15.3-1.3 30.7-2.7 46-4.2s30.7-3 46-4.6 30.7-3.2 46-4.8 30.7-3.2 46-4.7c15.3-1.6 30.7-3.1 46-4.6 15.3-1.4 30.7-2.9 46-4.1 15.3-1.3 30.7-2.6 46-3.6 15.3-1.1 30.7-2.1 46-2.9s30.7-1.5 46-2 30.7-.9 46-1.1c15.3-.3 30.7-.3 46-.2s30.7.3 46 .7 30.7.9 46 1.6c15.3.6 30.7 1.4 46 2.3s30.7 1.9 46 3c15.3 1 38.3 2.7 46 3.3"/><path stroke="#c9a96e" stroke-opacity=".208" stroke-width="1.5" d="M-60 103.8c7.7.4 30.7 1.7 46 2.6 15.3.8 30.7 1.7 46 2.5s30.7 1.6 46 2.2 30.7 1.1 46 1.4 30.7.5 46 .4c15.3-.2 30.7-.5 46-1.1 15.3-.5 30.7-1.4 46-2.5 15.3-1 30.7-2.4 46-4s30.7-3.4 46-5.4 30.7-4.3 46-6.7 30.7-5 46-7.6 30.7-5.4 46-8.1 30.7-5.6 46-8.3 30.7-5.4 46-7.9c15.3-2.6 30.7-5.1 46-7.3s30.7-4.3 46-6.2c15.3-1.8 30.7-3.5 46-4.8 15.3-1.4 30.7-2.5 46-3.3 15.3-.9 30.7-1.4 46-1.8 15.3-.3 30.7-.3 46-.2 15.3.2 30.7.6 46 1.2 15.3.5 30.7 1.3 46 2.2 15.3.8 30.7 1.9 46 2.9s30.7 2.2 46 3.3c15.3 1 30.7 2.2 46 3.2s30.7 1.9 46 2.7 30.7 1.5 46 2c15.3.4 30.7.8 46 .9s30.7 0 46-.4c15.3-.3 30.7-.8 46-1.6 15.3-.7 30.7-1.7 46-2.8s30.7-2.5 46-3.9c15.3-1.5 30.7-3.1 46-4.8s30.7-3.5 46-5.3 30.7-3.6 46-5.4 30.7-3.6 46-5.3 38.3-4 46-4.8"/><path stroke="#f5f0e8" stroke-opacity=".072" d="M-60 140.2c7.7.2 30.7.8 46 1 15.3.3 30.7.5 46 .7l46 .3c15.3 0 30.7-.1 46-.2s30.7-.3 46-.6 30.7-.6 46-1 30.7-.8 46-1.3 30.7-1.1 46-1.6c15.3-.6 30.7-1.2 46-1.8s30.7-1.3 46-1.9 30.7-1.3 46-1.9 30.7-1.2 46-1.7 30.7-1 46-1.4 30.7-.8 46-1.1 30.7-.5 46-.6 30.7-.1 46-.1c15.3.1 30.7.2 46 .5 15.3.2 30.7.5 46 .9s30.7.9 46 1.4 30.7 1.1 46 1.7 30.7 1.3 46 2c15.3.6 30.7 1.3 46 1.9 15.3.7 30.7 1.3 46 1.9 15.3.5 30.7 1 46 1.5 15.3.4 30.7.8 46 1 15.3.3 30.7.4 46 .4 15.3.1 30.7 0 46-.2 15.3-.3 30.7-.6 46-1.1 15.3-.4 30.7-1 46-1.7s30.7-1.6 46-2.5 30.7-1.9 46-3c15.3-1 30.7-2.2 46-3.3 15.3-1.2 30.7-2.4 46-3.5 15.3-1.2 30.7-2.4 46-3.5 15.3-1 30.7-2.1 46-3.1 15.3-.9 30.7-1.8 46-2.5 15.3-.8 38.3-1.5 46-1.8"/><path stroke="#f5f0e8" stroke-opacity=".09" d="M-60 189.7c7.7-.3 30.7-1.1 46-1.9s30.7-1.8 46-2.9a3565 3565 0 0 0 92-8.4c15.3-1.5 30.7-3.2 46-4.8 15.3-1.7 30.7-3.4 46-5 15.3-1.7 30.7-3.3 46-4.9s30.7-3.1 46-4.5 30.7-2.8 46-4 30.7-2.3 46-3.3 30.7-1.9 46-2.6c15.3-.8 30.7-1.4 46-2 15.3-.5 30.7-.9 46-1.3 15.3-.3 30.7-.5 46-.7s30.7-.3 46-.4 30.7-.1 46-.2h92c15.3 0 30.7-.1 46-.1s30.7-.1 46-.2l46-.3 46-.3 46-.3c15.3-.1 30.7-.2 46-.2s30.7 0 46 .1c15.3 0 30.7.2 46 .3 15.3.2 30.7.5 46 .8s30.7.7 46 1.1 30.7.9 46 1.5c15.3.5 30.7 1.1 46 1.7s30.7 1.3 46 1.9c15.3.7 30.7 1.3 46 1.9s30.7 1.2 46 1.7c15.3.6 30.7 1 46 1.4 15.3.3 30.7.6 46 .8 15.3.1 30.7.2 46 .1s38.3-.6 46-.7"/><path stroke="#f5f0e8" stroke-opacity=".089" d="M-60 191.3c7.7-1.3 30.7-5.4 46-7.8s30.7-4.7 46-6.7 30.7-3.8 46-5.4c15.3-1.5 30.7-2.7 46-3.7 15.3-.9 30.7-1.6 46-1.9 15.3-.4 30.7-.4 46-.2 15.3.3 30.7.8 46 1.5 15.3.8 30.7 1.8 46 2.9 15.3 1.2 30.7 2.6 46 4s30.7 3.1 46 4.7 30.7 3.3 46 4.9 30.7 3.3 46 4.8 30.7 3 46 4.4c15.3 1.3 30.7 2.5 46 3.5s30.7 1.9 46 2.6c15.3.6 30.7 1.1 46 1.4s30.7.4 46 .4c15.3-.1 30.7-.3 46-.7s30.7-.9 46-1.5c15.3-.7 30.7-1.4 46-2.2s30.7-1.7 46-2.6 30.7-1.9 46-2.8 30.7-1.8 46-2.6c15.3-.9 30.7-1.7 46-2.4 15.3-.8 30.7-1.4 46-2s30.7-1.1 46-1.5 30.7-.7 46-1 30.7-.4 46-.6c15.3-.1 30.7-.2 46-.2h46c15.3-.1 30.7 0 46-.1 15.3 0 30.7 0 46-.1l46-.3c15.3-.2 30.7-.4 46-.7s30.7-.7 46-1.1 30.7-.9 46-1.5c15.3-.5 38.3-1.4 46-1.7"/><path stroke="#c9a96e" stroke-opacity=".17" stroke-width="1.5" d="M-60 224.8c7.7.3 30.7.9 46 1.3s30.7.7 46 1.1c15.3.3 30.7.6 46 .8 15.3.3 30.7.5 46 .7 15.3.3 30.7.5 46 .7l46 .6c15.3.2 30.7.5 46 .7l46 .9c15.3.4 30.7.7 46 1.1s30.7.9 46 1.4 30.7 1 46 1.6 30.7 1.3 46 2 30.7 1.5 46 2.2c15.3.8 30.7 1.7 46 2.5 15.3.9 30.7 1.8 46 2.7s30.7 1.9 46 2.8c15.3 1 30.7 1.9 46 2.9 15.3.9 30.7 1.8 46 2.7s30.7 1.8 46 2.7c15.3.8 30.7 1.6 46 2.4 15.3.7 30.7 1.4 46 2s30.7 1.2 46 1.7 30.7.9 46 1.3c15.3.3 30.7.6 46 .8 15.3.3 30.7.4 46 .5s30.7.1 46 .1c15.3-.1 30.7-.1 46-.3 15.3-.1 30.7-.2 46-.4l46-.6 46-.6c15.3-.2 30.7-.3 46-.5 15.3-.1 30.7-.2 46-.2 15.3-.1 30.7-.1 46 0s30.7.2 46 .4 30.7.5 46 .9c15.3.3 30.7.8 46 1.3 15.3.6 38.3 1.6 46 1.9"/><path stroke="#f5f0e8" stroke-opacity=".063" d="M-60 270c7.7-1.7 30.7-6.9 46-10.3 15.3-3.3 30.7-6.8 46-9.9s30.7-6.1 46-8.7c15.3-2.5 30.7-4.9 46-6.6 15.3-1.8 30.7-3.1 46-3.9s30.7-1.1 46-.8c15.3.2 30.7 1 46 2.4 15.3 1.3 30.7 3.2 46 5.4s30.7 5 46 8 30.7 6.4 46 9.9 30.7 7.3 46 10.9 30.7 7.4 46 10.9c15.3 3.4 30.7 6.8 46 9.8 15.3 2.9 30.7 5.7 46 7.8s30.7 3.8 46 4.9 30.7 1.7 46 1.5c15.3-.1 30.7-.9 46-2.2 15.3-1.4 30.7-3.5 46-6.1s30.7-5.8 46-9.5c15.3-3.6 30.7-7.9 46-12.4s30.7-9.4 46-14.4 30.7-10.3 46-15.5c15.3-5.1 30.7-10.4 46-15.4 15.3-4.9 30.7-9.9 46-14.2 15.3-4.4 30.7-8.6 46-12.2 15.3-3.5 30.7-6.7 46-9.2 15.3-2.4 30.7-4.4 46-5.7s30.7-1.9 46-2c15.3 0 30.7.6 46 1.6 15.3 1.1 30.7 2.8 46 4.9 15.3 2 30.7 4.6 46 7.3s30.7 5.9 46 9c15.3 3 30.7 6.4 46 9.5 15.3 3 30.7 6.2 46 8.9s30.7 5.3 46 7.3c15.3 2.1 30.7 3.8 46 4.8 15.3 1.1 38.3 1.4 46 1.7"/><path stroke="#f5f0e8" stroke-opacity=".079" d="M-60 283.9c7.7-.5 30.7-2 46-2.9 15.3-.8 30.7-1.6 46-2.4s30.7-1.5 46-2.1c15.3-.7 30.7-1.3 46-1.9s30.7-1.2 46-1.7c15.3-.6 30.7-1.1 46-1.7 15.3-.5 30.7-1.1 46-1.6 15.3-.6 30.7-1.1 46-1.7s30.7-1.2 46-1.8 30.7-1.2 46-1.8 30.7-1.3 46-1.9 30.7-1.3 46-1.9c15.3-.7 30.7-1.3 46-1.9s30.7-1.2 46-1.7 30.7-1 46-1.5l46-1.2c15.3-.3 30.7-.5 46-.7s30.7-.3 46-.3 30.7 0 46 .2 30.7.4 46 .7c15.3.4 30.7.8 46 1.3 15.3.4 30.7 1 46 1.6s30.7 1.3 46 2 30.7 1.5 46 2.2c15.3.8 30.7 1.6 46 2.3 15.3.8 30.7 1.5 46 2.2s30.7 1.3 46 1.9 30.7 1.1 46 1.5c15.3.3 30.7.6 46 .8s30.7.2 46 .1 30.7-.3 46-.8c15.3-.4 30.7-.9 46-1.6s30.7-1.6 46-2.6 30.7-2.2 46-3.5 30.7-2.8 46-4.3c15.3-1.6 30.7-3.3 46-5.1s38.3-4.6 46-5.6M-60 327.6c7.7.9 30.7 3.6 46 5.2 15.3 1.5 30.7 2.9 46 4s30.7 2 46 2.6 30.7 1 46 1.2 30.7.1 46-.1 30.7-.7 46-1.2c15.3-.6 30.7-1.3 46-2.1 15.3-.7 30.7-1.6 46-2.5 15.3-.8 30.7-1.7 46-2.5s30.7-1.5 46-2.1 30.7-1.1 46-1.3c15.3-.3 30.7-.4 46-.2 15.3.1 30.7.5 46 1.1s30.7 1.4 46 2.5c15.3 1 30.7 2.3 46 3.8s30.7 3.2 46 5.1c15.3 1.8 30.7 3.9 46 5.9 15.3 2.1 30.7 4.4 46 6.6s30.7 4.4 46 6.6 30.7 4.3 46 6.3 30.7 3.9 46 5.6 30.7 3.2 46 4.5 30.7 2.3 46 3.1 30.7 1.3 46 1.6 30.7.3 46 .1 30.7-.7 46-1.4c15.3-.6 30.7-1.5 46-2.5 15.3-.9 30.7-2.1 46-3.3 15.3-1.1 30.7-2.4 46-3.6s30.7-2.5 46-3.6 30.7-2.1 46-2.9c15.3-.9 30.7-1.6 46-2s30.7-.6 46-.5 30.7.4 46 1.1c15.3.6 30.7 1.6 46 2.8s30.7 2.8 46 4.5c15.3 1.8 38.3 5 46 6"/><path stroke="#c9a96e" stroke-opacity=".17" stroke-width="1.5" d="M-60 338c7.7-.9 30.7-3.5 46-5.1 15.3-1.5 30.7-3 46-4.2s30.7-2.2 46-2.9 30.7-1.1 46-1.2c15.3 0 30.7.2 46 .9 15.3.6 30.7 1.6 46 3 15.3 1.3 30.7 3.1 46 5.2 15.3 2 30.7 4.5 46 7.1 15.3 2.7 30.7 5.8 46 8.9 15.3 3.2 30.7 6.7 46 10.2 15.3 3.6 30.7 7.3 46 11s30.7 7.5 46 11.1c15.3 3.7 30.7 7.4 46 10.8s30.7 6.7 46 9.6c15.3 3 30.7 5.8 46 8.2 15.3 2.3 30.7 4.4 46 6.1s30.7 3 46 3.8c15.3.9 30.7 1.4 46 1.4 15.3.1 30.7-.3 46-1s30.7-1.8 46-3.2 30.7-3.2 46-5.2c15.3-1.9 30.7-4.2 46-6.6 15.3-2.3 30.7-4.9 46-7.4 15.3-2.6 30.7-5.3 46-7.8s30.7-5.1 46-7.4 30.7-4.6 46-6.5c15.3-2 30.7-3.7 46-5.1s30.7-2.6 46-3.3c15.3-.8 30.7-1.2 46-1.3 15.3 0 30.7.3 46 1 15.3.6 30.7 1.7 46 3 15.3 1.4 30.7 3.1 46 5s30.7 4.2 46 6.6 30.7 5 46 7.7 30.7 5.6 46 8.4 30.7 5.7 46 8.5 38.3 6.8 46 8.1"/><path stroke="#f5f0e8" stroke-opacity=".067" d="M-60 374.4c7.7-.6 30.7-2.5 46-3.5s30.7-1.8 46-2.4c15.3-.5 30.7-.9 46-1.1s30.7-.1 46 .1c15.3.3 30.7.8 46 1.4s30.7 1.4 46 2.4c15.3.9 30.7 2 46 3.2s30.7 2.5 46 3.7c15.3 1.3 30.7 2.6 46 3.9s30.7 2.6 46 3.7 30.7 2.2 46 3.1 30.7 1.7 46 2.2c15.3.6 30.7 1 46 1.1s30.7.1 46-.2c15.3-.4 30.7-.9 46-1.7s30.7-1.8 46-3 30.7-2.6 46-4.2 30.7-3.4 46-5.3 30.7-3.9 46-5.9c15.3-2.1 30.7-4.3 46-6.4s30.7-4.2 46-6.2 30.7-4 46-5.9c15.3-1.8 30.7-3.5 46-5s30.7-2.8 46-3.9 30.7-2 46-2.6 30.7-1 46-1.1c15.3-.2 30.7 0 46 .3a1768 1768 0 0 1 92 4.8c15.3 1.2 30.7 2.5 46 4 15.3 1.4 30.7 3 46 4.6 15.3 1.5 30.7 3.2 46 4.8s30.7 3.2 46 4.7 30.7 2.9 46 4.2 30.7 2.4 46 3.3 30.7 1.7 46 2.2 38.3.7 46 .9"/><path stroke="#f5f0e8" stroke-opacity=".087" d="M-60 419c7.7-.6 30.7-2.3 46-3.4s30.7-2.2 46-3.3 30.7-2.2 46-3.2 30.7-2 46-2.8a3541 3541 0 0 1 92-4.2c15.3-.4 30.7-.8 46-1.1 15.3-.2 30.7-.3 46-.3s30.7.2 46 .4a3530 3530 0 0 1 138 5.4c15.3.9 30.7 1.9 46 2.9s30.7 2.1 46 3.2 30.7 2.2 46 3.3 30.7 2.3 46 3.3c15.3 1.1 30.7 2.1 46 3.1 15.3.9 30.7 1.8 46 2.6s30.7 1.5 46 2.1 30.7 1.1 46 1.4 30.7.5 46 .5c15.3.1 30.7-.1 46-.3 15.3-.3 30.7-.7 46-1.3s30.7-1.3 46-2.2 30.7-1.9 46-3.1c15.3-1.1 30.7-2.4 46-3.8s30.7-3 46-4.6 30.7-3.3 46-5c15.3-1.8 30.7-3.6 46-5.4 15.3-1.9 30.7-3.8 46-5.6 15.3-1.9 30.7-3.7 46-5.6 15.3-1.8 30.7-3.6 46-5.3s30.7-3.4 46-4.9c15.3-1.6 30.7-3.1 46-4.4 15.3-1.4 30.7-2.6 46-3.7s30.7-2.1 46-3c15.3-.8 38.3-1.8 46-2.1"/><path stroke="#f5f0e8" stroke-opacity=".086" d="M-60 503.6c7.7-.2 30.7-.3 46-1.3s30.7-2.6 46-4.6 30.7-4.7 46-7.6c15.3-2.8 30.7-6.2 46-9.8 15.3-3.5 30.7-7.4 46-11.2s30.7-7.9 46-11.8c15.3-3.8 30.7-7.8 46-11.3 15.3-3.6 30.7-7 46-10s30.7-5.8 46-8 30.7-4 46-5.2c15.3-1.3 30.7-2 46-2.2 15.3-.3 30.7.1 46 .9s30.7 2.2 46 3.9c15.3 1.8 30.7 4 46 6.6 15.3 2.5 30.7 5.5 46 8.6s30.7 6.6 46 10c15.3 3.5 30.7 7.1 46 10.7 15.3 3.5 30.7 7.1 46 10.5 15.3 3.3 30.7 6.6 46 9.6s30.7 5.9 46 8.4c15.3 2.4 30.7 4.7 46 6.5 15.3 1.9 30.7 3.4 46 4.6 15.3 1.3 30.7 2.1 46 2.7s30.7.9 46 1 30.7-.2 46-.5 30.7-.8 46-1.4c15.3-.5 30.7-1.2 46-1.9 15.3-.6 30.7-1.3 46-1.8 15.3-.6 30.7-1.1 46-1.4 15.3-.4 30.7-.6 46-.7s30.7 0 46 .3c15.3.2 30.7.6 46 1.2 15.3.5 30.7 1.3 46 2 15.3.8 30.7 1.7 46 2.6 15.3 1 30.7 2 46 2.9s30.7 1.9 46 2.7 38.3 1.7 46 2.1"/><path stroke="#c9a96e" stroke-opacity=".232" stroke-width="1.5" d="M-60 475.3c7.7 1.1 30.7 4.4 46 6.4 15.3 2.1 30.7 4.2 46 6.1s30.7 3.6 46 5.1 30.7 2.7 46 3.7c15.3.9 30.7 1.5 46 1.9a1176 1176 0 0 0 92-1.8c15.3-.9 30.7-2 46-3.3s30.7-2.9 46-4.5 30.7-3.4 46-5.1 30.7-3.5 46-5.2c15.3-1.6 30.7-3.2 46-4.6 15.3-1.3 30.7-2.6 46-3.5 15.3-1 30.7-1.8 46-2.2s30.7-.6 46-.5 30.7.6 46 1.3c15.3.6 30.7 1.6 46 2.8 15.3 1.1 30.7 2.6 46 4.1s30.7 3.3 46 5 30.7 3.6 46 5.3c15.3 1.8 30.7 3.5 46 5.1s30.7 3.1 46 4.3 30.7 2.3 46 3c15.3.8 30.7 1.3 46 1.4 15.3.2 30.7.1 46-.3s30.7-1.2 46-2.1c15.3-1 30.7-2.3 46-3.7s30.7-3.1 46-4.7c15.3-1.7 30.7-3.6 46-5.3 15.3-1.8 30.7-3.6 46-5.2s30.7-3.1 46-4.3 30.7-2.2 46-2.8c15.3-.5 30.7-.8 46-.6 15.3.3 30.7.9 46 2 15.3 1.2 30.7 2.8 46 4.9 15.3 2.2 30.7 4.8 46 7.9 15.3 3 38.3 8.7 46 10.4"/><path stroke="#f5f0e8" stroke-opacity=".052" d="M-60 493.2c7.7.1 30.7.1 46 .3s30.7.6 46 1.1 30.7 1.1 46 1.9c15.3.7 30.7 1.6 46 2.5 15.3 1 30.7 2.1 46 3.2s30.7 2.4 46 3.6c15.3 1.3 30.7 2.6 46 4 15.3 1.3 30.7 2.7 46 4.1 15.3 1.3 30.7 2.7 46 4.1 15.3 1.3 30.7 2.7 46 4 15.3 1.2 30.7 2.5 46 3.7 15.3 1.1 30.7 2.2 46 3.3 15.3 1 30.7 2 46 2.8 15.3.9 30.7 1.7 46 2.4s30.7 1.3 46 1.9c15.3.5 30.7 1 46 1.4s30.7.7 46 1l46 .6c15.3.2 30.7.3 46 .5l46 .3c15.3.1 30.7.2 46 .4 15.3.1 30.7.2 46 .4s30.7.4 46 .7 30.7.6 46 1 30.7.8 46 1.3 30.7 1.1 46 1.7 30.7 1.3 46 2.1c15.3.7 30.7 1.5 46 2.3 15.3.9 30.7 1.7 46 2.7 15.3.9 30.7 1.8 46 2.8 15.3.9 30.7 1.9 46 2.9s30.7 2 46 2.9c15.3 1 30.7 2 46 2.9s30.7 1.8 46 2.6c15.3.9 30.7 1.7 46 2.5 15.3.7 30.7 1.5 46 2.1 15.3.7 38.3 1.5 46 1.8"/><path stroke="#f5f0e8" stroke-opacity=".056" d="M-60 561c7.7 0 30.7.3 46 .2 15.3-.2 30.7-.7 46-1.3 15.3-.7 30.7-1.6 46-2.7s30.7-2.4 46-3.8 30.7-3 46-4.5c15.3-1.6 30.7-3.3 46-4.9s30.7-3.2 46-4.7c15.3-1.4 30.7-2.8 46-4s30.7-2.3 46-3.1c15.3-.7 30.7-1.3 46-1.6s30.7-.4 46-.1c15.3.2 30.7.7 46 1.5 15.3.7 30.7 1.8 46 3 15.3 1.3 30.7 2.8 46 4.4s30.7 3.5 46 5.3c15.3 1.9 30.7 3.9 46 5.9 15.3 1.9 30.7 3.9 46 5.8 15.3 1.8 30.7 3.7 46 5.3s30.7 3 46 4.2 30.7 2.1 46 2.8c15.3.6 30.7.9 46 .9 15.3.1 30.7-.3 46-.9s30.7-1.6 46-2.8c15.3-1.3 30.7-2.9 46-4.6 15.3-1.8 30.7-3.9 46-6 15.3-2.2 30.7-4.6 46-6.9 15.3-2.4 30.7-4.9 46-7.3 15.3-2.3 30.7-4.8 46-6.9 15.3-2.2 30.7-4.3 46-6.1s30.7-3.4 46-4.7c15.3-1.2 30.7-2.1 46-2.7 15.3-.5 30.7-.7 46-.5 15.3.3 30.7.9 46 1.9s30.7 2.4 46 4.1c15.3 1.8 30.7 3.9 46 6.2 15.3 2.4 30.7 5 46 7.8s38.3 7.4 46 8.8"/><path stroke="#f5f0e8" stroke-opacity=".05" d="M-60 591.8c7.7.3 30.7 1.3 46 1.9 15.3.7 30.7 1.3 46 1.8s30.7 1 46 1.4c15.3.3 30.7.6 46 .8 15.3.1 30.7.2 46 0 15.3-.1 30.7-.3 46-.7s30.7-1 46-1.7c15.3-.6 30.7-1.5 46-2.4s30.7-2 46-3.2c15.3-1.1 30.7-2.3 46-3.6s30.7-2.6 46-3.9 30.7-2.6 46-3.8 30.7-2.4 46-3.4 30.7-2 46-2.7 30.7-1.3 46-1.7c15.3-.3 30.7-.5 46-.4s30.7.4 46 1 30.7 1.4 46 2.5 30.7 2.4 46 4c15.3 1.5 30.7 3.3 46 5.3s30.7 4.3 46 6.6 30.7 4.9 46 7.5 30.7 5.3 46 8.1c15.3 2.7 30.7 5.6 46 8.3 15.3 2.8 30.7 5.6 46 8.3s30.7 5.4 46 7.9 30.7 5 46 7.3 30.7 4.4 46 6.4 30.7 3.8 46 5.4c15.3 1.7 30.7 3.1 46 4.5 15.3 1.3 30.7 2.4 46 3.4s30.7 1.9 46 2.7c15.3.7 30.7 1.3 46 1.9s30.7 1 46 1.5l46 1.2c15.3.4 30.7.7 46 1.1s38.3 1.1 46 1.3"/><path stroke="#c9a96e" stroke-opacity=".231" stroke-width="1.5" d="M-60 638.8c7.7-.8 30.7-2.8 46-4.8 15.3-1.9 30.7-4.3 46-6.9 15.3-2.5 30.7-5.5 46-8.5s30.7-6.3 46-9.6 30.7-6.7 46-10.1c15.3-3.3 30.7-6.7 46-9.8s30.7-6.2 46-8.9 30.7-5.2 46-7.4c15.3-2.1 30.7-4 46-5.4s30.7-2.4 46-3 30.7-.7 46-.5 30.7.9 46 2c15.3 1 30.7 2.5 46 4.2 15.3 1.8 30.7 3.9 46 6.2 15.3 2.2 30.7 4.8 46 7.4s30.7 5.4 46 8.1 30.7 5.6 46 8.1c15.3 2.6 30.7 5.2 46 7.4s30.7 4.2 46 5.9c15.3 1.6 30.7 3 46 3.9s30.7 1.4 46 1.4c15.3.1 30.7-.3 46-1.2s30.7-2.2 46-4c15.3-1.7 30.7-4 46-6.6s30.7-5.6 46-8.9 30.7-6.9 46-10.7c15.3-3.7 30.7-7.8 46-11.8s30.7-8.2 46-12.2c15.3-4.1 30.7-8.1 46-11.9s30.7-7.5 46-10.8 30.7-6.4 46-9.1c15.3-2.6 30.7-4.9 46-6.7s30.7-3.2 46-4.1 30.7-1.3 46-1.2 30.7.7 46 1.7 30.7 2.5 46 4.3 38.3 5.4 46 6.5"/><path stroke="#f5f0e8" stroke-opacity=".067" d="M-60 690.7c7.7.1 30.7.5 46 .2 15.3-.2 30.7-.9 46-1.9s30.7-2.4 46-4.2 30.7-4 46-6.6c15.3-2.5 30.7-5.5 46-8.7s30.7-6.8 46-10.5c15.3-3.8 30.7-7.8 46-12 15.3-4.1 30.7-8.5 46-12.8 15.3-4.4 30.7-8.9 46-13.2s30.7-8.7 46-12.8c15.3-4.2 30.7-8.2 46-11.9 15.3-3.8 30.7-7.3 46-10.5s30.7-6.1 46-8.6c15.3-2.4 30.7-4.6 46-6.3s30.7-3 46-4c15.3-.9 30.7-1.4 46-1.5 15.3-.2 30.7.1 46 .7s30.7 1.5 46 2.7c15.3 1.1 30.7 2.6 46 4.2s30.7 3.5 46 5.4 30.7 3.9 46 5.9 30.7 4.1 46 6 30.7 3.8 46 5.5 30.7 3.3 46 4.6c15.3 1.4 30.7 2.5 46 3.4s30.7 1.6 46 2 30.7.5 46 .4 30.7-.4 46-.9c15.3-.6 30.7-1.4 46-2.3s30.7-2 46-3.1c15.3-1.2 30.7-2.5 46-3.8s30.7-2.7 46-4 30.7-2.6 46-3.7 30.7-2.2 46-3.1 30.7-1.7 46-2.2c15.3-.6 30.7-.9 46-1.1 15.3-.1 38.3.1 46 .2"/><path stroke="#f5f0e8" stroke-opacity=".053" d="M-60 670.7c7.7-.4 30.7-1.4 46-2 15.3-.7 30.7-1.3 46-1.8 15.3-.6 30.7-1.2 46-1.7s30.7-1 46-1.5 30.7-.9 46-1.4c15.3-.4 30.7-.9 46-1.3s30.7-.8 46-1.1c15.3-.4 30.7-.8 46-1.1 15.3-.4 30.7-.7 46-1.1 15.3-.3 30.7-.7 46-1s30.7-.7 46-1 30.7-.7 46-1 30.7-.6 46-1c15.3-.3 30.7-.6 46-1 15.3-.3 30.7-.6 46-1 15.3-.3 30.7-.6 46-1 15.3-.3 30.7-.7 46-1s30.7-.7 46-1 30.7-.7 46-1 30.7-.7 46-1l46-.9 46-.9c15.3-.3 30.7-.6 46-.8 15.3-.3 30.7-.6 46-.8s30.7-.5 46-.7l46-.6 46-.6c15.3-.1 30.7-.3 46-.5 15.3-.1 30.7-.2 46-.4l46-.3c15.3-.2 30.7-.3 46-.4l46-.3c15.3-.1 30.7-.2 46-.4l46-.3c15.3-.2 30.7-.3 46-.5s30.7-.3 46-.5 38.3-.6 46-.7"/><path stroke="#f5f0e8" stroke-opacity=".091" d="M-60 723c7.7-1.3 30.7-5.3 46-8 15.3-2.8 30.7-5.7 46-8.6 15.3-2.8 30.7-5.7 46-8.5 15.3-2.7 30.7-5.4 46-7.9s30.7-4.8 46-6.9c15.3-2 30.7-3.9 46-5.4 15.3-1.6 30.7-2.8 46-3.8 15.3-.9 30.7-1.5 46-1.9 15.3-.3 30.7-.3 46 0s30.7.9 46 1.7 30.7 2 46 3.2c15.3 1.3 30.7 2.9 46 4.5s30.7 3.4 46 5.3c15.3 1.8 30.7 3.8 46 5.7s30.7 3.9 46 5.7c15.3 1.9 30.7 3.8 46 5.5s30.7 3.3 46 4.7 30.7 2.8 46 3.8c15.3 1.1 30.7 2.1 46 2.8s30.7 1.2 46 1.6c15.3.3 30.7.4 46 .4 15.3-.1 30.7-.3 46-.7s30.7-1 46-1.7 30.7-1.6 46-2.6c15.3-.9 30.7-2 46-3.1s30.7-2.3 46-3.6c15.3-1.2 30.7-2.5 46-3.8s30.7-2.6 46-3.9c15.3-1.2 30.7-2.5 46-3.8 15.3-1.2 30.7-2.4 46-3.5 15.3-1.2 30.7-2.3 46-3.3 15.3-1.1 30.7-2 46-2.9s30.7-1.8 46-2.6c15.3-.7 30.7-1.4 46-2.1 15.3-.6 30.7-1.1 46-1.6s30.7-.9 46-1.2 38.3-.6 46-.7"/><path stroke="#c9a96e" stroke-opacity=".227" stroke-width="1.5" d="m-60 732.4 46 .6c15.3.2 30.7.5 46 .8s30.7.6 46 .8c15.3.3 30.7.6 46 .8 15.3.3 30.7.5 46 .7 15.3.1 30.7.3 46 .3 15.3.1 30.7.1 46 0 15.3 0 30.7-.2 46-.4s30.7-.5 46-.8c15.3-.4 30.7-.8 46-1.3s30.7-1.1 46-1.7c15.3-.7 30.7-1.4 46-2.1s30.7-1.5 46-2.4c15.3-.8 30.7-1.7 46-2.5 15.3-.9 30.7-1.8 46-2.7s30.7-1.8 46-2.7 30.7-1.8 46-2.6c15.3-.9 30.7-1.7 46-2.5 15.3-.7 30.7-1.5 46-2.2s30.7-1.4 46-2 30.7-1.2 46-1.7c15.3-.6 30.7-1.1 46-1.5 15.3-.5 30.7-.9 46-1.4l46-1.2c15.3-.4 30.7-.8 46-1.3 15.3-.4 30.7-.8 46-1.3s30.7-1 46-1.6 30.7-1.2 46-1.9c15.3-.8 30.7-1.5 46-2.4s30.7-1.9 46-2.9c15.3-1.1 30.7-2.2 46-3.5s30.7-2.6 46-4.1 30.7-3 46-4.7 30.7-3.4 46-5.3c15.3-1.8 30.7-3.7 46-5.7s30.7-4 46-6.1c15.3-2 38.3-5.2 46-6.3"/><path stroke="#f5f0e8" stroke-opacity=".047" d="M-60 771.9c7.7.9 30.7 3.4 46 5.2 15.3 1.7 30.7 3.5 46 5.2s30.7 3.4 46 5c15.3 1.5 30.7 3.1 46 4.4s30.7 2.5 46 3.5c15.3.9 30.7 1.8 46 2.3 15.3.6 30.7.9 46 1s30.7-.1 46-.5 30.7-1.1 46-2 30.7-2 46-3.3 30.7-2.9 46-4.5 30.7-3.5 46-5.3c15.3-1.9 30.7-3.9 46-5.8 15.3-2 30.7-4 46-5.9s30.7-3.8 46-5.4c15.3-1.7 30.7-3.3 46-4.6 15.3-1.4 30.7-2.6 46-3.5s30.7-1.5 46-1.9c15.3-.3 30.7-.4 46-.2s30.7.7 46 1.5 30.7 1.9 46 3.2c15.3 1.4 30.7 3 46 4.8s30.7 3.8 46 6c15.3 2.1 30.7 4.5 46 6.9 15.3 2.3 30.7 4.9 46 7.3s30.7 5 46 7.3c15.3 2.4 30.7 4.8 46 6.9 15.3 2.2 30.7 4.3 46 6.1s30.7 3.5 46 4.9c15.3 1.5 30.7 2.7 46 3.6 15.3 1 30.7 1.7 46 2.1 15.3.5 30.7.7 46 .7s30.7-.2 46-.6 30.7-1 46-1.7 30.7-1.6 46-2.4c15.3-.9 30.7-1.9 46-2.9 15.3-.9 38.3-2.4 46-2.8"/><path stroke="#f5f0e8" stroke-opacity=".081" d="M-60 818.6c7.7-2.3 30.7-9 46-13.4s30.7-8.9 46-13.1 30.7-8.3 46-11.9c15.3-3.7 30.7-7.1 46-10.1 15.3-2.9 30.7-5.5 46-7.5s30.7-3.6 46-4.7c15.3-1 30.7-1.6 46-1.7s30.7.3 46 1.1c15.3.7 30.7 1.9 46 3.4 15.3 1.4 30.7 3.2 46 5.1 15.3 1.8 30.7 4 46 6 15.3 2.1 30.7 4.3 46 6.2 15.3 2 30.7 3.9 46 5.5s30.7 3.1 46 4.1c15.3 1.1 30.7 1.8 46 2.1s30.7.3 46-.2 30.7-1.4 46-2.6c15.3-1.3 30.7-3 46-5s30.7-4.3 46-6.9c15.3-2.5 30.7-5.4 46-8.3 15.3-2.8 30.7-6 46-9s30.7-6.2 46-9.1 30.7-5.8 46-8.5c15.3-2.6 30.7-5.1 46-7.2 15.3-2.2 30.7-4.1 46-5.6 15.3-1.6 30.7-2.8 46-3.8a1176 1176 0 0 1 92-1.8c15.3.2 30.7.7 46 1.3s30.7 1.5 46 2.3c15.3.9 30.7 1.9 46 2.7 15.3.9 30.7 1.9 46 2.6 15.3.8 30.7 1.5 46 2s30.7.9 46 1.1c15.3.1 30.7.1 46-.2s30.7-.7 46-1.4c15.3-.6 38.3-2 46-2.4"/><path stroke="#f5f0e8" stroke-opacity=".054" d="M-60 847.6c7.7.6 30.7 2.6 46 3.7s30.7 2.1 46 3c15.3 1 30.7 1.8 46 2.5s30.7 1.3 46 1.9c15.3.5 30.7.9 46 1.2s30.7.6 46 .7c15.3.2 30.7.2 46 .2s30.7-.1 46-.3c15.3-.1 30.7-.4 46-.6l46-.9 46-1.2c15.3-.3 30.7-.8 46-1.2l46-1.2c15.3-.4 30.7-.7 46-1.1l46-.9c15.3-.2 30.7-.5 46-.6 15.3-.2 30.7-.3 46-.3s30.7 0 46 .1l46 .6c15.3.3 30.7.6 46 1.1 15.3.4 30.7.9 46 1.5s30.7 1.3 46 2c15.3.8 30.7 1.6 46 2.5s30.7 1.9 46 2.9 30.7 2.1 46 3.3c15.3 1.1 30.7 2.3 46 3.5s30.7 2.5 46 3.8 30.7 2.6 46 3.9c15.3 1.4 30.7 2.7 46 4 15.3 1.4 30.7 2.7 46 4s30.7 2.6 46 3.9c15.3 1.2 30.7 2.5 46 3.7s30.7 2.3 46 3.4 30.7 2.2 46 3.2 30.7 1.9 46 2.8c15.3.8 30.7 1.7 46 2.4s38.3 1.7 46 2"/><path stroke="#c9a96e" stroke-opacity=".211" stroke-width="1.5" d="M-60 853.3c7.7.1 30.7.1 46 .3 15.3.3 30.7.7 46 1.2 15.3.6 30.7 1.3 46 2.2 15.3.8 30.7 1.8 46 2.9s30.7 2.3 46 3.6c15.3 1.2 30.7 2.6 46 4 15.3 1.3 30.7 2.7 46 4 15.3 1.4 30.7 2.7 46 3.9 15.3 1.3 30.7 2.4 46 3.5 15.3 1 30.7 1.9 46 2.7 15.3.7 30.7 1.3 46 1.8 15.3.4 30.7.7 46 .8 15.3 0 30.7 0 46-.3 15.3-.2 30.7-.6 46-1.1s30.7-1.1 46-1.9c15.3-.7 30.7-1.5 46-2.3 15.3-.9 30.7-1.8 46-2.6 15.3-.9 30.7-1.8 46-2.5 15.3-.8 30.7-1.6 46-2.2s30.7-1.1 46-1.5c15.3-.3 30.7-.6 46-.7 15.3 0 30.7.1 46 .3 15.3.3 30.7.7 46 1.3 15.3.5 30.7 1.3 46 2.1 15.3.9 30.7 1.9 46 3s30.7 2.3 46 3.5c15.3 1.3 30.7 2.6 46 3.9 15.3 1.4 30.7 2.7 46 4.1 15.3 1.3 30.7 2.6 46 3.9 15.3 1.2 30.7 2.5 46 3.6s30.7 2.2 46 3.1c15.3 1 30.7 1.9 46 2.6a3538 3538 0 0 0 92 3.6c15.3.5 30.7.8 46 1.2l46 .9c15.3.2 38.3.6 46 .7"/><path stroke="#f5f0e8" stroke-opacity=".078" d="M-60 897.8c7.7.6 30.7 2.2 46 3.3 15.3 1 30.7 2.1 46 3.2 15.3 1 30.7 2 46 3.1 15.3 1 30.7 2 46 2.9 15.3 1 30.7 1.9 46 2.8s30.7 1.7 46 2.5 30.7 1.6 46 2.3c15.3.8 30.7 1.5 46 2.1s30.7 1.2 46 1.7c15.3.6 30.7 1.1 46 1.5l46 1.2 46 .9 46 .6c15.3.2 30.7.3 46 .4s30.7.2 46 .2c15.3.1 30.7.1 46 .1s30.7-.1 46-.1 30.7 0 46-.1c15.3 0 30.7 0 46-.1h92c15.3.1 30.7.1 46 .2s30.7.3 46 .4c15.3.2 30.7.4 46 .7 15.3.2 30.7.5 46 .8l46 1.2c15.3.5 30.7.9 46 1.5 15.3.5 30.7 1.1 46 1.7 15.3.7 30.7 1.3 46 2.1 15.3.7 30.7 1.5 46 2.3s30.7 1.6 46 2.5 30.7 1.9 46 2.8c15.3 1 30.7 1.9 46 2.9s30.7 2.1 46 3.1 30.7 2.1 46 3.1c15.3 1.1 30.7 2.1 46 3.2 15.3 1 38.3 2.5 46 3.1"/><path stroke="#f5f0e8" stroke-opacity=".049" d="M-60 928.9c7.7-.3 30.7-1.2 46-1.9 15.3-.6 30.7-1.2 46-1.9 15.3-.6 30.7-1.2 46-1.8 15.3-.5 30.7-1.1 46-1.6 15.3-.6 30.7-1.1 46-1.6 15.3-.4 30.7-.9 46-1.3s30.7-.8 46-1.1c15.3-.4 30.7-.7 46-.9 15.3-.3 30.7-.6 46-.8l46-.6c15.3-.1 30.7-.3 46-.4 15.3-.2 30.7-.3 46-.5 15.3-.1 30.7-.2 46-.4 15.3-.1 30.7-.3 46-.5 15.3-.1 30.7-.3 46-.6 15.3-.2 30.7-.5 46-.7 15.3-.3 30.7-.7 46-1 15.3-.4 30.7-.8 46-1.3 15.3-.4 30.7-.9 46-1.5 15.3-.5 30.7-1.1 46-1.7s30.7-1.3 46-2 30.7-1.4 46-2.1c15.3-.8 30.7-1.6 46-2.4s30.7-1.6 46-2.4 30.7-1.6 46-2.5c15.3-.8 30.7-1.6 46-2.4s30.7-1.6 46-2.3c15.3-.8 30.7-1.5 46-2.2s30.7-1.4 46-2c15.3-.7 30.7-1.3 46-1.8 15.3-.6 30.7-1.1 46-1.6s30.7-.9 46-1.3 30.7-.8 46-1.1l46-.9c15.3-.3 30.7-.5 46-.7 15.3-.3 30.7-.5 46-.7l46-.6"/><path stroke="#f5f0e8" stroke-opacity=".075" d="M-60 955.9c7.7-.2 30.7-.9 46-1.3s30.7-.8 46-1.1 30.7-.5 46-.7 30.7-.3 46-.4c15.3-.2 30.7-.2 46-.3h46c15.3 0 30.7.1 46 .1l46 .3 46 .3c15.3.1 30.7.2 46 .2l46 .3c15.3 0 30.7.1 46 .1h46c15.3-.1 30.7-.1 46-.2s30.7-.2 46-.4c15.3-.1 30.7-.3 46-.6 15.3-.2 30.7-.4 46-.7s30.7-.6 46-1c15.3-.3 30.7-.7 46-1.1s30.7-.8 46-1.3c15.3-.4 30.7-.9 46-1.4 15.3-.4 30.7-.9 46-1.4s30.7-1 46-1.5 30.7-1 46-1.5 30.7-1 46-1.5 30.7-1 46-1.4c15.3-.5 30.7-.9 46-1.3l46-1.2c15.3-.3 30.7-.7 46-1l46-.9c15.3-.2 30.7-.4 46-.7 15.3-.2 30.7-.3 46-.5s30.7-.3 46-.4l46-.3c15.3 0 30.7-.1 46-.1 15.3-.1 30.7-.1 46-.1s38.3 0 46-.1"/></g><path fill="none" stroke="#c9a96e" stroke-linecap="round" stroke-opacity=".5" stroke-width="2" d="M-60 436.3c7.7.5 30.7 2 46 3s30.7 2 46 2.9c15.3 1 30.7 1.9 46 2.8s30.7 1.8 46 2.6 30.7 1.5 46 2.2c15.3.6 30.7 1.2 46 1.7s30.7.9 46 1.2 30.7.5 46 .7c15.3.1 30.7.1 46 .1 15.3-.1 30.7-.2 46-.4s30.7-.5 46-.8c15.3-.4 30.7-.8 46-1.3 15.3-.4 30.7-.9 46-1.4s30.7-1.1 46-1.6c15.3-.6 30.7-1.1 46-1.7 15.3-.5 30.7-1 46-1.5 15.3-.4 30.7-.9 46-1.2 15.3-.4 30.7-.7 46-1 15.3-.2 30.7-.4 46-.5s30.7-.1 46-.1c15.3.1 30.7.2 46 .4s30.7.5 46 .8c15.3.4 30.7.8 46 1.3 15.3.4 30.7 1 46 1.5 15.3.6 30.7 1.2 46 1.8 15.3.7 30.7 1.3 46 2 15.3.6 30.7 1.3 46 2 15.3.6 30.7 1.3 46 1.9s30.7 1.2 46 1.7 30.7 1 46 1.4c15.3.5 30.7.9 46 1.2s30.7.5 46 .7 30.7.4 46 .4c15.3.1 30.7.1 46 .1s30.7-.1 46-.2 30.7-.3 46-.4l46-.6"/><path fill="url(#c)" d="M0 0h1600v900H0z"/><path d="M0 0h1600v900H0z" filter="url(#d)" opacity=".05"/></svg>